<?xml version="1.0" encoding="UTF-8" standalone="no"?>
<svg
   xmlns:dc="http://purl.org/dc/elements/1.1/"
   xmlns:cc="http://creativecommons.org/ns#"
   xmlns:rdf="http://www.w3.org/1999/02/22-rdf-syntax-ns#"
   xmlns:svg="http://www.w3.org/2000/svg"
   xmlns="http://www.w3.org/2000/svg"
   xmlns:sodipodi="http://sodipodi.sourceforge.net/DTD/sodipodi-0.dtd"
   xmlns:inkscape="http://www.inkscape.org/namespaces/inkscape"
   id="svg3"
   version="1.1"
   viewBox="0 0 220 70"
   height="70px"
   width="220px"
   class="c-logo--brand"
   sodipodi:docname="alte-munze-logo.svg"
   inkscape:version="0.92.4 5da689c313, 2019-01-14">
  <sodipodi:namedview
     pagecolor="#000000"
     bordercolor="#666666"
     borderopacity="1"
     objecttolerance="10"
     gridtolerance="10"
     guidetolerance="10"
     inkscape:pageopacity="1"
     inkscape:pageshadow="2"
     inkscape:window-width="3840"
     inkscape:window-height="2032"
     id="namedview6"
     showgrid="false"
     inkscape:zoom="7.842457"
     inkscape:cx="48.164307"
     inkscape:cy="31.766049"
     inkscape:window-x="0"
     inkscape:window-y="54"
     inkscape:window-maximized="1"
     inkscape:current-layer="svg3" />
  <metadata
     id="metadata9">
    <rdf:RDF>
      <cc:Work
         rdf:about="">
        <dc:format>image/svg+xml</dc:format>
        <dc:type
           rdf:resource="http://purl.org/dc/dcmitype/StillImage" />
        <dc:title></dc:title>
      </cc:Work>
    </rdf:RDF>
  </metadata>
  <defs
     id="defs7" />
  <path
     style="fill:#fcffff;fill-opacity:1"
     fill="#000000"
     id="muenze-logo--black"
     d="M105.985401,1.56934307 L118.832117,0 L118.832117,69.0510949 L105.985401,69.0510949 L105.985401,1.56934307 Z M89.9270073,7.98992006 L102.773723,6.42335766 L102.773723,69.0510949 L89.9270073,69.0510949 L89.9270073,7.98992006 Z M73.8686131,14.4009472 L86.7153285,12.8467153 L86.7153285,69.0510949 L73.8686131,69.0510949 L73.8686131,14.4009472 Z M0,19.270073 L70.6569343,19.270073 L70.6569343,65.8394161 L0,65.8394161 L0,19.270073 Z M7.00202441,54.5985401 L11.5043339,54.5985401 L12.3652771,49.4187671 L16.0772126,49.4187671 L16.9381558,54.5985401 L21.3557824,54.5985401 L16.7970176,31.1978216 L11.5749031,31.1978216 L7.00202441,54.5985401 Z M12.8169195,46.4689781 L14.2000741,37.1538549 L15.5973426,46.4689781 L12.8169195,46.4689781 Z M25.2762888,54.5985401 L35.4946966,54.5985401 L35.4946966,51.3523609 L30.0326471,51.3523609 L30.0326471,31.1978216 L25.2762888,31.1978216 L25.2762888,54.5985401 Z M41.0241788,54.5985401 L45.7805372,54.5985401 L45.7805372,34.7121635 L49.464245,34.7121635 L49.464245,31.1978216 L37.2840157,31.1978216 L37.2840157,34.7121635 L41.0241788,34.7121635 L41.0241788,54.5985401 Z M53.0036781,54.5985401 L63.2503136,54.5985401 L63.2503136,51.3523609 L57.7600365,51.3523609 L57.7600365,44.0272867 L61.9800696,44.0272867 L61.9800696,40.6964245 L57.7600365,40.6964245 L57.7600365,34.5004562 L63.1938583,34.5004562 L63.1938583,31.1978216 L53.0036781,31.1978216 L53.0036781,54.5985401 Z M122.043796,19.270073 L189.904372,19.270073 L220,19.270073 L220,65.8394161 L122.043796,65.8394161 L122.043796,19.270073 Z M130.146698,54.5985401 L133.675154,54.5985401 L133.971544,38.7204893 L137.090699,54.5985401 L139.998147,54.5985401 L143.032619,38.8051722 L143.357237,54.5985401 L146.843351,54.5985401 L146.462278,31.1978216 L141.593009,31.1978216 L138.487968,46.1302464 L135.538179,31.1978216 L130.527771,31.1978216 L130.146698,54.5985401 Z M159.570883,29.1795449 L163.254591,29.1795449 L163.254591,25.1429916 L159.570883,25.1429916 L159.570883,29.1795449 Z M153.643077,29.1795449 L157.326785,29.1795449 L157.326785,25.1429916 L153.643077,25.1429916 L153.643077,29.1795449 Z M158.455891,54.9090443 C159.773187,54.9090443 160.876407,54.7373278 161.765582,54.3938897 C162.654758,54.0504516 163.34868,53.5282454 163.847371,52.8272554 C164.346062,52.1262653 164.698904,51.3123763 164.905908,50.385564 C165.112912,49.4587516 165.216412,48.3367139 165.216412,47.0194172 L165.216412,31.1978216 L160.544737,31.1978216 L160.544737,47.6263116 C160.544737,48.0779562 160.535327,48.4590256 160.516509,48.7695312 C160.49769,49.0800369 160.44594,49.4140607 160.361257,49.7716127 C160.276573,50.1291647 160.163664,50.4184951 160.022525,50.6396128 C159.881386,50.8607305 159.676738,51.0442083 159.408574,51.1900519 C159.14041,51.3358955 158.822852,51.4088161 158.455891,51.4088161 C158.08893,51.4088161 157.773724,51.3358955 157.510265,51.1900519 C157.246805,51.0442083 157.042157,50.8607305 156.896313,50.6396128 C156.75047,50.4184951 156.63756,50.1291647 156.557582,49.7716127 C156.477603,49.4140607 156.425853,49.0776846 156.402329,48.7624743 C156.378806,48.447264 156.367045,48.0685469 156.367045,47.6263116 L156.367045,31.1978216 L151.69537,31.1978216 L151.69537,47.0194172 C151.69537,48.3367139 151.79887,49.4587516 152.005874,50.385564 C152.212877,51.3123763 152.568072,52.1262653 153.071467,52.8272554 C153.574863,53.5282454 154.271138,54.0504516 155.160313,54.3938897 C156.049488,54.7373278 157.148003,54.9090443 158.455891,54.9090443 Z M170.124886,54.5985401 L174.189667,54.5985401 L174.189667,41.6702783 L179.440009,54.5985401 L182.615619,54.5985401 L182.615619,31.1978216 L178.663749,31.1978216 L178.663749,43.3498232 L173.441634,31.1978216 L170.124886,31.1978216 L170.124886,54.5985401 Z M186.903085,54.5985401 L197.629591,54.5985401 L197.629591,51.3523609 L191.447736,51.3523609 L197.587249,33.7100821 L197.587249,31.1978216 L187.157134,31.1978216 L187.157134,34.4581147 L192.816777,34.4581147 L186.903085,51.6205235 L186.903085,54.5985401 Z M201.705349,54.5985401 L211.951984,54.5985401 L211.951984,51.3523609 L206.461707,51.3523609 L206.461707,44.0272867 L210.68174,44.0272867 L210.68174,40.6964245 L206.461707,40.6964245 L206.461707,34.5004562 L211.895529,34.5004562 L211.895529,31.1978216 L201.705349,31.1978216 L201.705349,54.5985401 Z" />
</svg>
