<svg width="25" height="20" fill="none" xmlns="http://www.w3.org/2000/svg"><path d="M4.89 3.844a.26.26 0 1 1 .522 0 .26.26 0 0 1-.522 0zM2.083 2.97a.26.26 0 1 0 0 .52.26.26 0 0 0 0-.52zm0 1.227a.26.26 0 1 0 0 .521.26.26 0 0 0 0-.52zm1.228.522a.26.26 0 1 0 0-.521.26.26 0 0 0 0 .52zM4.538 3.49a.26.26 0 1 0 0-.521.26.26 0 0 0 0 .521zm0 1.228a.26.26 0 1 0 0-.521.26.26 0 0 0 0 .52zm4.295-.614a.26.26 0 1 0 0-.521.26.26 0 0 0 0 .521zm-3.067.614a.26.26 0 1 0 0-.522.26.26 0 0 0 0 .522zm1.228 0a.26.26 0 1 0 0-.522.26.26 0 0 0 0 .522zM8.22 3.49a.26.26 0 1 0 0-.52.26.26 0 0 0 0 .52zm0 1.228a.26.26 0 1 0 0-.52.26.26 0 0 0 0 .52zM9.448 3.49a.26.26 0 1 0 0-.521.26.26 0 0 0 0 .521zm0 1.228a.26.26 0 1 0 0-.522.26.26 0 0 0 0 .522zm1.227 0a.26.26 0 1 0 0-.521.26.26 0 0 0 0 .52zm1.227-1.228a.26.26 0 1 0 0-.521.26.26 0 0 0 0 .521zm0 1.228a.26.26 0 1 0 0-.521.26.26 0 0 0 0 .52zm-7.98.612a.26.26 0 1 0 0-.521.26.26 0 0 0 0 .521zm1.229 0a.26.26 0 1 0 0-.52.26.26 0 0 0 0 .52zm-3.068.093a.26.26 0 1 0 0 .52.26.26 0 0 0 0-.52zm1.228.521a.26.26 0 1 0 0-.521.26.26 0 0 0 0 .521zm1.227 0a.26.26 0 1 0 0-.521.26.26 0 0 0 0 .521zm3.067-.614a.26.26 0 1 0 0-.52.26.26 0 0 0 0 .52zm1.228 0a.26.26 0 1 0 0-.52.26.26 0 0 0 0 .52zm-2.453 0a.26.26 0 1 0 0-.52.26.26 0 0 0 0 .52zm-.614.614a.26.26 0 1 0 0-.521.26.26 0 0 0 0 .521zm1.228 0a.26.26 0 1 0 0-.522.26.26 0 0 0 0 .522zm1.226 0a.26.26 0 1 0 0-.52.26.26 0 0 0 0 .52zm3.067-.614a.26.26 0 1 0 0-.52.26.26 0 0 0 0 .52zm-1.226 0a.26.26 0 1 0 0-.52.26.26 0 0 0 0 .52zm-.613.614a.26.26 0 1 0 0-.521.26.26 0 0 0 0 .521zm1.227 0a.26.26 0 1 0 0-.521.26.26 0 0 0 0 .521zm1.227 0a.26.26 0 1 0 0-.521.26.26 0 0 0 0 .521zm-7.98.614a.26.26 0 1 0 0-.522.26.26 0 0 0 0 .522zm1.229 0a.26.26 0 1 0 0-.521.26.26 0 0 0 0 .521zm1.229 0a.26.26 0 1 0 0-.521.26.26 0 0 0 0 .521zm1.226 0a.26.26 0 1 0 0-.521.26.26 0 0 0 0 .521zm1.227 0a.26.26 0 1 0 0-.521.26.26 0 0 0 0 .521zm1.229 0a.26.26 0 1 0 0-.521.26.26 0 0 0 0 .521zm1.225 0a.26.26 0 1 0 0-.521.26.26 0 0 0 0 .521zm-7.364 1.23a.26.26 0 1 0 0-.521.26.26 0 0 0 0 .52zm1.228 0a.26.26 0 1 0 0-.521.26.26 0 0 0 0 .52zM2.083 6.654a.26.26 0 1 0 0 .52.26.26 0 0 0 0-.52zm1.228.52a.26.26 0 1 0 0-.52.26.26 0 0 0 0 .52zm-1.228.707a.26.26 0 1 0 0 .52.26.26 0 0 0 0-.52zm1.228.521a.26.26 0 1 0 0-.52.26.26 0 0 0 0 .52zm1.227-1.227a.26.26 0 1 0 0-.521.26.26 0 0 0 0 .52zm0 1.228a.26.26 0 1 0 0-.522.26.26 0 0 0 0 .521zm3.067-.614a.26.26 0 1 0 0-.521.26.26 0 0 0 0 .52zm1.228 0a.26.26 0 1 0 0-.521.26.26 0 0 0 0 .52zm-2.453 0a.26.26 0 1 0 0-.521.26.26 0 0 0 0 .52zm-.614-.614a.26.26 0 1 0 0-.522.26.26 0 0 0 0 .522zm1.228 0a.26.26 0 1 0 0-.522.26.26 0 0 0 0 .522zM5.766 8.403a.26.26 0 1 0 0-.522.26.26 0 0 0 0 .521zm1.228 0a.26.26 0 1 0 0-.522.26.26 0 0 0 0 .521zM8.22 7.175a.26.26 0 1 0 0-.521.26.26 0 0 0 0 .52zm0 1.228a.26.26 0 1 0 0-.521.26.26 0 0 0 0 .52zm3.067-.614a.26.26 0 1 0 0-.521.26.26 0 0 0 0 .52zm-1.226 0a.26.26 0 1 0 0-.521.26.26 0 0 0 0 .52zm-.613-.614a.26.26 0 1 0 0-.522.26.26 0 0 0 0 .522zm1.227 0a.26.26 0 1 0 0-.521.26.26 0 0 0 0 .52zM9.448 8.403a.26.26 0 1 0 0-.522.26.26 0 0 0 0 .521zm1.227 0a.26.26 0 1 0 0-.522.26.26 0 0 0 0 .521zm1.227-1.228a.26.26 0 1 0 0-.521.26.26 0 0 0 0 .52zm0 1.228a.26.26 0 1 0 0-.522.26.26 0 0 0 0 .521zm-7.98.612a.26.26 0 1 0 0-.521.26.26 0 0 0 0 .521zm1.229 0a.26.26 0 1 0 0-.521.26.26 0 0 0 0 .521zm-3.068.092a.26.26 0 1 0 0 .521.26.26 0 0 0 0-.52zm1.228.522a.26.26 0 1 0 0-.52.26.26 0 0 0 0 .52zm1.227 0a.26.26 0 1 0 0-.52.26.26 0 0 0 0 .52zm3.067-.614a.26.26 0 1 0 0-.521.26.26 0 0 0 0 .521zm1.228 0a.26.26 0 1 0 0-.521.26.26 0 0 0 0 .521zm-2.453 0a.26.26 0 1 0 0-.521.26.26 0 0 0 0 .521zm-.614.614a.26.26 0 1 0 0-.521.26.26 0 0 0 0 .52zm1.228 0a.26.26 0 1 0 0-.521.26.26 0 0 0 0 .52zm1.226 0a.26.26 0 1 0 .001-.52.26.26 0 0 0 0 .52zm3.067-.614a.26.26 0 1 0 0-.521.26.26 0 0 0 0 .521zm-1.226 0a.26.26 0 1 0 0-.521.26.26 0 0 0 0 .521zm-.613.614a.26.26 0 1 0 0-.521.26.26 0 0 0 0 .52zm1.227 0a.26.26 0 1 0 0-.52.26.26 0 0 0 0 .52zm1.227 0a.26.26 0 1 0 0-.52.26.26 0 0 0 0 .52zM2.697 5.33a.26.26 0 1 0 0-.52.26.26 0 0 0 0 .52zm0 .707a.26.26 0 1 0 0 .52.26.26 0 0 0 0-.52zm0 1.23a.26.26 0 1 0 0 .52.26.26 0 0 0 0-.52zm0 1.226a.26.26 0 1 0 0 .52.26.26 0 0 0 0-.52zm0 1.228a.26.26 0 1 0 .26.262.26.26 0 0 0-.26-.262zm9.82-5.617a.26.26 0 1 0 0-.521.26.26 0 0 0 0 .521zm3.681 0a.26.26 0 1 0 0-.521.26.26 0 0 0 0 .521zm-3.067-.614a.26.26 0 1 0 0-.521.26.26 0 0 0 0 .521zm0 1.228a.26.26 0 1 0 0-.521.26.26 0 0 0 0 .52zm1.227 0a.26.26 0 1 0 0-.522.26.26 0 0 0 0 .522zm1.227-1.228a.26.26 0 1 0 0-.521.26.26 0 0 0 0 .521zm0 1.228a.26.26 0 1 0 0-.522.26.26 0 0 0 0 .522zm4.295-.614a.26.26 0 1 0 0-.521.26.26 0 0 0 0 .521zm-3.067-.614a.26.26 0 1 0 0-.521.26.26 0 0 0 0 .521zm0 1.228a.26.26 0 1 0 0-.522.26.26 0 0 0 0 .522zm1.227 0a.26.26 0 1 0 0-.522.26.26 0 0 0 0 .522zm1.227-1.228a.26.26 0 1 0 0-.521.26.26 0 0 0 0 .521zm0 1.228a.26.26 0 1 0 0-.522.26.26 0 0 0 0 .522zm1.228-1.228a.26.26 0 1 0 0-.521.26.26 0 0 0 0 .521zm0 1.228a.26.26 0 1 0 0-.521.26.26 0 0 0 0 .52zm1.228 0a.26.26 0 1 0 0-.522.26.26 0 0 0 0 .522zM22.95 3.49a.26.26 0 1 0 0-.521.26.26 0 0 0 0 .521zm0 1.228a.26.26 0 1 0 0-.522.26.26 0 0 0 0 .522zm-10.433.612a.26.26 0 1 0 0-.52.26.26 0 0 0 0 .52zm2.453 0a.26.26 0 1 0 0-.521.26.26 0 0 0 0 .521zm1.228 0a.26.26 0 1 0 0-.521.26.26 0 0 0 0 .521zm-3.067.614a.26.26 0 1 0 0-.521.26.26 0 0 0 0 .521zm1.227 0a.26.26 0 1 0 0-.522.26.26 0 0 0 0 .522zm1.227 0a.26.26 0 1 0 0-.521.26.26 0 0 0 0 .521zm3.067-.614a.26.26 0 1 0 0-.521.26.26 0 0 0 0 .521zm1.228 0a.26.26 0 1 0 0-.52.26.26 0 0 0 0 .52zm-3.067.614a.26.26 0 1 0 0-.521.26.26 0 0 0 0 .521zm1.227 0a.26.26 0 1 0 0-.521.26.26 0 0 0 0 .521zm1.227 0a.26.26 0 1 0 0-.521.26.26 0 0 0 0 .521zm3.067-.614a.26.26 0 1 0 0-.52.26.26 0 0 0 0 .52zm-1.225 0a.26.26 0 1 0 0-.521.26.26 0 0 0 0 .521zm-.614.614a.26.26 0 1 0 0-.521.26.26 0 0 0 0 .521zm1.228 0a.26.26 0 1 0 0-.522.26.26 0 0 0 0 .522zm1.227 0a.26.26 0 1 0 0-.521.26.26 0 0 0 0 .521zm-10.433.614a.26.26 0 1 0 0-.521.26.26 0 0 0 0 .521zm9.817 0a.26.26 0 1 0 0-.521.26.26 0 0 0 0 .521zm-9.817 1.23a.26.26 0 1 0 0-.521.26.26 0 0 0 0 .52zm.614-.614a.26.26 0 1 0 0-.522.26.26 0 0 0 0 .522zm0 1.228a.26.26 0 1 0 0-.522.26.26 0 0 0 0 .521zm3.681-1.228a.26.26 0 1 0 0-.522.26.26 0 0 0 0 .522zm1.228 0a.26.26 0 1 0 0-.522.26.26 0 0 0 0 .522zm-1.227 1.228a.26.26 0 1 0 0-.522.26.26 0 0 0 0 .521zm1.227 0a.26.26 0 1 0 0-.522.26.26 0 0 0 0 .521zm4.294-.614a.26.26 0 1 0 0-.521.26.26 0 0 0 0 .52zm-.611-.614a.26.26 0 1 0 0-.522.26.26 0 0 0 0 .522zm0 1.228a.26.26 0 1 0 0-.522.26.26 0 0 0 0 .521zm1.227-1.228a.26.26 0 1 0 0-.522.26.26 0 0 0 0 .522zm0 1.228a.26.26 0 1 0 0-.522.26.26 0 0 0 0 .521zm-10.433.612a.26.26 0 1 0 0-.521.26.26 0 0 0 0 .521zm.614.614a.26.26 0 1 0 0-.521.26.26 0 0 0 0 .52zm.967-.26a.26.26 0 1 0 .52 0 .26.26 0 0 0-.52 0zm1.227 0a.26.26 0 1 0 .52 0 .26.26 0 0 0-.52 0zm1.488.26a.26.26 0 1 0 0-.521.26.26 0 0 0 0 .52zm1.227 0a.26.26 0 1 0 0-.521.26.26 0 0 0 0 .52zm1.488-.26a.26.26 0 1 0-.521 0 .26.26 0 0 0 .52 0zm2.806-.354a.26.26 0 1 0 0-.521.26.26 0 0 0 0 .521zm-1.578.353a.26.26 0 1 0-.521 0 .26.26 0 0 0 .52 0zm.967.26a.26.26 0 1 0 0-.52.26.26 0 0 0 0 .52zm1.227 0a.26.26 0 1 0 0-.52.26.26 0 0 0 0 .52zM13.744 5.33a.26.26 0 1 0 0-.521.26.26 0 0 0 0 .521zm3.682 0a.26.26 0 1 0 0-.521.26.26 0 0 0 0 .521zm0 1.228a.26.26 0 1 0 0-.522.26.26 0 0 0 0 .522zm0 1.23a.26.26 0 1 0 0-.522.26.26 0 0 0 0 .522zm0 1.226a.26.26 0 1 0 0-.522.26.26 0 0 0 0 .522zM2.083 10.337a.26.26 0 1 0 0 .52.26.26 0 0 0 0-.52zm1.228.521a.26.26 0 1 0 0-.52.26.26 0 0 0 0 .52zm-1.228.707a.26.26 0 1 0 0 .52.26.26 0 0 0 0-.52zm1.228.521a.26.26 0 1 0 0-.521.26.26 0 0 0 0 .521zm4.294-1.842a.26.26 0 0 0 .261-.26.26.26 0 1 0-.521-.002.26.26 0 0 0 .26.262zm0 1.228a.26.26 0 1 0 0-.52.26.26 0 0 0 0 .52zm-.611-.614a.26.26 0 1 0 0-.521.26.26 0 0 0 0 .521zm0 1.228a.26.26 0 1 0 0-.522.26.26 0 0 0 0 .522zm1.226-1.228a.26.26 0 1 0 0-.52.26.26 0 0 0 0 .52zm0 1.228a.26.26 0 1 0 0-.52.26.26 0 0 0 0 .52zm3.682-1.228a.26.26 0 1 0 0-.52.26.26 0 0 0 0 .52zm0 1.228a.26.26 0 1 0 0-.521.26.26 0 0 0 0 .521zm-9.819.705a.26.26 0 1 0 0 .52.26.26 0 0 0 0-.52zm1.228.521a.26.26 0 1 0 0-.52.26.26 0 0 0 0 .52zm1.488-.26a.26.26 0 1 0-.521 0 .26.26 0 0 0 .52 0zm2.806-.354a.26.26 0 1 0 0-.52.26.26 0 0 0 0 .52zm-1.579.354a.26.26 0 1 0-.52 0 .26.26 0 0 0 .52 0zm.968.26a.26.26 0 1 0 0-.521.26.26 0 0 0 0 .521zm1.226 0a.26.26 0 1 0 0-.52.26.26 0 0 0 0 .52zm1.488-.26a.26.26 0 1 0-.52 0 .26.26 0 0 0 .52 0zm1.228 0a.26.26 0 1 0-.52 0 .26.26 0 0 0 .52 0zm.966.26a.26.26 0 1 0 0-.52.26.26 0 0 0 0 .52zm-4.296.614a.26.26 0 1 0 0-.52.26.26 0 0 0 0 .52zm-3.683 3.679a.26.26 0 1 0 0-.522.26.26 0 0 0 0 .522zm1.228-.522a.26.26 0 1 0 0 .521.26.26 0 0 0 0-.52zm-3.068.614a.26.26 0 1 0 0 .521.26.26 0 0 0 0-.521zm1.228.521a.26.26 0 1 0 0-.52.26.26 0 0 0 0 .52zm1.227-.521a.26.26 0 1 0 0 .521.26.26 0 0 0 0-.521zm1.842-.614a.26.26 0 1 0 0 .52.26.26 0 0 0 0-.52zm1.226.522a.26.26 0 1 0 0-.522.26.26 0 0 0 0 .522zm1.227 0a.26.26 0 1 0 0-.522.26.26 0 0 0 0 .522zm-3.067.092a.26.26 0 1 0 0 .52.26.26 0 0 0 0-.52zm1.228.521a.26.26 0 1 0 0-.521.26.26 0 0 0 0 .521zm1.226 0a.26.26 0 1 0 0-.52.26.26 0 0 0 0 .52zm1.841-1.135a.26.26 0 1 0 0 .521.26.26 0 0 0 0-.52zm1.226 0a.26.26 0 1 0 0 .521.26.26 0 0 0 0-.52zm-1.84.614a.26.26 0 1 0 0 .521.26.26 0 0 0 0-.521zm1.229 0a.26.26 0 1 0 0 .521.26.26 0 0 0 0-.521zm1.226.521a.26.26 0 1 0 0-.52.26.26 0 0 0 0 .52zm-9.819-4.2a.26.26 0 1 0 0 .521.26.26 0 0 0 0-.52zm1.228.522a.26.26 0 1 0 0-.521.26.26 0 0 0 0 .521zm-1.228.707a.26.26 0 1 0 0 .52.26.26 0 0 0 0-.52zm1.228.52a.26.26 0 1 0 0-.52.26.26 0 0 0 0 .52zm4.294-.613a.26.26 0 1 0 0-.521.26.26 0 0 0 0 .52zm-.611-.614a.26.26 0 1 0 0-.522.26.26 0 0 0 0 .522zm0 1.228a.26.26 0 1 0 0-.522.26.26 0 0 0 0 .521zM8.22 14.54a.26.26 0 1 0 0-.52.26.26 0 0 0 0 .52zm0 1.228a.26.26 0 1 0 .001-.52.26.26 0 0 0 0 .52zm3.682-1.228a.26.26 0 1 0 0-.521.26.26 0 0 0 0 .521zm0 1.228a.26.26 0 1 0 0-.521.26.26 0 0 0 0 .52zm-9.819.705a.26.26 0 1 0 0 .521.26.26 0 0 0 0-.521zm1.228.521a.26.26 0 1 0 0-.52.26.26 0 0 0 0 .52zm1.227-.521a.261.261 0 1 0 0 .522.261.261 0 0 0 0-.522zm3.067-.093a.26.26 0 1 0 0-.52.26.26 0 0 0 0 .52zm-1.839.093a.26.26 0 1 0 0 .52.26.26 0 0 0 0-.52zm1.228.521a.26.26 0 1 0 0-.521.26.26 0 0 0 0 .521zm1.226 0a.26.26 0 1 0 0-.52.26.26 0 0 0 0 .52zm1.228-.521a.26.26 0 1 0 0 .521.26.26 0 0 0 0-.521zm1.227 0a.26.26 0 1 0 .001.521.26.26 0 0 0 0-.521zm1.227.521a.26.26 0 1 0 0-.52.26.26 0 0 0 0 .52zm-9.205-6.043a.26.26 0 1 0 0 .52.26.26 0 0 0 0-.52zm0 1.226a.26.26 0 1 0 0 .52.26.26 0 0 0 0-.52zm0 1.228a.26.26 0 1 0 0 .52.26.26 0 0 0 0-.52zm0 3.678a.26.26 0 1 0 0 .521.26.26 0 0 0 0-.52zm0-2.45a.26.26 0 1 0 0 .52.26.26 0 0 0 0-.52zm0 1.226a.26.26 0 1 0 0 .52.26.26 0 0 0 0-.52zm9.82-5.615a.26.26 0 0 0 .26-.26.26.26 0 1 0-.52-.002.26.26 0 0 0 .26.262zm0 1.228a.26.26 0 1 0 0-.52.26.26 0 0 0 0 .52zm.614-.614a.26.26 0 1 0 0-.521.26.26 0 0 0 0 .521zm0 1.228a.26.26 0 1 0 0-.521.26.26 0 0 0 0 .521zm3.681-1.228a.26.26 0 1 0 0-.521.26.26 0 0 0 0 .521zm1.228 0a.26.26 0 1 0 0-.521.26.26 0 0 0 0 .521zm-1.227 1.228a.26.26 0 1 0 0-.522.26.26 0 0 0 0 .522zm1.227 0a.26.26 0 1 0 0-.522.26.26 0 0 0 0 .522zm4.294-1.842a.26.26 0 0 0 .261-.26.26.26 0 1 0-.521-.002.26.26 0 0 0 .26.262zm0 1.228a.26.26 0 1 0 0-.52.26.26 0 0 0 0 .52zm-.611-.614a.26.26 0 1 0 0-.522.26.26 0 0 0 0 .522zm0 1.228a.261.261 0 1 0 0-.522.261.261 0 0 0 0 .522zm1.227-1.228a.26.26 0 1 0 0-.521.26.26 0 0 0 0 .521zm0 1.228a.26.26 0 1 0 0-.522.26.26 0 0 0 0 .522zm-10.433.612a.26.26 0 1 0 0-.52.26.26 0 0 0 0 .52zm.614.614a.26.26 0 1 0 0-.521.26.26 0 0 0 0 .521zm.967-.26a.26.26 0 1 0 .521 0 .26.26 0 0 0-.521 0zm1.227 0a.26.26 0 1 0 .521 0 .26.26 0 0 0-.521 0zm1.488.26a.26.26 0 1 0 0-.521.26.26 0 0 0 0 .521zm1.227 0a.26.26 0 1 0 0-.521.26.26 0 0 0 0 .521zm1.227-.521a.26.26 0 1 0 0 .521.26.26 0 0 0 0-.521zm3.067-.093a.26.26 0 1 0 0-.52.26.26 0 0 0 0 .52zm-1.839.093a.26.26 0 1 0 0 .521.26.26 0 0 0 0-.521zm1.228.521a.26.26 0 1 0 0-.522.26.26 0 0 0 0 .522zm1.227 0a.26.26 0 1 0 0-.521.26.26 0 0 0 0 .521zm-10.433.614a.26.26 0 1 0 0-.52.26.26 0 0 0 0 .52zm6.135 0a.26.26 0 1 0 0-.521.26.26 0 0 0 0 .521zm1.228-.521a.26.26 0 1 0 0 .521.26.26 0 0 0 0-.521zm1.229 0a.26.26 0 1 0 0 .52.26.26 0 0 0 0-.52zm1.225.521a.26.26 0 1 0 0-.52.26.26 0 0 0 0 .52zm-9.817 3.679a.26.26 0 1 0 0-.522.26.26 0 0 0 0 .522zm2.453-.522a.26.26 0 1 0 0 .521.26.26 0 0 0 0-.52zm1.228 0a.26.26 0 1 0 0 .521.26.26 0 0 0 0-.52zm-3.067 1.135a.26.26 0 1 0 0-.521.26.26 0 0 0 0 .521zm1.227-.521a.26.26 0 1 0 0 .521.26.26 0 0 0 0-.521zm1.227 0a.26.26 0 1 0 0 .522.26.26 0 0 0 0-.522zm3.067-.092a.26.26 0 1 0 0-.522.26.26 0 0 0 0 .522zm1.228-.522a.26.26 0 1 0 0 .521.26.26 0 0 0 0-.52zm-3.067 1.135a.26.26 0 1 0 0-.521.26.26 0 0 0 0 .521zm1.227 0a.26.26 0 1 0 0-.521.26.26 0 0 0 0 .521zm1.227-.521a.26.26 0 1 0 0 .522.26.26 0 0 0 0-.522zm1.842-.614a.26.26 0 1 0 0 .521.26.26 0 0 0 0-.52zm1.225.522a.26.26 0 1 0 0-.522.26.26 0 0 0 0 .522zm-1.839.092a.26.26 0 1 0 0 .522.26.26 0 0 0 0-.522zm1.228.521a.261.261 0 1 0 0-.522.261.261 0 0 0 0 .522zm1.227 0a.26.26 0 1 0 0-.521.26.26 0 0 0 0 .521zm-10.433-3.064a.26.26 0 1 0 0-.521.26.26 0 0 0 0 .52zm.614-.614a.26.26 0 1 0 0-.521.26.26 0 0 0 0 .521zm0 1.228a.26.26 0 1 0 0-.521.26.26 0 0 0 0 .52zm5.52-.614a.26.26 0 1 0 0-.522.26.26 0 0 0 0 .522zm1.229-.521a.26.26 0 1 0 0 .521.26.26 0 0 0 0-.521zm-3.067-.093a.26.26 0 1 0 0-.522.26.26 0 0 0 0 .522zm1.227 0a.26.26 0 1 0 0-.522.26.26 0 0 0 0 .522zm-1.227 1.228a.26.26 0 1 0 0-.522.26.26 0 0 0 0 .521zm1.227 0a.26.26 0 1 0 0-.522.26.26 0 0 0 0 .521zm1.227-1.75a.26.26 0 1 0 0 .522.26.26 0 0 0 0-.521zm0 1.228a.26.26 0 1 0 0 .522.26.26 0 0 0 0-.522zm3.067-.092a.26.26 0 1 0 0-.521.26.26 0 0 0 0 .52zm-1.225-.521a.26.26 0 1 0 0 .52.26.26 0 0 0 0-.52zm-.614-.614a.26.26 0 1 0 0 .52.26.26 0 0 0 0-.52zm1.228.521a.261.261 0 1 0 0-.522.261.261 0 0 0 0 .522zm-1.228.707a.26.26 0 1 0 0 .52.26.26 0 0 0 0-.52zm1.228.52a.26.26 0 1 0 0-.52.26.26 0 0 0 0 .52zm1.227-1.227a.26.26 0 1 0 0-.522.26.26 0 0 0 0 .522zm0 1.228a.26.26 0 1 0 0-.522.26.26 0 0 0 0 .521zm-10.433.612a.26.26 0 1 0 0-.52.26.26 0 0 0 0 .52zm1.227 1.225a.26.26 0 1 0 0-.522.26.26 0 0 0 0 .522zm-.613-.61a.26.26 0 1 0 0-.522.26.26 0 0 0 0 .521zm1.227-.522a.26.26 0 1 0 .001.522.26.26 0 0 0 0-.522zm1.227 0a.261.261 0 1 0 .001.522.261.261 0 0 0 0-.522zm3.067-.093a.26.26 0 1 0 0-.521.26.26 0 0 0 0 .521zm1.228-.521a.26.26 0 1 0 0 .521.26.26 0 0 0 0-.521zm-3.067 1.135a.26.26 0 1 0 0-.521.26.26 0 0 0 0 .521zm1.227 0a.26.26 0 1 0 0-.521.26.26 0 0 0 0 .521zm1.227-.521a.261.261 0 1 0 .001.522.261.261 0 0 0 0-.522zm3.067-.093a.26.26 0 1 0 0-.52.26.26 0 0 0 0 .52zm-1.225-.521a.26.26 0 1 0 0 .52.26.26 0 0 0 0-.52zm-.614.614a.261.261 0 1 0 0 .522.261.261 0 0 0 0-.522zm1.228.521a.26.26 0 1 0 0-.522.26.26 0 0 0 0 .522zm1.227 0a.26.26 0 1 0 0-.521.26.26 0 0 0 0 .521zm-5.524-6.75a.26.26 0 1 0 0-.521.26.26 0 0 0 0 .521zm0 1.228a.26.26 0 1 0 0-.521.26.26 0 0 0 0 .521zm0 1.226a.26.26 0 1 0 0-.521.26.26 0 0 0 0 .521zm0 1.228a.26.26 0 1 0 0-.521.26.26 0 0 0 0 .521zm0 3.679a.261.261 0 1 0 0-.522.261.261 0 0 0 0 .522zm0-2.451a.26.26 0 1 0 0-.522.26.26 0 0 0 0 .522zm0 1.226a.26.26 0 1 0 0-.521.26.26 0 0 0 0 .521zM16.25 6.25h-2.5v2.5h2.5v-2.5zm0 7.5h-2.5v2.5h2.5v-2.5zm-5 0h-2.5v2.5h2.5v-2.5zm2.5-1.25h2.5V10h-2.5v2.5zm-10 0h2.5V10h-2.5v2.5zm17.5-2.5h-2.5v2.5h2.5V10zM25 1.25V20H0V1.25h2.5V0h1.25v1.25h2.5V0H7.5v1.25H10V0h1.25v1.25h2.5V0H15v1.25h2.5V0h1.25v1.25h2.5V0h1.25v1.25H25zM2.5 3.75V2.5h-.799a.26.26 0 0 1-.45.257v.947a.26.26 0 0 1 .479.14.26.26 0 0 1-.48.141v.945a.26.26 0 1 1 0 .281v.947a.26.26 0 1 1 0 .281v.949a.26.26 0 1 1 0 .281v.945a.26.26 0 1 1 0 .281v.947a.26.26 0 0 1 .48.142.26.26 0 0 1-.48.141v.947a.26.26 0 1 1 0 .281v.945a.26.26 0 1 1 0 .281v.946a.26.26 0 1 1 0 .281v.947a.26.26 0 1 1 0 .281v.945a.26.26 0 1 1 0 .281v.944a.26.26 0 1 1 0 .281v.947a.26.26 0 1 1 .408.319h.85a.26.26 0 0 1 .189-.439.26.26 0 0 1 .189.439h.847a.26.26 0 0 1 .19-.439.26.26 0 0 1 .189.439h.85a.26.26 0 0 1 .189-.439.26.26 0 0 1 .189.439h.85a.26.26 0 0 1 .19-.439.26.26 0 0 1 .188.439h.848a.26.26 0 0 1 .189-.439.26.26 0 0 1 .189.439h.85a.26.26 0 0 1 .188-.439.26.26 0 0 1 .19.439h.85a.26.26 0 0 1 .188-.439.26.26 0 0 1 .19.439h.847a.26.26 0 0 1 .189-.439.26.26 0 0 1 .189.439h.851a.26.26 0 0 1 .189-.439.26.26 0 0 1 .189.439h.85a.26.26 0 1 1 .378 0h.848a.26.26 0 1 1 .378 0h.849a.26.26 0 1 1 .378 0h.85a.26.26 0 0 1 .19-.439.26.26 0 0 1 .188.439h.848a.26.26 0 0 1 .19-.439.26.26 0 0 1 .189.439h.849a.26.26 0 1 1 .378 0h.851a.26.26 0 1 1 .378 0h.848a.26.26 0 1 1 .378 0h.85a.26.26 0 0 1 .189-.439c.074 0 .14.031.188.08v-.867a.26.26 0 0 1-.449-.18.26.26 0 0 1 .448-.18V16.3a.26.26 0 1 1 0-.36v-.866a.26.26 0 1 1 0-.36v-.868a.26.26 0 1 1 0-.36v-.868a.26.26 0 0 1-.448-.18.26.26 0 0 1 .448-.18v-.867a.26.26 0 1 1 0-.36v-.868a.261.261 0 1 1 0-.362v-.867a.26.26 0 1 1 0-.36v-.866a.26.26 0 0 1-.448-.18.26.26 0 0 1 .448-.18v-.87a.26.26 0 1 1 0-.36V5.25a.26.26 0 0 1-.448-.18.26.26 0 0 1 .448-.18v-.866a.26.26 0 1 1 0-.36v-.868a.26.26 0 0 1-.42-.297H22.5v1.25h-1.25V2.5h-1.138a.26.26 0 1 1-.493.116c0-.041.01-.08.029-.116h-.898v1.25H17.5V2.5h-1.07a.26.26 0 1 1-.464 0H15v1.25h-1.25V2.5h-1.001a.26.26 0 1 1-.464 0H11.25v1.25H10V2.5h-.935a.26.26 0 1 1-.493.116.26.26 0 0 1 .03-.116H7.5v1.25H6.25V2.5h-.867a.26.26 0 1 1-.493.116c0-.041.011-.08.029-.116H3.75v1.25H2.5v.001zm-1.25 15h.03a.28.28 0 0 1-.03-.038v.038zm5-5h-2.5v2.5h2.5v-2.5zm2.5-1.25h2.5V10h-2.5v2.5zm10-3.75h2.5v-2.5h-2.5v2.5z" fill="#FFF503"/></svg>