<svg width="79" height="24" fill="none" xmlns="http://www.w3.org/2000/svg"><path d="M5.506 11H3V7.902h2.579v-.78C5.579 3.317 7.306 2 10.71 2c.925 0 1.63.146 2.165.244l-.267 3.049c-.365-.122-.706-.195-1.338-.195-1.095 0-1.508.78-1.508 2.024v.78h3.016V11H9.763v9.683H5.506V11zM19.25 2.292h-4.257v18.39h4.257V2.292zm7.906.293h-4.257v3.244h4.257V2.585zm0 5.318h-4.257v12.78h4.257V7.904zm12.771 3.659c-.779-.488-1.557-.708-2.579-.708-1.849 0-3.26 1.317-3.26 3.537 0 2.024 1.655 3.366 3.504 3.366.973 0 1.946-.22 2.651-.61l.097 3.293c-1.07.365-2.335.56-3.478.56-4.063 0-7.152-2.463-7.152-6.682 0-4.244 3.09-6.708 7.152-6.708 1.265 0 2.408.22 3.381.708l-.316 3.244zm2.165-9.27h4.257v11h.049l3.551-5.39h4.646l-4.281 5.878 4.646 6.927h-5.157l-3.405-6.342h-.05v6.342h-4.256V2.292z" fill="#0063DB"/><path d="M65.323 11.44c-.462-.147-.949-.147-1.435-.147-1.995 0-3.09 1.488-3.09 4v5.39h-4.257V7.904h3.868v2.366h.049c.73-1.61 1.8-2.659 3.649-2.659.486 0 1.022.074 1.435.147l-.219 3.683z" fill="#FF0084"/></svg>