<svg width="158" height="38" fill="none" xmlns="http://www.w3.org/2000/svg"><path d="M109.412 1.845a.714.714 0 0 1-.177.21.39.39 0 0 1-.234.066.576.576 0 0 1-.297-.097 7.404 7.404 0 0 0-.371-.21 3.624 3.624 0 0 0-.487-.21 1.928 1.928 0 0 0-.643-.098c-.433 0-.757.098-.974.292a.978.978 0 0 0-.324.763c0 .2.059.367.178.499.118.132.274.246.468.342.193.096.413.182.658.257.246.075.497.158.755.248s.51.196.756.317c.245.121.465.274.658.458.194.184.35.41.468.675.119.266.178.589.178.97 0 .414-.072.802-.215 1.164a2.775 2.775 0 0 1-.621.948c-.271.27-.605.482-1.002.637a3.698 3.698 0 0 1-1.351.232 4.26 4.26 0 0 1-.859-.088 4.915 4.915 0 0 1-.823-.245 4.506 4.506 0 0 1-.746-.376 3.293 3.293 0 0 1-.612-.49l.549-.891a.558.558 0 0 1 .181-.166.462.462 0 0 1 .237-.066.64.64 0 0 1 .356.125c.125.084.269.176.431.276.162.1.35.193.565.276.214.084.471.126.771.126.437 0 .775-.1 1.014-.301.239-.201.359-.5.359-.898 0-.23-.06-.416-.178-.558a1.44 1.44 0 0 0-.465-.358 3.7 3.7 0 0 0-.655-.248 19.768 19.768 0 0 1-.756-.23 6.205 6.205 0 0 1-.755-.3 2.337 2.337 0 0 1-.655-.465 2.182 2.182 0 0 1-.465-.715c-.119-.285-.178-.638-.178-1.061a2.53 2.53 0 0 1 .786-1.833 2.93 2.93 0 0 1 .952-.596A3.48 3.48 0 0 1 107.184 0c.545 0 1.05.085 1.514.254.464.17.856.405 1.176.706l-.462.885zm5.378 2.787c.587 0 1.016-.142 1.289-.427.273-.284.409-.673.409-1.167a1.79 1.79 0 0 0-.103-.618 1.242 1.242 0 0 0-.312-.477 1.405 1.405 0 0 0-.528-.305 2.383 2.383 0 0 0-.755-.107h-1.186v3.101h1.186zm0-4.532c.62 0 1.156.074 1.607.22.452.147.823.35 1.114.612.292.262.507.572.646.932.14.36.21.751.21 1.174 0 .447-.073.858-.219 1.23a2.514 2.514 0 0 1-.662.96 3.065 3.065 0 0 1-1.117.625c-.449.148-.976.223-1.579.223h-1.186v3.131h-1.872V.1h3.058zm7.949 4.312c.304 0 .566-.038.787-.116.22-.077.401-.184.543-.32.141-.136.245-.296.312-.48.066-.184.1-.385.1-.603 0-.43-.143-.765-.428-1.004-.285-.238-.719-.358-1.301-.358h-.974v2.881h.961zm4.388 4.795h-1.691c-.317 0-.545-.12-.687-.364l-1.723-2.793a.716.716 0 0 0-.234-.238c-.085-.05-.211-.075-.377-.075h-.637v3.47h-1.873V.1h2.847c.632 0 1.173.066 1.623.198.449.132.817.315 1.104.55a2.1 2.1 0 0 1 .631.837c.133.325.199.681.199 1.07 0 .302-.042.587-.127.857a2.557 2.557 0 0 1-.971 1.328 3.1 3.1 0 0 1-.811.414 1.644 1.644 0 0 1 .617.577l2.11 3.276zm3.118-7.632v2.341h3.021v1.425h-3.021v2.392h3.883v1.474h-5.768V.1h5.768v1.475h-3.883zm7.512 0v2.341h3.021v1.425h-3.021v2.392h3.883v1.474h-5.768V.1h5.768v1.475h-3.883zM116.69 14.447l-2.808 9.107h-1.692l-1.854-5.957a5.557 5.557 0 0 1-.168-.596 5.25 5.25 0 0 1-.169.596l-1.872 5.956h-1.698l-2.803-9.107h1.573c.163 0 .299.038.409.113a.52.52 0 0 1 .216.302l1.404 5.134a17.009 17.009 0 0 1 .206.985c.037-.188.077-.364.118-.527.042-.163.088-.316.138-.458l1.635-5.134a.596.596 0 0 1 .215-.286.64.64 0 0 1 .403-.128h.549c.163 0 .295.038.397.116a.693.693 0 0 1 .227.298l1.63 5.134c.05.134.095.28.137.436.041.157.081.323.118.499l.097-.499a9.56 9.56 0 0 1 .097-.436l1.404-5.134a.534.534 0 0 1 .213-.289.657.657 0 0 1 .405-.125h1.473zm3.249 1.474v2.341h3.021v1.425h-3.021v2.392h3.883v1.474h-5.768v-9.107h5.768v1.475h-3.883zm8.461 2.837c.304 0 .566-.038.787-.116.22-.077.401-.184.543-.32.141-.136.245-.296.312-.48s.1-.385.1-.602c0-.431-.143-.766-.428-1.005-.285-.238-.718-.357-1.301-.357h-.974v2.88h.961zm4.388 4.796h-1.691c-.316 0-.545-.122-.687-.364l-1.722-2.794a.735.735 0 0 0-.234-.238c-.086-.05-.212-.075-.378-.075h-.637v3.47h-1.872v-9.107h2.846c.632 0 1.173.066 1.623.198.449.132.817.315 1.105.55a2.1 2.1 0 0 1 .63.837c.133.325.2.681.2 1.07 0 .302-.043.587-.128.857-.086.27-.209.516-.372.738a2.682 2.682 0 0 1-.599.59c-.237.171-.507.31-.811.414a1.68 1.68 0 0 1 .618.577l2.109 3.276zm3.106-5.348h.368c.308 0 .531-.096.668-.289l2.291-3.081a.904.904 0 0 1 .356-.305 1.18 1.18 0 0 1 .474-.085h1.623l-2.884 3.735c-.187.243-.381.416-.58.52.145.06.276.136.393.23.116.094.229.219.337.373l2.958 4.25h-1.666c-.108 0-.201-.009-.278-.026a.866.866 0 0 1-.203-.069.525.525 0 0 1-.149-.11.974.974 0 0 1-.119-.153l-2.328-3.277a.684.684 0 0 0-.281-.241 1.15 1.15 0 0 0-.456-.072h-.524v3.947h-1.873v-9.107h1.873v3.76zm-26.482 12.331a.714.714 0 0 1-.177.21.39.39 0 0 1-.234.067.575.575 0 0 1-.297-.098 7.438 7.438 0 0 0-.371-.21 3.632 3.632 0 0 0-.487-.21 1.929 1.929 0 0 0-.643-.098c-.433 0-.757.098-.974.292a.978.978 0 0 0-.324.763c0 .2.059.367.178.499.118.132.274.246.468.342.193.096.413.182.658.257.246.076.497.158.755.248s.51.196.756.317c.245.122.465.274.658.458.194.184.35.41.468.675.119.266.178.589.178.97 0 .414-.072.802-.215 1.164a2.776 2.776 0 0 1-.621.948c-.271.27-.605.482-1.002.637a3.699 3.699 0 0 1-1.351.232 4.26 4.26 0 0 1-.859-.088 4.907 4.907 0 0 1-.823-.245 4.517 4.517 0 0 1-.746-.376 3.296 3.296 0 0 1-.612-.49l.549-.891a.558.558 0 0 1 .181-.166.462.462 0 0 1 .237-.066c.113 0 .231.042.356.125.125.084.269.176.431.276.162.1.35.193.565.277.214.083.471.125.771.125.437 0 .775-.1 1.014-.301.239-.201.359-.5.359-.898 0-.23-.06-.416-.178-.558a1.44 1.44 0 0 0-.465-.358 3.7 3.7 0 0 0-.655-.248 19.817 19.817 0 0 1-.756-.229 6.2 6.2 0 0 1-.755-.301 2.337 2.337 0 0 1-.655-.465 2.18 2.18 0 0 1-.465-.715c-.119-.285-.178-.638-.178-1.061a2.53 2.53 0 0 1 .786-1.833 2.93 2.93 0 0 1 .952-.596 3.48 3.48 0 0 1 1.295-.226c.545 0 1.05.085 1.514.254.464.17.856.405 1.176.706l-.462.885zm8.73-.226h-2.647V37.9h-1.878v-7.59h-2.647v-1.518h7.172v1.518zm5.371 4.13l-.98-2.786a9.62 9.62 0 0 1-.368-1.155 9.809 9.809 0 0 1-.368 1.167l-.974 2.774h2.69zm3.146 3.459h-1.454a.638.638 0 0 1-.397-.117.693.693 0 0 1-.227-.298l-.612-1.738h-3.608l-.612 1.738a.71.71 0 0 1-.218.286.597.597 0 0 1-.393.129h-1.467l3.539-9.107h1.916l3.533 9.107zm-5-10.463a.83.83 0 0 1-.271.618.99.99 0 0 1-.652.254.808.808 0 0 1-.331-.069.962.962 0 0 1-.278-.185.855.855 0 0 1-.193-.966.91.91 0 0 1 .193-.29.952.952 0 0 1 .278-.194.778.778 0 0 1 .331-.072c.124 0 .243.024.355.072a.977.977 0 0 1 .297.195.882.882 0 0 1 .271.637zm2.797 0a.858.858 0 0 1-.266.618.927.927 0 0 1-.633.254.888.888 0 0 1-.35-.069.952.952 0 0 1-.284-.185.871.871 0 0 1-.265-.618.928.928 0 0 1 .549-.832.855.855 0 0 1 .35-.072c.125 0 .241.024.349.072a.917.917 0 0 1 .55.832zm8.91 2.874h-2.646V37.9h-1.879v-7.59h-2.647v-1.518h7.172v1.518zm7.887 0h-2.647V37.9h-1.878v-7.59h-2.647v-1.518h7.172v1.518zm3.361-.044v2.342h3.021v1.424h-3.021v2.392h3.883V37.9h-5.768v-9.107h5.768v1.474h-3.883zM71.398 6.417l-9.362 30.586H55.26L47.834 12.96a22.335 22.335 0 0 1-.675-2.407 22.335 22.335 0 0 1-.675 2.407l-7.502 24.043h-6.8L22.856 6.47c-1.607-.545-8.26-.458-9.198-.458-1.734 0-3.035.392-3.902 1.176-.868.785-1.301 1.809-1.301 3.074 0 .809.237 1.48.713 2.01.475.531 1.1.99 1.876 1.379.775.388 1.655.733 2.64 1.037.983.303 1.992.636 3.026.999 1.034.362 2.043.788 3.027 1.277a10.644 10.644 0 0 1 2.64 1.847c.775.741 1.4 1.648 1.876 2.718.475 1.071.713 2.374.713 3.908 0 1.67-.288 3.233-.863 4.692a11.137 11.137 0 0 1-2.49 3.82c-1.084 1.087-2.422 1.943-4.015 2.566-1.592.624-3.398.936-5.416.936a16.96 16.96 0 0 1-3.44-.354 19.676 19.676 0 0 1-3.302-.986 18.141 18.141 0 0 1-2.99-1.518A13.166 13.166 0 0 1 0 32.62l2.201-3.591a2.24 2.24 0 0 1 .726-.67c.3-.178.617-.266.95-.266.45 0 .926.169 1.427.506.5.337 1.075.708 1.726 1.113.65.404 1.405.775 2.264 1.113.859.337 1.888.505 3.09.505 1.75 0 3.106-.404 4.065-1.214.959-.809 1.438-2.015 1.438-3.616 0-.928-.238-1.678-.713-2.252-.475-.573-1.096-1.053-1.864-1.441a14.672 14.672 0 0 0-2.627-1 79.945 79.945 0 0 1-3.027-.922A24.68 24.68 0 0 1 6.63 19.67a9.367 9.367 0 0 1-2.627-1.87c-.767-.776-1.389-1.737-1.864-2.884-.475-1.146-.713-2.571-.713-4.274 0-1.366.267-2.69.8-3.971a10.078 10.078 0 0 1 2.352-3.415C5.612 2.261 6.884 1.46 8.393.853c1.283-.516 2.71-.597 4.308-.61.282-.002.57-.002.863-.002h13.691c.65 0 1.196.152 1.638.456.442.304.73.71.863 1.216l5.626 20.725c.133.574.27 1.195.412 1.862.142.667.28 1.372.413 2.115.15-.76.308-1.469.475-2.128.167-.659.35-1.275.55-1.85l6.551-20.724c.133-.422.42-.806.863-1.152.441-.347.979-.52 1.612-.52h2.2c.65 0 1.18.156 1.589.469.408.312.712.714.912 1.203l6.526 20.725c.2.54.384 1.127.55 1.76.167.634.325 1.305.476 2.015.133-.71.262-1.381.387-2.014.125-.634.254-1.22.388-1.761l5.626-20.725c.116-.439.4-.827.85-1.165.45-.338.992-.507 1.625-.507h13.121c.293 0 .58 0 .862.003 1.598.012 3.025.093 4.308.609 1.51.607 2.781 1.408 3.815 2.402a10.077 10.077 0 0 1 2.352 3.415c.534 1.281.8 2.605.8 3.97 0 1.704-.237 3.129-.713 4.275-.475 1.147-1.096 2.108-1.863 2.884a9.367 9.367 0 0 1-2.627 1.871 24.68 24.68 0 0 1-3.027 1.214 79.95 79.95 0 0 1-3.027.924 14.67 14.67 0 0 0-2.627.999c-.767.388-1.388.868-1.864 1.441-.475.574-.713 1.324-.713 2.252 0 1.601.48 2.807 1.439 3.616.959.81 2.314 1.214 4.065 1.214 1.2 0 2.23-.168 3.09-.505a13.905 13.905 0 0 0 2.264-1.113c.65-.405 1.225-.776 1.726-1.113.5-.337.975-.506 1.426-.506.333 0 .65.088.95.265.3.178.542.401.726.67l2.201 3.592c-.7.725-1.517 1.383-2.451 1.973-.934.59-1.93 1.096-2.99 1.518a19.73 19.73 0 0 1-3.302.986 16.96 16.96 0 0 1-3.44.354c-2.018 0-3.823-.312-5.416-.936-1.593-.623-2.931-1.48-4.015-2.567a11.137 11.137 0 0 1-2.49-3.819c-.575-1.459-.862-3.023-.862-4.692 0-1.534.237-2.837.713-3.908.475-1.07 1.1-1.977 1.876-2.718a10.644 10.644 0 0 1 2.64-1.847 26.484 26.484 0 0 1 3.026-1.277 84.183 84.183 0 0 1 3.027-1 17.282 17.282 0 0 0 2.64-1.036c.775-.388 1.4-.848 1.876-1.379.475-.53.713-1.201.713-2.01 0-1.265-.434-2.29-1.301-3.074-.867-.784-2.168-1.176-3.903-1.176-.905 0-7.14-.081-9.014.404zM158 28.792V37.9h-.967a.847.847 0 0 1-.369-.073.893.893 0 0 1-.293-.247l-4.513-5.775a9.343 9.343 0 0 1 .038.829V37.9h-1.654v-9.107h.986c.079 0 .146.003.203.009a.452.452 0 0 1 .153.044.617.617 0 0 1 .131.09c.041.038.087.089.137.151l4.544 5.8a7.893 7.893 0 0 1-.05-.885v-5.21H158z" fill="#fff"/></svg>