<svg width="34" height="20" fill="none" xmlns="http://www.w3.org/2000/svg"><path d="M6.667 6.667h20v1.666h-20V6.667zm20 5h-20v1.666h20v-1.666zm5-5.834c0 1.088.698 2.002 1.666 2.347v3.571a2.494 2.494 0 0 0-1.667 2.348c0 1.087.699 2.002 1.667 2.346V20H0v-3.555a2.494 2.494 0 0 0 1.667-2.347A2.494 2.494 0 0 0 0 11.752v-3.57a2.494 2.494 0 0 0 1.667-2.348A2.494 2.494 0 0 0 0 3.486V0h33.333v3.486a2.494 2.494 0 0 0-1.667 2.347zm0-4.167H30.57a.38.38 0 0 1-.336.564.384.384 0 0 1-.384-.383c0-.066.018-.126.047-.18h-1.133a.38.38 0 0 1-.336.563.384.384 0 0 1-.383-.383c0-.066.018-.126.047-.18H26.96a.383.383 0 1 1-.72.18c0-.066.018-.126.047-.18h-1.132a.383.383 0 1 1-.72.18.402.402 0 0 1 .048-.18H23.35a.38.38 0 0 1-.336.563.384.384 0 0 1-.384-.383c0-.066.018-.126.048-.18h-1.133a.38.38 0 0 1-.336.563.383.383 0 0 1-.336-.564h-1.132a.383.383 0 1 1-.672 0h-1.133a.38.38 0 0 1-.337.564.384.384 0 0 1-.383-.383c0-.066.018-.126.047-.18H16.13a.38.38 0 0 1-.337.563.384.384 0 0 1-.383-.383c0-.066.018-.126.047-.18h-1.132a.38.38 0 0 1-.336.563.384.384 0 0 1-.383-.383c0-.066.018-.126.047-.18h-1.134a.38.38 0 0 1-.336.563.383.383 0 0 1-.337-.564h-1.132a.38.38 0 0 1-.336.564.384.384 0 0 1-.384-.383c0-.066.018-.126.048-.18H8.909a.38.38 0 0 1-.337.563.384.384 0 0 1-.336-.564H7.102a.38.38 0 0 1-.336.564.383.383 0 0 1-.336-.564H5.296a.38.38 0 0 1-.336.564.384.384 0 0 1-.384-.383c0-.066.018-.126.047-.18H3.491a.38.38 0 0 1-.336.563.384.384 0 0 1-.383-.383c0-.066.018-.126.047-.18H1.667v.844c.07.052.136.107.202.163a.383.383 0 1 1 .451.45 4.1 4.1 0 0 1 .474.673.383.383 0 1 1 .039.071c.32.592.5 1.264.5 1.965 0 .362-.049.715-.139 1.055a.382.382 0 1 1-.254.699 4.183 4.183 0 0 1-1.273 1.568v1.62a4.2 4.2 0 0 1 1.28 1.584.382.382 0 1 1 .253.703 4.112 4.112 0 0 1-.892 3.758.384.384 0 0 1-.063.761.383.383 0 0 1-.377-.323c-.066.055-.132.11-.201.16v.916h1.178a.381.381 0 0 1 .303-.615.384.384 0 0 1 .304.615H4.65a.381.381 0 0 1 .304-.615.384.384 0 0 1 .304.615h1.199a.381.381 0 0 1 .304-.615.384.384 0 0 1 .303.615h1.199a.383.383 0 1 1 .608 0h1.197a.381.381 0 0 1 .304-.615.383.383 0 0 1 .303.615h1.198a.381.381 0 0 1 .303-.615.384.384 0 0 1 .304.615h1.2a.381.381 0 0 1 .303-.615.384.384 0 0 1 .304.615h1.197a.38.38 0 0 1 .304-.615.384.384 0 0 1 .303.615h1.2a.384.384 0 1 1 .608 0h1.199a.381.381 0 0 1 .303-.615.384.384 0 0 1 .304.615h1.197a.383.383 0 1 1 .608 0h1.198a.381.381 0 0 1 .303-.615.383.383 0 0 1 .304.615h1.199a.383.383 0 1 1 .607 0h1.198a.384.384 0 1 1 .687-.232c0 .087-.03.167-.08.232h1.2a.38.38 0 0 1 .303-.615.384.384 0 0 1 .303.615h1.2a.382.382 0 0 1 .303-.615.384.384 0 0 1 .304.615h1.128v-.914a3.675 3.675 0 0 1-.161-.129.382.382 0 1 1-.472-.46 4.246 4.246 0 0 1-.418-.569c0 .011.003.022.003.034a.384.384 0 1 1-.16-.31 4.122 4.122 0 0 1-.322-2.931.383.383 0 1 1 .26-.716 4.197 4.197 0 0 1 1.27-1.562V9.156a4.185 4.185 0 0 1-1.262-1.546.38.38 0 0 1-.553-.343c0-.18.124-.328.29-.37A4.126 4.126 0 0 1 30 5.834c0-.66.159-1.295.445-1.862a.384.384 0 1 1 .174-.32l-.003.015c.12-.195.256-.38.407-.553a.382.382 0 1 1 .478-.47c.054-.045.11-.09.166-.132v-.846zm-27.619.699a.383.383 0 1 0 0 .767.383.383 0 0 0 0-.767zm1.807 0a.383.383 0 1 0 0 .767.383.383 0 0 0 0-.767zm-.901.903a.384.384 0 1 0 0 .768.384.384 0 0 0 0-.768zm4.512-.136a.383.383 0 1 0 0-.767.383.383 0 0 0 0 .767zm1.806 0a.384.384 0 1 0 0-.768.384.384 0 0 0 0 .768zm-3.61 0a.384.384 0 1 0 0-.767.384.384 0 0 0 0 .767zm-.902.902a.383.383 0 1 0 0-.766.383.383 0 0 0 0 .766zm1.806 0a.383.383 0 1 0 0-.766.383.383 0 0 0 0 .766zm1.805 0a.383.383 0 1 0 0-.766.383.383 0 0 0 0 .766zm4.511-.902a.384.384 0 1 0 0-.767.384.384 0 0 0 0 .767zm-1.803 0a.384.384 0 1 0 0-.767.384.384 0 0 0 0 .767zm-.903.902a.383.383 0 1 0 0-.766.383.383 0 0 0 0 .766zm1.806 0a.383.383 0 1 0 0-.766.383.383 0 0 0 0 .766zm1.806 0a.383.383 0 1 0 0-.766.383.383 0 0 0 0 .766zm-11.74.137a.383.383 0 1 0 0 .767.383.383 0 0 0 0-.767zm1.807 0a.383.383 0 1 0 0 .767.383.383 0 0 0 0-.767zm1.808.767a.383.383 0 1 0 0-.767.383.383 0 0 0 0 .767zm1.803 0a.383.383 0 1 0 0-.767.383.383 0 0 0 0 .767zm1.806 0a.384.384 0 1 0 0-.768.384.384 0 0 0 0 .768zm1.807 0a.383.383 0 1 0 0-.767.383.383 0 0 0 0 .767zm1.803 0a.384.384 0 1 0 0-.768.384.384 0 0 0 0 .768zM4.048 5.98a.383.383 0 1 0 0 .767.383.383 0 0 0 0-.767zm1.807 0a.383.383 0 1 0 0 .767.383.383 0 0 0 0-.767zm-.901-.904a.384.384 0 1 0 0 .768.384.384 0 0 0 0-.768zm0 1.807a.384.384 0 1 0 0 .767.384.384 0 0 0 0-.767zm1.806-1.04a.383.383 0 1 0 0-.766.383.383 0 0 0 0 .767zm1.806 0a.383.383 0 1 0 0-.766.383.383 0 0 0 0 .767zm1.805 0a.383.383 0 1 0 0-.766.383.383 0 0 0 0 .767zm1.805 0a.383.383 0 1 0 0-.766.383.383 0 0 0 0 .767zm1.806 0a.383.383 0 1 0 0-.766.383.383 0 0 0 0 .767zm1.806 0a.383.383 0 1 0 0-.766.383.383 0 0 0 0 .767zM4.047 7.785a.383.383 0 1 0 0 .767.383.383 0 0 0 0-.767zm1.807 0a.383.383 0 1 0 0 .767.383.383 0 0 0 0-.767zm-2.706.903a.383.383 0 1 0 0 .767.383.383 0 0 0 0-.767zm1.805 0a.384.384 0 1 0 0 .768.384.384 0 0 0 0-.768zm1.806.767a.383.383 0 1 0 0-.767.383.383 0 0 0 0 .767zm1.806-.767a.383.383 0 1 0 0 .767.383.383 0 0 0 0-.767zm1.805 0a.383.383 0 1 0 0 .767.383.383 0 0 0 0-.767zm1.805 0a.383.383 0 1 0 0 .767.383.383 0 0 0 0-.767zm1.806 0a.383.383 0 1 0 0 .767.383.383 0 0 0 0-.767zm1.806 0a.383.383 0 1 0 0 .767.383.383 0 0 0 0-.767zm-11.74.903a.383.383 0 0 0-.383.384v.001a.383.383 0 1 0 .767 0v-.001a.383.383 0 0 0-.384-.384zm1.807 0a.383.383 0 0 0-.383.384v.001a.383.383 0 1 0 .766 0v-.001a.383.383 0 0 0-.383-.384zm1.808 0a.383.383 0 0 0-.383.384v.001a.383.383 0 1 0 .766 0v-.001a.383.383 0 0 0-.383-.384zm1.803 0a.383.383 0 0 0-.383.384v.001a.383.383 0 1 0 .766 0v-.001a.383.383 0 0 0-.383-.384zm1.806 0a.383.383 0 0 0-.383.384v.001a.383.383 0 1 0 .766 0v-.001a.383.383 0 0 0-.383-.384zm1.807 0a.383.383 0 0 0-.383.384v.001a.383.383 0 1 0 .766 0v-.001a.383.383 0 0 0-.383-.384zm1.803 0a.383.383 0 0 0-.383.384v.001a.383.383 0 1 0 .766 0v-.001a.383.383 0 0 0-.383-.384zm-12.637 0a.383.383 0 0 0-.383.384v.001a.383.383 0 1 0 .766 0v-.001a.383.383 0 0 0-.383-.384zM16.69 3.133a.384.384 0 1 0 0-.768.384.384 0 0 0 0 .768zm3.61 0a.384.384 0 1 0 0-.768.384.384 0 0 0 0 .768zm1.806 0a.384.384 0 1 0 0-.768.384.384 0 0 0 0 .768zm-4.513.902a.383.383 0 1 0 0-.766.383.383 0 0 0 0 .766zm1.807 0a.383.383 0 1 0 0-.766.383.383 0 0 0 0 .766zm1.805 0a.383.383 0 1 0 0-.766.383.383 0 0 0 0 .766zm4.51-.902a.384.384 0 1 0 0-.767.384.384 0 0 0 0 .767zm1.807-.767a.383.383 0 1 0 0 .766.383.383 0 0 0 0-.766zm-4.512 1.67a.383.383 0 1 0 0-.766.383.383 0 0 0 0 .765zm1.806 0a.383.383 0 1 0 0-.767.383.383 0 0 0 0 .766zm1.805-.767a.384.384 0 1 0 0 .767.384.384 0 0 0 0-.767zm2.71-.903a.383.383 0 1 0 0 .766.383.383 0 0 0 0-.766zm-.904.903a.383.383 0 1 0 0 .767.383.383 0 0 0 0-.767zM16.69 4.938a.384.384 0 1 0 0-.768.384.384 0 0 0 0 .768zm3.61 0a.384.384 0 1 0 0-.768.384.384 0 0 0 0 .768zm1.806 0a.384.384 0 1 0 0-.768.384.384 0 0 0 0 .768zm3.61 0a.384.384 0 1 0 0-.768.384.384 0 0 0 0 .768zm1.806-.767a.383.383 0 1 0 0 .767.383.383 0 0 0 0-.767zm1.808 0a.383.383 0 1 0 0 .766.383.383 0 0 0 0-.766zM17.594 5.844a.383.383 0 1 0 0-.767.383.383 0 0 0 0 .767zm1.807 0a.383.383 0 1 0 0-.767.383.383 0 0 0 0 .767zm1.805 0a.383.383 0 1 0 0-.767.383.383 0 0 0 0 .767zm6.317.136a.383.383 0 1 0 0 .767.383.383 0 0 0 0-.767zm-4.512-.136a.383.383 0 1 0 0-.766.383.383 0 0 0 0 .766zm1.806 0a.383.383 0 1 0 0-.767.383.383 0 0 0 0 .767zm1.805-.768a.384.384 0 1 0 0 .768.384.384 0 0 0 0-.768zm2.71.904a.383.383 0 1 0 0 .766.383.383 0 0 0 0-.766zm-.904-.904a.383.383 0 1 0 0 .767.383.383 0 0 0 0-.766zm0 1.807a.383.383 0 1 0 0 .766.383.383 0 0 0 0-.766zM17.594 8.687a.383.383 0 1 0 0 .767.383.383 0 0 0 0-.767zm1.807 0a.383.383 0 1 0 0 .766.383.383 0 0 0 0-.766zm1.805 0a.383.383 0 1 0 0 .766.383.383 0 0 0 0-.766zm6.317-.903a.383.383 0 1 0 0 .767.383.383 0 0 0 0-.767zm-4.512.903a.383.383 0 1 0 0 .767.383.383 0 0 0 0-.767zm1.806 0a.383.383 0 1 0 0 .766.383.383 0 0 0 0-.766zm1.805 0a.383.383 0 1 0 0 .767.383.383 0 0 0 0-.767zm2.71-.903a.383.383 0 1 0 0 .766.383.383 0 0 0 0-.766zm-.904.903a.383.383 0 1 0 0 .766.383.383 0 0 0 0-.766zm1.807.767a.383.383 0 1 0 0-.767.383.383 0 0 0 0 .767zM16.69 9.59a.383.383 0 0 0-.383.384v.001a.383.383 0 1 0 .767 0v-.001a.383.383 0 0 0-.384-.384zm3.61 0a.383.383 0 0 0-.384.384v.001a.383.383 0 1 0 .767 0v-.001a.383.383 0 0 0-.384-.384zm1.806 0a.383.383 0 0 0-.384.384v.001a.383.383 0 0 0 .767 0v-.001a.383.383 0 0 0-.383-.384zm3.61 0a.383.383 0 0 0-.383.384v.001a.383.383 0 1 0 .766 0v-.001a.383.383 0 0 0-.383-.384zm1.806 0a.383.383 0 0 0-.383.384v.001a.383.383 0 0 0 .766 0v-.001a.383.383 0 0 0-.383-.384zm1.808 0a.383.383 0 0 0-.383.384v.001a.383.383 0 1 0 .766 0v-.001a.383.383 0 0 0-.383-.384zM18.497 3.132a.383.383 0 1 0 0-.767.383.383 0 0 0 0 .767zm0 1.806a.384.384 0 1 0 0-.767.384.384 0 0 0 0 .767zm0 4.652a.383.383 0 0 0-.383.384v.001a.383.383 0 1 0 .766 0v-.001a.383.383 0 0 0-.383-.384zm5.416-6.458a.384.384 0 1 0 0-.767.384.384 0 0 0 0 .767zm0 1.806a.384.384 0 1 0 0-.768.384.384 0 0 0 0 .768zm0 4.652a.383.383 0 0 0-.383.384v.001a.383.383 0 1 0 .767 0v-.001a.383.383 0 0 0-.384-.384zM4.049 11.398a.383.383 0 1 0 0 .767.383.383 0 0 0 0-.767zm1.807 0a.383.383 0 1 0 0 .767.383.383 0 0 0 0-.767zm-2.706-.903a.383.383 0 1 0 0 .767.383.383 0 0 0 0-.767zm1.805 0a.384.384 0 1 0 0 .768.384.384 0 0 0 0-.768zm0 1.807a.384.384 0 1 0 0 .767.384.384 0 0 0 0-.767zm1.806-1.04a.384.384 0 1 0 0-.767.384.384 0 0 0 0 .767zm1.806-.767a.383.383 0 1 0 0 .767.383.383 0 0 0 0-.767zm1.805 0a.383.383 0 1 0 0 .767.383.383 0 0 0 0-.767zm1.805 0a.383.383 0 1 0 0 .767.383.383 0 0 0 0-.767zm1.806 0a.383.383 0 1 0 0 .767.383.383 0 0 0 0-.767zm1.806 0a.383.383 0 1 0 0 .767.383.383 0 0 0 0-.767zm-11.74 2.707a.383.383 0 1 0 0 .767.383.383 0 0 0 0-.767zm1.807 0a.383.383 0 1 0 0 .767.383.383 0 0 0 0-.767zm-.901.903a.384.384 0 1 0 0 .768.384.384 0 0 0 0-.768zm1.806 0a.383.383 0 1 0 0 .767.383.383 0 0 0 0-.767zm1.806 0a.383.383 0 1 0 0 .767.383.383 0 0 0 0-.767zm1.805 0a.383.383 0 1 0 0 .767.383.383 0 0 0 0-.767zm1.805 0a.383.383 0 1 0 0 .767.383.383 0 0 0 0-.767zm1.806 0a.383.383 0 1 0 0 .767.383.383 0 0 0 0-.767zm1.806 0a.383.383 0 1 0 0 .767.383.383 0 0 0 0-.767zm-11.74.904a.383.383 0 1 0 0 .767.383.383 0 0 0 0-.767zm1.807 0a.383.383 0 1 0 0 .767.383.383 0 0 0 0-.767zm1.808 0a.383.383 0 1 0 0 .766.383.383 0 0 0 0-.766zm1.803 0a.383.383 0 1 0 0 .767.383.383 0 0 0 0-.767zm1.806 0a.383.383 0 1 0 0 .767.383.383 0 0 0 0-.767zm1.807 0a.383.383 0 1 0 0 .767.383.383 0 0 0 0-.767zm1.803 0a.383.383 0 1 0 0 .767.383.383 0 0 0 0-.767zM4.048 16.815a.384.384 0 1 0 .001.767.384.384 0 0 0 0-.767zm1.807 0a.384.384 0 1 0 0 .767.384.384 0 0 0 0-.767zm-2.706-.903a.383.383 0 1 0 0 .766.383.383 0 0 0 0-.766zm1.805 0a.383.383 0 1 0 0 .767.383.383 0 0 0 0-.767zm4.512.903a.384.384 0 1 0 0 .767.384.384 0 0 0 0-.767zm1.806 0a.384.384 0 1 0 0 .767.384.384 0 0 0 0-.767zm-3.61 0a.383.383 0 1 0 0 .767.383.383 0 0 0 0-.767zm-.902-.903a.383.383 0 1 0 0 .766.383.383 0 0 0 0-.766zm1.806 0a.383.383 0 1 0 0 .767.383.383 0 0 0 0-.767zm1.805 0a.383.383 0 1 0 0 .766.383.383 0 0 0 0-.766zm4.511.903a.384.384 0 1 0 0 .768.384.384 0 0 0 0-.768zm-1.803 0a.383.383 0 1 0 0 .767.383.383 0 0 0 0-.767zm-.903-.903a.383.383 0 1 0 0 .766.383.383 0 0 0 0-.766zm1.806 0a.383.383 0 1 0 0 .767.383.383 0 0 0 0-.767zm1.806 0a.383.383 0 1 0 0 .767.383.383 0 0 0 0-.767zm1.806-5.417a.383.383 0 1 0 0 .767.383.383 0 0 0 0-.767zm1.807 0a.383.383 0 1 0 0 .766.383.383 0 0 0 0-.766zm1.805 0a.383.383 0 1 0 0 .767.383.383 0 0 0 0-.767zm6.317.903a.383.383 0 1 0 0 .767.383.383 0 0 0 0-.767zm-4.512-.903a.384.384 0 1 0 0 .767.384.384 0 0 0 0-.767zm1.806 0a.383.383 0 1 0 0 .766.383.383 0 0 0 0-.766zm1.805 0a.383.383 0 1 0 0 .767.383.383 0 0 0 0-.767zm4.512-.136a.383.383 0 0 0 .383-.383v-.002a.383.383 0 1 0-.766 0v.001c0 .213.171.384.383.384zm-1.803 1.04a.383.383 0 1 0 0 .765.383.383 0 0 0 0-.766zm-.903-.904a.383.383 0 1 0 0 .767.383.383 0 0 0 0-.767zm1.807 0a.384.384 0 1 0-.001.767.384.384 0 0 0 0-.767zm-1.807 1.807a.383.383 0 1 0 0 .766.383.383 0 0 0 0-.766zm-10.834 1.803a.383.383 0 1 0 0 .767.383.383 0 0 0 0-.767zm1.807 0a.383.383 0 1 0 0 .766.383.383 0 0 0 0-.766zm1.805 0a.383.383 0 1 0 0 .767.383.383 0 0 0 0-.767zm6.317-.903a.383.383 0 1 0 0 .767.383.383 0 0 0 0-.767zm-4.512.903a.383.383 0 1 0 0 .767.383.383 0 0 0 0-.767zm1.806 0a.383.383 0 1 0 0 .766.383.383 0 0 0 0-.766zm1.805 0a.383.383 0 1 0 0 .767.383.383 0 0 0 0-.767zm2.71-.903a.383.383 0 1 0 0 .766.383.383 0 0 0 0-.766zm-.904.903a.383.383 0 1 0 0 .767.383.383 0 0 0 0-.767zm-11.737.904a.383.383 0 1 0 0 .767.383.383 0 0 0 0-.767zm3.61 0a.383.383 0 1 0 0 .766.383.383 0 0 0 0-.766zm1.806 0a.383.383 0 1 0 0 .767.383.383 0 0 0 0-.767zm3.61 0a.383.383 0 1 0 0 .766.383.383 0 0 0 0-.766zm1.806 0a.383.383 0 1 0 0 .767.383.383 0 0 0 0-.767zm1.808 0a.383.383 0 1 0 0 .766.383.383 0 0 0 0-.766zm-12.64 1.806a.384.384 0 1 0 0 .767.384.384 0 0 0 0-.767zm3.61 0a.383.383 0 1 0 0 .766.383.383 0 0 0 0-.766zm1.806 0a.384.384 0 1 0 0 .767.384.384 0 0 0 0-.767zm-4.513-.903a.383.383 0 1 0 0 .767.383.383 0 0 0 0-.767zm1.807 0a.383.383 0 1 0-.001.765.383.383 0 0 0 0-.765zm1.805 0a.383.383 0 1 0-.001.766.383.383 0 0 0 0-.766zm4.51.903a.383.383 0 1 0 .001.767.383.383 0 0 0 0-.767zm1.807 0a.384.384 0 1 0 0 .767.384.384 0 0 0 0-.767zm-4.512-.903a.383.383 0 1 0-.001.767.383.383 0 0 0 0-.767zm1.806 0a.383.383 0 1 0 0 .765.383.383 0 0 0 0-.765zm1.805 0a.383.383 0 1 0 0 .767.383.383 0 0 0 0-.767zm2.71.903a.383.383 0 1 0 0 .766.383.383 0 0 0 0-.766zm-.904-.903a.383.383 0 1 0 0 .766.383.383 0 0 0 0-.766zm-9.931-.903a.383.383 0 1 0 0 .766.383.383 0 0 0 0-.766zm0 1.806a.383.383 0 1 0 0 .767.383.383 0 0 0 0-.767zm5.416-1.806a.383.383 0 1 0 0 .766.383.383 0 0 0 0-.766zm0 1.806a.383.383 0 1 0 0 .767.383.383 0 0 0 0-.767z" fill="#C1B904"/></svg>