<svg width="186" height="186" fill="none" xmlns="http://www.w3.org/2000/svg"><path fill="#00F" d="M150.572 168.285h-8.857v-8.857h8.857zm17.714-17.714h-8.857v-8.857h8.857zm-17.714 0h-8.857v-8.857h8.857zM132.858 186h-8.857v-8.857h8.857zm-17.714 0h-8.857v-8.857h8.857zm-17.714 0h-8.857v-8.857h8.857zm35.428-17.714h-8.857v-8.857h8.857zm-17.714 0h-8.857v-8.857h8.857zm-17.714 0h-8.857v-8.857h8.857zm35.428-17.715h-8.857v-8.857h8.857zm-17.714 0h-8.857v-8.857h8.857zm-17.714 0h-8.857v-8.857h8.857zM79.715 186h-8.857v-8.857h8.857zM62 186h-8.857v-8.857H62zm-17.713 0H35.43v-8.857h8.857zm35.428-17.714h-8.857v-8.857h8.857zm-17.715 0h-8.857v-8.857H62zm-17.713 0H35.43v-8.857h8.857zm35.428-17.715h-8.857v-8.857h8.857zm-17.715 0h-8.857v-8.857H62zm-17.713 0H35.43v-8.857h8.857zM26.572 186h-8.857v-8.857h8.857zm-17.714 0H0v-8.857h8.857zm17.714-17.714h-8.857v-8.857h8.857zm-17.714 0H0v-8.857h8.857zm17.714-17.715h-8.857v-8.857h8.857zm-17.714 0H0v-8.857h8.857zm177.143-17.716h-8.857v-8.857h8.857zm-17.715.001h-8.857v-8.857h8.857zm-17.714 0h-8.857v-8.857h8.857zm-17.714 0h-8.857v-8.857h8.857zm-17.714.001h-8.857V124h8.857zm-17.714 0h-8.857V124h8.857zm-17.715-.001h-8.857v-8.857h8.857zM62 132.857h-8.857V124H62zm-17.713 0H35.43V124h8.857zM62 115.144h-8.857v-8.857H62zm-17.713 0H35.43v-8.857h8.857zM62 97.428h-8.857v-8.857H62zm-17.713 0H35.43v-8.857h8.857zm-17.715 35.428h-8.857v-8.857h8.857zm-17.714.001H.001V124h8.857zm17.715-17.713h-8.857v-8.857h8.857zm-17.715 0H.001v-8.857h8.857zm17.715-17.716h-8.857v-8.857h8.857zm-17.715 0H.001v-8.857h8.857zM62 79.715h-8.856v-8.857H62zm-17.713 0H35.43v-8.857h8.857zM62 62.001h-8.856v-8.857H62zm-17.713 0H35.43v-8.857h8.857zM62 44.286h-8.856V35.43H62zm-17.713 0H35.43V35.43h8.857zM26.572 79.715h-8.857v-8.857h8.857zm-17.714 0H.001v-8.857h8.857zm17.715-17.714h-8.857v-8.857h8.857zm-17.715 0H.001v-8.857h8.857zm17.715-17.715h-8.857V35.43h8.857zM62 26.572h-8.856v-8.857H62zm-17.713 0H35.43v-8.857h8.857zM62 8.858h-8.856V0H62z"/></svg>