<svg width="91" height="28" fill="none" xmlns="http://www.w3.org/2000/svg"><path d="M56.66 21.806c-5.22 3.814-12.78 5.9-19.321 5.9-9.12 0-17.4-3.397-23.64-8.94-.48-.417-.06-1.013.54-.715 6.72 3.874 15.06 6.199 23.64 6.199 5.82 0 12.18-1.192 18-3.696.9-.357 1.62.596.78 1.252z" fill="#fff"/><path d="M58.82 19.304c-.66-.835-4.44-.418-6.12-.18-.48.06-.6-.357-.12-.714 3-2.086 7.86-1.49 8.46-.775.54.715-.12 5.602-2.94 7.927-.42.357-.84.178-.66-.298.66-1.55 2.04-5.066 1.38-5.96zm-6-15.617V1.66c0-.298.24-.536.54-.536h9.181c.3 0 .54.179.54.536v1.73c0 .298-.24.655-.66 1.251l-4.8 6.735c1.74-.06 3.66.239 5.22 1.133.36.179.48.477.48.775v2.145c0 .298-.3.656-.66.477-2.82-1.49-6.54-1.61-9.66 0-.3.179-.66-.179-.66-.477v-2.026c0-.298 0-.894.36-1.371l5.46-7.808h-4.8c-.3-.06-.54-.238-.54-.536zM19.397 16.382h-2.76c-.24 0-.48-.238-.48-.477V1.721c0-.298.24-.477.54-.477h2.58c.24 0 .48.238.48.477v1.847h.06c.66-1.788 1.98-2.622 3.66-2.622 1.74 0 2.82.834 3.6 2.622.66-1.788 2.22-2.622 3.84-2.622 1.14 0 2.46.477 3.24 1.55.9 1.191.72 2.92.72 4.47v8.94c0 .297-.24.536-.54.536h-2.76c-.3 0-.48-.239-.48-.537V8.336c0-.596.06-2.086-.06-2.682-.18-.953-.84-1.192-1.62-1.192-.66 0-1.38.417-1.68 1.133-.3.715-.24 1.907-.24 2.741v7.51c0 .298-.24.536-.54.536h-2.76c-.3 0-.48-.238-.48-.536v-7.51c0-1.609.24-3.933-1.74-3.933s-1.92 2.264-1.92 3.933v7.51c-.12.298-.36.536-.66.536zM70.877.884c4.14 0 6.36 3.517 6.36 7.987 0 4.35-2.46 7.748-6.36 7.748-4.08 0-6.24-3.517-6.24-7.927s2.22-7.808 6.24-7.808zm.06 2.861c-2.04 0-2.16 2.801-2.16 4.53 0 1.728 0 5.423 2.16 5.423s2.28-2.98 2.28-4.827c0-1.192-.06-2.623-.42-3.755-.36-.954-.96-1.37-1.86-1.37zM82.639 16.38h-2.76c-.3 0-.48-.238-.48-.536V1.659c0-.238.24-.477.54-.477h2.58c.24 0 .42.18.48.417v2.146h.06c.78-1.967 1.86-2.86 3.84-2.86 1.26 0 2.46.416 3.24 1.668.72 1.132.72 3.04.72 4.41v8.94c0 .239-.24.418-.54.418H87.5c-.24 0-.48-.18-.48-.418V8.155c0-1.55.18-3.814-1.74-3.814-.66 0-1.32.417-1.62 1.132-.36.835-.42 1.729-.42 2.683v7.628c-.06.358-.3.596-.6.596zM45.137 9.586V8.99c-2.04 0-4.14.418-4.14 2.802 0 1.192.6 2.026 1.68 2.026.78 0 1.5-.477 1.92-1.252.54-1.013.54-1.907.54-2.98zm2.82 6.735c-.18.18-.42.18-.66.06-.9-.775-1.08-1.133-1.62-1.848-1.5 1.55-2.64 2.027-4.56 2.027-2.34 0-4.14-1.43-4.14-4.291 0-2.265 1.2-3.755 3-4.53 1.5-.656 3.66-.775 5.22-.954v-.357c0-.656.06-1.43-.36-2.027-.36-.477-.96-.715-1.56-.715-1.08 0-1.98.536-2.22 1.669-.06.238-.24.477-.48.477l-2.7-.298c-.24-.06-.48-.239-.42-.596.6-3.278 3.6-4.232 6.24-4.232 1.38 0 3.12.358 4.2 1.37 1.38 1.252 1.2 2.921 1.2 4.769v4.291c0 1.311.54 1.848 1.02 2.563.18.238.24.536 0 .715-.6.537-1.62 1.43-2.16 1.907zM9.017 9.586V8.99c-2.04 0-4.14.418-4.14 2.802 0 1.192.6 2.026 1.68 2.026.78 0 1.5-.477 1.92-1.252.54-1.013.54-1.907.54-2.98zm2.82 6.735c-.18.18-.42.18-.66.06-.9-.775-1.08-1.133-1.62-1.848-1.5 1.55-2.64 2.027-4.56 2.027-2.34 0-4.14-1.43-4.14-4.291 0-2.265 1.2-3.755 3-4.53 1.5-.656 3.66-.775 5.22-.954v-.357c0-.656.06-1.43-.36-2.027-.36-.477-.96-.715-1.56-.715-1.08 0-1.98.536-2.22 1.669-.06.238-.24.477-.48.477l-2.7-.298c-.24-.06-.48-.239-.42-.596.6-3.278 3.6-4.232 6.24-4.232 1.38 0 3.12.358 4.2 1.37 1.38 1.252 1.2 2.921 1.2 4.769v4.291c0 1.311.54 1.848 1.02 2.563.18.238.24.536 0 .715-.6.537-1.62 1.43-2.16 1.907z" fill="#fff"/></svg>