<svg width="97" height="36" fill="none" xmlns="http://www.w3.org/2000/svg"><path d="M79.228.486L96.25 27.528H81.486l-5.558-8.838h-.695l-.405-.589h-6.6l11-17.615z" fill="#fff"/><path d="M78.184 17.217l6.485 10.31h-20.67l6.427-10.31h7.758z" fill="#fff"/><path d="M76.507 17.217l6.484 10.31H62.264l6.484-10.31h7.758zM40.377 6.428h4.778c.058 0 .058.058.058.058v20.702c0 .058 0 .058-.058.058h-4.778c-.058 0-.058-.058-.058-.058V6.486c0-.058 0-.058.058-.058zm-1.573 0s.058.058 0 .058L32.51 16.691c-.058.117-.058.233 0 .292l6.35 10.146c.06.059 0 .117 0 .117h-5.884c-.058 0-.116 0-.116-.058l-3.787-6.24c-.059-.058-.059-.058-.117 0l-3.554 6.24c0 .058-.058.058-.175.058h-5.535c-.058 0-.058 0-.058-.058l6.467-10.672a.372.372 0 0 0 0-.35l-5.71-9.622c0-.058 0-.058.059-.058h5.71c.058 0 .116.058.116.058l3.438 5.832c.058.058.058.058.116 0l3.554-5.832c0-.058.058-.058.117-.058l5.302-.058zM13.226 20.247s-.058 0 0 0l-3.554.058s-.058 0 0-.058l3.67-5.948h.059l-.175 5.948zm4.603-13.82H13.4c-.059 0-.117.058-.117.058L0 27.128v.058h5.419c.058 0 .116 0 .116-.058l1.806-2.8c0-.058.059-.058.117-.058h5.651c.059 0 .059 0 .059.059v2.799c0 .058 0 .058.058.058h4.603c.058 0 .058-.058.058-.058V6.485c.058 0 0-.059-.058-.059zm30.179 20.818h6.234c.816 0 1.574-.175 2.331-.408 2.855-.933 4.428-3.79 4.428-6.24 0-3.907-3.03-5.248-6.642-6.822-.64-.292-1.398-.642-1.398-1.516 0-.875.815-1.342 1.748-1.342h4.894c.058 0 .058-.058.058-.058V6.37c0-.058-.058-.058-.058-.058h-5.186c-4.311 0-6.817 2.565-6.817 6.18 0 3.15 1.981 4.666 4.895 5.774 2.039.816 3.32 1.166 3.32 2.8 0 .874-.524 1.69-1.572 1.69h-6.235s-.058 0-.058.059v4.315c0 .116.058.116.058.116zM63.6 9.568a1.563 1.563 0 0 1-1.57-1.57c0-.873.698-1.57 1.57-1.57.87 0 1.568.697 1.568 1.57 0 .872-.755 1.57-1.569 1.57zm0-3.257a1.75 1.75 0 0 0-1.744 1.745c0 .93.756 1.744 1.743 1.744.93 0 1.743-.756 1.743-1.744-.058-.989-.813-1.745-1.743-1.745z" fill="#fff"/><path d="M63.193 7.938V7.24h.522c.117 0 .175 0 .29.059.117.058.117.174.117.29 0 .117-.058.175-.116.291-.116.116-.233.116-.349.116h-.464v-.058zm1.22 1.105l-.407-.93a.558.558 0 0 0 .407-.524.53.53 0 0 0-.233-.465c-.116-.116-.29-.116-.465-.116h-.755v2.035h.233v-.872h.58l.407.872h.233zM4.179 35.068a3.147 3.147 0 0 1-1.625.418c-1.625 0-2.379-1.075-2.379-2.09 0-1.135.928-2.15 2.495-2.15.522 0 1.045.119 1.509.358v.896c-.406-.24-.929-.418-1.45-.418-.871 0-1.51.537-1.51 1.254s.639 1.254 1.451 1.254c.522 0 .929-.18 1.509-.478v.956zm5.918-2.988c-.812 0-1.334.478-1.334 1.254s.522 1.254 1.334 1.254c.813 0 1.277-.477 1.277-1.254.058-.776-.464-1.254-1.277-1.254zm0 3.344c-1.508 0-2.379-1.075-2.379-2.15 0-1.015.813-2.15 2.38-2.15 1.566 0 2.378 1.135 2.378 2.15 0 1.135-.87 2.15-2.379 2.15zm9.459-4.18h.928v4.12H19.44v-2.567l-1.103 1.314h-.174l-1.102-1.314v2.568h-1.044v-4.12h.928l1.334 1.552 1.277-1.553zm8.531 0h.87v4.12h-1.044v-2.567l-1.102 1.314h-.174l-1.103-1.314v2.568H24.49v-4.12h.928l1.335 1.552 1.334-1.553zm8.761 0v2.33c0 1.373-.928 1.85-2.089 1.85-1.218 0-2.089-.537-2.089-1.85v-2.33h1.045v2.389c0 .597.406.956 1.044.956.522 0 1.045-.3 1.045-1.016v-2.329h1.044zm7.949 4.121h-.87l-2.263-2.628v2.628h-1.045v-4.12h.929l2.263 2.567v-2.568h.986v4.12zm4.933-4.121h-1.045v4.12h1.044v-4.12zm7.428 3.824a3.146 3.146 0 0 1-1.625.418c-1.625 0-2.38-1.075-2.38-2.09 0-1.135.93-2.15 2.496-2.15a3.31 3.31 0 0 1 1.509.358v.896c-.407-.24-.929-.418-1.451-.418-.87 0-1.509.537-1.509 1.254s.639 1.254 1.45 1.254c.523 0 .93-.18 1.51-.478v.956zm4.99-2.808l-.58 1.612h1.276l-.697-1.613zm2.437 3.105h-1.103l-.348-.836h-1.857l-.29.836h-1.102l1.682-4.12h1.219l1.799 4.12zm6.034-3.345H69.11v3.345h-1.044V32.02h-1.509v-.776h4.062v.776zm4.179-.776h-1.044v4.12h1.044v-4.12zm5.452.836c-.812 0-1.334.478-1.334 1.254s.522 1.254 1.335 1.254c.812 0 1.276-.477 1.276-1.254.058-.776-.464-1.254-1.276-1.254zm0 3.344c-1.508 0-2.379-1.075-2.379-2.15 0-1.015.813-2.15 2.38-2.15 1.566 0 2.379 1.135 2.379 2.15 0 1.135-.87 2.15-2.38 2.15zm9.637-.059h-.87l-2.322-2.628v2.628h-.986v-4.12h.928l2.205 2.567v-2.568h1.045v4.12zm5.973-3.048c-.58-.239-.986-.358-1.335-.358-.348 0-.58.12-.58.358 0 .597 2.09.478 2.09 1.911 0 .777-.64 1.255-1.567 1.255-.697 0-1.103-.18-1.51-.418v-.896c.581.418.987.537 1.393.537.407 0 .58-.12.58-.418 0-.657-2.088-.418-2.088-1.911 0-.717.638-1.194 1.566-1.194.465 0 .987.12 1.393.298v.836h.058z" fill="#fff"/></svg>