<?xml version="1.0" encoding="UTF-8" standalone="no"?>
<!DOCTYPE svg PUBLIC "-//W3C//DTD SVG 1.1//EN" "http://www.w3.org/Graphics/SVG/1.1/DTD/svg11.dtd">
<svg width="100%" height="100%" viewBox="0 0 370 100" version="1.1" xmlns="http://www.w3.org/2000/svg" xmlns:xlink="http://www.w3.org/1999/xlink" xml:space="preserve" xmlns:serif="http://www.serif.com/" style="fill-rule:evenodd;clip-rule:evenodd;stroke-linejoin:round;stroke-miterlimit:2;">
    <path d="M140.325,44.9C150.176,44.9 157.844,40.029 158.717,29.101L149.614,29.101C148.305,34.596 144.814,36.844 140.325,36.844C132.656,36.844 129.601,30.599 129.601,22.419C129.601,14.238 132.719,8.056 140.325,8.056C144.876,8.056 148.305,10.304 149.614,15.737L158.717,15.737C157.844,4.871 150.176,0 140.325,0C127.98,0 120,8.306 120,22.419C120,36.594 127.98,44.9 140.325,44.9Z" style="fill:white;fill-rule:nonzero;"/>
    <path d="M226.002,44.9C238.596,44.9 246.825,35.783 246.825,22.419C246.825,8.992 238.596,0 226.002,0C213.408,0 205.178,8.992 205.178,22.419C205.178,35.783 213.408,44.9 226.002,44.9ZM226.002,36.844C218.832,36.844 214.779,31.099 214.779,22.419C214.779,13.676 218.832,8.056 226.002,8.056C233.171,8.056 237.224,13.676 237.224,22.419C237.224,31.099 233.171,36.844 226.002,36.844Z" style="fill:white;fill-rule:nonzero;"/>
    <path d="M310.04,44.9C320.639,44.9 327.995,39.342 327.995,27.664L327.995,0.562L318.581,0.562L318.581,26.977C318.581,33.472 315.402,36.782 310.04,36.782C304.678,36.782 301.436,33.472 301.436,26.977L301.436,0.562L292.022,0.562L292.022,27.664C292.022,39.342 299.316,44.9 310.04,44.9Z" style="fill:white;fill-rule:nonzero;"/>
    <path d="M351.791,44.9C361.704,44.9 369.497,40.841 369.497,31.411C369.497,24.792 365.569,20.858 355.344,18.922L349.484,17.798C345.556,17.111 344.496,14.987 344.496,12.989C344.496,10.304 346.367,7.744 351.354,7.744C355.594,7.744 358.836,9.492 358.711,13.426L368.312,13.426C368.312,4.496 361.205,0 351.23,0C341.441,0 334.708,4.246 334.708,12.614C334.708,20.545 340.506,23.668 347.364,25.042L353.661,26.228C357.589,26.977 359.584,28.476 359.584,31.474C359.584,35.033 356.903,37.156 351.853,37.156C345.868,37.156 343.374,33.909 343.187,29.975L333.523,29.975C333.523,39.592 340.631,44.9 351.791,44.9Z" style="fill:white;fill-rule:nonzero;"/>
    <path d="M191.592,1L191.592,18.691L182.41,18.691L182.41,26.309L191.592,26.309L191.592,44L201,44L201,1L191.592,1Z" style="fill:white;fill-rule:nonzero;"/>
    <path d="M174.408,18.691L174.41,18.691L174.41,26.309L174.408,26.309L174.408,44L165,44L165,1L174.408,1L174.408,18.691Z" style="fill:white;fill-rule:nonzero;"/>
    <path d="M236.287,99L205.862,99L205.862,56L235.664,56L235.664,63.986L215.214,63.986L215.214,73.63L233.793,73.63L233.793,80.817L215.214,80.817L215.214,91.014L236.287,91.014L236.287,99Z" style="fill:white;"/>
    <path d="M140.824,99.9C153.418,99.9 161.647,90.783 161.647,77.419C161.647,63.993 153.418,55 140.824,55C128.23,55 120,63.993 120,77.419C120,90.783 128.23,99.9 140.824,99.9ZM140.824,91.844C133.654,91.844 129.601,86.099 129.601,77.419C129.601,68.676 133.654,63.056 140.824,63.056C147.993,63.056 152.046,68.676 152.046,77.419C152.046,86.099 147.993,91.844 140.824,91.844Z" style="fill:white;fill-rule:nonzero;"/>
    <path d="M0.028,88.871L11.188,99.98L22.347,88.871L11.188,77.762L0.028,88.871Z" style="fill:white;"/>
    <path d="M100.463,11.109L89.303,0L78.144,11.109L89.303,22.218L100.463,11.109Z" style="fill:white;"/>
    <path d="M61.405,61.099L50.245,72.208L39.086,61.099L27.926,49.99L39.086,38.881L50.245,27.772L61.405,38.881L72.564,49.99L61.405,61.099ZM94.883,49.99L83.723,38.881L72.564,27.772L61.404,16.663L50.245,5.554L39.085,16.663L27.926,27.772L16.766,38.881L5.607,49.99L16.766,61.099L27.926,72.208L39.085,83.317L50.245,94.426L61.404,83.317L72.564,72.208L83.723,61.099L94.883,49.99Z" style="fill:white;"/>
    <path d="M78.131,88.891L89.291,100L100.45,88.891L89.291,77.782L78.131,88.891Z" style="fill:white;"/>
    <path d="M22.319,11.116L11.16,0.007L0,11.116L11.16,22.225L22.319,11.116Z" style="fill:white;"/>
    <path d="M174.138,56L165,56L165,99L174.137,99L174.137,71.296L174.138,71.296L174.138,56Z" style="fill:white;fill-rule:nonzero;"/>
    <path d="M182.138,84.179L191.132,99L201,99L201,56L191.863,56L191.863,84.257L191.68,84.257L182.138,68.56L182.138,84.179Z" style="fill:white;fill-rule:nonzero;"/>
    <path d="M277.948,28.476L287.112,44.275L277.885,44.275L269.736,29.975L269.736,21.607C274.835,21.601 277.075,19.042 277.075,15.175C277.075,11.241 274.83,8.68 269.718,8.68L261.738,8.68L261.738,18.436L261.736,18.436L261.736,30.804L261.738,30.804L261.738,44.275L252.386,44.275L252.386,0.562L270.03,0.562C281.626,0.562 286.676,6.619 286.676,15.175C286.676,21.42 283.995,26.29 277.948,28.476Z" style="fill:white;fill-rule:nonzero;"/>
</svg>
