<svg width="157" height="60" fill="none" xmlns="http://www.w3.org/2000/svg"><path fill-rule="evenodd" clip-rule="evenodd" d="M157 .486H0v59.02h157V.486zM82.583 29.792c-1.046 0-1.779.314-2.616.732v7.954c.732.104 1.151.104 1.884.104 2.512 0 2.826-1.15 2.826-2.72v-3.768c.104-1.36-.314-2.302-2.094-2.302zm-16.746-.419c-1.78 0-2.198.942-2.198 2.198v.628h4.291v-.628c0-1.256-.314-2.198-2.093-2.198zm-32.552 8.268c0 .941.42 1.465 1.466 1.465s1.674-.314 2.407-.733v-1.884h-2.303c-1.046 0-1.57.21-1.57 1.152zm65.626-7.849c-1.779 0-2.407.942-2.407 2.198v4.395c0 1.15.628 2.197 2.407 2.197 1.78 0 2.408-.941 2.408-2.197V31.99c0-1.256-.628-2.198-2.408-2.198zM24.703 42.559h-5.129V30.106h-2.617v-4.29h2.617v-2.617c0-3.558 1.465-5.65 5.547-5.65h3.454v4.29h-2.198c-1.57 0-1.674.628-1.674 1.674v2.198h3.872L28.157 30h-3.454v12.56zm17.584 0H38.1l-.21-1.047c-1.988 1.047-3.767 1.256-4.919 1.256-3.14 0-4.814-2.093-4.814-5.023 0-3.453 1.988-4.709 5.442-4.709h3.56v-.733c0-1.778-.21-2.302-2.932-2.302h-4.396l.42-4.29h4.814c5.966 0 7.222 1.883 7.222 6.593v10.255zM56.94 30.315c-2.721-.418-3.454-.523-4.71-.523-2.303 0-3.035.523-3.035 2.511v3.768c0 1.988.732 2.511 3.035 2.511 1.256 0 2.093-.104 4.71-.523v4.186c-2.303.523-3.873.628-5.129.628-5.547 0-7.745-2.93-7.745-7.116v-3.035c0-4.186 2.198-7.116 7.745-7.116 1.256 0 2.826.105 5.13.628v4.081zm16.223 5.337h-9.42v.314c0 1.988.733 2.512 3.036 2.512 2.093 0 3.35-.105 6.07-.524v4.186c-2.616.523-3.872.628-6.489.628-5.547 0-7.745-2.93-7.745-7.116V32.2c0-3.663 1.674-6.697 7.326-6.697 5.652 0 7.327 3.034 7.327 6.697v3.453h-.105zm16.747.105c0 4.081-1.151 7.011-8.164 7.011-2.512 0-4.082-.21-6.803-.628V18.804l5.128-.837v8.162c1.152-.418 2.512-.628 3.873-.628 5.129 0 6.07 2.303 6.07 6.07v4.186h-.104zm16.537.105c0 3.557-1.465 6.906-7.536 6.906-6.07 0-7.536-3.453-7.536-6.907v-3.453c0-3.558 1.466-6.907 7.536-6.907 6.071 0 7.536 3.454 7.536 6.907v3.453zm16.538 0c0 3.557-1.466 6.906-7.536 6.906-6.071 0-7.536-3.453-7.536-6.907v-3.453c0-3.558 1.465-6.907 7.536-6.907 6.07 0 7.536 3.454 7.536 6.907v3.453zm16.956 6.697h-5.548l-4.71-7.849v7.849h-5.233V18.804l5.129-.837v15.278l4.71-7.534h5.547l-5.129 8.162 5.234 8.686zm-24.492-12.767c-1.78 0-2.408.942-2.408 2.198v4.395c0 1.15.628 2.197 2.408 2.197 1.779 0 2.407-.941 2.407-2.197V31.99c0-1.256-.628-2.198-2.407-2.198zm28.991 11.4c0-.837-.733-1.57-1.57-1.57-.837 0-1.57.629-1.57 1.57 0 .838.733 1.57 1.57 1.57.837 0 1.57-.627 1.57-1.57zm-2.826 0c0-.732.523-1.36 1.256-1.36s1.361.628 1.256 1.36c0 .733-.523 1.361-1.256 1.361s-1.256-.628-1.256-1.36zm.628.943h.314v-.733h.209c.314 0 .419.105.419.314 0 .123.036.21.066.281.021.05.039.094.039.138h.314s-.105-.105-.105-.42c-.105-.208-.209-.418-.314-.418.209 0 .314-.21.314-.418 0-.21-.105-.314-.209-.42a.393.393 0 0 1-.126-.03 1.038 1.038 0 0 0-.398-.074h-.523v1.78zm.523-1.047h-.209v-.628h.209c.314 0 .419.21.419.314 0 .21-.209.314-.419.314z" fill="#fff"/></svg>