<svg width="78" height="36" fill="none" xmlns="http://www.w3.org/2000/svg"><path d="M60.655.822c-9.513 0-17.22 7.77-17.22 17.347 0 9.583 7.707 17.346 17.22 17.346 9.507 0 17.22-7.763 17.22-17.346 0-9.584-7.706-17.347-17.22-17.347zm0 28.508c-6.12 0-11.08-4.997-11.08-11.161 0-6.165 4.96-11.162 11.08-11.162s11.08 4.997 11.08 11.162c0 6.164-4.96 11.161-11.08 11.161zM33.314 9.382l-4.273 4.352 4.763 4.572-4.725 4.54 4.267 4.352 8.726-8.885-8.758-8.93z" fill="#fff"/><path d="M17.356 35.706c-4.31 0-8.217-1.505-11.616-4.483C1.93 27.873 0 23.448 0 18.088c0-4.758 1.749-8.894 5.194-12.29C8.606 2.42 12.773.706 17.564.706c4.758 0 8.892 1.734 12.285 5.15L25.338 10.4c-2.19-2.2-4.732-3.273-7.78-3.273-3.108 0-5.695 1.067-7.905 3.26-2.21 2.179-3.283 4.698-3.283 7.709 0 3.475 1.164 6.184 3.556 8.292 2.23 1.95 4.66 2.905 7.423 2.905 3.16 0 5.772-1.06 8.002-3.246l4.453 4.601c-3.426 3.358-7.612 5.06-12.448 5.06z" fill="#fff"/></svg>