<?xml version="1.0" encoding="UTF-8" standalone="no"?>
<!-- Generator: Adobe Illustrator 20.1.0, SVG Export Plug-In . SVG Version: 6.00 Build 0)  -->

<svg
   xmlns:dc="http://purl.org/dc/elements/1.1/"
   xmlns:cc="http://creativecommons.org/ns#"
   xmlns:rdf="http://www.w3.org/1999/02/22-rdf-syntax-ns#"
   xmlns:svg="http://www.w3.org/2000/svg"
   xmlns="http://www.w3.org/2000/svg"
   xmlns:sodipodi="http://sodipodi.sourceforge.net/DTD/sodipodi-0.dtd"
   xmlns:inkscape="http://www.inkscape.org/namespaces/inkscape"
   version="1.1"
   id="Layer_1"
   x="0px"
   y="0px"
   width="354px"
   height="57.8px"
   viewBox="0 0 354 57.8"
   style="enable-background:new 0 0 354 57.8;"
   xml:space="preserve"
   sodipodi:docname="grafana-labs.svg"
   inkscape:version="0.92.4 5da689c313, 2019-01-14"><metadata
   id="metadata64"><rdf:RDF><cc:Work
       rdf:about=""><dc:format>image/svg+xml</dc:format><dc:type
         rdf:resource="http://purl.org/dc/dcmitype/StillImage" /></cc:Work></rdf:RDF></metadata><defs
   id="defs62" /><sodipodi:namedview
   pagecolor="#ffffff"
   bordercolor="#666666"
   borderopacity="1"
   objecttolerance="10"
   gridtolerance="10"
   guidetolerance="10"
   inkscape:pageopacity="0"
   inkscape:pageshadow="2"
   inkscape:window-width="3840"
   inkscape:window-height="2032"
   id="namedview60"
   showgrid="false"
   inkscape:zoom="6.8926554"
   inkscape:cx="144.52977"
   inkscape:cy="-4.0750127"
   inkscape:window-x="0"
   inkscape:window-y="54"
   inkscape:window-maximized="1"
   inkscape:current-layer="Layer_1" />
<style
   type="text/css"
   id="style2">
	.st0{fill:#E6E7E8;}
	.st1{fill:url(#SVGID_1_);}
	.st2{fill:url(#SVGID_2_);}
	.st3{fill:url(#SVGID_3_);}
	.st4{fill:url(#SVGID_4_);}
	.st5{fill:url(#SVGID_5_);}
</style>
<g
   id="g57"
   style="fill:#ffffff;fill-opacity:1">
	<g
   id="g18"
   style="fill:#ffffff;fill-opacity:1">
		<path
   class="st0"
   d="M99.9,31.2c-0.4,10.1-8.3,17.9-18.2,17.9c-10.4,0-18.2-8.4-18.2-18.6c0-10.3,8.4-18.7,18.6-18.7    c4.6,0,9.1,2,13,5.6l-3,3.7c-2.9-2.5-6.5-4.3-10-4.3c-7.5,0-13.7,6.2-13.7,13.8c0,7.7,5.8,13.7,13.2,13.7    c6.7,0,11.9-4.9,12.9-11.1H79.5v-4.4h20.4V31.2z"
   id="path4"
   style="fill:#ffffff;fill-opacity:1" />
		<path
   class="st0"
   d="M117.3,28.7h-2.8c-3.1,0-5.6,2.5-5.6,5.6v14.5h-5V24h4.1v2.1c1.3-1.3,3.5-2.1,5.9-2.1h5.4L117.3,28.7z"
   id="path6"
   style="fill:#ffffff;fill-opacity:1" />
		<path
   class="st0"
   d="M144.4,48.8h-4.2v-3.1c-3.3,3.2-8.4,4.7-13.6,2.4c-3.9-1.7-6.7-5.2-7.5-9.4c-1.5-8,4.7-15.2,12.6-15.2    c3.3,0,6.3,1.3,8.5,3.5V24h4.3V48.8z M139.3,38.2c1.2-5.1-2.7-9.6-7.6-9.6c-4.3,0-7.8,3.5-7.8,7.8c0,4.8,4.3,8.6,9.2,7.7    C136.1,43.6,138.6,41.2,139.3,38.2z"
   id="path8"
   style="fill:#ffffff;fill-opacity:1" />
		<path
   class="st0"
   d="M154.4,22.6V24h7.9v4.4h-7.9v20.5h-4.9V22.7c0-5.5,3.9-8.7,8.8-8.7h6l-2,4.7h-4    C156.1,18.7,154.4,20.4,154.4,22.6z"
   id="path10"
   style="fill:#ffffff;fill-opacity:1" />
		<path
   class="st0"
   d="M188.6,48.8h-4.2v-3.1c-3.3,3.2-8.4,4.7-13.6,2.4c-3.9-1.7-6.7-5.2-7.5-9.4c-1.5-8,4.7-15.2,12.6-15.2    c3.3,0,6.3,1.3,8.5,3.5V24h4.3V48.8z M183.5,38.2c1.2-5.1-2.7-9.6-7.6-9.6c-4.3,0-7.8,3.5-7.8,7.8c0,4.8,4.3,8.6,9.2,7.7    C180.3,43.6,182.8,41.2,183.5,38.2z"
   id="path12"
   style="fill:#ffffff;fill-opacity:1" />
		<path
   class="st0"
   d="M215.2,34.1v14.7h-5V34.1c0-3.1-2.5-5.6-5.6-5.6c-3.1,0-5.6,2.5-5.6,5.6v14.7h-5V24h4.1v2.1    c1.8-1.6,4.2-2.5,6.7-2.5C210.6,23.6,215.2,28.3,215.2,34.1z"
   id="path14"
   style="fill:#ffffff;fill-opacity:1" />
		<path
   class="st0"
   d="M244.4,48.8h-4.2v-3.1c-3.3,3.2-8.4,4.7-13.6,2.4c-3.9-1.7-6.7-5.2-7.5-9.4c-1.5-8,4.7-15.2,12.6-15.2    c3.3,0,6.3,1.3,8.5,3.5V24h4.3V48.8z M239.3,38.2c1.2-5.1-2.7-9.6-7.6-9.6c-4.3,0-7.8,3.5-7.8,7.8c0,4.8,4.3,8.6,9.2,7.7    C236.1,43.6,238.6,41.2,239.3,38.2z"
   id="path16"
   style="fill:#ffffff;fill-opacity:1" />
	</g>
	<g
   id="g48"
   style="fill:#ffffff;fill-opacity:1">
		<linearGradient
   id="SVGID_1_"
   gradientUnits="userSpaceOnUse"
   x1="269.0104"
   y1="65.7555"
   x2="269.0104"
   y2="13.4887">
			<stop
   offset="0"
   style="stop-color:#FFF100"
   id="stop20" />
			<stop
   offset="1"
   style="stop-color:#F05A28"
   id="stop22" />
		</linearGradient>
		<path
   class="st1"
   d="M278.4,48.8h-18.7v-37h5v31.9h13.7V48.8z"
   id="path25"
   style="fill:#ffffff;fill-opacity:1" />
		<linearGradient
   id="SVGID_2_"
   gradientUnits="userSpaceOnUse"
   x1="292.1044"
   y1="65.7555"
   x2="292.1044"
   y2="13.4887">
			<stop
   offset="0"
   style="stop-color:#FFF100"
   id="stop27" />
			<stop
   offset="1"
   style="stop-color:#F05A28"
   id="stop29" />
		</linearGradient>
		<path
   class="st2"
   d="M305,48.8h-4.2v-3.1c-2.2,2.1-5.2,3.5-8.6,3.5c-7.1,0-12.9-5.8-12.9-12.9c0-7,5.7-12.8,12.9-12.8    c3.3,0,6.3,1.3,8.5,3.5v-3.1h4.3V48.8z M300.1,36.3c0-4.3-3.5-7.8-7.9-7.8c-4.3,0-7.8,3.5-7.8,7.8c0,4.4,3.5,7.9,7.8,7.9    C296.6,44.2,300.1,40.7,300.1,36.3z"
   id="path32"
   style="fill:#ffffff;fill-opacity:1" />
		<linearGradient
   id="SVGID_3_"
   gradientUnits="userSpaceOnUse"
   x1="322.0468"
   y1="65.7555"
   x2="322.0468"
   y2="13.4887">
			<stop
   offset="0"
   style="stop-color:#FFF100"
   id="stop34" />
			<stop
   offset="1"
   style="stop-color:#F05A28"
   id="stop36" />
		</linearGradient>
		<path
   class="st3"
   d="M334.9,36.3c0,7.1-5.8,12.9-12.9,12.9c-3.3,0-6.4-1.4-8.6-3.5v3.1h-4.2v-35h4.9v12.6c2.1-1.8,4.8-3,7.9-3    C329.1,23.4,334.9,29.2,334.9,36.3z M329.8,36.3c0-4.3-3.5-7.8-7.8-7.8s-7.8,3.5-7.8,7.8c0,4.3,3.5,7.8,7.8,7.8    S329.8,40.6,329.8,36.3z"
   id="path39"
   style="fill:#ffffff;fill-opacity:1" />
		<linearGradient
   id="SVGID_4_"
   gradientUnits="userSpaceOnUse"
   x1="344.7914"
   y1="65.7555"
   x2="344.7914"
   y2="13.4887">
			<stop
   offset="0"
   style="stop-color:#FFF100"
   id="stop41" />
			<stop
   offset="1"
   style="stop-color:#F05A28"
   id="stop43" />
		</linearGradient>
		<path
   class="st4"
   d="M352,25.6l-2.2,3.6c-1.1-0.6-2.8-1.6-4.8-1.6c-1.9,0-3.6,0.9-3.6,2.5c0,1.7,1.9,2.3,4.4,3.2    c4,1.4,7.5,4.1,7.5,8.2c0,4.1-3.5,7.6-8.6,7.6c-3.1,0-6.2-1.2-8.3-2.5l2-4.1c1.4,0.8,4.1,1.9,6.2,1.9c2.5,0,3.6-1.5,3.6-2.9    c0-1.7-1.6-2.6-5-4c-2.5-1-6.5-2.6-6.5-7.1c0-4.1,3.5-6.9,8.3-6.9C347.6,23.4,349.9,24.4,352,25.6z"
   id="path46"
   style="fill:#ffffff;fill-opacity:1" />
	</g>
	<linearGradient
   id="SVGID_5_"
   gradientUnits="userSpaceOnUse"
   x1="26.6027"
   y1="69.9378"
   x2="26.6027"
   y2="16.7324">
		<stop
   offset="0"
   style="stop-color:#FFF100"
   id="stop50" />
		<stop
   offset="1"
   style="stop-color:#F05A28"
   id="stop52" />
	</linearGradient>
	<path
   class="st5"
   d="M35.8,38c-0.2-0.2-0.5-0.3-0.7-0.1c-0.1,0-0.1,0.1-0.2,0.1c-0.2,0.1-0.4,0.2-0.7,0.3c-0.2,0.1-0.5,0.1-0.8,0.2   c-0.1,0-0.3,0-0.4,0c-0.1,0-0.1,0-0.2,0c-0.1,0-0.1,0-0.2,0c-0.1,0-0.1,0-0.2,0c-0.1,0-0.2,0-0.2,0c0,0,0,0,0,0l0,0l-0.1,0   c0,0-0.1,0-0.1,0c-0.1,0-0.1,0-0.2,0c-0.6-0.1-1.2-0.3-1.7-0.5c-0.6-0.3-1.1-0.6-1.6-1.1c-0.5-0.4-0.9-1-1.3-1.6   c-0.3-0.6-0.6-1.3-0.7-2c-0.1-0.3-0.1-0.7-0.1-1.1c0-0.1,0-0.2,0-0.3c0,0,0,0,0,0l0,0l0-0.1c0,0,0-0.1,0-0.1c0-0.2,0-0.4,0.1-0.6   c0.3-1.5,1-3,2.2-4.2c0.3-0.3,0.6-0.5,1-0.8c0.3-0.2,0.7-0.4,1.1-0.6c0.4-0.2,0.8-0.3,1.2-0.4c0.4-0.1,0.8-0.2,1.2-0.2   c0.2,0,0.4,0,0.6,0c0.1,0,0.1,0,0.1,0l0.2,0l0.1,0c0,0,0,0,0,0l0,0l0.2,0c0.5,0,0.9,0.1,1.4,0.2c0.9,0.2,1.8,0.5,2.6,1   c1.6,0.9,3,2.3,3.9,4c0.4,0.8,0.7,1.8,0.9,2.7c0,0.2,0.1,0.5,0.1,0.7l0,0.2l0,0.2c0,0.1,0,0.1,0,0.2c0,0.1,0,0.1,0,0.2l0,0.2l0,0.2   c0,0.1,0,0.3,0,0.4c0,0.3,0,0.5-0.1,0.8c0,0.3-0.1,0.5-0.1,0.8C43,36.8,43,37,42.9,37.3c-0.1,0.5-0.3,1-0.5,1.5   c-0.4,1-0.9,1.9-1.5,2.7c-1.2,1.7-2.9,3.1-4.8,3.9c-1,0.4-2,0.7-3,0.9c-0.5,0.1-1,0.1-1.6,0.2l-0.1,0l-0.1,0l-0.2,0l-0.3,0l-0.1,0   c0.1,0,0,0,0,0l-0.1,0c-0.3,0-0.6,0-0.8,0c-1.1-0.1-2.2-0.3-3.3-0.6c-1.1-0.3-2.1-0.7-3.1-1.2c-2-1-3.7-2.5-5.1-4.2   c-0.7-0.9-1.3-1.8-1.8-2.8c-0.5-1-0.9-2-1.2-3c-0.3-1-0.5-2.1-0.5-3.2l0-0.2l0-0.1l0,0l0-0.1l0-0.2l0,0l0-0.1l0-0.1l0-0.3l0,0   c0,0,0,0,0,0l0-0.1c0-0.1,0-0.3,0-0.4c0-0.5,0.1-1.1,0.1-1.6c0.1-0.5,0.2-1.1,0.3-1.6c0.1-0.5,0.2-1.1,0.4-1.6   c0.3-1.1,0.7-2.1,1.1-3.1c0.9-2,2.1-3.7,3.5-5.1c0.4-0.3,0.7-0.7,1.1-1c0.4-0.3,0.8-0.6,1.2-0.9c0.4-0.3,0.8-0.5,1.3-0.7   c0.2-0.1,0.4-0.2,0.7-0.3c0.1,0,0.2-0.1,0.3-0.1c0.1-0.1,0.2-0.1,0.3-0.1c0.4-0.2,0.9-0.4,1.4-0.5c0.1,0,0.2-0.1,0.4-0.1   c0.1,0,0.2-0.1,0.4-0.1c0.2-0.1,0.5-0.1,0.7-0.2c0.1,0,0.2-0.1,0.4-0.1c0.1,0,0.2-0.1,0.4-0.1c0.1,0,0.2,0,0.4-0.1l0.2,0l0.2,0   c0.1,0,0.2,0,0.4-0.1c0.1,0,0.3,0,0.4-0.1c0.1,0,0.3,0,0.4,0c0.1,0,0.2,0,0.3,0l0.2,0l0.1,0l0.1,0c0.1,0,0.3,0,0.4,0l0.2,0   c0,0,0.1,0,0,0l0,0l0.1,0c0.1,0,0.2,0,0.4,0c0.5,0,0.9,0,1.4,0c0.9,0,1.8,0.1,2.7,0.3c1.8,0.3,3.4,0.9,4.9,1.6   c1.5,0.7,2.9,1.6,4,2.6c0.1,0.1,0.1,0.1,0.2,0.2c0.1,0.1,0.1,0.1,0.2,0.2c0.1,0.1,0.3,0.3,0.4,0.4c0.1,0.1,0.3,0.3,0.4,0.4   c0.1,0.1,0.3,0.3,0.4,0.4c0.5,0.5,1,1.1,1.4,1.6c0.8,1.1,1.5,2.1,2,3.2c0,0.1,0.1,0.1,0.1,0.2c0,0.1,0.1,0.1,0.1,0.2   c0.1,0.1,0.1,0.2,0.2,0.4c0.1,0.1,0.1,0.2,0.2,0.4c0.1,0.1,0.1,0.2,0.2,0.4c0.2,0.5,0.4,0.9,0.5,1.4c0.2,0.7,0.4,1.3,0.6,1.9   c0.1,0.2,0.3,0.4,0.5,0.3l0,0c0.2,0,0.4-0.2,0.4-0.4c0-0.6,0-1.3-0.1-2.1c-0.1-1-0.3-2.1-0.6-3.3c-0.3-1.2-0.8-2.6-1.5-4   c-0.7-1.4-1.6-2.9-2.8-4.3c-0.5-0.6-1-1.1-1.5-1.6c0.8-3.2-1-6-1-6c-3.1-0.2-5.1,1-5.8,1.5c-0.1-0.1-0.2-0.1-0.4-0.2   C39,7.4,38.5,7.2,37.9,7c-0.6-0.2-1.1-0.3-1.7-0.5c-0.6-0.1-1.2-0.3-1.8-0.3c-0.1,0-0.2,0-0.3,0C32.8,1.8,28.9,0,28.9,0   c-4.3,2.8-5.2,6.6-5.2,6.6c0,0.1,0.1,0.1,0.1,0.2c-0.3,0.1-0.6,0.2-0.9,0.3c-0.3,0.1-0.7,0.2-1,0.3c-0.3,0.1-0.7,0.3-1,0.4   c-0.7,0.3-1.3,0.6-1.9,1c-0.6,0.4-1.3,0.7-1.9,1.2c0,0,0,0-0.1,0c0-0.1,0-0.1,0-0.1c-6-2.3-11.4,0.5-11.4,0.5   c-0.5,6.4,2.4,10.4,3,11.2c-0.1,0.4-0.3,0.8-0.4,1.2c-0.4,1.4-0.8,2.9-1,4.5c0,0.2-0.1,0.4-0.1,0.7C1.6,30.5,0,36.2,0,36.2   c4.6,5.3,10,5.7,10,5.7c0,0,0,0,0,0c0.7,1.2,1.5,2.4,2.4,3.5c0.4,0.5,0.8,0.9,1.2,1.3c-1.7,4.8,0.2,8.9,0.2,8.9   c5.2,0.2,8.6-2.3,9.3-2.8c0.5,0.2,1,0.3,1.6,0.5c1.6,0.4,3.2,0.6,4.8,0.7c0.4,0,0.8,0,1.2,0l0.2,0l0.1,0l0.3,0l0.3,0c0,0,0,0,0,0   c2.4,3.5,6.7,4,6.7,4c3.4-3.6,3.2-7.2,3.2-7.2c0,0-0.1-0.1-0.1-0.1c0.7-0.5,1.3-1,1.9-1.5c1.2-1.1,2.3-2.4,3.2-3.7   c0.1-0.1,0.2-0.3,0.2-0.4c3.4,0.2,5.9-2.1,5.9-2.1c-0.6-4-3.1-5.7-3.1-5.7c0,0-0.1,0-0.1,0c0-0.2,0-0.5,0.1-0.7c0-0.4,0-0.8,0-1.2   l0-0.3l0-0.1l0-0.1c0-0.1,0-0.1,0-0.1l0-0.2l0-0.3c0-0.1,0-0.2,0-0.3c0-0.1,0-0.2,0-0.3l0-0.3l0-0.3c-0.1-0.4-0.1-0.8-0.2-1.2   c-0.4-1.5-1-3-1.8-4.3c-0.8-1.3-1.8-2.5-2.9-3.5c-1.1-1-2.4-1.8-3.7-2.4c-1.3-0.6-2.7-1-4.1-1.1c-0.7-0.1-1.4-0.1-2-0.1l-0.3,0   l-0.1,0c0,0-0.1,0-0.1,0l-0.1,0l-0.3,0c-0.1,0-0.2,0-0.3,0c-0.3,0-0.7,0.1-1,0.1c-1.4,0.3-2.7,0.7-3.8,1.4   c-1.1,0.7-2.1,1.5-2.9,2.5c-0.8,1-1.4,2-1.9,3.1c-0.4,1.1-0.7,2.2-0.7,3.3c0,0.3,0,0.6,0,0.8c0,0.1,0,0.1,0,0.2l0,0.2   c0,0.1,0,0.3,0,0.4c0.1,0.6,0.2,1.1,0.3,1.6c0.3,1,0.8,2,1.4,2.8c0.6,0.8,1.3,1.5,2.1,2c0.8,0.5,1.6,0.9,2.4,1.1   c0.8,0.2,1.6,0.3,2.3,0.3c0.1,0,0.2,0,0.3,0c0,0,0.1,0,0.1,0c0,0,0.1,0,0.1,0c0.1,0,0.2,0,0.2,0c0,0,0,0,0.1,0l0.1,0   c0,0,0.1,0,0.1,0c0.1,0,0.2,0,0.3,0c0.1,0,0.2,0,0.3-0.1c0.2,0,0.3-0.1,0.5-0.1c0.3-0.1,0.6-0.2,0.9-0.4c0.3-0.1,0.5-0.3,0.8-0.5   c0.1-0.1,0.1-0.1,0.2-0.2C36,38.7,36,38.3,35.8,38L35.8,38z"
   id="path55"
   style="fill:#ffffff;fill-opacity:1" />
</g>
</svg>