<svg width="62" height="76" fill="none" xmlns="http://www.w3.org/2000/svg"><path d="M15.978 61.798H.362l15.616 13.847V61.798z" fill="#fff"/><path fill-rule="evenodd" clip-rule="evenodd" d="M.362.486h61.542v61.31H.362V.486zm15.54 27.458v-3.385h-3.385v-6.77H9.132v13.617h3.385v-3.462h3.385zm10.076-6.765h-3.385v10.154h3.385V21.18zm13.133 23.97V21.61h-10.23v10.231h3.384v-6.77h3.462V45.15h3.384zM22.593 34.793v10h10.232v-10H22.593zm6.77 6.692h-3.385V38.1h3.385v3.385zM15.9 21.1h3.384v3.385H15.9V21.1zm3.384 6.847H15.9v3.385h3.384v-3.385zM15.9 34.792h3.384v6.692H15.9v-6.692zm.002 6.693h-3.385v3.385h3.385v-3.385zm33.77 0h3.385v3.385h-3.384v-3.385zm-.001-3.383h-3.385v3.385h3.385v-3.385zm.002-3.464h3.384v3.385h-3.384v-3.385zm-37.156.154H9.132v6.692h3.385v-6.692zm30.309-3.383h3.385v13.385h-3.385V31.41z" fill="#fff"/></svg>