<svg width="179" height="24" fill="none" xmlns="http://www.w3.org/2000/svg"><path d="M47.406 23.367h-1.931v-7.752l-1.189 3.8h-.891l-1.189-3.8v7.752h-1.931V8.927h.891l2.675 7.6 2.674-7.6h.891v14.44zm5.551-4.104l-.743-6.08-.743 6.08h1.486zm2.377 4.104H53.55l-.297-2.584h-1.932l-.297 2.584h-1.783l2.08-14.44h1.932l2.08 14.44zm7.612 0h-.892l-3.12-8.208v8.208h-1.93V8.927h.89l3.12 8.36v-8.36h1.932v14.44zm8.425.003h-.891l-3.12-8.208v8.208h-1.931V8.93h.891l3.12 8.36V8.93h1.931v14.44zm4.403.027h-1.902V8.927h1.902v14.47zm8.47-.027h-.892l-3.12-8.208v8.208h-1.931V8.93h.891l3.12 8.36V8.93h1.932v14.44zm8.403-.398c-.595.304-1.19.456-2.08.456-2.823 0-4.16-2.432-4.16-7.296 0-4.864 1.337-7.296 3.862-7.296.446 0 .892 0 1.189.152v1.52c-.297 0-.594-.152-.891-.152-1.486 0-2.23 1.976-2.23 5.776s.744 5.776 2.23 5.776h.148v-3.04c0-.76-.148-1.216-.297-1.52-.149-.152-.297-.304-.594-.304h-.297v-1.52h.594c1.634 0 2.377 1.216 2.377 3.496v3.952h.148zm9.065-9.662c0-1.825-.595-2.737-1.635-2.737v6.384c.297 0 .595-.304.892-.912.594-.608.743-1.672.743-2.736zm2.08 0c0 1.671-.446 3.04-1.486 4.103-.594.76-1.337 1.064-2.08 1.368v4.712h-1.932V9.053h1.486c1.189 0 2.08.304 2.823.912.743.608 1.189 1.824 1.189 3.344zm7.455 6.596c0 1.216-.298 2.128-.892 2.736-.594.608-1.188.912-2.08.912-.743 0-1.486-.304-1.931-.912-.595-.608-.892-1.672-.892-2.736V8.962h1.932V20.21c0 .608.148.912.297 1.216.148.304.446.456.594.456.297 0 .446-.152.594-.456a2.91 2.91 0 0 0 .298-1.216V8.962h1.931v10.944h.149zm6.272-1.334c0-1.368-.297-2.432-1.04-3.04-.297.152-.594.152-.743.152v6.08c.446 0 .892-.152 1.189-.608.297-.608.594-1.368.594-2.584zm-.445-6.232c0-1.064-.446-1.672-1.486-1.824v3.496c1.04 0 1.486-.608 1.486-1.672zm2.377 6.232c0 1.672-.446 3.04-1.337 3.8-.743.608-1.635.912-2.823.912h-1.486V8.844h1.634c1.04 0 1.932.304 2.526.76.743.608 1.189 1.52 1.189 2.584s-.298 1.976-1.04 2.584c.297.304.742.76.891 1.216.297.912.446 1.672.446 2.584zm6.663 4.795h-4.606V8.927h1.932v12.92h2.674v1.52zm3.625.03h-1.902V8.927h1.902v14.47zm7.034.043c-.297.153-.594.153-.891.153-2.675 0-3.863-2.432-3.863-7.296 0-4.864 1.337-7.296 3.863-7.296.297 0 .594 0 .891.152v1.52c-.297 0-.594-.152-.594-.152-1.486 0-2.229 1.976-2.229 5.776s.743 5.776 2.229 5.776h.594v1.368zm4.925-4.177l-.743-6.08-.743 6.08h1.486zm2.377 4.104h-1.783l-.297-2.584h-1.931l-.297 2.584h-1.783l2.08-14.44h1.931c-.149 0 2.08 14.44 2.08 14.44zm6.546-12.79h-1.931v12.92h-1.932v-12.92h-1.931V8.905h5.794v1.672zm3.605 12.82h-1.902V8.927h1.902v14.47zm6.685-7.223c0-3.8-.446-5.776-1.337-5.776s-1.337 1.976-1.337 5.776.446 5.776 1.337 5.776 1.337-1.976 1.337-5.776zm1.932 0c0 2.888-.298 4.864-1.04 6.08-.446.912-1.189 1.368-2.229 1.368s-1.634-.456-2.229-1.368c-.742-1.216-1.04-3.192-1.04-6.08s.298-4.864 1.04-6.08c.446-.912 1.189-1.368 2.229-1.368s1.634.456 2.229 1.368c.742 1.216 1.04 3.192 1.04 6.08zm8.225 7.193h-.892l-3.12-8.208v8.208h-1.931V8.927h.891l3.12 8.36v-8.36h1.932v14.44zm7.272-3.64c0 1.216-.297 2.128-1.04 2.888-.594.608-1.486.912-2.377.912a4.034 4.034 0 0 1-1.931-.456l.742-1.368c.298.152.743.304 1.189.304.446 0 .743-.152 1.04-.456.297-.304.446-.912.446-1.52 0-1.064-.595-2.28-1.635-3.8-.594-.912-1.04-1.672-1.337-2.28a4.289 4.289 0 0 1-.445-1.976c0-.912.297-1.672.891-2.28.594-.608 1.337-.76 2.229-.76.594 0 1.188.152 1.485.304l-.594 1.368c-.297-.152-.594-.152-.891-.152-.298 0-.595.152-.743.304-.149.304-.297.608-.297.912 0 .456.148 1.064.445 1.52.149.456.595.912 1.04 1.672.595.912 1.04 1.672 1.337 2.432.298.76.446 1.672.446 2.432z" fill="#fff"/><path fill-rule="evenodd" clip-rule="evenodd" d="M4.309 0H17.68v14.288c.743-4.712 1.486-9.576 2.08-14.287h13.37v23.407H20.503V3.345c-1.04 6.687-2.08 13.375-2.972 20.063H5.051V2.433C3.714 9.424 2.526 16.416 1.19 23.408H0C1.486 15.656 2.823 7.904 4.309.153V0z" fill="#fff"/></svg>