<svg width="138" height="30" fill="none" xmlns="http://www.w3.org/2000/svg"><path d="M48.758 17.34l-.828 2.278h-.092c-.092-.547-.368-1.275-.828-2.278L42.594 6.408H38.27V23.9h2.852V10.78c0-.455-.092-.82-.092-1.092h.092a8.2 8.2 0 0 0 .368 1.457L46.826 23.9h2.024l5.244-12.846c.092-.273.184-.91.368-1.366h.092c-.092 1.275-.092 2.46-.092 3.188v11.115h3.036V6.5h-4.14l-4.6 10.841zm11.592-6.012h2.944V23.9H60.35V11.328zm1.472-5.376c-.46 0-.92.182-1.288.456-.368.273-.552.729-.552 1.184 0 .456.184.911.552 1.185.368.273.736.455 1.288.455.46 0 .92-.182 1.288-.455.368-.274.552-.73.552-1.185 0-.455-.184-.91-.552-1.184-.276-.274-.736-.456-1.288-.456zm12.053 5.193c-.552-.09-1.105-.182-1.656-.182-1.38 0-2.576.273-3.588.911a5.652 5.652 0 0 0-2.393 2.46c-.552 1.002-.828 2.278-.828 3.644 0 1.185.276 2.278.828 3.28.552.911 1.288 1.731 2.208 2.278.92.546 2.025.82 3.313.82 1.38 0 2.668-.274 3.588-.82v-2.734l-.092.092c-.46.273-.92.546-1.472.728-.552.183-1.013.274-1.38.274-1.197 0-2.117-.365-2.76-1.094-.644-.728-1.013-1.73-1.013-3.006 0-1.276.369-2.278 1.013-3.098.736-.729 1.656-1.093 2.76-1.093.92 0 1.932.273 2.852.911l.092.091v-2.915c-.46-.182-.92-.364-1.472-.547zm9.752-.09c-.736 0-1.38.181-2.024.728-.46.364-.828 1.002-1.104 1.731v-2.186h-2.944V23.9h2.944v-6.377c0-1.094.184-2.005.736-2.642.46-.638 1.104-1.003 1.932-1.003.276 0 .552.091.92.091.276.092.552.183.736.274l.092.091v-2.915h-.092c-.276-.274-.644-.365-1.196-.365zm8.096 0c-2.116 0-3.772.637-4.876 1.821-1.196 1.185-1.748 2.825-1.748 4.92 0 1.913.552 3.553 1.748 4.646 1.104 1.094 2.668 1.731 4.6 1.731 2.024 0 3.68-.637 4.784-1.822 1.196-1.184 1.748-2.824 1.748-4.828 0-2.005-.552-3.553-1.656-4.738-1.012-1.184-2.668-1.73-4.6-1.73zm2.392 9.565c-.552.73-1.38 1.002-2.484 1.002s-1.932-.364-2.576-1.093c-.644-.729-.92-1.73-.92-3.006 0-1.367.276-2.37.92-3.098.644-.729 1.472-1.093 2.576-1.093 1.012 0 1.84.364 2.484 1.002.552.729.92 1.731.92 3.098-.092 1.457-.368 2.55-.92 3.188zm10.488-4.1c-.92-.364-1.564-.637-1.84-.91a1.385 1.385 0 0 1-.368-.912c0-.364.092-.637.46-.91.368-.183.736-.365 1.288-.365.46 0 1.012.091 1.564.182.46.091.92.364 1.288.638l.092.091v-2.733h-.092c-.368-.091-.828-.274-1.38-.365-.552-.09-1.012-.09-1.472-.09-1.38 0-2.576.364-3.496 1.092-.92.73-1.38 1.64-1.38 2.734 0 .546.092 1.093.276 1.548.184.456.46.82.92 1.185.368.273 1.012.638 1.84 1.002.644.273 1.196.547 1.564.729.276.182.552.364.644.547a1.4 1.4 0 0 1 .184.728c0 .82-.644 1.276-1.932 1.276-.46 0-1.012-.091-1.656-.273-.644-.183-1.196-.456-1.656-.82l-.092-.092v2.916h.092c.46.182.92.364 1.564.455.644.091 1.196.183 1.748.183 1.564 0 2.76-.365 3.68-1.094.92-.729 1.38-1.64 1.38-2.824 0-.82-.184-1.549-.736-2.186-.46-.73-1.288-1.276-2.484-1.732zm11.317-5.466c-2.117 0-3.773.638-4.877 1.822-1.196 1.185-1.748 2.825-1.748 4.92 0 1.913.552 3.553 1.748 4.646 1.104 1.094 2.668 1.731 4.6 1.731 2.025 0 3.681-.637 4.785-1.822 1.196-1.184 1.748-2.824 1.748-4.828 0-2.005-.552-3.553-1.656-4.738-1.104-1.184-2.668-1.73-4.6-1.73zm2.3 9.566c-.552.73-1.38 1.002-2.484 1.002-1.105 0-1.933-.364-2.577-1.093-.644-.729-.92-1.73-.92-3.006 0-1.367.276-2.37.92-3.098.644-.729 1.472-1.093 2.577-1.093 1.012 0 1.84.364 2.484 1.002.552.729.92 1.731.92 3.098 0 1.457-.368 2.55-.92 3.188zM138 13.696v-2.46h-3.036V7.501h-.092l-2.852.82h-.092v2.824h-4.508V9.688c0-.73.184-1.276.46-1.64.276-.365.828-.547 1.38-.547.368 0 .828.091 1.288.273l.092.091v-2.55h-.092a6.917 6.917 0 0 0-1.656-.183c-.92 0-1.656.183-2.392.547-.736.364-1.196.911-1.656 1.64-.368.638-.552 1.458-.552 2.369v1.73h-2.116v2.37h2.116V23.9h3.036V13.787h4.508v6.469c0 2.642 1.288 4.009 3.772 4.009.368 0 .828-.092 1.288-.092.46-.09.736-.182.92-.273v-2.46l-.092.091c-.184.091-.368.183-.644.274-.184.09-.46.09-.552.09-.552 0-1.012-.09-1.288-.455-.276-.273-.368-.82-.368-1.64v-5.922H138v-.182zM0 .487h13.984v13.848H0V.487zM15.549.486h13.984v13.848H15.55V.486zM0 15.883h13.984V29.73H0V15.883zm15.549 0h13.984V29.73H15.548V15.883z" fill="#fff"/></svg>