<svg width="109" height="31" fill="none" xmlns="http://www.w3.org/2000/svg"><path fill-rule="evenodd" clip-rule="evenodd" d="M109 .486H0v30h109v-30zm-54.209 9.858V7.735H44.037v15.363H54.79V20.56h-8.138v-3.84h7.775v-2.536h-7.775v-3.84h8.138zm7.92-2.609v15.363h10.028V20.56h-7.413V7.735h-2.615zm12.136 15.363V7.735h2.543v12.826h7.412v2.537h-9.955zM57.482 7.735h2.543v15.363H57.48V7.735zm-45.493 3.913c-1.018 1.014-1.599 2.319-1.599 3.84 0 1.522.581 2.9 1.599 3.841a5.328 5.328 0 0 0 3.851 1.594c1.526 0 2.907-.58 3.851-1.594 1.018-1.014 1.6-2.319 1.6-3.84 0-1.522-.582-2.899-1.6-3.841-1.017-.942-2.325-1.594-3.85-1.594-1.454 0-2.835.652-3.852 1.594zm-4.142 3.84a7.96 7.96 0 0 1 7.993-7.97 7.96 7.96 0 0 1 7.993 7.97 7.96 7.96 0 0 1-7.993 7.972 7.96 7.96 0 0 1-7.993-7.971zm23.981-5.144v3.84l5.16-.072c1.017 0 1.89-.87 1.89-1.884 0-1.014-.8-1.884-1.89-1.884h-5.16zm9.665 1.884c0 2.03-1.308 3.696-3.197 4.275l3.851 6.595h-2.98l-3.85-6.377h-3.561v6.377h-2.544V7.735h7.776c2.47 0 4.505 2.03 4.505 4.493zM27.468 9.402a1.874 1.874 0 0 1-1.89 1.884c-1.017 0-1.889-.87-1.889-1.884 0-1.015.872-1.884 1.89-1.884 1.017 0 1.889.87 1.889 1.884zM93.16 7.735h3.124l-5.813 8.406v6.957h-2.616V16.14l-5.74-8.406h3.124l3.924 5.725 3.997-5.725zm6.176 3.188a1.61 1.61 0 0 1-1.599-1.595c0-.87.727-1.594 1.599-1.594s1.599.725 1.599 1.594a1.61 1.61 0 0 1-1.6 1.595zm0-3.479c-1.09 0-1.89.87-1.89 1.884 0 1.087.873 1.884 1.89 1.884 1.09 0 1.889-.87 1.889-1.884a1.874 1.874 0 0 0-1.89-1.884zm.219 1.233h-.727v.435h.727c.072 0 .218-.145.218-.218 0-.072-.073-.217-.218-.217zm0-.363c.363 0 .581.29.581.58s-.145.507-.436.507l.363.87H99.7l-.364-.797h-.508v.797h-.364V8.314h1.09z" fill="#fff"/></svg>