<svg width="65" height="42" fill="none" xmlns="http://www.w3.org/2000/svg"><path d="M64.31 30.543a.093.093 0 0 1-.087.086h-.043a.093.093 0 0 1-.087-.087v-.777h-.432v.777a.093.093 0 0 1-.086.087h-.043a.093.093 0 0 1-.087-.087v-.777H63.1c-.043 0-.087-.043-.087-.087v-.043c0-.043.044-.086.087-.086h1.166c.043 0 .086 0 .086.043l.216.346.216-.346c0-.043.043-.043.087-.043H65v.994a.093.093 0 0 1-.086.086h-.043a.093.093 0 0 1-.087-.087v-.648l-.13.216s-.043.044-.086.044-.043 0-.086-.044l-.13-.216-.043.649zm-1.556 7.3v.216a.794.794 0 0 1-.82.821h-6.349a.794.794 0 0 1-.82-.82v-7.948c0-.475.345-.821.82-.821h6.046c.475 0 .864.346.864.82v.217c0 .475-.346.82-.864.82h-4.923v2.074h3.8c.475 0 .864.345.864.82v.216c0 .475-.346.821-.864.821h-3.8v2.03h5.182c.518-.086.864.26.864.734zm-9.631-2.678v1.296c0 1.468-.863 2.419-2.245 2.419h-5.182a.794.794 0 0 1-.82-.821v-.216c0-.475.345-.82.82-.82h4.923c.518 0 .561-.735.561-.822v-.777c0-.26-.086-.562-.561-.562H46.99c-1.036 0-2.116-.82-2.116-2.203v-1.166c0-.907.864-2.246 2.462-2.246h4.232c.475 0 .863.346.863.82v.217c0 .475-.345.82-.82.82h-3.93c-.518 0-.82.26-.82.692v.69c0 .303.259.692.777.692h3.541c.95 0 1.943.605 1.943 1.987zM42.325 29.29a.82.82 0 0 1 .821.82v6.264c0 1.469-1.166 2.505-2.72 2.505h-2.937c-1.598 0-2.72-1.036-2.72-2.505V30.11a.82.82 0 0 1 .82-.821h.259c.475 0 .864.389.864.82v6.048c0 .475.388.864.863.864h2.72a.866.866 0 0 0 .864-.864V30.11a.82.82 0 0 1 .821-.821h.346zm-9.197 5.875v1.296c0 1.468-.864 2.419-2.246 2.419H25.7c-.475 0-.863-.346-.863-.821v-.216c0-.475.345-.82.863-.82h4.923c.518 0 .562-.735.562-.822v-.777c0-.26-.087-.562-.562-.562H27.04c-1.037 0-2.116-.82-2.116-2.203v-1.166c0-.907.864-2.246 2.461-2.246h4.233c.475 0 .863.346.863.82v.217c0 .475-.345.82-.863.82h-3.93c-.518 0-.82.26-.82.692v.69c0 .303.258.692.777.692h3.54c.95 0 1.944.605 1.944 1.987z" fill="#fff"/><path fill-rule="evenodd" clip-rule="evenodd" d="M62.796 13.308l.259-.043c.065.032.056.115.048.19a.67.67 0 0 0-.005.069 5.46 5.46 0 0 1-.26.907l-.086.173c-.086.259-.172.518-.388.648-.475.432-1.296.82-2.548 1.339-1.9.82-5.01 1.382-7.903 1.339a54.816 54.816 0 0 1-2.936-.216c-2.678-.302-4.621-.518-5.053 1.9-.518 3.067 2.375 6.782 2.418 6.825v.087l-.086.043s-4.578-2.117-4.707-2.16l-.13-.086-.13-.13c-.345-.346-1.036-1.08-2.46-2.721-2.722-3.153-5.96-3.585-8.422-2.98-.605.129-1.382.604-1.857 1.08-1.295 1.252-1.166 3.844-1.08 4.75.087 1.037.13 1.124.173 1.21v.087h-.086l-.043-.044-3.757-1.857-.13-.605a9.909 9.909 0 0 0-.432-1.425c-1.338-3.542-4.361-6.22-7.73-6.825-2.245-.389-6.348-.432-8.55 3.672-.907 1.727-.864 3.93.13 5.83 1.036 1.945 2.85 3.154 4.965 3.413 2.116.216 3.757-.259 4.621-1.425a3.921 3.921 0 0 0 .432-4.104c-.691-1.382-1.727-2.16-3.196-2.246-1.123-.086-1.943.346-2.202.82-.086.13-.26.433-.26.822 0 1.036.95 1.339 1.167 1.339.043 0 .345 0 .734-.087l.173-.043.13-.043h.086c.69-.13 1.381.302 1.554.95.043.13.043.26.043.389 0 .432-.216.864-.604 1.123l-.043.043-.044.043c-.216.13-.388.216-.56.26-.562.172-1.037.259-1.512.259-1.685 0-3.973-1.426-4.017-4.104 0-1.512.735-2.894 2.073-3.801 1.555-1.037 4.232-1.382 6.694.173 3.066 1.857 3.843 5.529 3.066 7.99-1.166 3.63-4.405 5.53-8.68 5.141-3.023-.26-5.873-1.857-7.557-4.276-.735-1.08-1.296-2.246-1.598-3.456-.691-2.721 0-5.615.518-6.911 1.641-4.06 4.793-7.559 9.328-10.41l.302-.173C22.298.111 29.15.348 34.154.521l.053.001C40.124.738 46.43 2.77 47.292 3.071c0-.216.044-1.944.044-1.944l.043-.043h.086c.389.043 8.896 1.296 12.48 3.412.359.215.569.43.802.67l.148.151c.994 1.037 2.29 5.27 2.419 6.177l-.043.086c-.02 0-.06.03-.115.069-.06.044-.14.102-.23.147-.821.605-2.808 1.944-5.313 1.728-2.245-.216-5.182-1.469-8.723-3.844.132.295.588 1.366.856 1.994v.002l.18.423.044.043.05.025c.728.365 5.455 2.738 7.81 2.696 2.03-.086 4.145-1.037 4.966-1.555zm-2.354-4.355a3.448 3.448 0 0 1-1.097 1.979 4.492 4.492 0 0 1-.051.046c-.685.66-1.573.99-2.544.948-1.987-.087-3.585-1.771-3.498-3.758a3.71 3.71 0 0 1 1.166-2.549 3.443 3.443 0 0 1 2.573-.994h.022l.044.002c1.338.048 2.494.86 3.068 1.996.27.528.413 1.129.386 1.76a3.834 3.834 0 0 1-.069.57z" fill="#fff"/><path d="M57.055 5.663c1.425.044 2.548 1.253 2.505 2.679a2.46 2.46 0 0 1-.82 1.814c-.519.476-1.166.735-1.858.692-1.425-.043-2.547-1.253-2.504-2.679 0-.691.302-1.34.82-1.814.519-.476 1.166-.735 1.857-.692zm1.598 2.03c0-.431-.518-.777-1.166-.777-.648 0-1.166.346-1.166.778 0 .432.518.778 1.166.778.648 0 1.166-.346 1.166-.778zm-38.523 25.7c.346-.172.778-.345 1.34-.345h.172c.993 0 1.598.561 1.598 1.468v3.931a.433.433 0 0 1-.432.432h-.173a.433.433 0 0 1-.432-.432V34.69a.664.664 0 0 0-.648-.648H20.13a.664.664 0 0 0-.647.648v3.758a.433.433 0 0 1-.432.432h-.13a.433.433 0 0 1-.432-.432v-5.01c0-.216.13-.346.346-.346h.173c.172 0 .259.086.345.216l.13.216c.043.086.086.086.13.086.129-.043.302-.13.517-.216zm-2.808 1.037v1.166c0 .475-.303.777-.778.777h-2.98v.864c0 .432.26.648.692.648h1.64c.26 0 .432.173.432.389v.13c0 .215-.172.388-.431.388H13.91c-.734 0-1.382-.648-1.382-1.425v-2.98c0-.778.648-1.383 1.425-1.383h1.857c.864.086 1.512.691 1.512 1.425zm-1.037 1.08v-.908a.572.572 0 0 0-.561-.561h-1.555a.572.572 0 0 0-.561.561v.907h2.677zm-8.893 1.771c0 .26.13.475.345.562l-.259.518c-.043 0-.086.086-.086.173v2.548a.433.433 0 0 1-.432.432h-.13c-.259 0-.432-.173-.432-.432V33.48a.34.34 0 0 1 .346-.346h.173c.172 0 .302.13.302.173l.13.26c.043.042.086.086.129.086l.216.518c-.216.086-.346.302-.346.562v2.548h.044z" fill="#fff"/><path d="M9.508 33.048c.993 0 1.598.561 1.598 1.468v2.895c0 .907-.605 1.468-1.598 1.468h-.173c-.561 0-.993-.173-1.339-.346-.216-.086-.388-.172-.518-.172l.26-.519a.8.8 0 0 0 .301.087h1.426a.664.664 0 0 0 .647-.648v-2.635a.664.664 0 0 0-.647-.648H8.039a.624.624 0 0 0-.302.087l-.216-.519c.13 0 .303-.086.518-.173.346-.172.778-.345 1.34-.345h.129zM4.93 34.43v3.024c0 .778-.605 1.382-1.383 1.382H1.604a1.392 1.392 0 0 1-1.382-1.382v-3.023c0-.778.648-1.383 1.425-1.383h1.857c.778 0 1.425.648 1.425 1.383zm-.994 2.895v-2.722A.618.618 0 0 0 3.331 34H1.82a.618.618 0 0 0-.605.604v2.722c0 .345.26.604.562.604h1.511c.389 0 .648-.259.648-.604z" fill="#fff"/></svg>