<svg width="127" height="42" fill="none" xmlns="http://www.w3.org/2000/svg"><path d="M1.775.486L5.58 9.36H.675l1.692 3.935h9.895L1.775.485zM14.8 32.968l-1.607-3.934H10.91l-3.214-7.535h-2.03l3.214 7.535H3.13l10.655 12.892-3.89-8.958H14.8zm1.354-15.738c.084 0 .423-.168.423-1.507 0-1.34-.254-1.507-.423-1.507h-6.85l1.268 3.014h5.582zm-3.976 3.683h4.567c.084 0 .423-.167.423-1.507 0-1.34-.254-1.507-.423-1.507h-5.92l1.353 3.014z" fill="#fff"/><path d="M16.153 25.1H9.979l1.269 3.013h4.905c.084 0 .423-.168.423-1.507 0-1.34-.339-1.507-.423-1.507zm.593-3.601H8.373l1.269 3.014h7.02c.084 0 .422-.168.422-1.507.085-1.34-.17-1.507-.338-1.507z" fill="#fff"/><path d="M16.153 25.1H9.979l1.269 3.013h4.905c.084 0 .423-.168.423-1.507 0-1.34-.339-1.507-.423-1.507zm.593-3.601H8.373l1.269 3.014h7.02c.084 0 .422-.168.422-1.507.085-1.34-.17-1.507-.338-1.507z" fill="#fff"/><path d="M7.442 20.914l-1.522-3.6h.761l1.522 3.6h3.214L8.542 14.3H1.438c-.508 0-.846 0-1.1.754-.253.92-.338 2.679-.338 6.195 0 3.432 0 5.19.338 6.195.254.754.508.754 1.1.754h6.258l-3.045-7.284h2.791zm35.688-5.777h-3.383l-4.905 12.39h3.383l.846-2.093h4.482l.761 2.093h3.468l-4.652-12.39zm-3.044 7.87l1.353-3.936 1.269 3.935h-2.622zm-9.724-7.871h-4.905v12.39h3.382V23.34h1.692c2.79 0 4.398-1.172 4.398-4.102-.085-2.846-1.861-4.102-4.567-4.102zm-1.184 5.776h-.423v-3.014h.423c1.268 0 2.283 0 2.283 1.507.085 1.507-1.1 1.507-2.283 1.507zm64.442 1.759h3.297v-2.679H93.62V17.9h4.567v-2.762h-7.95v12.39h7.95v-3.014H93.62v-1.842zm-29.346-4.186h3.044v9.042h3.299v-9.042h3.129v-3.348h-9.472v3.348zm19.789 1.507h-4.567v-4.855h-3.382v12.39h3.382v-4.856h4.567v4.856h3.383v-12.39h-3.383v4.855zm22.242-1.507c1.607 0 2.876 1.256 2.876 2.847 0 1.59-1.269 2.846-2.876 2.846s-2.875-1.256-2.875-2.846c-.085-1.59 1.268-2.847 2.875-2.847zm0-3.348c-3.467 0-6.258 2.762-6.258 6.195 0 3.432 2.791 6.195 6.258 6.195 3.468 0 6.258-2.763 6.258-6.195 0-3.433-2.875-6.195-6.258-6.195zm17.254 6.947l-5.413-6.948h-3.129v12.39h3.298v-6.949l5.159 6.95h3.383V15.135h-3.298v6.948zm-65.12.001l-5.413-6.948h-3.129v12.39h3.383l-.085-6.949 5.16 6.949h3.467v-12.39h-3.383v6.948z" fill="#fff"/></svg>