<svg width="161" height="49" fill="none" xmlns="http://www.w3.org/2000/svg"><path d="M65.617 23.645c0-2.413 0-4.277-.11-5.922h3.951l.22 3.51h.11c.877-2.523 3.072-3.84 5.047-3.84.439 0 .768 0 1.097.11v4.387c-.439-.11-.878-.11-1.426-.11-2.195 0-3.731 1.426-4.17 3.51-.11.439-.11.877-.11 1.426v9.431h-4.609V23.645zM89.43 24.96c0-1.644-.768-4.496-3.84-4.496-2.854 0-4.06 2.633-4.28 4.497h8.12zm-8.01 3.181c.11 3.29 2.633 4.716 5.596 4.716 2.085 0 3.621-.329 5.048-.877l.658 3.18c-1.536.658-3.73 1.207-6.364 1.207-5.926 0-9.437-3.62-9.437-9.213 0-5.045 3.072-9.76 8.888-9.76 5.925 0 7.9 4.935 7.9 8.883 0 .877-.11 1.535-.219 1.974l-12.07-.11zm64.85-1.755c-3.95-.11-9.107.438-9.107 4.825 0 2.632 1.755 3.729 3.621 3.729 2.962 0 4.718-1.864 5.377-3.62.109-.438.219-.767.219-1.096v-3.838h-.11zm1.756 5.373c0 1.426.11 2.852.219 4.278h-1.646l-.219-2.632h-.11c-.878 1.425-2.853 2.96-5.706 2.96-3.621 0-5.267-2.522-5.267-4.935 0-4.167 3.621-6.69 10.973-6.58v-.439c0-1.754-.329-5.373-4.608-5.264-1.537 0-3.183.439-4.499 1.316l-.549-1.316c1.646-1.096 3.621-1.535 5.267-1.535 5.157 0 6.145 3.948 6.145 7.129v7.018zm7.134-17.658v3.948h5.157v1.426h-5.157V31.21c0 2.303.658 3.729 2.633 3.729.878 0 1.537-.11 2.085-.33l.22 1.426c-.549.22-1.427.44-2.524.44-1.317 0-2.414-.44-3.073-1.317-.768-.987-1.097-2.413-1.097-4.277V19.475h-3.073v-1.426h3.073v-3.29l1.756-.658zm-29.411 3.511c-1.317 0-2.633.439-3.621.987-1.097.658-1.975 1.645-2.414 2.632h-.11v-8.883l-1.756-.439v24.238h1.756V25.18c0-.768.11-1.207.22-1.755.768-2.194 2.853-4.058 5.486-4.058 3.731 0 4.938 2.961 4.938 6.251v10.638h1.756V25.4c0-6.91-4.499-7.787-6.255-7.787zm-16.678 10.526c0 .44 0 .987-.11 1.316-.439 1.974-2.085 3.29-3.95 3.29-2.963 0-4.609-2.412-4.609-5.812 0-3.4 1.646-6.032 4.609-6.032 2.085 0 3.511 1.426 3.95 3.29.11.33.11.878.11 1.207v2.741zM113.68 10.7l-4.609-1.206v10.31h-.11c-.768-1.317-2.633-2.413-5.157-2.413-4.39 0-8.23 3.619-8.23 9.76 0 5.594 3.511 9.323 7.791 9.323 2.633 0 4.828-1.207 5.925-3.29h.11l.22 2.85h4.169c-.109-1.206-.109-3.29-.109-5.154V10.7zM47.733 36.476c-.987-.22-2.084-.44-3.182-.44-1.865 0-3.621.33-4.828.878-.11.11-.22.22-.22.33v.219c.11.438-.11.877-1.316 1.206-1.866.439-2.963 2.303-3.621 2.852-.769.767-2.963 1.206-2.634.767.22-.329 1.207-1.425 1.865-2.522.55-.987.988-1.316 1.646-2.303.22-.33.988-1.316 1.098-2.084.22-.768.11-1.755.22-2.194.109-.548.658-1.864.767-2.522 0-.439-1.646.548-2.523.548-.769 0-1.647-.438-2.305-.548-.878 0-1.426.658-2.304.548-.44-.11-.878-.438-1.646-.548-1.098 0-2.524.658-5.158.548-2.633-.11-5.047-3.29-5.377-3.838-.329-.549-.877-.549-1.316-.11-.549.439-1.098.11-1.317-.22-.33-.548-1.207-2.302-2.634-2.741-1.975-.548-2.962 1.097-2.853 2.303.11 1.316.988 1.645 1.317 2.303.44.658.549 1.097 1.317 1.426.549.22.658.548.549.987-.11.329-.659.439-.988.439-.768 0-1.317-.22-1.646-.439-.439-.329-.768-.658-1.207-1.316-.439-.768-1.097-1.097-1.975-1.097-.44 0-.768.11-1.098.22-1.316.658-2.853 1.096-4.499 1.096H0C3.511 40.753 13.497 48.32 25.238 48.32c9.437.33 17.667-4.496 22.495-11.844z" fill="#fff"/><path d="M31.162 33.953c.11.11.329.548.11 1.206-.11.33-.33.548-.659.768-.33.329-1.097.658-2.085 0-.549-.33-.549-.439-1.317-.33-.548.11-.768-.438-.548-.877.22-.438.987-.767 1.975-.219.439.22 1.097.768 1.755.329.22-.22.44-.329.769-.768-.11-.11-.11-.11 0-.11zM23.264 7.961c-3.073.22-3.402.548-3.95 1.206-.769.878-1.866-1.096-1.866-1.096-.659-.11-1.427-1.207-.988-2.194.44-.987 1.207-.658 1.427-.329.329.33.878.987 1.755.987.769 0 1.756-.22 3.073-.22s2.195.44 2.304.878c-.22.33-.329.658-1.755.768zm3.182-5.045s-.11-.11 0 0c-.11-.11-.11-.11 0-.11.549-.329 1.536-.548 2.524-.658h.988c1.755 0 3.072.768 3.072 1.536S31.603 5.11 29.848 5.11c-.55 0-1.098-.11-1.537-.22l-.11-.11s0-.11.11-.11c1.098-.218 1.756-.657 1.756-.986-.11-.549-1.427-.768-3.072-.658-.22-.22-.33-.11-.55-.11zM40.382 14.87c-.22.878-.659 1.974-2.304 2.852-.22.11-.33-.11-.22-.22.658-1.096.768-1.316.878-1.754.22-.658.439-1.536-.11-3.29-.987-3.62-3.072-8.445-4.609-9.98C32.591.941 29.847.502 27.433 1.16c-.877.22-2.633 1.097-5.815.439-5.597-1.206-6.365 1.535-6.694 2.742-.33 1.206-1.097 4.606-1.097 4.606-.22 1.426-.549 3.839 8.01 5.484 4.06.767 4.28 1.754 4.39 2.522.329 1.316.877 2.084 1.426 2.523.549.438 0 .658-.658.767-1.756.22-8.01-1.645-11.742-3.729-3.072-1.864-3.072-3.51-2.414-4.935-4.609-.548-8.12.439-8.778 2.632-1.098 3.73 8.23 10.2 18.873 13.38 11.193 3.4 22.715.987 23.922-6.032.768-3.29-1.975-5.703-6.474-6.69z" fill="#fff"/></svg>