<svg id="Layer_1" data-name="Layer 1" xmlns="http://www.w3.org/2000/svg" viewBox="0 0 792 612"><defs><style>.cls-1{fill:#fff;fill-rule:evenodd;}</style></defs><path class="cls-1" d="M200,212.6v204H408.37l204-204ZM451.23,338.13H438.12v39H378l-6-18.64a68.33,68.33,0,0,1-21.16,3.25,67.08,67.08,0,0,1-21.67-3.44L323,377.1H286.12l4.08-10.88c-.49.43-1,.86-1.49,1.28-9.19,7.4-20.68,11.46-34.93,11.72l-2.11,0A93.73,93.73,0,0,1,205.72,367l12.54-24.9c13.58,8,22.11,9.83,33.61,9.59,6-.12,10.27-1.21,13.08-4.1a9.59,9.59,0,0,0,2.67-6.34c.11-6.48-9.09-9.51-20.36-13-9.13-2.83-19.5-6.68-27.6-12.63-9.6-7-14.17-15.88-13.94-28.33a34.23,34.23,0,0,1,9.71-23.68c8.93-9.23,23.33-14.83,40.6-14.83h.09c14.82,0,32.9,4.23,46,10.89L288,284.23c-14.33-6.91-21.54-7.57-29.71-8-12.15-.66-18.28,3.69-18.37,8.38-.11,5.71,11.49,10.88,22.43,14.39,16.56,5.27,37.62,12.3,40.84,32.65l30.28-80.72h35.16l35.46,96.52V250.93l40.59,0c38.79,0,57,13.83,57,44C501.69,322,482.94,338.13,451.23,338.13Z"/><path class="cls-1" d="M447.06,277.51h-8.94v32.71h8.94c11.93,0,21.44-4,21.44-16.57C468.5,281.47,459,277.51,447.06,277.51Z"/><path class="cls-1" d="M350.72,290.67l-12.86,40.6a37.14,37.14,0,0,0,13,2.27,38,38,0,0,0,12.75-2.16L351,290.67Z"/></svg>