<svg width="1280" height="320" fill="none" xmlns="http://www.w3.org/2000/svg"><g clip-path="url(#clip0)"><path d="M1338.58 1.227l32.52 13.807h35.9v1.534h-32.52l32.52 13.5V31.6l-35.59-15.033h-73.94l32.22 15.34H1407v1.534h-73.94l36.2 16.874H1407v1.841h-34.05L1407 68.111v1.841l-37.43-17.795h-82.53l35.59 19.022H1407v2.148h-80.38l40.19 21.477H1407v2.147h-35.9l35.9 19.022v2.148l-39.88-21.477h-93.27l39.88 24.545H1407v2.454h-88.97l45.71 28.227H1407v3.068h-38.35l38.35 23.931v3.068l-43.26-26.693h-107.07l45.1 32.522H1407v3.375h-100.32l52.77 38.658H1407v4.295h-41.72l41.72 30.374v4.295l-47.25-34.669h-125.79l51.24 45.714H1407v4.909h-115.97l39.88 35.59h-6.44l-39.58-35.59h-138.06l30.99 35.59h-6.44l-30.68-35.59h-138.06l22.39 35.59h-6.44l-21.782-35.59h-138.06l13.5 35.59h-6.443l-13.193-35.59h-138.06l4.602 35.59h-6.442l-4.296-35.59h-138.06l-4.295 35.59h-6.443l4.602-35.59H426.16l-13.192 35.59h-6.443l13.499-35.59h-138.06l-21.782 35.59h-6.443l22.396-35.59h-138.06l-30.68 35.59h-6.443l30.987-35.59H-6.121l-39.577 35.59h-6.443l39.884-35.59H-127v-4.909H-5.2l51.542-45.714H-79.446L-127 268.763v-4.295l41.725-30.374H-127v-4.295h47.554l52.77-38.351H-127v-3.375h105.232l45.1-32.829H-83.741L-127 181.937v-3.068l38.35-23.625H-127v-3.068h43.259l45.713-28.226H-127v-2.454h93.267L6.151 96.951h-93.267L-127 118.428v-2.148l35.896-19.022H-127V95.11h40.19l40.192-21.476H-127v-2.148h84.37l35.589-19.329h-82.53L-127 69.952v-1.84l34.055-15.955H-127v-1.84h37.736l36.203-16.875H-127v-1.534h77.314l32.214-15.34h-73.94L-127 31.6v-1.534l32.52-13.806H-127v-1.227h35.896l32.52-13.807H-127V0h1534v1.227h-68.42zm-44.48 15.34h-73.94l28.53 15.341h77.62l-32.21-15.34zm-914.573 104.93l15.34-24.545H301.6l-21.17 24.545h99.097zm-101.244 2.454l-24.544 28.226h106.459l17.795-28.226h-99.71zm721.287-2.454L978.4 96.951h-93.267l15.34 24.545h99.097zm-97.563 2.454l17.795 28.226h106.458l-24.54-28.226h-99.713zM400.389 94.803h92.654l8.283-21.476h-87.438l-13.499 21.477zM409.9 73.02h-87.438l-18.715 21.477h92.654L409.9 73.02zm87.131 21.784h92.654l2.761-21.477h-87.438l-7.977 21.477zm93.574 26.692h99.097l-3.068-24.545h-93.268l-2.761 24.545zm99.71-26.692h92.654l-7.977-21.477h-87.438l2.761 21.477zm96.642 0h92.654l-13.193-21.477H778.98l7.977 21.477zm96.642 0h92.654l-18.715-21.477H870.1l13.499 21.477zm96.642 0h92.649l-23.93-21.477h-87.434l18.715 21.477zm-99.403 2.147h-93.267l9.204 24.545h99.096l-15.033-24.545zm-96.949 0h-93.267l3.068 24.545h99.096l-8.897-24.545zm-94.187 26.999h-99.71l-3.375 28.226h106.459l-3.374-28.226zM589.378 96.951h-93.267l-8.897 24.545h99.096l3.068-24.545zm-97.256 0h-93.267l-15.033 24.545h99.096l9.204-24.545zm-173.648-23.93h-87.438l-23.931 21.476h92.654l18.715-21.477zm1.84-1.842l16.568-19.022h-82.53L233.183 71.18h87.131zm3.989 0h86.824l11.965-19.022h-82.529l-16.26 19.022zm90.813 0h86.824l7.363-19.022h-82.529L415.116 71.18zm90.506 0h86.824l2.454-19.022h-82.529l-6.749 19.022zm88.051 23.624h92.654l-2.455-21.476h-87.438l-2.761 21.477zm93.574-23.624h86.825l-7.057-19.022h-82.529l2.761 19.022zm90.813 0h86.824l-11.658-19.022h-82.529l7.363 19.022zm90.813 0h86.824L939.13 52.157h-82.529l12.272 19.022zm90.813 0h86.824l-21.17-19.022h-82.528l16.874 19.022zm90.814 0h86.82l-26.08-19.022h-82.52l21.78 19.022zm2.15 1.841l24.23 21.477h92.66l-29.46-21.477h-87.43zm22.7 23.931h-93.268l21.478 24.545h99.09l-27.3-24.545zm-69.34 26.999l24.85 28.226h106.16l-31.3-28.226h-99.71zm22.71 31.294H921.642l20.556 32.829h114.742l-28.22-32.829zm-111.68 0H809.967l12.272 32.829h114.743l-19.942-32.829zm-1.84-3.068l-17.488-28.226h-99.71l10.738 28.226H915.2zM793.707 123.95h-99.71l3.681 28.226h106.46l-10.431-28.226zm-100.324 31.294H586.31l-3.988 32.829h114.743l-3.682-32.829zM585.696 123.95h-99.71l-10.431 28.226h106.46l3.681-28.226zm-103.698 0h-99.71L364.8 152.176h106.46l10.738-28.226zM362.96 155.244l-20.249 32.829h114.743l12.272-32.829H362.96zm-4.602 0H251.284l-28.225 32.829h114.743l20.556-32.829zm-84.37-31.294h-99.71l-31.294 28.226h106.46l24.544-28.226zm2.147-2.454l21.476-24.545h-93.267l-27.305 24.545h99.096zM227.354 73.02h-87.438l-29.453 21.477h92.654l24.237-21.477zm2.148-1.84l21.476-19.023h-82.53L142.37 71.18h87.132zm-38.657-37.738h-77.927L85.612 50.316h81.916l23.317-16.874zM171.21 50.316h81.915l19.022-16.874H194.22l-23.01 16.874zm85.597 0h81.915l15.034-16.874h-77.928l-19.021 16.874zm85.597 0h81.916l10.738-16.874H357.13l-14.726 16.874zm85.29 0h81.916l6.443-16.874h-77.927l-10.432 16.874zm85.598 0h81.915l2.148-16.874h-77.927l-6.136 16.874zm83.142 20.863h86.825l-2.148-19.022h-82.529l-2.148 19.022zm88.052-20.863h81.916l-6.136-16.874h-77.928l2.148 16.874zm85.597 0h81.916l-10.431-16.874H763.64l6.443 16.874zm85.597 0h81.916L922.87 33.442h-77.928l10.738 16.874zm85.598 0h81.912l-19.02-16.874h-77.926l15.034 16.874zm85.592 0h81.92l-23.32-16.874h-77.92l19.32 16.874zm85.6 0h81.92l-27.31-16.874h-77.92l23.31 16.874zm85.6 0h81.91l-31.6-16.874h-77.92l27.61 16.874zm-.61 1.841h-82.53L1141 71.18h87.14l-30.68-19.022zm-53.39 20.863l29.76 21.477h92.35l-34.67-21.477h-87.44zm28.53 23.931h-93.26l27.61 24.545h99.1l-33.45-24.545zm-62.58 26.999l31.6 28.226h106.46l-38.35-28.226h-99.71zm30.37 31.294h-107.07l28.53 32.829h115.05l-36.51-32.829zm-75.17 36.204l33.75 38.351h124.56l-42.95-38.351h-115.36zm-5.21 0H944.346l24.237 38.351h124.867l-33.44-38.351zm-120.573 0H823.773l14.42 38.351H963.06l-23.623-38.351zm-120.879 0H702.894l4.909 38.351H832.67l-14.112-38.351zm-1.228-3.682l-11.965-32.828H698.292l4.295 32.828H817.33zm-119.345 3.682H582.322l-4.602 38.351h124.867l-4.602-38.351zm-116.277-36.204H474.635l-11.965 32.829h114.743l4.295-32.829zm-120.266 36.204l-14.112 38.351h124.867l4.909-38.351H461.442zm-5.215 0H340.563l-23.623 38.351h124.867l14.42-38.351zm-120.573 0H219.991l-33.135 38.351h124.868l23.93-38.351zm-120.879 0H99.112L56.16 229.799h124.867l33.748-38.351zm3.068-3.682l28.533-32.828H139.302L103.1 187.766h114.743zm-47.861-63.816h-99.71l-38.35 28.226h106.46l31.6-28.226zm3.068-2.454l27.612-24.545h-93.267l-33.441 24.545h99.096zM135.928 73.02H48.49L13.82 94.497h92.654l29.453-21.477zm2.761-1.84l26.078-19.023h-82.53L51.557 71.18h87.132zm-29.146-37.738H31.616L.016 50.316H81.93l27.612-16.874zm2.454-1.84l24.851-15.341H62.909L34.377 31.6h77.62zm3.375 0h77.62l20.863-15.341h-73.939L115.372 31.6zm80.995 0h77.621l17.18-15.341H217.23L196.367 31.6zm80.995 0h77.621l13.499-15.341h-73.939L277.362 31.6zm80.996 0h77.62l9.511-15.341H371.55L358.358 31.6zm80.995 0h77.62l5.829-15.341h-73.938l-9.511 15.34zm80.995 0h77.62l1.841-15.341H525.87l-5.522 15.34zm78.541 18.714h81.915l-2.147-16.874H600.73l-1.841 16.874zm83.143-18.715h77.62l-5.522-15.34h-73.939l1.841 15.34zm80.995 0h77.62l-9.511-15.34h-73.938l5.829 15.34zm80.995 0h77.62l-13.192-15.34h-73.939l9.511 15.34zm80.995 0h77.623l-16.876-15.34h-73.939l13.192 15.34zm80.993 0h77.62l-20.86-15.34h-73.938l17.178 15.34zm81 0h77.62l-24.55-15.34h-73.93l20.86 15.34zm80.99 0h77.32l-28.54-15.34h-73.63L1168 31.6zm197.58 18.715l-35.89-16.874h-77.93l31.91 16.874h81.91zm-82.22 1.841h-82.53l30.99 19.022h87.13l-35.59-19.022zm79.46 42.647l-40.19-21.477h-87.44l34.98 21.477h92.65zm-92.96 2.147h-93.27l33.75 24.545h99.1l-39.58-24.545zm89.28 55.225l-45.41-28.226h-99.71l38.66 28.226h106.46zm-107.07 3.068h-107.08l36.82 32.829h115.05l-44.79-32.829zm101.85 74.555l-52.46-38.351H1185.8l43.26 38.351h124.86zm-211.38 50.009h136.83l-50.93-45.714h-125.79l39.89 45.714zm-142.664 0h136.834l-39.58-45.714H971.344l28.532 45.714zm-142.662 0h136.833l-28.225-45.714H840.034l17.18 45.714zm-142.968 0h136.832l-16.874-45.714H708.416l5.83 45.714zm-5.83 0l-5.522-45.714H577.106l-5.522 45.714h136.832zm-142.662 0l5.83-45.714H445.796l-16.874 45.714h136.832zm-142.968 0l17.487-45.714H314.485l-28.225 45.714h136.526zm-142.662 0l28.839-45.714H183.175l-39.577 45.714h136.526zm-279.495 0h136.833l40.19-45.714H51.864L.63 279.808zm-74.553-50.009H50.944l43.259-38.351H-21.461l-52.463 38.351zm57.065-42.033H97.884l36.816-32.828H27.627l-44.486 32.828zm-62.28-35.59H27.32l38.656-28.226h-99.71l-45.406 28.226zm49.701-30.68H69.66l33.748-24.545H10.14l-39.578 24.545zM-82.82 94.804H9.833l34.975-21.477H-42.63l-40.19 21.477zm43.873-23.625h86.824l30.987-19.022h-82.53L-38.947 71.18zm-46.634-20.863h81.916L28.24 33.442h-77.927l-35.896 16.874zm39.27-18.715h77.62l28.533-15.34h-73.939L-46.312 31.6zm-9.204-30.374l-32.52 13.807h73.632L14.742 1.227h-70.258zm73.326 0l-29.146 13.807h73.632l25.77-13.807H17.81zm73.325 0L65.364 15.034h73.632l22.396-13.807H91.135zm73.632 0l-22.09 13.807h73.632l18.715-13.807h-70.257zm73.325 0l-18.715 13.807h73.632l15.34-13.807h-70.257zm73.325 0l-15.34 13.807h73.632l11.965-13.807h-70.257zm73.325 0l-11.965 13.807h73.632L455 1.227h-70.258zm73.326 0l-8.591 13.807h73.632l5.216-13.807h-70.257zm73.325 0l-5.216 13.807h73.632l1.841-13.807h-70.257zm143.889 0h-70.257l-1.534 13.807h73.632l-1.841-13.807zm-72.098 15.34l-1.841 15.341h77.621l-1.841-15.34h-73.939zm75.166-15.34l1.534 13.807h73.632L748.3 1.227h-69.95zm73.325 0l5.216 13.807h73.632l-8.591-13.807h-70.257zm73.325 0l8.591 13.807h73.632L895.258 1.227H825zm73.326 0l11.965 13.807h73.632l-15.34-13.807h-70.257zm73.325 0l15.34 13.807h73.629l-18.71-13.807h-70.259zm73.329 0L1064 15.034h73.63l-22.09-13.807h-70.56zm73.63 0L1141 15.034h73.64l-25.77-13.807h-70.26zm73.32 0l25.77 13.807h73.64l-29.15-13.807h-70.26zm73.33 0l29.14 13.807h73.64l-32.52-13.807h-70.26z" fill="url(#paint0_linear)"/></g><defs><linearGradient id="paint0_linear" x1="0" y1="152.836" x2="1281" y2="152.836" gradientUnits="userSpaceOnUse"><stop offset=".022" stop-color="#07070A"/><stop offset=".503" stop-color="#000F76"/><stop offset="1" stop-color="#070709"/></linearGradient><clipPath id="clip0"><path fill="#fff" transform="matrix(-1 0 0 1 1407 0)" d="M0 0h1534v320H0z"/></clipPath></defs></svg>