<svg width="315" height="314" fill="none" xmlns="http://www.w3.org/2000/svg"><path fill="#0020F5" d="M269.63 171.952l-7.476 7.476-7.476-7.476 7.476-7.476zm0-29.904l-7.476 7.476-7.476-7.476 7.476-7.476zM254.678 157l-7.476 7.476-7.476-7.476 7.476-7.476zm14.952 44.857l-7.476 7.476-7.476-7.476 7.476-7.476zm-14.952 14.953l-7.476 7.476-7.476-7.476 7.476-7.476zm-14.953 14.952l-7.476 7.476-7.476-7.476 7.476-7.476zm14.953-44.857l-7.476 7.476-7.476-7.476 7.476-7.476zm-14.953 14.952l-7.476 7.476-7.476-7.476 7.476-7.476zm-14.952 14.953l-7.476 7.476-7.476-7.476 7.476-7.476zm14.952-44.858l-7.476 7.476-7.476-7.476 7.476-7.476zm-14.952 14.953l-7.476 7.476-7.476-7.476 7.476-7.476zm-14.952 14.952l-7.476 7.476-7.476-7.476 7.476-7.476zm14.952 44.857l-7.476 7.476-7.476-7.476 7.476-7.476zm-14.952 14.953l-7.476 7.476-7.476-7.476 7.476-7.476zm-14.953 14.952l-7.476 7.476-7.476-7.476 7.476-7.476zm14.953-44.857l-7.476 7.476-7.476-7.476 7.476-7.476zm-14.953 14.952l-7.476 7.476-7.476-7.476 7.476-7.476zm-14.952 14.953l-7.476 7.476-7.476-7.476 7.476-7.476zm14.952-44.858l-7.476 7.476-7.476-7.476 7.476-7.476zm-14.952 14.953l-7.476 7.476-7.476-7.476 7.476-7.476zm-14.952 14.952l-7.476 7.476-7.476-7.476 7.476-7.476zm14.952 44.857l-7.476 7.476-7.476-7.476 7.476-7.476zm-14.952 14.953L157.488 314l-7.476-7.476 7.476-7.476zm0-29.905l-7.476 7.476-7.476-7.476 7.476-7.476zm-14.953 14.952l-7.476 7.476-7.476-7.476 7.476-7.476zm0-29.904l-7.476 7.476-7.476-7.476 7.476-7.476zm-14.952 14.952l-7.476 7.476-7.476-7.476 7.476-7.476zM269.63 112.142l-7.476 7.476-7.476-7.476 7.476-7.476zm-14.952 14.953l-7.476 7.476-7.476-7.476 7.476-7.476zm-14.953 14.953l-7.476 7.476-7.476-7.476 7.476-7.476zM224.773 157l-7.476 7.476L209.82 157l7.476-7.476zm-14.952 14.953l-7.476 7.476-7.476-7.476 7.476-7.476zm-14.953 14.952l-7.476 7.476-7.476-7.476 7.476-7.476zm-14.952 14.952l-7.476 7.476-7.476-7.476 7.476-7.476zm-14.952 14.953l-7.476 7.476-7.476-7.476 7.476-7.476zm-14.953 14.952l-7.476 7.476-7.476-7.476 7.476-7.476zm0-29.905l-7.476 7.476-7.476-7.476 7.476-7.476zm-14.952 14.953l-7.476 7.476-7.476-7.476 7.476-7.476zm0-29.905l-7.476 7.476-7.476-7.476 7.476-7.476zm-14.953 14.952l-7.476 7.476-7.476-7.476 7.476-7.476zm14.952 44.858l-7.476 7.476-7.476-7.476 7.476-7.476zm-14.952 14.952l-7.476 7.476-7.476-7.476 7.476-7.476zm0-29.905l-7.476 7.476-7.476-7.476 7.476-7.476zm-14.952 14.953l-7.476 7.476-7.476-7.476 7.476-7.476zm0-29.905l-7.476 7.476-7.476-7.476 7.476-7.476zm-14.953 14.952l-7.476 7.476-7.476-7.476 7.476-7.476zm29.905-59.81l-7.476 7.476-7.476-7.476 7.476-7.476zm-14.952 14.953l-7.476 7.476-7.476-7.476 7.476-7.476zm0-29.905l-7.476 7.476L90.202 157l7.476-7.476zm-14.953 14.952l-7.476 7.476-7.476-7.476 7.476-7.476zm0-29.904l-7.476 7.476-7.476-7.476 7.476-7.476zM75.25 157l-7.477 7.476L60.297 157l7.476-7.477zm14.951 44.857l-7.476 7.476-7.476-7.476 7.476-7.476zM75.25 216.81l-7.477 7.476-7.476-7.476 7.476-7.476zm0-29.905l-7.477 7.476-7.476-7.476 7.476-7.476zm-14.953 14.952l-7.476 7.476-7.477-7.476 7.477-7.476zm0-29.905l-7.476 7.476-7.477-7.476 7.477-7.476zm14.953-44.857l-7.477 7.476-7.476-7.476 7.476-7.476zm-14.953 14.953l-7.476 7.476-7.477-7.476 7.477-7.476zm0-29.905l-7.476 7.476-7.477-7.476 7.477-7.476z"/></svg>