<?xml version="1.0" encoding="iso-8859-1"?>
<!-- Generator: Adobe Illustrator 23.0.3, SVG Export Plug-In . SVG Version: 6.00 Build 0)  -->
<svg version="1.1"
	 id="svg3069" xmlns:cc="http://creativecommons.org/ns#" xmlns:dc="http://purl.org/dc/elements/1.1/" xmlns:inkscape="http://www.inkscape.org/namespaces/inkscape" xmlns:rdf="http://www.w3.org/1999/02/22-rdf-syntax-ns#" xmlns:sodipodi="http://sodipodi.sourceforge.net/DTD/sodipodi-0.dtd" xmlns:svg="http://www.w3.org/2000/svg"
	 xmlns="http://www.w3.org/2000/svg" xmlns:xlink="http://www.w3.org/1999/xlink" x="0px" y="0px" viewBox="0 0 314 458"
	 style="enable-background:new 0 0 314 458;" xml:space="preserve">
<sodipodi:namedview  bordercolor="#666666" borderopacity="1" gridtolerance="10" guidetolerance="10" id="namedview3071" inkscape:current-layer="svg3069" inkscape:cx="147.68188" inkscape:cy="312.16449" inkscape:pageopacity="0" inkscape:pageshadow="2" inkscape:window-height="2032" inkscape:window-maximized="1" inkscape:window-width="3840" inkscape:window-x="0" inkscape:window-y="54" inkscape:zoom="5.6568543" objecttolerance="10" pagecolor="#000000" showgrid="true">
	<inkscape:grid  id="grid3654" type="xygrid"></inkscape:grid>
</sodipodi:namedview>
<circle id="circle2668" style="fill:#FFFFFF;" cx="16" cy="112" r="16"/>
<circle id="circle2670" style="fill:#75FA4C;" cx="16" cy="158" r="16"/>
<circle id="circle2672" style="fill:#FFFFFF;" cx="16" cy="441" r="16"/>
<circle id="circle2674" style="fill:#0020F5;" cx="16" cy="253" r="16"/>
<circle id="circle2676" style="fill:#E63623;" cx="5.333" cy="196.333" r="5.333"/>
<circle id="circle2678" style="fill:#E63623;" cx="26.667" cy="196.333" r="5.333"/>
<circle id="circle2680" style="fill:#E63623;" cx="5.333" cy="215.242" r="5.333"/>
<circle id="circle2682" style="fill:#E63623;" cx="26.667" cy="215.242" r="5.333"/>
<path id="path2684" style="fill:#E63623;" d="M0,18C0,9.163,7.163,2,16,2c8.837,0,16,7.163,16,16v47c0,8.837-7.163,16-16,16
	C7.163,81,0,73.837,0,65V18z"/>
<circle id="circle2686" style="fill:#0020F5;" cx="16" cy="18" r="16"/>
<circle id="circle2688" style="fill:#FFFFFF;" cx="16" cy="65" r="16"/>
<circle id="circle2690" cx="16" cy="65" r="5"/>
<path id="path2692" style="fill:#FFFFFF;" d="M68.348,27.25h-10.71L56.108,34h-6.21l7.515-31.5h11.16L76.088,34h-6.21L68.348,27.25z
	 M58.898,21.58h8.145L63.398,5.47h-0.81L58.898,21.58z"/>
<path id="path2694" style="fill:#FFFFFF;" d="M52.913,49.5h5.94v25.83h14.31V81h-20.25V49.5z"/>
<path id="path2696" style="fill:#FFFFFF;" d="M52.913,96.5h5.94v25.83h14.31V128h-20.25V96.5z"/>
<path id="path2698" style="fill:#FFFFFF;" d="M115.393,59.13c0-1.26-0.495-2.355-1.485-3.285c-0.96-0.93-2.325-1.395-4.095-1.395
	c-1.5,0-2.685,0.315-3.555,0.945c-0.87,0.6-1.305,1.425-1.305,2.475c0,0.54,0.105,1.035,0.315,1.485c0.21,0.42,0.57,0.81,1.08,1.17
	c0.54,0.33,1.23,0.63,2.07,0.9c0.87,0.27,1.965,0.525,3.285,0.765c3.3,0.6,5.82,1.605,7.56,3.015c1.74,1.41,2.61,3.495,2.61,6.255
	V72c0,1.47-0.27,2.805-0.81,4.005c-0.51,1.17-1.26,2.175-2.25,3.015c-0.99,0.84-2.19,1.485-3.6,1.935c-1.41,0.45-3,0.675-4.77,0.675
	c-2.07,0-3.9-0.285-5.49-0.855c-1.56-0.6-2.865-1.41-3.915-2.43c-1.05-1.05-1.845-2.265-2.385-3.645c-0.54-1.41-0.81-2.94-0.81-4.59
	v-1.35h5.94v1.08c0,1.89,0.54,3.405,1.62,4.545c1.11,1.11,2.82,1.665,5.13,1.665c1.8,0,3.135-0.39,4.005-1.17
	c0.87-0.78,1.305-1.71,1.305-2.79c0-0.51-0.09-0.99-0.27-1.44c-0.18-0.48-0.495-0.9-0.945-1.26c-0.45-0.39-1.065-0.735-1.845-1.035
	c-0.78-0.3-1.77-0.555-2.97-0.765c-1.59-0.27-3.045-0.615-4.365-1.035c-1.32-0.45-2.475-1.035-3.465-1.755
	c-0.96-0.72-1.71-1.62-2.25-2.7c-0.54-1.08-0.81-2.4-0.81-3.96v-0.27c0-1.29,0.255-2.475,0.765-3.555
	c0.54-1.11,1.275-2.07,2.205-2.88c0.96-0.81,2.1-1.44,3.42-1.89c1.35-0.45,2.85-0.675,4.5-0.675c1.86,0,3.51,0.27,4.95,0.81
	c1.44,0.51,2.64,1.215,3.6,2.115c0.99,0.9,1.725,1.935,2.205,3.105c0.51,1.17,0.765,2.4,0.765,3.69v1.62h-5.94V59.13z"/>
<circle id="circle2700" style="fill:#0020F5;" cx="63" cy="239.667" r="2.667"/>
<circle id="circle2702" style="fill:#0020F5;" cx="76.333" cy="239.667" r="2.667"/>
<circle id="circle2704" style="fill:#0020F5;" cx="49.667" cy="253" r="2.667"/>
<circle id="circle2706" style="fill:#0020F5;" cx="63" cy="253" r="2.667"/>
<circle id="circle2708" style="fill:#0020F5;" cx="76.333" cy="253" r="2.667"/>
<circle id="circle2710" style="fill:#0020F5;" cx="49.667" cy="266.333" r="2.667"/>
<circle id="circle2712" style="fill:#0020F5;" cx="63" cy="266.333" r="2.667"/>
<circle id="circle2714" style="fill:#0020F5;" cx="76.333" cy="266.333" r="2.667"/>
<circle id="circle2716" style="fill:#0020F5;" cx="49.667" cy="239.667" r="2.667"/>
<path id="path2718" style="fill:#FFFFFF;" d="M47.702,429.9h6.552v1.638h-2.418V439H50.12v-7.462h-2.418V429.9z M57.638,439H56v-9.1
	h1.638v3.692h0.234c0.165-0.39,0.407-0.689,0.728-0.897c0.321-0.217,0.715-0.325,1.183-0.325c0.321,0,0.615,0.052,0.884,0.156
	c0.269,0.104,0.503,0.26,0.702,0.468c0.199,0.208,0.355,0.477,0.468,0.806c0.113,0.321,0.169,0.702,0.169,1.144V439h-1.638v-3.666
	c0-0.459-0.113-0.819-0.338-1.079c-0.217-0.269-0.533-0.403-0.949-0.403c-0.485,0-0.849,0.165-1.092,0.494
	c-0.234,0.321-0.351,0.754-0.351,1.3V439z M65.377,436.309c0.009,0.191,0.052,0.368,0.13,0.533c0.087,0.156,0.199,0.295,0.338,0.416
	c0.147,0.113,0.312,0.204,0.494,0.273c0.191,0.061,0.39,0.091,0.598,0.091c0.407,0,0.719-0.069,0.936-0.208
	c0.217-0.147,0.373-0.321,0.468-0.52l1.404,0.78c-0.078,0.165-0.186,0.338-0.325,0.52c-0.139,0.173-0.321,0.334-0.546,0.481
	c-0.217,0.147-0.485,0.269-0.806,0.364c-0.312,0.095-0.68,0.143-1.105,0.143c-0.485,0-0.927-0.078-1.326-0.234
	c-0.399-0.156-0.745-0.381-1.04-0.676c-0.286-0.295-0.511-0.654-0.676-1.079c-0.156-0.425-0.234-0.906-0.234-1.443v-0.078
	c0-0.494,0.082-0.945,0.247-1.352c0.173-0.407,0.407-0.754,0.702-1.04c0.295-0.286,0.637-0.507,1.027-0.663
	c0.399-0.165,0.823-0.247,1.274-0.247c0.555,0,1.031,0.1,1.43,0.299c0.399,0.191,0.728,0.438,0.988,0.741
	c0.26,0.295,0.451,0.624,0.572,0.988c0.121,0.355,0.182,0.702,0.182,1.04v0.871H65.377z M66.924,433.852
	c-0.416,0-0.754,0.108-1.014,0.325c-0.26,0.208-0.429,0.451-0.507,0.728h3.042c-0.052-0.303-0.217-0.555-0.494-0.754
	C67.682,433.952,67.34,433.852,66.924,433.852z M79.802,432.552h1.833v-1.326c0-0.373,0.126-0.685,0.377-0.936
	c0.251-0.26,0.563-0.39,0.936-0.39h2.626v1.56h-1.95c-0.234,0-0.351,0.13-0.351,0.39v0.702h2.535v1.56h-2.535V439h-1.638v-4.888
	h-1.833V432.552z M94.132,435.854c0,0.537-0.091,1.014-0.273,1.43c-0.182,0.407-0.429,0.754-0.741,1.04
	c-0.312,0.277-0.672,0.49-1.079,0.637c-0.399,0.147-0.819,0.221-1.261,0.221s-0.867-0.074-1.274-0.221
	c-0.399-0.147-0.754-0.36-1.066-0.637c-0.312-0.286-0.559-0.633-0.741-1.04c-0.182-0.416-0.273-0.893-0.273-1.43v-0.156
	c0-0.529,0.091-0.997,0.273-1.404c0.182-0.416,0.429-0.767,0.741-1.053c0.312-0.286,0.667-0.503,1.066-0.65
	c0.407-0.147,0.832-0.221,1.274-0.221s0.862,0.074,1.261,0.221c0.407,0.147,0.767,0.364,1.079,0.65
	c0.312,0.286,0.559,0.637,0.741,1.053c0.182,0.407,0.273,0.875,0.273,1.404V435.854z M90.778,437.622
	c0.234,0,0.455-0.039,0.663-0.117s0.39-0.191,0.546-0.338s0.277-0.325,0.364-0.533c0.095-0.217,0.143-0.459,0.143-0.728v-0.26
	c0-0.269-0.048-0.507-0.143-0.715c-0.087-0.217-0.208-0.399-0.364-0.546s-0.338-0.26-0.546-0.338s-0.429-0.117-0.663-0.117
	s-0.455,0.039-0.663,0.117s-0.39,0.191-0.546,0.338s-0.282,0.329-0.377,0.546c-0.087,0.208-0.13,0.446-0.13,0.715v0.26
	c0,0.269,0.043,0.511,0.13,0.728c0.095,0.208,0.221,0.386,0.377,0.533s0.338,0.26,0.546,0.338S90.544,437.622,90.778,437.622z
	 M100.142,432.552h1.638V439h-1.638v-0.936h-0.234c-0.286,0.745-0.901,1.118-1.846,1.118c-0.321,0-0.62-0.052-0.897-0.156
	c-0.277-0.104-0.52-0.264-0.728-0.481c-0.208-0.217-0.373-0.485-0.494-0.806c-0.113-0.329-0.169-0.715-0.169-1.157v-4.03h1.638
	v3.692c0,0.459,0.108,0.819,0.325,1.079c0.217,0.251,0.542,0.377,0.975,0.377c0.494,0,0.854-0.156,1.079-0.468
	c0.234-0.321,0.351-0.754,0.351-1.3V432.552z M105.372,439h-1.638v-6.448h1.638v0.962h0.234c0.147-0.364,0.385-0.646,0.715-0.845
	c0.329-0.199,0.715-0.299,1.157-0.299c0.312,0,0.602,0.052,0.871,0.156c0.277,0.095,0.52,0.247,0.728,0.455
	c0.208,0.208,0.368,0.472,0.481,0.793c0.121,0.321,0.182,0.702,0.182,1.144V439h-1.638v-3.666c0-0.459-0.113-0.819-0.338-1.079
	c-0.217-0.269-0.533-0.403-0.949-0.403c-0.486,0-0.85,0.165-1.092,0.494c-0.234,0.321-0.351,0.754-0.351,1.3V439z M116.322,438.064
	h-0.234c-0.07,0.147-0.156,0.29-0.26,0.429c-0.096,0.13-0.226,0.247-0.39,0.351c-0.156,0.104-0.347,0.186-0.572,0.247
	c-0.217,0.061-0.481,0.091-0.793,0.091c-0.399,0-0.772-0.069-1.118-0.208c-0.338-0.147-0.637-0.36-0.897-0.637
	c-0.252-0.286-0.451-0.633-0.598-1.04c-0.139-0.407-0.208-0.875-0.208-1.404v-0.234c0-0.52,0.073-0.984,0.221-1.391
	c0.156-0.407,0.364-0.75,0.624-1.027c0.268-0.286,0.576-0.503,0.923-0.65c0.355-0.147,0.728-0.221,1.118-0.221
	c0.52,0,0.931,0.1,1.235,0.299c0.303,0.191,0.541,0.464,0.715,0.819h0.234V429.9h1.638v9.1h-1.638V438.064z M114.606,437.622
	c0.511,0,0.923-0.16,1.235-0.481c0.32-0.329,0.481-0.758,0.481-1.287v-0.156c0-0.529-0.161-0.953-0.481-1.274
	c-0.312-0.329-0.724-0.494-1.235-0.494c-0.512,0-0.928,0.16-1.248,0.481c-0.312,0.312-0.468,0.741-0.468,1.287v0.156
	c0,0.546,0.156,0.979,0.468,1.3C113.678,437.466,114.094,437.622,114.606,437.622z M123.827,438.064
	c-0.174,0.407-0.416,0.698-0.728,0.871c-0.312,0.165-0.676,0.247-1.092,0.247c-0.39,0-0.759-0.074-1.105-0.221
	c-0.338-0.147-0.637-0.364-0.897-0.65c-0.26-0.286-0.468-0.633-0.624-1.04c-0.148-0.407-0.221-0.871-0.221-1.391v-0.208
	c0-0.511,0.073-0.971,0.221-1.378c0.147-0.407,0.346-0.754,0.598-1.04c0.251-0.286,0.541-0.503,0.871-0.65
	c0.338-0.156,0.697-0.234,1.079-0.234c0.459,0,0.827,0.078,1.105,0.234c0.286,0.156,0.511,0.399,0.676,0.728h0.234v-0.78h1.638
	v4.498c0,0.26,0.117,0.39,0.351,0.39h0.247V439h-1.118c-0.295,0-0.538-0.087-0.728-0.26c-0.182-0.173-0.273-0.399-0.273-0.676
	H123.827z M122.371,437.622c0.476,0,0.858-0.156,1.144-0.468c0.286-0.321,0.429-0.754,0.429-1.3v-0.156
	c0-0.546-0.143-0.975-0.429-1.287c-0.286-0.321-0.668-0.481-1.144-0.481c-0.477,0-0.858,0.16-1.144,0.481
	c-0.286,0.312-0.429,0.741-0.429,1.287v0.156c0,0.546,0.143,0.979,0.429,1.3C121.513,437.466,121.894,437.622,122.371,437.622z
	 M127.432,432.552h1.911V429.9h1.638v2.652h2.327v1.56h-2.327v2.938c0,0.26,0.117,0.39,0.351,0.39h1.742V439h-2.73
	c-0.295,0-0.538-0.095-0.728-0.286c-0.182-0.191-0.273-0.433-0.273-0.728v-3.874h-1.911V432.552z M135.691,437.44h2.184v-3.328
	h-2.028v-1.56h3.666v4.888h1.872V439h-5.694V437.44z M139.916,430.641c0,0.173-0.035,0.338-0.104,0.494
	c-0.061,0.147-0.148,0.277-0.26,0.39c-0.113,0.104-0.247,0.191-0.403,0.26c-0.148,0.061-0.304,0.091-0.468,0.091
	c-0.174,0-0.334-0.03-0.481-0.091c-0.148-0.069-0.278-0.156-0.39-0.26c-0.113-0.113-0.204-0.243-0.273-0.39
	c-0.061-0.156-0.091-0.321-0.091-0.494s0.03-0.334,0.091-0.481c0.069-0.156,0.16-0.286,0.273-0.39
	c0.112-0.113,0.242-0.199,0.39-0.26c0.147-0.069,0.307-0.104,0.481-0.104c0.164,0,0.32,0.035,0.468,0.104
	c0.156,0.061,0.29,0.147,0.403,0.26c0.112,0.104,0.199,0.234,0.26,0.39C139.881,430.307,139.916,430.468,139.916,430.641z
	 M149.852,435.854c0,0.537-0.091,1.014-0.273,1.43c-0.182,0.407-0.429,0.754-0.741,1.04c-0.312,0.277-0.672,0.49-1.079,0.637
	c-0.399,0.147-0.819,0.221-1.261,0.221s-0.867-0.074-1.274-0.221c-0.399-0.147-0.754-0.36-1.066-0.637
	c-0.312-0.286-0.559-0.633-0.741-1.04c-0.182-0.416-0.273-0.893-0.273-1.43v-0.156c0-0.529,0.091-0.997,0.273-1.404
	c0.182-0.416,0.429-0.767,0.741-1.053c0.312-0.286,0.667-0.503,1.066-0.65c0.407-0.147,0.832-0.221,1.274-0.221
	s0.862,0.074,1.261,0.221c0.407,0.147,0.767,0.364,1.079,0.65s0.559,0.637,0.741,1.053c0.182,0.407,0.273,0.875,0.273,1.404V435.854
	z M146.498,437.622c0.234,0,0.455-0.039,0.663-0.117c0.208-0.078,0.39-0.191,0.546-0.338s0.277-0.325,0.364-0.533
	c0.095-0.217,0.143-0.459,0.143-0.728v-0.26c0-0.269-0.048-0.507-0.143-0.715c-0.087-0.217-0.208-0.399-0.364-0.546
	s-0.338-0.26-0.546-0.338c-0.208-0.078-0.429-0.117-0.663-0.117s-0.455,0.039-0.663,0.117c-0.208,0.078-0.39,0.191-0.546,0.338
	s-0.282,0.329-0.377,0.546c-0.087,0.208-0.13,0.446-0.13,0.715v0.26c0,0.269,0.043,0.511,0.13,0.728
	c0.095,0.208,0.221,0.386,0.377,0.533s0.338,0.26,0.546,0.338C146.043,437.583,146.264,437.622,146.498,437.622z M153.131,439
	h-1.638v-6.448h1.638v0.962h0.234c0.148-0.364,0.386-0.646,0.715-0.845c0.33-0.199,0.715-0.299,1.157-0.299
	c0.312,0,0.603,0.052,0.871,0.156c0.278,0.095,0.52,0.247,0.728,0.455c0.208,0.208,0.369,0.472,0.481,0.793
	c0.122,0.321,0.182,0.702,0.182,1.144V439h-1.638v-3.666c0-0.459-0.112-0.819-0.338-1.079c-0.216-0.269-0.533-0.403-0.949-0.403
	c-0.485,0-0.849,0.165-1.092,0.494c-0.234,0.321-0.351,0.754-0.351,1.3V439z M163.626,438.064c-0.173,0.407-0.416,0.698-0.728,0.871
	c-0.312,0.165-0.676,0.247-1.092,0.247c-0.39,0-0.758-0.074-1.105-0.221c-0.338-0.147-0.637-0.364-0.897-0.65
	c-0.26-0.286-0.468-0.633-0.624-1.04c-0.147-0.407-0.221-0.871-0.221-1.391v-0.208c0-0.511,0.074-0.971,0.221-1.378
	c0.148-0.407,0.347-0.754,0.598-1.04c0.252-0.286,0.542-0.503,0.871-0.65c0.338-0.156,0.698-0.234,1.079-0.234
	c0.46,0,0.828,0.078,1.105,0.234c0.286,0.156,0.512,0.399,0.676,0.728h0.234v-0.78h1.638v4.498c0,0.26,0.117,0.39,0.351,0.39h0.247
	V439h-1.118c-0.294,0-0.537-0.087-0.728-0.26c-0.182-0.173-0.273-0.399-0.273-0.676H163.626z M162.17,437.622
	c0.477,0,0.858-0.156,1.144-0.468c0.286-0.321,0.429-0.754,0.429-1.3v-0.156c0-0.546-0.143-0.975-0.429-1.287
	c-0.286-0.321-0.667-0.481-1.144-0.481c-0.476,0-0.858,0.16-1.144,0.481c-0.286,0.312-0.429,0.741-0.429,1.287v0.156
	c0,0.546,0.143,0.979,0.429,1.3C161.312,437.466,161.694,437.622,162.17,437.622z M167.374,437.44h2.262v-5.98h-2.184v-1.56h3.822
	v7.54h2.106V439h-6.006V437.44z M187.701,432.552h1.638V439h-1.638v-0.936h-0.234c-0.286,0.745-0.901,1.118-1.846,1.118
	c-0.32,0-0.619-0.052-0.897-0.156c-0.277-0.104-0.52-0.264-0.728-0.481c-0.208-0.217-0.372-0.485-0.494-0.806
	c-0.112-0.329-0.169-0.715-0.169-1.157v-4.03h1.638v3.692c0,0.459,0.109,0.819,0.325,1.079c0.217,0.251,0.542,0.377,0.975,0.377
	c0.494,0,0.854-0.156,1.079-0.468c0.234-0.321,0.351-0.754,0.351-1.3V432.552z M193.347,434.372c0,0.208,0.109,0.36,0.325,0.455
	c0.217,0.087,0.611,0.16,1.183,0.221c0.659,0.069,1.196,0.269,1.612,0.598c0.416,0.321,0.624,0.771,0.624,1.352v0.078
	c0,0.641-0.234,1.153-0.702,1.534c-0.468,0.381-1.126,0.572-1.976,0.572c-0.502,0-0.931-0.065-1.287-0.195
	c-0.355-0.13-0.65-0.29-0.884-0.481c-0.234-0.199-0.416-0.416-0.546-0.65c-0.121-0.243-0.203-0.477-0.247-0.702l1.508-0.494
	c0.07,0.277,0.213,0.52,0.429,0.728c0.226,0.208,0.568,0.312,1.027,0.312c0.408,0,0.685-0.061,0.832-0.182
	c0.156-0.13,0.234-0.269,0.234-0.416c0-0.087-0.021-0.165-0.065-0.234c-0.034-0.078-0.104-0.147-0.208-0.208
	c-0.104-0.069-0.247-0.126-0.429-0.169c-0.173-0.043-0.394-0.078-0.663-0.104c-0.728-0.061-1.308-0.247-1.742-0.559
	c-0.424-0.321-0.637-0.789-0.637-1.404v-0.078c0-0.321,0.07-0.602,0.208-0.845c0.139-0.243,0.321-0.446,0.546-0.611
	c0.226-0.173,0.486-0.303,0.78-0.39c0.295-0.087,0.598-0.13,0.91-0.13c0.408,0,0.759,0.052,1.053,0.156
	c0.304,0.095,0.559,0.225,0.767,0.39c0.208,0.156,0.377,0.334,0.507,0.533c0.13,0.191,0.23,0.377,0.299,0.559l-1.482,0.598
	c-0.078-0.234-0.212-0.416-0.403-0.546c-0.19-0.139-0.437-0.208-0.741-0.208c-0.277,0-0.485,0.052-0.624,0.156
	C193.417,434.103,193.347,434.225,193.347,434.372z M200.696,436.309c0.009,0.191,0.052,0.368,0.13,0.533
	c0.087,0.156,0.2,0.295,0.338,0.416c0.148,0.113,0.312,0.204,0.494,0.273c0.191,0.061,0.39,0.091,0.598,0.091
	c0.408,0,0.72-0.069,0.936-0.208c0.217-0.147,0.373-0.321,0.468-0.52l1.404,0.78c-0.078,0.165-0.186,0.338-0.325,0.52
	c-0.138,0.173-0.32,0.334-0.546,0.481c-0.216,0.147-0.485,0.269-0.806,0.364c-0.312,0.095-0.68,0.143-1.105,0.143
	c-0.485,0-0.927-0.078-1.326-0.234c-0.398-0.156-0.745-0.381-1.04-0.676c-0.286-0.295-0.511-0.654-0.676-1.079
	c-0.156-0.425-0.234-0.906-0.234-1.443v-0.078c0-0.494,0.083-0.945,0.247-1.352c0.174-0.407,0.408-0.754,0.702-1.04
	c0.295-0.286,0.637-0.507,1.027-0.663c0.399-0.165,0.824-0.247,1.274-0.247c0.555,0,1.032,0.1,1.43,0.299
	c0.399,0.191,0.728,0.438,0.988,0.741c0.26,0.295,0.451,0.624,0.572,0.988c0.122,0.355,0.182,0.702,0.182,1.04v0.871H200.696z
	 M202.243,433.852c-0.416,0-0.754,0.108-1.014,0.325c-0.26,0.208-0.429,0.451-0.507,0.728h3.042
	c-0.052-0.303-0.216-0.555-0.494-0.754C203.002,433.952,202.659,433.852,202.243,433.852z M206.901,432.552h2.73v0.936h0.234
	c0.122-0.355,0.325-0.628,0.611-0.819c0.295-0.199,0.646-0.299,1.053-0.299c0.642,0,1.157,0.204,1.547,0.611
	c0.39,0.399,0.585,1.01,0.585,1.833v0.286l-1.69,0.156v-0.182c0-0.355-0.091-0.637-0.273-0.845
	c-0.182-0.217-0.455-0.325-0.819-0.325s-0.65,0.126-0.858,0.377c-0.208,0.251-0.312,0.611-0.312,1.079v2.08h1.482V439h-4.446v-1.56
	h1.326v-3.328h-1.17V432.552z M216.109,434.684h4.056v1.482h-4.056V434.684z M225.187,434.372c0,0.208,0.108,0.36,0.325,0.455
	c0.217,0.087,0.611,0.16,1.183,0.221c0.659,0.069,1.196,0.269,1.612,0.598c0.416,0.321,0.624,0.771,0.624,1.352v0.078
	c0,0.641-0.234,1.153-0.702,1.534c-0.468,0.381-1.127,0.572-1.976,0.572c-0.503,0-0.932-0.065-1.287-0.195
	c-0.355-0.13-0.65-0.29-0.884-0.481c-0.234-0.199-0.416-0.416-0.546-0.65c-0.121-0.243-0.204-0.477-0.247-0.702l1.508-0.494
	c0.069,0.277,0.212,0.52,0.429,0.728c0.225,0.208,0.568,0.312,1.027,0.312c0.407,0,0.685-0.061,0.832-0.182
	c0.156-0.13,0.234-0.269,0.234-0.416c0-0.087-0.022-0.165-0.065-0.234c-0.035-0.078-0.104-0.147-0.208-0.208
	c-0.104-0.069-0.247-0.126-0.429-0.169c-0.173-0.043-0.394-0.078-0.663-0.104c-0.728-0.061-1.309-0.247-1.742-0.559
	c-0.425-0.321-0.637-0.789-0.637-1.404v-0.078c0-0.321,0.069-0.602,0.208-0.845c0.139-0.243,0.321-0.446,0.546-0.611
	c0.225-0.173,0.485-0.303,0.78-0.39c0.295-0.087,0.598-0.13,0.91-0.13c0.407,0,0.758,0.052,1.053,0.156
	c0.303,0.095,0.559,0.225,0.767,0.39c0.208,0.156,0.377,0.334,0.507,0.533c0.13,0.191,0.23,0.377,0.299,0.559l-1.482,0.598
	c-0.078-0.234-0.212-0.416-0.403-0.546c-0.191-0.139-0.438-0.208-0.741-0.208c-0.277,0-0.485,0.052-0.624,0.156
	C225.256,434.103,225.187,434.225,225.187,434.372z M232.393,441.6h-1.638v-9.048h1.638v0.936h0.234
	c0.173-0.355,0.425-0.628,0.754-0.819c0.329-0.199,0.75-0.299,1.261-0.299c0.381,0,0.741,0.074,1.079,0.221
	c0.347,0.147,0.646,0.364,0.897,0.65c0.26,0.277,0.464,0.62,0.611,1.027c0.156,0.407,0.234,0.871,0.234,1.391v0.234
	c0,0.529-0.074,0.997-0.221,1.404c-0.147,0.407-0.347,0.754-0.598,1.04c-0.251,0.277-0.55,0.49-0.897,0.637
	c-0.338,0.139-0.706,0.208-1.105,0.208c-0.295,0-0.55-0.03-0.767-0.091s-0.407-0.143-0.572-0.247
	c-0.156-0.104-0.29-0.221-0.403-0.351c-0.104-0.139-0.195-0.282-0.273-0.429h-0.234V441.6z M234.109,437.622
	c0.511,0,0.923-0.156,1.235-0.468c0.321-0.321,0.481-0.754,0.481-1.3v-0.156c0-0.546-0.16-0.975-0.481-1.287
	c-0.312-0.321-0.724-0.481-1.235-0.481c-0.511,0-0.927,0.165-1.248,0.494c-0.312,0.321-0.468,0.745-0.468,1.274v0.156
	c0,0.529,0.156,0.958,0.468,1.287C233.182,437.462,233.598,437.622,234.109,437.622z M243.226,438.064
	c-0.173,0.407-0.416,0.698-0.728,0.871c-0.312,0.165-0.676,0.247-1.092,0.247c-0.39,0-0.758-0.074-1.105-0.221
	c-0.338-0.147-0.637-0.364-0.897-0.65c-0.26-0.286-0.468-0.633-0.624-1.04c-0.147-0.407-0.221-0.871-0.221-1.391v-0.208
	c0-0.511,0.074-0.971,0.221-1.378c0.147-0.407,0.347-0.754,0.598-1.04c0.251-0.286,0.542-0.503,0.871-0.65
	c0.338-0.156,0.698-0.234,1.079-0.234c0.459,0,0.828,0.078,1.105,0.234c0.286,0.156,0.511,0.399,0.676,0.728h0.234v-0.78h1.638
	v4.498c0,0.26,0.117,0.39,0.351,0.39h0.247V439h-1.118c-0.295,0-0.537-0.087-0.728-0.26c-0.182-0.173-0.273-0.399-0.273-0.676
	H243.226z M241.77,437.622c0.477,0,0.858-0.156,1.144-0.468c0.286-0.321,0.429-0.754,0.429-1.3v-0.156
	c0-0.546-0.143-0.975-0.429-1.287c-0.286-0.321-0.667-0.481-1.144-0.481c-0.477,0-0.858,0.16-1.144,0.481
	c-0.286,0.312-0.429,0.741-0.429,1.287v0.156c0,0.546,0.143,0.979,0.429,1.3C240.912,437.466,241.293,437.622,241.77,437.622z
	 M253.305,436.634c-0.147,0.763-0.498,1.378-1.053,1.846c-0.546,0.468-1.278,0.702-2.197,0.702c-0.477,0-0.923-0.074-1.339-0.221
	c-0.407-0.147-0.763-0.36-1.066-0.637c-0.303-0.277-0.542-0.62-0.715-1.027c-0.173-0.407-0.26-0.871-0.26-1.391v-0.156
	c0-0.52,0.087-0.988,0.26-1.404c0.173-0.416,0.412-0.771,0.715-1.066c0.312-0.295,0.672-0.52,1.079-0.676
	c0.416-0.156,0.858-0.234,1.326-0.234c0.901,0,1.629,0.234,2.184,0.702c0.563,0.468,0.919,1.083,1.066,1.846l-1.612,0.416
	c-0.052-0.381-0.217-0.711-0.494-0.988c-0.277-0.277-0.667-0.416-1.17-0.416c-0.234,0-0.455,0.043-0.663,0.13
	c-0.208,0.087-0.39,0.212-0.546,0.377c-0.156,0.156-0.282,0.351-0.377,0.585c-0.087,0.225-0.13,0.481-0.13,0.767v0.078
	c0,0.286,0.043,0.542,0.13,0.767c0.095,0.217,0.221,0.399,0.377,0.546c0.156,0.147,0.338,0.26,0.546,0.338
	c0.208,0.069,0.429,0.104,0.663,0.104c0.503,0,0.884-0.126,1.144-0.377c0.269-0.251,0.442-0.589,0.52-1.014L253.305,436.634z
	 M256.416,436.309c0.009,0.191,0.052,0.368,0.13,0.533c0.087,0.156,0.199,0.295,0.338,0.416c0.147,0.113,0.312,0.204,0.494,0.273
	c0.191,0.061,0.39,0.091,0.598,0.091c0.407,0,0.719-0.069,0.936-0.208c0.217-0.147,0.373-0.321,0.468-0.52l1.404,0.78
	c-0.078,0.165-0.186,0.338-0.325,0.52c-0.139,0.173-0.321,0.334-0.546,0.481c-0.217,0.147-0.485,0.269-0.806,0.364
	c-0.312,0.095-0.68,0.143-1.105,0.143c-0.485,0-0.927-0.078-1.326-0.234c-0.399-0.156-0.745-0.381-1.04-0.676
	c-0.286-0.295-0.511-0.654-0.676-1.079c-0.156-0.425-0.234-0.906-0.234-1.443v-0.078c0-0.494,0.082-0.945,0.247-1.352
	c0.173-0.407,0.407-0.754,0.702-1.04s0.637-0.507,1.027-0.663c0.399-0.165,0.823-0.247,1.274-0.247c0.555,0,1.031,0.1,1.43,0.299
	c0.399,0.191,0.728,0.438,0.988,0.741c0.26,0.295,0.451,0.624,0.572,0.988c0.121,0.355,0.182,0.702,0.182,1.04v0.871H256.416z
	 M257.963,433.852c-0.416,0-0.754,0.108-1.014,0.325c-0.26,0.208-0.429,0.451-0.507,0.728h3.042
	c-0.052-0.303-0.217-0.555-0.494-0.754C258.721,433.952,258.379,433.852,257.963,433.852z M48.066,447.9h1.716v7.462h4.134V457
	h-5.85V447.9z M56.091,455.44h2.184v-3.328h-2.028v-1.56h3.666v4.888h1.872V457h-5.694V455.44z M60.316,448.641
	c0,0.173-0.035,0.338-0.104,0.494c-0.061,0.147-0.147,0.277-0.26,0.39c-0.113,0.104-0.247,0.191-0.403,0.26
	c-0.147,0.061-0.303,0.091-0.468,0.091c-0.173,0-0.334-0.03-0.481-0.091c-0.147-0.069-0.277-0.156-0.39-0.26
	c-0.113-0.113-0.204-0.243-0.273-0.39c-0.061-0.156-0.091-0.321-0.091-0.494s0.03-0.334,0.091-0.481
	c0.069-0.156,0.16-0.286,0.273-0.39c0.113-0.113,0.243-0.199,0.39-0.26c0.147-0.069,0.308-0.104,0.481-0.104
	c0.165,0,0.321,0.035,0.468,0.104c0.156,0.061,0.29,0.147,0.403,0.26c0.113,0.104,0.199,0.234,0.26,0.39
	C60.281,448.307,60.316,448.468,60.316,448.641z M65.572,457h-1.638v-6.448h1.638v0.962h0.234c0.147-0.364,0.386-0.646,0.715-0.845
	c0.329-0.199,0.715-0.299,1.157-0.299c0.312,0,0.602,0.052,0.871,0.156c0.277,0.095,0.52,0.247,0.728,0.455
	c0.208,0.208,0.368,0.472,0.481,0.793c0.121,0.321,0.182,0.702,0.182,1.144V457h-1.638v-3.666c0-0.459-0.113-0.819-0.338-1.079
	c-0.217-0.269-0.533-0.403-0.949-0.403c-0.485,0-0.849,0.165-1.092,0.494c-0.234,0.321-0.351,0.754-0.351,1.3V457z M76.262,450.552
	H77.9V457h-1.638v-0.936h-0.234c-0.286,0.745-0.901,1.118-1.846,1.118c-0.321,0-0.62-0.052-0.897-0.156
	c-0.277-0.104-0.52-0.264-0.728-0.481c-0.208-0.217-0.373-0.485-0.494-0.806c-0.113-0.329-0.169-0.715-0.169-1.157v-4.03h1.638
	v3.692c0,0.459,0.108,0.819,0.325,1.079c0.217,0.251,0.542,0.377,0.975,0.377c0.494,0,0.854-0.156,1.079-0.468
	c0.234-0.321,0.351-0.754,0.351-1.3V450.552z M84.131,450.552h1.807l-1.56,3.029v0.234L86.029,457h-1.885l-1.209-2.522h-0.234
	L81.492,457h-1.885l1.651-3.185v-0.234l-1.573-3.029h1.82l1.196,2.366h0.234L84.131,450.552z M102.066,454.634
	c-0.148,0.763-0.499,1.378-1.053,1.846c-0.546,0.468-1.279,0.702-2.197,0.702c-0.477,0-0.923-0.074-1.339-0.221
	c-0.407-0.147-0.763-0.36-1.066-0.637c-0.303-0.277-0.542-0.62-0.715-1.027c-0.173-0.407-0.26-0.871-0.26-1.391v-0.156
	c0-0.52,0.087-0.988,0.26-1.404c0.173-0.416,0.412-0.771,0.715-1.066c0.312-0.295,0.672-0.52,1.079-0.676
	c0.416-0.156,0.858-0.234,1.326-0.234c0.901,0,1.629,0.234,2.184,0.702c0.563,0.468,0.918,1.083,1.066,1.846l-1.612,0.416
	c-0.052-0.381-0.217-0.711-0.494-0.988c-0.277-0.277-0.667-0.416-1.17-0.416c-0.234,0-0.455,0.043-0.663,0.13
	s-0.39,0.212-0.546,0.377c-0.156,0.156-0.282,0.351-0.377,0.585c-0.087,0.225-0.13,0.481-0.13,0.767v0.078
	c0,0.286,0.043,0.542,0.13,0.767c0.095,0.217,0.221,0.399,0.377,0.546c0.156,0.147,0.338,0.26,0.546,0.338
	c0.208,0.069,0.429,0.104,0.663,0.104c0.503,0,0.884-0.126,1.144-0.377c0.268-0.251,0.442-0.589,0.52-1.014L102.066,454.634z
	 M110.052,453.854c0,0.537-0.091,1.014-0.273,1.43c-0.182,0.407-0.429,0.754-0.741,1.04c-0.312,0.277-0.672,0.49-1.079,0.637
	c-0.399,0.147-0.819,0.221-1.261,0.221s-0.867-0.074-1.274-0.221c-0.399-0.147-0.754-0.36-1.066-0.637
	c-0.312-0.286-0.559-0.633-0.741-1.04c-0.182-0.416-0.273-0.893-0.273-1.43v-0.156c0-0.529,0.091-0.997,0.273-1.404
	c0.182-0.416,0.429-0.767,0.741-1.053c0.312-0.286,0.667-0.503,1.066-0.65c0.407-0.147,0.832-0.221,1.274-0.221
	s0.862,0.074,1.261,0.221c0.407,0.147,0.767,0.364,1.079,0.65c0.312,0.286,0.559,0.637,0.741,1.053
	c0.182,0.407,0.273,0.875,0.273,1.404V453.854z M106.698,455.622c0.234,0,0.455-0.039,0.663-0.117s0.39-0.191,0.546-0.338
	c0.156-0.147,0.277-0.325,0.364-0.533c0.095-0.217,0.143-0.459,0.143-0.728v-0.26c0-0.269-0.048-0.507-0.143-0.715
	c-0.087-0.217-0.208-0.399-0.364-0.546c-0.156-0.147-0.338-0.26-0.546-0.338s-0.429-0.117-0.663-0.117s-0.455,0.039-0.663,0.117
	c-0.208,0.078-0.39,0.191-0.546,0.338s-0.282,0.329-0.377,0.546c-0.087,0.208-0.13,0.446-0.13,0.715v0.26
	c0,0.269,0.043,0.511,0.13,0.728c0.095,0.208,0.221,0.386,0.377,0.533s0.338,0.26,0.546,0.338
	C106.243,455.583,106.464,455.622,106.698,455.622z M113.332,457h-1.638v-6.448h1.638v0.962h0.234
	c0.147-0.364,0.385-0.646,0.715-0.845c0.329-0.199,0.715-0.299,1.157-0.299c0.312,0,0.602,0.052,0.871,0.156
	c0.277,0.095,0.52,0.247,0.728,0.455c0.208,0.208,0.368,0.472,0.481,0.793c0.121,0.321,0.182,0.702,0.182,1.144V457h-1.638v-3.666
	c0-0.459-0.113-0.819-0.338-1.079c-0.217-0.269-0.533-0.403-0.949-0.403c-0.486,0-0.85,0.165-1.092,0.494
	c-0.234,0.321-0.351,0.754-0.351,1.3V457z M119.602,450.552h1.833v-1.326c0-0.373,0.125-0.685,0.377-0.936
	c0.251-0.26,0.563-0.39,0.936-0.39h2.626v1.56h-1.95c-0.234,0-0.351,0.13-0.351,0.39v0.702h2.535v1.56h-2.535V457h-1.638v-4.888
	h-1.833V450.552z M129.057,454.309c0.008,0.191,0.052,0.368,0.13,0.533c0.086,0.156,0.199,0.295,0.338,0.416
	c0.147,0.113,0.312,0.204,0.494,0.273c0.19,0.061,0.39,0.091,0.598,0.091c0.407,0,0.719-0.069,0.936-0.208
	c0.216-0.147,0.372-0.321,0.468-0.52l1.404,0.78c-0.078,0.165-0.187,0.338-0.325,0.52c-0.139,0.173-0.321,0.334-0.546,0.481
	c-0.217,0.147-0.486,0.269-0.806,0.364c-0.312,0.095-0.681,0.143-1.105,0.143c-0.486,0-0.928-0.078-1.326-0.234
	c-0.399-0.156-0.746-0.381-1.04-0.676c-0.286-0.295-0.512-0.654-0.676-1.079c-0.156-0.425-0.234-0.906-0.234-1.443v-0.078
	c0-0.494,0.082-0.945,0.247-1.352c0.173-0.407,0.407-0.754,0.702-1.04c0.294-0.286,0.637-0.507,1.027-0.663
	c0.398-0.165,0.823-0.247,1.274-0.247c0.554,0,1.031,0.1,1.43,0.299c0.398,0.191,0.728,0.438,0.988,0.741
	c0.26,0.295,0.45,0.624,0.572,0.988c0.121,0.355,0.182,0.702,0.182,1.04v0.871H129.057z M130.604,451.852
	c-0.416,0-0.754,0.108-1.014,0.325c-0.26,0.208-0.429,0.451-0.507,0.728h3.042c-0.052-0.303-0.217-0.555-0.494-0.754
	C131.362,451.952,131.02,451.852,130.604,451.852z M135.262,450.552h2.73v0.936h0.234c0.121-0.355,0.325-0.628,0.611-0.819
	c0.294-0.199,0.645-0.299,1.053-0.299c0.641,0,1.157,0.204,1.547,0.611c0.39,0.399,0.585,1.01,0.585,1.833v0.286l-1.69,0.156v-0.182
	c0-0.355-0.091-0.637-0.273-0.845c-0.182-0.217-0.455-0.325-0.819-0.325s-0.65,0.126-0.858,0.377
	c-0.208,0.251-0.312,0.611-0.312,1.079v2.08h1.482V457h-4.446v-1.56h1.326v-3.328h-1.17V450.552z M144.977,454.309
	c0.008,0.191,0.052,0.368,0.13,0.533c0.086,0.156,0.199,0.295,0.338,0.416c0.147,0.113,0.312,0.204,0.494,0.273
	c0.19,0.061,0.39,0.091,0.598,0.091c0.407,0,0.719-0.069,0.936-0.208c0.216-0.147,0.372-0.321,0.468-0.52l1.404,0.78
	c-0.078,0.165-0.187,0.338-0.325,0.52c-0.139,0.173-0.321,0.334-0.546,0.481c-0.217,0.147-0.486,0.269-0.806,0.364
	c-0.312,0.095-0.681,0.143-1.105,0.143c-0.486,0-0.928-0.078-1.326-0.234c-0.399-0.156-0.746-0.381-1.04-0.676
	c-0.286-0.295-0.512-0.654-0.676-1.079c-0.156-0.425-0.234-0.906-0.234-1.443v-0.078c0-0.494,0.082-0.945,0.247-1.352
	c0.173-0.407,0.407-0.754,0.702-1.04c0.294-0.286,0.637-0.507,1.027-0.663c0.398-0.165,0.823-0.247,1.274-0.247
	c0.554,0,1.031,0.1,1.43,0.299c0.398,0.191,0.728,0.438,0.988,0.741c0.26,0.295,0.45,0.624,0.572,0.988
	c0.121,0.355,0.182,0.702,0.182,1.04v0.871H144.977z M146.524,451.852c-0.416,0-0.754,0.108-1.014,0.325
	c-0.26,0.208-0.429,0.451-0.507,0.728h3.042c-0.052-0.303-0.217-0.555-0.494-0.754C147.282,451.952,146.94,451.852,146.524,451.852z
	 M153.131,457h-1.638v-6.448h1.638v0.962h0.234c0.148-0.364,0.386-0.646,0.715-0.845c0.33-0.199,0.715-0.299,1.157-0.299
	c0.312,0,0.603,0.052,0.871,0.156c0.278,0.095,0.52,0.247,0.728,0.455c0.208,0.208,0.369,0.472,0.481,0.793
	c0.122,0.321,0.182,0.702,0.182,1.144V457h-1.638v-3.666c0-0.459-0.112-0.819-0.338-1.079c-0.216-0.269-0.533-0.403-0.949-0.403
	c-0.485,0-0.849,0.165-1.092,0.494c-0.234,0.321-0.351,0.754-0.351,1.3V457z M165.745,454.634c-0.147,0.763-0.498,1.378-1.053,1.846
	c-0.546,0.468-1.278,0.702-2.197,0.702c-0.476,0-0.923-0.074-1.339-0.221c-0.407-0.147-0.762-0.36-1.066-0.637
	c-0.303-0.277-0.541-0.62-0.715-1.027c-0.173-0.407-0.26-0.871-0.26-1.391v-0.156c0-0.52,0.087-0.988,0.26-1.404
	c0.174-0.416,0.412-0.771,0.715-1.066c0.312-0.295,0.672-0.52,1.079-0.676c0.416-0.156,0.858-0.234,1.326-0.234
	c0.902,0,1.63,0.234,2.184,0.702c0.564,0.468,0.919,1.083,1.066,1.846l-1.612,0.416c-0.052-0.381-0.216-0.711-0.494-0.988
	c-0.277-0.277-0.667-0.416-1.17-0.416c-0.234,0-0.455,0.043-0.663,0.13c-0.208,0.087-0.39,0.212-0.546,0.377
	c-0.156,0.156-0.281,0.351-0.377,0.585c-0.086,0.225-0.13,0.481-0.13,0.767v0.078c0,0.286,0.044,0.542,0.13,0.767
	c0.096,0.217,0.221,0.399,0.377,0.546c0.156,0.147,0.338,0.26,0.546,0.338c0.208,0.069,0.429,0.104,0.663,0.104
	c0.503,0,0.884-0.126,1.144-0.377c0.269-0.251,0.442-0.589,0.52-1.014L165.745,454.634z M168.856,454.309
	c0.009,0.191,0.052,0.368,0.13,0.533c0.087,0.156,0.2,0.295,0.338,0.416c0.148,0.113,0.312,0.204,0.494,0.273
	c0.191,0.061,0.39,0.091,0.598,0.091c0.408,0,0.72-0.069,0.936-0.208c0.217-0.147,0.373-0.321,0.468-0.52l1.404,0.78
	c-0.078,0.165-0.186,0.338-0.325,0.52c-0.138,0.173-0.32,0.334-0.546,0.481c-0.216,0.147-0.485,0.269-0.806,0.364
	c-0.312,0.095-0.68,0.143-1.105,0.143c-0.485,0-0.927-0.078-1.326-0.234c-0.398-0.156-0.745-0.381-1.04-0.676
	c-0.286-0.295-0.511-0.654-0.676-1.079c-0.156-0.425-0.234-0.906-0.234-1.443v-0.078c0-0.494,0.083-0.945,0.247-1.352
	c0.174-0.407,0.408-0.754,0.702-1.04c0.295-0.286,0.637-0.507,1.027-0.663c0.399-0.165,0.824-0.247,1.274-0.247
	c0.555,0,1.032,0.1,1.43,0.299c0.399,0.191,0.728,0.438,0.988,0.741c0.26,0.295,0.451,0.624,0.572,0.988
	c0.122,0.355,0.182,0.702,0.182,1.04v0.871H168.856z M170.403,451.852c-0.416,0-0.754,0.108-1.014,0.325
	c-0.26,0.208-0.429,0.451-0.507,0.728h3.042c-0.052-0.303-0.216-0.555-0.494-0.754C171.162,451.952,170.819,451.852,170.403,451.852
	z"/>
<path id="path2720" style="fill:#FFFFFF;" d="M314,394c0,0.36-0.309,0.617-0.617,0.617h-5.402c-0.36,0-0.618-0.308-0.618-0.617
	c0-0.36,0.309-0.617,0.618-0.617h5.402C313.743,393.383,314,393.64,314,394z"/>
<path id="path2722" style="fill:#FFFFFF;" d="M288.688,394c0,0.36-0.309,0.617-0.617,0.617h-5.454c-0.36,0-0.617-0.308-0.617-0.617
	c0-0.36,0.309-0.617,0.617-0.617h5.402C288.379,393.383,288.688,393.64,288.688,394z"/>
<path id="path2724" style="fill:#FFFFFF;" d="M298.617,403.981v5.402c0,0.36-0.308,0.617-0.617,0.617
	c-0.36,0-0.617-0.309-0.617-0.617v-5.402c0-0.36,0.308-0.618,0.617-0.618C298.36,403.312,298.617,403.621,298.617,403.981z"/>
<path id="path2726" style="fill:#FFFFFF;" d="M298.617,378.617v5.402c0,0.36-0.308,0.618-0.617,0.618
	c-0.36,0-0.617-0.309-0.617-0.618v-5.402c0-0.36,0.308-0.617,0.617-0.617C298.36,378,298.617,378.309,298.617,378.617z"/>
<path id="path2728" style="fill:#FFFFFF;" d="M304.277,408.302c0,0.257-0.155,0.515-0.412,0.618
	c-0.309,0.154-0.72-0.052-0.823-0.361l-2.007-5.041c-0.154-0.309,0.052-0.721,0.361-0.823c0.308-0.155,0.72,0.051,0.823,0.36
	l2.006,5.041C304.277,408.148,304.277,408.199,304.277,408.302z"/>
<path id="path2730" style="fill:#FFFFFF;" d="M294.965,384.74c0,0.257-0.155,0.514-0.412,0.617c-0.309,0.154-0.72-0.052-0.823-0.36
	l-1.955-5.042c-0.154-0.309,0.051-0.72,0.36-0.823c0.309-0.103,0.72,0.051,0.823,0.36l2.007,5.042
	C294.965,384.585,294.965,384.688,294.965,384.74z"/>
<path id="path2732" style="fill:#FFFFFF;" d="M312.662,400.277c0,0.102,0,0.154-0.051,0.257c-0.154,0.308-0.515,0.463-0.823,0.308
	l-4.939-2.212c-0.309-0.154-0.463-0.514-0.309-0.823c0.155-0.309,0.515-0.463,0.823-0.309l4.939,2.213
	C312.508,399.814,312.662,400.071,312.662,400.277z"/>
<path id="path2734" style="fill:#FFFFFF;" d="M289.563,389.936c0,0.103,0,0.154-0.052,0.257c-0.154,0.309-0.514,0.463-0.823,0.309
	l-4.99-2.213c-0.309-0.154-0.463-0.514-0.309-0.823c0.154-0.308,0.515-0.463,0.823-0.308l4.939,2.212
	C289.408,389.473,289.563,389.678,289.563,389.936z"/>
<path id="path2736" style="fill:#FFFFFF;" d="M309.164,405.164c0,0.154-0.051,0.36-0.206,0.463
	c-0.257,0.257-0.669,0.206-0.926-0.051l-3.653-3.91c-0.257-0.258-0.257-0.669,0-0.875c0.258-0.257,0.669-0.206,0.926,0l3.705,3.961
	C309.113,404.855,309.164,405.01,309.164,405.164z"/>
<path id="path2738" style="fill:#FFFFFF;" d="M291.826,386.746c0,0.154-0.051,0.36-0.205,0.463
	c-0.258,0.257-0.669,0.206-0.926-0.051l-3.705-3.962c-0.257-0.206-0.205-0.617,0.052-0.823c0.257-0.257,0.617-0.257,0.874,0
	l3.705,3.961C291.775,386.437,291.826,386.592,291.826,386.746z"/>
<path id="path2740" style="fill:#FFFFFF;" d="M295.068,403.312c0,0.051,0,0.154-0.052,0.206l-1.955,5.041
	c-0.103,0.309-0.514,0.515-0.823,0.361c-0.309-0.103-0.515-0.515-0.36-0.824l1.955-5.041c0.103-0.309,0.514-0.515,0.823-0.36
	C294.913,402.797,295.068,403.055,295.068,403.312z"/>
<path id="path2742" style="fill:#FFFFFF;" d="M304.122,379.646c0,0.052,0,0.155-0.051,0.206l-1.955,5.042
	c-0.103,0.309-0.515,0.514-0.823,0.36c-0.309-0.103-0.515-0.514-0.361-0.823l1.955-5.042c0.103-0.309,0.515-0.514,0.824-0.36
	C303.968,379.132,304.122,379.389,304.122,379.646z"/>
<path id="path2744" style="fill:#FFFFFF;" d="M291.569,401.048c0,0.155-0.051,0.309-0.206,0.463l-3.858,3.807
	c-0.257,0.258-0.669,0.258-0.926,0c-0.257-0.257-0.257-0.668,0-0.926l3.807-3.807c0.257-0.257,0.669-0.257,0.926,0
	C291.518,400.688,291.569,400.894,291.569,401.048z"/>
<path id="path2746" style="fill:#FFFFFF;" d="M309.524,383.145c0,0.154-0.051,0.308-0.206,0.463l-3.858,3.807
	c-0.257,0.257-0.669,0.257-0.926,0c-0.257-0.257-0.257-0.669,0-0.926l3.858-3.807c0.258-0.258,0.669-0.258,0.926,0
	C309.473,382.836,309.524,382.99,309.524,383.145z"/>
<path id="path2748" style="fill:#FFFFFF;" d="M289.46,397.807c0,0.257-0.155,0.463-0.412,0.566l-4.99,2.058
	c-0.309,0.154-0.72,0-0.823-0.36c-0.155-0.309,0-0.721,0.36-0.823l4.99-2.058c0.309-0.155,0.72,0,0.823,0.36
	C289.408,397.653,289.46,397.704,289.46,397.807z"/>
<path id="path2750" style="fill:#FFFFFF;" d="M312.868,388.135c0,0.257-0.154,0.463-0.411,0.566l-4.991,2.058
	c-0.308,0.154-0.72,0-0.823-0.36c-0.154-0.309,0-0.721,0.36-0.823l4.991-2.058c0.308-0.155,0.72,0,0.823,0.36
	C312.817,387.981,312.868,388.084,312.868,388.135z"/>
<path id="path2752" style="fill:#FFFFFF;" d="M107.023,116.93h-1.35L96.628,96.5h6.48l6.48,15.03h0.81l6.48-15.03h6.48l-9.045,20.43
	h-1.35V128h-5.94V116.93z"/>
<path id="path2754" style="fill:#FFFFFF;" d="M115.393,153.13c0-1.26-0.495-2.355-1.485-3.285c-0.96-0.93-2.325-1.395-4.095-1.395
	c-1.5,0-2.685,0.315-3.555,0.945c-0.87,0.6-1.305,1.425-1.305,2.475c0,0.54,0.105,1.035,0.315,1.485c0.21,0.42,0.57,0.81,1.08,1.17
	c0.54,0.33,1.23,0.63,2.07,0.9c0.87,0.27,1.965,0.525,3.285,0.765c3.3,0.6,5.82,1.605,7.56,3.015s2.61,3.495,2.61,6.255V166
	c0,1.47-0.27,2.805-0.81,4.005c-0.51,1.17-1.26,2.175-2.25,3.015c-0.99,0.84-2.19,1.485-3.6,1.935c-1.41,0.45-3,0.675-4.77,0.675
	c-2.07,0-3.9-0.285-5.49-0.855c-1.56-0.6-2.865-1.41-3.915-2.43c-1.05-1.05-1.845-2.265-2.385-3.645c-0.54-1.41-0.81-2.94-0.81-4.59
	v-1.35h5.94v1.08c0,1.89,0.54,3.405,1.62,4.545c1.11,1.11,2.82,1.665,5.13,1.665c1.8,0,3.135-0.39,4.005-1.17
	c0.87-0.78,1.305-1.71,1.305-2.79c0-0.51-0.09-0.99-0.27-1.44c-0.18-0.48-0.495-0.9-0.945-1.26c-0.45-0.39-1.065-0.735-1.845-1.035
	c-0.78-0.3-1.77-0.555-2.97-0.765c-1.59-0.27-3.045-0.615-4.365-1.035c-1.32-0.45-2.475-1.035-3.465-1.755
	c-0.96-0.72-1.71-1.62-2.25-2.7c-0.54-1.08-0.81-2.4-0.81-3.96v-0.27c0-1.29,0.255-2.475,0.765-3.555
	c0.54-1.11,1.275-2.07,2.205-2.88c0.96-0.81,2.1-1.44,3.42-1.89c1.35-0.45,2.85-0.675,4.5-0.675c1.86,0,3.51,0.27,4.95,0.81
	c1.44,0.51,2.64,1.215,3.6,2.115c0.99,0.9,1.725,1.935,2.205,3.105c0.51,1.17,0.765,2.4,0.765,3.69v1.62h-5.94V153.13z"/>
<path id="path2756" style="fill:#FFFFFF;" d="M98.653,190.5h22.68v5.67h-8.37V222h-5.94v-25.83h-8.37V190.5z"/>
<path id="path2758" style="fill:#FFFFFF;" d="M99.913,237.5h19.89v5.67h-13.95v7.2h13.41v5.67h-13.41v7.29h14.49V269h-20.43V237.5z"
	/>
<path id="path2760" style="fill:#FFFFFF;" d="M97.213,284.5h10.44l1.8,23.67v4.59h1.08v-4.59l1.8-23.67h10.44V316h-5.4v-21.06
	l0.54-7.2h-1.08l-2.34,28.26h-8.91l-2.43-28.26h-1.08l0.54,7.2V316h-5.4V284.5z"/>
<path id="path2762" style="fill:#FFFFFF;" d="M115.393,341.13c0-1.26-0.495-2.355-1.485-3.285c-0.96-0.93-2.325-1.395-4.095-1.395
	c-1.5,0-2.685,0.315-3.555,0.945c-0.87,0.6-1.305,1.425-1.305,2.475c0,0.54,0.105,1.035,0.315,1.485c0.21,0.42,0.57,0.81,1.08,1.17
	c0.54,0.33,1.23,0.63,2.07,0.9c0.87,0.27,1.965,0.525,3.285,0.765c3.3,0.6,5.82,1.605,7.56,3.015c1.74,1.41,2.61,3.495,2.61,6.255
	V354c0,1.47-0.27,2.805-0.81,4.005c-0.51,1.17-1.26,2.175-2.25,3.015c-0.99,0.84-2.19,1.485-3.6,1.935
	c-1.41,0.45-3,0.675-4.77,0.675c-2.07,0-3.9-0.285-5.49-0.855c-1.56-0.6-2.865-1.41-3.915-2.43c-1.05-1.05-1.845-2.265-2.385-3.645
	c-0.54-1.41-0.81-2.94-0.81-4.59v-1.35h5.94v1.08c0,1.89,0.54,3.405,1.62,4.545c1.11,1.11,2.82,1.665,5.13,1.665
	c1.8,0,3.135-0.39,4.005-1.17c0.87-0.78,1.305-1.71,1.305-2.79c0-0.51-0.09-0.99-0.27-1.44c-0.18-0.48-0.495-0.9-0.945-1.26
	c-0.45-0.39-1.065-0.735-1.845-1.035c-0.78-0.3-1.77-0.555-2.97-0.765c-1.59-0.27-3.045-0.615-4.365-1.035
	c-1.32-0.45-2.475-1.035-3.465-1.755c-0.96-0.72-1.71-1.62-2.25-2.7c-0.54-1.08-0.81-2.4-0.81-3.96v-0.27
	c0-1.29,0.255-2.475,0.765-3.555c0.54-1.11,1.275-2.07,2.205-2.88c0.96-0.81,2.1-1.44,3.42-1.89c1.35-0.45,2.85-0.675,4.5-0.675
	c1.86,0,3.51,0.27,4.95,0.81c1.44,0.51,2.64,1.215,3.6,2.115c0.99,0.9,1.725,1.935,2.205,3.105c0.51,1.17,0.765,2.4,0.765,3.69v1.62
	h-5.94V341.13z"/>
<path id="path2764" style="fill:#FFFFFF;" d="M154.923,159.07h13.5V175h-5.4v-3.51h-0.81c-0.36,1.17-1.05,2.16-2.07,2.97
	c-1.02,0.78-2.55,1.17-4.59,1.17c-1.44,0-2.79-0.27-4.05-0.81c-1.26-0.54-2.355-1.335-3.285-2.385c-0.93-1.08-1.665-2.4-2.205-3.96
	c-0.54-1.59-0.81-3.435-0.81-5.535v-7.38c0-2.04,0.285-3.84,0.855-5.4c0.6-1.59,1.41-2.925,2.43-4.005
	c1.05-1.08,2.295-1.89,3.735-2.43c1.44-0.57,3.03-0.855,4.77-0.855c1.8,0,3.405,0.3,4.815,0.9c1.41,0.57,2.61,1.38,3.6,2.43
	c0.99,1.02,1.74,2.235,2.25,3.645c0.51,1.38,0.765,2.865,0.765,4.455v0.54h-5.94v-0.54c0-1.89-0.495-3.315-1.485-4.275
	c-0.96-0.99-2.325-1.485-4.095-1.485c-1.68,0-3.06,0.57-4.14,1.71c-1.08,1.11-1.62,3.03-1.62,5.76v6.66c0,4.86,1.98,7.29,5.94,7.29
	c1.77,0,3.105-0.465,4.005-1.395c0.93-0.96,1.395-2.235,1.395-3.825h-7.56V159.07z"/>
<path id="path2766" style="fill:#FFFFFF;" d="M153.213,206.25c0-1.02,0.375-1.905,1.125-2.655s1.635-1.125,2.655-1.125
	c1.02,0,1.905,0.375,2.655,1.125s1.125,1.635,1.125,2.655s-0.375,1.905-1.125,2.655s-1.635,1.125-2.655,1.125
	c-1.02,0-1.905-0.375-2.655-1.125S153.213,207.27,153.213,206.25z M145.383,202.74c0-4.08,1.02-7.245,3.06-9.495
	c2.07-2.25,4.92-3.375,8.55-3.375c3.63,0,6.465,1.125,8.505,3.375c2.07,2.25,3.105,5.415,3.105,9.495v7.02
	c0,4.2-1.035,7.395-3.105,9.585c-2.04,2.19-4.875,3.285-8.505,3.285c-3.63,0-6.48-1.095-8.55-3.285
	c-2.04-2.19-3.06-5.385-3.06-9.585V202.74z M156.993,217.23c1.08,0,1.98-0.165,2.7-0.495c0.72-0.36,1.305-0.855,1.755-1.485
	s0.765-1.38,0.945-2.25c0.18-0.87,0.27-1.83,0.27-2.88v-7.74c0-0.99-0.105-1.92-0.315-2.79c-0.21-0.87-0.54-1.62-0.99-2.25
	c-0.45-0.63-1.035-1.125-1.755-1.485c-0.72-0.39-1.59-0.585-2.61-0.585c-1.02,0-1.89,0.195-2.61,0.585
	c-0.72,0.36-1.305,0.855-1.755,1.485c-0.45,0.63-0.78,1.38-0.99,2.25c-0.21,0.87-0.315,1.8-0.315,2.79v7.74
	c0,1.05,0.09,2.01,0.27,2.88c0.18,0.87,0.495,1.62,0.945,2.25c0.45,0.63,1.035,1.125,1.755,1.485
	C155.013,217.065,155.913,217.23,156.993,217.23z"/>
<path id="path2768" style="fill:#FFFFFF;" d="M159.963,236.5v21.96h-5.94V236.5H159.963z M161.268,264.355
	c0,0.6-0.12,1.17-0.36,1.71c-0.21,0.51-0.51,0.96-0.9,1.35c-0.39,0.36-0.855,0.645-1.395,0.855c-0.51,0.24-1.05,0.36-1.62,0.36
	c-0.6,0-1.155-0.12-1.665-0.36c-0.51-0.21-0.96-0.495-1.35-0.855c-0.39-0.39-0.705-0.84-0.945-1.35
	c-0.21-0.54-0.315-1.11-0.315-1.71c0-0.6,0.105-1.155,0.315-1.665c0.24-0.54,0.555-0.99,0.945-1.35c0.39-0.39,0.84-0.69,1.35-0.9
	c0.51-0.24,1.065-0.36,1.665-0.36c0.57,0,1.11,0.12,1.62,0.36c0.54,0.21,1.005,0.51,1.395,0.9c0.39,0.36,0.69,0.81,0.9,1.35
	C161.148,263.2,161.268,263.755,161.268,264.355z"/>
<circle id="circle2770" style="fill:#75FA4C;" cx="63" cy="206" r="16"/>
<circle id="circle2772" style="fill:#0020F5;" cx="204" cy="18" r="16"/>
<circle id="circle2774" style="fill:#E63623;" cx="157" cy="18" r="16"/>
<circle id="circle2776" cx="157" cy="18" r="5"/>
<g>
	<defs>
		<rect id="SVGID_1_" x="235" y="2" width="77" height="32"/>
	</defs>
	<clipPath id="SVGID_2_">
		<use xlink:href="#SVGID_1_"  style="overflow:visible;"/>
	</clipPath>
	<g id="g2780" style="clip-path:url(#SVGID_2_);">
		<path id="path2778" style="fill:#75FA4C;" d="M237.825,22.741c1.525,0,2.824-1.304,2.824-2.963l0.17,0.711l27.003-7.111
			c0.226,1.422,1.356,2.489,2.769,2.489c0.508,0,1.016-0.178,1.468-0.415l9.152,14.519c-0.113,0.355-0.226,0.711-0.226,1.126
			c0,1.6,1.243,2.963,2.825,2.963c1.525,0,2.825-1.304,2.825-2.963c0-0.948-0.452-1.778-1.13-2.311l8.191-20.148l3.785,13.096
			c-0.791,0.533-1.356,1.422-1.356,2.489c0,1.659,1.243,2.963,2.825,2.963c1.525,0,2.825-1.304,2.825-2.963
			c0-0.593-0.17-1.126-0.452-1.541l6.497-7.17c0.395,0.237,0.847,0.415,1.355,0.415c1.526,0,2.825-1.304,2.825-2.963
			c0-1.6-1.243-2.963-2.825-2.963c-1.525,0-2.824,1.304-2.824,2.963c0,0.593,0.169,1.126,0.452,1.541l-6.497,7.17
			c-0.396-0.237-0.847-0.356-1.356-0.356c-0.056,0-0.056,0-0.113,0l-4.011-13.807c0.791-0.533,1.356-1.422,1.356-2.489
			c0-1.6-1.243-2.963-2.825-2.963s-2.824,1.304-2.824,2.963c0,1.304,0.847,2.43,1.977,2.785l-8.361,20.326
			c-0.113,0-0.283-0.059-0.396-0.059c-0.621,0-1.242,0.237-1.694,0.593l-9.039-14.4c0.226-0.415,0.339-0.889,0.339-1.422
			c0-1.6-1.243-2.963-2.825-2.963c-1.186,0-2.203,0.77-2.599,1.896l-27.399,7.289c-0.339-1.304-1.412-2.252-2.711-2.252
			c-1.582,0-2.825,1.304-2.825,2.963C235,21.437,236.243,22.741,237.825,22.741z"/>
	</g>
</g>
<path id="path2782" style="fill:#0020F5;" d="M298,331c8.837,0,16,7.163,16,16s-7.163,16-16,16h-47c-8.837,0-16-7.163-16-16
	s7.163-16,16-16H298z"/>
<circle id="circle2784" style="fill:#FFFFFF;" cx="251" cy="347" r="16"/>
<circle id="circle2786" cx="251" cy="347" r="5"/>
<g>
	<defs>
		<rect id="SVGID_3_" y="284" width="32" height="32"/>
	</defs>
	<clipPath id="SVGID_4_">
		<use xlink:href="#SVGID_3_"  style="overflow:visible;"/>
	</clipPath>
	<g id="g2820" style="clip-path:url(#SVGID_4_);">
		<path id="path2788" style="fill:#EE2524;" d="M32,300c0,0.36-0.309,0.617-0.617,0.617h-5.402c-0.36,0-0.617-0.308-0.617-0.617
			c0-0.36,0.309-0.617,0.617-0.617h5.402C31.743,299.383,32,299.64,32,300z"/>
		<path id="path2790" style="fill:#EE2524;" d="M6.688,300c0,0.36-0.309,0.617-0.617,0.617H0.617C0.257,300.617,0,300.309,0,300
			c0-0.36,0.309-0.617,0.617-0.617h5.402C6.379,299.383,6.688,299.64,6.688,300z"/>
		<path id="path2792" style="fill:#EE2524;" d="M16.617,309.981v5.402c0,0.36-0.309,0.617-0.617,0.617
			c-0.36,0-0.617-0.309-0.617-0.617v-5.402c0-0.36,0.309-0.618,0.617-0.618C16.36,309.312,16.617,309.621,16.617,309.981z"/>
		<path id="path2794" style="fill:#EE2524;" d="M16.617,284.617v5.402c0,0.36-0.309,0.618-0.617,0.618
			c-0.36,0-0.617-0.309-0.617-0.618v-5.402c0-0.36,0.309-0.617,0.617-0.617C16.36,284,16.617,284.309,16.617,284.617z"/>
		<path id="path2796" style="fill:#EE2524;" d="M22.277,314.302c0,0.257-0.154,0.515-0.412,0.618
			c-0.309,0.154-0.72-0.052-0.823-0.361l-2.006-5.041c-0.154-0.309,0.051-0.721,0.36-0.823c0.309-0.155,0.72,0.051,0.823,0.36
			l2.007,5.041C22.277,314.148,22.277,314.199,22.277,314.302z"/>
		<path id="path2798" style="fill:#EE2524;" d="M12.965,290.74c0,0.257-0.154,0.514-0.412,0.617c-0.309,0.154-0.72-0.052-0.823-0.36
			l-1.955-5.042c-0.154-0.309,0.051-0.72,0.36-0.823c0.309-0.103,0.72,0.051,0.823,0.36l2.006,5.042
			C12.965,290.585,12.965,290.688,12.965,290.74z"/>
		<path id="path2800" style="fill:#EE2524;" d="M30.662,306.277c0,0.102,0,0.154-0.051,0.257c-0.154,0.308-0.514,0.463-0.823,0.308
			l-4.939-2.212c-0.309-0.154-0.463-0.514-0.309-0.823c0.154-0.309,0.515-0.463,0.823-0.309l4.939,2.213
			C30.508,305.814,30.662,306.071,30.662,306.277z"/>
		<path id="path2802" style="fill:#EE2524;" d="M7.563,295.936c0,0.103,0,0.154-0.051,0.257c-0.154,0.309-0.514,0.463-0.823,0.309
			l-4.99-2.213c-0.309-0.154-0.463-0.514-0.309-0.823c0.154-0.308,0.514-0.463,0.823-0.308l4.939,2.212
			C7.408,295.473,7.563,295.678,7.563,295.936z"/>
		<path id="path2804" style="fill:#EE2524;" d="M27.164,311.164c0,0.154-0.052,0.36-0.206,0.463
			c-0.257,0.257-0.669,0.206-0.926-0.051l-3.653-3.91c-0.257-0.258-0.257-0.669,0-0.875c0.257-0.257,0.669-0.206,0.926,0
			l3.704,3.961C27.112,310.855,27.164,311.01,27.164,311.164z"/>
		<path id="path2806" style="fill:#EE2524;" d="M9.826,292.746c0,0.154-0.051,0.36-0.206,0.463
			c-0.257,0.257-0.669,0.206-0.926-0.051l-3.704-3.962c-0.257-0.206-0.206-0.617,0.051-0.823c0.257-0.257,0.617-0.257,0.875,0
			l3.704,3.961C9.775,292.437,9.826,292.592,9.826,292.746z"/>
		<path id="path2808" style="fill:#EE2524;" d="M13.068,309.312c0,0.051,0,0.154-0.051,0.206l-1.955,5.041
			c-0.103,0.309-0.514,0.515-0.823,0.361c-0.309-0.103-0.514-0.515-0.36-0.824l1.955-5.041c0.103-0.309,0.514-0.515,0.823-0.36
			C12.913,308.797,13.068,309.055,13.068,309.312z"/>
		<path id="path2810" style="fill:#EE2524;" d="M22.122,285.646c0,0.052,0,0.155-0.052,0.206l-1.955,5.042
			c-0.103,0.309-0.515,0.514-0.823,0.36c-0.309-0.103-0.515-0.514-0.36-0.823l1.955-5.042c0.103-0.309,0.514-0.514,0.823-0.36
			C21.968,285.132,22.122,285.389,22.122,285.646z"/>
		<path id="path2812" style="fill:#EE2524;" d="M9.569,307.048c0,0.155-0.051,0.309-0.206,0.463l-3.859,3.807
			c-0.257,0.258-0.669,0.258-0.926,0c-0.257-0.257-0.257-0.668,0-0.926l3.807-3.807c0.257-0.257,0.669-0.257,0.926,0
			C9.518,306.688,9.569,306.894,9.569,307.048z"/>
		<path id="path2814" style="fill:#EE2524;" d="M27.524,289.145c0,0.154-0.051,0.308-0.206,0.463l-3.858,3.807
			c-0.257,0.257-0.669,0.257-0.926,0c-0.257-0.257-0.257-0.669,0-0.926l3.859-3.807c0.257-0.258,0.669-0.258,0.926,0
			C27.473,288.836,27.524,288.99,27.524,289.145z"/>
		<path id="path2816" style="fill:#EE2524;" d="M7.46,303.807c0,0.257-0.154,0.463-0.412,0.566l-4.99,2.058
			c-0.309,0.154-0.72,0-0.823-0.36c-0.154-0.309,0-0.721,0.36-0.823l4.99-2.058c0.309-0.155,0.72,0,0.823,0.36
			C7.408,303.653,7.46,303.704,7.46,303.807z"/>
		<path id="path2818" style="fill:#EE2524;" d="M30.868,294.135c0,0.257-0.154,0.463-0.412,0.566l-4.99,2.058
			c-0.309,0.154-0.72,0-0.823-0.36c-0.154-0.309,0-0.721,0.36-0.823l4.99-2.058c0.309-0.155,0.72,0,0.823,0.36
			C30.817,293.981,30.868,294.084,30.868,294.135z"/>
	</g>
</g>
<g>
	<defs>
		<rect id="SVGID_5_" x="94" y="2" width="32" height="32"/>
	</defs>
	<clipPath id="SVGID_6_">
		<use xlink:href="#SVGID_5_"  style="overflow:visible;"/>
	</clipPath>
	<g id="g2854" style="clip-path:url(#SVGID_6_);">
		<path id="path2822" style="fill:#75FA4C;" d="M126,18c0,0.36-0.309,0.617-0.617,0.617h-5.402c-0.36,0-0.618-0.309-0.618-0.617
			c0-0.36,0.309-0.617,0.618-0.617h5.402C125.743,17.383,126,17.64,126,18z"/>
		<path id="path2824" style="fill:#75FA4C;" d="M100.688,18c0,0.36-0.309,0.617-0.617,0.617h-5.454C94.257,18.617,94,18.309,94,18
			c0-0.36,0.309-0.617,0.617-0.617h5.402C100.379,17.383,100.688,17.64,100.688,18z"/>
		<path id="path2826" style="fill:#75FA4C;" d="M110.617,27.981v5.402c0,0.36-0.308,0.617-0.617,0.617
			c-0.36,0-0.617-0.309-0.617-0.617v-5.402c0-0.36,0.308-0.617,0.617-0.617C110.36,27.312,110.617,27.621,110.617,27.981z"/>
		<path id="path2828" style="fill:#75FA4C;" d="M110.617,2.617v5.402c0,0.36-0.308,0.617-0.617,0.617
			c-0.36,0-0.617-0.309-0.617-0.617V2.617C109.383,2.257,109.691,2,110,2C110.36,2,110.617,2.309,110.617,2.617z"/>
		<path id="path2830" style="fill:#75FA4C;" d="M116.277,32.302c0,0.257-0.155,0.514-0.412,0.617
			c-0.309,0.154-0.72-0.051-0.823-0.36l-2.007-5.042c-0.154-0.309,0.052-0.72,0.36-0.823c0.309-0.154,0.721,0.052,0.824,0.36
			l2.006,5.042C116.277,32.148,116.277,32.199,116.277,32.302z"/>
		<path id="path2832" style="fill:#75FA4C;" d="M106.965,8.74c0,0.257-0.155,0.514-0.412,0.617c-0.309,0.154-0.72-0.051-0.823-0.36
			l-1.955-5.042c-0.154-0.309,0.051-0.72,0.36-0.823c0.309-0.103,0.72,0.051,0.823,0.36l2.007,5.042
			C106.965,8.585,106.965,8.688,106.965,8.74z"/>
		<path id="path2834" style="fill:#75FA4C;" d="M124.662,24.277c0,0.103,0,0.154-0.051,0.257c-0.154,0.309-0.515,0.463-0.823,0.309
			l-4.939-2.212c-0.309-0.154-0.463-0.514-0.309-0.823c0.155-0.309,0.515-0.463,0.823-0.309l4.939,2.212
			C124.508,23.813,124.662,24.071,124.662,24.277z"/>
		<path id="path2836" style="fill:#75FA4C;" d="M101.563,13.936c0,0.103,0,0.154-0.052,0.257c-0.154,0.309-0.514,0.463-0.823,0.309
			l-4.99-2.212c-0.309-0.154-0.463-0.514-0.309-0.823c0.154-0.309,0.514-0.463,0.823-0.309l4.939,2.212
			C101.408,13.473,101.563,13.678,101.563,13.936z"/>
		<path id="path2838" style="fill:#75FA4C;" d="M121.164,29.164c0,0.154-0.051,0.36-0.206,0.463
			c-0.257,0.257-0.669,0.206-0.926-0.051l-3.653-3.91c-0.257-0.257-0.257-0.669,0-0.875c0.258-0.257,0.669-0.206,0.926,0
			l3.705,3.961C121.113,28.855,121.164,29.01,121.164,29.164z"/>
		<path id="path2840" style="fill:#75FA4C;" d="M103.826,10.746c0,0.154-0.051,0.36-0.205,0.463
			c-0.258,0.257-0.669,0.206-0.926-0.051L98.99,7.196c-0.257-0.206-0.206-0.617,0.051-0.823c0.257-0.257,0.617-0.257,0.875,0
			l3.705,3.961C103.775,10.437,103.826,10.592,103.826,10.746z"/>
		<path id="path2842" style="fill:#75FA4C;" d="M107.068,27.312c0,0.051,0,0.154-0.052,0.206l-1.955,5.042
			c-0.103,0.309-0.514,0.514-0.823,0.36c-0.309-0.103-0.515-0.514-0.36-0.823l1.955-5.042c0.103-0.309,0.514-0.515,0.823-0.36
			C106.913,26.797,107.068,27.055,107.068,27.312z"/>
		<path id="path2844" style="fill:#75FA4C;" d="M116.122,3.646c0,0.051,0,0.154-0.051,0.206l-1.955,5.042
			c-0.103,0.309-0.515,0.514-0.823,0.36c-0.309-0.103-0.515-0.514-0.361-0.823l1.955-5.042c0.103-0.309,0.515-0.514,0.824-0.36
			C115.968,3.132,116.122,3.389,116.122,3.646z"/>
		<path id="path2846" style="fill:#75FA4C;" d="M103.569,25.048c0,0.154-0.051,0.309-0.206,0.463l-3.858,3.807
			c-0.257,0.257-0.669,0.257-0.926,0c-0.257-0.257-0.257-0.669,0-0.926l3.807-3.807c0.257-0.257,0.669-0.257,0.926,0
			C103.518,24.688,103.569,24.894,103.569,25.048z"/>
		<path id="path2848" style="fill:#75FA4C;" d="M121.524,7.145c0,0.154-0.051,0.309-0.206,0.463l-3.858,3.807
			c-0.257,0.257-0.669,0.257-0.926,0c-0.257-0.257-0.257-0.669,0-0.926l3.858-3.807c0.258-0.257,0.669-0.257,0.926,0
			C121.473,6.836,121.524,6.99,121.524,7.145z"/>
		<path id="path2850" style="fill:#75FA4C;" d="M101.46,21.807c0,0.257-0.155,0.463-0.412,0.566l-4.99,2.058
			c-0.309,0.154-0.72,0-0.823-0.36c-0.154-0.309,0-0.72,0.36-0.823l4.99-2.058c0.309-0.154,0.72,0,0.823,0.36
			C101.408,21.653,101.46,21.704,101.46,21.807z"/>
		<path id="path2852" style="fill:#75FA4C;" d="M124.868,12.135c0,0.257-0.154,0.463-0.411,0.566l-4.991,2.058
			c-0.308,0.154-0.72,0-0.823-0.36c-0.154-0.309,0-0.72,0.36-0.823l4.991-2.058c0.308-0.154,0.72,0,0.823,0.36
			C124.817,11.981,124.868,12.084,124.868,12.135z"/>
	</g>
</g>
<circle id="circle2856" style="fill:#E63623;" cx="63" cy="300" r="16"/>
<circle id="circle2858" cx="63" cy="300" r="5"/>
<circle id="circle2860" style="fill:#E63623;" cx="146.333" cy="102.333" r="5.333"/>
<circle id="circle2862" style="fill:#E63623;" cx="167.667" cy="102.333" r="5.333"/>
<circle id="circle2864" style="fill:#E63623;" cx="146.333" cy="121.727" r="5.333"/>
<circle id="circle2866" style="fill:#E63623;" cx="167.667" cy="121.727" r="5.333"/>
<path id="path2868" style="fill:#E63623;" d="M251,128c-8.837,0-16-7.163-16-16s7.163-16,16-16h47c8.837,0,16,7.163,16,16
	s-7.163,16-16,16H251z"/>
<circle id="circle2870" style="fill:#0020F5;" cx="251" cy="112" r="16"/>
<circle id="circle2872" style="fill:#75FA4C;" cx="298" cy="112" r="16"/>
<circle id="circle2874" cx="298" cy="112" r="5"/>
<rect id="rect2876" x="190.424" y="97" style="fill:#FFFFFF;" width="3.879" height="31.03"/>
<rect id="rect2878" x="201.576" y="97" style="fill:#FFFFFF;" width="3.879" height="31.03"/>
<rect id="rect2880" x="213.697" y="97" style="fill:#FFFFFF;" width="3.879" height="31.03"/>
<rect id="rect2882" x="188" y="107.667" style="fill:#E63623;" width="8.727" height="2.909"/>
<rect id="rect2884" x="199.152" y="117.848" style="fill:#0020F5;" width="8.727" height="2.909"/>
<rect id="rect2886" x="211.273" y="100.879" style="fill:#75FA4C;" width="8.727" height="2.909"/>
<path id="path2888" style="fill:#E63623;" d="M235,206c0-8.837,7.163-16,16-16s16,7.163,16,16v47c0,8.837-7.163,16-16,16
	s-16-7.163-16-16V206z"/>
<circle id="circle2890" style="fill:#0020F5;" cx="251" cy="206" r="16"/>
<circle id="circle2892" style="fill:#FFFFFF;" cx="251" cy="253" r="16"/>
<circle id="circle2894" cx="251" cy="253" r="5"/>
<g>
	<defs>
		<rect id="SVGID_7_" x="188" y="194" width="31" height="75"/>
	</defs>
	<clipPath id="SVGID_8_">
		<use xlink:href="#SVGID_7_"  style="overflow:visible;"/>
	</clipPath>
	<g id="g2898" style="clip-path:url(#SVGID_8_);">
		<path id="path2896" style="fill:#75FA4C;" d="M208.093,266.249c0-1.486-1.263-2.752-2.871-2.752l0.689-0.165l-6.889-26.302
			c1.378-0.22,2.411-1.321,2.411-2.696c0-0.495-0.172-0.991-0.402-1.431l14.065-8.914c0.345,0.11,0.689,0.22,1.091,0.22
			c1.55,0,2.87-1.21,2.87-2.751c0-1.486-1.263-2.751-2.87-2.751c-0.919,0-1.722,0.44-2.239,1.1l-19.518-7.979l12.687-3.686
			c0.516,0.77,1.377,1.32,2.411,1.32c1.607,0,2.87-1.21,2.87-2.751c0-1.486-1.263-2.751-2.87-2.751c-0.574,0-1.091,0.165-1.493,0.44
			l-6.946-6.328c0.229-0.385,0.402-0.825,0.402-1.321c0-1.485-1.263-2.751-2.871-2.751c-1.55,0-2.87,1.211-2.87,2.751
			c0,1.486,1.263,2.752,2.87,2.752c0.574,0,1.091-0.166,1.493-0.441l6.946,6.328c-0.229,0.385-0.344,0.826-0.344,1.321
			c0,0.055,0,0.055,0,0.11l-13.376,3.907c-0.517-0.771-1.378-1.321-2.411-1.321c-1.55,0-2.871,1.211-2.871,2.751
			c0,1.541,1.263,2.752,2.871,2.752c1.263,0,2.353-0.826,2.698-1.926l19.691,8.144c0,0.11-0.058,0.275-0.058,0.385
			c0,0.605,0.23,1.21,0.574,1.651l-13.95,8.804c-0.402-0.22-0.861-0.33-1.377-0.33c-1.55,0-2.871,1.21-2.871,2.751
			c0,1.155,0.746,2.146,1.837,2.531l7.061,26.687c-1.263,0.331-2.181,1.376-2.181,2.642c0,1.54,1.263,2.751,2.87,2.751
			C206.83,269,208.093,267.789,208.093,266.249z"/>
	</g>
</g>
<rect id="rect2900" x="282" y="190" style="fill:#0020F5;" width="6.4" height="6.4"/>
<rect id="rect2902" x="294.8" y="190" style="fill:#0020F5;" width="6.4" height="6.4"/>
<rect id="rect2904" x="307.6" y="190" style="fill:#0020F5;" width="6.4" height="6.4"/>
<rect id="rect2906" x="282" y="202.8" style="fill:#0020F5;" width="6.4" height="6.4"/>
<rect id="rect2908" x="294.8" y="202.8" style="fill:#0020F5;" width="6.4" height="6.4"/>
<rect id="rect2910" x="307.6" y="202.8" style="fill:#0020F5;" width="6.4" height="6.4"/>
<rect id="rect2912" x="282" y="215.6" style="fill:#0020F5;" width="6.4" height="6.4"/>
<rect id="rect2914" x="294.8" y="215.6" style="fill:#0020F5;" width="6.4" height="6.4"/>
<rect id="rect2916" x="307.6" y="215.6" style="fill:#0020F5;" width="6.4" height="6.4"/>
<circle id="circle2918" style="fill:#E63623;" cx="298" cy="253" r="16"/>
<circle id="circle2920" style="fill:#75FA4C;" cx="16" cy="347" r="16"/>
<circle id="circle2922" cx="16" cy="347" r="5"/>
<circle id="circle2924" style="fill:#E63623;" cx="204" cy="347" r="16"/>
<rect id="rect2926" x="49.424" y="332" style="fill:#FFFFFF;" width="3.879" height="31.03"/>
<rect id="rect2928" x="60.576" y="332" style="fill:#FFFFFF;" width="3.879" height="31.03"/>
<rect id="rect2930" x="72.697" y="332" style="fill:#FFFFFF;" width="3.879" height="31.03"/>
<rect id="rect2932" x="47" y="342.667" style="fill:#E63623;" width="8.727" height="2.909"/>
<rect id="rect2934" x="58.152" y="352.848" style="fill:#0020F5;" width="8.727" height="2.909"/>
<rect id="rect2936" x="70.273" y="335.879" style="fill:#75FA4C;" width="8.727" height="2.909"/>
<circle id="circle2938" style="fill:#FFFFFF;" cx="298" cy="300" r="16"/>
<path id="path2940" style="fill:#FFFFFF;" d="M204,316c-8.837,0-16-7.163-16-16s7.163-16,16-16h47c8.837,0,16,7.163,16,16
	s-7.163,16-16,16H204z"/>
<circle id="circle2942" style="fill:#0020F5;" cx="204" cy="300" r="16"/>
<circle id="circle2944" style="fill:#E63623;" cx="251" cy="300" r="16"/>
<circle id="circle2946" cx="251" cy="300" r="5"/>
<circle id="circle2948" style="fill:#75FA4C;" cx="157" cy="300" r="16"/>
<circle id="circle2950" cx="157" cy="300" r="5"/>
<path id="path2952" style="fill:#FFFFFF;" d="M251,143c8.837,0,16,7.163,16,16s-7.163,16-16,16h-47c-8.837,0-16-7.163-16-16
	s7.163-16,16-16H251z"/>
<circle id="circle2954" style="fill:#75FA4C;" cx="251" cy="159" r="16"/>
<circle id="circle2956" style="fill:#E63623;" cx="204" cy="159" r="16"/>
<g>
	<defs>
		<rect id="SVGID_9_" x="282" y="143" width="32" height="32"/>
	</defs>
	<clipPath id="SVGID_10_">
		<use xlink:href="#SVGID_9_"  style="overflow:visible;"/>
	</clipPath>
	<g id="g2990" style="clip-path:url(#SVGID_10_);">
		<path id="path2958" style="fill:#75FA4C;" d="M314,159c0,0.36-0.309,0.617-0.617,0.617h-5.402c-0.36,0-0.618-0.308-0.618-0.617
			c0-0.36,0.309-0.617,0.618-0.617h5.402C313.743,158.383,314,158.64,314,159z"/>
		<path id="path2960" style="fill:#75FA4C;" d="M288.688,159c0,0.36-0.309,0.617-0.617,0.617h-5.454
			c-0.36,0-0.617-0.308-0.617-0.617c0-0.36,0.309-0.617,0.617-0.617h5.402C288.379,158.383,288.688,158.64,288.688,159z"/>
		<path id="path2962" style="fill:#75FA4C;" d="M298.617,168.981v5.402c0,0.36-0.308,0.617-0.617,0.617
			c-0.36,0-0.617-0.309-0.617-0.617v-5.402c0-0.36,0.308-0.618,0.617-0.618C298.36,168.312,298.617,168.621,298.617,168.981z"/>
		<path id="path2964" style="fill:#75FA4C;" d="M298.617,143.617v5.402c0,0.36-0.308,0.618-0.617,0.618
			c-0.36,0-0.617-0.309-0.617-0.618v-5.402c0-0.36,0.308-0.617,0.617-0.617C298.36,143,298.617,143.309,298.617,143.617z"/>
		<path id="path2966" style="fill:#75FA4C;" d="M304.277,173.302c0,0.257-0.155,0.515-0.412,0.618
			c-0.309,0.154-0.72-0.052-0.823-0.361l-2.007-5.041c-0.154-0.309,0.052-0.721,0.361-0.823c0.308-0.155,0.72,0.051,0.823,0.36
			l2.006,5.041C304.277,173.148,304.277,173.199,304.277,173.302z"/>
		<path id="path2968" style="fill:#75FA4C;" d="M294.965,149.74c0,0.257-0.155,0.514-0.412,0.617
			c-0.309,0.154-0.72-0.052-0.823-0.36l-1.955-5.042c-0.154-0.309,0.051-0.72,0.36-0.823c0.309-0.103,0.72,0.051,0.823,0.36
			l2.007,5.042C294.965,149.585,294.965,149.688,294.965,149.74z"/>
		<path id="path2970" style="fill:#75FA4C;" d="M312.662,165.277c0,0.102,0,0.154-0.051,0.257c-0.154,0.308-0.515,0.463-0.823,0.308
			l-4.939-2.212c-0.309-0.154-0.463-0.514-0.309-0.823c0.155-0.309,0.515-0.463,0.823-0.309l4.939,2.213
			C312.508,164.814,312.662,165.071,312.662,165.277z"/>
		<path id="path2972" style="fill:#75FA4C;" d="M289.563,154.936c0,0.103,0,0.154-0.052,0.257c-0.154,0.309-0.514,0.463-0.823,0.309
			l-4.99-2.213c-0.309-0.154-0.463-0.514-0.309-0.823c0.154-0.308,0.515-0.463,0.823-0.308l4.939,2.212
			C289.408,154.473,289.563,154.678,289.563,154.936z"/>
		<path id="path2974" style="fill:#75FA4C;" d="M309.164,170.164c0,0.154-0.051,0.36-0.206,0.463
			c-0.257,0.257-0.669,0.206-0.926-0.051l-3.653-3.91c-0.257-0.258-0.257-0.669,0-0.875c0.258-0.257,0.669-0.206,0.926,0
			l3.705,3.961C309.113,169.855,309.164,170.01,309.164,170.164z"/>
		<path id="path2976" style="fill:#75FA4C;" d="M291.826,151.746c0,0.154-0.051,0.36-0.205,0.463
			c-0.258,0.257-0.669,0.206-0.926-0.051l-3.705-3.962c-0.257-0.206-0.205-0.617,0.052-0.823c0.257-0.257,0.617-0.257,0.874,0
			l3.705,3.961C291.775,151.437,291.826,151.592,291.826,151.746z"/>
		<path id="path2978" style="fill:#75FA4C;" d="M295.068,168.312c0,0.051,0,0.154-0.052,0.206l-1.955,5.041
			c-0.103,0.309-0.514,0.515-0.823,0.361c-0.309-0.103-0.515-0.515-0.36-0.824l1.955-5.041c0.103-0.309,0.514-0.515,0.823-0.36
			C294.913,167.797,295.068,168.055,295.068,168.312z"/>
		<path id="path2980" style="fill:#75FA4C;" d="M304.122,144.646c0,0.052,0,0.155-0.051,0.206l-1.955,5.042
			c-0.103,0.309-0.515,0.514-0.823,0.36c-0.309-0.103-0.515-0.514-0.361-0.823l1.955-5.042c0.103-0.309,0.515-0.514,0.824-0.36
			C303.968,144.132,304.122,144.389,304.122,144.646z"/>
		<path id="path2982" style="fill:#75FA4C;" d="M291.569,166.048c0,0.155-0.051,0.309-0.206,0.463l-3.858,3.807
			c-0.257,0.258-0.669,0.258-0.926,0c-0.257-0.257-0.257-0.668,0-0.926l3.807-3.807c0.257-0.257,0.669-0.257,0.926,0
			C291.518,165.688,291.569,165.894,291.569,166.048z"/>
		<path id="path2984" style="fill:#75FA4C;" d="M309.524,148.145c0,0.154-0.051,0.308-0.206,0.463l-3.858,3.807
			c-0.257,0.257-0.669,0.257-0.926,0c-0.257-0.257-0.257-0.669,0-0.926l3.858-3.807c0.258-0.258,0.669-0.258,0.926,0
			C309.473,147.836,309.524,147.99,309.524,148.145z"/>
		<path id="path2986" style="fill:#75FA4C;" d="M289.46,162.807c0,0.257-0.155,0.463-0.412,0.566l-4.99,2.058
			c-0.309,0.154-0.72,0-0.823-0.36c-0.155-0.309,0-0.721,0.36-0.823l4.99-2.058c0.309-0.155,0.72,0,0.823,0.36
			C289.408,162.653,289.46,162.704,289.46,162.807z"/>
		<path id="path2988" style="fill:#75FA4C;" d="M312.868,153.135c0,0.257-0.154,0.463-0.411,0.566l-4.991,2.058
			c-0.308,0.154-0.72,0-0.823-0.36c-0.154-0.309,0-0.721,0.36-0.823l4.991-2.058c0.308-0.155,0.72,0,0.823,0.36
			C312.817,152.981,312.868,153.084,312.868,153.135z"/>
	</g>
</g>
<path id="path2992" style="fill:#E63623;" d="M16,410c-8.837,0-16-7.163-16-16s7.163-16,16-16h47c8.837,0,16,7.163,16,16
	s-7.163,16-16,16H16z"/>
<circle id="circle2994" style="fill:#0020F5;" cx="16" cy="394" r="16"/>
<circle id="circle2996" style="fill:#75FA4C;" cx="63" cy="394" r="16"/>
<rect id="rect2998" x="94" y="378" style="fill:#FFFFFF;" width="6.4" height="6.4"/>
<rect id="rect3000" x="106.8" y="378" style="fill:#FFFFFF;" width="6.4" height="6.4"/>
<rect id="rect3002" x="119.6" y="378" style="fill:#FFFFFF;" width="6.4" height="6.4"/>
<rect id="rect3004" x="94" y="390.8" style="fill:#FFFFFF;" width="6.4" height="6.4"/>
<rect id="rect3006" x="106.8" y="390.8" style="fill:#FFFFFF;" width="6.4" height="6.4"/>
<rect id="rect3008" x="119.6" y="390.8" style="fill:#FFFFFF;" width="6.4" height="6.4"/>
<rect id="rect3010" x="94" y="403.6" style="fill:#FFFFFF;" width="6.4" height="6.4"/>
<rect id="rect3012" x="106.8" y="403.6" style="fill:#FFFFFF;" width="6.4" height="6.4"/>
<rect id="rect3014" x="119.6" y="403.6" style="fill:#FFFFFF;" width="6.4" height="6.4"/>
<path id="path3016" style="fill:#FFFFFF;" d="M204,378c8.837,0,16,7.163,16,16s-7.163,16-16,16h-47c-8.837,0-16-7.163-16-16
	s7.163-16,16-16H204z"/>
<circle id="circle3018" style="fill:#E63623;" cx="157" cy="394" r="16"/>
<circle id="circle3020" cx="157" cy="394" r="5"/>
<circle id="circle3022" style="fill:#E63623;" cx="251" cy="381.097" r="3.097"/>
<circle id="circle3024" style="fill:#E63623;" cx="263.903" cy="381.097" r="3.097"/>
<circle id="circle3026" style="fill:#E63623;" cx="238.097" cy="394.097" r="3.097"/>
<circle id="circle3028" style="fill:#E63623;" cx="251" cy="394.097" r="3.097"/>
<circle id="circle3030" style="fill:#E63623;" cx="263.903" cy="394.097" r="3.097"/>
<circle id="circle3032" style="fill:#E63623;" cx="238.097" cy="406.903" r="3.097"/>
<circle id="circle3034" style="fill:#E63623;" cx="251" cy="406.903" r="3.097"/>
<circle id="circle3036" style="fill:#E63623;" cx="263.903" cy="406.903" r="3.097"/>
<circle id="circle3038" style="fill:#E63623;" cx="238.097" cy="381.097" r="3.097"/>
<circle id="circle3040" style="fill:#FFFFFF;" cx="63" cy="159" r="16"/>
<circle id="circle3042" cx="63" cy="159" r="5"/>
<circle id="circle3044" style="fill:#E63623;" cx="146.333" cy="338.333" r="5.333"/>
<circle id="circle3046" style="fill:#E63623;" cx="167.667" cy="338.333" r="5.333"/>
<circle id="circle3048" style="fill:#E63623;" cx="146.333" cy="357.242" r="5.333"/>
<circle id="circle3050" style="fill:#E63623;" cx="167.667" cy="357.242" r="5.333"/>
<g>
	<g>
		<path style="fill:#FFFFFF;" d="M161.027,48.412h5.076c3.104,0,5.605,1.124,5.605,4.602c0,3.369-2.57,4.854-5.605,4.854h-1.838
			v4.854h-3.238V48.412z M165.916,55.297c1.774,0,2.617-0.795,2.617-2.283c0-1.494-0.912-2.032-2.617-2.032h-1.65v4.315H165.916z"/>
		<path style="fill:#FFFFFF;" d="M173.397,55.501c0-4.782,2.347-7.352,5.755-7.352s5.755,2.57,5.755,7.352
			c0,4.895-2.347,7.484-5.755,7.484S173.397,60.396,173.397,55.501z M181.587,55.501c0-2.974-0.942-4.555-2.435-4.555
			s-2.435,1.582-2.435,4.555c0,3.086,0.942,4.687,2.435,4.687S181.587,58.587,181.587,55.501z"/>
		<path style="fill:#FFFFFF;" d="M186.847,60.918l1.858-2.224c1.082,0.886,2.417,1.493,3.804,1.493c1.375,0,2.01-0.532,2.01-1.232
			c0-1.03-0.851-1.279-2.205-1.846l-1.864-0.795c-1.586-0.603-3.032-1.819-3.032-3.901c0-2.37,2.135-4.264,5.243-4.264
			c1.722,0,3.461,0.645,4.753,1.874l-1.632,2.041c-1.008-0.724-1.899-1.118-3.298-1.118c-1.066,0-1.79,0.442-1.79,1.278
			c0,0.86,0.959,1.175,2.331,1.69l1.751,0.742c1.873,0.703,3.057,1.871,3.057,3.89c0,2.379-1.995,4.439-5.537,4.439
			C190.361,62.985,188.364,62.277,186.847,60.918z"/>
		<path style="fill:#FFFFFF;" d="M203.884,51.127h-4.289v-2.715h11.817v2.715h-4.29v11.594h-3.238V51.127z"/>
		<path style="fill:#FFFFFF;" d="M213.729,48.412h5.076c3.104,0,5.605,1.124,5.605,4.602c0,3.369-2.57,4.854-5.605,4.854h-1.838
			v4.854h-3.238V48.412z M218.617,55.297c1.774,0,2.617-0.795,2.617-2.283c0-1.494-0.912-2.032-2.617-2.032h-1.65v4.315H218.617z"/>
		<path style="fill:#FFFFFF;" d="M226.099,55.501c0-4.782,2.347-7.352,5.755-7.352s5.755,2.57,5.755,7.352
			c0,4.895-2.347,7.484-5.755,7.484S226.099,60.396,226.099,55.501z M234.289,55.501c0-2.974-0.942-4.555-2.436-4.555
			c-1.492,0-2.435,1.582-2.435,4.555c0,3.086,0.942,4.687,2.435,4.687C233.347,60.188,234.289,58.587,234.289,55.501z"/>
		<path style="fill:#FFFFFF;" d="M239.894,48.412h3.319l3.011,7.114l1.225,3.145h0.076c-0.146-1.506-0.448-3.511-0.448-5.201v-5.058
			h3.088v14.309h-3.319l-3.011-7.129l-1.226-3.129h-0.075c0.146,1.582,0.447,3.5,0.447,5.183v5.076h-3.087V48.412z"/>
		<path style="fill:#FFFFFF;" d="M253.646,48.412h9.484v2.715h-6.246v2.87h5.307v2.715h-5.307v3.293h6.466v2.715h-9.704V48.412z"/>
		<path style="fill:#FFFFFF;" d="M266.338,48.412h3.953c4.151,0,6.881,2.173,6.881,7.089c0,4.921-2.729,7.22-6.698,7.22h-4.136
			V48.412z M270.111,60.113c2.227,0,3.74-1.189,3.74-4.612c0-3.417-1.514-4.48-3.74-4.48h-0.535v9.092H270.111z"/>
		<path style="fill:#FFFFFF;" d="M160.192,78.982v-3.33h1.095v3.187c0,0.928,0.311,1.37,1.118,1.37c0.56,0,0.967-0.249,1.503-0.885
			v-3.672h1.094v5.368h-0.903l-0.087-0.895h-0.044c-0.524,0.608-1.136,1.027-1.95,1.027
			C160.761,81.152,160.192,80.381,160.192,78.982z"/>
		<path style="fill:#FFFFFF;" d="M166.939,75.652h0.895l0.088,0.856h0.044c0.537-0.552,1.148-0.988,1.978-0.988
			c1.255,0,1.827,0.772,1.827,2.17v3.33h-1.095v-3.187c0-0.937-0.314-1.37-1.11-1.37c-0.584,0-0.978,0.288-1.531,0.855v3.702h-1.095
			V75.652z"/>
		<path style="fill:#FFFFFF;" d="M175.921,76.526h-2.399v-0.874h3.494v5.368h-1.095V76.526z M175.564,73.825
			c0-0.463,0.345-0.781,0.815-0.781s0.815,0.318,0.815,0.781c0,0.472-0.345,0.777-0.815,0.777S175.564,74.296,175.564,73.825z"/>
		<path style="fill:#FFFFFF;" d="M181.325,78.897v-2.371h-1.479v-0.816l1.522-0.057l0.143-1.702h0.908v1.702h2.533v0.874h-2.533
			V78.9c0,0.923,0.327,1.37,1.298,1.37c0.472,0,0.855-0.095,1.224-0.229l0.223,0.799c-0.484,0.167-1.015,0.312-1.699,0.312
			C181.859,81.152,181.325,80.244,181.325,78.897z"/>
		<path style="fill:#FFFFFF;" d="M188.328,79.142v-5.037h-1.845v-0.874h2.939v5.977c0,0.744,0.421,1.045,1.011,1.045
			c0.294,0,0.606-0.071,0.961-0.226l0.264,0.812c-0.513,0.203-0.872,0.312-1.479,0.312
			C188.977,81.152,188.328,80.436,188.328,79.142z"/>
		<path style="fill:#FFFFFF;" d="M199.604,80.095l0.648-0.76c0.547,0.514,1.273,0.853,2.056,0.853c0.911,0,1.417-0.419,1.417-0.998
			c0-0.704-0.525-0.898-1.238-1.2l-1.016-0.445c-0.734-0.29-1.541-0.822-1.541-1.881c0-1.121,1.01-1.969,2.431-1.969
			c0.891,0,1.702,0.353,2.26,0.902l-0.569,0.704c-0.48-0.403-1.004-0.642-1.738-0.642c-0.757,0-1.266,0.351-1.266,0.939
			c0,0.625,0.621,0.853,1.254,1.099l0.977,0.43c0.902,0.352,1.576,0.877,1.576,1.929c0,1.155-0.975,2.098-2.606,2.098
			C201.216,81.152,200.282,80.751,199.604,80.095z"/>
		<path style="fill:#FFFFFF;" d="M206.466,75.652h0.896l0.087,0.648h0.035c0.479-0.454,1.156-0.78,1.788-0.78
			c1.419,0,2.202,1.072,2.202,2.737c0,1.827-1.143,2.895-2.412,2.895c-0.49,0-1.068-0.243-1.527-0.666h-0.025l0.052,0.978v1.749
			h-1.095V75.652z M210.353,78.262c0-1.125-0.408-1.829-1.375-1.829c-0.44,0-0.93,0.217-1.417,0.717v2.54
			c0.445,0.403,0.95,0.55,1.292,0.55C209.707,80.24,210.353,79.531,210.353,78.262z"/>
		<path style="fill:#FFFFFF;" d="M213.6,75.652h0.906l0.098,1.245h0.026c0.554-0.874,1.381-1.377,2.339-1.377
			c0.416,0,0.727,0.061,1.053,0.22l-0.239,0.93c-0.366-0.117-0.569-0.171-0.983-0.171c-0.769,0-1.511,0.392-2.104,1.476v3.046H213.6
			V75.652z"/>
		<path style="fill:#FFFFFF;" d="M222.035,76.526h-2.4v-0.874h3.494v5.368h-1.094V76.526z M221.679,73.825
			c0-0.463,0.344-0.781,0.815-0.781c0.471,0,0.815,0.318,0.815,0.781c0,0.472-0.345,0.777-0.815,0.777
			C222.022,74.602,221.679,74.296,221.679,73.825z"/>
		<path style="fill:#FFFFFF;" d="M226.229,75.652h0.896l0.087,0.856h0.044c0.537-0.552,1.148-0.988,1.978-0.988
			c1.255,0,1.827,0.772,1.827,2.17v3.33h-1.095v-3.187c0-0.937-0.314-1.37-1.11-1.37c-0.584,0-0.978,0.288-1.531,0.855v3.702h-1.095
			V75.652z"/>
		<path style="fill:#FFFFFF;" d="M232.588,81.984c0-0.433,0.304-0.845,0.871-1.162v-0.044c-0.29-0.162-0.55-0.438-0.55-0.891
			c0-0.347,0.239-0.733,0.642-1.006v-0.044c-0.373-0.272-0.676-0.751-0.676-1.388c0-1.202,1.002-1.928,2.16-1.928
			c0.312,0,0.579,0.044,0.817,0.132h2.211v0.853h-1.311c0.211,0.23,0.395,0.593,0.395,0.982c0,1.171-0.93,1.833-2.112,1.833
			c-0.261,0-0.571-0.058-0.862-0.175c-0.238,0.153-0.372,0.326-0.372,0.56c0,0.385,0.376,0.562,1.062,0.562h1.148
			c1.388,0,2.079,0.364,2.079,1.285c0,1.035-1.182,1.892-3.04,1.892C233.528,83.444,232.588,82.937,232.588,81.984z M237.033,81.73
			c0-0.464-0.388-0.589-1.152-0.589h-0.951c-0.33,0-0.595-0.022-0.816-0.083c-0.446,0.248-0.605,0.519-0.605,0.797
			c0,0.521,0.586,0.836,1.652,0.836C236.308,82.691,237.033,82.234,237.033,81.73z M236.161,77.449c0-0.702-0.504-1.158-1.126-1.158
			c-0.612,0-1.124,0.456-1.124,1.158c0,0.724,0.512,1.171,1.124,1.171C235.657,78.62,236.161,78.172,236.161,77.449z"/>
		<path style="fill:#FFFFFF;" d="M240.556,82.705c0.944-0.399,1.407-0.982,1.395-1.838l-0.161-1.089l0.628,0.93
			c-0.184,0.191-0.412,0.252-0.644,0.252c-0.512,0-0.943-0.307-0.943-0.902c0-0.575,0.443-0.911,0.971-0.911
			c0.712,0,1.086,0.582,1.086,1.529c0,1.314-0.744,2.242-2.032,2.694L240.556,82.705z"/>
		<path style="fill:#FFFFFF;" d="M252.376,80.382c2.276-1.99,3.586-3.208,3.586-4.332c0-0.769-0.468-1.28-1.422-1.28
			c-0.633,0-1.174,0.365-1.609,0.802l-0.615-0.609c0.659-0.662,1.354-1.076,2.363-1.076c1.422,0,2.332,0.838,2.332,2.106
			c0,1.281-1.29,2.574-3.049,4.158c0.429-0.035,0.894-0.061,1.297-0.061h2.13v0.93h-5.013V80.382z"/>
		<path style="fill:#FFFFFF;" d="M258.942,77.496c0-2.357,0.984-3.608,2.559-3.608s2.559,1.251,2.559,3.608
			c0,2.339-0.984,3.656-2.559,3.656S258.942,79.835,258.942,77.496z M263.061,77.496c0-1.959-0.655-2.739-1.56-2.739
			s-1.56,0.78-1.56,2.739c0,1.959,0.655,2.787,1.56,2.787S263.061,79.455,263.061,77.496z M260.783,77.434
			c0-0.465,0.328-0.754,0.718-0.754s0.718,0.289,0.718,0.754c0,0.474-0.328,0.763-0.718,0.763S260.783,77.907,260.783,77.434z"/>
		<path style="fill:#FFFFFF;" d="M265.551,80.382c2.276-1.99,3.586-3.208,3.586-4.332c0-0.769-0.468-1.28-1.422-1.28
			c-0.633,0-1.174,0.365-1.609,0.802l-0.615-0.609c0.659-0.662,1.354-1.076,2.363-1.076c1.422,0,2.332,0.838,2.332,2.106
			c0,1.281-1.29,2.574-3.049,4.158c0.429-0.035,0.894-0.061,1.297-0.061h2.13v0.93h-5.013V80.382z"/>
		<path style="fill:#FFFFFF;" d="M272.139,80.382c2.276-1.99,3.586-3.208,3.586-4.332c0-0.769-0.468-1.28-1.422-1.28
			c-0.633,0-1.174,0.365-1.609,0.802l-0.615-0.609c0.659-0.662,1.354-1.076,2.363-1.076c1.422,0,2.332,0.838,2.332,2.106
			c0,1.281-1.29,2.574-3.049,4.158c0.429-0.035,0.894-0.061,1.297-0.061h2.13v0.93h-5.013V80.382z"/>
	</g>
</g>
</svg>
