<svg width="899" height="617" viewBox="0 0 899 617" fill="none" xmlns="http://www.w3.org/2000/svg">
<circle cx="33" cy="212" r="32" fill="white"/>
<circle cx="33" cy="298" r="32" fill="#75FA4C"/>
<circle cx="207" cy="298" r="32" fill="#75FA4C"/>
<circle cx="33" cy="582" r="32" fill="white"/>
<circle cx="33" cy="483" r="32" fill="#0020F5"/>
<circle cx="768" cy="210" r="32" fill="#E63623"/>
<circle cx="687" cy="32" r="32" fill="#0020F5"/>
<circle cx="490" cy="122" r="32" fill="white"/>
<path d="M129.102 142.25H108.872L105.982 155H94.2521L108.447 95.5H129.527L143.722 155H131.992L129.102 142.25ZM111.252 131.54H126.637L119.752 101.11H118.222L111.252 131.54Z" fill="white"/>
<path d="M99.9471 180.5H111.167V229.29H138.197V240H99.9471V180.5Z" fill="white"/>
<path d="M102.947 268.5H114.167V317.29H141.197V328H102.947V268.5Z" fill="white"/>
<path d="M678.077 297.91H703.577V328H693.377V321.37H691.847C691.167 323.58 689.864 325.45 687.937 326.98C686.01 328.453 683.12 329.19 679.267 329.19C676.547 329.19 673.997 328.68 671.617 327.66C669.237 326.64 667.169 325.138 665.412 323.155C663.655 321.115 662.267 318.622 661.247 315.675C660.227 312.672 659.717 309.187 659.717 305.22V291.28C659.717 287.427 660.255 284.027 661.332 281.08C662.465 278.077 663.995 275.555 665.922 273.515C667.905 271.475 670.257 269.945 672.977 268.925C675.697 267.848 678.7 267.31 681.987 267.31C685.387 267.31 688.419 267.877 691.082 269.01C693.745 270.087 696.012 271.617 697.882 273.6C699.752 275.527 701.169 277.822 702.132 280.485C703.095 283.092 703.577 285.897 703.577 288.9V289.92H692.357V288.9C692.357 285.33 691.422 282.638 689.552 280.825C687.739 278.955 685.16 278.02 681.817 278.02C678.644 278.02 676.037 279.097 673.997 281.25C671.957 283.347 670.937 286.973 670.937 292.13V304.71C670.937 313.89 674.677 318.48 682.157 318.48C685.5 318.48 688.022 317.602 689.722 315.845C691.479 314.032 692.357 311.623 692.357 308.62H678.077V297.91Z" fill="white"/>
<path d="M760.847 298.25C760.847 296.323 761.555 294.652 762.972 293.235C764.389 291.818 766.06 291.11 767.987 291.11C769.914 291.11 771.585 291.818 773.002 293.235C774.419 294.652 775.127 296.323 775.127 298.25C775.127 300.177 774.419 301.848 773.002 303.265C771.585 304.682 769.914 305.39 767.987 305.39C766.06 305.39 764.389 304.682 762.972 303.265C761.555 301.848 760.847 300.177 760.847 298.25ZM746.057 291.62C746.057 283.913 747.984 277.935 751.837 273.685C755.747 269.435 761.13 267.31 767.987 267.31C774.844 267.31 780.199 269.435 784.052 273.685C787.962 277.935 789.917 283.913 789.917 291.62V304.88C789.917 312.813 787.962 318.848 784.052 322.985C780.199 327.122 774.844 329.19 767.987 329.19C761.13 329.19 755.747 327.122 751.837 322.985C747.984 318.848 746.057 312.813 746.057 304.88V291.62ZM767.987 318.99C770.027 318.99 771.727 318.678 773.087 318.055C774.447 317.375 775.552 316.44 776.402 315.25C777.252 314.06 777.847 312.643 778.187 311C778.527 309.357 778.697 307.543 778.697 305.56V290.94C778.697 289.07 778.499 287.313 778.102 285.67C777.705 284.027 777.082 282.61 776.232 281.42C775.382 280.23 774.277 279.295 772.917 278.615C771.557 277.878 769.914 277.51 767.987 277.51C766.06 277.51 764.417 277.878 763.057 278.615C761.697 279.295 760.592 280.23 759.742 281.42C758.892 282.61 758.269 284.027 757.872 285.67C757.475 287.313 757.277 289.07 757.277 290.94V305.56C757.277 307.543 757.447 309.357 757.787 311C758.127 312.643 758.722 314.06 759.572 315.25C760.422 316.44 761.527 317.375 762.887 318.055C764.247 318.678 765.947 318.99 767.987 318.99Z" fill="white"/>
<path d="M867.597 267.5V308.98H856.377V267.5H867.597ZM870.062 320.115C870.062 321.248 869.835 322.325 869.382 323.345C868.985 324.308 868.419 325.158 867.682 325.895C866.945 326.575 866.067 327.113 865.047 327.51C864.084 327.963 863.064 328.19 861.987 328.19C860.854 328.19 859.805 327.963 858.842 327.51C857.879 327.113 857.029 326.575 856.292 325.895C855.555 325.158 854.96 324.308 854.507 323.345C854.11 322.325 853.912 321.248 853.912 320.115C853.912 318.982 854.11 317.933 854.507 316.97C854.96 315.95 855.555 315.1 856.292 314.42C857.029 313.683 857.879 313.117 858.842 312.72C859.805 312.267 860.854 312.04 861.987 312.04C863.064 312.04 864.084 312.267 865.047 312.72C866.067 313.117 866.945 313.683 867.682 314.42C868.419 315.1 868.985 315.95 869.382 316.97C869.835 317.933 870.062 318.982 870.062 320.115Z" fill="white"/>
<path d="M129.187 378.69C129.187 376.31 128.252 374.242 126.382 372.485C124.569 370.728 121.99 369.85 118.647 369.85C115.814 369.85 113.575 370.445 111.932 371.635C110.289 372.768 109.467 374.327 109.467 376.31C109.467 377.33 109.665 378.265 110.062 379.115C110.459 379.908 111.139 380.645 112.102 381.325C113.122 381.948 114.425 382.515 116.012 383.025C117.655 383.535 119.724 384.017 122.217 384.47C128.45 385.603 133.21 387.502 136.497 390.165C139.784 392.828 141.427 396.767 141.427 401.98V403C141.427 405.777 140.917 408.298 139.897 410.565C138.934 412.775 137.517 414.673 135.647 416.26C133.777 417.847 131.51 419.065 128.847 419.915C126.184 420.765 123.18 421.19 119.837 421.19C115.927 421.19 112.47 420.652 109.467 419.575C106.52 418.442 104.055 416.912 102.072 414.985C100.089 413.002 98.5871 410.707 97.5671 408.1C96.5471 405.437 96.0371 402.547 96.0371 399.43V396.88H107.257V398.92C107.257 402.49 108.277 405.352 110.317 407.505C112.414 409.602 115.644 410.65 120.007 410.65C123.407 410.65 125.929 409.913 127.572 408.44C129.215 406.967 130.037 405.21 130.037 403.17C130.037 402.207 129.867 401.3 129.527 400.45C129.187 399.543 128.592 398.75 127.742 398.07C126.892 397.333 125.73 396.682 124.257 396.115C122.784 395.548 120.914 395.067 118.647 394.67C115.644 394.16 112.895 393.508 110.402 392.715C107.909 391.865 105.727 390.76 103.857 389.4C102.044 388.04 100.627 386.34 99.6071 384.3C98.5871 382.26 98.0771 379.767 98.0771 376.82V376.31C98.0771 373.873 98.5587 371.635 99.5221 369.595C100.542 367.498 101.93 365.685 103.687 364.155C105.5 362.625 107.654 361.435 110.147 360.585C112.697 359.735 115.53 359.31 118.647 359.31C122.16 359.31 125.277 359.82 127.997 360.84C130.717 361.803 132.984 363.135 134.797 364.835C136.667 366.535 138.055 368.49 138.962 370.7C139.925 372.91 140.407 375.233 140.407 377.67V380.73H129.187V378.69Z" fill="white"/>
<path d="M201.377 399.09H198.827L181.742 360.5H193.982L206.222 388.89H207.752L219.992 360.5H232.232L215.147 399.09H212.597V420H201.377V399.09Z" fill="white"/>
<path d="M308.187 378.69C308.187 376.31 307.252 374.242 305.382 372.485C303.569 370.728 300.99 369.85 297.647 369.85C294.814 369.85 292.575 370.445 290.932 371.635C289.289 372.768 288.467 374.327 288.467 376.31C288.467 377.33 288.665 378.265 289.062 379.115C289.459 379.908 290.139 380.645 291.102 381.325C292.122 381.948 293.425 382.515 295.012 383.025C296.655 383.535 298.724 384.017 301.217 384.47C307.45 385.603 312.21 387.502 315.497 390.165C318.784 392.828 320.427 396.767 320.427 401.98V403C320.427 405.777 319.917 408.298 318.897 410.565C317.934 412.775 316.517 414.673 314.647 416.26C312.777 417.847 310.51 419.065 307.847 419.915C305.184 420.765 302.18 421.19 298.837 421.19C294.927 421.19 291.47 420.652 288.467 419.575C285.52 418.442 283.055 416.912 281.072 414.985C279.089 413.002 277.587 410.707 276.567 408.1C275.547 405.437 275.037 402.547 275.037 399.43V396.88H286.257V398.92C286.257 402.49 287.277 405.352 289.317 407.505C291.414 409.602 294.644 410.65 299.007 410.65C302.407 410.65 304.929 409.913 306.572 408.44C308.215 406.967 309.037 405.21 309.037 403.17C309.037 402.207 308.867 401.3 308.527 400.45C308.187 399.543 307.592 398.75 306.742 398.07C305.892 397.333 304.73 396.682 303.257 396.115C301.784 395.548 299.914 395.067 297.647 394.67C294.644 394.16 291.895 393.508 289.402 392.715C286.909 391.865 284.727 390.76 282.857 389.4C281.044 388.04 279.627 386.34 278.607 384.3C277.587 382.26 277.077 379.767 277.077 376.82V376.31C277.077 373.873 277.559 371.635 278.522 369.595C279.542 367.498 280.93 365.685 282.687 364.155C284.5 362.625 286.654 361.435 289.147 360.585C291.697 359.735 294.53 359.31 297.647 359.31C301.16 359.31 304.277 359.82 306.997 360.84C309.717 361.803 311.984 363.135 313.797 364.835C315.667 366.535 317.055 368.49 317.962 370.7C318.925 372.91 319.407 375.233 319.407 377.67V380.73H308.187V378.69Z" fill="white"/>
<path d="M373.567 360.5H416.407V371.21H400.597V420H389.377V371.21H373.567V360.5Z" fill="white"/>
<path d="M473.947 360.5H511.517V371.21H485.167V384.81H510.497V395.52H485.167V409.29H512.537V420H473.947V360.5Z" fill="white"/>
<path d="M559.847 360.5H579.567L582.967 405.21V413.88H585.007V405.21L588.407 360.5H608.127V420H597.927V380.22L598.947 366.62H596.907L592.487 420H575.657L571.067 366.62H569.027L570.047 380.22V420H559.847V360.5Z" fill="white"/>
<path d="M692.187 378.69C692.187 376.31 691.252 374.242 689.382 372.485C687.569 370.728 684.99 369.85 681.647 369.85C678.814 369.85 676.575 370.445 674.932 371.635C673.289 372.768 672.467 374.327 672.467 376.31C672.467 377.33 672.665 378.265 673.062 379.115C673.459 379.908 674.139 380.645 675.102 381.325C676.122 381.948 677.425 382.515 679.012 383.025C680.655 383.535 682.724 384.017 685.217 384.47C691.45 385.603 696.21 387.502 699.497 390.165C702.784 392.828 704.427 396.767 704.427 401.98V403C704.427 405.777 703.917 408.298 702.897 410.565C701.934 412.775 700.517 414.673 698.647 416.26C696.777 417.847 694.51 419.065 691.847 419.915C689.184 420.765 686.18 421.19 682.837 421.19C678.927 421.19 675.47 420.652 672.467 419.575C669.52 418.442 667.055 416.912 665.072 414.985C663.089 413.002 661.587 410.707 660.567 408.1C659.547 405.437 659.037 402.547 659.037 399.43V396.88H670.257V398.92C670.257 402.49 671.277 405.352 673.317 407.505C675.414 409.602 678.644 410.65 683.007 410.65C686.407 410.65 688.929 409.913 690.572 408.44C692.215 406.967 693.037 405.21 693.037 403.17C693.037 402.207 692.867 401.3 692.527 400.45C692.187 399.543 691.592 398.75 690.742 398.07C689.892 397.333 688.73 396.682 687.257 396.115C685.784 395.548 683.914 395.067 681.647 394.67C678.644 394.16 675.895 393.508 673.402 392.715C670.909 391.865 668.727 390.76 666.857 389.4C665.044 388.04 663.627 386.34 662.607 384.3C661.587 382.26 661.077 379.767 661.077 376.82V376.31C661.077 373.873 661.559 371.635 662.522 369.595C663.542 367.498 664.93 365.685 666.687 364.155C668.5 362.625 670.654 361.435 673.147 360.585C675.697 359.735 678.53 359.31 681.647 359.31C685.16 359.31 688.277 359.82 690.997 360.84C693.717 361.803 695.984 363.135 697.797 364.835C699.667 366.535 701.055 368.49 701.962 370.7C702.925 372.91 703.407 375.233 703.407 377.67V380.73H692.187V378.69Z" fill="white"/>
<path d="M243 481C243 481.788 242.325 482.35 241.65 482.35H229.833C229.045 482.35 228.482 481.675 228.482 481C228.482 480.212 229.158 479.65 229.833 479.65H241.65C242.437 479.65 243 480.212 243 481Z" fill="#EE2524"/>
<path d="M187.63 481C187.63 481.788 186.955 482.35 186.28 482.35H174.35C173.563 482.35 173 481.675 173 481C173 480.212 173.675 479.65 174.35 479.65H186.167C186.955 479.65 187.63 480.212 187.63 481Z" fill="#EE2524"/>
<path d="M209.35 502.833V514.65C209.35 515.437 208.675 516 208 516C207.212 516 206.65 515.325 206.65 514.65V502.833C206.65 502.045 207.325 501.482 208 501.482C208.788 501.37 209.35 502.045 209.35 502.833Z" fill="#EE2524"/>
<path d="M209.35 447.35V459.167C209.35 459.955 208.675 460.518 208 460.518C207.212 460.518 206.65 459.842 206.65 459.167V447.35C206.65 446.563 207.325 446 208 446C208.788 446 209.35 446.675 209.35 447.35Z" fill="#EE2524"/>
<path d="M221.73 512.286C221.73 512.849 221.392 513.412 220.83 513.637C220.154 513.974 219.254 513.524 219.029 512.849L214.64 501.82C214.302 501.145 214.752 500.244 215.428 500.019C216.103 499.682 217.003 500.132 217.228 500.807L221.617 511.836C221.73 511.949 221.73 512.061 221.73 512.286Z" fill="#EE2524"/>
<path d="M201.36 460.743C201.36 461.305 201.023 461.868 200.46 462.093C199.785 462.431 198.884 461.981 198.659 461.305L194.383 450.277C194.045 449.601 194.495 448.701 195.17 448.476C195.846 448.251 196.746 448.588 196.971 449.264L201.36 460.293C201.36 460.405 201.36 460.63 201.36 460.743Z" fill="#EE2524"/>
<path d="M240.074 494.73C240.074 494.955 240.074 495.068 239.961 495.293C239.624 495.968 238.836 496.305 238.161 495.968L227.357 491.129C226.682 490.791 226.344 490.003 226.682 489.328C227.019 488.653 227.807 488.315 228.482 488.653L239.286 493.492C239.736 493.717 240.074 494.28 240.074 494.73Z" fill="#EE2524"/>
<path d="M189.543 472.109C189.543 472.334 189.543 472.447 189.431 472.672C189.093 473.347 188.305 473.685 187.63 473.347L176.714 468.508C176.039 468.17 175.701 467.383 176.039 466.707C176.376 466.032 177.164 465.695 177.839 466.032L188.643 470.871C189.206 471.096 189.543 471.547 189.543 472.109Z" fill="#EE2524"/>
<path d="M232.421 505.421C232.421 505.759 232.309 506.209 231.971 506.434C231.408 506.997 230.508 506.884 229.945 506.322L221.955 497.768C221.392 497.206 221.392 496.305 221.955 495.855C222.518 495.293 223.418 495.405 223.981 495.855L232.084 504.521C232.309 504.746 232.421 505.084 232.421 505.421Z" fill="#EE2524"/>
<path d="M194.495 465.132C194.495 465.469 194.383 465.92 194.045 466.145C193.482 466.707 192.582 466.595 192.019 466.032L183.916 457.367C183.354 456.916 183.466 456.016 184.029 455.566C184.592 455.003 185.379 455.003 185.942 455.566L194.045 464.232C194.383 464.457 194.495 464.794 194.495 465.132Z" fill="#EE2524"/>
<path d="M201.585 501.37C201.585 501.482 201.585 501.707 201.473 501.82L197.196 512.849C196.971 513.524 196.071 513.974 195.396 513.637C194.72 513.412 194.27 512.511 194.608 511.836L198.884 500.807C199.109 500.132 200.01 499.682 200.685 500.019C201.248 500.244 201.585 500.807 201.585 501.37Z" fill="#EE2524"/>
<path d="M221.392 449.601C221.392 449.714 221.392 449.939 221.28 450.051L217.003 461.08C216.778 461.756 215.878 462.206 215.203 461.868C214.527 461.643 214.077 460.743 214.415 460.068L218.691 449.039C218.916 448.363 219.817 447.913 220.492 448.251C221.055 448.476 221.392 449.039 221.392 449.601Z" fill="#EE2524"/>
<path d="M193.932 496.418C193.932 496.756 193.82 497.093 193.482 497.431L185.042 505.759C184.479 506.322 183.579 506.322 183.016 505.759C182.453 505.196 182.453 504.296 183.016 503.733L191.344 495.405C191.907 494.842 192.807 494.842 193.37 495.405C193.82 495.63 193.932 496.08 193.932 496.418Z" fill="#EE2524"/>
<path d="M233.209 457.254C233.209 457.592 233.096 457.929 232.759 458.267L224.318 466.595C223.756 467.158 222.855 467.158 222.293 466.595C221.73 466.032 221.73 465.132 222.293 464.569L230.733 456.241C231.296 455.678 232.196 455.678 232.759 456.241C233.096 456.579 233.209 456.916 233.209 457.254Z" fill="#EE2524"/>
<path d="M189.318 489.328C189.318 489.891 188.981 490.341 188.418 490.566L177.502 495.068C176.826 495.405 175.926 495.068 175.701 494.28C175.363 493.605 175.701 492.704 176.489 492.479L187.405 487.978C188.08 487.64 188.981 487.978 189.206 488.765C189.206 488.99 189.318 489.103 189.318 489.328Z" fill="#EE2524"/>
<path d="M240.524 468.17C240.524 468.733 240.186 469.183 239.624 469.408L228.707 473.91C228.032 474.248 227.132 473.91 226.907 473.122C226.569 472.447 226.907 471.547 227.695 471.322L238.611 466.82C239.286 466.482 240.186 466.82 240.412 467.608C240.412 467.833 240.524 468.058 240.524 468.17Z" fill="#EE2524"/>
<path d="M898 211C898 211.788 897.325 212.35 896.65 212.35H884.833C884.045 212.35 883.482 211.675 883.482 211C883.482 210.212 884.158 209.65 884.833 209.65H896.65C897.437 209.65 898 210.212 898 211Z" fill="#75FA4C"/>
<path d="M842.63 211C842.63 211.788 841.955 212.35 841.28 212.35H829.35C828.563 212.35 828 211.675 828 211C828 210.212 828.675 209.65 829.35 209.65H841.167C841.955 209.65 842.63 210.212 842.63 211Z" fill="#75FA4C"/>
<path d="M864.35 232.833V244.65C864.35 245.437 863.675 246 863 246C862.212 246 861.65 245.325 861.65 244.65V232.833C861.65 232.045 862.325 231.482 863 231.482C863.788 231.37 864.35 232.045 864.35 232.833Z" fill="#75FA4C"/>
<path d="M864.35 177.35V189.167C864.35 189.955 863.675 190.518 863 190.518C862.212 190.518 861.65 189.842 861.65 189.167V177.35C861.65 176.563 862.325 176 863 176C863.788 176 864.35 176.675 864.35 177.35Z" fill="#75FA4C"/>
<path d="M876.73 242.286C876.73 242.849 876.392 243.412 875.83 243.637C875.154 243.974 874.254 243.524 874.029 242.849L869.64 231.82C869.302 231.145 869.752 230.244 870.428 230.019C871.103 229.682 872.003 230.132 872.228 230.807L876.617 241.836C876.73 241.949 876.73 242.061 876.73 242.286Z" fill="#75FA4C"/>
<path d="M856.36 190.743C856.36 191.305 856.023 191.868 855.46 192.093C854.785 192.431 853.884 191.981 853.659 191.305L849.383 180.277C849.045 179.601 849.495 178.701 850.17 178.476C850.846 178.251 851.746 178.588 851.971 179.264L856.36 190.293C856.36 190.405 856.36 190.63 856.36 190.743Z" fill="#75FA4C"/>
<path d="M895.074 224.73C895.074 224.955 895.074 225.068 894.961 225.293C894.624 225.968 893.836 226.305 893.161 225.968L882.357 221.129C881.682 220.791 881.344 220.003 881.682 219.328C882.019 218.653 882.807 218.315 883.482 218.653L894.286 223.492C894.736 223.717 895.074 224.28 895.074 224.73Z" fill="#75FA4C"/>
<path d="M844.543 202.109C844.543 202.334 844.543 202.447 844.431 202.672C844.093 203.347 843.305 203.685 842.63 203.347L831.714 198.508C831.039 198.17 830.701 197.383 831.039 196.707C831.376 196.032 832.164 195.695 832.839 196.032L843.643 200.871C844.206 201.096 844.543 201.547 844.543 202.109Z" fill="#75FA4C"/>
<path d="M887.421 235.421C887.421 235.759 887.309 236.209 886.971 236.434C886.408 236.997 885.508 236.884 884.945 236.322L876.955 227.768C876.392 227.206 876.392 226.305 876.955 225.855C877.518 225.293 878.418 225.405 878.981 225.855L887.084 234.521C887.309 234.746 887.421 235.084 887.421 235.421Z" fill="#75FA4C"/>
<path d="M849.495 195.132C849.495 195.469 849.383 195.92 849.045 196.145C848.482 196.707 847.582 196.595 847.019 196.032L838.916 187.367C838.354 186.916 838.466 186.016 839.029 185.566C839.592 185.003 840.379 185.003 840.942 185.566L849.045 194.232C849.383 194.457 849.495 194.794 849.495 195.132Z" fill="#75FA4C"/>
<path d="M856.585 231.37C856.585 231.482 856.585 231.707 856.473 231.82L852.196 242.849C851.971 243.524 851.071 243.974 850.396 243.637C849.72 243.412 849.27 242.511 849.608 241.836L853.884 230.807C854.109 230.132 855.01 229.682 855.685 230.019C856.248 230.244 856.585 230.807 856.585 231.37Z" fill="#75FA4C"/>
<path d="M876.392 179.601C876.392 179.714 876.392 179.939 876.28 180.051L872.003 191.08C871.778 191.756 870.878 192.206 870.203 191.868C869.527 191.643 869.077 190.743 869.415 190.068L873.691 179.039C873.916 178.363 874.817 177.913 875.492 178.251C876.055 178.476 876.392 179.039 876.392 179.601Z" fill="#75FA4C"/>
<path d="M848.932 226.418C848.932 226.756 848.82 227.093 848.482 227.431L840.042 235.759C839.479 236.322 838.579 236.322 838.016 235.759C837.453 235.196 837.453 234.296 838.016 233.733L846.344 225.405C846.907 224.842 847.807 224.842 848.37 225.405C848.82 225.63 848.932 226.08 848.932 226.418Z" fill="#75FA4C"/>
<path d="M888.209 187.254C888.209 187.592 888.097 187.929 887.759 188.267L879.318 196.595C878.756 197.158 877.855 197.158 877.293 196.595C876.73 196.032 876.73 195.132 877.293 194.569L885.733 186.241C886.296 185.678 887.196 185.678 887.759 186.241C888.097 186.579 888.209 186.916 888.209 187.254Z" fill="#75FA4C"/>
<path d="M844.318 219.328C844.318 219.891 843.981 220.341 843.418 220.566L832.502 225.068C831.826 225.405 830.926 225.068 830.701 224.28C830.363 223.604 830.701 222.704 831.489 222.479L842.405 217.977C843.08 217.64 843.981 217.977 844.206 218.765C844.206 218.99 844.318 219.103 844.318 219.328Z" fill="#75FA4C"/>
<path d="M895.524 198.17C895.524 198.733 895.187 199.183 894.624 199.408L883.707 203.91C883.032 204.248 882.132 203.91 881.907 203.122C881.569 202.447 881.907 201.547 882.695 201.322L893.611 196.82C894.286 196.482 895.187 196.82 895.412 197.608C895.412 197.833 895.524 198.058 895.524 198.17Z" fill="#75FA4C"/>
<circle cx="11" cy="371" r="11" fill="#E63623"/>
<circle cx="55" cy="371" r="11" fill="#E63623"/>
<circle cx="11" cy="410" r="11" fill="#E63623"/>
<circle cx="55" cy="410" r="11" fill="#E63623"/>
<circle cx="660" cy="458" r="11" fill="#E63623"/>
<circle cx="704" cy="458" r="11" fill="#E63623"/>
<circle cx="660" cy="497" r="11" fill="#E63623"/>
<circle cx="704" cy="497" r="11" fill="#E63623"/>
<circle cx="186" cy="11" r="11" fill="#E63623"/>
<circle cx="230" cy="11" r="11" fill="#E63623"/>
<circle cx="186" cy="50" r="11" fill="#E63623"/>
<circle cx="230" cy="50" r="11" fill="#E63623"/>
<path d="M1 32C1 14.3269 15.3269 0 33 0C50.6731 0 65 14.3269 65 32V126C65 143.673 50.6731 158 33 158C15.3269 158 1 143.673 1 126V32Z" fill="#E63623"/>
<circle cx="33" cy="32" r="32" fill="#0020F5"/>
<circle cx="33" cy="126" r="32" fill="white"/>
<circle cx="33" cy="126" r="10" fill="black"/>
<path d="M553 211C553 193.327 567.327 179 585 179C602.673 179 617 193.327 617 211V305C617 322.673 602.673 337 585 337C567.327 337 553 322.673 553 305V211Z" fill="#E63623"/>
<circle cx="585" cy="211" r="32" fill="#0020F5"/>
<circle cx="585" cy="305" r="32" fill="white"/>
<circle cx="585" cy="305" r="10" fill="black"/>
<path d="M301 180C318.673 180 333 194.327 333 212C333 229.673 318.673 244 301 244L207 244C189.327 244 175 229.673 175 212C175 194.327 189.327 180 207 180L301 180Z" fill="white"/>
<circle cx="301" cy="212" r="32" transform="rotate(90 301 212)" fill="#75FA4C"/>
<circle cx="207" cy="212" r="32" transform="rotate(90 207 212)" fill="#E63623"/>
<path d="M396 64C378.327 64 364 49.6731 364 32C364 14.3269 378.327 1.70846e-07 396 3.81596e-07L490 1.50253e-06C507.673 1.71328e-06 522 14.3269 522 32C522 49.6731 507.673 64 490 64L396 64Z" fill="#E63623"/>
<circle cx="396" cy="32" r="32" transform="rotate(-90 396 32)" fill="#0020F5"/>
<circle cx="490" cy="32" r="32" transform="rotate(-90 490 32)" fill="#75FA4C"/>
<circle cx="490" cy="32" r="10" transform="rotate(-90 490 32)" fill="black"/>
<path d="M301 330C283.327 330 269 315.673 269 298C269 280.327 283.327 266 301 266L395 266C412.673 266 427 280.327 427 298C427 315.673 412.673 330 395 330L301 330Z" fill="#E63623"/>
<circle cx="301" cy="298" r="32" transform="rotate(-90 301 298)" fill="#0020F5"/>
<circle cx="395" cy="298" r="32" transform="rotate(-90 395 298)" fill="#75FA4C"/>
<path d="M301 154C283.327 154 269 139.673 269 122C269 104.327 283.327 90 301 90L395 90C412.673 90 427 104.327 427 122C427 139.673 412.673 154 395 154L301 154Z" fill="white"/>
<circle cx="301" cy="122" r="32" transform="rotate(-90 301 122)" fill="#0020F5"/>
<circle cx="395" cy="122" r="32" transform="rotate(-90 395 122)" fill="#E63623"/>
<circle cx="395" cy="122" r="10" transform="rotate(-90 395 122)" fill="black"/>
<path d="M777 550C794.673 550 809 564.327 809 582C809 599.673 794.673 614 777 614L683 614C665.327 614 651 599.673 651 582C651 564.327 665.327 550 683 550L777 550Z" fill="white"/>
<circle cx="683" cy="582" r="32" transform="rotate(90 683 582)" fill="#E63623"/>
<circle cx="683" cy="582" r="10" transform="rotate(90 683 582)" fill="black"/>
<path d="M862 446C879.673 446 894 460.327 894 478C894 495.673 879.673 510 862 510L768 510C750.327 510 736 495.673 736 478C736 460.327 750.327 446 768 446L862 446Z" fill="#0020F5"/>
<circle cx="768" cy="478" r="32" transform="rotate(90 768 478)" fill="white"/>
<circle cx="768" cy="478" r="10" transform="rotate(90 768 478)" fill="black"/>
<path d="M588 446C605.673 446 620 460.327 620 478C620 495.673 605.673 510 588 510L494 510C476.327 510 462 495.673 462 478C462 460.327 476.327 446 494 446L588 446Z" fill="white"/>
<circle cx="494" cy="478" r="32" transform="rotate(90 494 478)" fill="#E63623"/>
<circle cx="494" cy="478" r="10" transform="rotate(90 494 478)" fill="black"/>
<circle cx="119" cy="32" r="32" fill="white"/>
<circle cx="119" cy="32" r="10" fill="black"/>
<circle cx="208" cy="122" r="32" fill="#75FA4C"/>
<circle cx="208" cy="122" r="10" fill="black"/>
<circle cx="768" cy="388" r="32" fill="#75FA4C"/>
<circle cx="768" cy="388" r="10" fill="black"/>
<circle cx="584" cy="32" r="32" fill="#E63623"/>
<circle cx="584" cy="32" r="10" fill="black"/>
<circle cx="299" cy="479" r="32" fill="#E63623"/>
<circle cx="299" cy="479" r="10" fill="black"/>
<rect x="366" y="451" width="12" height="12" fill="white"/>
<rect x="390" y="451" width="12" height="12" fill="white"/>
<rect x="414" y="451" width="12" height="12" fill="white"/>
<rect x="366" y="475" width="12" height="12" fill="white"/>
<rect x="390" y="475" width="12" height="12" fill="white"/>
<rect x="414" y="475" width="12" height="12" fill="white"/>
<rect x="366" y="499" width="12" height="12" fill="white"/>
<rect x="390" y="499" width="12" height="12" fill="white"/>
<rect x="414" y="499" width="12" height="12" fill="white"/>
<rect x="652" y="181" width="12" height="12" fill="#0020F5"/>
<rect x="676" y="181" width="12" height="12" fill="#0020F5"/>
<rect x="700" y="181" width="12" height="12" fill="#0020F5"/>
<rect x="652" y="205" width="12" height="12" fill="#0020F5"/>
<rect x="676" y="205" width="12" height="12" fill="#0020F5"/>
<rect x="700" y="205" width="12" height="12" fill="#0020F5"/>
<rect x="652" y="229" width="12" height="12" fill="#0020F5"/>
<rect x="676" y="229" width="12" height="12" fill="#0020F5"/>
<rect x="700" y="229" width="12" height="12" fill="#0020F5"/>
<rect x="272" width="8" height="64" fill="white"/>
<rect x="295" width="8" height="64" fill="white"/>
<rect x="320" width="8" height="64" fill="white"/>
<rect x="267" y="22" width="18" height="6" fill="#E63623"/>
<rect x="290" y="43" width="18" height="6" fill="#0020F5"/>
<rect x="315" y="8" width="18" height="6" fill="#75FA4C"/>
<rect x="834" y="356" width="8" height="64" fill="white"/>
<rect x="857" y="356" width="8" height="64" fill="white"/>
<rect x="882" y="356" width="8" height="64" fill="white"/>
<rect x="829" y="378" width="18" height="6" fill="#E63623"/>
<rect x="852" y="399" width="18" height="6" fill="#0020F5"/>
<rect x="877" y="364" width="18" height="6" fill="#75FA4C"/>
<g clip-path="url(#clip0)">
<path d="M749.503 41.1852C752.474 41.1852 755.005 38.6593 755.005 35.4445L755.335 36.8222L807.94 23.0445C808.38 25.8 810.581 27.8667 813.332 27.8667C814.323 27.8667 815.313 27.5222 816.194 27.063L834.022 55.1926C833.802 55.8815 833.582 56.5704 833.582 57.3741C833.582 60.4741 836.003 63.1148 839.084 63.1148C842.056 63.1148 844.587 60.5889 844.587 57.3741C844.587 55.537 843.707 53.9296 842.386 52.8963L858.343 13.8593L865.717 39.2333C864.176 40.2667 863.076 41.9889 863.076 44.0556C863.076 47.2704 865.497 49.7963 868.578 49.7963C871.55 49.7963 874.081 47.2704 874.081 44.0556C874.081 42.9074 873.751 41.8741 873.2 41.0704L885.856 27.1778C886.627 27.637 887.507 27.9815 888.497 27.9815C891.469 27.9815 894 25.4556 894 22.2407C894 19.1407 891.579 16.5 888.497 16.5C885.526 16.5 882.995 19.0259 882.995 22.2407C882.995 23.3889 883.325 24.4222 883.875 25.2259L871.219 39.1185C870.449 38.6593 869.569 38.4296 868.578 38.4296C868.468 38.4296 868.468 38.4296 868.358 38.4296L860.544 11.6778C862.085 10.6445 863.186 8.92223 863.186 6.85556C863.186 3.75556 860.764 1.11482 857.683 1.11482C854.602 1.11482 852.18 3.64075 852.18 6.85556C852.18 9.38149 853.831 11.563 856.032 12.2519L839.745 51.6333C839.525 51.6333 839.194 51.5185 838.974 51.5185C837.764 51.5185 836.553 51.9778 835.673 52.6667L818.065 24.7667C818.505 23.963 818.725 23.0444 818.725 22.0111C818.725 18.9111 816.304 16.2704 813.222 16.2704C810.911 16.2704 808.93 17.763 808.16 19.9445L754.785 34.0667C754.125 31.5407 752.034 29.7037 749.503 29.7037C746.421 29.7037 744 32.2296 744 35.4445C744 38.6593 746.421 41.1852 749.503 41.1852Z" fill="#75FA4C"/>
</g>
<g clip-path="url(#clip1)">
<path d="M504.185 323.497C504.185 320.526 501.659 317.995 498.444 317.995L499.822 317.665L486.044 265.06C488.8 264.62 490.867 262.419 490.867 259.668C490.867 258.677 490.522 257.687 490.063 256.806L518.193 238.978C518.881 239.198 519.57 239.418 520.374 239.418C523.474 239.418 526.115 236.997 526.115 233.916C526.115 230.944 523.589 228.413 520.374 228.413C518.537 228.413 516.93 229.293 515.896 230.614L476.859 214.657L502.233 207.283C503.267 208.824 504.989 209.924 507.056 209.924C510.27 209.924 512.796 207.503 512.796 204.422C512.796 201.45 510.27 198.919 507.056 198.919C505.907 198.919 504.874 199.249 504.07 199.8L490.178 187.144C490.637 186.373 490.981 185.493 490.981 184.503C490.981 181.531 488.456 179 485.241 179C482.141 179 479.5 181.421 479.5 184.503C479.5 187.474 482.026 190.005 485.241 190.005C486.389 190.005 487.422 189.675 488.226 189.125L502.119 201.781C501.659 202.551 501.43 203.431 501.43 204.422C501.43 204.532 501.43 204.532 501.43 204.642L474.678 212.456C473.644 210.915 471.922 209.814 469.856 209.814C466.756 209.814 464.115 212.236 464.115 215.317C464.115 218.398 466.641 220.82 469.856 220.82C472.381 220.82 474.563 219.169 475.252 216.968L514.633 233.255C514.633 233.475 514.519 233.806 514.519 234.026C514.519 235.236 514.978 236.447 515.667 237.327L487.767 254.935C486.963 254.495 486.044 254.275 485.011 254.275C481.911 254.275 479.27 256.696 479.27 259.778C479.27 262.089 480.763 264.07 482.944 264.84L497.067 318.215C494.541 318.875 492.704 320.966 492.704 323.497C492.704 326.579 495.23 329 498.444 329C501.659 329 504.185 326.579 504.185 323.497Z" fill="#75FA4C"/>
</g>
<circle cx="122" cy="458" r="5" fill="#0020F5"/>
<circle cx="147" cy="458" r="5" fill="#0020F5"/>
<circle cx="97" cy="483" r="5" fill="#0020F5"/>
<circle cx="122" cy="483" r="5" fill="#0020F5"/>
<circle cx="147" cy="483" r="5" fill="#0020F5"/>
<circle cx="97" cy="508" r="5" fill="#0020F5"/>
<circle cx="122" cy="508" r="5" fill="#0020F5"/>
<circle cx="147" cy="508" r="5" fill="#0020F5"/>
<circle cx="97" cy="458" r="5" fill="#0020F5"/>
<circle cx="122" cy="459" r="6" fill="#0020F5"/>
<circle cx="147" cy="459" r="6" fill="#0020F5"/>
<circle cx="97" cy="483" r="6" fill="#0020F5"/>
<circle cx="122" cy="483" r="6" fill="#0020F5"/>
<circle cx="147" cy="483" r="6" fill="#0020F5"/>
<circle cx="97" cy="507" r="6" fill="#0020F5"/>
<circle cx="122" cy="507" r="6" fill="#0020F5"/>
<circle cx="147" cy="507" r="6" fill="#0020F5"/>
<circle cx="97" cy="459" r="6" fill="#0020F5"/>
<circle cx="863" cy="561" r="6" fill="#E63623"/>
<circle cx="888" cy="561" r="6" fill="#E63623"/>
<circle cx="838" cy="585" r="6" fill="#E63623"/>
<circle cx="863" cy="585" r="6" fill="#E63623"/>
<circle cx="888" cy="585" r="6" fill="#E63623"/>
<circle cx="838" cy="609" r="6" fill="#E63623"/>
<circle cx="863" cy="609" r="6" fill="#E63623"/>
<circle cx="888" cy="609" r="6" fill="#E63623"/>
<circle cx="838" cy="561" r="6" fill="#E63623"/>
<path d="M623 582C623 582.788 622.325 583.35 621.65 583.35H609.833C609.045 583.35 608.482 582.675 608.482 582C608.482 581.212 609.158 580.65 609.833 580.65H621.65C622.437 580.65 623 581.212 623 582Z" fill="white"/>
<path d="M567.63 582C567.63 582.788 566.955 583.35 566.28 583.35H554.35C553.563 583.35 553 582.675 553 582C553 581.212 553.675 580.65 554.35 580.65H566.167C566.955 580.65 567.63 581.212 567.63 582Z" fill="white"/>
<path d="M589.35 603.833V615.65C589.35 616.437 588.675 617 588 617C587.212 617 586.65 616.325 586.65 615.65V603.833C586.65 603.045 587.325 602.482 588 602.482C588.788 602.37 589.35 603.045 589.35 603.833Z" fill="white"/>
<path d="M589.35 548.35V560.167C589.35 560.955 588.675 561.518 588 561.518C587.212 561.518 586.65 560.842 586.65 560.167V548.35C586.65 547.563 587.325 547 588 547C588.788 547 589.35 547.675 589.35 548.35Z" fill="white"/>
<path d="M601.73 613.286C601.73 613.849 601.392 614.412 600.83 614.637C600.154 614.974 599.254 614.524 599.029 613.849L594.64 602.82C594.302 602.145 594.752 601.244 595.428 601.019C596.103 600.682 597.003 601.132 597.228 601.807L601.617 612.836C601.73 612.949 601.73 613.061 601.73 613.286Z" fill="white"/>
<path d="M581.36 561.743C581.36 562.305 581.023 562.868 580.46 563.093C579.785 563.431 578.884 562.981 578.659 562.305L574.383 551.277C574.045 550.601 574.495 549.701 575.17 549.476C575.846 549.251 576.746 549.588 576.971 550.264L581.36 561.293C581.36 561.405 581.36 561.63 581.36 561.743Z" fill="white"/>
<path d="M620.074 595.73C620.074 595.955 620.074 596.068 619.961 596.293C619.624 596.968 618.836 597.305 618.161 596.968L607.357 592.129C606.682 591.791 606.344 591.003 606.682 590.328C607.019 589.653 607.807 589.315 608.482 589.653L619.286 594.492C619.736 594.717 620.074 595.28 620.074 595.73Z" fill="white"/>
<path d="M569.543 573.109C569.543 573.334 569.543 573.447 569.431 573.672C569.093 574.347 568.305 574.685 567.63 574.347L556.714 569.508C556.039 569.17 555.701 568.383 556.039 567.707C556.376 567.032 557.164 566.695 557.839 567.032L568.643 571.871C569.206 572.096 569.543 572.547 569.543 573.109Z" fill="white"/>
<path d="M612.421 606.421C612.421 606.759 612.309 607.209 611.971 607.434C611.408 607.997 610.508 607.884 609.945 607.322L601.955 598.768C601.392 598.206 601.392 597.305 601.955 596.855C602.518 596.293 603.418 596.405 603.981 596.855L612.084 605.521C612.309 605.746 612.421 606.084 612.421 606.421Z" fill="white"/>
<path d="M574.495 566.132C574.495 566.469 574.383 566.92 574.045 567.145C573.482 567.707 572.582 567.595 572.019 567.032L563.916 558.367C563.354 557.916 563.466 557.016 564.029 556.566C564.592 556.003 565.379 556.003 565.942 556.566L574.045 565.232C574.383 565.457 574.495 565.794 574.495 566.132Z" fill="white"/>
<path d="M581.585 602.37C581.585 602.482 581.585 602.707 581.473 602.82L577.196 613.849C576.971 614.524 576.071 614.974 575.396 614.637C574.72 614.412 574.27 613.511 574.608 612.836L578.884 601.807C579.109 601.132 580.01 600.682 580.685 601.019C581.248 601.244 581.585 601.807 581.585 602.37Z" fill="white"/>
<path d="M601.392 550.601C601.392 550.714 601.392 550.939 601.28 551.051L597.003 562.08C596.778 562.756 595.878 563.206 595.203 562.868C594.527 562.643 594.077 561.743 594.415 561.068L598.691 550.039C598.916 549.363 599.817 548.913 600.492 549.251C601.055 549.476 601.392 550.039 601.392 550.601Z" fill="white"/>
<path d="M573.932 597.418C573.932 597.756 573.82 598.093 573.482 598.431L565.042 606.759C564.479 607.322 563.579 607.322 563.016 606.759C562.453 606.196 562.453 605.296 563.016 604.733L571.344 596.405C571.907 595.842 572.807 595.842 573.37 596.405C573.82 596.63 573.932 597.08 573.932 597.418Z" fill="white"/>
<path d="M613.209 558.254C613.209 558.592 613.097 558.929 612.759 559.267L604.318 567.595C603.756 568.158 602.855 568.158 602.293 567.595C601.73 567.032 601.73 566.132 602.293 565.569L610.733 557.241C611.296 556.678 612.196 556.678 612.759 557.241C613.097 557.579 613.209 557.916 613.209 558.254Z" fill="white"/>
<path d="M569.318 590.328C569.318 590.891 568.981 591.341 568.418 591.566L557.502 596.068C556.826 596.405 555.926 596.068 555.701 595.28C555.363 594.605 555.701 593.704 556.489 593.479L567.405 588.978C568.08 588.64 568.981 588.978 569.206 589.765C569.206 589.99 569.318 590.103 569.318 590.328Z" fill="white"/>
<path d="M620.524 569.17C620.524 569.733 620.187 570.183 619.624 570.408L608.707 574.91C608.032 575.248 607.132 574.91 606.907 574.122C606.569 573.447 606.907 572.547 607.695 572.322L618.611 567.82C619.286 567.482 620.187 567.82 620.412 568.608C620.412 568.833 620.524 569.058 620.524 569.17Z" fill="white"/>
<rect x="363" y="179" width="63" height="63" fill="white"/>
<path d="M93.404 553.8H106.508V557.076H101.672V572H98.24V557.076H93.404V553.8ZM113.276 572H110V553.8H113.276V561.184H113.744C114.073 560.404 114.559 559.806 115.2 559.39C115.841 558.957 116.63 558.74 117.566 558.74C118.207 558.74 118.797 558.844 119.334 559.052C119.871 559.26 120.339 559.572 120.738 559.988C121.137 560.404 121.449 560.941 121.674 561.6C121.899 562.241 122.012 563.004 122.012 563.888V572H118.736V564.668C118.736 563.749 118.511 563.03 118.06 562.51C117.627 561.973 116.994 561.704 116.162 561.704C115.191 561.704 114.463 562.033 113.978 562.692C113.51 563.333 113.276 564.2 113.276 565.292V572ZM128.754 566.618C128.771 566.999 128.858 567.355 129.014 567.684C129.187 567.996 129.413 568.273 129.69 568.516C129.985 568.741 130.314 568.923 130.678 569.062C131.059 569.183 131.458 569.244 131.874 569.244C132.689 569.244 133.313 569.105 133.746 568.828C134.179 568.533 134.491 568.187 134.682 567.788L137.49 569.348C137.334 569.677 137.117 570.024 136.84 570.388C136.563 570.735 136.199 571.055 135.748 571.35C135.315 571.645 134.777 571.887 134.136 572.078C133.512 572.269 132.775 572.364 131.926 572.364C130.955 572.364 130.071 572.208 129.274 571.896C128.477 571.584 127.783 571.133 127.194 570.544C126.622 569.955 126.171 569.235 125.842 568.386C125.53 567.537 125.374 566.575 125.374 565.5V565.344C125.374 564.356 125.539 563.455 125.868 562.64C126.215 561.825 126.683 561.132 127.272 560.56C127.861 559.988 128.546 559.546 129.326 559.234C130.123 558.905 130.973 558.74 131.874 558.74C132.983 558.74 133.937 558.939 134.734 559.338C135.531 559.719 136.19 560.213 136.71 560.82C137.23 561.409 137.611 562.068 137.854 562.796C138.097 563.507 138.218 564.2 138.218 564.876V566.618H128.754ZM131.848 561.704C131.016 561.704 130.34 561.921 129.82 562.354C129.3 562.77 128.962 563.255 128.806 563.81H134.89C134.786 563.203 134.457 562.701 133.902 562.302C133.365 561.903 132.68 561.704 131.848 561.704ZM157.604 559.104H161.27V556.452C161.27 555.707 161.521 555.083 162.024 554.58C162.526 554.06 163.15 553.8 163.896 553.8H169.148V556.92H165.248C164.78 556.92 164.546 557.18 164.546 557.7V559.104H169.616V562.224H164.546V572H161.27V562.224H157.604V559.104ZM186.264 565.708C186.264 566.783 186.082 567.736 185.718 568.568C185.354 569.383 184.86 570.076 184.236 570.648C183.612 571.203 182.892 571.627 182.078 571.922C181.28 572.217 180.44 572.364 179.556 572.364C178.672 572.364 177.822 572.217 177.008 571.922C176.21 571.627 175.5 571.203 174.876 570.648C174.252 570.076 173.758 569.383 173.394 568.568C173.03 567.736 172.848 566.783 172.848 565.708V565.396C172.848 564.339 173.03 563.403 173.394 562.588C173.758 561.756 174.252 561.054 174.876 560.482C175.5 559.91 176.21 559.477 177.008 559.182C177.822 558.887 178.672 558.74 179.556 558.74C180.44 558.74 181.28 558.887 182.078 559.182C182.892 559.477 183.612 559.91 184.236 560.482C184.86 561.054 185.354 561.756 185.718 562.588C186.082 563.403 186.264 564.339 186.264 565.396V565.708ZM179.556 569.244C180.024 569.244 180.466 569.166 180.882 569.01C181.298 568.854 181.662 568.629 181.974 568.334C182.286 568.039 182.528 567.684 182.702 567.268C182.892 566.835 182.988 566.349 182.988 565.812V565.292C182.988 564.755 182.892 564.278 182.702 563.862C182.528 563.429 182.286 563.065 181.974 562.77C181.662 562.475 181.298 562.25 180.882 562.094C180.466 561.938 180.024 561.86 179.556 561.86C179.088 561.86 178.646 561.938 178.23 562.094C177.814 562.25 177.45 562.475 177.138 562.77C176.826 563.065 176.574 563.429 176.384 563.862C176.21 564.278 176.124 564.755 176.124 565.292V565.812C176.124 566.349 176.21 566.835 176.384 567.268C176.574 567.684 176.826 568.039 177.138 568.334C177.45 568.629 177.814 568.854 178.23 569.01C178.646 569.166 179.088 569.244 179.556 569.244ZM198.284 559.104H201.56V572H198.284V570.128H197.816C197.244 571.619 196.013 572.364 194.124 572.364C193.482 572.364 192.884 572.26 192.33 572.052C191.775 571.844 191.29 571.523 190.874 571.09C190.458 570.657 190.128 570.119 189.886 569.478C189.66 568.819 189.548 568.048 189.548 567.164V559.104H192.824V566.488C192.824 567.407 193.04 568.126 193.474 568.646C193.907 569.149 194.557 569.4 195.424 569.4C196.412 569.4 197.131 569.088 197.582 568.464C198.05 567.823 198.284 566.956 198.284 565.864V559.104ZM208.743 572H205.467V559.104H208.743V561.028H209.211C209.506 560.3 209.983 559.737 210.641 559.338C211.3 558.939 212.071 558.74 212.955 558.74C213.579 558.74 214.16 558.844 214.697 559.052C215.252 559.243 215.737 559.546 216.153 559.962C216.569 560.378 216.89 560.907 217.115 561.548C217.358 562.189 217.479 562.952 217.479 563.836V572H214.203V564.668C214.203 563.749 213.978 563.03 213.527 562.51C213.094 561.973 212.461 561.704 211.629 561.704C210.659 561.704 209.931 562.033 209.445 562.692C208.977 563.333 208.743 564.2 208.743 565.292V572ZM230.643 570.128H230.175C230.037 570.423 229.863 570.709 229.655 570.986C229.465 571.246 229.205 571.48 228.875 571.688C228.563 571.896 228.182 572.061 227.731 572.182C227.298 572.303 226.769 572.364 226.145 572.364C225.348 572.364 224.603 572.225 223.909 571.948C223.233 571.653 222.635 571.229 222.115 570.674C221.613 570.102 221.214 569.409 220.919 568.594C220.642 567.779 220.503 566.843 220.503 565.786V565.318C220.503 564.278 220.651 563.351 220.945 562.536C221.257 561.721 221.673 561.037 222.193 560.482C222.731 559.91 223.346 559.477 224.039 559.182C224.75 558.887 225.495 558.74 226.275 558.74C227.315 558.74 228.139 558.939 228.745 559.338C229.352 559.719 229.829 560.265 230.175 560.976H230.643V553.8H233.919V572H230.643V570.128ZM227.211 569.244C228.234 569.244 229.057 568.923 229.681 568.282C230.323 567.623 230.643 566.765 230.643 565.708V565.396C230.643 564.339 230.323 563.489 229.681 562.848C229.057 562.189 228.234 561.86 227.211 561.86C226.189 561.86 225.357 562.181 224.715 562.822C224.091 563.446 223.779 564.304 223.779 565.396V565.708C223.779 566.8 224.091 567.667 224.715 568.308C225.357 568.932 226.189 569.244 227.211 569.244ZM245.653 570.128C245.307 570.943 244.821 571.523 244.197 571.87C243.573 572.199 242.845 572.364 242.013 572.364C241.233 572.364 240.497 572.217 239.803 571.922C239.127 571.627 238.529 571.194 238.009 570.622C237.489 570.05 237.073 569.357 236.761 568.542C236.467 567.727 236.319 566.8 236.319 565.76V565.344C236.319 564.321 236.467 563.403 236.761 562.588C237.056 561.773 237.455 561.08 237.957 560.508C238.46 559.936 239.041 559.503 239.699 559.208C240.375 558.896 241.095 558.74 241.857 558.74C242.776 558.74 243.513 558.896 244.067 559.208C244.639 559.52 245.09 560.005 245.419 560.664H245.887V559.104H249.163V568.1C249.163 568.62 249.397 568.88 249.865 568.88H250.359V572H248.123C247.534 572 247.049 571.827 246.667 571.48C246.303 571.133 246.121 570.683 246.121 570.128H245.653ZM242.741 569.244C243.695 569.244 244.457 568.932 245.029 568.308C245.601 567.667 245.887 566.8 245.887 565.708V565.396C245.887 564.304 245.601 563.446 245.029 562.822C244.457 562.181 243.695 561.86 242.741 561.86C241.788 561.86 241.025 562.181 240.453 562.822C239.881 563.446 239.595 564.304 239.595 565.396V565.708C239.595 566.8 239.881 567.667 240.453 568.308C241.025 568.932 241.788 569.244 242.741 569.244ZM252.863 559.104H256.685V553.8H259.961V559.104H264.615V562.224H259.961V568.1C259.961 568.62 260.195 568.88 260.663 568.88H264.147V572H258.687C258.098 572 257.613 571.809 257.231 571.428C256.867 571.047 256.685 570.561 256.685 569.972V562.224H252.863V559.104ZM269.381 568.88H273.749V562.224H269.693V559.104H277.025V568.88H280.769V572H269.381V568.88ZM277.831 555.282C277.831 555.629 277.762 555.958 277.623 556.27C277.502 556.565 277.328 556.825 277.103 557.05C276.878 557.258 276.609 557.431 276.297 557.57C276.002 557.691 275.69 557.752 275.361 557.752C275.014 557.752 274.694 557.691 274.399 557.57C274.104 557.431 273.844 557.258 273.619 557.05C273.394 556.825 273.212 556.565 273.073 556.27C272.952 555.958 272.891 555.629 272.891 555.282C272.891 554.935 272.952 554.615 273.073 554.32C273.212 554.008 273.394 553.748 273.619 553.54C273.844 553.315 274.104 553.141 274.399 553.02C274.694 552.881 275.014 552.812 275.361 552.812C275.69 552.812 276.002 552.881 276.297 553.02C276.609 553.141 276.878 553.315 277.103 553.54C277.328 553.748 277.502 554.008 277.623 554.32C277.762 554.615 277.831 554.935 277.831 555.282ZM297.703 565.708C297.703 566.783 297.521 567.736 297.157 568.568C296.793 569.383 296.299 570.076 295.675 570.648C295.051 571.203 294.332 571.627 293.517 571.922C292.72 572.217 291.879 572.364 290.995 572.364C290.111 572.364 289.262 572.217 288.447 571.922C287.65 571.627 286.939 571.203 286.315 570.648C285.691 570.076 285.197 569.383 284.833 568.568C284.469 567.736 284.287 566.783 284.287 565.708V565.396C284.287 564.339 284.469 563.403 284.833 562.588C285.197 561.756 285.691 561.054 286.315 560.482C286.939 559.91 287.65 559.477 288.447 559.182C289.262 558.887 290.111 558.74 290.995 558.74C291.879 558.74 292.72 558.887 293.517 559.182C294.332 559.477 295.051 559.91 295.675 560.482C296.299 561.054 296.793 561.756 297.157 562.588C297.521 563.403 297.703 564.339 297.703 565.396V565.708ZM290.995 569.244C291.463 569.244 291.905 569.166 292.321 569.01C292.737 568.854 293.101 568.629 293.413 568.334C293.725 568.039 293.968 567.684 294.141 567.268C294.332 566.835 294.427 566.349 294.427 565.812V565.292C294.427 564.755 294.332 564.278 294.141 563.862C293.968 563.429 293.725 563.065 293.413 562.77C293.101 562.475 292.737 562.25 292.321 562.094C291.905 561.938 291.463 561.86 290.995 561.86C290.527 561.86 290.085 561.938 289.669 562.094C289.253 562.25 288.889 562.475 288.577 562.77C288.265 563.065 288.014 563.429 287.823 563.862C287.65 564.278 287.563 564.755 287.563 565.292V565.812C287.563 566.349 287.65 566.835 287.823 567.268C288.014 567.684 288.265 568.039 288.577 568.334C288.889 568.629 289.253 568.854 289.669 569.01C290.085 569.166 290.527 569.244 290.995 569.244ZM304.263 572H300.987V559.104H304.263V561.028H304.731C305.026 560.3 305.502 559.737 306.161 559.338C306.82 558.939 307.591 558.74 308.475 558.74C309.099 558.74 309.68 558.844 310.217 559.052C310.772 559.243 311.257 559.546 311.673 559.962C312.089 560.378 312.41 560.907 312.635 561.548C312.878 562.189 312.999 562.952 312.999 563.836V572H309.723V564.668C309.723 563.749 309.498 563.03 309.047 562.51C308.614 561.973 307.981 561.704 307.149 561.704C306.178 561.704 305.45 562.033 304.965 562.692C304.497 563.333 304.263 564.2 304.263 565.292V572ZM325.253 570.128C324.906 570.943 324.421 571.523 323.797 571.87C323.173 572.199 322.445 572.364 321.613 572.364C320.833 572.364 320.096 572.217 319.403 571.922C318.727 571.627 318.129 571.194 317.609 570.622C317.089 570.05 316.673 569.357 316.361 568.542C316.066 567.727 315.919 566.8 315.919 565.76V565.344C315.919 564.321 316.066 563.403 316.361 562.588C316.656 561.773 317.054 561.08 317.557 560.508C318.06 559.936 318.64 559.503 319.299 559.208C319.975 558.896 320.694 558.74 321.457 558.74C322.376 558.74 323.112 558.896 323.667 559.208C324.239 559.52 324.69 560.005 325.019 560.664H325.487V559.104H328.763V568.1C328.763 568.62 328.997 568.88 329.465 568.88H329.959V572H327.723C327.134 572 326.648 571.827 326.267 571.48C325.903 571.133 325.721 570.683 325.721 570.128H325.253ZM322.341 569.244C323.294 569.244 324.057 568.932 324.629 568.308C325.201 567.667 325.487 566.8 325.487 565.708V565.396C325.487 564.304 325.201 563.446 324.629 562.822C324.057 562.181 323.294 561.86 322.341 561.86C321.388 561.86 320.625 562.181 320.053 562.822C319.481 563.446 319.195 564.304 319.195 565.396V565.708C319.195 566.8 319.481 567.667 320.053 568.308C320.625 568.932 321.388 569.244 322.341 569.244ZM332.749 568.88H337.273V556.92H332.905V553.8H340.549V568.88H344.761V572H332.749V568.88ZM373.403 559.104H376.679V572H373.403V570.128H372.935C372.363 571.619 371.132 572.364 369.243 572.364C368.601 572.364 368.003 572.26 367.449 572.052C366.894 571.844 366.409 571.523 365.993 571.09C365.577 570.657 365.247 570.119 365.005 569.478C364.779 568.819 364.667 568.048 364.667 567.164V559.104H367.943V566.488C367.943 567.407 368.159 568.126 368.593 568.646C369.026 569.149 369.676 569.4 370.543 569.4C371.531 569.4 372.25 569.088 372.701 568.464C373.169 567.823 373.403 566.956 373.403 565.864V559.104ZM384.695 562.744C384.695 563.16 384.911 563.463 385.345 563.654C385.778 563.827 386.567 563.975 387.711 564.096C389.028 564.235 390.103 564.633 390.935 565.292C391.767 565.933 392.183 566.835 392.183 567.996V568.152C392.183 569.435 391.715 570.457 390.779 571.22C389.843 571.983 388.525 572.364 386.827 572.364C385.821 572.364 384.963 572.234 384.253 571.974C383.542 571.714 382.953 571.393 382.485 571.012C382.017 570.613 381.653 570.18 381.393 569.712C381.15 569.227 380.985 568.759 380.899 568.308L383.915 567.32C384.053 567.875 384.339 568.36 384.773 568.776C385.223 569.192 385.908 569.4 386.827 569.4C387.641 569.4 388.196 569.279 388.491 569.036C388.803 568.776 388.959 568.499 388.959 568.204C388.959 568.031 388.915 567.875 388.829 567.736C388.759 567.58 388.621 567.441 388.413 567.32C388.205 567.181 387.919 567.069 387.555 566.982C387.208 566.895 386.766 566.826 386.229 566.774C384.773 566.653 383.611 566.28 382.745 565.656C381.895 565.015 381.471 564.079 381.471 562.848V562.692C381.471 562.051 381.609 561.487 381.887 561.002C382.164 560.517 382.528 560.109 382.979 559.78C383.429 559.433 383.949 559.173 384.539 559C385.128 558.827 385.735 558.74 386.359 558.74C387.173 558.74 387.875 558.844 388.465 559.052C389.071 559.243 389.583 559.503 389.999 559.832C390.415 560.144 390.753 560.499 391.013 560.898C391.273 561.279 391.472 561.652 391.611 562.016L388.647 563.212C388.491 562.744 388.222 562.38 387.841 562.12C387.459 561.843 386.965 561.704 386.359 561.704C385.804 561.704 385.388 561.808 385.111 562.016C384.833 562.207 384.695 562.449 384.695 562.744ZM399.393 566.618C399.41 566.999 399.497 567.355 399.653 567.684C399.826 567.996 400.051 568.273 400.329 568.516C400.623 568.741 400.953 568.923 401.317 569.062C401.698 569.183 402.097 569.244 402.513 569.244C403.327 569.244 403.951 569.105 404.385 568.828C404.818 568.533 405.13 568.187 405.321 567.788L408.129 569.348C407.973 569.677 407.756 570.024 407.479 570.388C407.201 570.735 406.837 571.055 406.387 571.35C405.953 571.645 405.416 571.887 404.775 572.078C404.151 572.269 403.414 572.364 402.565 572.364C401.594 572.364 400.71 572.208 399.913 571.896C399.115 571.584 398.422 571.133 397.833 570.544C397.261 569.955 396.81 569.235 396.481 568.386C396.169 567.537 396.013 566.575 396.013 565.5V565.344C396.013 564.356 396.177 563.455 396.507 562.64C396.853 561.825 397.321 561.132 397.911 560.56C398.5 559.988 399.185 559.546 399.965 559.234C400.762 558.905 401.611 558.74 402.513 558.74C403.622 558.74 404.575 558.939 405.373 559.338C406.17 559.719 406.829 560.213 407.349 560.82C407.869 561.409 408.25 562.068 408.493 562.796C408.735 563.507 408.857 564.2 408.857 564.876V566.618H399.393ZM402.487 561.704C401.655 561.704 400.979 561.921 400.459 562.354C399.939 562.77 399.601 563.255 399.445 563.81H405.529C405.425 563.203 405.095 562.701 404.541 562.302C404.003 561.903 403.319 561.704 402.487 561.704ZM411.802 559.104H417.262V560.976H417.73C417.973 560.265 418.38 559.719 418.952 559.338C419.542 558.939 420.244 558.74 421.058 558.74C422.341 558.74 423.372 559.147 424.152 559.962C424.932 560.759 425.322 561.981 425.322 563.628V564.2L421.942 564.512V564.148C421.942 563.437 421.76 562.874 421.396 562.458C421.032 562.025 420.486 561.808 419.758 561.808C419.03 561.808 418.458 562.059 418.042 562.562C417.626 563.065 417.418 563.784 417.418 564.72V568.88H420.382V572H411.49V568.88H414.142V562.224H411.802V559.104ZM430.218 563.368H438.33V566.332H430.218V563.368ZM448.374 562.744C448.374 563.16 448.591 563.463 449.024 563.654C449.458 563.827 450.246 563.975 451.39 564.096C452.708 564.235 453.782 564.633 454.614 565.292C455.446 565.933 455.862 566.835 455.862 567.996V568.152C455.862 569.435 455.394 570.457 454.458 571.22C453.522 571.983 452.205 572.364 450.506 572.364C449.501 572.364 448.643 572.234 447.932 571.974C447.222 571.714 446.632 571.393 446.164 571.012C445.696 570.613 445.332 570.18 445.072 569.712C444.83 569.227 444.665 568.759 444.578 568.308L447.594 567.32C447.733 567.875 448.019 568.36 448.452 568.776C448.903 569.192 449.588 569.4 450.506 569.4C451.321 569.4 451.876 569.279 452.17 569.036C452.482 568.776 452.638 568.499 452.638 568.204C452.638 568.031 452.595 567.875 452.508 567.736C452.439 567.58 452.3 567.441 452.092 567.32C451.884 567.181 451.598 567.069 451.234 566.982C450.888 566.895 450.446 566.826 449.908 566.774C448.452 566.653 447.291 566.28 446.424 565.656C445.575 565.015 445.15 564.079 445.15 562.848V562.692C445.15 562.051 445.289 561.487 445.566 561.002C445.844 560.517 446.208 560.109 446.658 559.78C447.109 559.433 447.629 559.173 448.218 559C448.808 558.827 449.414 558.74 450.038 558.74C450.853 558.74 451.555 558.844 452.144 559.052C452.751 559.243 453.262 559.503 453.678 559.832C454.094 560.144 454.432 560.499 454.692 560.898C454.952 561.279 455.152 561.652 455.29 562.016L452.326 563.212C452.17 562.744 451.902 562.38 451.52 562.12C451.139 561.843 450.645 561.704 450.038 561.704C449.484 561.704 449.068 561.808 448.79 562.016C448.513 562.207 448.374 562.449 448.374 562.744ZM462.786 577.2H459.51V559.104H462.786V560.976H463.254C463.601 560.265 464.104 559.719 464.762 559.338C465.421 558.939 466.262 558.74 467.284 558.74C468.047 558.74 468.766 558.887 469.442 559.182C470.136 559.477 470.734 559.91 471.236 560.482C471.756 561.037 472.164 561.721 472.458 562.536C472.77 563.351 472.926 564.278 472.926 565.318V565.786C472.926 566.843 472.779 567.779 472.484 568.594C472.19 569.409 471.791 570.102 471.288 570.674C470.786 571.229 470.188 571.653 469.494 571.948C468.818 572.225 468.082 572.364 467.284 572.364C466.695 572.364 466.184 572.303 465.75 572.182C465.317 572.061 464.936 571.896 464.606 571.688C464.294 571.48 464.026 571.246 463.8 570.986C463.592 570.709 463.41 570.423 463.254 570.128H462.786V577.2ZM466.218 569.244C467.241 569.244 468.064 568.932 468.688 568.308C469.33 567.667 469.65 566.8 469.65 565.708V565.396C469.65 564.304 469.33 563.446 468.688 562.822C468.064 562.181 467.241 561.86 466.218 561.86C465.196 561.86 464.364 562.189 463.722 562.848C463.098 563.489 462.786 564.339 462.786 565.396V565.708C462.786 566.765 463.098 567.623 463.722 568.282C464.364 568.923 465.196 569.244 466.218 569.244ZM484.452 570.128C484.105 570.943 483.62 571.523 482.996 571.87C482.372 572.199 481.644 572.364 480.812 572.364C480.032 572.364 479.295 572.217 478.602 571.922C477.926 571.627 477.328 571.194 476.808 570.622C476.288 570.05 475.872 569.357 475.56 568.542C475.265 567.727 475.118 566.8 475.118 565.76V565.344C475.118 564.321 475.265 563.403 475.56 562.588C475.855 561.773 476.253 561.08 476.756 560.508C477.259 559.936 477.839 559.503 478.498 559.208C479.174 558.896 479.893 558.74 480.656 558.74C481.575 558.74 482.311 558.896 482.866 559.208C483.438 559.52 483.889 560.005 484.218 560.664H484.686V559.104H487.962V568.1C487.962 568.62 488.196 568.88 488.664 568.88H489.158V572H486.922C486.333 572 485.847 571.827 485.466 571.48C485.102 571.133 484.92 570.683 484.92 570.128H484.452ZM481.54 569.244C482.493 569.244 483.256 568.932 483.828 568.308C484.4 567.667 484.686 566.8 484.686 565.708V565.396C484.686 564.304 484.4 563.446 483.828 562.822C483.256 562.181 482.493 561.86 481.54 561.86C480.587 561.86 479.824 562.181 479.252 562.822C478.68 563.446 478.394 564.304 478.394 565.396V565.708C478.394 566.8 478.68 567.667 479.252 568.308C479.824 568.932 480.587 569.244 481.54 569.244ZM504.61 567.268C504.315 568.793 503.613 570.024 502.504 570.96C501.412 571.896 499.947 572.364 498.11 572.364C497.157 572.364 496.264 572.217 495.432 571.922C494.617 571.627 493.907 571.203 493.3 570.648C492.693 570.093 492.217 569.409 491.87 568.594C491.523 567.779 491.35 566.852 491.35 565.812V565.5C491.35 564.46 491.523 563.524 491.87 562.692C492.217 561.86 492.693 561.149 493.3 560.56C493.924 559.971 494.643 559.52 495.458 559.208C496.29 558.896 497.174 558.74 498.11 558.74C499.913 558.74 501.369 559.208 502.478 560.144C503.605 561.08 504.315 562.311 504.61 563.836L501.386 564.668C501.282 563.905 500.953 563.247 500.398 562.692C499.843 562.137 499.063 561.86 498.058 561.86C497.59 561.86 497.148 561.947 496.732 562.12C496.316 562.293 495.952 562.545 495.64 562.874C495.328 563.186 495.077 563.576 494.886 564.044C494.713 564.495 494.626 565.006 494.626 565.578V565.734C494.626 566.306 494.713 566.817 494.886 567.268C495.077 567.701 495.328 568.065 495.64 568.36C495.952 568.655 496.316 568.88 496.732 569.036C497.148 569.175 497.59 569.244 498.058 569.244C499.063 569.244 499.826 568.993 500.346 568.49C500.883 567.987 501.23 567.311 501.386 566.462L504.61 567.268ZM510.832 566.618C510.849 566.999 510.936 567.355 511.092 567.684C511.265 567.996 511.491 568.273 511.768 568.516C512.063 568.741 512.392 568.923 512.756 569.062C513.137 569.183 513.536 569.244 513.952 569.244C514.767 569.244 515.391 569.105 515.824 568.828C516.257 568.533 516.569 568.187 516.76 567.788L519.568 569.348C519.412 569.677 519.195 570.024 518.918 570.388C518.641 570.735 518.277 571.055 517.826 571.35C517.393 571.645 516.855 571.887 516.214 572.078C515.59 572.269 514.853 572.364 514.004 572.364C513.033 572.364 512.149 572.208 511.352 571.896C510.555 571.584 509.861 571.133 509.272 570.544C508.7 569.955 508.249 569.235 507.92 568.386C507.608 567.537 507.452 566.575 507.452 565.5V565.344C507.452 564.356 507.617 563.455 507.946 562.64C508.293 561.825 508.761 561.132 509.35 560.56C509.939 559.988 510.624 559.546 511.404 559.234C512.201 558.905 513.051 558.74 513.952 558.74C515.061 558.74 516.015 558.939 516.812 559.338C517.609 559.719 518.268 560.213 518.788 560.82C519.308 561.409 519.689 562.068 519.932 562.796C520.175 563.507 520.296 564.2 520.296 564.876V566.618H510.832ZM513.926 561.704C513.094 561.704 512.418 561.921 511.898 562.354C511.378 562.77 511.04 563.255 510.884 563.81H516.968C516.864 563.203 516.535 562.701 515.98 562.302C515.443 561.903 514.758 561.704 513.926 561.704ZM94.132 589.8H97.564V604.724H105.832V608H94.132V589.8ZM110.182 604.88H114.55V598.224H110.494V595.104H117.826V604.88H121.57V608H110.182V604.88ZM118.632 591.282C118.632 591.629 118.563 591.958 118.424 592.27C118.303 592.565 118.129 592.825 117.904 593.05C117.679 593.258 117.41 593.431 117.098 593.57C116.803 593.691 116.491 593.752 116.162 593.752C115.815 593.752 115.495 593.691 115.2 593.57C114.905 593.431 114.645 593.258 114.42 593.05C114.195 592.825 114.013 592.565 113.874 592.27C113.753 591.958 113.692 591.629 113.692 591.282C113.692 590.935 113.753 590.615 113.874 590.32C114.013 590.008 114.195 589.748 114.42 589.54C114.645 589.315 114.905 589.141 115.2 589.02C115.495 588.881 115.815 588.812 116.162 588.812C116.491 588.812 116.803 588.881 117.098 589.02C117.41 589.141 117.679 589.315 117.904 589.54C118.129 589.748 118.303 590.008 118.424 590.32C118.563 590.615 118.632 590.935 118.632 591.282ZM129.144 608H125.868V595.104H129.144V597.028H129.612C129.907 596.3 130.383 595.737 131.042 595.338C131.701 594.939 132.472 594.74 133.356 594.74C133.98 594.74 134.561 594.844 135.098 595.052C135.653 595.243 136.138 595.546 136.554 595.962C136.97 596.378 137.291 596.907 137.516 597.548C137.759 598.189 137.88 598.952 137.88 599.836V608H134.604V600.668C134.604 599.749 134.379 599.03 133.928 598.51C133.495 597.973 132.862 597.704 132.03 597.704C131.059 597.704 130.331 598.033 129.846 598.692C129.378 599.333 129.144 600.2 129.144 601.292V608ZM150.524 595.104H153.8V608H150.524V606.128H150.056C149.484 607.619 148.253 608.364 146.364 608.364C145.722 608.364 145.124 608.26 144.57 608.052C144.015 607.844 143.53 607.523 143.114 607.09C142.698 606.657 142.368 606.119 142.126 605.478C141.9 604.819 141.788 604.048 141.788 603.164V595.104H145.064V602.488C145.064 603.407 145.28 604.126 145.714 604.646C146.147 605.149 146.797 605.4 147.664 605.4C148.652 605.4 149.371 605.088 149.822 604.464C150.29 603.823 150.524 602.956 150.524 601.864V595.104ZM166.262 595.104H169.876L166.756 601.162V601.63L170.058 608H166.288L163.87 602.956H163.402L160.984 608H157.214L160.516 601.63V601.162L157.37 595.104H161.01L163.402 599.836H163.87L166.262 595.104ZM202.132 603.268C201.837 604.793 201.135 606.024 200.026 606.96C198.934 607.896 197.469 608.364 195.632 608.364C194.678 608.364 193.786 608.217 192.954 607.922C192.139 607.627 191.428 607.203 190.822 606.648C190.215 606.093 189.738 605.409 189.392 604.594C189.045 603.779 188.872 602.852 188.872 601.812V601.5C188.872 600.46 189.045 599.524 189.392 598.692C189.738 597.86 190.215 597.149 190.822 596.56C191.446 595.971 192.165 595.52 192.98 595.208C193.812 594.896 194.696 594.74 195.632 594.74C197.434 594.74 198.89 595.208 200 596.144C201.126 597.08 201.837 598.311 202.132 599.836L198.908 600.668C198.804 599.905 198.474 599.247 197.92 598.692C197.365 598.137 196.585 597.86 195.58 597.86C195.112 597.86 194.67 597.947 194.254 598.12C193.838 598.293 193.474 598.545 193.162 598.874C192.85 599.186 192.598 599.576 192.408 600.044C192.234 600.495 192.148 601.006 192.148 601.578V601.734C192.148 602.306 192.234 602.817 192.408 603.268C192.598 603.701 192.85 604.065 193.162 604.36C193.474 604.655 193.838 604.88 194.254 605.036C194.67 605.175 195.112 605.244 195.58 605.244C196.585 605.244 197.348 604.993 197.868 604.49C198.405 603.987 198.752 603.311 198.908 602.462L202.132 603.268ZM218.103 601.708C218.103 602.783 217.921 603.736 217.557 604.568C217.193 605.383 216.699 606.076 216.075 606.648C215.451 607.203 214.732 607.627 213.917 607.922C213.12 608.217 212.279 608.364 211.395 608.364C210.511 608.364 209.662 608.217 208.847 607.922C208.05 607.627 207.339 607.203 206.715 606.648C206.091 606.076 205.597 605.383 205.233 604.568C204.869 603.736 204.687 602.783 204.687 601.708V601.396C204.687 600.339 204.869 599.403 205.233 598.588C205.597 597.756 206.091 597.054 206.715 596.482C207.339 595.91 208.05 595.477 208.847 595.182C209.662 594.887 210.511 594.74 211.395 594.74C212.279 594.74 213.12 594.887 213.917 595.182C214.732 595.477 215.451 595.91 216.075 596.482C216.699 597.054 217.193 597.756 217.557 598.588C217.921 599.403 218.103 600.339 218.103 601.396V601.708ZM211.395 605.244C211.863 605.244 212.305 605.166 212.721 605.01C213.137 604.854 213.501 604.629 213.813 604.334C214.125 604.039 214.368 603.684 214.541 603.268C214.732 602.835 214.827 602.349 214.827 601.812V601.292C214.827 600.755 214.732 600.278 214.541 599.862C214.368 599.429 214.125 599.065 213.813 598.77C213.501 598.475 213.137 598.25 212.721 598.094C212.305 597.938 211.863 597.86 211.395 597.86C210.927 597.86 210.485 597.938 210.069 598.094C209.653 598.25 209.289 598.475 208.977 598.77C208.665 599.065 208.414 599.429 208.223 599.862C208.05 600.278 207.963 600.755 207.963 601.292V601.812C207.963 602.349 208.05 602.835 208.223 603.268C208.414 603.684 208.665 604.039 208.977 604.334C209.289 604.629 209.653 604.854 210.069 605.01C210.485 605.166 210.927 605.244 211.395 605.244ZM224.663 608H221.387V595.104H224.663V597.028H225.131C225.426 596.3 225.903 595.737 226.561 595.338C227.22 594.939 227.991 594.74 228.875 594.74C229.499 594.74 230.08 594.844 230.617 595.052C231.172 595.243 231.657 595.546 232.073 595.962C232.489 596.378 232.81 596.907 233.035 597.548C233.278 598.189 233.399 598.952 233.399 599.836V608H230.123V600.668C230.123 599.749 229.898 599.03 229.447 598.51C229.014 597.973 228.381 597.704 227.549 597.704C226.579 597.704 225.851 598.033 225.365 598.692C224.897 599.333 224.663 600.2 224.663 601.292V608ZM237.203 595.104H240.869V592.452C240.869 591.707 241.121 591.083 241.623 590.58C242.126 590.06 242.75 589.8 243.495 589.8H248.747V592.92H244.847C244.379 592.92 244.145 593.18 244.145 593.7V595.104H249.215V598.224H244.145V608H240.869V598.224H237.203V595.104ZM256.113 602.618C256.131 602.999 256.217 603.355 256.373 603.684C256.547 603.996 256.772 604.273 257.049 604.516C257.344 604.741 257.673 604.923 258.037 605.062C258.419 605.183 258.817 605.244 259.233 605.244C260.048 605.244 260.672 605.105 261.105 604.828C261.539 604.533 261.851 604.187 262.041 603.788L264.849 605.348C264.693 605.677 264.477 606.024 264.199 606.388C263.922 606.735 263.558 607.055 263.107 607.35C262.674 607.645 262.137 607.887 261.495 608.078C260.871 608.269 260.135 608.364 259.285 608.364C258.315 608.364 257.431 608.208 256.633 607.896C255.836 607.584 255.143 607.133 254.553 606.544C253.981 605.955 253.531 605.235 253.201 604.386C252.889 603.537 252.733 602.575 252.733 601.5V601.344C252.733 600.356 252.898 599.455 253.227 598.64C253.574 597.825 254.042 597.132 254.631 596.56C255.221 595.988 255.905 595.546 256.685 595.234C257.483 594.905 258.332 594.74 259.233 594.74C260.343 594.74 261.296 594.939 262.093 595.338C262.891 595.719 263.549 596.213 264.069 596.82C264.589 597.409 264.971 598.068 265.213 598.796C265.456 599.507 265.577 600.2 265.577 600.876V602.618H256.113ZM259.207 597.704C258.375 597.704 257.699 597.921 257.179 598.354C256.659 598.77 256.321 599.255 256.165 599.81H262.249C262.145 599.203 261.816 598.701 261.261 598.302C260.724 597.903 260.039 597.704 259.207 597.704ZM268.523 595.104H273.983V596.976H274.451C274.694 596.265 275.101 595.719 275.673 595.338C276.262 594.939 276.964 594.74 277.779 594.74C279.062 594.74 280.093 595.147 280.873 595.962C281.653 596.759 282.043 597.981 282.043 599.628V600.2L278.663 600.512V600.148C278.663 599.437 278.481 598.874 278.117 598.458C277.753 598.025 277.207 597.808 276.479 597.808C275.751 597.808 275.179 598.059 274.763 598.562C274.347 599.065 274.139 599.784 274.139 600.72V604.88H277.103V608H268.211V604.88H270.863V598.224H268.523V595.104ZM287.953 602.618C287.97 602.999 288.057 603.355 288.213 603.684C288.386 603.996 288.612 604.273 288.889 604.516C289.184 604.741 289.513 604.923 289.877 605.062C290.258 605.183 290.657 605.244 291.073 605.244C291.888 605.244 292.512 605.105 292.945 604.828C293.378 604.533 293.69 604.187 293.881 603.788L296.689 605.348C296.533 605.677 296.316 606.024 296.039 606.388C295.762 606.735 295.398 607.055 294.947 607.35C294.514 607.645 293.976 607.887 293.335 608.078C292.711 608.269 291.974 608.364 291.125 608.364C290.154 608.364 289.27 608.208 288.473 607.896C287.676 607.584 286.982 607.133 286.393 606.544C285.821 605.955 285.37 605.235 285.041 604.386C284.729 603.537 284.573 602.575 284.573 601.5V601.344C284.573 600.356 284.738 599.455 285.067 598.64C285.414 597.825 285.882 597.132 286.471 596.56C287.06 595.988 287.745 595.546 288.525 595.234C289.322 594.905 290.172 594.74 291.073 594.74C292.182 594.74 293.136 594.939 293.933 595.338C294.73 595.719 295.389 596.213 295.909 596.82C296.429 597.409 296.81 598.068 297.053 598.796C297.296 599.507 297.417 600.2 297.417 600.876V602.618H287.953ZM291.047 597.704C290.215 597.704 289.539 597.921 289.019 598.354C288.499 598.77 288.161 599.255 288.005 599.81H294.089C293.985 599.203 293.656 598.701 293.101 598.302C292.564 597.903 291.879 597.704 291.047 597.704ZM304.263 608H300.987V595.104H304.263V597.028H304.731C305.026 596.3 305.502 595.737 306.161 595.338C306.82 594.939 307.591 594.74 308.475 594.74C309.099 594.74 309.68 594.844 310.217 595.052C310.772 595.243 311.257 595.546 311.673 595.962C312.089 596.378 312.41 596.907 312.635 597.548C312.878 598.189 312.999 598.952 312.999 599.836V608H309.723V600.668C309.723 599.749 309.498 599.03 309.047 598.51C308.614 597.973 307.981 597.704 307.149 597.704C306.178 597.704 305.45 598.033 304.965 598.692C304.497 599.333 304.263 600.2 304.263 601.292V608ZM329.491 603.268C329.196 604.793 328.494 606.024 327.385 606.96C326.293 607.896 324.828 608.364 322.991 608.364C322.038 608.364 321.145 608.217 320.313 607.922C319.498 607.627 318.788 607.203 318.181 606.648C317.574 606.093 317.098 605.409 316.751 604.594C316.404 603.779 316.231 602.852 316.231 601.812V601.5C316.231 600.46 316.404 599.524 316.751 598.692C317.098 597.86 317.574 597.149 318.181 596.56C318.805 595.971 319.524 595.52 320.339 595.208C321.171 594.896 322.055 594.74 322.991 594.74C324.794 594.74 326.25 595.208 327.359 596.144C328.486 597.08 329.196 598.311 329.491 599.836L326.267 600.668C326.163 599.905 325.834 599.247 325.279 598.692C324.724 598.137 323.944 597.86 322.939 597.86C322.471 597.86 322.029 597.947 321.613 598.12C321.197 598.293 320.833 598.545 320.521 598.874C320.209 599.186 319.958 599.576 319.767 600.044C319.594 600.495 319.507 601.006 319.507 601.578V601.734C319.507 602.306 319.594 602.817 319.767 603.268C319.958 603.701 320.209 604.065 320.521 604.36C320.833 604.655 321.197 604.88 321.613 605.036C322.029 605.175 322.471 605.244 322.939 605.244C323.944 605.244 324.707 604.993 325.227 604.49C325.764 603.987 326.111 603.311 326.267 602.462L329.491 603.268ZM335.713 602.618C335.73 602.999 335.817 603.355 335.973 603.684C336.146 603.996 336.371 604.273 336.649 604.516C336.943 604.741 337.273 604.923 337.637 605.062C338.018 605.183 338.417 605.244 338.833 605.244C339.647 605.244 340.271 605.105 340.705 604.828C341.138 604.533 341.45 604.187 341.641 603.788L344.449 605.348C344.293 605.677 344.076 606.024 343.799 606.388C343.521 606.735 343.157 607.055 342.707 607.35C342.273 607.645 341.736 607.887 341.095 608.078C340.471 608.269 339.734 608.364 338.885 608.364C337.914 608.364 337.03 608.208 336.233 607.896C335.435 607.584 334.742 607.133 334.153 606.544C333.581 605.955 333.13 605.235 332.801 604.386C332.489 603.537 332.333 602.575 332.333 601.5V601.344C332.333 600.356 332.497 599.455 332.827 598.64C333.173 597.825 333.641 597.132 334.231 596.56C334.82 595.988 335.505 595.546 336.285 595.234C337.082 594.905 337.931 594.74 338.833 594.74C339.942 594.74 340.895 594.939 341.693 595.338C342.49 595.719 343.149 596.213 343.669 596.82C344.189 597.409 344.57 598.068 344.813 598.796C345.055 599.507 345.177 600.2 345.177 600.876V602.618H335.713ZM338.807 597.704C337.975 597.704 337.299 597.921 336.779 598.354C336.259 598.77 335.921 599.255 335.765 599.81H341.849C341.745 599.203 341.415 598.701 340.861 598.302C340.323 597.903 339.639 597.704 338.807 597.704Z" fill="white"/>
<defs>
<clipPath id="clip0">
<rect width="150" height="62" fill="white" transform="translate(744 1)"/>
</clipPath>
<clipPath id="clip1">
<rect width="150" height="62" fill="white" transform="translate(464 329) rotate(-90)"/>
</clipPath>
</defs>
</svg>
