<?xml version="1.0" encoding="iso-8859-1"?>
<!-- Generator: Adobe Illustrator 23.0.3, SVG Export Plug-In . SVG Version: 6.00 Build 0)  -->
<svg version="1.1"
	 id="svg380" xmlns:cc="http://creativecommons.org/ns#" xmlns:dc="http://purl.org/dc/elements/1.1/" xmlns:inkscape="http://www.inkscape.org/namespaces/inkscape" xmlns:rdf="http://www.w3.org/1999/02/22-rdf-syntax-ns#" xmlns:sodipodi="http://sodipodi.sourceforge.net/DTD/sodipodi-0.dtd" xmlns:svg="http://www.w3.org/2000/svg"
	 xmlns="http://www.w3.org/2000/svg" xmlns:xlink="http://www.w3.org/1999/xlink" x="0px" y="0px" viewBox="0 0 899 617"
	 style="enable-background:new 0 0 899 617;" xml:space="preserve">
<sodipodi:namedview  bordercolor="#666666" borderopacity="1" gridtolerance="10" guidetolerance="10" id="namedview382" inkscape:current-layer="svg380" inkscape:cx="643.55476" inkscape:cy="444.48929" inkscape:pageopacity="0" inkscape:pageshadow="2" inkscape:window-height="2032" inkscape:window-maximized="1" inkscape:window-width="3840" inkscape:window-x="0" inkscape:window-y="54" inkscape:zoom="4" objecttolerance="10" pagecolor="#000000" showgrid="true">
	<inkscape:grid  id="grid1191" type="xygrid"></inkscape:grid>
</sodipodi:namedview>
<circle id="circle2" style="fill:#FFFFFF;" cx="33" cy="212" r="32"/>
<circle id="circle4" style="fill:#75FA4C;" cx="33" cy="298" r="32"/>
<circle id="circle6" style="fill:#75FA4C;" cx="207" cy="298" r="32"/>
<circle id="circle8" style="fill:#FFFFFF;" cx="33" cy="582" r="32"/>
<circle id="circle10" style="fill:#0020F5;" cx="33" cy="483" r="32"/>
<circle id="circle12" style="fill:#E63623;" cx="768" cy="210" r="32"/>
<circle id="circle14" style="fill:#0020F5;" cx="687" cy="32" r="32"/>
<circle id="circle16" style="fill:#FFFFFF;" cx="490" cy="122" r="32"/>
<path id="path18" style="fill:#FFFFFF;" d="M129.102,142.25h-20.23l-2.89,12.75h-11.73l14.195-59.5h21.08l14.195,59.5h-11.73
	L129.102,142.25z M111.252,131.54h15.385l-6.885-30.43h-1.53L111.252,131.54z"/>
<path id="path20" style="fill:#FFFFFF;" d="M99.947,180.5h11.22v48.79h27.03V240h-38.25V180.5z"/>
<path id="path22" style="fill:#FFFFFF;" d="M102.947,268.5h11.22v48.79h27.03V328h-38.25V268.5z"/>
<path id="path24" style="fill:#FFFFFF;" d="M678.077,297.91h25.5V328h-10.2v-6.63h-1.53c-0.68,2.21-1.983,4.08-3.91,5.61
	c-1.927,1.473-4.817,2.21-8.67,2.21c-2.72,0-5.27-0.51-7.65-1.53s-4.448-2.522-6.205-4.505c-1.757-2.04-3.145-4.533-4.165-7.48
	c-1.02-3.003-1.53-6.488-1.53-10.455v-13.94c0-3.853,0.538-7.253,1.615-10.2c1.133-3.003,2.663-5.525,4.59-7.565
	c1.983-2.04,4.335-3.57,7.055-4.59c2.72-1.077,5.723-1.615,9.01-1.615c3.4,0,6.432,0.567,9.095,1.7c2.663,1.077,4.93,2.607,6.8,4.59
	c1.87,1.927,3.287,4.222,4.25,6.885c0.963,2.607,1.445,5.412,1.445,8.415v1.02h-11.22v-1.02c0-3.57-0.935-6.262-2.805-8.075
	c-1.813-1.87-4.392-2.805-7.735-2.805c-3.173,0-5.78,1.077-7.82,3.23c-2.04,2.097-3.06,5.723-3.06,10.88v12.58
	c0,9.18,3.74,13.77,11.22,13.77c3.343,0,5.865-0.878,7.565-2.635c1.757-1.813,2.635-4.222,2.635-7.225h-14.28V297.91z"/>
<path id="path26" style="fill:#FFFFFF;" d="M760.847,298.25c0-1.927,0.708-3.598,2.125-5.015c1.417-1.417,3.088-2.125,5.015-2.125
	s3.598,0.708,5.015,2.125c1.417,1.417,2.125,3.088,2.125,5.015s-0.708,3.598-2.125,5.015c-1.417,1.417-3.088,2.125-5.015,2.125
	s-3.598-0.708-5.015-2.125C761.555,301.848,760.847,300.177,760.847,298.25z M746.057,291.62c0-7.707,1.927-13.685,5.78-17.935
	c3.91-4.25,9.293-6.375,16.15-6.375s12.212,2.125,16.065,6.375c3.91,4.25,5.865,10.228,5.865,17.935v13.26
	c0,7.933-1.955,13.968-5.865,18.105c-3.853,4.137-9.208,6.205-16.065,6.205s-12.24-2.068-16.15-6.205
	c-3.853-4.137-5.78-10.172-5.78-18.105V291.62z M767.987,318.99c2.04,0,3.74-0.312,5.1-0.935c1.36-0.68,2.465-1.615,3.315-2.805
	c0.85-1.19,1.445-2.607,1.785-4.25c0.34-1.643,0.51-3.457,0.51-5.44v-14.62c0-1.87-0.198-3.627-0.595-5.27
	c-0.397-1.643-1.02-3.06-1.87-4.25c-0.85-1.19-1.955-2.125-3.315-2.805c-1.36-0.737-3.003-1.105-4.93-1.105s-3.57,0.368-4.93,1.105
	c-1.36,0.68-2.465,1.615-3.315,2.805c-0.85,1.19-1.473,2.607-1.87,4.25c-0.397,1.643-0.595,3.4-0.595,5.27v14.62
	c0,1.983,0.17,3.797,0.51,5.44c0.34,1.643,0.935,3.06,1.785,4.25c0.85,1.19,1.955,2.125,3.315,2.805
	C764.247,318.678,765.947,318.99,767.987,318.99z"/>
<path id="path28" style="fill:#FFFFFF;" d="M867.597,267.5v41.48h-11.22V267.5H867.597z M870.062,320.115
	c0,1.133-0.227,2.21-0.68,3.23c-0.397,0.963-0.963,1.813-1.7,2.55c-0.737,0.68-1.615,1.218-2.635,1.615
	c-0.963,0.453-1.983,0.68-3.06,0.68c-1.133,0-2.182-0.227-3.145-0.68c-0.963-0.397-1.813-0.935-2.55-1.615
	c-0.737-0.737-1.332-1.587-1.785-2.55c-0.397-1.02-0.595-2.097-0.595-3.23s0.198-2.182,0.595-3.145
	c0.453-1.02,1.048-1.87,1.785-2.55c0.737-0.737,1.587-1.303,2.55-1.7c0.963-0.453,2.012-0.68,3.145-0.68
	c1.077,0,2.097,0.227,3.06,0.68c1.02,0.397,1.898,0.963,2.635,1.7c0.737,0.68,1.303,1.53,1.7,2.55
	C869.835,317.933,870.062,318.982,870.062,320.115z"/>
<path id="path30" style="fill:#FFFFFF;" d="M129.187,378.69c0-2.38-0.935-4.448-2.805-6.205c-1.813-1.757-4.392-2.635-7.735-2.635
	c-2.833,0-5.072,0.595-6.715,1.785c-1.643,1.133-2.465,2.692-2.465,4.675c0,1.02,0.198,1.955,0.595,2.805
	c0.397,0.793,1.077,1.53,2.04,2.21c1.02,0.623,2.323,1.19,3.91,1.7c1.643,0.51,3.712,0.992,6.205,1.445
	c6.233,1.133,10.993,3.032,14.28,5.695c3.287,2.663,4.93,6.602,4.93,11.815V403c0,2.777-0.51,5.298-1.53,7.565
	c-0.963,2.21-2.38,4.108-4.25,5.695c-1.87,1.587-4.137,2.805-6.8,3.655c-2.663,0.85-5.667,1.275-9.01,1.275
	c-3.91,0-7.367-0.538-10.37-1.615c-2.947-1.133-5.412-2.663-7.395-4.59c-1.983-1.983-3.485-4.278-4.505-6.885
	c-1.02-2.663-1.53-5.553-1.53-8.67v-2.55h11.22v2.04c0,3.57,1.02,6.432,3.06,8.585c2.097,2.097,5.327,3.145,9.69,3.145
	c3.4,0,5.922-0.737,7.565-2.21s2.465-3.23,2.465-5.27c0-0.963-0.17-1.87-0.51-2.72c-0.34-0.907-0.935-1.7-1.785-2.38
	c-0.85-0.737-2.012-1.388-3.485-1.955c-1.473-0.567-3.343-1.048-5.61-1.445c-3.003-0.51-5.752-1.162-8.245-1.955
	c-2.493-0.85-4.675-1.955-6.545-3.315c-1.813-1.36-3.23-3.06-4.25-5.1c-1.02-2.04-1.53-4.533-1.53-7.48v-0.51
	c0-2.437,0.482-4.675,1.445-6.715c1.02-2.097,2.408-3.91,4.165-5.44c1.813-1.53,3.967-2.72,6.46-3.57
	c2.55-0.85,5.383-1.275,8.5-1.275c3.513,0,6.63,0.51,9.35,1.53c2.72,0.963,4.987,2.295,6.8,3.995c1.87,1.7,3.258,3.655,4.165,5.865
	c0.963,2.21,1.445,4.533,1.445,6.97v3.06h-11.22V378.69z"/>
<path id="path32" style="fill:#FFFFFF;" d="M201.377,399.09h-2.55l-17.085-38.59h12.24l12.24,28.39h1.53l12.24-28.39h12.24
	l-17.085,38.59h-2.55V420h-11.22V399.09z"/>
<path id="path34" style="fill:#FFFFFF;" d="M308.187,378.69c0-2.38-0.935-4.448-2.805-6.205c-1.813-1.757-4.392-2.635-7.735-2.635
	c-2.833,0-5.072,0.595-6.715,1.785c-1.643,1.133-2.465,2.692-2.465,4.675c0,1.02,0.198,1.955,0.595,2.805
	c0.397,0.793,1.077,1.53,2.04,2.21c1.02,0.623,2.323,1.19,3.91,1.7c1.643,0.51,3.712,0.992,6.205,1.445
	c6.233,1.133,10.993,3.032,14.28,5.695c3.287,2.663,4.93,6.602,4.93,11.815V403c0,2.777-0.51,5.298-1.53,7.565
	c-0.963,2.21-2.38,4.108-4.25,5.695c-1.87,1.587-4.137,2.805-6.8,3.655c-2.663,0.85-5.667,1.275-9.01,1.275
	c-3.91,0-7.367-0.538-10.37-1.615c-2.947-1.133-5.412-2.663-7.395-4.59c-1.983-1.983-3.485-4.278-4.505-6.885
	c-1.02-2.663-1.53-5.553-1.53-8.67v-2.55h11.22v2.04c0,3.57,1.02,6.432,3.06,8.585c2.097,2.097,5.327,3.145,9.69,3.145
	c3.4,0,5.922-0.737,7.565-2.21s2.465-3.23,2.465-5.27c0-0.963-0.17-1.87-0.51-2.72c-0.34-0.907-0.935-1.7-1.785-2.38
	c-0.85-0.737-2.012-1.388-3.485-1.955c-1.473-0.567-3.343-1.048-5.61-1.445c-3.003-0.51-5.752-1.162-8.245-1.955
	c-2.493-0.85-4.675-1.955-6.545-3.315c-1.813-1.36-3.23-3.06-4.25-5.1c-1.02-2.04-1.53-4.533-1.53-7.48v-0.51
	c0-2.437,0.482-4.675,1.445-6.715c1.02-2.097,2.408-3.91,4.165-5.44c1.813-1.53,3.967-2.72,6.46-3.57
	c2.55-0.85,5.383-1.275,8.5-1.275c3.513,0,6.63,0.51,9.35,1.53c2.72,0.963,4.987,2.295,6.8,3.995c1.87,1.7,3.258,3.655,4.165,5.865
	c0.963,2.21,1.445,4.533,1.445,6.97v3.06h-11.22V378.69z"/>
<path id="path36" style="fill:#FFFFFF;" d="M373.567,360.5h42.84v10.71h-15.81V420h-11.22v-48.79h-15.81V360.5z"/>
<path id="path38" style="fill:#FFFFFF;" d="M473.947,360.5h37.57v10.71h-26.35v13.6h25.33v10.71h-25.33v13.77h27.37V420h-38.59
	V360.5z"/>
<path id="path40" style="fill:#FFFFFF;" d="M559.847,360.5h19.72l3.4,44.71v8.67h2.04v-8.67l3.4-44.71h19.72V420h-10.2v-39.78
	l1.02-13.6h-2.04l-4.42,53.38h-16.83l-4.59-53.38h-2.04l1.02,13.6V420h-10.2V360.5z"/>
<path id="path42" style="fill:#FFFFFF;" d="M692.187,378.69c0-2.38-0.935-4.448-2.805-6.205c-1.813-1.757-4.392-2.635-7.735-2.635
	c-2.833,0-5.072,0.595-6.715,1.785c-1.643,1.133-2.465,2.692-2.465,4.675c0,1.02,0.198,1.955,0.595,2.805
	c0.397,0.793,1.077,1.53,2.04,2.21c1.02,0.623,2.323,1.19,3.91,1.7c1.643,0.51,3.712,0.992,6.205,1.445
	c6.233,1.133,10.993,3.032,14.28,5.695s4.93,6.602,4.93,11.815V403c0,2.777-0.51,5.298-1.53,7.565
	c-0.963,2.21-2.38,4.108-4.25,5.695c-1.87,1.587-4.137,2.805-6.8,3.655c-2.663,0.85-5.667,1.275-9.01,1.275
	c-3.91,0-7.367-0.538-10.37-1.615c-2.947-1.133-5.412-2.663-7.395-4.59c-1.983-1.983-3.485-4.278-4.505-6.885
	c-1.02-2.663-1.53-5.553-1.53-8.67v-2.55h11.22v2.04c0,3.57,1.02,6.432,3.06,8.585c2.097,2.097,5.327,3.145,9.69,3.145
	c3.4,0,5.922-0.737,7.565-2.21s2.465-3.23,2.465-5.27c0-0.963-0.17-1.87-0.51-2.72c-0.34-0.907-0.935-1.7-1.785-2.38
	c-0.85-0.737-2.012-1.388-3.485-1.955c-1.473-0.567-3.343-1.048-5.61-1.445c-3.003-0.51-5.752-1.162-8.245-1.955
	c-2.493-0.85-4.675-1.955-6.545-3.315c-1.813-1.36-3.23-3.06-4.25-5.1c-1.02-2.04-1.53-4.533-1.53-7.48v-0.51
	c0-2.437,0.482-4.675,1.445-6.715c1.02-2.097,2.408-3.91,4.165-5.44c1.813-1.53,3.967-2.72,6.46-3.57
	c2.55-0.85,5.383-1.275,8.5-1.275c3.513,0,6.63,0.51,9.35,1.53c2.72,0.963,4.987,2.295,6.8,3.995c1.87,1.7,3.258,3.655,4.165,5.865
	c0.963,2.21,1.445,4.533,1.445,6.97v3.06h-11.22V378.69z"/>
<path id="path44" style="fill:#EE2524;" d="M243,481c0,0.788-0.675,1.35-1.35,1.35h-11.817c-0.788,0-1.351-0.675-1.351-1.35
	c0-0.788,0.676-1.35,1.351-1.35h11.817C242.437,479.65,243,480.212,243,481z"/>
<path id="path46" style="fill:#EE2524;" d="M187.63,481c0,0.788-0.675,1.35-1.35,1.35h-11.93c-0.787,0-1.35-0.675-1.35-1.35
	c0-0.788,0.675-1.35,1.35-1.35h11.817C186.955,479.65,187.63,480.212,187.63,481z"/>
<path id="path48" style="fill:#EE2524;" d="M209.35,502.833v11.817c0,0.787-0.675,1.35-1.35,1.35c-0.788,0-1.35-0.675-1.35-1.35
	v-11.817c0-0.788,0.675-1.351,1.35-1.351C208.788,501.37,209.35,502.045,209.35,502.833z"/>
<path id="path50" style="fill:#EE2524;" d="M209.35,447.35v11.817c0,0.788-0.675,1.351-1.35,1.351c-0.788,0-1.35-0.676-1.35-1.351
	V447.35c0-0.787,0.675-1.35,1.35-1.35C208.788,446,209.35,446.675,209.35,447.35z"/>
<path id="path52" style="fill:#EE2524;" d="M221.73,512.286c0,0.563-0.338,1.126-0.9,1.351c-0.676,0.337-1.576-0.113-1.801-0.788
	l-4.389-11.029c-0.338-0.675,0.112-1.576,0.788-1.801c0.675-0.337,1.575,0.113,1.8,0.788l4.389,11.029
	C221.73,511.949,221.73,512.061,221.73,512.286z"/>
<path id="path54" style="fill:#EE2524;" d="M201.36,460.743c0,0.562-0.337,1.125-0.9,1.35c-0.675,0.338-1.576-0.112-1.801-0.788
	l-4.276-11.028c-0.338-0.676,0.112-1.576,0.787-1.801c0.676-0.225,1.576,0.112,1.801,0.788l4.389,11.029
	C201.36,460.405,201.36,460.63,201.36,460.743z"/>
<path id="path56" style="fill:#EE2524;" d="M240.074,494.73c0,0.225,0,0.338-0.113,0.563c-0.337,0.675-1.125,1.012-1.8,0.675
	l-10.804-4.839c-0.675-0.338-1.013-1.126-0.675-1.801c0.337-0.675,1.125-1.013,1.8-0.675l10.804,4.839
	C239.736,493.717,240.074,494.28,240.074,494.73z"/>
<path id="path58" style="fill:#EE2524;" d="M189.543,472.109c0,0.225,0,0.338-0.112,0.563c-0.338,0.675-1.126,1.013-1.801,0.675
	l-10.916-4.839c-0.675-0.338-1.013-1.125-0.675-1.801c0.337-0.675,1.125-1.012,1.8-0.675l10.804,4.839
	C189.206,471.096,189.543,471.547,189.543,472.109z"/>
<path id="path60" style="fill:#EE2524;" d="M232.421,505.421c0,0.338-0.112,0.788-0.45,1.013c-0.563,0.563-1.463,0.45-2.026-0.112
	l-7.99-8.554c-0.563-0.562-0.563-1.463,0-1.913c0.563-0.562,1.463-0.45,2.026,0l8.103,8.666
	C232.309,504.746,232.421,505.084,232.421,505.421z"/>
<path id="path62" style="fill:#EE2524;" d="M194.495,465.132c0,0.337-0.112,0.788-0.45,1.013c-0.563,0.562-1.463,0.45-2.026-0.113
	l-8.103-8.665c-0.562-0.451-0.45-1.351,0.113-1.801c0.563-0.563,1.35-0.563,1.913,0l8.103,8.666
	C194.383,464.457,194.495,464.794,194.495,465.132z"/>
<path id="path64" style="fill:#EE2524;" d="M201.585,501.37c0,0.112,0,0.337-0.112,0.45l-4.277,11.029
	c-0.225,0.675-1.125,1.125-1.8,0.788c-0.676-0.225-1.126-1.126-0.788-1.801l4.276-11.029c0.225-0.675,1.126-1.125,1.801-0.788
	C201.248,500.244,201.585,500.807,201.585,501.37z"/>
<path id="path66" style="fill:#EE2524;" d="M221.392,449.601c0,0.113,0,0.338-0.112,0.45l-4.277,11.029
	c-0.225,0.676-1.125,1.126-1.8,0.788c-0.676-0.225-1.126-1.125-0.788-1.8l4.276-11.029c0.225-0.676,1.126-1.126,1.801-0.788
	C221.055,448.476,221.392,449.039,221.392,449.601z"/>
<path id="path68" style="fill:#EE2524;" d="M193.932,496.418c0,0.338-0.112,0.675-0.45,1.013l-8.44,8.328
	c-0.563,0.563-1.463,0.563-2.026,0c-0.563-0.563-0.563-1.463,0-2.026l8.328-8.328c0.563-0.563,1.463-0.563,2.026,0
	C193.82,495.63,193.932,496.08,193.932,496.418z"/>
<path id="path70" style="fill:#EE2524;" d="M233.209,457.254c0,0.338-0.113,0.675-0.45,1.013l-8.441,8.328
	c-0.562,0.563-1.463,0.563-2.025,0c-0.563-0.563-0.563-1.463,0-2.026l8.44-8.328c0.563-0.563,1.463-0.563,2.026,0
	C233.096,456.579,233.209,456.916,233.209,457.254z"/>
<path id="path72" style="fill:#EE2524;" d="M189.318,489.328c0,0.563-0.337,1.013-0.9,1.238l-10.916,4.502
	c-0.676,0.337-1.576,0-1.801-0.788c-0.338-0.675,0-1.576,0.788-1.801l10.916-4.501c0.675-0.338,1.576,0,1.801,0.787
	C189.206,488.99,189.318,489.103,189.318,489.328z"/>
<path id="path74" style="fill:#EE2524;" d="M240.524,468.17c0,0.563-0.338,1.013-0.9,1.238l-10.917,4.502
	c-0.675,0.338-1.575,0-1.8-0.788c-0.338-0.675,0-1.575,0.788-1.8l10.916-4.502c0.675-0.338,1.575,0,1.801,0.788
	C240.412,467.833,240.524,468.058,240.524,468.17z"/>
<path id="path76" style="fill:#75FA4C;" d="M898,211c0,0.788-0.675,1.35-1.35,1.35h-11.817c-0.788,0-1.351-0.675-1.351-1.35
	c0-0.788,0.676-1.35,1.351-1.35h11.817C897.437,209.65,898,210.212,898,211z"/>
<path id="path78" style="fill:#75FA4C;" d="M842.63,211c0,0.788-0.675,1.35-1.35,1.35h-11.93c-0.787,0-1.35-0.675-1.35-1.35
	c0-0.788,0.675-1.35,1.35-1.35h11.817C841.955,209.65,842.63,210.212,842.63,211z"/>
<path id="path80" style="fill:#75FA4C;" d="M864.35,232.833v11.817c0,0.787-0.675,1.35-1.35,1.35c-0.788,0-1.35-0.675-1.35-1.35
	v-11.817c0-0.788,0.675-1.351,1.35-1.351C863.788,231.37,864.35,232.045,864.35,232.833z"/>
<path id="path82" style="fill:#75FA4C;" d="M864.35,177.35v11.817c0,0.788-0.675,1.351-1.35,1.351c-0.788,0-1.35-0.676-1.35-1.351
	V177.35c0-0.787,0.675-1.35,1.35-1.35C863.788,176,864.35,176.675,864.35,177.35z"/>
<path id="path84" style="fill:#75FA4C;" d="M876.73,242.286c0,0.563-0.338,1.126-0.9,1.351c-0.676,0.337-1.576-0.113-1.801-0.788
	l-4.389-11.029c-0.338-0.675,0.112-1.576,0.788-1.801c0.675-0.337,1.575,0.113,1.8,0.788l4.389,11.029
	C876.73,241.949,876.73,242.061,876.73,242.286z"/>
<path id="path86" style="fill:#75FA4C;" d="M856.36,190.743c0,0.562-0.337,1.125-0.9,1.35c-0.675,0.338-1.576-0.112-1.801-0.788
	l-4.276-11.028c-0.338-0.676,0.112-1.576,0.787-1.801c0.676-0.225,1.576,0.112,1.801,0.788l4.389,11.029
	C856.36,190.405,856.36,190.63,856.36,190.743z"/>
<path id="path88" style="fill:#75FA4C;" d="M895.074,224.73c0,0.225,0,0.338-0.113,0.563c-0.337,0.675-1.125,1.012-1.8,0.675
	l-10.804-4.839c-0.675-0.338-1.013-1.126-0.675-1.801c0.337-0.675,1.125-1.013,1.8-0.675l10.804,4.839
	C894.736,223.717,895.074,224.28,895.074,224.73z"/>
<path id="path90" style="fill:#75FA4C;" d="M844.543,202.109c0,0.225,0,0.338-0.112,0.563c-0.338,0.675-1.126,1.013-1.801,0.675
	l-10.916-4.839c-0.675-0.338-1.013-1.125-0.675-1.801c0.337-0.675,1.125-1.012,1.8-0.675l10.804,4.839
	C844.206,201.096,844.543,201.547,844.543,202.109z"/>
<path id="path92" style="fill:#75FA4C;" d="M887.421,235.421c0,0.338-0.112,0.788-0.45,1.013c-0.563,0.563-1.463,0.45-2.026-0.112
	l-7.99-8.554c-0.563-0.562-0.563-1.463,0-1.913c0.563-0.562,1.463-0.45,2.026,0l8.103,8.666
	C887.309,234.746,887.421,235.084,887.421,235.421z"/>
<path id="path94" style="fill:#75FA4C;" d="M849.495,195.132c0,0.337-0.112,0.788-0.45,1.013c-0.563,0.562-1.463,0.45-2.026-0.113
	l-8.103-8.665c-0.562-0.451-0.45-1.351,0.113-1.801c0.563-0.563,1.35-0.563,1.913,0l8.103,8.666
	C849.383,194.457,849.495,194.794,849.495,195.132z"/>
<path id="path96" style="fill:#75FA4C;" d="M856.585,231.37c0,0.112,0,0.337-0.112,0.45l-4.277,11.029
	c-0.225,0.675-1.125,1.125-1.8,0.788c-0.676-0.225-1.126-1.126-0.788-1.801l4.276-11.029c0.225-0.675,1.126-1.125,1.801-0.788
	C856.248,230.244,856.585,230.807,856.585,231.37z"/>
<path id="path98" style="fill:#75FA4C;" d="M876.392,179.601c0,0.113,0,0.338-0.112,0.45l-4.277,11.029
	c-0.225,0.676-1.125,1.126-1.8,0.788c-0.676-0.225-1.126-1.125-0.788-1.8l4.276-11.029c0.225-0.676,1.126-1.126,1.801-0.788
	C876.055,178.476,876.392,179.039,876.392,179.601z"/>
<path id="path100" style="fill:#75FA4C;" d="M848.932,226.418c0,0.338-0.112,0.675-0.45,1.013l-8.44,8.328
	c-0.563,0.563-1.463,0.563-2.026,0s-0.563-1.463,0-2.026l8.328-8.328c0.563-0.563,1.463-0.563,2.026,0
	C848.82,225.63,848.932,226.08,848.932,226.418z"/>
<path id="path102" style="fill:#75FA4C;" d="M888.209,187.254c0,0.338-0.112,0.675-0.45,1.013l-8.441,8.328
	c-0.562,0.563-1.463,0.563-2.025,0c-0.563-0.563-0.563-1.463,0-2.026l8.44-8.328c0.563-0.563,1.463-0.563,2.026,0
	C888.097,186.579,888.209,186.916,888.209,187.254z"/>
<path id="path104" style="fill:#75FA4C;" d="M844.318,219.328c0,0.563-0.337,1.013-0.9,1.238l-10.916,4.502
	c-0.676,0.337-1.576,0-1.801-0.788c-0.338-0.676,0-1.576,0.788-1.801l10.916-4.502c0.675-0.337,1.576,0,1.801,0.788
	C844.206,218.99,844.318,219.103,844.318,219.328z"/>
<path id="path106" style="fill:#75FA4C;" d="M895.524,198.17c0,0.563-0.337,1.013-0.9,1.238l-10.917,4.502
	c-0.675,0.338-1.575,0-1.8-0.788c-0.338-0.675,0-1.575,0.788-1.8l10.916-4.502c0.675-0.338,1.576,0,1.801,0.788
	C895.412,197.833,895.524,198.058,895.524,198.17z"/>
<circle id="circle108" style="fill:#E63623;" cx="11" cy="371" r="11"/>
<circle id="circle110" style="fill:#E63623;" cx="55" cy="371" r="11"/>
<circle id="circle112" style="fill:#E63623;" cx="11" cy="410" r="11"/>
<circle id="circle114" style="fill:#E63623;" cx="55" cy="410" r="11"/>
<circle id="circle116" style="fill:#E63623;" cx="660" cy="458" r="11"/>
<circle id="circle118" style="fill:#E63623;" cx="704" cy="458" r="11"/>
<circle id="circle120" style="fill:#E63623;" cx="660" cy="497" r="11"/>
<circle id="circle122" style="fill:#E63623;" cx="704" cy="497" r="11"/>
<circle id="circle124" style="fill:#E63623;" cx="186" cy="11" r="11"/>
<circle id="circle126" style="fill:#E63623;" cx="230" cy="11" r="11"/>
<circle id="circle128" style="fill:#E63623;" cx="186" cy="50" r="11"/>
<circle id="circle130" style="fill:#E63623;" cx="230" cy="50" r="11"/>
<path id="path132" style="fill:#E63623;" d="M1,32C1,14.327,15.327,0,33,0s32,14.327,32,32v94c0,17.673-14.327,32-32,32
	S1,143.673,1,126V32z"/>
<circle id="circle134" style="fill:#0020F5;" cx="33" cy="32" r="32"/>
<circle id="circle136" style="fill:#FFFFFF;" cx="33" cy="126" r="32"/>
<circle id="circle138" cx="33" cy="126" r="10"/>
<path id="path140" style="fill:#E63623;" d="M553,211c0-17.673,14.327-32,32-32s32,14.327,32,32v94c0,17.673-14.327,32-32,32
	s-32-14.327-32-32V211z"/>
<circle id="circle142" style="fill:#0020F5;" cx="585" cy="211" r="32"/>
<circle id="circle144" style="fill:#FFFFFF;" cx="585" cy="305" r="32"/>
<circle id="circle146" cx="585" cy="305" r="10"/>
<path id="path148" style="fill:#FFFFFF;" d="M301,180c17.673,0,32,14.327,32,32s-14.327,32-32,32h-94c-17.673,0-32-14.327-32-32
	s14.327-32,32-32H301z"/>
<circle id="circle150" style="fill:#75FA4C;" cx="301" cy="212" r="32"/>
<circle id="circle152" style="fill:#E63623;" cx="207" cy="212" r="32"/>
<path id="path154" style="fill:#E63623;" d="M396,64c-17.673,0-32-14.327-32-32s14.327-32,32-32l94,0c17.673,0,32,14.327,32,32
	s-14.327,32-32,32H396z"/>
<circle id="circle156" style="fill:#0020F5;" cx="396" cy="32" r="32"/>
<circle id="circle158" style="fill:#75FA4C;" cx="490" cy="32" r="32"/>
<circle id="circle160" cx="490" cy="32" r="10"/>
<path id="path162" style="fill:#E63623;" d="M301,330c-17.673,0-32-14.327-32-32s14.327-32,32-32h94c17.673,0,32,14.327,32,32
	s-14.327,32-32,32H301z"/>
<circle id="circle164" style="fill:#0020F5;" cx="301" cy="298" r="32"/>
<circle id="circle166" style="fill:#75FA4C;" cx="395" cy="298" r="32"/>
<path id="path168" style="fill:#FFFFFF;" d="M301,154c-17.673,0-32-14.327-32-32s14.327-32,32-32h94c17.673,0,32,14.327,32,32
	s-14.327,32-32,32H301z"/>
<circle id="circle170" style="fill:#0020F5;" cx="301" cy="122" r="32"/>
<circle id="circle172" style="fill:#E63623;" cx="395" cy="122" r="32"/>
<circle id="circle174" cx="395" cy="122" r="10"/>
<path id="path176" style="fill:#FFFFFF;" d="M777,550c17.673,0,32,14.327,32,32s-14.327,32-32,32h-94c-17.673,0-32-14.327-32-32
	s14.327-32,32-32H777z"/>
<circle id="circle178" style="fill:#E63623;" cx="683" cy="582" r="32"/>
<circle id="circle180" cx="683" cy="582" r="10"/>
<path id="path182" style="fill:#0020F5;" d="M862,446c17.673,0,32,14.327,32,32s-14.327,32-32,32h-94c-17.673,0-32-14.327-32-32
	s14.327-32,32-32H862z"/>
<circle id="circle184" style="fill:#FFFFFF;" cx="768" cy="478" r="32"/>
<circle id="circle186" cx="768" cy="478" r="10"/>
<path id="path188" style="fill:#FFFFFF;" d="M588,446c17.673,0,32,14.327,32,32s-14.327,32-32,32h-94c-17.673,0-32-14.327-32-32
	s14.327-32,32-32H588z"/>
<circle id="circle190" style="fill:#E63623;" cx="494" cy="478" r="32"/>
<circle id="circle192" cx="494" cy="478" r="10"/>
<circle id="circle194" style="fill:#FFFFFF;" cx="119" cy="32" r="32"/>
<circle id="circle196" cx="119" cy="32" r="10"/>
<circle id="circle198" style="fill:#75FA4C;" cx="208" cy="122" r="32"/>
<circle id="circle200" cx="208" cy="122" r="10"/>
<circle id="circle202" style="fill:#75FA4C;" cx="768" cy="388" r="32"/>
<circle id="circle204" cx="768" cy="388" r="10"/>
<circle id="circle206" style="fill:#E63623;" cx="584" cy="32" r="32"/>
<circle id="circle208" cx="584" cy="32" r="10"/>
<circle id="circle210" style="fill:#E63623;" cx="299" cy="479" r="32"/>
<circle id="circle212" cx="299" cy="479" r="10"/>
<rect id="rect214" x="366" y="451" style="fill:#FFFFFF;" width="12" height="12"/>
<rect id="rect216" x="390" y="451" style="fill:#FFFFFF;" width="12" height="12"/>
<rect id="rect218" x="414" y="451" style="fill:#FFFFFF;" width="12" height="12"/>
<rect id="rect220" x="366" y="475" style="fill:#FFFFFF;" width="12" height="12"/>
<rect id="rect222" x="390" y="475" style="fill:#FFFFFF;" width="12" height="12"/>
<rect id="rect224" x="414" y="475" style="fill:#FFFFFF;" width="12" height="12"/>
<rect id="rect226" x="366" y="499" style="fill:#FFFFFF;" width="12" height="12"/>
<rect id="rect228" x="390" y="499" style="fill:#FFFFFF;" width="12" height="12"/>
<rect id="rect230" x="414" y="499" style="fill:#FFFFFF;" width="12" height="12"/>
<rect id="rect232" x="652" y="181" style="fill:#0020F5;" width="12" height="12"/>
<rect id="rect234" x="676" y="181" style="fill:#0020F5;" width="12" height="12"/>
<rect id="rect236" x="700" y="181" style="fill:#0020F5;" width="12" height="12"/>
<rect id="rect238" x="652" y="205" style="fill:#0020F5;" width="12" height="12"/>
<rect id="rect240" x="676" y="205" style="fill:#0020F5;" width="12" height="12"/>
<rect id="rect242" x="700" y="205" style="fill:#0020F5;" width="12" height="12"/>
<rect id="rect244" x="652" y="229" style="fill:#0020F5;" width="12" height="12"/>
<rect id="rect246" x="676" y="229" style="fill:#0020F5;" width="12" height="12"/>
<rect id="rect248" x="700" y="229" style="fill:#0020F5;" width="12" height="12"/>
<rect id="rect250" x="272" style="fill:#FFFFFF;" width="8" height="64"/>
<rect id="rect252" x="295" style="fill:#FFFFFF;" width="8" height="64"/>
<rect id="rect254" x="320" style="fill:#FFFFFF;" width="8" height="64"/>
<rect id="rect256" x="267" y="22" style="fill:#E63623;" width="18" height="6"/>
<rect id="rect258" x="290" y="43" style="fill:#0020F5;" width="18" height="6"/>
<rect id="rect260" x="315" y="8" style="fill:#75FA4C;" width="18" height="6"/>
<rect id="rect262" x="834" y="356" style="fill:#FFFFFF;" width="8" height="64"/>
<rect id="rect264" x="857" y="356" style="fill:#FFFFFF;" width="8" height="64"/>
<rect id="rect266" x="882" y="356" style="fill:#FFFFFF;" width="8" height="64"/>
<rect id="rect268" x="829" y="378" style="fill:#E63623;" width="18" height="6"/>
<rect id="rect270" x="852" y="399" style="fill:#0020F5;" width="18" height="6"/>
<rect id="rect272" x="877" y="364" style="fill:#75FA4C;" width="18" height="6"/>
<g>
	<defs>
		<rect id="SVGID_1_" x="744" y="1" width="150" height="62"/>
	</defs>
	<clipPath id="SVGID_2_">
		<use xlink:href="#SVGID_1_"  style="overflow:visible;"/>
	</clipPath>
	<g id="g276" style="clip-path:url(#SVGID_2_);">
		<path id="path274" style="fill:#75FA4C;" d="M749.503,41.185c2.971,0,5.502-2.526,5.502-5.741l0.33,1.378l52.605-13.778
			c0.44,2.755,2.641,4.822,5.392,4.822c0.991,0,1.981-0.344,2.862-0.804l17.828,28.13c-0.22,0.689-0.44,1.378-0.44,2.181
			c0,3.1,2.421,5.741,5.502,5.741c2.972,0,5.503-2.526,5.503-5.741c0-1.837-0.88-3.444-2.201-4.478l15.957-39.037l7.374,25.374
			c-1.541,1.033-2.641,2.756-2.641,4.822c0,3.215,2.421,5.741,5.502,5.741c2.972,0,5.503-2.526,5.503-5.741
			c0-1.148-0.33-2.181-0.881-2.985l12.656-13.893c0.771,0.459,1.651,0.804,2.641,0.804c2.972,0,5.503-2.526,5.503-5.741
			c0-3.1-2.421-5.741-5.503-5.741c-2.971,0-5.502,2.526-5.502,5.741c0,1.148,0.33,2.181,0.88,2.985l-12.656,13.893
			c-0.77-0.459-1.65-0.689-2.641-0.689c-0.11,0-0.11,0-0.22,0l-7.814-26.752c1.541-1.033,2.642-2.756,2.642-4.822
			c0-3.1-2.422-5.741-5.503-5.741s-5.503,2.526-5.503,5.741c0,2.526,1.651,4.707,3.852,5.396l-16.287,39.381
			c-0.22,0-0.551-0.115-0.771-0.115c-1.21,0-2.421,0.459-3.301,1.148l-17.608-27.9c0.44-0.804,0.66-1.722,0.66-2.756
			c0-3.1-2.421-5.741-5.503-5.741c-2.311,0-4.292,1.493-5.062,3.674l-53.375,14.122c-0.66-2.526-2.751-4.363-5.282-4.363
			c-3.082,0-5.503,2.526-5.503,5.741C744,38.659,746.421,41.185,749.503,41.185z"/>
	</g>
</g>
<g>
	<defs>
		<rect id="SVGID_3_" x="464" y="179" width="62" height="150"/>
	</defs>
	<clipPath id="SVGID_4_">
		<use xlink:href="#SVGID_3_"  style="overflow:visible;"/>
	</clipPath>
	<g id="g280" style="clip-path:url(#SVGID_4_);">
		<path id="path278" style="fill:#75FA4C;" d="M504.185,323.497c0-2.971-2.526-5.502-5.741-5.502l1.378-0.33l-13.778-52.605
			c2.756-0.44,4.823-2.641,4.823-5.392c0-0.991-0.345-1.981-0.804-2.862l28.13-17.828c0.688,0.22,1.377,0.44,2.181,0.44
			c3.1,0,5.741-2.421,5.741-5.502c0-2.972-2.526-5.503-5.741-5.503c-1.837,0-3.444,0.88-4.478,2.201l-39.037-15.957l25.374-7.374
			c1.034,1.541,2.756,2.641,4.823,2.641c3.214,0,5.74-2.421,5.74-5.502c0-2.972-2.526-5.503-5.74-5.503
			c-1.149,0-2.182,0.33-2.986,0.881l-13.892-12.656c0.459-0.771,0.803-1.651,0.803-2.641c0-2.972-2.525-5.503-5.74-5.503
			c-3.1,0-5.741,2.421-5.741,5.503c0,2.971,2.526,5.502,5.741,5.502c1.148,0,2.181-0.33,2.985-0.88l13.893,12.656
			c-0.46,0.77-0.689,1.65-0.689,2.641c0,0.11,0,0.11,0,0.22l-26.752,7.814c-1.034-1.541-2.756-2.642-4.822-2.642
			c-3.1,0-5.741,2.422-5.741,5.503c0,3.081,2.526,5.503,5.741,5.503c2.525,0,4.707-1.651,5.396-3.852l39.381,16.287
			c0,0.22-0.114,0.551-0.114,0.771c0,1.21,0.459,2.421,1.148,3.301l-27.9,17.608c-0.804-0.44-1.723-0.66-2.756-0.66
			c-3.1,0-5.741,2.421-5.741,5.503c0,2.311,1.493,4.292,3.674,5.062l14.123,53.375c-2.526,0.66-4.363,2.751-4.363,5.282
			c0,3.082,2.526,5.503,5.74,5.503C501.659,329,504.185,326.579,504.185,323.497z"/>
	</g>
</g>
<circle id="circle282" style="fill:#0020F5;" cx="122" cy="458" r="5"/>
<circle id="circle284" style="fill:#0020F5;" cx="147" cy="458" r="5"/>
<circle id="circle286" style="fill:#0020F5;" cx="97" cy="483" r="5"/>
<circle id="circle288" style="fill:#0020F5;" cx="122" cy="483" r="5"/>
<circle id="circle290" style="fill:#0020F5;" cx="147" cy="483" r="5"/>
<circle id="circle292" style="fill:#0020F5;" cx="97" cy="508" r="5"/>
<circle id="circle294" style="fill:#0020F5;" cx="122" cy="508" r="5"/>
<circle id="circle296" style="fill:#0020F5;" cx="147" cy="508" r="5"/>
<circle id="circle298" style="fill:#0020F5;" cx="97" cy="458" r="5"/>
<circle id="circle300" style="fill:#0020F5;" cx="122" cy="459" r="6"/>
<circle id="circle302" style="fill:#0020F5;" cx="147" cy="459" r="6"/>
<circle id="circle304" style="fill:#0020F5;" cx="97" cy="483" r="6"/>
<circle id="circle306" style="fill:#0020F5;" cx="122" cy="483" r="6"/>
<circle id="circle308" style="fill:#0020F5;" cx="147" cy="483" r="6"/>
<circle id="circle310" style="fill:#0020F5;" cx="97" cy="507" r="6"/>
<circle id="circle312" style="fill:#0020F5;" cx="122" cy="507" r="6"/>
<circle id="circle314" style="fill:#0020F5;" cx="147" cy="507" r="6"/>
<circle id="circle316" style="fill:#0020F5;" cx="97" cy="459" r="6"/>
<circle id="circle318" style="fill:#E63623;" cx="863" cy="561" r="6"/>
<circle id="circle320" style="fill:#E63623;" cx="888" cy="561" r="6"/>
<circle id="circle322" style="fill:#E63623;" cx="838" cy="585" r="6"/>
<circle id="circle324" style="fill:#E63623;" cx="863" cy="585" r="6"/>
<circle id="circle326" style="fill:#E63623;" cx="888" cy="585" r="6"/>
<circle id="circle328" style="fill:#E63623;" cx="838" cy="609" r="6"/>
<circle id="circle330" style="fill:#E63623;" cx="863" cy="609" r="6"/>
<circle id="circle332" style="fill:#E63623;" cx="888" cy="609" r="6"/>
<circle id="circle334" style="fill:#E63623;" cx="838" cy="561" r="6"/>
<path id="path336" style="fill:#FFFFFF;" d="M623,582c0,0.788-0.675,1.35-1.35,1.35h-11.817c-0.788,0-1.351-0.675-1.351-1.35
	c0-0.788,0.676-1.35,1.351-1.35h11.817C622.437,580.65,623,581.212,623,582z"/>
<path id="path338" style="fill:#FFFFFF;" d="M567.63,582c0,0.788-0.675,1.35-1.35,1.35h-11.93c-0.787,0-1.35-0.675-1.35-1.35
	c0-0.788,0.675-1.35,1.35-1.35h11.817C566.955,580.65,567.63,581.212,567.63,582z"/>
<path id="path340" style="fill:#FFFFFF;" d="M589.35,603.833v11.817c0,0.787-0.675,1.35-1.35,1.35c-0.788,0-1.35-0.675-1.35-1.35
	v-11.817c0-0.788,0.675-1.351,1.35-1.351C588.788,602.37,589.35,603.045,589.35,603.833z"/>
<path id="path342" style="fill:#FFFFFF;" d="M589.35,548.35v11.817c0,0.788-0.675,1.351-1.35,1.351c-0.788,0-1.35-0.676-1.35-1.351
	V548.35c0-0.787,0.675-1.35,1.35-1.35C588.788,547,589.35,547.675,589.35,548.35z"/>
<path id="path344" style="fill:#FFFFFF;" d="M601.73,613.286c0,0.563-0.338,1.126-0.9,1.351c-0.676,0.337-1.576-0.113-1.801-0.788
	l-4.389-11.029c-0.338-0.675,0.112-1.576,0.788-1.801c0.675-0.337,1.575,0.113,1.8,0.788l4.389,11.029
	C601.73,612.949,601.73,613.061,601.73,613.286z"/>
<path id="path346" style="fill:#FFFFFF;" d="M581.36,561.743c0,0.562-0.337,1.125-0.9,1.35c-0.675,0.338-1.576-0.112-1.801-0.788
	l-4.276-11.028c-0.338-0.676,0.112-1.576,0.787-1.801c0.676-0.225,1.576,0.112,1.801,0.788l4.389,11.029
	C581.36,561.405,581.36,561.63,581.36,561.743z"/>
<path id="path348" style="fill:#FFFFFF;" d="M620.074,595.73c0,0.225,0,0.338-0.113,0.563c-0.337,0.675-1.125,1.012-1.8,0.675
	l-10.804-4.839c-0.675-0.338-1.013-1.126-0.675-1.801c0.337-0.675,1.125-1.013,1.8-0.675l10.804,4.839
	C619.736,594.717,620.074,595.28,620.074,595.73z"/>
<path id="path350" style="fill:#FFFFFF;" d="M569.543,573.109c0,0.225,0,0.338-0.112,0.563c-0.338,0.675-1.126,1.013-1.801,0.675
	l-10.916-4.839c-0.675-0.338-1.013-1.125-0.675-1.801c0.337-0.675,1.125-1.012,1.8-0.675l10.804,4.839
	C569.206,572.096,569.543,572.547,569.543,573.109z"/>
<path id="path352" style="fill:#FFFFFF;" d="M612.421,606.421c0,0.338-0.112,0.788-0.45,1.013c-0.563,0.563-1.463,0.45-2.026-0.112
	l-7.99-8.554c-0.563-0.562-0.563-1.463,0-1.913c0.563-0.562,1.463-0.45,2.026,0l8.103,8.666
	C612.309,605.746,612.421,606.084,612.421,606.421z"/>
<path id="path354" style="fill:#FFFFFF;" d="M574.495,566.132c0,0.337-0.112,0.788-0.45,1.013c-0.563,0.562-1.463,0.45-2.026-0.113
	l-8.103-8.665c-0.562-0.451-0.45-1.351,0.113-1.801c0.563-0.563,1.35-0.563,1.913,0l8.103,8.666
	C574.383,565.457,574.495,565.794,574.495,566.132z"/>
<path id="path356" style="fill:#FFFFFF;" d="M581.585,602.37c0,0.112,0,0.337-0.112,0.45l-4.277,11.029
	c-0.225,0.675-1.125,1.125-1.8,0.788c-0.676-0.225-1.126-1.126-0.788-1.801l4.276-11.029c0.225-0.675,1.126-1.125,1.801-0.788
	C581.248,601.244,581.585,601.807,581.585,602.37z"/>
<path id="path358" style="fill:#FFFFFF;" d="M601.392,550.601c0,0.113,0,0.338-0.112,0.45l-4.277,11.029
	c-0.225,0.676-1.125,1.126-1.8,0.788c-0.676-0.225-1.126-1.125-0.788-1.8l4.276-11.029c0.225-0.676,1.126-1.126,1.801-0.788
	C601.055,549.476,601.392,550.039,601.392,550.601z"/>
<path id="path360" style="fill:#FFFFFF;" d="M573.932,597.418c0,0.338-0.112,0.675-0.45,1.013l-8.44,8.328
	c-0.563,0.563-1.463,0.563-2.026,0c-0.563-0.563-0.563-1.463,0-2.026l8.328-8.328c0.563-0.563,1.463-0.563,2.026,0
	C573.82,596.63,573.932,597.08,573.932,597.418z"/>
<path id="path362" style="fill:#FFFFFF;" d="M613.209,558.254c0,0.338-0.112,0.675-0.45,1.013l-8.441,8.328
	c-0.562,0.563-1.463,0.563-2.025,0c-0.563-0.563-0.563-1.463,0-2.026l8.44-8.328c0.563-0.563,1.463-0.563,2.026,0
	C613.097,557.579,613.209,557.916,613.209,558.254z"/>
<path id="path364" style="fill:#FFFFFF;" d="M569.318,590.328c0,0.563-0.337,1.013-0.9,1.238l-10.916,4.502
	c-0.676,0.337-1.576,0-1.801-0.788c-0.338-0.675,0-1.576,0.788-1.801l10.916-4.501c0.675-0.338,1.576,0,1.801,0.787
	C569.206,589.99,569.318,590.103,569.318,590.328z"/>
<path id="path366" style="fill:#FFFFFF;" d="M620.524,569.17c0,0.563-0.337,1.013-0.9,1.238l-10.917,4.502
	c-0.675,0.338-1.575,0-1.8-0.788c-0.338-0.675,0-1.575,0.788-1.8l10.916-4.502c0.675-0.338,1.576,0,1.801,0.788
	C620.412,568.833,620.524,569.058,620.524,569.17z"/>
<rect id="rect368" x="363" y="179" style="fill:#FFFFFF;" width="63" height="63"/>
<path id="path370" style="fill:#FFFFFF;" d="M93.404,553.8h13.104v3.276h-4.836V572H98.24v-14.924h-4.836V553.8z M113.276,572H110
	v-18.2h3.276v7.384h0.468c0.329-0.78,0.815-1.378,1.456-1.794c0.641-0.433,1.43-0.65,2.366-0.65c0.641,0,1.231,0.104,1.768,0.312
	s1.005,0.52,1.404,0.936c0.399,0.416,0.711,0.953,0.936,1.612c0.225,0.641,0.338,1.404,0.338,2.288V572h-3.276v-7.332
	c0-0.919-0.225-1.638-0.676-2.158c-0.433-0.537-1.066-0.806-1.898-0.806c-0.971,0-1.699,0.329-2.184,0.988
	c-0.468,0.641-0.702,1.508-0.702,2.6V572z M128.754,566.618c0.017,0.381,0.104,0.737,0.26,1.066
	c0.173,0.312,0.399,0.589,0.676,0.832c0.295,0.225,0.624,0.407,0.988,0.546c0.381,0.121,0.78,0.182,1.196,0.182
	c0.815,0,1.439-0.139,1.872-0.416c0.433-0.295,0.745-0.641,0.936-1.04l2.808,1.56c-0.156,0.329-0.373,0.676-0.65,1.04
	c-0.277,0.347-0.641,0.667-1.092,0.962c-0.433,0.295-0.971,0.537-1.612,0.728c-0.624,0.191-1.361,0.286-2.21,0.286
	c-0.971,0-1.855-0.156-2.652-0.468s-1.491-0.763-2.08-1.352c-0.572-0.589-1.023-1.309-1.352-2.158
	c-0.312-0.849-0.468-1.811-0.468-2.886v-0.156c0-0.988,0.165-1.889,0.494-2.704c0.347-0.815,0.815-1.508,1.404-2.08
	c0.589-0.572,1.274-1.014,2.054-1.326c0.797-0.329,1.647-0.494,2.548-0.494c1.109,0,2.063,0.199,2.86,0.598
	c0.797,0.381,1.456,0.875,1.976,1.482c0.52,0.589,0.901,1.248,1.144,1.976c0.243,0.711,0.364,1.404,0.364,2.08v1.742H128.754z
	 M131.848,561.704c-0.832,0-1.508,0.217-2.028,0.65c-0.52,0.416-0.858,0.901-1.014,1.456h6.084
	c-0.104-0.607-0.433-1.109-0.988-1.508C133.365,561.903,132.68,561.704,131.848,561.704z M157.604,559.104h3.666v-2.652
	c0-0.745,0.251-1.369,0.754-1.872c0.502-0.52,1.126-0.78,1.872-0.78h5.252v3.12h-3.9c-0.468,0-0.702,0.26-0.702,0.78v1.404h5.07
	v3.12h-5.07V572h-3.276v-9.776h-3.666V559.104z M186.264,565.708c0,1.075-0.182,2.028-0.546,2.86
	c-0.364,0.815-0.858,1.508-1.482,2.08c-0.624,0.555-1.344,0.979-2.158,1.274c-0.798,0.295-1.638,0.442-2.522,0.442
	s-1.734-0.147-2.548-0.442c-0.798-0.295-1.508-0.719-2.132-1.274c-0.624-0.572-1.118-1.265-1.482-2.08
	c-0.364-0.832-0.546-1.785-0.546-2.86v-0.312c0-1.057,0.182-1.993,0.546-2.808c0.364-0.832,0.858-1.534,1.482-2.106
	c0.624-0.572,1.334-1.005,2.132-1.3c0.814-0.295,1.664-0.442,2.548-0.442s1.724,0.147,2.522,0.442
	c0.814,0.295,1.534,0.728,2.158,1.3c0.624,0.572,1.118,1.274,1.482,2.106c0.364,0.815,0.546,1.751,0.546,2.808V565.708z
	 M179.556,569.244c0.468,0,0.91-0.078,1.326-0.234s0.78-0.381,1.092-0.676c0.312-0.295,0.554-0.65,0.728-1.066
	c0.19-0.433,0.286-0.919,0.286-1.456v-0.52c0-0.537-0.096-1.014-0.286-1.43c-0.174-0.433-0.416-0.797-0.728-1.092
	c-0.312-0.295-0.676-0.52-1.092-0.676s-0.858-0.234-1.326-0.234s-0.91,0.078-1.326,0.234s-0.78,0.381-1.092,0.676
	c-0.312,0.295-0.564,0.659-0.754,1.092c-0.174,0.416-0.26,0.893-0.26,1.43v0.52c0,0.537,0.086,1.023,0.26,1.456
	c0.19,0.416,0.442,0.771,0.754,1.066c0.312,0.295,0.676,0.52,1.092,0.676S179.088,569.244,179.556,569.244z M198.284,559.104h3.276
	V572h-3.276v-1.872h-0.468c-0.572,1.491-1.803,2.236-3.692,2.236c-0.642,0-1.24-0.104-1.794-0.312
	c-0.555-0.208-1.04-0.529-1.456-0.962c-0.416-0.433-0.746-0.971-0.988-1.612c-0.226-0.659-0.338-1.43-0.338-2.314v-8.06h3.276v7.384
	c0,0.919,0.216,1.638,0.65,2.158c0.433,0.503,1.083,0.754,1.95,0.754c0.988,0,1.707-0.312,2.158-0.936
	c0.468-0.641,0.702-1.508,0.702-2.6V559.104z M208.743,572h-3.276v-12.896h3.276v1.924h0.468c0.295-0.728,0.772-1.291,1.43-1.69
	c0.659-0.399,1.43-0.598,2.314-0.598c0.624,0,1.205,0.104,1.742,0.312c0.555,0.191,1.04,0.494,1.456,0.91
	c0.416,0.416,0.737,0.945,0.962,1.586c0.243,0.641,0.364,1.404,0.364,2.288V572h-3.276v-7.332c0-0.919-0.225-1.638-0.676-2.158
	c-0.433-0.537-1.066-0.806-1.898-0.806c-0.97,0-1.698,0.329-2.184,0.988c-0.468,0.641-0.702,1.508-0.702,2.6V572z M230.643,570.128
	h-0.468c-0.138,0.295-0.312,0.581-0.52,0.858c-0.19,0.26-0.45,0.494-0.78,0.702c-0.312,0.208-0.693,0.373-1.144,0.494
	c-0.433,0.121-0.962,0.182-1.586,0.182c-0.797,0-1.542-0.139-2.236-0.416c-0.676-0.295-1.274-0.719-1.794-1.274
	c-0.502-0.572-0.901-1.265-1.196-2.08c-0.277-0.815-0.416-1.751-0.416-2.808v-0.468c0-1.04,0.148-1.967,0.442-2.782
	c0.312-0.815,0.728-1.499,1.248-2.054c0.538-0.572,1.153-1.005,1.846-1.3c0.711-0.295,1.456-0.442,2.236-0.442
	c1.04,0,1.864,0.199,2.47,0.598c0.607,0.381,1.084,0.927,1.43,1.638h0.468V553.8h3.276V572h-3.276V570.128z M227.211,569.244
	c1.023,0,1.846-0.321,2.47-0.962c0.642-0.659,0.962-1.517,0.962-2.574v-0.312c0-1.057-0.32-1.907-0.962-2.548
	c-0.624-0.659-1.447-0.988-2.47-0.988c-1.022,0-1.854,0.321-2.496,0.962c-0.624,0.624-0.936,1.482-0.936,2.574v0.312
	c0,1.092,0.312,1.959,0.936,2.6C225.357,568.932,226.189,569.244,227.211,569.244z M245.653,570.128
	c-0.346,0.815-0.832,1.395-1.456,1.742c-0.624,0.329-1.352,0.494-2.184,0.494c-0.78,0-1.516-0.147-2.21-0.442
	c-0.676-0.295-1.274-0.728-1.794-1.3c-0.52-0.572-0.936-1.265-1.248-2.08c-0.294-0.815-0.442-1.742-0.442-2.782v-0.416
	c0-1.023,0.148-1.941,0.442-2.756c0.295-0.815,0.694-1.508,1.196-2.08c0.503-0.572,1.084-1.005,1.742-1.3
	c0.676-0.312,1.396-0.468,2.158-0.468c0.919,0,1.656,0.156,2.21,0.468c0.572,0.312,1.023,0.797,1.352,1.456h0.468v-1.56h3.276v8.996
	c0,0.52,0.234,0.78,0.702,0.78h0.494V572h-2.236c-0.589,0-1.074-0.173-1.456-0.52c-0.364-0.347-0.546-0.797-0.546-1.352H245.653z
	 M242.741,569.244c0.954,0,1.716-0.312,2.288-0.936c0.572-0.641,0.858-1.508,0.858-2.6v-0.312c0-1.092-0.286-1.95-0.858-2.574
	c-0.572-0.641-1.334-0.962-2.288-0.962c-0.953,0-1.716,0.321-2.288,0.962c-0.572,0.624-0.858,1.482-0.858,2.574v0.312
	c0,1.092,0.286,1.959,0.858,2.6C241.025,568.932,241.788,569.244,242.741,569.244z M252.863,559.104h3.822V553.8h3.276v5.304h4.654
	v3.12h-4.654v5.876c0,0.52,0.234,0.78,0.702,0.78h3.484V572h-5.46c-0.589,0-1.074-0.191-1.456-0.572
	c-0.364-0.381-0.546-0.867-0.546-1.456v-7.748h-3.822V559.104z M269.381,568.88h4.368v-6.656h-4.056v-3.12h7.332v9.776h3.744V572
	h-11.388V568.88z M277.831,555.282c0,0.347-0.069,0.676-0.208,0.988c-0.121,0.295-0.295,0.555-0.52,0.78
	c-0.225,0.208-0.494,0.381-0.806,0.52c-0.295,0.121-0.607,0.182-0.936,0.182c-0.347,0-0.667-0.061-0.962-0.182
	c-0.295-0.139-0.555-0.312-0.78-0.52c-0.225-0.225-0.407-0.485-0.546-0.78c-0.121-0.312-0.182-0.641-0.182-0.988
	c0-0.347,0.061-0.667,0.182-0.962c0.139-0.312,0.321-0.572,0.546-0.78c0.225-0.225,0.485-0.399,0.78-0.52
	c0.295-0.139,0.615-0.208,0.962-0.208c0.329,0,0.641,0.069,0.936,0.208c0.312,0.121,0.581,0.295,0.806,0.52
	c0.225,0.208,0.399,0.468,0.52,0.78C277.762,554.615,277.831,554.935,277.831,555.282z M297.703,565.708
	c0,1.075-0.182,2.028-0.546,2.86c-0.364,0.815-0.858,1.508-1.482,2.08c-0.624,0.555-1.343,0.979-2.158,1.274
	c-0.797,0.295-1.638,0.442-2.522,0.442s-1.733-0.147-2.548-0.442c-0.797-0.295-1.508-0.719-2.132-1.274
	c-0.624-0.572-1.118-1.265-1.482-2.08c-0.364-0.832-0.546-1.785-0.546-2.86v-0.312c0-1.057,0.182-1.993,0.546-2.808
	c0.364-0.832,0.858-1.534,1.482-2.106s1.335-1.005,2.132-1.3c0.815-0.295,1.664-0.442,2.548-0.442s1.725,0.147,2.522,0.442
	c0.815,0.295,1.534,0.728,2.158,1.3c0.624,0.572,1.118,1.274,1.482,2.106c0.364,0.815,0.546,1.751,0.546,2.808V565.708z
	 M290.995,569.244c0.468,0,0.91-0.078,1.326-0.234c0.416-0.156,0.78-0.381,1.092-0.676c0.312-0.295,0.555-0.65,0.728-1.066
	c0.191-0.433,0.286-0.919,0.286-1.456v-0.52c0-0.537-0.095-1.014-0.286-1.43c-0.173-0.433-0.416-0.797-0.728-1.092
	c-0.312-0.295-0.676-0.52-1.092-0.676c-0.416-0.156-0.858-0.234-1.326-0.234c-0.468,0-0.91,0.078-1.326,0.234
	c-0.416,0.156-0.78,0.381-1.092,0.676c-0.312,0.295-0.563,0.659-0.754,1.092c-0.173,0.416-0.26,0.893-0.26,1.43v0.52
	c0,0.537,0.087,1.023,0.26,1.456c0.191,0.416,0.442,0.771,0.754,1.066c0.312,0.295,0.676,0.52,1.092,0.676
	C290.085,569.166,290.527,569.244,290.995,569.244z M304.263,572h-3.276v-12.896h3.276v1.924h0.468
	c0.295-0.728,0.771-1.291,1.43-1.69s1.43-0.598,2.314-0.598c0.624,0,1.205,0.104,1.742,0.312c0.555,0.191,1.04,0.494,1.456,0.91
	c0.416,0.416,0.737,0.945,0.962,1.586c0.243,0.641,0.364,1.404,0.364,2.288V572h-3.276v-7.332c0-0.919-0.225-1.638-0.676-2.158
	c-0.433-0.537-1.066-0.806-1.898-0.806c-0.971,0-1.699,0.329-2.184,0.988c-0.468,0.641-0.702,1.508-0.702,2.6V572z M325.253,570.128
	c-0.347,0.815-0.832,1.395-1.456,1.742c-0.624,0.329-1.352,0.494-2.184,0.494c-0.78,0-1.517-0.147-2.21-0.442
	c-0.676-0.295-1.274-0.728-1.794-1.3c-0.52-0.572-0.936-1.265-1.248-2.08c-0.295-0.815-0.442-1.742-0.442-2.782v-0.416
	c0-1.023,0.147-1.941,0.442-2.756c0.295-0.815,0.693-1.508,1.196-2.08c0.503-0.572,1.083-1.005,1.742-1.3
	c0.676-0.312,1.395-0.468,2.158-0.468c0.919,0,1.655,0.156,2.21,0.468c0.572,0.312,1.023,0.797,1.352,1.456h0.468v-1.56h3.276v8.996
	c0,0.52,0.234,0.78,0.702,0.78h0.494V572h-2.236c-0.589,0-1.075-0.173-1.456-0.52c-0.364-0.347-0.546-0.797-0.546-1.352H325.253z
	 M322.341,569.244c0.953,0,1.716-0.312,2.288-0.936c0.572-0.641,0.858-1.508,0.858-2.6v-0.312c0-1.092-0.286-1.95-0.858-2.574
	c-0.572-0.641-1.335-0.962-2.288-0.962s-1.716,0.321-2.288,0.962c-0.572,0.624-0.858,1.482-0.858,2.574v0.312
	c0,1.092,0.286,1.959,0.858,2.6C320.625,568.932,321.388,569.244,322.341,569.244z M332.749,568.88h4.524v-11.96h-4.368v-3.12h7.644
	v15.08h4.212V572h-12.012V568.88z M373.403,559.104h3.276V572h-3.276v-1.872h-0.468c-0.572,1.491-1.803,2.236-3.692,2.236
	c-0.642,0-1.24-0.104-1.794-0.312c-0.555-0.208-1.04-0.529-1.456-0.962c-0.416-0.433-0.746-0.971-0.988-1.612
	c-0.226-0.659-0.338-1.43-0.338-2.314v-8.06h3.276v7.384c0,0.919,0.216,1.638,0.65,2.158c0.433,0.503,1.083,0.754,1.95,0.754
	c0.988,0,1.707-0.312,2.158-0.936c0.468-0.641,0.702-1.508,0.702-2.6V559.104z M384.695,562.744c0,0.416,0.216,0.719,0.65,0.91
	c0.433,0.173,1.222,0.321,2.366,0.442c1.317,0.139,2.392,0.537,3.224,1.196c0.832,0.641,1.248,1.543,1.248,2.704v0.156
	c0,1.283-0.468,2.305-1.404,3.068s-2.254,1.144-3.952,1.144c-1.006,0-1.864-0.13-2.574-0.39c-0.711-0.26-1.3-0.581-1.768-0.962
	c-0.468-0.399-0.832-0.832-1.092-1.3c-0.243-0.485-0.408-0.953-0.494-1.404l3.016-0.988c0.138,0.555,0.424,1.04,0.858,1.456
	c0.45,0.416,1.135,0.624,2.054,0.624c0.814,0,1.369-0.121,1.664-0.364c0.312-0.26,0.468-0.537,0.468-0.832
	c0-0.173-0.044-0.329-0.13-0.468c-0.07-0.156-0.208-0.295-0.416-0.416c-0.208-0.139-0.494-0.251-0.858-0.338
	c-0.347-0.087-0.789-0.156-1.326-0.208c-1.456-0.121-2.618-0.494-3.484-1.118c-0.85-0.641-1.274-1.577-1.274-2.808v-0.156
	c0-0.641,0.138-1.205,0.416-1.69c0.277-0.485,0.641-0.893,1.092-1.222c0.45-0.347,0.97-0.607,1.56-0.78
	c0.589-0.173,1.196-0.26,1.82-0.26c0.814,0,1.516,0.104,2.106,0.312c0.606,0.191,1.118,0.451,1.534,0.78
	c0.416,0.312,0.754,0.667,1.014,1.066c0.26,0.381,0.459,0.754,0.598,1.118l-2.964,1.196c-0.156-0.468-0.425-0.832-0.806-1.092
	c-0.382-0.277-0.876-0.416-1.482-0.416c-0.555,0-0.971,0.104-1.248,0.312C384.833,562.207,384.695,562.449,384.695,562.744z
	 M399.393,566.618c0.017,0.381,0.104,0.737,0.26,1.066c0.173,0.312,0.398,0.589,0.676,0.832c0.294,0.225,0.624,0.407,0.988,0.546
	c0.381,0.121,0.78,0.182,1.196,0.182c0.814,0,1.438-0.139,1.872-0.416c0.433-0.295,0.745-0.641,0.936-1.04l2.808,1.56
	c-0.156,0.329-0.373,0.676-0.65,1.04c-0.278,0.347-0.642,0.667-1.092,0.962c-0.434,0.295-0.971,0.537-1.612,0.728
	c-0.624,0.191-1.361,0.286-2.21,0.286c-0.971,0-1.855-0.156-2.652-0.468c-0.798-0.312-1.491-0.763-2.08-1.352
	c-0.572-0.589-1.023-1.309-1.352-2.158c-0.312-0.849-0.468-1.811-0.468-2.886v-0.156c0-0.988,0.164-1.889,0.494-2.704
	c0.346-0.815,0.814-1.508,1.404-2.08c0.589-0.572,1.274-1.014,2.054-1.326c0.797-0.329,1.646-0.494,2.548-0.494
	c1.109,0,2.062,0.199,2.86,0.598c0.797,0.381,1.456,0.875,1.976,1.482c0.52,0.589,0.901,1.248,1.144,1.976
	c0.242,0.711,0.364,1.404,0.364,2.08v1.742H399.393z M402.487,561.704c-0.832,0-1.508,0.217-2.028,0.65
	c-0.52,0.416-0.858,0.901-1.014,1.456h6.084c-0.104-0.607-0.434-1.109-0.988-1.508C404.003,561.903,403.319,561.704,402.487,561.704
	z M411.802,559.104h5.46v1.872h0.468c0.243-0.711,0.65-1.257,1.222-1.638c0.59-0.399,1.292-0.598,2.106-0.598
	c1.283,0,2.314,0.407,3.094,1.222c0.78,0.797,1.17,2.019,1.17,3.666v0.572l-3.38,0.312v-0.364c0-0.711-0.182-1.274-0.546-1.69
	c-0.364-0.433-0.91-0.65-1.638-0.65s-1.3,0.251-1.716,0.754c-0.416,0.503-0.624,1.222-0.624,2.158v4.16h2.964V572h-8.892v-3.12
	h2.652v-6.656h-2.34V559.104z M430.218,563.368h8.112v2.964h-8.112V563.368z M448.374,562.744c0,0.416,0.217,0.719,0.65,0.91
	c0.434,0.173,1.222,0.321,2.366,0.442c1.318,0.139,2.392,0.537,3.224,1.196c0.832,0.641,1.248,1.543,1.248,2.704v0.156
	c0,1.283-0.468,2.305-1.404,3.068s-2.253,1.144-3.952,1.144c-1.005,0-1.863-0.13-2.574-0.39c-0.71-0.26-1.3-0.581-1.768-0.962
	c-0.468-0.399-0.832-0.832-1.092-1.3c-0.242-0.485-0.407-0.953-0.494-1.404l3.016-0.988c0.139,0.555,0.425,1.04,0.858,1.456
	c0.451,0.416,1.136,0.624,2.054,0.624c0.815,0,1.37-0.121,1.664-0.364c0.312-0.26,0.468-0.537,0.468-0.832
	c0-0.173-0.043-0.329-0.13-0.468c-0.069-0.156-0.208-0.295-0.416-0.416c-0.208-0.139-0.494-0.251-0.858-0.338
	c-0.346-0.087-0.788-0.156-1.326-0.208c-1.456-0.121-2.617-0.494-3.484-1.118c-0.849-0.641-1.274-1.577-1.274-2.808v-0.156
	c0-0.641,0.139-1.205,0.416-1.69c0.278-0.485,0.642-0.893,1.092-1.222c0.451-0.347,0.971-0.607,1.56-0.78
	c0.59-0.173,1.196-0.26,1.82-0.26c0.815,0,1.517,0.104,2.106,0.312c0.607,0.191,1.118,0.451,1.534,0.78
	c0.416,0.312,0.754,0.667,1.014,1.066c0.26,0.381,0.46,0.754,0.598,1.118l-2.964,1.196c-0.156-0.468-0.424-0.832-0.806-1.092
	c-0.381-0.277-0.875-0.416-1.482-0.416c-0.554,0-0.97,0.104-1.248,0.312C448.513,562.207,448.374,562.449,448.374,562.744z
	 M462.786,577.2h-3.276v-18.096h3.276v1.872h0.468c0.347-0.711,0.85-1.257,1.508-1.638c0.659-0.399,1.5-0.598,2.522-0.598
	c0.763,0,1.482,0.147,2.158,0.442c0.694,0.295,1.292,0.728,1.794,1.3c0.52,0.555,0.928,1.239,1.222,2.054
	c0.312,0.815,0.468,1.742,0.468,2.782v0.468c0,1.057-0.147,1.993-0.442,2.808c-0.294,0.815-0.693,1.508-1.196,2.08
	c-0.502,0.555-1.1,0.979-1.794,1.274c-0.676,0.277-1.412,0.416-2.21,0.416c-0.589,0-1.1-0.061-1.534-0.182
	c-0.433-0.121-0.814-0.286-1.144-0.494c-0.312-0.208-0.58-0.442-0.806-0.702c-0.208-0.277-0.39-0.563-0.546-0.858h-0.468V577.2z
	 M466.218,569.244c1.023,0,1.846-0.312,2.47-0.936c0.642-0.641,0.962-1.508,0.962-2.6v-0.312c0-1.092-0.32-1.95-0.962-2.574
	c-0.624-0.641-1.447-0.962-2.47-0.962c-1.022,0-1.854,0.329-2.496,0.988c-0.624,0.641-0.936,1.491-0.936,2.548v0.312
	c0,1.057,0.312,1.915,0.936,2.574C464.364,568.923,465.196,569.244,466.218,569.244z M484.452,570.128
	c-0.347,0.815-0.832,1.395-1.456,1.742c-0.624,0.329-1.352,0.494-2.184,0.494c-0.78,0-1.517-0.147-2.21-0.442
	c-0.676-0.295-1.274-0.728-1.794-1.3c-0.52-0.572-0.936-1.265-1.248-2.08c-0.295-0.815-0.442-1.742-0.442-2.782v-0.416
	c0-1.023,0.147-1.941,0.442-2.756c0.295-0.815,0.693-1.508,1.196-2.08c0.503-0.572,1.083-1.005,1.742-1.3
	c0.676-0.312,1.395-0.468,2.158-0.468c0.919,0,1.655,0.156,2.21,0.468c0.572,0.312,1.023,0.797,1.352,1.456h0.468v-1.56h3.276v8.996
	c0,0.52,0.234,0.78,0.702,0.78h0.494V572h-2.236c-0.589,0-1.075-0.173-1.456-0.52c-0.364-0.347-0.546-0.797-0.546-1.352H484.452z
	 M481.54,569.244c0.953,0,1.716-0.312,2.288-0.936c0.572-0.641,0.858-1.508,0.858-2.6v-0.312c0-1.092-0.286-1.95-0.858-2.574
	c-0.572-0.641-1.335-0.962-2.288-0.962s-1.716,0.321-2.288,0.962c-0.572,0.624-0.858,1.482-0.858,2.574v0.312
	c0,1.092,0.286,1.959,0.858,2.6C479.824,568.932,480.587,569.244,481.54,569.244z M504.61,567.268
	c-0.295,1.525-0.997,2.756-2.106,3.692c-1.092,0.936-2.557,1.404-4.394,1.404c-0.953,0-1.846-0.147-2.678-0.442
	c-0.815-0.295-1.525-0.719-2.132-1.274c-0.607-0.555-1.083-1.239-1.43-2.054c-0.347-0.815-0.52-1.742-0.52-2.782V565.5
	c0-1.04,0.173-1.976,0.52-2.808c0.347-0.832,0.823-1.543,1.43-2.132c0.624-0.589,1.343-1.04,2.158-1.352
	c0.832-0.312,1.716-0.468,2.652-0.468c1.803,0,3.259,0.468,4.368,1.404c1.127,0.936,1.837,2.167,2.132,3.692l-3.224,0.832
	c-0.104-0.763-0.433-1.421-0.988-1.976c-0.555-0.555-1.335-0.832-2.34-0.832c-0.468,0-0.91,0.087-1.326,0.26
	c-0.416,0.173-0.78,0.425-1.092,0.754c-0.312,0.312-0.563,0.702-0.754,1.17c-0.173,0.451-0.26,0.962-0.26,1.534v0.156
	c0,0.572,0.087,1.083,0.26,1.534c0.191,0.433,0.442,0.797,0.754,1.092c0.312,0.295,0.676,0.52,1.092,0.676
	c0.416,0.139,0.858,0.208,1.326,0.208c1.005,0,1.768-0.251,2.288-0.754c0.537-0.503,0.884-1.179,1.04-2.028L504.61,567.268z
	 M510.832,566.618c0.017,0.381,0.104,0.737,0.26,1.066c0.173,0.312,0.399,0.589,0.676,0.832c0.295,0.225,0.624,0.407,0.988,0.546
	c0.381,0.121,0.78,0.182,1.196,0.182c0.815,0,1.439-0.139,1.872-0.416c0.433-0.295,0.745-0.641,0.936-1.04l2.808,1.56
	c-0.156,0.329-0.373,0.676-0.65,1.04c-0.277,0.347-0.641,0.667-1.092,0.962c-0.433,0.295-0.971,0.537-1.612,0.728
	c-0.624,0.191-1.361,0.286-2.21,0.286c-0.971,0-1.855-0.156-2.652-0.468s-1.491-0.763-2.08-1.352
	c-0.572-0.589-1.023-1.309-1.352-2.158c-0.312-0.849-0.468-1.811-0.468-2.886v-0.156c0-0.988,0.165-1.889,0.494-2.704
	c0.347-0.815,0.815-1.508,1.404-2.08c0.589-0.572,1.274-1.014,2.054-1.326c0.797-0.329,1.647-0.494,2.548-0.494
	c1.109,0,2.063,0.199,2.86,0.598c0.797,0.381,1.456,0.875,1.976,1.482c0.52,0.589,0.901,1.248,1.144,1.976
	c0.243,0.711,0.364,1.404,0.364,2.08v1.742H510.832z M513.926,561.704c-0.832,0-1.508,0.217-2.028,0.65
	c-0.52,0.416-0.858,0.901-1.014,1.456h6.084c-0.104-0.607-0.433-1.109-0.988-1.508C515.443,561.903,514.758,561.704,513.926,561.704
	z M94.132,589.8h3.432v14.924h8.268V608h-11.7V589.8z M110.182,604.88h4.368v-6.656h-4.056v-3.12h7.332v9.776h3.744V608h-11.388
	V604.88z M118.632,591.282c0,0.347-0.069,0.676-0.208,0.988c-0.121,0.295-0.295,0.555-0.52,0.78
	c-0.225,0.208-0.494,0.381-0.806,0.52c-0.295,0.121-0.607,0.182-0.936,0.182c-0.347,0-0.667-0.061-0.962-0.182
	c-0.295-0.139-0.555-0.312-0.78-0.52c-0.225-0.225-0.407-0.485-0.546-0.78c-0.121-0.312-0.182-0.641-0.182-0.988
	c0-0.347,0.061-0.667,0.182-0.962c0.139-0.312,0.321-0.572,0.546-0.78c0.225-0.225,0.485-0.399,0.78-0.52
	c0.295-0.139,0.615-0.208,0.962-0.208c0.329,0,0.641,0.069,0.936,0.208c0.312,0.121,0.581,0.295,0.806,0.52
	c0.225,0.208,0.399,0.468,0.52,0.78C118.563,590.615,118.632,590.935,118.632,591.282z M129.144,608h-3.276v-12.896h3.276v1.924
	h0.468c0.295-0.728,0.771-1.291,1.43-1.69c0.659-0.399,1.43-0.598,2.314-0.598c0.624,0,1.205,0.104,1.742,0.312
	c0.555,0.191,1.04,0.494,1.456,0.91c0.416,0.416,0.737,0.945,0.962,1.586c0.243,0.641,0.364,1.404,0.364,2.288V608h-3.276v-7.332
	c0-0.919-0.225-1.638-0.676-2.158c-0.433-0.537-1.066-0.806-1.898-0.806c-0.971,0-1.699,0.329-2.184,0.988
	c-0.468,0.641-0.702,1.508-0.702,2.6V608z M150.524,595.104h3.276V608h-3.276v-1.872h-0.468c-0.572,1.491-1.803,2.236-3.692,2.236
	c-0.642,0-1.24-0.104-1.794-0.312c-0.555-0.208-1.04-0.529-1.456-0.962c-0.416-0.433-0.746-0.971-0.988-1.612
	c-0.226-0.659-0.338-1.43-0.338-2.314v-8.06h3.276v7.384c0,0.919,0.216,1.638,0.65,2.158c0.433,0.503,1.083,0.754,1.95,0.754
	c0.988,0,1.707-0.312,2.158-0.936c0.468-0.641,0.702-1.508,0.702-2.6V595.104z M166.262,595.104h3.614l-3.12,6.058v0.468l3.302,6.37
	h-3.77l-2.418-5.044h-0.468L160.984,608h-3.77l3.302-6.37v-0.468l-3.146-6.058h3.64l2.392,4.732h0.468L166.262,595.104z
	 M202.132,603.268c-0.295,1.525-0.997,2.756-2.106,3.692c-1.092,0.936-2.557,1.404-4.394,1.404c-0.954,0-1.846-0.147-2.678-0.442
	c-0.815-0.295-1.526-0.719-2.132-1.274c-0.607-0.555-1.084-1.239-1.43-2.054c-0.347-0.815-0.52-1.742-0.52-2.782V601.5
	c0-1.04,0.173-1.976,0.52-2.808c0.346-0.832,0.823-1.543,1.43-2.132c0.624-0.589,1.343-1.04,2.158-1.352
	c0.832-0.312,1.716-0.468,2.652-0.468c1.802,0,3.258,0.468,4.368,1.404c1.126,0.936,1.837,2.167,2.132,3.692l-3.224,0.832
	c-0.104-0.763-0.434-1.421-0.988-1.976c-0.555-0.555-1.335-0.832-2.34-0.832c-0.468,0-0.91,0.087-1.326,0.26
	c-0.416,0.173-0.78,0.425-1.092,0.754c-0.312,0.312-0.564,0.702-0.754,1.17c-0.174,0.451-0.26,0.962-0.26,1.534v0.156
	c0,0.572,0.086,1.083,0.26,1.534c0.19,0.433,0.442,0.797,0.754,1.092c0.312,0.295,0.676,0.52,1.092,0.676
	c0.416,0.139,0.858,0.208,1.326,0.208c1.005,0,1.768-0.251,2.288-0.754c0.537-0.503,0.884-1.179,1.04-2.028L202.132,603.268z
	 M218.103,601.708c0,1.075-0.182,2.028-0.546,2.86c-0.364,0.815-0.858,1.508-1.482,2.08c-0.624,0.555-1.343,0.979-2.158,1.274
	c-0.797,0.295-1.638,0.442-2.522,0.442s-1.733-0.147-2.548-0.442c-0.797-0.295-1.508-0.719-2.132-1.274
	c-0.624-0.572-1.118-1.265-1.482-2.08c-0.364-0.832-0.546-1.785-0.546-2.86v-0.312c0-1.057,0.182-1.993,0.546-2.808
	c0.364-0.832,0.858-1.534,1.482-2.106c0.624-0.572,1.335-1.005,2.132-1.3c0.815-0.295,1.664-0.442,2.548-0.442
	s1.725,0.147,2.522,0.442c0.815,0.295,1.534,0.728,2.158,1.3c0.624,0.572,1.118,1.274,1.482,2.106
	c0.364,0.815,0.546,1.751,0.546,2.808V601.708z M211.395,605.244c0.468,0,0.91-0.078,1.326-0.234s0.78-0.381,1.092-0.676
	c0.312-0.295,0.555-0.65,0.728-1.066c0.191-0.433,0.286-0.919,0.286-1.456v-0.52c0-0.537-0.095-1.014-0.286-1.43
	c-0.173-0.433-0.416-0.797-0.728-1.092c-0.312-0.295-0.676-0.52-1.092-0.676s-0.858-0.234-1.326-0.234s-0.91,0.078-1.326,0.234
	s-0.78,0.381-1.092,0.676c-0.312,0.295-0.563,0.659-0.754,1.092c-0.173,0.416-0.26,0.893-0.26,1.43v0.52
	c0,0.537,0.087,1.023,0.26,1.456c0.191,0.416,0.442,0.771,0.754,1.066c0.312,0.295,0.676,0.52,1.092,0.676
	S210.927,605.244,211.395,605.244z M224.663,608h-3.276v-12.896h3.276v1.924h0.468c0.295-0.728,0.772-1.291,1.43-1.69
	c0.659-0.399,1.43-0.598,2.314-0.598c0.624,0,1.205,0.104,1.742,0.312c0.555,0.191,1.04,0.494,1.456,0.91
	c0.416,0.416,0.737,0.945,0.962,1.586c0.243,0.641,0.364,1.404,0.364,2.288V608h-3.276v-7.332c0-0.919-0.225-1.638-0.676-2.158
	c-0.433-0.537-1.066-0.806-1.898-0.806c-0.97,0-1.698,0.329-2.184,0.988c-0.468,0.641-0.702,1.508-0.702,2.6V608z M237.203,595.104
	h3.666v-2.652c0-0.745,0.252-1.369,0.754-1.872c0.503-0.52,1.127-0.78,1.872-0.78h5.252v3.12h-3.9c-0.468,0-0.702,0.26-0.702,0.78
	v1.404h5.07v3.12h-5.07V608h-3.276v-9.776h-3.666V595.104z M256.113,602.618c0.018,0.381,0.104,0.737,0.26,1.066
	c0.174,0.312,0.399,0.589,0.676,0.832c0.295,0.225,0.624,0.407,0.988,0.546c0.382,0.121,0.78,0.182,1.196,0.182
	c0.815,0,1.439-0.139,1.872-0.416c0.434-0.295,0.746-0.641,0.936-1.04l2.808,1.56c-0.156,0.329-0.372,0.676-0.65,1.04
	c-0.277,0.347-0.641,0.667-1.092,0.962c-0.433,0.295-0.97,0.537-1.612,0.728c-0.624,0.191-1.36,0.286-2.21,0.286
	c-0.97,0-1.854-0.156-2.652-0.468c-0.797-0.312-1.49-0.763-2.08-1.352c-0.572-0.589-1.022-1.309-1.352-2.158
	c-0.312-0.849-0.468-1.811-0.468-2.886v-0.156c0-0.988,0.165-1.889,0.494-2.704c0.347-0.815,0.815-1.508,1.404-2.08
	c0.59-0.572,1.274-1.014,2.054-1.326c0.798-0.329,1.647-0.494,2.548-0.494c1.11,0,2.063,0.199,2.86,0.598
	c0.798,0.381,1.456,0.875,1.976,1.482c0.52,0.589,0.902,1.248,1.144,1.976c0.243,0.711,0.364,1.404,0.364,2.08v1.742H256.113z
	 M259.207,597.704c-0.832,0-1.508,0.217-2.028,0.65c-0.52,0.416-0.858,0.901-1.014,1.456h6.084
	c-0.104-0.607-0.433-1.109-0.988-1.508C260.724,597.903,260.039,597.704,259.207,597.704z M268.523,595.104h5.46v1.872h0.468
	c0.243-0.711,0.65-1.257,1.222-1.638c0.589-0.399,1.291-0.598,2.106-0.598c1.283,0,2.314,0.407,3.094,1.222
	c0.78,0.797,1.17,2.019,1.17,3.666v0.572l-3.38,0.312v-0.364c0-0.711-0.182-1.274-0.546-1.69c-0.364-0.433-0.91-0.65-1.638-0.65
	s-1.3,0.251-1.716,0.754c-0.416,0.503-0.624,1.222-0.624,2.158v4.16h2.964V608h-8.892v-3.12h2.652v-6.656h-2.34V595.104z
	 M287.953,602.618c0.017,0.381,0.104,0.737,0.26,1.066c0.173,0.312,0.399,0.589,0.676,0.832c0.295,0.225,0.624,0.407,0.988,0.546
	c0.381,0.121,0.78,0.182,1.196,0.182c0.815,0,1.439-0.139,1.872-0.416c0.433-0.295,0.745-0.641,0.936-1.04l2.808,1.56
	c-0.156,0.329-0.373,0.676-0.65,1.04c-0.277,0.347-0.641,0.667-1.092,0.962c-0.433,0.295-0.971,0.537-1.612,0.728
	c-0.624,0.191-1.361,0.286-2.21,0.286c-0.971,0-1.855-0.156-2.652-0.468s-1.491-0.763-2.08-1.352
	c-0.572-0.589-1.023-1.309-1.352-2.158c-0.312-0.849-0.468-1.811-0.468-2.886v-0.156c0-0.988,0.165-1.889,0.494-2.704
	c0.347-0.815,0.815-1.508,1.404-2.08c0.589-0.572,1.274-1.014,2.054-1.326c0.797-0.329,1.647-0.494,2.548-0.494
	c1.109,0,2.063,0.199,2.86,0.598c0.797,0.381,1.456,0.875,1.976,1.482c0.52,0.589,0.901,1.248,1.144,1.976
	c0.243,0.711,0.364,1.404,0.364,2.08v1.742H287.953z M291.047,597.704c-0.832,0-1.508,0.217-2.028,0.65
	c-0.52,0.416-0.858,0.901-1.014,1.456h6.084c-0.104-0.607-0.433-1.109-0.988-1.508C292.564,597.903,291.879,597.704,291.047,597.704
	z M304.263,608h-3.276v-12.896h3.276v1.924h0.468c0.295-0.728,0.771-1.291,1.43-1.69s1.43-0.598,2.314-0.598
	c0.624,0,1.205,0.104,1.742,0.312c0.555,0.191,1.04,0.494,1.456,0.91c0.416,0.416,0.737,0.945,0.962,1.586
	c0.243,0.641,0.364,1.404,0.364,2.288V608h-3.276v-7.332c0-0.919-0.225-1.638-0.676-2.158c-0.433-0.537-1.066-0.806-1.898-0.806
	c-0.971,0-1.699,0.329-2.184,0.988c-0.468,0.641-0.702,1.508-0.702,2.6V608z M329.491,603.268c-0.295,1.525-0.997,2.756-2.106,3.692
	c-1.092,0.936-2.557,1.404-4.394,1.404c-0.953,0-1.846-0.147-2.678-0.442c-0.815-0.295-1.525-0.719-2.132-1.274
	s-1.083-1.239-1.43-2.054c-0.347-0.815-0.52-1.742-0.52-2.782V601.5c0-1.04,0.173-1.976,0.52-2.808
	c0.347-0.832,0.823-1.543,1.43-2.132c0.624-0.589,1.343-1.04,2.158-1.352c0.832-0.312,1.716-0.468,2.652-0.468
	c1.803,0,3.259,0.468,4.368,1.404c1.127,0.936,1.837,2.167,2.132,3.692l-3.224,0.832c-0.104-0.763-0.433-1.421-0.988-1.976
	c-0.555-0.555-1.335-0.832-2.34-0.832c-0.468,0-0.91,0.087-1.326,0.26c-0.416,0.173-0.78,0.425-1.092,0.754
	c-0.312,0.312-0.563,0.702-0.754,1.17c-0.173,0.451-0.26,0.962-0.26,1.534v0.156c0,0.572,0.087,1.083,0.26,1.534
	c0.191,0.433,0.442,0.797,0.754,1.092c0.312,0.295,0.676,0.52,1.092,0.676c0.416,0.139,0.858,0.208,1.326,0.208
	c1.005,0,1.768-0.251,2.288-0.754c0.537-0.503,0.884-1.179,1.04-2.028L329.491,603.268z M335.713,602.618
	c0.017,0.381,0.104,0.737,0.26,1.066c0.173,0.312,0.398,0.589,0.676,0.832c0.294,0.225,0.624,0.407,0.988,0.546
	c0.381,0.121,0.78,0.182,1.196,0.182c0.814,0,1.438-0.139,1.872-0.416c0.433-0.295,0.745-0.641,0.936-1.04l2.808,1.56
	c-0.156,0.329-0.373,0.676-0.65,1.04c-0.278,0.347-0.642,0.667-1.092,0.962c-0.434,0.295-0.971,0.537-1.612,0.728
	c-0.624,0.191-1.361,0.286-2.21,0.286c-0.971,0-1.855-0.156-2.652-0.468c-0.798-0.312-1.491-0.763-2.08-1.352
	c-0.572-0.589-1.023-1.309-1.352-2.158c-0.312-0.849-0.468-1.811-0.468-2.886v-0.156c0-0.988,0.164-1.889,0.494-2.704
	c0.346-0.815,0.814-1.508,1.404-2.08c0.589-0.572,1.274-1.014,2.054-1.326c0.797-0.329,1.646-0.494,2.548-0.494
	c1.109,0,2.062,0.199,2.86,0.598c0.797,0.381,1.456,0.875,1.976,1.482c0.52,0.589,0.901,1.248,1.144,1.976
	c0.242,0.711,0.364,1.404,0.364,2.08v1.742H335.713z M338.807,597.704c-0.832,0-1.508,0.217-2.028,0.65
	c-0.52,0.416-0.858,0.901-1.014,1.456h6.084c-0.104-0.607-0.434-1.109-0.988-1.508C340.323,597.903,339.639,597.704,338.807,597.704
	z"/>
<g>
	<g>
		<path style="fill:#FFFFFF;" d="M615.486,94.397h8.321c5.09,0,9.188,1.841,9.188,7.544c0,5.522-4.213,7.956-9.188,7.956h-3.013
			v7.957h-5.309V94.397z M623.5,105.684c2.909,0,4.291-1.304,4.291-3.743c0-2.449-1.496-3.331-4.291-3.331h-2.705v7.074H623.5z"/>
		<path style="fill:#FFFFFF;" d="M635.766,106.018c0-7.839,3.847-12.053,9.435-12.053c5.587,0,9.434,4.214,9.434,12.053
			c0,8.024-3.847,12.269-9.434,12.269C639.612,118.286,635.766,114.042,635.766,106.018z M649.191,106.018
			c0-4.875-1.545-7.467-3.991-7.467c-2.447,0-3.992,2.593-3.992,7.467c0,5.06,1.545,7.683,3.992,7.683
			C647.646,113.7,649.191,111.078,649.191,106.018z"/>
		<path style="fill:#FFFFFF;" d="M657.815,114.898l3.046-3.646c1.774,1.452,3.962,2.448,6.236,2.448
			c2.252,0,3.293-0.873,3.293-2.019c0-1.689-1.395-2.097-3.614-3.027l-3.056-1.304c-2.6-0.988-4.972-2.981-4.972-6.395
			c0-3.885,3.499-6.99,8.597-6.99c2.821,0,5.673,1.058,7.79,3.071l-2.675,3.346c-1.651-1.186-3.113-1.832-5.405-1.832
			c-1.749,0-2.936,0.725-2.936,2.095c0,1.411,1.572,1.927,3.822,2.771l2.87,1.216c3.071,1.152,5.012,3.067,5.012,6.377
			c0,3.899-3.271,7.277-9.078,7.277C663.576,118.286,660.303,117.126,657.815,114.898z"/>
		<path style="fill:#FFFFFF;" d="M685.744,98.848h-7.031v-4.451h19.372v4.451h-7.031v19.006h-5.31V98.848z"/>
		<path style="fill:#FFFFFF;" d="M701.885,94.397h8.322c5.089,0,9.188,1.841,9.188,7.544c0,5.522-4.213,7.956-9.188,7.956h-3.013
			v7.957h-5.31V94.397z M709.898,105.684c2.909,0,4.292-1.304,4.292-3.743c0-2.449-1.497-3.331-4.292-3.331h-2.704v7.074H709.898z"
			/>
		<path style="fill:#FFFFFF;" d="M722.164,106.018c0-7.839,3.848-12.053,9.435-12.053s9.435,4.214,9.435,12.053
			c0,8.024-3.848,12.269-9.435,12.269S722.164,114.042,722.164,106.018z M735.59,106.018c0-4.875-1.544-7.467-3.991-7.467
			c-2.446,0-3.991,2.593-3.991,7.467c0,5.06,1.545,7.683,3.991,7.683C734.046,113.7,735.59,111.078,735.59,106.018z"/>
		<path style="fill:#FFFFFF;" d="M744.78,94.397h5.44l4.937,11.662l2.008,5.155h0.124c-0.238-2.469-0.733-5.756-0.733-8.526v-8.291
			h5.061v23.457h-5.44l-4.937-11.688l-2.008-5.129h-0.124c0.238,2.594,0.733,5.737,0.733,8.496v8.321h-5.061V94.397z"/>
		<path style="fill:#FFFFFF;" d="M767.323,94.397h15.55v4.451h-10.24v4.704h8.7v4.452h-8.7v5.398h10.6v4.452h-15.909V94.397z"/>
		<path style="fill:#FFFFFF;" d="M788.133,94.397h6.48c6.806,0,11.28,3.562,11.28,11.621c0,8.068-4.475,11.836-10.98,11.836h-6.78
			V94.397z M794.319,113.578c3.649,0,6.132-1.949,6.132-7.561c0-5.602-2.482-7.345-6.132-7.345h-0.877v14.906H794.319z"/>
		<path style="fill:#FFFFFF;" d="M614.117,144.514v-5.458h1.794v5.223c0,1.521,0.509,2.246,1.831,2.246
			c0.918,0,1.586-0.408,2.464-1.451v-6.018H622v8.798h-1.481l-0.143-1.467h-0.072c-0.858,0.996-1.861,1.683-3.195,1.683
			C615.048,148.07,614.117,146.805,614.117,144.514z"/>
		<path style="fill:#FFFFFF;" d="M625.179,139.056h1.466l0.143,1.403h0.072c0.882-0.904,1.883-1.619,3.241-1.619
			c2.058,0,2.995,1.265,2.995,3.556v5.458h-1.794v-5.223c0-1.536-0.516-2.246-1.82-2.246c-0.957,0-1.602,0.472-2.51,1.402v6.067
			h-1.793V139.056z"/>
		<path style="fill:#FFFFFF;" d="M639.901,140.488h-3.934v-1.432h5.728v8.798h-1.794V140.488z M639.317,136.061
			c0-0.758,0.564-1.28,1.336-1.28s1.337,0.522,1.337,1.28c0,0.773-0.565,1.273-1.337,1.273S639.317,136.833,639.317,136.061z"/>
		<path style="fill:#FFFFFF;" d="M648.762,144.374v-3.886h-2.424v-1.338l2.495-0.094l0.235-2.789h1.487v2.789h4.151v1.432h-4.151
			v3.891c0,1.513,0.536,2.246,2.127,2.246c0.773,0,1.401-0.155,2.005-0.376l0.364,1.31c-0.792,0.274-1.662,0.512-2.783,0.512
			C649.638,148.07,648.762,146.582,648.762,144.374z"/>
		<path style="fill:#FFFFFF;" d="M660.242,144.774v-8.255h-3.023v-1.432h4.816v9.795c0,1.22,0.691,1.713,1.658,1.713
			c0.48,0,0.994-0.116,1.574-0.369l0.433,1.332c-0.841,0.332-1.431,0.512-2.425,0.512
			C661.305,148.07,660.242,146.896,660.242,144.774z"/>
		<path style="fill:#FFFFFF;" d="M678.729,146.337l1.062-1.246c0.896,0.842,2.088,1.398,3.369,1.398
			c1.493,0,2.322-0.687,2.322-1.636c0-1.153-0.861-1.473-2.029-1.967l-1.664-0.729c-1.204-0.475-2.525-1.347-2.525-3.083
			c0-1.837,1.654-3.227,3.982-3.227c1.46,0,2.79,0.577,3.704,1.479l-0.934,1.154c-0.787-0.661-1.644-1.051-2.848-1.051
			c-1.241,0-2.075,0.574-2.075,1.539c0,1.023,1.018,1.397,2.056,1.8l1.6,0.705c1.479,0.576,2.584,1.438,2.584,3.161
			c0,1.893-1.598,3.438-4.271,3.438C681.37,148.07,679.839,147.413,678.729,146.337z"/>
		<path style="fill:#FFFFFF;" d="M689.978,139.056h1.466l0.143,1.062h0.058c0.787-0.744,1.896-1.278,2.931-1.278
			c2.325,0,3.609,1.756,3.609,4.485c0,2.995-1.873,4.745-3.952,4.745c-0.804,0-1.752-0.397-2.503-1.091h-0.043l0.085,1.603v2.866
			h-1.793V139.056z M696.348,143.333c0-1.843-0.67-2.997-2.256-2.997c-0.72,0-1.522,0.356-2.321,1.175v4.163
			c0.729,0.661,1.558,0.9,2.118,0.9C695.289,146.574,696.348,145.413,696.348,143.333z"/>
		<path style="fill:#FFFFFF;" d="M701.674,139.056h1.484l0.16,2.041h0.043c0.908-1.433,2.264-2.256,3.833-2.256
			c0.682,0,1.192,0.1,1.726,0.36l-0.393,1.524c-0.599-0.191-0.933-0.281-1.61-0.281c-1.261,0-2.477,0.643-3.45,2.418v4.993h-1.793
			V139.056z"/>
		<path style="fill:#FFFFFF;" d="M715.501,140.488h-3.934v-1.432h5.727v8.798h-1.793V140.488z M714.916,136.061
			c0-0.758,0.565-1.28,1.337-1.28s1.336,0.522,1.336,1.28c0,0.773-0.564,1.273-1.336,1.273S714.916,136.833,714.916,136.061z"/>
		<path style="fill:#FFFFFF;" d="M722.377,139.056h1.467l0.143,1.403h0.072c0.881-0.904,1.883-1.619,3.241-1.619
			c2.057,0,2.994,1.265,2.994,3.556v5.458h-1.793v-5.223c0-1.536-0.516-2.246-1.821-2.246c-0.956,0-1.602,0.472-2.509,1.402v6.067
			h-1.794V139.056z"/>
		<path style="fill:#FFFFFF;" d="M732.802,149.433c0-0.709,0.498-1.384,1.428-1.904v-0.072c-0.476-0.265-0.9-0.719-0.9-1.46
			c0-0.568,0.392-1.202,1.051-1.648v-0.072c-0.611-0.447-1.107-1.231-1.107-2.275c0-1.969,1.642-3.16,3.54-3.16
			c0.511,0,0.948,0.072,1.34,0.216h3.623v1.398h-2.148c0.346,0.377,0.647,0.972,0.647,1.61c0,1.92-1.524,3.004-3.462,3.004
			c-0.427,0-0.937-0.095-1.412-0.287c-0.393,0.25-0.61,0.534-0.61,0.917c0,0.63,0.615,0.921,1.741,0.921h1.882
			c2.274,0,3.408,0.596,3.408,2.106c0,1.695-1.938,3.101-4.982,3.101C734.343,151.827,732.802,150.995,732.802,149.433z
			 M740.087,149.017c0-0.761-0.636-0.965-1.888-0.965h-1.559c-0.542,0-0.975-0.036-1.34-0.137c-0.73,0.406-0.992,0.85-0.992,1.307
			c0,0.854,0.961,1.37,2.709,1.37C738.897,150.592,740.087,149.843,740.087,149.017z M738.657,142c0-1.15-0.826-1.898-1.845-1.898
			c-1.004,0-1.842,0.748-1.842,1.898c0,1.187,0.838,1.919,1.842,1.919C737.831,143.919,738.657,143.187,738.657,142z"/>
		<path style="fill:#FFFFFF;" d="M745.865,150.615c1.547-0.654,2.307-1.609,2.285-3.013l-0.264-1.784l1.028,1.523
			c-0.302,0.314-0.675,0.414-1.056,0.414c-0.838,0-1.545-0.504-1.545-1.478c0-0.943,0.727-1.493,1.592-1.493
			c1.166,0,1.778,0.953,1.778,2.506c0,2.154-1.219,3.674-3.33,4.416L745.865,150.615z"/>
		<path style="fill:#FFFFFF;" d="M765.243,146.807c3.731-3.261,5.876-5.257,5.876-7.099c0-1.261-0.766-2.098-2.33-2.098
			c-1.037,0-1.923,0.599-2.638,1.314l-1.009-0.998c1.082-1.084,2.22-1.763,3.873-1.763c2.332,0,3.823,1.374,3.823,3.452
			c0,2.1-2.114,4.219-4.997,6.814c0.703-0.057,1.465-0.1,2.126-0.1h3.491v1.524h-8.216V146.807z"/>
		<path style="fill:#FFFFFF;" d="M776.007,142.078c0-3.863,1.613-5.914,4.193-5.914c2.581,0,4.194,2.05,4.194,5.914
			c0,3.834-1.613,5.993-4.194,5.993C777.62,148.07,776.007,145.912,776.007,142.078z M782.756,142.078
			c0-3.211-1.073-4.489-2.556-4.489c-1.481,0-2.555,1.278-2.555,4.489s1.073,4.567,2.555,4.567
			C781.683,146.645,782.756,145.289,782.756,142.078z M779.023,141.975c0-0.762,0.539-1.235,1.177-1.235
			c0.639,0,1.178,0.474,1.178,1.235c0,0.776-0.539,1.25-1.178,1.25C779.562,143.225,779.023,142.751,779.023,141.975z"/>
		<path style="fill:#FFFFFF;" d="M786.843,146.807c3.731-3.261,5.876-5.257,5.876-7.099c0-1.261-0.766-2.098-2.33-2.098
			c-1.037,0-1.923,0.599-2.638,1.314l-1.009-0.998c1.082-1.084,2.22-1.763,3.873-1.763c2.332,0,3.823,1.374,3.823,3.452
			c0,2.1-2.114,4.219-4.997,6.814c0.703-0.057,1.465-0.1,2.126-0.1h3.491v1.524h-8.216V146.807z"/>
		<path style="fill:#FFFFFF;" d="M797.643,146.807c3.731-3.261,5.876-5.257,5.876-7.099c0-1.261-0.766-2.098-2.33-2.098
			c-1.037,0-1.923,0.599-2.638,1.314l-1.009-0.998c1.082-1.084,2.22-1.763,3.873-1.763c2.332,0,3.823,1.374,3.823,3.452
			c0,2.1-2.114,4.219-4.997,6.814c0.703-0.057,1.465-0.1,2.126-0.1h3.491v1.524h-8.216V146.807z"/>
	</g>
</g>
</svg>
