<svg width="314" height="458" viewBox="0 0 314 458" fill="none" xmlns="http://www.w3.org/2000/svg">
<circle cx="16" cy="112" r="16" fill="white"/>
<circle cx="16" cy="158" r="16" fill="#75FA4C"/>
<circle cx="16" cy="441" r="16" fill="white"/>
<circle cx="16" cy="253" r="16" fill="#0020F5"/>
<circle cx="5.33333" cy="196.333" r="5.33333" fill="#E63623"/>
<circle cx="26.6667" cy="196.333" r="5.33333" fill="#E63623"/>
<circle cx="5.33333" cy="215.242" r="5.33333" fill="#E63623"/>
<circle cx="26.6667" cy="215.242" r="5.33333" fill="#E63623"/>
<path d="M0 18C0 9.16344 7.16344 2 16 2C24.8366 2 32 9.16344 32 18V65C32 73.8366 24.8366 81 16 81C7.16344 81 0 73.8366 0 65V18Z" fill="#E63623"/>
<circle cx="16" cy="18" r="16" fill="#0020F5"/>
<circle cx="16" cy="65" r="16" fill="white"/>
<circle cx="16" cy="65" r="5" fill="black"/>
<path d="M68.3481 27.25H57.6381L56.1081 34H49.8981L57.4131 2.5H68.5731L76.0881 34H69.8781L68.3481 27.25ZM58.8981 21.58H67.0431L63.3981 5.47H62.5881L58.8981 21.58Z" fill="white"/>
<path d="M52.9131 49.5H58.8531V75.33H73.1631V81H52.9131V49.5Z" fill="white"/>
<path d="M52.9131 96.5H58.8531V122.33H73.1631V128H52.9131V96.5Z" fill="white"/>
<path d="M115.393 59.13C115.393 57.87 114.898 56.775 113.908 55.845C112.948 54.915 111.583 54.45 109.813 54.45C108.313 54.45 107.128 54.765 106.258 55.395C105.388 55.995 104.953 56.82 104.953 57.87C104.953 58.41 105.058 58.905 105.268 59.355C105.478 59.775 105.838 60.165 106.348 60.525C106.888 60.855 107.578 61.155 108.418 61.425C109.288 61.695 110.383 61.95 111.703 62.19C115.003 62.79 117.523 63.795 119.263 65.205C121.003 66.615 121.873 68.7 121.873 71.46V72C121.873 73.47 121.603 74.805 121.063 76.005C120.553 77.175 119.803 78.18 118.813 79.02C117.823 79.86 116.623 80.505 115.213 80.955C113.803 81.405 112.213 81.63 110.443 81.63C108.373 81.63 106.543 81.345 104.953 80.775C103.393 80.175 102.088 79.365 101.038 78.345C99.9881 77.295 99.1931 76.08 98.6531 74.7C98.1131 73.29 97.8431 71.76 97.8431 70.11V68.76H103.783V69.84C103.783 71.73 104.323 73.245 105.403 74.385C106.513 75.495 108.223 76.05 110.533 76.05C112.333 76.05 113.668 75.66 114.538 74.88C115.408 74.1 115.843 73.17 115.843 72.09C115.843 71.58 115.753 71.1 115.573 70.65C115.393 70.17 115.078 69.75 114.628 69.39C114.178 69 113.563 68.655 112.783 68.355C112.003 68.055 111.013 67.8 109.813 67.59C108.223 67.32 106.768 66.975 105.448 66.555C104.128 66.105 102.973 65.52 101.983 64.8C101.023 64.08 100.273 63.18 99.7331 62.1C99.1931 61.02 98.9231 59.7 98.9231 58.14V57.87C98.9231 56.58 99.1781 55.395 99.6881 54.315C100.228 53.205 100.963 52.245 101.893 51.435C102.853 50.625 103.993 49.995 105.313 49.545C106.663 49.095 108.163 48.87 109.813 48.87C111.673 48.87 113.323 49.14 114.763 49.68C116.203 50.19 117.403 50.895 118.363 51.795C119.353 52.695 120.088 53.73 120.568 54.9C121.078 56.07 121.333 57.3 121.333 58.59V60.21H115.393V59.13Z" fill="white"/>
<circle cx="63" cy="239.667" r="2.66667" fill="#0020F5"/>
<circle cx="76.3333" cy="239.667" r="2.66667" fill="#0020F5"/>
<circle cx="49.6667" cy="253" r="2.66667" fill="#0020F5"/>
<circle cx="63" cy="253" r="2.66667" fill="#0020F5"/>
<circle cx="76.3333" cy="253" r="2.66667" fill="#0020F5"/>
<circle cx="49.6667" cy="266.333" r="2.66667" fill="#0020F5"/>
<circle cx="63" cy="266.333" r="2.66667" fill="#0020F5"/>
<circle cx="76.3333" cy="266.333" r="2.66667" fill="#0020F5"/>
<circle cx="49.6667" cy="239.667" r="2.66667" fill="#0020F5"/>
<path d="M47.702 429.9H54.254V431.538H51.836V439H50.12V431.538H47.702V429.9ZM57.638 439H56V429.9H57.638V433.592H57.872C58.0366 433.202 58.2793 432.903 58.6 432.695C58.9206 432.478 59.315 432.37 59.783 432.37C60.1036 432.37 60.3983 432.422 60.667 432.526C60.9356 432.63 61.1696 432.786 61.369 432.994C61.5683 433.202 61.7243 433.471 61.837 433.8C61.9496 434.121 62.006 434.502 62.006 434.944V439H60.368V435.334C60.368 434.875 60.2553 434.515 60.03 434.255C59.8133 433.986 59.497 433.852 59.081 433.852C58.5956 433.852 58.2316 434.017 57.989 434.346C57.755 434.667 57.638 435.1 57.638 435.646V439ZM65.3769 436.309C65.3856 436.5 65.4289 436.677 65.5069 436.842C65.5936 436.998 65.7063 437.137 65.8449 437.258C65.9923 437.371 66.1569 437.462 66.3389 437.531C66.5296 437.592 66.7289 437.622 66.9369 437.622C67.3443 437.622 67.6563 437.553 67.8729 437.414C68.0896 437.267 68.2456 437.093 68.3409 436.894L69.7449 437.674C69.6669 437.839 69.5586 438.012 69.4199 438.194C69.2813 438.367 69.0993 438.528 68.8739 438.675C68.6573 438.822 68.3886 438.944 68.0679 439.039C67.7559 439.134 67.3876 439.182 66.9629 439.182C66.4776 439.182 66.0356 439.104 65.6369 438.948C65.2383 438.792 64.8916 438.567 64.5969 438.272C64.3109 437.977 64.0856 437.618 63.9209 437.193C63.7649 436.768 63.6869 436.287 63.6869 435.75V435.672C63.6869 435.178 63.7693 434.727 63.9339 434.32C64.1073 433.913 64.3413 433.566 64.6359 433.28C64.9306 432.994 65.2729 432.773 65.6629 432.617C66.0616 432.452 66.4863 432.37 66.9369 432.37C67.4916 432.37 67.9683 432.47 68.3669 432.669C68.7656 432.86 69.0949 433.107 69.3549 433.41C69.6149 433.705 69.8056 434.034 69.9269 434.398C70.0483 434.753 70.1089 435.1 70.1089 435.438V436.309H65.3769ZM66.9239 433.852C66.5079 433.852 66.1699 433.96 65.9099 434.177C65.6499 434.385 65.4809 434.628 65.4029 434.905H68.4449C68.3929 434.602 68.2283 434.35 67.9509 434.151C67.6823 433.952 67.3399 433.852 66.9239 433.852ZM79.8018 432.552H81.6348V431.226C81.6348 430.853 81.7605 430.541 82.0118 430.29C82.2632 430.03 82.5752 429.9 82.9478 429.9H85.5738V431.46H83.6238C83.3898 431.46 83.2728 431.59 83.2728 431.85V432.552H85.8078V434.112H83.2728V439H81.6348V434.112H79.8018V432.552ZM94.1318 435.854C94.1318 436.391 94.0408 436.868 93.8588 437.284C93.6768 437.691 93.4298 438.038 93.1178 438.324C92.8058 438.601 92.4461 438.814 92.0388 438.961C91.6401 439.108 91.2198 439.182 90.7778 439.182C90.3358 439.182 89.9111 439.108 89.5038 438.961C89.1051 438.814 88.7498 438.601 88.4378 438.324C88.1258 438.038 87.8788 437.691 87.6968 437.284C87.5148 436.868 87.4238 436.391 87.4238 435.854V435.698C87.4238 435.169 87.5148 434.701 87.6968 434.294C87.8788 433.878 88.1258 433.527 88.4378 433.241C88.7498 432.955 89.1051 432.738 89.5038 432.591C89.9111 432.444 90.3358 432.37 90.7778 432.37C91.2198 432.37 91.6401 432.444 92.0388 432.591C92.4461 432.738 92.8058 432.955 93.1178 433.241C93.4298 433.527 93.6768 433.878 93.8588 434.294C94.0408 434.701 94.1318 435.169 94.1318 435.698V435.854ZM90.7778 437.622C91.0118 437.622 91.2328 437.583 91.4408 437.505C91.6488 437.427 91.8308 437.314 91.9868 437.167C92.1428 437.02 92.2641 436.842 92.3508 436.634C92.4461 436.417 92.4938 436.175 92.4938 435.906V435.646C92.4938 435.377 92.4461 435.139 92.3508 434.931C92.2641 434.714 92.1428 434.532 91.9868 434.385C91.8308 434.238 91.6488 434.125 91.4408 434.047C91.2328 433.969 91.0118 433.93 90.7778 433.93C90.5438 433.93 90.3228 433.969 90.1148 434.047C89.9068 434.125 89.7248 434.238 89.5688 434.385C89.4128 434.532 89.2871 434.714 89.1918 434.931C89.1051 435.139 89.0618 435.377 89.0618 435.646V435.906C89.0618 436.175 89.1051 436.417 89.1918 436.634C89.2871 436.842 89.4128 437.02 89.5688 437.167C89.7248 437.314 89.9068 437.427 90.1148 437.505C90.3228 437.583 90.5438 437.622 90.7778 437.622ZM100.142 432.552H101.78V439H100.142V438.064H99.9078C99.6218 438.809 99.0064 439.182 98.0618 439.182C97.7411 439.182 97.4421 439.13 97.1648 439.026C96.8874 438.922 96.6448 438.762 96.4368 438.545C96.2288 438.328 96.0641 438.06 95.9428 437.739C95.8301 437.41 95.7738 437.024 95.7738 436.582V432.552H97.4118V436.244C97.4118 436.703 97.5201 437.063 97.7368 437.323C97.9534 437.574 98.2784 437.7 98.7118 437.7C99.2058 437.7 99.5654 437.544 99.7908 437.232C100.025 436.911 100.142 436.478 100.142 435.932V432.552ZM105.372 439H103.734V432.552H105.372V433.514H105.606C105.753 433.15 105.991 432.868 106.321 432.669C106.65 432.47 107.036 432.37 107.478 432.37C107.79 432.37 108.08 432.422 108.349 432.526C108.626 432.621 108.869 432.773 109.077 432.981C109.285 433.189 109.445 433.453 109.558 433.774C109.679 434.095 109.74 434.476 109.74 434.918V439H108.102V435.334C108.102 434.875 107.989 434.515 107.764 434.255C107.547 433.986 107.231 433.852 106.815 433.852C106.329 433.852 105.965 434.017 105.723 434.346C105.489 434.667 105.372 435.1 105.372 435.646V439ZM116.322 438.064H116.088C116.018 438.211 115.932 438.354 115.828 438.493C115.732 438.623 115.602 438.74 115.438 438.844C115.282 438.948 115.091 439.03 114.866 439.091C114.649 439.152 114.385 439.182 114.073 439.182C113.674 439.182 113.301 439.113 112.955 438.974C112.617 438.827 112.318 438.614 112.058 438.337C111.806 438.051 111.607 437.704 111.46 437.297C111.321 436.89 111.252 436.422 111.252 435.893V435.659C111.252 435.139 111.325 434.675 111.473 434.268C111.629 433.861 111.837 433.518 112.097 433.241C112.365 432.955 112.673 432.738 113.02 432.591C113.375 432.444 113.748 432.37 114.138 432.37C114.658 432.37 115.069 432.47 115.373 432.669C115.676 432.86 115.914 433.133 116.088 433.488H116.322V429.9H117.96V439H116.322V438.064ZM114.606 437.622C115.117 437.622 115.529 437.462 115.841 437.141C116.161 436.812 116.322 436.383 116.322 435.854V435.698C116.322 435.169 116.161 434.745 115.841 434.424C115.529 434.095 115.117 433.93 114.606 433.93C114.094 433.93 113.678 434.09 113.358 434.411C113.046 434.723 112.89 435.152 112.89 435.698V435.854C112.89 436.4 113.046 436.833 113.358 437.154C113.678 437.466 114.094 437.622 114.606 437.622ZM123.827 438.064C123.653 438.471 123.411 438.762 123.099 438.935C122.787 439.1 122.423 439.182 122.007 439.182C121.617 439.182 121.248 439.108 120.902 438.961C120.564 438.814 120.265 438.597 120.005 438.311C119.745 438.025 119.537 437.678 119.381 437.271C119.233 436.864 119.16 436.4 119.16 435.88V435.672C119.16 435.161 119.233 434.701 119.381 434.294C119.528 433.887 119.727 433.54 119.979 433.254C120.23 432.968 120.52 432.751 120.85 432.604C121.188 432.448 121.547 432.37 121.929 432.37C122.388 432.37 122.756 432.448 123.034 432.604C123.32 432.76 123.545 433.003 123.71 433.332H123.944V432.552H125.582V437.05C125.582 437.31 125.699 437.44 125.933 437.44H126.18V439H125.062C124.767 439 124.524 438.913 124.334 438.74C124.152 438.567 124.061 438.341 124.061 438.064H123.827ZM122.371 437.622C122.847 437.622 123.229 437.466 123.515 437.154C123.801 436.833 123.944 436.4 123.944 435.854V435.698C123.944 435.152 123.801 434.723 123.515 434.411C123.229 434.09 122.847 433.93 122.371 433.93C121.894 433.93 121.513 434.09 121.227 434.411C120.941 434.723 120.798 435.152 120.798 435.698V435.854C120.798 436.4 120.941 436.833 121.227 437.154C121.513 437.466 121.894 437.622 122.371 437.622ZM127.432 432.552H129.343V429.9H130.981V432.552H133.308V434.112H130.981V437.05C130.981 437.31 131.098 437.44 131.332 437.44H133.074V439H130.344C130.049 439 129.806 438.905 129.616 438.714C129.434 438.523 129.343 438.281 129.343 437.986V434.112H127.432V432.552ZM135.691 437.44H137.875V434.112H135.847V432.552H139.513V437.44H141.385V439H135.691V437.44ZM139.916 430.641C139.916 430.814 139.881 430.979 139.812 431.135C139.751 431.282 139.664 431.412 139.552 431.525C139.439 431.629 139.305 431.716 139.149 431.785C139.001 431.846 138.845 431.876 138.681 431.876C138.507 431.876 138.347 431.846 138.2 431.785C138.052 431.716 137.922 431.629 137.81 431.525C137.697 431.412 137.606 431.282 137.537 431.135C137.476 430.979 137.446 430.814 137.446 430.641C137.446 430.468 137.476 430.307 137.537 430.16C137.606 430.004 137.697 429.874 137.81 429.77C137.922 429.657 138.052 429.571 138.2 429.51C138.347 429.441 138.507 429.406 138.681 429.406C138.845 429.406 139.001 429.441 139.149 429.51C139.305 429.571 139.439 429.657 139.552 429.77C139.664 429.874 139.751 430.004 139.812 430.16C139.881 430.307 139.916 430.468 139.916 430.641ZM149.852 435.854C149.852 436.391 149.761 436.868 149.579 437.284C149.397 437.691 149.15 438.038 148.838 438.324C148.526 438.601 148.166 438.814 147.759 438.961C147.36 439.108 146.94 439.182 146.498 439.182C146.056 439.182 145.631 439.108 145.224 438.961C144.825 438.814 144.47 438.601 144.158 438.324C143.846 438.038 143.599 437.691 143.417 437.284C143.235 436.868 143.144 436.391 143.144 435.854V435.698C143.144 435.169 143.235 434.701 143.417 434.294C143.599 433.878 143.846 433.527 144.158 433.241C144.47 432.955 144.825 432.738 145.224 432.591C145.631 432.444 146.056 432.37 146.498 432.37C146.94 432.37 147.36 432.444 147.759 432.591C148.166 432.738 148.526 432.955 148.838 433.241C149.15 433.527 149.397 433.878 149.579 434.294C149.761 434.701 149.852 435.169 149.852 435.698V435.854ZM146.498 437.622C146.732 437.622 146.953 437.583 147.161 437.505C147.369 437.427 147.551 437.314 147.707 437.167C147.863 437.02 147.984 436.842 148.071 436.634C148.166 436.417 148.214 436.175 148.214 435.906V435.646C148.214 435.377 148.166 435.139 148.071 434.931C147.984 434.714 147.863 434.532 147.707 434.385C147.551 434.238 147.369 434.125 147.161 434.047C146.953 433.969 146.732 433.93 146.498 433.93C146.264 433.93 146.043 433.969 145.835 434.047C145.627 434.125 145.445 434.238 145.289 434.385C145.133 434.532 145.007 434.714 144.912 434.931C144.825 435.139 144.782 435.377 144.782 435.646V435.906C144.782 436.175 144.825 436.417 144.912 436.634C145.007 436.842 145.133 437.02 145.289 437.167C145.445 437.314 145.627 437.427 145.835 437.505C146.043 437.583 146.264 437.622 146.498 437.622ZM153.131 439H151.493V432.552H153.131V433.514H153.365C153.513 433.15 153.751 432.868 154.08 432.669C154.41 432.47 154.795 432.37 155.237 432.37C155.549 432.37 155.84 432.422 156.108 432.526C156.386 432.621 156.628 432.773 156.836 432.981C157.044 433.189 157.205 433.453 157.317 433.774C157.439 434.095 157.499 434.476 157.499 434.918V439H155.861V435.334C155.861 434.875 155.749 434.515 155.523 434.255C155.307 433.986 154.99 433.852 154.574 433.852C154.089 433.852 153.725 434.017 153.482 434.346C153.248 434.667 153.131 435.1 153.131 435.646V439ZM163.626 438.064C163.453 438.471 163.21 438.762 162.898 438.935C162.586 439.1 162.222 439.182 161.806 439.182C161.416 439.182 161.048 439.108 160.701 438.961C160.363 438.814 160.064 438.597 159.804 438.311C159.544 438.025 159.336 437.678 159.18 437.271C159.033 436.864 158.959 436.4 158.959 435.88V435.672C158.959 435.161 159.033 434.701 159.18 434.294C159.328 433.887 159.527 433.54 159.778 433.254C160.03 432.968 160.32 432.751 160.649 432.604C160.987 432.448 161.347 432.37 161.728 432.37C162.188 432.37 162.556 432.448 162.833 432.604C163.119 432.76 163.345 433.003 163.509 433.332H163.743V432.552H165.381V437.05C165.381 437.31 165.498 437.44 165.732 437.44H165.979V439H164.861C164.567 439 164.324 438.913 164.133 438.74C163.951 438.567 163.86 438.341 163.86 438.064H163.626ZM162.17 437.622C162.647 437.622 163.028 437.466 163.314 437.154C163.6 436.833 163.743 436.4 163.743 435.854V435.698C163.743 435.152 163.6 434.723 163.314 434.411C163.028 434.09 162.647 433.93 162.17 433.93C161.694 433.93 161.312 434.09 161.026 434.411C160.74 434.723 160.597 435.152 160.597 435.698V435.854C160.597 436.4 160.74 436.833 161.026 437.154C161.312 437.466 161.694 437.622 162.17 437.622ZM167.374 437.44H169.636V431.46H167.452V429.9H171.274V437.44H173.38V439H167.374V437.44ZM187.701 432.552H189.339V439H187.701V438.064H187.467C187.181 438.809 186.566 439.182 185.621 439.182C185.301 439.182 185.002 439.13 184.724 439.026C184.447 438.922 184.204 438.762 183.996 438.545C183.788 438.328 183.624 438.06 183.502 437.739C183.39 437.41 183.333 437.024 183.333 436.582V432.552H184.971V436.244C184.971 436.703 185.08 437.063 185.296 437.323C185.513 437.574 185.838 437.7 186.271 437.7C186.765 437.7 187.125 437.544 187.35 437.232C187.584 436.911 187.701 436.478 187.701 435.932V432.552ZM193.347 434.372C193.347 434.58 193.456 434.732 193.672 434.827C193.889 434.914 194.283 434.987 194.855 435.048C195.514 435.117 196.051 435.317 196.467 435.646C196.883 435.967 197.091 436.417 197.091 436.998V437.076C197.091 437.717 196.857 438.229 196.389 438.61C195.921 438.991 195.263 439.182 194.413 439.182C193.911 439.182 193.482 439.117 193.126 438.987C192.771 438.857 192.476 438.697 192.242 438.506C192.008 438.307 191.826 438.09 191.696 437.856C191.575 437.613 191.493 437.379 191.449 437.154L192.957 436.66C193.027 436.937 193.17 437.18 193.386 437.388C193.612 437.596 193.954 437.7 194.413 437.7C194.821 437.7 195.098 437.639 195.245 437.518C195.401 437.388 195.479 437.249 195.479 437.102C195.479 437.015 195.458 436.937 195.414 436.868C195.38 436.79 195.31 436.721 195.206 436.66C195.102 436.591 194.959 436.534 194.777 436.491C194.604 436.448 194.383 436.413 194.114 436.387C193.386 436.326 192.806 436.14 192.372 435.828C191.948 435.507 191.735 435.039 191.735 434.424V434.346C191.735 434.025 191.805 433.744 191.943 433.501C192.082 433.258 192.264 433.055 192.489 432.89C192.715 432.717 192.975 432.587 193.269 432.5C193.564 432.413 193.867 432.37 194.179 432.37C194.587 432.37 194.938 432.422 195.232 432.526C195.536 432.621 195.791 432.751 195.999 432.916C196.207 433.072 196.376 433.25 196.506 433.449C196.636 433.64 196.736 433.826 196.805 434.008L195.323 434.606C195.245 434.372 195.111 434.19 194.92 434.06C194.73 433.921 194.483 433.852 194.179 433.852C193.902 433.852 193.694 433.904 193.555 434.008C193.417 434.103 193.347 434.225 193.347 434.372ZM200.696 436.309C200.705 436.5 200.748 436.677 200.826 436.842C200.913 436.998 201.026 437.137 201.164 437.258C201.312 437.371 201.476 437.462 201.658 437.531C201.849 437.592 202.048 437.622 202.256 437.622C202.664 437.622 202.976 437.553 203.192 437.414C203.409 437.267 203.565 437.093 203.66 436.894L205.064 437.674C204.986 437.839 204.878 438.012 204.739 438.194C204.601 438.367 204.419 438.528 204.193 438.675C203.977 438.822 203.708 438.944 203.387 439.039C203.075 439.134 202.707 439.182 202.282 439.182C201.797 439.182 201.355 439.104 200.956 438.948C200.558 438.792 200.211 438.567 199.916 438.272C199.63 437.977 199.405 437.618 199.24 437.193C199.084 436.768 199.006 436.287 199.006 435.75V435.672C199.006 435.178 199.089 434.727 199.253 434.32C199.427 433.913 199.661 433.566 199.955 433.28C200.25 432.994 200.592 432.773 200.982 432.617C201.381 432.452 201.806 432.37 202.256 432.37C202.811 432.37 203.288 432.47 203.686 432.669C204.085 432.86 204.414 433.107 204.674 433.41C204.934 433.705 205.125 434.034 205.246 434.398C205.368 434.753 205.428 435.1 205.428 435.438V436.309H200.696ZM202.243 433.852C201.827 433.852 201.489 433.96 201.229 434.177C200.969 434.385 200.8 434.628 200.722 434.905H203.764C203.712 434.602 203.548 434.35 203.27 434.151C203.002 433.952 202.659 433.852 202.243 433.852ZM206.901 432.552H209.631V433.488H209.865C209.987 433.133 210.19 432.86 210.476 432.669C210.771 432.47 211.122 432.37 211.529 432.37C212.171 432.37 212.686 432.574 213.076 432.981C213.466 433.38 213.661 433.991 213.661 434.814V435.1L211.971 435.256V435.074C211.971 434.719 211.88 434.437 211.698 434.229C211.516 434.012 211.243 433.904 210.879 433.904C210.515 433.904 210.229 434.03 210.021 434.281C209.813 434.532 209.709 434.892 209.709 435.36V437.44H211.191V439H206.745V437.44H208.071V434.112H206.901V432.552ZM216.109 434.684H220.165V436.166H216.109V434.684ZM225.187 434.372C225.187 434.58 225.295 434.732 225.512 434.827C225.729 434.914 226.123 434.987 226.695 435.048C227.354 435.117 227.891 435.317 228.307 435.646C228.723 435.967 228.931 436.417 228.931 436.998V437.076C228.931 437.717 228.697 438.229 228.229 438.61C227.761 438.991 227.102 439.182 226.253 439.182C225.75 439.182 225.321 439.117 224.966 438.987C224.611 438.857 224.316 438.697 224.082 438.506C223.848 438.307 223.666 438.09 223.536 437.856C223.415 437.613 223.332 437.379 223.289 437.154L224.797 436.66C224.866 436.937 225.009 437.18 225.226 437.388C225.451 437.596 225.794 437.7 226.253 437.7C226.66 437.7 226.938 437.639 227.085 437.518C227.241 437.388 227.319 437.249 227.319 437.102C227.319 437.015 227.297 436.937 227.254 436.868C227.219 436.79 227.15 436.721 227.046 436.66C226.942 436.591 226.799 436.534 226.617 436.491C226.444 436.448 226.223 436.413 225.954 436.387C225.226 436.326 224.645 436.14 224.212 435.828C223.787 435.507 223.575 435.039 223.575 434.424V434.346C223.575 434.025 223.644 433.744 223.783 433.501C223.922 433.258 224.104 433.055 224.329 432.89C224.554 432.717 224.814 432.587 225.109 432.5C225.404 432.413 225.707 432.37 226.019 432.37C226.426 432.37 226.777 432.422 227.072 432.526C227.375 432.621 227.631 432.751 227.839 432.916C228.047 433.072 228.216 433.25 228.346 433.449C228.476 433.64 228.576 433.826 228.645 434.008L227.163 434.606C227.085 434.372 226.951 434.19 226.76 434.06C226.569 433.921 226.322 433.852 226.019 433.852C225.742 433.852 225.534 433.904 225.395 434.008C225.256 434.103 225.187 434.225 225.187 434.372ZM232.393 441.6H230.755V432.552H232.393V433.488H232.627C232.8 433.133 233.052 432.86 233.381 432.669C233.71 432.47 234.131 432.37 234.642 432.37C235.023 432.37 235.383 432.444 235.721 432.591C236.068 432.738 236.367 432.955 236.618 433.241C236.878 433.518 237.082 433.861 237.229 434.268C237.385 434.675 237.463 435.139 237.463 435.659V435.893C237.463 436.422 237.389 436.89 237.242 437.297C237.095 437.704 236.895 438.051 236.644 438.337C236.393 438.614 236.094 438.827 235.747 438.974C235.409 439.113 235.041 439.182 234.642 439.182C234.347 439.182 234.092 439.152 233.875 439.091C233.658 439.03 233.468 438.948 233.303 438.844C233.147 438.74 233.013 438.623 232.9 438.493C232.796 438.354 232.705 438.211 232.627 438.064H232.393V441.6ZM234.109 437.622C234.62 437.622 235.032 437.466 235.344 437.154C235.665 436.833 235.825 436.4 235.825 435.854V435.698C235.825 435.152 235.665 434.723 235.344 434.411C235.032 434.09 234.62 433.93 234.109 433.93C233.598 433.93 233.182 434.095 232.861 434.424C232.549 434.745 232.393 435.169 232.393 435.698V435.854C232.393 436.383 232.549 436.812 232.861 437.141C233.182 437.462 233.598 437.622 234.109 437.622ZM243.226 438.064C243.053 438.471 242.81 438.762 242.498 438.935C242.186 439.1 241.822 439.182 241.406 439.182C241.016 439.182 240.648 439.108 240.301 438.961C239.963 438.814 239.664 438.597 239.404 438.311C239.144 438.025 238.936 437.678 238.78 437.271C238.633 436.864 238.559 436.4 238.559 435.88V435.672C238.559 435.161 238.633 434.701 238.78 434.294C238.927 433.887 239.127 433.54 239.378 433.254C239.629 432.968 239.92 432.751 240.249 432.604C240.587 432.448 240.947 432.37 241.328 432.37C241.787 432.37 242.156 432.448 242.433 432.604C242.719 432.76 242.944 433.003 243.109 433.332H243.343V432.552H244.981V437.05C244.981 437.31 245.098 437.44 245.332 437.44H245.579V439H244.461C244.166 439 243.924 438.913 243.733 438.74C243.551 438.567 243.46 438.341 243.46 438.064H243.226ZM241.77 437.622C242.247 437.622 242.628 437.466 242.914 437.154C243.2 436.833 243.343 436.4 243.343 435.854V435.698C243.343 435.152 243.2 434.723 242.914 434.411C242.628 434.09 242.247 433.93 241.77 433.93C241.293 433.93 240.912 434.09 240.626 434.411C240.34 434.723 240.197 435.152 240.197 435.698V435.854C240.197 436.4 240.34 436.833 240.626 437.154C240.912 437.466 241.293 437.622 241.77 437.622ZM253.305 436.634C253.158 437.397 252.807 438.012 252.252 438.48C251.706 438.948 250.974 439.182 250.055 439.182C249.578 439.182 249.132 439.108 248.716 438.961C248.309 438.814 247.953 438.601 247.65 438.324C247.347 438.047 247.108 437.704 246.935 437.297C246.762 436.89 246.675 436.426 246.675 435.906V435.75C246.675 435.23 246.762 434.762 246.935 434.346C247.108 433.93 247.347 433.575 247.65 433.28C247.962 432.985 248.322 432.76 248.729 432.604C249.145 432.448 249.587 432.37 250.055 432.37C250.956 432.37 251.684 432.604 252.239 433.072C252.802 433.54 253.158 434.155 253.305 434.918L251.693 435.334C251.641 434.953 251.476 434.623 251.199 434.346C250.922 434.069 250.532 433.93 250.029 433.93C249.795 433.93 249.574 433.973 249.366 434.06C249.158 434.147 248.976 434.272 248.82 434.437C248.664 434.593 248.538 434.788 248.443 435.022C248.356 435.247 248.313 435.503 248.313 435.789V435.867C248.313 436.153 248.356 436.409 248.443 436.634C248.538 436.851 248.664 437.033 248.82 437.18C248.976 437.327 249.158 437.44 249.366 437.518C249.574 437.587 249.795 437.622 250.029 437.622C250.532 437.622 250.913 437.496 251.173 437.245C251.442 436.994 251.615 436.656 251.693 436.231L253.305 436.634ZM256.416 436.309C256.425 436.5 256.468 436.677 256.546 436.842C256.633 436.998 256.745 437.137 256.884 437.258C257.031 437.371 257.196 437.462 257.378 437.531C257.569 437.592 257.768 437.622 257.976 437.622C258.383 437.622 258.695 437.553 258.912 437.414C259.129 437.267 259.285 437.093 259.38 436.894L260.784 437.674C260.706 437.839 260.598 438.012 260.459 438.194C260.32 438.367 260.138 438.528 259.913 438.675C259.696 438.822 259.428 438.944 259.107 439.039C258.795 439.134 258.427 439.182 258.002 439.182C257.517 439.182 257.075 439.104 256.676 438.948C256.277 438.792 255.931 438.567 255.636 438.272C255.35 437.977 255.125 437.618 254.96 437.193C254.804 436.768 254.726 436.287 254.726 435.75V435.672C254.726 435.178 254.808 434.727 254.973 434.32C255.146 433.913 255.38 433.566 255.675 433.28C255.97 432.994 256.312 432.773 256.702 432.617C257.101 432.452 257.525 432.37 257.976 432.37C258.531 432.37 259.007 432.47 259.406 432.669C259.805 432.86 260.134 433.107 260.394 433.41C260.654 433.705 260.845 434.034 260.966 434.398C261.087 434.753 261.148 435.1 261.148 435.438V436.309H256.416ZM257.963 433.852C257.547 433.852 257.209 433.96 256.949 434.177C256.689 434.385 256.52 434.628 256.442 434.905H259.484C259.432 434.602 259.267 434.35 258.99 434.151C258.721 433.952 258.379 433.852 257.963 433.852ZM48.066 447.9H49.782V455.362H53.916V457H48.066V447.9ZM56.091 455.44H58.275V452.112H56.247V450.552H59.913V455.44H61.785V457H56.091V455.44ZM60.316 448.641C60.316 448.814 60.2813 448.979 60.212 449.135C60.1513 449.282 60.0646 449.412 59.952 449.525C59.8393 449.629 59.705 449.716 59.549 449.785C59.4016 449.846 59.2456 449.876 59.081 449.876C58.9076 449.876 58.7473 449.846 58.6 449.785C58.4526 449.716 58.3226 449.629 58.21 449.525C58.0973 449.412 58.0063 449.282 57.937 449.135C57.8763 448.979 57.846 448.814 57.846 448.641C57.846 448.468 57.8763 448.307 57.937 448.16C58.0063 448.004 58.0973 447.874 58.21 447.77C58.3226 447.657 58.4526 447.571 58.6 447.51C58.7473 447.441 58.9076 447.406 59.081 447.406C59.2456 447.406 59.4016 447.441 59.549 447.51C59.705 447.571 59.8393 447.657 59.952 447.77C60.0646 447.874 60.1513 448.004 60.212 448.16C60.2813 448.307 60.316 448.468 60.316 448.641ZM65.5719 457H63.9339V450.552H65.5719V451.514H65.8059C65.9533 451.15 66.1916 450.868 66.5209 450.669C66.8503 450.47 67.2359 450.37 67.6779 450.37C67.9899 450.37 68.2803 450.422 68.5489 450.526C68.8263 450.621 69.0689 450.773 69.2769 450.981C69.4849 451.189 69.6453 451.453 69.7579 451.774C69.8793 452.095 69.9399 452.476 69.9399 452.918V457H68.3019V453.334C68.3019 452.875 68.1893 452.515 67.9639 452.255C67.7473 451.986 67.4309 451.852 67.0149 451.852C66.5296 451.852 66.1656 452.017 65.9229 452.346C65.6889 452.667 65.5719 453.1 65.5719 453.646V457ZM76.2619 450.552H77.8999V457H76.2619V456.064H76.0279C75.7419 456.809 75.1265 457.182 74.1819 457.182C73.8612 457.182 73.5622 457.13 73.2849 457.026C73.0075 456.922 72.7649 456.762 72.5569 456.545C72.3489 456.328 72.1842 456.06 72.0629 455.739C71.9502 455.41 71.8939 455.024 71.8939 454.582V450.552H73.5319V454.244C73.5319 454.703 73.6402 455.063 73.8569 455.323C74.0735 455.574 74.3985 455.7 74.8319 455.7C75.3259 455.7 75.6855 455.544 75.9109 455.232C76.1449 454.911 76.2619 454.478 76.2619 453.932V450.552ZM84.1308 450.552H85.9378L84.3778 453.581V453.815L86.0288 457H84.1438L82.9348 454.478H82.7008L81.4918 457H79.6068L81.2578 453.815V453.581L79.6848 450.552H81.5048L82.7008 452.918H82.9348L84.1308 450.552ZM102.066 454.634C101.918 455.397 101.567 456.012 101.013 456.48C100.467 456.948 99.7344 457.182 98.8158 457.182C98.3391 457.182 97.8928 457.108 97.4768 456.961C97.0694 456.814 96.7141 456.601 96.4108 456.324C96.1074 456.047 95.8691 455.704 95.6958 455.297C95.5224 454.89 95.4358 454.426 95.4358 453.906V453.75C95.4358 453.23 95.5224 452.762 95.6958 452.346C95.8691 451.93 96.1074 451.575 96.4108 451.28C96.7228 450.985 97.0824 450.76 97.4898 450.604C97.9058 450.448 98.3478 450.37 98.8158 450.37C99.7171 450.37 100.445 450.604 101 451.072C101.563 451.54 101.918 452.155 102.066 452.918L100.454 453.334C100.402 452.953 100.237 452.623 99.9598 452.346C99.6824 452.069 99.2924 451.93 98.7898 451.93C98.5558 451.93 98.3348 451.973 98.1268 452.06C97.9188 452.147 97.7368 452.272 97.5808 452.437C97.4248 452.593 97.2991 452.788 97.2038 453.022C97.1171 453.247 97.0738 453.503 97.0738 453.789V453.867C97.0738 454.153 97.1171 454.409 97.2038 454.634C97.2991 454.851 97.4248 455.033 97.5808 455.18C97.7368 455.327 97.9188 455.44 98.1268 455.518C98.3348 455.587 98.5558 455.622 98.7898 455.622C99.2924 455.622 99.6738 455.496 99.9338 455.245C100.202 454.994 100.376 454.656 100.454 454.231L102.066 454.634ZM110.052 453.854C110.052 454.391 109.961 454.868 109.779 455.284C109.597 455.691 109.35 456.038 109.038 456.324C108.726 456.601 108.366 456.814 107.959 456.961C107.56 457.108 107.14 457.182 106.698 457.182C106.256 457.182 105.831 457.108 105.424 456.961C105.025 456.814 104.67 456.601 104.358 456.324C104.046 456.038 103.799 455.691 103.617 455.284C103.435 454.868 103.344 454.391 103.344 453.854V453.698C103.344 453.169 103.435 452.701 103.617 452.294C103.799 451.878 104.046 451.527 104.358 451.241C104.67 450.955 105.025 450.738 105.424 450.591C105.831 450.444 106.256 450.37 106.698 450.37C107.14 450.37 107.56 450.444 107.959 450.591C108.366 450.738 108.726 450.955 109.038 451.241C109.35 451.527 109.597 451.878 109.779 452.294C109.961 452.701 110.052 453.169 110.052 453.698V453.854ZM106.698 455.622C106.932 455.622 107.153 455.583 107.361 455.505C107.569 455.427 107.751 455.314 107.907 455.167C108.063 455.02 108.184 454.842 108.271 454.634C108.366 454.417 108.414 454.175 108.414 453.906V453.646C108.414 453.377 108.366 453.139 108.271 452.931C108.184 452.714 108.063 452.532 107.907 452.385C107.751 452.238 107.569 452.125 107.361 452.047C107.153 451.969 106.932 451.93 106.698 451.93C106.464 451.93 106.243 451.969 106.035 452.047C105.827 452.125 105.645 452.238 105.489 452.385C105.333 452.532 105.207 452.714 105.112 452.931C105.025 453.139 104.982 453.377 104.982 453.646V453.906C104.982 454.175 105.025 454.417 105.112 454.634C105.207 454.842 105.333 455.02 105.489 455.167C105.645 455.314 105.827 455.427 106.035 455.505C106.243 455.583 106.464 455.622 106.698 455.622ZM113.332 457H111.694V450.552H113.332V451.514H113.566C113.713 451.15 113.951 450.868 114.281 450.669C114.61 450.47 114.996 450.37 115.438 450.37C115.75 450.37 116.04 450.422 116.309 450.526C116.586 450.621 116.829 450.773 117.037 450.981C117.245 451.189 117.405 451.453 117.518 451.774C117.639 452.095 117.7 452.476 117.7 452.918V457H116.062V453.334C116.062 452.875 115.949 452.515 115.724 452.255C115.507 451.986 115.191 451.852 114.775 451.852C114.289 451.852 113.925 452.017 113.683 452.346C113.449 452.667 113.332 453.1 113.332 453.646V457ZM119.602 450.552H121.435V449.226C121.435 448.853 121.56 448.541 121.812 448.29C122.063 448.03 122.375 447.9 122.748 447.9H125.374V449.46H123.424C123.19 449.46 123.073 449.59 123.073 449.85V450.552H125.608V452.112H123.073V457H121.435V452.112H119.602V450.552ZM129.057 454.309C129.065 454.5 129.109 454.677 129.187 454.842C129.273 454.998 129.386 455.137 129.525 455.258C129.672 455.371 129.837 455.462 130.019 455.531C130.209 455.592 130.409 455.622 130.617 455.622C131.024 455.622 131.336 455.553 131.553 455.414C131.769 455.267 131.925 455.093 132.021 454.894L133.425 455.674C133.347 455.839 133.238 456.012 133.1 456.194C132.961 456.367 132.779 456.528 132.554 456.675C132.337 456.822 132.068 456.944 131.748 457.039C131.436 457.134 131.067 457.182 130.643 457.182C130.157 457.182 129.715 457.104 129.317 456.948C128.918 456.792 128.571 456.567 128.277 456.272C127.991 455.977 127.765 455.618 127.601 455.193C127.445 454.768 127.367 454.287 127.367 453.75V453.672C127.367 453.178 127.449 452.727 127.614 452.32C127.787 451.913 128.021 451.566 128.316 451.28C128.61 450.994 128.953 450.773 129.343 450.617C129.741 450.452 130.166 450.37 130.617 450.37C131.171 450.37 131.648 450.47 132.047 450.669C132.445 450.86 132.775 451.107 133.035 451.41C133.295 451.705 133.485 452.034 133.607 452.398C133.728 452.753 133.789 453.1 133.789 453.438V454.309H129.057ZM130.604 451.852C130.188 451.852 129.85 451.96 129.59 452.177C129.33 452.385 129.161 452.628 129.083 452.905H132.125C132.073 452.602 131.908 452.35 131.631 452.151C131.362 451.952 131.02 451.852 130.604 451.852ZM135.262 450.552H137.992V451.488H138.226C138.347 451.133 138.551 450.86 138.837 450.669C139.131 450.47 139.482 450.37 139.89 450.37C140.531 450.37 141.047 450.574 141.437 450.981C141.827 451.38 142.022 451.991 142.022 452.814V453.1L140.332 453.256V453.074C140.332 452.719 140.241 452.437 140.059 452.229C139.877 452.012 139.604 451.904 139.24 451.904C138.876 451.904 138.59 452.03 138.382 452.281C138.174 452.532 138.07 452.892 138.07 453.36V455.44H139.552V457H135.106V455.44H136.432V452.112H135.262V450.552ZM144.977 454.309C144.985 454.5 145.029 454.677 145.107 454.842C145.193 454.998 145.306 455.137 145.445 455.258C145.592 455.371 145.757 455.462 145.939 455.531C146.129 455.592 146.329 455.622 146.537 455.622C146.944 455.622 147.256 455.553 147.473 455.414C147.689 455.267 147.845 455.093 147.941 454.894L149.345 455.674C149.267 455.839 149.158 456.012 149.02 456.194C148.881 456.367 148.699 456.528 148.474 456.675C148.257 456.822 147.988 456.944 147.668 457.039C147.356 457.134 146.987 457.182 146.563 457.182C146.077 457.182 145.635 457.104 145.237 456.948C144.838 456.792 144.491 456.567 144.197 456.272C143.911 455.977 143.685 455.618 143.521 455.193C143.365 454.768 143.287 454.287 143.287 453.75V453.672C143.287 453.178 143.369 452.727 143.534 452.32C143.707 451.913 143.941 451.566 144.236 451.28C144.53 450.994 144.873 450.773 145.263 450.617C145.661 450.452 146.086 450.37 146.537 450.37C147.091 450.37 147.568 450.47 147.967 450.669C148.365 450.86 148.695 451.107 148.955 451.41C149.215 451.705 149.405 452.034 149.527 452.398C149.648 452.753 149.709 453.1 149.709 453.438V454.309H144.977ZM146.524 451.852C146.108 451.852 145.77 451.96 145.51 452.177C145.25 452.385 145.081 452.628 145.003 452.905H148.045C147.993 452.602 147.828 452.35 147.551 452.151C147.282 451.952 146.94 451.852 146.524 451.852ZM153.131 457H151.493V450.552H153.131V451.514H153.365C153.513 451.15 153.751 450.868 154.08 450.669C154.41 450.47 154.795 450.37 155.237 450.37C155.549 450.37 155.84 450.422 156.108 450.526C156.386 450.621 156.628 450.773 156.836 450.981C157.044 451.189 157.205 451.453 157.317 451.774C157.439 452.095 157.499 452.476 157.499 452.918V457H155.861V453.334C155.861 452.875 155.749 452.515 155.523 452.255C155.307 451.986 154.99 451.852 154.574 451.852C154.089 451.852 153.725 452.017 153.482 452.346C153.248 452.667 153.131 453.1 153.131 453.646V457ZM165.745 454.634C165.598 455.397 165.247 456.012 164.692 456.48C164.146 456.948 163.414 457.182 162.495 457.182C162.019 457.182 161.572 457.108 161.156 456.961C160.749 456.814 160.394 456.601 160.09 456.324C159.787 456.047 159.549 455.704 159.375 455.297C159.202 454.89 159.115 454.426 159.115 453.906V453.75C159.115 453.23 159.202 452.762 159.375 452.346C159.549 451.93 159.787 451.575 160.09 451.28C160.402 450.985 160.762 450.76 161.169 450.604C161.585 450.448 162.027 450.37 162.495 450.37C163.397 450.37 164.125 450.604 164.679 451.072C165.243 451.54 165.598 452.155 165.745 452.918L164.133 453.334C164.081 452.953 163.917 452.623 163.639 452.346C163.362 452.069 162.972 451.93 162.469 451.93C162.235 451.93 162.014 451.973 161.806 452.06C161.598 452.147 161.416 452.272 161.26 452.437C161.104 452.593 160.979 452.788 160.883 453.022C160.797 453.247 160.753 453.503 160.753 453.789V453.867C160.753 454.153 160.797 454.409 160.883 454.634C160.979 454.851 161.104 455.033 161.26 455.18C161.416 455.327 161.598 455.44 161.806 455.518C162.014 455.587 162.235 455.622 162.469 455.622C162.972 455.622 163.353 455.496 163.613 455.245C163.882 454.994 164.055 454.656 164.133 454.231L165.745 454.634ZM168.856 454.309C168.865 454.5 168.908 454.677 168.986 454.842C169.073 454.998 169.186 455.137 169.324 455.258C169.472 455.371 169.636 455.462 169.818 455.531C170.009 455.592 170.208 455.622 170.416 455.622C170.824 455.622 171.136 455.553 171.352 455.414C171.569 455.267 171.725 455.093 171.82 454.894L173.224 455.674C173.146 455.839 173.038 456.012 172.899 456.194C172.761 456.367 172.579 456.528 172.353 456.675C172.137 456.822 171.868 456.944 171.547 457.039C171.235 457.134 170.867 457.182 170.442 457.182C169.957 457.182 169.515 457.104 169.116 456.948C168.718 456.792 168.371 456.567 168.076 456.272C167.79 455.977 167.565 455.618 167.4 455.193C167.244 454.768 167.166 454.287 167.166 453.75V453.672C167.166 453.178 167.249 452.727 167.413 452.32C167.587 451.913 167.821 451.566 168.115 451.28C168.41 450.994 168.752 450.773 169.142 450.617C169.541 450.452 169.966 450.37 170.416 450.37C170.971 450.37 171.448 450.47 171.846 450.669C172.245 450.86 172.574 451.107 172.834 451.41C173.094 451.705 173.285 452.034 173.406 452.398C173.528 452.753 173.588 453.1 173.588 453.438V454.309H168.856ZM170.403 451.852C169.987 451.852 169.649 451.96 169.389 452.177C169.129 452.385 168.96 452.628 168.882 452.905H171.924C171.872 452.602 171.708 452.35 171.43 452.151C171.162 451.952 170.819 451.852 170.403 451.852Z" fill="white"/>
<path d="M314 394C314 394.36 313.691 394.617 313.383 394.617H307.981C307.621 394.617 307.363 394.309 307.363 394C307.363 393.64 307.672 393.383 307.981 393.383H313.383C313.743 393.383 314 393.64 314 394Z" fill="white"/>
<path d="M288.688 394C288.688 394.36 288.379 394.617 288.071 394.617H282.617C282.257 394.617 282 394.309 282 394C282 393.64 282.309 393.383 282.617 393.383H288.019C288.379 393.383 288.688 393.64 288.688 394Z" fill="white"/>
<path d="M298.617 403.981V409.383C298.617 409.743 298.309 410 298 410C297.64 410 297.383 409.691 297.383 409.383V403.981C297.383 403.621 297.691 403.363 298 403.363C298.36 403.312 298.617 403.621 298.617 403.981Z" fill="white"/>
<path d="M298.617 378.617V384.019C298.617 384.379 298.309 384.637 298 384.637C297.64 384.637 297.383 384.328 297.383 384.019V378.617C297.383 378.257 297.691 378 298 378C298.36 378 298.617 378.309 298.617 378.617Z" fill="white"/>
<path d="M304.277 408.302C304.277 408.559 304.122 408.817 303.865 408.92C303.556 409.074 303.145 408.868 303.042 408.559L301.035 403.518C300.881 403.209 301.087 402.797 301.396 402.695C301.704 402.54 302.116 402.746 302.219 403.055L304.225 408.096C304.277 408.148 304.277 408.199 304.277 408.302Z" fill="white"/>
<path d="M294.965 384.74C294.965 384.997 294.81 385.254 294.553 385.357C294.244 385.511 293.833 385.305 293.73 384.997L291.775 379.955C291.621 379.646 291.826 379.235 292.135 379.132C292.444 379.029 292.855 379.183 292.958 379.492L294.965 384.534C294.965 384.585 294.965 384.688 294.965 384.74Z" fill="white"/>
<path d="M312.662 400.277C312.662 400.379 312.662 400.431 312.611 400.534C312.457 400.842 312.096 400.997 311.788 400.842L306.849 398.63C306.54 398.476 306.386 398.116 306.54 397.807C306.695 397.498 307.055 397.344 307.363 397.498L312.302 399.711C312.508 399.814 312.662 400.071 312.662 400.277Z" fill="white"/>
<path d="M289.563 389.936C289.563 390.039 289.563 390.09 289.511 390.193C289.357 390.502 288.997 390.656 288.688 390.502L283.698 388.289C283.389 388.135 283.235 387.775 283.389 387.466C283.543 387.158 283.904 387.003 284.212 387.158L289.151 389.37C289.408 389.473 289.563 389.678 289.563 389.936Z" fill="white"/>
<path d="M309.164 405.164C309.164 405.318 309.113 405.524 308.958 405.627C308.701 405.884 308.289 405.833 308.032 405.576L304.379 401.666C304.122 401.408 304.122 400.997 304.379 400.791C304.637 400.534 305.048 400.585 305.305 400.791L309.01 404.752C309.113 404.855 309.164 405.01 309.164 405.164Z" fill="white"/>
<path d="M291.826 386.746C291.826 386.9 291.775 387.106 291.621 387.209C291.363 387.466 290.952 387.415 290.695 387.158L286.99 383.196C286.733 382.99 286.785 382.579 287.042 382.373C287.299 382.116 287.659 382.116 287.916 382.373L291.621 386.334C291.775 386.437 291.826 386.592 291.826 386.746Z" fill="white"/>
<path d="M295.068 403.312C295.068 403.363 295.068 403.466 295.016 403.518L293.061 408.559C292.958 408.868 292.547 409.074 292.238 408.92C291.929 408.817 291.723 408.405 291.878 408.096L293.833 403.055C293.936 402.746 294.347 402.54 294.656 402.695C294.913 402.797 295.068 403.055 295.068 403.312Z" fill="white"/>
<path d="M304.122 379.646C304.122 379.698 304.122 379.801 304.071 379.852L302.116 384.894C302.013 385.203 301.601 385.408 301.293 385.254C300.984 385.151 300.778 384.74 300.932 384.431L302.887 379.389C302.99 379.08 303.402 378.875 303.711 379.029C303.968 379.132 304.122 379.389 304.122 379.646Z" fill="white"/>
<path d="M291.569 401.048C291.569 401.203 291.518 401.357 291.363 401.511L287.505 405.318C287.248 405.576 286.836 405.576 286.579 405.318C286.322 405.061 286.322 404.65 286.579 404.392L290.386 400.585C290.643 400.328 291.055 400.328 291.312 400.585C291.518 400.688 291.569 400.894 291.569 401.048Z" fill="white"/>
<path d="M309.524 383.145C309.524 383.299 309.473 383.453 309.318 383.608L305.46 387.415C305.203 387.672 304.791 387.672 304.534 387.415C304.277 387.158 304.277 386.746 304.534 386.489L308.392 382.682C308.65 382.424 309.061 382.424 309.318 382.682C309.473 382.836 309.524 382.99 309.524 383.145Z" fill="white"/>
<path d="M289.46 397.807C289.46 398.064 289.305 398.27 289.048 398.373L284.058 400.431C283.749 400.585 283.338 400.431 283.235 400.071C283.08 399.762 283.235 399.35 283.595 399.248L288.585 397.19C288.894 397.035 289.305 397.19 289.408 397.55C289.408 397.653 289.46 397.704 289.46 397.807Z" fill="white"/>
<path d="M312.868 388.135C312.868 388.392 312.714 388.598 312.457 388.701L307.466 390.759C307.158 390.913 306.746 390.759 306.643 390.399C306.489 390.09 306.643 389.678 307.003 389.576L311.994 387.518C312.302 387.363 312.714 387.518 312.817 387.878C312.817 387.981 312.868 388.084 312.868 388.135Z" fill="white"/>
<path d="M107.023 116.93H105.673L96.6281 96.5H103.108L109.588 111.53H110.398L116.878 96.5H123.358L114.313 116.93H112.963V128H107.023V116.93Z" fill="white"/>
<path d="M115.393 153.13C115.393 151.87 114.898 150.775 113.908 149.845C112.948 148.915 111.583 148.45 109.813 148.45C108.313 148.45 107.128 148.765 106.258 149.395C105.388 149.995 104.953 150.82 104.953 151.87C104.953 152.41 105.058 152.905 105.268 153.355C105.478 153.775 105.838 154.165 106.348 154.525C106.888 154.855 107.578 155.155 108.418 155.425C109.288 155.695 110.383 155.95 111.703 156.19C115.003 156.79 117.523 157.795 119.263 159.205C121.003 160.615 121.873 162.7 121.873 165.46V166C121.873 167.47 121.603 168.805 121.063 170.005C120.553 171.175 119.803 172.18 118.813 173.02C117.823 173.86 116.623 174.505 115.213 174.955C113.803 175.405 112.213 175.63 110.443 175.63C108.373 175.63 106.543 175.345 104.953 174.775C103.393 174.175 102.088 173.365 101.038 172.345C99.9881 171.295 99.1931 170.08 98.6531 168.7C98.1131 167.29 97.8431 165.76 97.8431 164.11V162.76H103.783V163.84C103.783 165.73 104.323 167.245 105.403 168.385C106.513 169.495 108.223 170.05 110.533 170.05C112.333 170.05 113.668 169.66 114.538 168.88C115.408 168.1 115.843 167.17 115.843 166.09C115.843 165.58 115.753 165.1 115.573 164.65C115.393 164.17 115.078 163.75 114.628 163.39C114.178 163 113.563 162.655 112.783 162.355C112.003 162.055 111.013 161.8 109.813 161.59C108.223 161.32 106.768 160.975 105.448 160.555C104.128 160.105 102.973 159.52 101.983 158.8C101.023 158.08 100.273 157.18 99.7331 156.1C99.1931 155.02 98.9231 153.7 98.9231 152.14V151.87C98.9231 150.58 99.1781 149.395 99.6881 148.315C100.228 147.205 100.963 146.245 101.893 145.435C102.853 144.625 103.993 143.995 105.313 143.545C106.663 143.095 108.163 142.87 109.813 142.87C111.673 142.87 113.323 143.14 114.763 143.68C116.203 144.19 117.403 144.895 118.363 145.795C119.353 146.695 120.088 147.73 120.568 148.9C121.078 150.07 121.333 151.3 121.333 152.59V154.21H115.393V153.13Z" fill="white"/>
<path d="M98.6531 190.5H121.333V196.17H112.963V222H107.023V196.17H98.6531V190.5Z" fill="white"/>
<path d="M99.9131 237.5H119.803V243.17H105.853V250.37H119.263V256.04H105.853V263.33H120.343V269H99.9131V237.5Z" fill="white"/>
<path d="M97.2131 284.5H107.653L109.453 308.17V312.76H110.533V308.17L112.333 284.5H122.773V316H117.373V294.94L117.913 287.74H116.833L114.493 316H105.583L103.153 287.74H102.073L102.613 294.94V316H97.2131V284.5Z" fill="white"/>
<path d="M115.393 341.13C115.393 339.87 114.898 338.775 113.908 337.845C112.948 336.915 111.583 336.45 109.813 336.45C108.313 336.45 107.128 336.765 106.258 337.395C105.388 337.995 104.953 338.82 104.953 339.87C104.953 340.41 105.058 340.905 105.268 341.355C105.478 341.775 105.838 342.165 106.348 342.525C106.888 342.855 107.578 343.155 108.418 343.425C109.288 343.695 110.383 343.95 111.703 344.19C115.003 344.79 117.523 345.795 119.263 347.205C121.003 348.615 121.873 350.7 121.873 353.46V354C121.873 355.47 121.603 356.805 121.063 358.005C120.553 359.175 119.803 360.18 118.813 361.02C117.823 361.86 116.623 362.505 115.213 362.955C113.803 363.405 112.213 363.63 110.443 363.63C108.373 363.63 106.543 363.345 104.953 362.775C103.393 362.175 102.088 361.365 101.038 360.345C99.9881 359.295 99.1931 358.08 98.6531 356.7C98.1131 355.29 97.8431 353.76 97.8431 352.11V350.76H103.783V351.84C103.783 353.73 104.323 355.245 105.403 356.385C106.513 357.495 108.223 358.05 110.533 358.05C112.333 358.05 113.668 357.66 114.538 356.88C115.408 356.1 115.843 355.17 115.843 354.09C115.843 353.58 115.753 353.1 115.573 352.65C115.393 352.17 115.078 351.75 114.628 351.39C114.178 351 113.563 350.655 112.783 350.355C112.003 350.055 111.013 349.8 109.813 349.59C108.223 349.32 106.768 348.975 105.448 348.555C104.128 348.105 102.973 347.52 101.983 346.8C101.023 346.08 100.273 345.18 99.7331 344.1C99.1931 343.02 98.9231 341.7 98.9231 340.14V339.87C98.9231 338.58 99.1781 337.395 99.6881 336.315C100.228 335.205 100.963 334.245 101.893 333.435C102.853 332.625 103.993 331.995 105.313 331.545C106.663 331.095 108.163 330.87 109.813 330.87C111.673 330.87 113.323 331.14 114.763 331.68C116.203 332.19 117.403 332.895 118.363 333.795C119.353 334.695 120.088 335.73 120.568 336.9C121.078 338.07 121.333 339.3 121.333 340.59V342.21H115.393V341.13Z" fill="white"/>
<path d="M154.923 159.07H168.423V175H163.023V171.49H162.213C161.853 172.66 161.163 173.65 160.143 174.46C159.123 175.24 157.593 175.63 155.553 175.63C154.113 175.63 152.763 175.36 151.503 174.82C150.243 174.28 149.148 173.485 148.218 172.435C147.288 171.355 146.553 170.035 146.013 168.475C145.473 166.885 145.203 165.04 145.203 162.94V155.56C145.203 153.52 145.488 151.72 146.058 150.16C146.658 148.57 147.468 147.235 148.488 146.155C149.538 145.075 150.783 144.265 152.223 143.725C153.663 143.155 155.253 142.87 156.993 142.87C158.793 142.87 160.398 143.17 161.808 143.77C163.218 144.34 164.418 145.15 165.408 146.2C166.398 147.22 167.148 148.435 167.658 149.845C168.168 151.225 168.423 152.71 168.423 154.3V154.84H162.483V154.3C162.483 152.41 161.988 150.985 160.998 150.025C160.038 149.035 158.673 148.54 156.903 148.54C155.223 148.54 153.843 149.11 152.763 150.25C151.683 151.36 151.143 153.28 151.143 156.01V162.67C151.143 167.53 153.123 169.96 157.083 169.96C158.853 169.96 160.188 169.495 161.088 168.565C162.018 167.605 162.483 166.33 162.483 164.74H154.923V159.07Z" fill="white"/>
<path d="M153.213 206.25C153.213 205.23 153.588 204.345 154.338 203.595C155.088 202.845 155.973 202.47 156.993 202.47C158.013 202.47 158.898 202.845 159.648 203.595C160.398 204.345 160.773 205.23 160.773 206.25C160.773 207.27 160.398 208.155 159.648 208.905C158.898 209.655 158.013 210.03 156.993 210.03C155.973 210.03 155.088 209.655 154.338 208.905C153.588 208.155 153.213 207.27 153.213 206.25ZM145.383 202.74C145.383 198.66 146.403 195.495 148.443 193.245C150.513 190.995 153.363 189.87 156.993 189.87C160.623 189.87 163.458 190.995 165.498 193.245C167.568 195.495 168.603 198.66 168.603 202.74V209.76C168.603 213.96 167.568 217.155 165.498 219.345C163.458 221.535 160.623 222.63 156.993 222.63C153.363 222.63 150.513 221.535 148.443 219.345C146.403 217.155 145.383 213.96 145.383 209.76V202.74ZM156.993 217.23C158.073 217.23 158.973 217.065 159.693 216.735C160.413 216.375 160.998 215.88 161.448 215.25C161.898 214.62 162.213 213.87 162.393 213C162.573 212.13 162.663 211.17 162.663 210.12V202.38C162.663 201.39 162.558 200.46 162.348 199.59C162.138 198.72 161.808 197.97 161.358 197.34C160.908 196.71 160.323 196.215 159.603 195.855C158.883 195.465 158.013 195.27 156.993 195.27C155.973 195.27 155.103 195.465 154.383 195.855C153.663 196.215 153.078 196.71 152.628 197.34C152.178 197.97 151.848 198.72 151.638 199.59C151.428 200.46 151.323 201.39 151.323 202.38V210.12C151.323 211.17 151.413 212.13 151.593 213C151.773 213.87 152.088 214.62 152.538 215.25C152.988 215.88 153.573 216.375 154.293 216.735C155.013 217.065 155.913 217.23 156.993 217.23Z" fill="white"/>
<path d="M159.963 236.5V258.46H154.023V236.5H159.963ZM161.268 264.355C161.268 264.955 161.148 265.525 160.908 266.065C160.698 266.575 160.398 267.025 160.008 267.415C159.618 267.775 159.153 268.06 158.613 268.27C158.103 268.51 157.563 268.63 156.993 268.63C156.393 268.63 155.838 268.51 155.328 268.27C154.818 268.06 154.368 267.775 153.978 267.415C153.588 267.025 153.273 266.575 153.033 266.065C152.823 265.525 152.718 264.955 152.718 264.355C152.718 263.755 152.823 263.2 153.033 262.69C153.273 262.15 153.588 261.7 153.978 261.34C154.368 260.95 154.818 260.65 155.328 260.44C155.838 260.2 156.393 260.08 156.993 260.08C157.563 260.08 158.103 260.2 158.613 260.44C159.153 260.65 159.618 260.95 160.008 261.34C160.398 261.7 160.698 262.15 160.908 262.69C161.148 263.2 161.268 263.755 161.268 264.355Z" fill="white"/>
<circle cx="63" cy="206" r="16" fill="#75FA4C"/>
<circle cx="204" cy="18" r="16" fill="#0020F5"/>
<circle cx="157" cy="18" r="16" fill="#E63623"/>
<circle cx="157" cy="18" r="5" fill="black"/>
<g clip-path="url(#clip0)">
<path d="M237.825 22.7407C239.35 22.7407 240.649 21.437 240.649 19.7778L240.819 20.4889L267.822 13.3778C268.048 14.8 269.178 15.8667 270.591 15.8667C271.099 15.8667 271.607 15.6889 272.059 15.4519L281.211 29.9704C281.098 30.3259 280.985 30.6815 280.985 31.0963C280.985 32.6963 282.228 34.0593 283.81 34.0593C285.335 34.0593 286.635 32.7556 286.635 31.0963C286.635 30.1482 286.183 29.3185 285.505 28.7852L293.696 8.63704L297.481 21.7333C296.69 22.2667 296.125 23.1556 296.125 24.2222C296.125 25.8815 297.368 27.1852 298.95 27.1852C300.475 27.1852 301.775 25.8815 301.775 24.2222C301.775 23.6296 301.605 23.0963 301.323 22.6815L307.82 15.5111C308.215 15.7482 308.667 15.9259 309.175 15.9259C310.701 15.9259 312 14.6222 312 12.963C312 11.363 310.757 10 309.175 10C307.65 10 306.351 11.3037 306.351 12.963C306.351 13.5556 306.52 14.0889 306.803 14.5037L300.306 21.6741C299.91 21.437 299.459 21.3185 298.95 21.3185C298.894 21.3185 298.894 21.3185 298.837 21.3185L294.826 7.51112C295.617 6.97778 296.182 6.08889 296.182 5.02223C296.182 3.42223 294.939 2.05927 293.357 2.05927C291.775 2.05927 290.533 3.36297 290.533 5.02223C290.533 6.32593 291.38 7.45186 292.51 7.80741L284.149 28.1333C284.036 28.1333 283.866 28.0741 283.753 28.0741C283.132 28.0741 282.511 28.3111 282.059 28.6667L273.02 14.2667C273.246 13.8519 273.359 13.3778 273.359 12.8444C273.359 11.2444 272.116 9.88149 270.534 9.88149C269.348 9.88149 268.331 10.6519 267.935 11.7778L240.536 19.0667C240.197 17.763 239.124 16.8148 237.825 16.8148C236.243 16.8148 235 18.1185 235 19.7778C235 21.437 236.243 22.7407 237.825 22.7407Z" fill="#75FA4C"/>
</g>
<path d="M298 331C306.837 331 314 338.163 314 347C314 355.837 306.837 363 298 363L251 363C242.163 363 235 355.837 235 347C235 338.163 242.163 331 251 331L298 331Z" fill="#0020F5"/>
<circle cx="251" cy="347" r="16" transform="rotate(90 251 347)" fill="white"/>
<circle cx="251" cy="347" r="5" transform="rotate(90 251 347)" fill="black"/>
<g clip-path="url(#clip1)">
<path d="M32 300C32 300.36 31.6913 300.617 31.3827 300.617H25.9807C25.6206 300.617 25.3634 300.309 25.3634 300C25.3634 299.64 25.672 299.383 25.9807 299.383H31.3827C31.7428 299.383 32 299.64 32 300Z" fill="#EE2524"/>
<path d="M6.6881 300C6.6881 300.36 6.37942 300.617 6.07074 300.617H0.617363C0.257235 300.617 0 300.309 0 300C0 299.64 0.308682 299.383 0.617363 299.383H6.01929C6.37942 299.383 6.6881 299.64 6.6881 300Z" fill="#EE2524"/>
<path d="M16.6174 309.981V315.383C16.6174 315.743 16.3087 316 16 316C15.6399 316 15.3826 315.691 15.3826 315.383V309.981C15.3826 309.621 15.6913 309.363 16 309.363C16.3601 309.312 16.6174 309.621 16.6174 309.981Z" fill="#EE2524"/>
<path d="M16.6174 284.617V290.019C16.6174 290.379 16.3087 290.637 16 290.637C15.6399 290.637 15.3826 290.328 15.3826 290.019V284.617C15.3826 284.257 15.6913 284 16 284C16.3601 284 16.6174 284.309 16.6174 284.617Z" fill="#EE2524"/>
<path d="M22.2765 314.302C22.2765 314.559 22.1222 314.817 21.8649 314.92C21.5563 315.074 21.1447 314.868 21.0418 314.559L19.0354 309.518C18.881 309.209 19.0868 308.797 19.3955 308.695C19.7042 308.54 20.1158 308.746 20.2186 309.055L22.2251 314.096C22.2765 314.148 22.2765 314.199 22.2765 314.302Z" fill="#EE2524"/>
<path d="M12.9646 290.74C12.9646 290.997 12.8103 291.254 12.553 291.357C12.2444 291.511 11.8328 291.305 11.7299 290.997L9.77491 285.955C9.62057 285.646 9.82636 285.235 10.135 285.132C10.4437 285.029 10.8553 285.183 10.9582 285.492L12.9646 290.534C12.9646 290.585 12.9646 290.688 12.9646 290.74Z" fill="#EE2524"/>
<path d="M30.6624 306.277C30.6624 306.379 30.6624 306.431 30.6109 306.534C30.4566 306.842 30.0965 306.997 29.7878 306.842L24.8489 304.63C24.5402 304.476 24.3859 304.116 24.5402 303.807C24.6945 303.498 25.0547 303.344 25.3634 303.498L30.3023 305.711C30.5081 305.814 30.6624 306.071 30.6624 306.277Z" fill="#EE2524"/>
<path d="M7.5627 295.936C7.5627 296.039 7.5627 296.09 7.51126 296.193C7.35692 296.502 6.99679 296.656 6.68811 296.502L1.69775 294.289C1.38907 294.135 1.23473 293.775 1.38907 293.466C1.54341 293.158 1.90354 293.003 2.21222 293.158L7.15113 295.37C7.40836 295.473 7.5627 295.678 7.5627 295.936Z" fill="#EE2524"/>
<path d="M27.164 311.164C27.164 311.318 27.1125 311.524 26.9582 311.627C26.701 311.884 26.2894 311.833 26.0322 311.576L22.3794 307.666C22.1222 307.408 22.1222 306.997 22.3794 306.791C22.6367 306.534 23.0482 306.585 23.3055 306.791L27.0096 310.752C27.1125 310.855 27.164 311.01 27.164 311.164Z" fill="#EE2524"/>
<path d="M9.82636 292.746C9.82636 292.9 9.77491 293.106 9.62057 293.209C9.36334 293.466 8.95176 293.415 8.69453 293.158L4.99035 289.196C4.73311 288.99 4.78456 288.579 5.04179 288.373C5.29903 288.116 5.65916 288.116 5.91639 288.373L9.62057 292.334C9.77491 292.437 9.82636 292.592 9.82636 292.746Z" fill="#EE2524"/>
<path d="M13.0675 309.312C13.0675 309.363 13.0675 309.466 13.0161 309.518L11.0611 314.559C10.9582 314.868 10.5466 315.074 10.2379 314.92C9.92926 314.817 9.72348 314.405 9.87782 314.096L11.8328 309.055C11.9357 308.746 12.3473 308.54 12.656 308.695C12.9132 308.797 13.0675 309.055 13.0675 309.312Z" fill="#EE2524"/>
<path d="M22.1222 285.646C22.1222 285.698 22.1222 285.801 22.0707 285.852L20.1158 290.894C20.0129 291.203 19.6013 291.408 19.2926 291.254C18.9839 291.151 18.7781 290.74 18.9325 290.431L20.8875 285.389C20.9904 285.08 21.4019 284.875 21.7106 285.029C21.9678 285.132 22.1222 285.389 22.1222 285.646Z" fill="#EE2524"/>
<path d="M9.56913 307.048C9.56913 307.203 9.51768 307.357 9.36334 307.511L5.50482 311.318C5.24759 311.576 4.83601 311.576 4.57878 311.318C4.32154 311.061 4.32154 310.65 4.57878 310.392L8.38585 306.585C8.64308 306.328 9.05466 306.328 9.31189 306.585C9.51768 306.688 9.56913 306.894 9.56913 307.048Z" fill="#EE2524"/>
<path d="M27.5241 289.145C27.5241 289.299 27.4727 289.453 27.3183 289.608L23.4598 293.415C23.2026 293.672 22.791 293.672 22.5337 293.415C22.2765 293.158 22.2765 292.746 22.5337 292.489L26.3923 288.682C26.6495 288.424 27.0611 288.424 27.3183 288.682C27.4727 288.836 27.5241 288.99 27.5241 289.145Z" fill="#EE2524"/>
<path d="M7.45982 303.807C7.45982 304.064 7.30548 304.27 7.04824 304.373L2.05789 306.431C1.74921 306.585 1.33763 306.431 1.23474 306.071C1.08039 305.762 1.23474 305.35 1.59486 305.248L6.58522 303.19C6.8939 303.035 7.30547 303.19 7.40837 303.55C7.40837 303.653 7.45982 303.704 7.45982 303.807Z" fill="#EE2524"/>
<path d="M30.8682 294.135C30.8682 294.392 30.7138 294.598 30.4566 294.701L25.4662 296.759C25.1576 296.913 24.746 296.759 24.6431 296.399C24.4888 296.09 24.6431 295.678 25.0032 295.576L29.9936 293.518C30.3023 293.363 30.7138 293.518 30.8167 293.878C30.8167 293.981 30.8682 294.084 30.8682 294.135Z" fill="#EE2524"/>
</g>
<g clip-path="url(#clip2)">
<path d="M126 18C126 18.3601 125.691 18.6174 125.383 18.6174H119.981C119.621 18.6174 119.363 18.3087 119.363 18C119.363 17.6399 119.672 17.3826 119.981 17.3826H125.383C125.743 17.3826 126 17.6399 126 18Z" fill="#75FA4C"/>
<path d="M100.688 18C100.688 18.3601 100.379 18.6174 100.071 18.6174H94.6174C94.2572 18.6174 94 18.3087 94 18C94 17.6399 94.3087 17.3826 94.6174 17.3826H100.019C100.379 17.3826 100.688 17.6399 100.688 18Z" fill="#75FA4C"/>
<path d="M110.617 27.9807V33.3826C110.617 33.7428 110.309 34 110 34C109.64 34 109.383 33.6913 109.383 33.3826V27.9807C109.383 27.6206 109.691 27.3633 110 27.3633C110.36 27.3119 110.617 27.6206 110.617 27.9807Z" fill="#75FA4C"/>
<path d="M110.617 2.61736V8.01929C110.617 8.37942 110.309 8.63666 110 8.63666C109.64 8.63666 109.383 8.32797 109.383 8.01929V2.61736C109.383 2.25723 109.691 2 110 2C110.36 2 110.617 2.30868 110.617 2.61736Z" fill="#75FA4C"/>
<path d="M116.277 32.3023C116.277 32.5595 116.122 32.8167 115.865 32.9196C115.556 33.074 115.145 32.8682 115.042 32.5595L113.035 27.5177C112.881 27.209 113.087 26.7974 113.395 26.6945C113.704 26.5402 114.116 26.746 114.219 27.0547L116.225 32.0965C116.277 32.1479 116.277 32.1994 116.277 32.3023Z" fill="#75FA4C"/>
<path d="M106.965 8.73954C106.965 8.99678 106.81 9.25401 106.553 9.35691C106.244 9.51125 105.833 9.30546 105.73 8.99678L103.775 3.95498C103.621 3.6463 103.826 3.23472 104.135 3.13183C104.444 3.02893 104.855 3.18327 104.958 3.49196L106.965 8.53376C106.965 8.5852 106.965 8.6881 106.965 8.73954Z" fill="#75FA4C"/>
<path d="M124.662 24.2765C124.662 24.3794 124.662 24.4309 124.611 24.5338C124.457 24.8424 124.096 24.9968 123.788 24.8424L118.849 22.6302C118.54 22.4759 118.386 22.1157 118.54 21.8071C118.695 21.4984 119.055 21.344 119.363 21.4984L124.302 23.7106C124.508 23.8135 124.662 24.0707 124.662 24.2765Z" fill="#75FA4C"/>
<path d="M101.563 13.9357C101.563 14.0386 101.563 14.09 101.511 14.1929C101.357 14.5016 100.997 14.6559 100.688 14.5016L95.6978 12.2894C95.3891 12.135 95.2347 11.7749 95.3891 11.4662C95.5434 11.1575 95.9035 11.0032 96.2122 11.1575L101.151 13.3698C101.408 13.4727 101.563 13.6784 101.563 13.9357Z" fill="#75FA4C"/>
<path d="M121.164 29.164C121.164 29.3183 121.113 29.5241 120.958 29.627C120.701 29.8842 120.289 29.8328 120.032 29.5756L116.379 25.6656C116.122 25.4084 116.122 24.9968 116.379 24.791C116.637 24.5338 117.048 24.5852 117.305 24.791L121.01 28.7524C121.113 28.8553 121.164 29.0096 121.164 29.164Z" fill="#75FA4C"/>
<path d="M103.826 10.746C103.826 10.9003 103.775 11.1061 103.621 11.209C103.363 11.4662 102.952 11.4148 102.695 11.1576L98.9903 7.19615C98.7331 6.99036 98.7846 6.57878 99.0418 6.37299C99.299 6.11576 99.6592 6.11576 99.9164 6.37299L103.621 10.3344C103.775 10.4373 103.826 10.5916 103.826 10.746Z" fill="#75FA4C"/>
<path d="M107.068 27.3119C107.068 27.3633 107.068 27.4662 107.016 27.5177L105.061 32.5595C104.958 32.8682 104.547 33.0739 104.238 32.9196C103.929 32.8167 103.723 32.4051 103.878 32.0965L105.833 27.0547C105.936 26.746 106.347 26.5402 106.656 26.6945C106.913 26.7974 107.068 27.0547 107.068 27.3119Z" fill="#75FA4C"/>
<path d="M116.122 3.6463C116.122 3.69775 116.122 3.80065 116.071 3.85209L114.116 8.89389C114.013 9.20257 113.601 9.40836 113.293 9.25402C112.984 9.15113 112.778 8.73955 112.932 8.43087L114.887 3.38907C114.99 3.08039 115.402 2.8746 115.711 3.02894C115.968 3.13184 116.122 3.38907 116.122 3.6463Z" fill="#75FA4C"/>
<path d="M103.569 25.0482C103.569 25.2026 103.518 25.3569 103.363 25.5112L99.5048 29.3183C99.2476 29.5756 98.836 29.5756 98.5788 29.3183C98.3215 29.0611 98.3215 28.6495 98.5788 28.3923L102.386 24.5852C102.643 24.328 103.055 24.328 103.312 24.5852C103.518 24.6881 103.569 24.8939 103.569 25.0482Z" fill="#75FA4C"/>
<path d="M121.524 7.14469C121.524 7.29903 121.473 7.45337 121.318 7.60771L117.46 11.4148C117.203 11.672 116.791 11.672 116.534 11.4148C116.277 11.1575 116.277 10.746 116.534 10.4887L120.392 6.68167C120.65 6.42443 121.061 6.42443 121.318 6.68167C121.473 6.83601 121.524 6.99035 121.524 7.14469Z" fill="#75FA4C"/>
<path d="M101.46 21.8071C101.46 22.0643 101.305 22.2701 101.048 22.373L96.0579 24.4309C95.7492 24.5852 95.3376 24.4309 95.2347 24.0707C95.0804 23.7621 95.2347 23.3505 95.5948 23.2476L100.585 21.1897C100.894 21.0354 101.305 21.1897 101.408 21.5498C101.408 21.6527 101.46 21.7042 101.46 21.8071Z" fill="#75FA4C"/>
<path d="M124.868 12.135C124.868 12.3923 124.714 12.5981 124.457 12.701L119.466 14.7588C119.158 14.9132 118.746 14.7588 118.643 14.3987C118.489 14.09 118.643 13.6785 119.003 13.5756L123.994 11.5177C124.302 11.3633 124.714 11.5177 124.817 11.8778C124.817 11.9807 124.868 12.0836 124.868 12.135Z" fill="#75FA4C"/>
</g>
<circle cx="63" cy="300" r="16" fill="#E63623"/>
<circle cx="63" cy="300" r="5" fill="black"/>
<circle cx="146.333" cy="102.333" r="5.33333" fill="#E63623"/>
<circle cx="167.667" cy="102.333" r="5.33333" fill="#E63623"/>
<circle cx="146.333" cy="121.727" r="5.33333" fill="#E63623"/>
<circle cx="167.667" cy="121.727" r="5.33333" fill="#E63623"/>
<path d="M251 128C242.163 128 235 120.837 235 112C235 103.163 242.163 96 251 96L298 96C306.837 96 314 103.163 314 112C314 120.837 306.837 128 298 128L251 128Z" fill="#E63623"/>
<circle cx="251" cy="112" r="16" transform="rotate(-90 251 112)" fill="#0020F5"/>
<circle cx="298" cy="112" r="16" transform="rotate(-90 298 112)" fill="#75FA4C"/>
<circle cx="298" cy="112" r="5" transform="rotate(-90 298 112)" fill="black"/>
<rect x="190.424" y="97" width="3.87879" height="31.0303" fill="white"/>
<rect x="201.576" y="97" width="3.87879" height="31.0303" fill="white"/>
<rect x="213.697" y="97" width="3.87879" height="31.0303" fill="white"/>
<rect x="188" y="107.667" width="8.72727" height="2.90909" fill="#E63623"/>
<rect x="199.152" y="117.848" width="8.72727" height="2.90909" fill="#0020F5"/>
<rect x="211.273" y="100.879" width="8.72727" height="2.90909" fill="#75FA4C"/>
<path d="M235 206C235 197.163 242.163 190 251 190C259.837 190 267 197.163 267 206V253C267 261.837 259.837 269 251 269C242.163 269 235 261.837 235 253V206Z" fill="#E63623"/>
<circle cx="251" cy="206" r="16" fill="#0020F5"/>
<circle cx="251" cy="253" r="16" fill="white"/>
<circle cx="251" cy="253" r="5" fill="black"/>
<g clip-path="url(#clip3)">
<path d="M208.093 266.249C208.093 264.763 206.83 263.497 205.222 263.497L205.911 263.332L199.022 237.03C200.4 236.81 201.433 235.709 201.433 234.334C201.433 233.839 201.261 233.343 201.031 232.903L215.096 223.989C215.441 224.099 215.785 224.209 216.187 224.209C217.737 224.209 219.057 222.999 219.057 221.458C219.057 219.972 217.794 218.707 216.187 218.707C215.268 218.707 214.465 219.147 213.948 219.807L194.43 211.828L207.117 208.142C207.633 208.912 208.494 209.462 209.528 209.462C211.135 209.462 212.398 208.252 212.398 206.711C212.398 205.225 211.135 203.96 209.528 203.96C208.954 203.96 208.437 204.125 208.035 204.4L201.089 198.072C201.318 197.687 201.491 197.247 201.491 196.751C201.491 195.266 200.228 194 198.62 194C197.07 194 195.75 195.211 195.75 196.751C195.75 198.237 197.013 199.503 198.62 199.503C199.194 199.503 199.711 199.337 200.113 199.062L207.059 205.39C206.83 205.775 206.715 206.216 206.715 206.711C206.715 206.766 206.715 206.766 206.715 206.821L193.339 210.728C192.822 209.957 191.961 209.407 190.928 209.407C189.378 209.407 188.057 210.618 188.057 212.158C188.057 213.699 189.32 214.91 190.928 214.91C192.191 214.91 193.281 214.084 193.626 212.984L213.317 221.128C213.317 221.238 213.259 221.403 213.259 221.513C213.259 222.118 213.489 222.723 213.833 223.164L199.883 231.968C199.481 231.748 199.022 231.638 198.506 231.638C196.956 231.638 195.635 232.848 195.635 234.389C195.635 235.544 196.381 236.535 197.472 236.92L204.533 263.607C203.27 263.938 202.352 264.983 202.352 266.249C202.352 267.789 203.615 269 205.222 269C206.83 269 208.093 267.789 208.093 266.249Z" fill="#75FA4C"/>
</g>
<rect x="282" y="190" width="6.4" height="6.4" fill="#0020F5"/>
<rect x="294.8" y="190" width="6.4" height="6.4" fill="#0020F5"/>
<rect x="307.6" y="190" width="6.4" height="6.4" fill="#0020F5"/>
<rect x="282" y="202.8" width="6.4" height="6.4" fill="#0020F5"/>
<rect x="294.8" y="202.8" width="6.4" height="6.4" fill="#0020F5"/>
<rect x="307.6" y="202.8" width="6.4" height="6.4" fill="#0020F5"/>
<rect x="282" y="215.6" width="6.4" height="6.4" fill="#0020F5"/>
<rect x="294.8" y="215.6" width="6.4" height="6.4" fill="#0020F5"/>
<rect x="307.6" y="215.6" width="6.4" height="6.4" fill="#0020F5"/>
<circle cx="298" cy="253" r="16" fill="#E63623"/>
<circle cx="16" cy="347" r="16" fill="#75FA4C"/>
<circle cx="16" cy="347" r="5" fill="black"/>
<circle cx="204" cy="347" r="16" fill="#E63623"/>
<rect x="49.4242" y="332" width="3.87879" height="31.0303" fill="white"/>
<rect x="60.5758" y="332" width="3.87879" height="31.0303" fill="white"/>
<rect x="72.697" y="332" width="3.87879" height="31.0303" fill="white"/>
<rect x="47" y="342.667" width="8.72727" height="2.90909" fill="#E63623"/>
<rect x="58.1515" y="352.848" width="8.72727" height="2.90909" fill="#0020F5"/>
<rect x="70.2727" y="335.879" width="8.72727" height="2.90909" fill="#75FA4C"/>
<circle cx="298" cy="300" r="16" fill="white"/>
<path d="M204 316C195.163 316 188 308.837 188 300C188 291.163 195.163 284 204 284L251 284C259.837 284 267 291.163 267 300C267 308.837 259.837 316 251 316L204 316Z" fill="white"/>
<circle cx="204" cy="300" r="16" transform="rotate(-90 204 300)" fill="#0020F5"/>
<circle cx="251" cy="300" r="16" transform="rotate(-90 251 300)" fill="#E63623"/>
<circle cx="251" cy="300" r="5" transform="rotate(-90 251 300)" fill="black"/>
<circle cx="157" cy="300" r="16" fill="#75FA4C"/>
<circle cx="157" cy="300" r="5" fill="black"/>
<path d="M251 143C259.837 143 267 150.163 267 159C267 167.837 259.837 175 251 175L204 175C195.163 175 188 167.837 188 159C188 150.163 195.163 143 204 143L251 143Z" fill="white"/>
<circle cx="251" cy="159" r="16" transform="rotate(90 251 159)" fill="#75FA4C"/>
<circle cx="204" cy="159" r="16" transform="rotate(90 204 159)" fill="#E63623"/>
<g clip-path="url(#clip4)">
<path d="M314 159C314 159.36 313.691 159.617 313.383 159.617H307.981C307.621 159.617 307.363 159.309 307.363 159C307.363 158.64 307.672 158.383 307.981 158.383H313.383C313.743 158.383 314 158.64 314 159Z" fill="#75FA4C"/>
<path d="M288.688 159C288.688 159.36 288.379 159.617 288.071 159.617H282.617C282.257 159.617 282 159.309 282 159C282 158.64 282.309 158.383 282.617 158.383H288.019C288.379 158.383 288.688 158.64 288.688 159Z" fill="#75FA4C"/>
<path d="M298.617 168.981V174.383C298.617 174.743 298.309 175 298 175C297.64 175 297.383 174.691 297.383 174.383V168.981C297.383 168.621 297.691 168.363 298 168.363C298.36 168.312 298.617 168.621 298.617 168.981Z" fill="#75FA4C"/>
<path d="M298.617 143.617V149.019C298.617 149.379 298.309 149.637 298 149.637C297.64 149.637 297.383 149.328 297.383 149.019V143.617C297.383 143.257 297.691 143 298 143C298.36 143 298.617 143.309 298.617 143.617Z" fill="#75FA4C"/>
<path d="M304.277 173.302C304.277 173.559 304.122 173.817 303.865 173.92C303.556 174.074 303.145 173.868 303.042 173.559L301.035 168.518C300.881 168.209 301.087 167.797 301.396 167.695C301.704 167.54 302.116 167.746 302.219 168.055L304.225 173.096C304.277 173.148 304.277 173.199 304.277 173.302Z" fill="#75FA4C"/>
<path d="M294.965 149.74C294.965 149.997 294.81 150.254 294.553 150.357C294.244 150.511 293.833 150.305 293.73 149.997L291.775 144.955C291.621 144.646 291.826 144.235 292.135 144.132C292.444 144.029 292.855 144.183 292.958 144.492L294.965 149.534C294.965 149.585 294.965 149.688 294.965 149.74Z" fill="#75FA4C"/>
<path d="M312.662 165.277C312.662 165.379 312.662 165.431 312.611 165.534C312.457 165.842 312.096 165.997 311.788 165.842L306.849 163.63C306.54 163.476 306.386 163.116 306.54 162.807C306.695 162.498 307.055 162.344 307.363 162.498L312.302 164.711C312.508 164.814 312.662 165.071 312.662 165.277Z" fill="#75FA4C"/>
<path d="M289.563 154.936C289.563 155.039 289.563 155.09 289.511 155.193C289.357 155.502 288.997 155.656 288.688 155.502L283.698 153.289C283.389 153.135 283.235 152.775 283.389 152.466C283.543 152.158 283.904 152.003 284.212 152.158L289.151 154.37C289.408 154.473 289.563 154.678 289.563 154.936Z" fill="#75FA4C"/>
<path d="M309.164 170.164C309.164 170.318 309.113 170.524 308.958 170.627C308.701 170.884 308.289 170.833 308.032 170.576L304.379 166.666C304.122 166.408 304.122 165.997 304.379 165.791C304.637 165.534 305.048 165.585 305.305 165.791L309.01 169.752C309.113 169.855 309.164 170.01 309.164 170.164Z" fill="#75FA4C"/>
<path d="M291.826 151.746C291.826 151.9 291.775 152.106 291.621 152.209C291.363 152.466 290.952 152.415 290.695 152.158L286.99 148.196C286.733 147.99 286.785 147.579 287.042 147.373C287.299 147.116 287.659 147.116 287.916 147.373L291.621 151.334C291.775 151.437 291.826 151.592 291.826 151.746Z" fill="#75FA4C"/>
<path d="M295.068 168.312C295.068 168.363 295.068 168.466 295.016 168.518L293.061 173.559C292.958 173.868 292.547 174.074 292.238 173.92C291.929 173.817 291.723 173.405 291.878 173.096L293.833 168.055C293.936 167.746 294.347 167.54 294.656 167.695C294.913 167.797 295.068 168.055 295.068 168.312Z" fill="#75FA4C"/>
<path d="M304.122 144.646C304.122 144.698 304.122 144.801 304.071 144.852L302.116 149.894C302.013 150.203 301.601 150.408 301.293 150.254C300.984 150.151 300.778 149.74 300.932 149.431L302.887 144.389C302.99 144.08 303.402 143.875 303.711 144.029C303.968 144.132 304.122 144.389 304.122 144.646Z" fill="#75FA4C"/>
<path d="M291.569 166.048C291.569 166.203 291.518 166.357 291.363 166.511L287.505 170.318C287.248 170.576 286.836 170.576 286.579 170.318C286.322 170.061 286.322 169.65 286.579 169.392L290.386 165.585C290.643 165.328 291.055 165.328 291.312 165.585C291.518 165.688 291.569 165.894 291.569 166.048Z" fill="#75FA4C"/>
<path d="M309.524 148.145C309.524 148.299 309.473 148.453 309.318 148.608L305.46 152.415C305.203 152.672 304.791 152.672 304.534 152.415C304.277 152.158 304.277 151.746 304.534 151.489L308.392 147.682C308.65 147.424 309.061 147.424 309.318 147.682C309.473 147.836 309.524 147.99 309.524 148.145Z" fill="#75FA4C"/>
<path d="M289.46 162.807C289.46 163.064 289.305 163.27 289.048 163.373L284.058 165.431C283.749 165.585 283.338 165.431 283.235 165.071C283.08 164.762 283.235 164.35 283.595 164.248L288.585 162.19C288.894 162.035 289.305 162.19 289.408 162.55C289.408 162.653 289.46 162.704 289.46 162.807Z" fill="#75FA4C"/>
<path d="M312.868 153.135C312.868 153.392 312.714 153.598 312.457 153.701L307.466 155.759C307.158 155.913 306.746 155.759 306.643 155.399C306.489 155.09 306.643 154.678 307.003 154.576L311.994 152.518C312.302 152.363 312.714 152.518 312.817 152.878C312.817 152.981 312.868 153.084 312.868 153.135Z" fill="#75FA4C"/>
</g>
<path d="M16 410C7.16344 410 8.54232e-08 402.837 1.90798e-07 394C2.96173e-07 385.163 7.16344 378 16 378L63 378C71.8366 378 79 385.163 79 394C79 402.837 71.8366 410 63 410L16 410Z" fill="#E63623"/>
<circle cx="16" cy="394" r="16" transform="rotate(-90 16 394)" fill="#0020F5"/>
<circle cx="63" cy="394" r="16" transform="rotate(-90 63 394)" fill="#75FA4C"/>
<rect x="94" y="378" width="6.4" height="6.4" fill="white"/>
<rect x="106.8" y="378" width="6.4" height="6.4" fill="white"/>
<rect x="119.6" y="378" width="6.4" height="6.4" fill="white"/>
<rect x="94" y="390.8" width="6.4" height="6.4" fill="white"/>
<rect x="106.8" y="390.8" width="6.4" height="6.4" fill="white"/>
<rect x="119.6" y="390.8" width="6.4" height="6.4" fill="white"/>
<rect x="94" y="403.6" width="6.4" height="6.4" fill="white"/>
<rect x="106.8" y="403.6" width="6.4" height="6.4" fill="white"/>
<rect x="119.6" y="403.6" width="6.4" height="6.4" fill="white"/>
<path d="M204 378C212.837 378 220 385.163 220 394C220 402.837 212.837 410 204 410L157 410C148.163 410 141 402.837 141 394C141 385.163 148.163 378 157 378L204 378Z" fill="white"/>
<circle cx="157" cy="394" r="16" transform="rotate(90 157 394)" fill="#E63623"/>
<circle cx="157" cy="394" r="5" transform="rotate(90 157 394)" fill="black"/>
<circle cx="251" cy="381.097" r="3.09677" fill="#E63623"/>
<circle cx="263.903" cy="381.097" r="3.09677" fill="#E63623"/>
<circle cx="238.097" cy="394.097" r="3.09677" fill="#E63623"/>
<circle cx="251" cy="394.097" r="3.09677" fill="#E63623"/>
<circle cx="263.903" cy="394.097" r="3.09677" fill="#E63623"/>
<circle cx="238.097" cy="406.903" r="3.09677" fill="#E63623"/>
<circle cx="251" cy="406.903" r="3.09677" fill="#E63623"/>
<circle cx="263.903" cy="406.903" r="3.09677" fill="#E63623"/>
<circle cx="238.097" cy="381.097" r="3.09677" fill="#E63623"/>
<circle cx="63" cy="159" r="16" fill="white"/>
<circle cx="63" cy="159" r="5" fill="black"/>
<circle cx="146.333" cy="338.333" r="5.33333" fill="#E63623"/>
<circle cx="167.667" cy="338.333" r="5.33333" fill="#E63623"/>
<circle cx="146.333" cy="357.242" r="5.33333" fill="#E63623"/>
<circle cx="167.667" cy="357.242" r="5.33333" fill="#E63623"/>
<defs>
<clipPath id="clip0">
<rect width="77" height="32" fill="white" transform="translate(235 2)"/>
</clipPath>
<clipPath id="clip1">
<rect width="32" height="32" fill="white" transform="translate(0 284)"/>
</clipPath>
<clipPath id="clip2">
<rect width="32" height="32" fill="white" transform="translate(94 2)"/>
</clipPath>
<clipPath id="clip3">
<rect width="75" height="31" fill="white" transform="translate(188 269) rotate(-90)"/>
</clipPath>
<clipPath id="clip4">
<rect width="32" height="32" fill="white" transform="translate(282 143)"/>
</clipPath>
</defs>
</svg>
