<?xml version="1.0" encoding="UTF-8" standalone="no"?>
<!DOCTYPE svg PUBLIC "-//W3C//DTD SVG 1.1//EN" "http://www.w3.org/Graphics/SVG/1.1/DTD/svg11.dtd">
<svg width="100%" height="100%" viewBox="0 0 314 458" version="1.1" xmlns="http://www.w3.org/2000/svg" xmlns:xlink="http://www.w3.org/1999/xlink" xml:space="preserve" xmlns:serif="http://www.serif.com/" style="fill-rule:evenodd;clip-rule:evenodd;stroke-linejoin:round;stroke-miterlimit:2;">
    <g>
        <path d="M16,128C24.837,128 32,120.837 32,112C32,103.163 24.837,96 16,96C7.163,96 0,103.163 0,112C0,120.837 7.163,128 16,128Z" style="fill:white;fill-rule:nonzero;"/>
        <path d="M16,174C24.837,174 32,166.837 32,158C32,149.163 24.837,142 16,142C7.163,142 0,149.163 0,158C0,166.837 7.163,174 16,174Z" style="fill:rgb(117,250,76);fill-rule:nonzero;"/>
        <path d="M16,457C24.837,457 32,449.837 32,441C32,432.163 24.837,425 16,425C7.163,425 0,432.163 0,441C0,449.837 7.163,457 16,457Z" style="fill:white;fill-rule:nonzero;"/>
        <path d="M16,269C24.837,269 32,261.837 32,253C32,244.163 24.837,237 16,237C7.163,237 0,244.163 0,253C0,261.837 7.163,269 16,269Z" style="fill:rgb(0,32,245);fill-rule:nonzero;"/>
        <path d="M5.3,201.6C8.227,201.6 10.6,199.227 10.6,196.3C10.6,193.373 8.227,191 5.3,191C2.373,191 0,193.373 0,196.3C0,199.227 2.373,201.6 5.3,201.6Z" style="fill:rgb(230,54,35);fill-rule:nonzero;"/>
        <path d="M26.7,201.6C29.627,201.6 32,199.227 32,196.3C32,193.373 29.627,191 26.7,191C23.773,191 21.4,193.373 21.4,196.3C21.4,199.227 23.773,201.6 26.7,201.6Z" style="fill:rgb(230,54,35);fill-rule:nonzero;"/>
        <path d="M5.3,220.5C8.227,220.5 10.6,218.128 10.6,215.2C10.6,212.273 8.227,209.9 5.3,209.9C2.373,209.9 0,212.273 0,215.2C0,218.128 2.373,220.5 5.3,220.5Z" style="fill:rgb(230,54,35);fill-rule:nonzero;"/>
        <path d="M26.7,220.5C29.627,220.5 32,218.128 32,215.2C32,212.273 29.627,209.9 26.7,209.9C23.773,209.9 21.4,212.273 21.4,215.2C21.4,218.128 23.773,220.5 26.7,220.5Z" style="fill:rgb(230,54,35);fill-rule:nonzero;"/>
        <path d="M0,18C0,9.2 7.2,2 16,2C24.8,2 32,9.2 32,18L32,65C32,73.8 24.8,81 16,81C7.2,81 0,73.8 0,65L0,18Z" style="fill:rgb(230,54,35);fill-rule:nonzero;"/>
        <path d="M16,34C24.837,34 32,26.837 32,18C32,9.163 24.837,2 16,2C7.163,2 0,9.163 0,18C0,26.837 7.163,34 16,34Z" style="fill:rgb(0,32,245);fill-rule:nonzero;"/>
        <path d="M16,81C24.837,81 32,73.837 32,65C32,56.163 24.837,49 16,49C7.163,49 0,56.163 0,65C0,73.837 7.163,81 16,81Z" style="fill:white;fill-rule:nonzero;"/>
        <path d="M16,70C18.761,70 21,67.761 21,65C21,62.239 18.761,60 16,60C13.239,60 11,62.239 11,65C11,67.761 13.239,70 16,70Z" style="fill-rule:nonzero;"/>
        <path d="M68.3,27.2L57.6,27.2L56.1,34L49.9,34L57.4,2.5L68.6,2.5L76.1,34L69.9,34L68.3,27.2ZM58.9,21.6L67,21.6L63.4,5.5L62.6,5.5L58.9,21.6Z" style="fill:white;fill-rule:nonzero;"/>
        <path d="M52.9,49.5L58.8,49.5L58.8,75.3L73.1,75.3L73.1,81L52.9,81L52.9,49.5Z" style="fill:white;fill-rule:nonzero;"/>
        <path d="M52.9,96.5L58.8,96.5L58.8,122.3L73.1,122.3L73.1,128L52.9,128L52.9,96.5Z" style="fill:white;fill-rule:nonzero;"/>
        <path d="M115.4,59.1C115.4,57.8 114.9,56.7 113.9,55.8C112.9,54.9 111.6,54.4 109.8,54.4C108.3,54.4 107.1,54.7 106.2,55.3C105.3,55.9 104.9,56.7 104.9,57.8C104.9,58.3 105,58.8 105.2,59.3C105.4,59.7 105.8,60.1 106.3,60.5C106.8,60.8 107.5,61.1 108.4,61.4C109.3,61.7 110.4,61.9 111.7,62.2C115,62.8 117.5,63.8 119.3,65.2C121.1,66.6 121.9,68.7 121.9,71.5L121.9,72C121.9,73.5 121.6,74.8 121.1,76C120.6,77.2 119.8,78.2 118.9,79C118,79.8 116.7,80.5 115.3,80.9C113.9,81.3 112.3,81.6 110.5,81.6C108.4,81.6 106.6,81.3 105,80.7C103.4,80.1 102.1,79.3 101.1,78.3C100,77.2 99.3,76 98.7,74.7C98.2,73.3 97.9,71.8 97.9,70.1L97.9,68.8L103.8,68.8L103.8,69.9C103.8,71.8 104.3,73.3 105.4,74.4C106.5,75.5 108.2,76.1 110.5,76.1C112.3,76.1 113.6,75.7 114.5,74.9C115.4,74.1 115.8,73.2 115.8,72.1C115.8,71.6 115.7,71.1 115.5,70.7C115.3,70.2 115,69.8 114.6,69.4C114.2,69 113.5,68.7 112.8,68.4C112.1,68.1 111,67.8 109.8,67.6C108.2,67.3 106.8,67 105.4,66.6C104.1,66.2 102.9,65.6 101.9,64.8C100.9,64.1 100.2,63.2 99.7,62.1C99.2,61 98.9,59.7 98.9,58.1L98.9,57.8C98.9,56.5 99.2,55.3 99.7,54.2C100.2,53.1 101,52.1 101.9,51.3C102.9,50.5 104,49.9 105.3,49.4C106.6,48.9 108.1,48.7 109.8,48.7C111.7,48.7 113.3,49 114.7,49.5C116.1,50 117.3,50.7 118.3,51.6C119.3,52.5 120,53.5 120.5,54.7C121,55.9 121.3,57.1 121.3,58.4L121.3,60L115.4,60L115.4,59.1Z" style="fill:white;fill-rule:nonzero;"/>
        <path d="M63,242.4C64.491,242.4 65.7,241.191 65.7,239.7C65.7,238.209 64.491,237 63,237C61.509,237 60.3,238.209 60.3,239.7C60.3,241.191 61.509,242.4 63,242.4Z" style="fill:rgb(0,32,245);fill-rule:nonzero;"/>
        <path d="M76.3,242.4C77.791,242.4 79,241.191 79,239.7C79,238.209 77.791,237 76.3,237C74.809,237 73.6,238.209 73.6,239.7C73.6,241.191 74.809,242.4 76.3,242.4Z" style="fill:rgb(0,32,245);fill-rule:nonzero;"/>
        <path d="M49.7,255.7C51.191,255.7 52.4,254.491 52.4,253C52.4,251.509 51.191,250.3 49.7,250.3C48.209,250.3 47,251.509 47,253C47,254.491 48.209,255.7 49.7,255.7Z" style="fill:rgb(0,32,245);fill-rule:nonzero;"/>
        <path d="M63,255.7C64.491,255.7 65.7,254.491 65.7,253C65.7,251.509 64.491,250.3 63,250.3C61.509,250.3 60.3,251.509 60.3,253C60.3,254.491 61.509,255.7 63,255.7Z" style="fill:rgb(0,32,245);fill-rule:nonzero;"/>
        <path d="M76.3,255.7C77.791,255.7 79,254.491 79,253C79,251.509 77.791,250.3 76.3,250.3C74.809,250.3 73.6,251.509 73.6,253C73.6,254.491 74.809,255.7 76.3,255.7Z" style="fill:rgb(0,32,245);fill-rule:nonzero;"/>
        <path d="M49.7,269C51.191,269 52.4,267.791 52.4,266.3C52.4,264.808 51.191,263.6 49.7,263.6C48.209,263.6 47,264.808 47,266.3C47,267.791 48.209,269 49.7,269Z" style="fill:rgb(0,32,245);fill-rule:nonzero;"/>
        <path d="M65.684,266.469C65.783,264.981 64.657,263.694 63.169,263.595C61.681,263.496 60.395,264.622 60.296,266.11C60.196,267.598 61.322,268.884 62.81,268.983C64.298,269.083 65.585,267.957 65.684,266.469Z" style="fill:rgb(0,32,245);fill-rule:nonzero;"/>
        <path d="M76.3,269C77.791,269 79,267.791 79,266.3C79,264.808 77.791,263.6 76.3,263.6C74.809,263.6 73.6,264.808 73.6,266.3C73.6,267.791 74.809,269 76.3,269Z" style="fill:rgb(0,32,245);fill-rule:nonzero;"/>
        <path d="M49.7,242.4C51.191,242.4 52.4,241.191 52.4,239.7C52.4,238.209 51.191,237 49.7,237C48.209,237 47,238.209 47,239.7C47,241.191 48.209,242.4 49.7,242.4Z" style="fill:rgb(0,32,245);fill-rule:nonzero;"/>
        <path d="M47.7,429.9L54.3,429.9L54.3,431.5L51.9,431.5L51.9,439L50.2,439L50.2,431.5L47.8,431.5L47.7,429.9ZM57.6,439L56,439L56,429.9L57.6,429.9L57.6,433.6L57.8,433.6C58,433.2 58.2,432.9 58.5,432.7C58.8,432.5 59.2,432.4 59.7,432.4C60,432.4 60.3,432.5 60.6,432.6C60.9,432.7 61.1,432.9 61.3,433.1C61.5,433.3 61.7,433.6 61.8,433.9C61.9,434.2 62,434.6 62,435L62,439.1L60.4,439.1L60.4,435.4C60.4,434.9 60.3,434.6 60.1,434.3C59.9,434 59.6,433.9 59.2,433.9C58.7,433.9 58.4,434.1 58.1,434.4C57.9,434.7 57.7,435.2 57.7,435.7C57.6,435.6 57.6,439 57.6,439ZM65.4,436.3C65.4,436.5 65.5,436.7 65.5,436.8C65.6,437 65.7,437.1 65.8,437.2C65.9,437.3 66.1,437.4 66.3,437.5C66.5,437.6 66.7,437.6 66.9,437.6C67.3,437.6 67.6,437.5 67.8,437.4C68,437.3 68.2,437.1 68.3,436.9L69.7,437.7C69.6,437.9 69.5,438 69.4,438.2C69.3,438.4 69.1,438.5 68.9,438.7C68.7,438.8 68.4,439 68.1,439.1C67.8,439.2 67.4,439.2 67,439.2C66.5,439.2 66.1,439.1 65.7,439C65.3,438.8 65,438.6 64.7,438.3C64.4,438 64.2,437.6 64,437.2C63.8,436.8 63.8,436.3 63.8,435.8L63.8,435.7C63.8,435.2 63.9,434.8 64,434.3C64.2,433.9 64.4,433.5 64.7,433.3C65,433.1 65.3,432.8 65.7,432.6C66.1,432.4 66.5,432.4 67,432.4C67.6,432.4 68,432.5 68.4,432.7C68.8,432.9 69.1,433.1 69.4,433.4C69.7,433.7 69.9,434 70,434.4C70.1,434.8 70.2,435.1 70.2,435.4L70.2,436.3L65.4,436.3ZM66.9,433.9C66.5,433.9 66.1,434 65.9,434.2C65.6,434.4 65.5,434.7 65.4,434.9L68.4,434.9C68.3,434.6 68.2,434.3 67.9,434.1C67.7,434 67.3,433.9 66.9,433.9ZM79.8,432.6L81.6,432.6L81.6,431.3C81.6,430.9 81.7,430.6 82,430.4C82.3,430.1 82.6,430 82.9,430L85.5,430L85.5,431.6L83.6,431.6C83.4,431.6 83.2,431.7 83.2,432L83.2,432.7L85.7,432.7L85.7,434.3L83.2,434.3L83.2,439.2L81.6,439.2L81.6,434.3L79.8,434.3L79.8,432.6ZM94.1,435.9C94.1,436.4 94,436.9 93.8,437.3C93.6,437.7 93.4,438.1 93.1,438.3C92.8,438.6 92.4,438.8 92,438.9C91.6,439 91.2,439.1 90.7,439.1C90.2,439.1 89.8,439 89.4,438.9C89,438.8 88.6,438.5 88.3,438.3C88,438 87.7,437.7 87.6,437.3C87.4,436.9 87.3,436.4 87.3,435.9L87.3,435.7C87.3,435.2 87.4,434.7 87.6,434.3C87.8,433.9 88,433.5 88.3,433.2C88.6,432.9 89,432.7 89.4,432.6C89.8,432.5 90.2,432.4 90.7,432.4C91.2,432.4 91.6,432.5 92,432.6C92.4,432.7 92.8,433 93.1,433.2C93.4,433.5 93.7,433.8 93.8,434.3C94,434.7 94.1,435.2 94.1,435.7L94.1,435.9ZM90.8,437.6C91,437.6 91.3,437.6 91.5,437.5C91.7,437.4 91.9,437.3 92,437.2C92.1,437.1 92.3,436.9 92.4,436.7C92.5,436.5 92.5,436.2 92.5,436L92.5,435.7C92.5,435.4 92.5,435.2 92.4,435C92.3,434.8 92.2,434.6 92,434.5C91.8,434.4 91.7,434.2 91.5,434.2C91.3,434.2 91.1,434.1 90.8,434.1C90.5,434.1 90.3,434.1 90.1,434.2C89.9,434.3 89.7,434.4 89.6,434.5C89.5,434.6 89.3,434.8 89.2,435C89.1,435.2 89.1,435.4 89.1,435.7L89.1,436C89.1,436.3 89.1,436.5 89.2,436.7C89.3,436.9 89.4,437.1 89.6,437.2C89.8,437.3 89.9,437.5 90.1,437.5C90.3,437.5 90.5,437.6 90.8,437.6ZM100.1,432.6L101.7,432.6L101.7,439L100.1,439L100.1,438.1L99.9,438.1C99.6,438.8 99,439.2 98.1,439.2C97.8,439.2 97.5,439.1 97.2,439C96.9,438.9 96.7,438.7 96.5,438.5C96.3,438.3 96.1,438 96,437.7C95.9,437.4 95.8,437 95.8,436.5L95.8,432.5L97.4,432.5L97.4,436.2C97.4,436.7 97.5,437 97.7,437.3C97.9,437.6 98.2,437.7 98.7,437.7C99.2,437.7 99.6,437.5 99.8,437.2C100,436.9 100.2,436.4 100.2,435.9C100.1,435.9 100.1,432.6 100.1,432.6ZM105.4,439L103.8,439L103.8,432.6L105.4,432.6L105.4,433.6L105.6,433.6C105.7,433.2 106,433 106.3,432.8C106.6,432.6 107,432.5 107.5,432.5C107.8,432.5 108.1,432.6 108.4,432.7C108.7,432.8 108.9,432.9 109.1,433.2C109.3,433.4 109.5,433.7 109.6,434C109.7,434.3 109.8,434.7 109.8,435.1L109.8,439.2L108.2,439.2L108.2,435.5C108.2,435 108.1,434.7 107.9,434.4C107.7,434.1 107.4,434 107,434C106.5,434 106.2,434.2 105.9,434.5C105.7,434.8 105.5,435.3 105.5,435.8L105.4,439ZM116.3,438.1L116.1,438.1C116,438.2 115.9,438.4 115.8,438.5C115.7,438.6 115.6,438.7 115.4,438.9C115.2,439 115.1,439.1 114.8,439.1C114.6,439.2 114.3,439.2 114,439.2C113.6,439.2 113.2,439.1 112.9,439C112.6,438.9 112.3,438.6 112,438.4C111.7,438.1 111.5,437.8 111.4,437.4C111.3,437 111.2,436.5 111.2,436L111.2,435.8C111.2,435.3 111.3,434.8 111.4,434.4C111.6,434 111.8,433.6 112,433.4C112.3,433.1 112.6,432.9 112.9,432.8C113.3,432.7 113.6,432.6 114,432.6C114.5,432.6 114.9,432.7 115.2,432.9C115.5,433.1 115.7,433.4 115.9,433.7L116.1,433.7L116.1,430.1L117.7,430.1L117.7,439.2L116.1,439.2L116.1,438.1L116.3,438.1ZM114.6,437.6C115.1,437.6 115.5,437.4 115.8,437.1C116.1,436.8 116.3,436.3 116.3,435.8L116.3,435.6C116.3,435.1 116.1,434.6 115.8,434.3C115.5,434 115.1,433.8 114.6,433.8C114.1,433.8 113.7,434 113.4,434.3C113.1,434.6 112.9,435 112.9,435.6L112.9,435.8C112.9,436.3 113.1,436.8 113.4,437.1C113.7,437.5 114.1,437.6 114.6,437.6ZM123.8,438.1C123.6,438.5 123.4,438.8 123.1,439C122.8,439.2 122.4,439.2 122,439.2C121.6,439.2 121.2,439.1 120.9,439C120.6,438.9 120.3,438.6 120,438.4C119.7,438.1 119.5,437.8 119.4,437.4C119.3,437 119.2,436.5 119.2,436L119.2,435.8C119.2,435.3 119.3,434.8 119.4,434.4C119.5,434 119.7,433.6 120,433.4C120.3,433.1 120.5,432.9 120.9,432.8C121.2,432.6 121.6,432.6 122,432.6C122.5,432.6 122.8,432.7 123.1,432.8C123.4,433 123.6,433.2 123.8,433.5L124,433.5L124,432.7L125.6,432.7L125.6,437.2C125.6,437.5 125.7,437.6 126,437.6L126.2,437.6L126.2,439.2L125.1,439.2C124.8,439.2 124.6,439.1 124.4,438.9C124.2,438.7 124.1,438.5 124.1,438.2L123.8,438.2L123.8,438.1ZM122.4,437.6C122.9,437.6 123.3,437.4 123.5,437.1C123.8,436.8 123.9,436.3 123.9,435.8L123.9,435.6C123.9,435.1 123.8,434.6 123.5,434.3C123.2,434 122.8,433.8 122.4,433.8C121.9,433.8 121.5,434 121.3,434.3C121,434.6 120.9,435 120.9,435.6L120.9,435.8C120.9,436.3 121,436.8 121.3,437.1C121.5,437.5 121.9,437.6 122.4,437.6ZM127.4,432.6L129.3,432.6L129.3,429.9L130.9,429.9L130.9,432.6L133.2,432.6L133.2,434.2L131,434.2L131,437.1C131,437.4 131.1,437.5 131.4,437.5L133.1,437.5L133.1,439.1L130.4,439.1C130.1,439.1 129.9,439 129.7,438.8C129.5,438.6 129.4,438.4 129.4,438.1L129.4,434.2L127.5,434.2L127.4,432.6ZM135.7,437.4L137.9,437.4L137.9,434.1L135.9,434.1L135.9,432.5L139.6,432.5L139.6,437.4L141.5,437.4L141.5,439L135.8,439L135.7,437.4ZM139.9,430.6C139.9,430.8 139.9,430.9 139.8,431.1C139.7,431.2 139.7,431.4 139.5,431.5C139.4,431.6 139.3,431.7 139.1,431.8C139,431.9 138.8,431.9 138.6,431.9C138.4,431.9 138.3,431.9 138.1,431.8C138,431.7 137.8,431.6 137.7,431.5C137.6,431.4 137.5,431.3 137.4,431.1C137.3,430.9 137.3,430.8 137.3,430.6C137.3,430.4 137.3,430.3 137.4,430.1C137.5,429.9 137.6,429.8 137.7,429.7C137.8,429.6 137.9,429.5 138.1,429.4C138.2,429.3 138.4,429.3 138.6,429.3C138.8,429.3 138.9,429.3 139.1,429.4C139.3,429.5 139.4,429.5 139.5,429.7C139.6,429.8 139.7,429.9 139.8,430.1C139.9,430.3 139.9,430.5 139.9,430.6ZM149.9,435.9C149.9,436.4 149.8,436.9 149.6,437.3C149.4,437.7 149.2,438.1 148.9,438.3C148.6,438.6 148.2,438.8 147.8,438.9C147.4,439 147,439.1 146.5,439.1C146,439.1 145.6,439 145.2,438.9C144.8,438.8 144.4,438.5 144.1,438.3C143.8,438 143.5,437.7 143.4,437.3C143.2,436.9 143.1,436.4 143.1,435.9L143.1,435.7C143.1,435.2 143.2,434.7 143.4,434.3C143.6,433.9 143.8,433.5 144.1,433.2C144.4,432.9 144.8,432.7 145.2,432.6C145.6,432.5 146,432.4 146.5,432.4C147,432.4 147.4,432.5 147.8,432.6C148.2,432.7 148.6,433 148.9,433.2C149.2,433.4 149.5,433.8 149.6,434.3C149.8,434.7 149.9,435.2 149.9,435.7L149.9,435.9ZM146.5,437.6C146.7,437.6 147,437.6 147.2,437.5C147.4,437.4 147.6,437.3 147.7,437.2C147.8,437.1 148,436.9 148.1,436.7C148.2,436.5 148.2,436.2 148.2,436L148.2,435.7C148.2,435.4 148.2,435.2 148.1,435C148,434.8 147.9,434.6 147.7,434.5C147.5,434.4 147.4,434.2 147.2,434.2C147,434.1 146.8,434.1 146.5,434.1C146.2,434.1 146,434.1 145.8,434.2C145.6,434.3 145.4,434.4 145.3,434.5C145.2,434.6 145,434.8 144.9,435C144.8,435.2 144.8,435.4 144.8,435.7L144.8,436C144.8,436.3 144.8,436.5 144.9,436.7C145,436.9 145.1,437.1 145.3,437.2C145.5,437.3 145.6,437.5 145.8,437.5C146,437.6 146.3,437.6 146.5,437.6ZM153.1,439L151.5,439L151.5,432.6L153.1,432.6L153.1,433.6L153.3,433.6C153.4,433.2 153.7,433 154,432.8C154.3,432.6 154.7,432.5 155.2,432.5C155.5,432.5 155.8,432.6 156.1,432.7C156.4,432.8 156.6,432.9 156.8,433.2C157,433.4 157.2,433.7 157.3,434C157.4,434.3 157.5,434.7 157.5,435.1L157.5,439.2L155.9,439.2L155.9,435.5C155.9,435 155.8,434.7 155.6,434.4C155.4,434.1 155.1,434 154.7,434C154.2,434 153.9,434.2 153.6,434.5C153.4,434.8 153.2,435.3 153.2,435.8L153.1,439ZM163.6,438.1C163.4,438.5 163.2,438.8 162.9,439C162.6,439.2 162.2,439.2 161.8,439.2C161.4,439.2 161,439.1 160.7,439C160.4,438.9 160.1,438.6 159.8,438.4C159.5,438.1 159.3,437.8 159.2,437.4C159.1,437 159,436.5 159,436L159,435.8C159,435.3 159.1,434.8 159.2,434.4C159.3,434 159.5,433.6 159.8,433.4C160.1,433.1 160.3,432.9 160.7,432.8C161,432.6 161.4,432.6 161.8,432.6C162.3,432.6 162.6,432.7 162.9,432.8C163.2,433 163.4,433.2 163.6,433.5L163.8,433.5L163.8,432.7L165.4,432.7L165.4,437.2C165.4,437.5 165.5,437.6 165.8,437.6L166,437.6L166,439.2L164.9,439.2C164.6,439.2 164.4,439.1 164.2,438.9C164,438.7 163.9,438.5 163.9,438.2L163.6,438.2L163.6,438.1ZM162.2,437.6C162.7,437.6 163.1,437.4 163.3,437.1C163.6,436.8 163.7,436.3 163.7,435.8L163.7,435.6C163.7,435.1 163.6,434.6 163.3,434.3C163,434 162.6,433.8 162.2,433.8C161.7,433.8 161.3,434 161.1,434.3C160.8,434.6 160.7,435 160.7,435.6L160.7,435.8C160.7,436.3 160.8,436.8 161.1,437.1C161.3,437.5 161.7,437.6 162.2,437.6ZM167.4,437.4L169.7,437.4L169.7,431.4L167.5,431.4L167.5,429.8L171.3,429.8L171.3,437.3L173.4,437.3L173.4,438.9L167.4,438.9L167.4,437.4ZM187.7,432.6L189.3,432.6L189.3,439L187.7,439L187.7,438.1L187.5,438.1C187.2,438.8 186.6,439.2 185.7,439.2C185.4,439.2 185.1,439.1 184.8,439C184.5,438.9 184.3,438.7 184.1,438.5C183.9,438.3 183.7,438 183.6,437.7C183.5,437.4 183.4,437 183.4,436.5L183.4,432.5L185,432.5L185,436.2C185,436.7 185.1,437 185.3,437.3C185.5,437.6 185.8,437.7 186.3,437.7C186.8,437.7 187.2,437.5 187.4,437.2C187.6,436.9 187.8,436.4 187.8,435.9L187.8,432.6L187.7,432.6ZM193.3,434.4C193.3,434.6 193.4,434.8 193.6,434.9C193.8,435 194.2,435.1 194.8,435.1C195.5,435.2 196,435.4 196.4,435.7C196.8,436 197,436.5 197,437.1L197,437.2C197,437.8 196.8,438.4 196.3,438.7C195.8,439.1 195.2,439.3 194.3,439.3C193.8,439.3 193.4,439.2 193,439.1C192.6,439 192.4,438.8 192.1,438.6C191.9,438.4 191.7,438.2 191.6,438C191.5,437.8 191.4,437.5 191.4,437.3L192.9,436.8C193,437.1 193.1,437.3 193.3,437.5C193.5,437.7 193.9,437.8 194.3,437.8C194.7,437.8 195,437.7 195.1,437.6C195.3,437.5 195.3,437.3 195.3,437.2C195.3,437.1 195.3,437 195.2,437C195.2,436.9 195.1,436.9 195,436.8C194.9,436.7 194.8,436.7 194.6,436.6C194.4,436.6 194.2,436.5 193.9,436.5C193.2,436.4 192.6,436.3 192.2,435.9C191.8,435.6 191.6,435.1 191.6,434.5L191.6,434.4C191.6,434.1 191.7,433.8 191.8,433.6C191.9,433.4 192.1,433.2 192.3,433C192.5,432.8 192.8,432.7 193.1,432.6C193.4,432.5 193.7,432.5 194,432.5C194.4,432.5 194.8,432.6 195.1,432.7C195.4,432.8 195.7,432.9 195.9,433.1C196.1,433.3 196.3,433.4 196.4,433.6C196.5,433.8 196.6,434 196.7,434.2L195.2,434.8C195.1,434.6 195,434.4 194.8,434.3C194.6,434.2 194.4,434.1 194.1,434.1C193.8,434.1 193.6,434.2 193.5,434.3C193.4,434.1 193.3,434.2 193.3,434.4ZM200.7,436.3C200.7,436.5 200.8,436.7 200.8,436.8C200.9,437 201,437.1 201.1,437.2C201.2,437.3 201.4,437.4 201.6,437.5C201.8,437.6 202,437.6 202.2,437.6C202.6,437.6 202.9,437.5 203.1,437.4C203.3,437.3 203.5,437.1 203.6,436.9L205,437.7C204.9,437.9 204.8,438 204.7,438.2C204.6,438.4 204.4,438.5 204.2,438.7C204,438.8 203.7,439 203.4,439.1C203.1,439.2 202.7,439.2 202.3,439.2C201.8,439.2 201.4,439.1 201,439C200.6,438.8 200.3,438.6 200,438.3C199.7,438 199.5,437.6 199.3,437.2C199.1,436.8 199.1,436.3 199.1,435.8L199.1,435.7C199.1,435.2 199.2,434.8 199.3,434.3C199.5,433.9 199.7,433.5 200,433.3C200.3,433 200.6,432.8 201,432.6C201.4,432.4 201.8,432.4 202.3,432.4C202.9,432.4 203.3,432.5 203.7,432.7C204.1,432.9 204.4,433.1 204.7,433.4C205,433.7 205.2,434 205.3,434.4C205.4,434.8 205.5,435.1 205.5,435.4L205.5,436.3L200.7,436.3ZM202.2,433.9C201.8,433.9 201.4,434 201.2,434.2C200.9,434.4 200.8,434.7 200.7,434.9L203.7,434.9C203.6,434.6 203.5,434.3 203.2,434.1C203,434 202.7,433.9 202.2,433.9ZM206.9,432.6L209.6,432.6L209.6,433.5L209.8,433.5C209.9,433.1 210.1,432.9 210.4,432.7C210.7,432.5 211,432.4 211.5,432.4C212.1,432.4 212.7,432.6 213,433C213.4,433.4 213.6,434 213.6,434.8L213.6,435.1L211.9,435.3L211.9,435.1C211.9,434.7 211.8,434.5 211.6,434.3C211.4,434.1 211.1,434 210.8,434C210.5,434 210.2,434.1 209.9,434.4C209.7,434.7 209.6,435 209.6,435.5L209.6,437.6L211.1,437.6L211.1,439.2L206.7,439.2L206.7,437.6L208,437.6L208,434.3L206.8,434.3L206.9,432.6ZM216.1,434.7L220.2,434.7L220.2,436.2L216.1,436.2L216.1,434.7ZM225.2,434.4C225.2,434.6 225.3,434.8 225.5,434.9C225.7,435 226.1,435.1 226.7,435.1C227.4,435.2 227.9,435.4 228.3,435.7C228.7,436 228.9,436.5 228.9,437.1L228.9,437.2C228.9,437.8 228.7,438.4 228.2,438.7C227.7,439.1 227.1,439.3 226.2,439.3C225.7,439.3 225.3,439.2 224.9,439.1C224.5,439 224.3,438.8 224,438.6C223.8,438.4 223.6,438.2 223.5,438C223.4,437.8 223.3,437.5 223.3,437.3L224.8,436.8C224.9,437.1 225,437.3 225.2,437.5C225.4,437.7 225.8,437.8 226.2,437.8C226.6,437.8 226.9,437.7 227,437.6C227.2,437.5 227.2,437.3 227.2,437.2C227.2,437.1 227.2,437 227.1,437C227.1,436.9 227,436.9 226.9,436.8C226.8,436.7 226.7,436.7 226.5,436.6C226.3,436.6 226.1,436.5 225.8,436.5C225.1,436.4 224.5,436.3 224.1,435.9C223.7,435.6 223.5,435.1 223.5,434.5L223.5,434.4C223.5,434.1 223.6,433.8 223.7,433.6C223.8,433.4 224,433.2 224.2,433C224.4,432.8 224.7,432.7 225,432.6C225.3,432.5 225.6,432.5 225.9,432.5C226.3,432.5 226.7,432.6 227,432.7C227.3,432.8 227.6,432.9 227.8,433.1C228,433.3 228.2,433.4 228.3,433.6C228.4,433.8 228.5,434 228.6,434.2L227.1,434.8C227,434.6 226.9,434.4 226.7,434.3C226.5,434.2 226.3,434.1 226,434.1C225.7,434.1 225.5,434.2 225.4,434.3C225.3,434.1 225.2,434.2 225.2,434.4ZM232.4,441.6L230.8,441.6L230.8,432.6L232.4,432.6L232.4,433.5L232.6,433.5C232.8,433.1 233,432.9 233.4,432.7C233.7,432.5 234.2,432.4 234.7,432.4C235.1,432.4 235.4,432.5 235.8,432.6C236.1,432.7 236.4,433 236.7,433.2C237,433.5 237.2,433.8 237.3,434.2C237.5,434.6 237.5,435.1 237.5,435.6L237.5,435.8C237.5,436.3 237.4,436.8 237.3,437.2C237.2,437.6 237,438 236.7,438.2C236.4,438.5 236.1,438.7 235.8,438.8C235.5,438.9 235.1,439 234.7,439C234.4,439 234.1,439 233.9,438.9C233.7,438.8 233.5,438.8 233.3,438.7C233.1,438.6 233,438.5 232.9,438.3C232.8,438.2 232.7,438 232.6,437.9L232.4,437.9L232.4,441.6ZM234.1,437.6C234.6,437.6 235,437.4 235.3,437.1C235.6,436.8 235.8,436.3 235.8,435.8L235.8,435.6C235.8,435.1 235.6,434.6 235.3,434.3C235,434 234.6,433.8 234.1,433.8C233.6,433.8 233.2,434 232.9,434.3C232.6,434.6 232.4,435 232.4,435.6L232.4,435.8C232.4,436.3 232.6,436.8 232.9,437.1C233.2,437.5 233.6,437.6 234.1,437.6ZM243.2,438.1C243,438.5 242.8,438.8 242.5,439C242.2,439.2 241.8,439.2 241.4,439.2C241,439.2 240.6,439.1 240.3,439C240,438.9 239.7,438.6 239.4,438.4C239.1,438.1 238.9,437.8 238.8,437.4C238.7,437 238.6,436.5 238.6,436L238.6,435.8C238.6,435.3 238.7,434.8 238.8,434.4C238.9,434 239.1,433.6 239.4,433.4C239.7,433.2 239.9,432.9 240.3,432.8C240.6,432.6 241,432.6 241.4,432.6C241.9,432.6 242.2,432.7 242.5,432.8C242.8,433 243,433.2 243.2,433.5L243.4,433.5L243.4,432.7L245,432.7L245,437.2C245,437.5 245.1,437.6 245.4,437.6L245.6,437.6L245.6,439.2L244.5,439.2C244.2,439.2 244,439.1 243.8,438.9C243.6,438.7 243.5,438.5 243.5,438.2L243.2,438.2L243.2,438.1ZM241.8,437.6C242.3,437.6 242.7,437.4 242.9,437.1C243.2,436.8 243.3,436.3 243.3,435.8L243.3,435.6C243.3,435.1 243.2,434.6 242.9,434.3C242.6,434 242.2,433.8 241.8,433.8C241.3,433.8 240.9,434 240.7,434.3C240.4,434.6 240.3,435 240.3,435.6L240.3,435.8C240.3,436.3 240.4,436.8 240.7,437.1C240.9,437.5 241.3,437.6 241.8,437.6ZM253.3,436.6C253.2,437.4 252.8,438 252.2,438.4C251.7,438.9 250.9,439.1 250,439.1C249.5,439.1 249.1,439 248.7,438.9C248.3,438.8 247.9,438.5 247.6,438.3C247.3,438.1 247.1,437.7 246.9,437.3C246.7,436.9 246.6,436.4 246.6,435.9L246.6,435.7C246.6,435.2 246.7,434.7 246.9,434.3C247.1,433.9 247.3,433.5 247.6,433.2C247.9,432.9 248.3,432.7 248.7,432.5C249.1,432.3 249.6,432.3 250,432.3C250.9,432.3 251.6,432.5 252.2,433C252.8,433.5 253.1,434.1 253.3,434.8L251.7,435.2C251.6,434.8 251.5,434.5 251.2,434.2C250.9,433.9 250.5,433.8 250,433.8C249.8,433.8 249.5,433.8 249.3,433.9C249.1,434 248.9,434.1 248.8,434.3C248.6,434.5 248.5,434.7 248.4,434.9C248.3,435.1 248.3,435.4 248.3,435.7L248.3,435.8C248.3,436.1 248.3,436.3 248.4,436.6C248.5,436.8 248.6,437 248.8,437.1C249,437.2 249.1,437.4 249.3,437.4C249.5,437.5 249.7,437.5 250,437.5C250.5,437.5 250.9,437.4 251.1,437.1C251.4,436.8 251.5,436.5 251.6,436.1L253.3,436.6ZM256.4,436.3C256.4,436.5 256.5,436.7 256.5,436.8C256.6,437 256.7,437.1 256.8,437.2C256.9,437.3 257.1,437.4 257.3,437.5C257.5,437.6 257.7,437.6 257.9,437.6C258.3,437.6 258.6,437.5 258.8,437.4C259,437.3 259.2,437.1 259.3,436.9L260.7,437.7C260.6,437.9 260.5,438 260.4,438.2C260.3,438.4 260.1,438.5 259.9,438.7C259.7,438.8 259.4,439 259.1,439.1C258.8,439.2 258.4,439.2 258,439.2C257.5,439.2 257.1,439.1 256.7,439C256.3,438.9 256,438.6 255.7,438.3C255.4,438 255.2,437.6 255,437.2C254.8,436.8 254.8,436.3 254.8,435.8L254.8,435.7C254.8,435.2 254.9,434.8 255,434.3C255.2,433.9 255.4,433.5 255.7,433.3C256,433.1 256.3,432.8 256.7,432.6C257.1,432.4 257.5,432.4 258,432.4C258.6,432.4 259,432.5 259.4,432.7C259.8,432.9 260.1,433.1 260.4,433.4C260.7,433.7 260.9,434 261,434.4C261.1,434.8 261.2,435.1 261.2,435.4L261.2,436.3L256.4,436.3ZM258,433.9C257.6,433.9 257.2,434 257,434.2C256.7,434.4 256.6,434.7 256.5,434.9L259.5,434.9C259.4,434.6 259.3,434.3 259,434.1C258.7,434 258.4,433.9 258,433.9ZM48.1,447.9L49.8,447.9L49.8,455.4L53.9,455.4L53.9,457L48.1,457L48.1,447.9ZM56.1,455.4L58.3,455.4L58.3,452.1L56.3,452.1L56.3,450.5L60,450.5L60,455.4L61.9,455.4L61.9,457L56.2,457C56.1,457 56.1,455.4 56.1,455.4ZM60.3,448.6C60.3,448.8 60.3,448.9 60.2,449.1C60.1,449.2 60.1,449.4 59.9,449.5C59.8,449.6 59.7,449.7 59.5,449.8C59.4,449.9 59.2,449.9 59,449.9C58.8,449.9 58.7,449.9 58.5,449.8C58.4,449.7 58.2,449.6 58.1,449.5C58,449.4 57.9,449.3 57.8,449.1C57.7,448.9 57.7,448.8 57.7,448.6C57.7,448.4 57.7,448.3 57.8,448.1C57.9,447.9 58,447.8 58.1,447.7C58.2,447.6 58.3,447.5 58.5,447.4C58.6,447.3 58.8,447.3 59,447.3C59.2,447.3 59.3,447.3 59.5,447.4C59.7,447.5 59.8,447.5 59.9,447.7C60,447.8 60.1,447.9 60.2,448.1C60.3,448.3 60.3,448.5 60.3,448.6ZM65.6,457L64,457L64,450.6L65.6,450.6L65.6,451.6L65.8,451.6C65.9,451.2 66.2,451 66.5,450.8C66.8,450.6 67.2,450.5 67.7,450.5C68,450.5 68.3,450.6 68.6,450.7C68.9,450.8 69.1,450.9 69.3,451.2C69.5,451.4 69.7,451.7 69.8,452C69.9,452.3 70,452.7 70,453.1L70,457.2L68.4,457.2L68.4,453.5C68.4,453 68.3,452.7 68.1,452.4C67.9,452.1 67.6,452 67.2,452C66.7,452 66.4,452.2 66.1,452.5C65.9,452.8 65.7,453.3 65.7,453.8L65.6,457ZM76.3,450.6L77.9,450.6L77.9,457L76.3,457L76.3,456.1L76,456.1C75.7,456.8 75.1,457.2 74.2,457.2C73.9,457.2 73.6,457.1 73.3,457C73,456.9 72.8,456.7 72.6,456.5C72.4,456.3 72.2,456 72.1,455.7C72,455.4 71.9,455 71.9,454.5L71.9,450.5L73.5,450.5L73.5,454.2C73.5,454.7 73.6,455 73.8,455.3C74,455.6 74.3,455.7 74.8,455.7C75.3,455.7 75.7,455.5 75.9,455.2C76.1,454.9 76.3,454.4 76.3,453.9L76.3,450.6ZM84.1,450.6L85.9,450.6L84.3,453.6L84.3,453.8L86,457L84.1,457L82.9,454.5L82.7,454.5L81.5,457L79.6,457L81.3,453.8L81.3,453.6L79.7,450.6L81.5,450.6L82.7,453L82.9,453L84.1,450.6ZM102.1,454.6C102,455.4 101.6,456 101,456.4C100.5,456.9 99.7,457.1 98.8,457.1C98.3,457.1 97.9,457 97.5,456.9C97.1,456.8 96.7,456.5 96.4,456.3C96.1,456.1 95.9,455.7 95.7,455.3C95.5,454.9 95.4,454.4 95.4,453.9L95.4,453.7C95.4,453.2 95.5,452.7 95.7,452.3C95.9,451.9 96.1,451.5 96.4,451.2C96.7,450.9 97.1,450.7 97.5,450.5C97.9,450.3 98.4,450.3 98.8,450.3C99.7,450.3 100.4,450.5 101,451C101.6,451.5 101.9,452.1 102.1,452.8L100.5,453.2C100.4,452.8 100.3,452.5 100,452.2C99.7,451.9 99.3,451.8 98.8,451.8C98.6,451.8 98.3,451.8 98.1,451.9C97.9,452 97.7,452.1 97.6,452.3C97.4,452.5 97.3,452.7 97.2,452.9C97.1,453.1 97.1,453.4 97.1,453.7L97.1,453.8C97.1,454.1 97.1,454.3 97.2,454.6C97.3,454.8 97.4,455 97.6,455.1C97.8,455.2 97.9,455.4 98.1,455.4C98.3,455.5 98.5,455.5 98.8,455.5C99.3,455.5 99.7,455.4 99.9,455.1C100.2,454.8 100.3,454.5 100.4,454.1L102.1,454.6ZM110.1,453.9C110.1,454.4 110,454.9 109.8,455.3C109.6,455.7 109.4,456.1 109.1,456.3C108.8,456.6 108.4,456.8 108,456.9C107.6,457 107.2,457.1 106.7,457.1C106.2,457.1 105.8,457 105.4,456.9C105,456.8 104.6,456.5 104.3,456.3C104,456 103.7,455.7 103.6,455.3C103.4,454.9 103.3,454.4 103.3,453.9L103.3,453.7C103.3,453.2 103.4,452.7 103.6,452.3C103.8,451.9 104,451.5 104.3,451.2C104.6,450.9 105,450.7 105.4,450.6C105.8,450.5 106.2,450.4 106.7,450.4C107.2,450.4 107.6,450.5 108,450.6C108.4,450.7 108.8,451 109.1,451.2C109.4,451.5 109.7,451.8 109.8,452.3C110,452.7 110.1,453.2 110.1,453.7L110.1,453.9ZM106.7,455.6C106.9,455.6 107.2,455.6 107.4,455.5C107.6,455.4 107.8,455.3 107.9,455.2C108,455.1 108.2,454.9 108.3,454.7C108.4,454.5 108.4,454.2 108.4,454L108.4,453.7C108.4,453.4 108.4,453.2 108.3,453C108.2,452.8 108.1,452.6 107.9,452.5C107.7,452.4 107.6,452.2 107.4,452.2C107.2,452.2 107,452.1 106.7,452.1C106.4,452.1 106.2,452.1 106,452.2C105.8,452.3 105.6,452.4 105.5,452.5C105.4,452.6 105.2,452.8 105.1,453C105,453.2 105,453.4 105,453.7L105,454C105,454.3 105,454.5 105.1,454.7C105.2,454.9 105.3,455.1 105.5,455.2C105.7,455.3 105.8,455.5 106,455.5C106.2,455.5 106.5,455.6 106.7,455.6ZM113.3,457L111.7,457L111.7,450.6L113.3,450.6L113.3,451.6L113.5,451.6C113.6,451.2 113.9,451 114.2,450.8C114.5,450.6 114.9,450.5 115.4,450.5C115.7,450.5 116,450.6 116.3,450.7C116.6,450.8 116.8,450.9 117,451.2C117.2,451.4 117.4,451.7 117.5,452C117.6,452.3 117.7,452.7 117.7,453.1L117.7,457.2L116.1,457.2L116.1,453.5C116.1,453 116,452.7 115.8,452.4C115.6,452.1 115.3,452 114.9,452C114.4,452 114.1,452.2 113.8,452.5C113.6,452.8 113.4,453.3 113.4,453.8L113.3,457ZM119.6,450.6L121.4,450.6L121.4,449.3C121.4,448.9 121.5,448.6 121.8,448.4C122.1,448.1 122.4,448 122.7,448L125.3,448L125.3,449.6L123.4,449.6C123.2,449.6 123,449.7 123,450L123,450.7L125.5,450.7L125.5,452.3L123,452.3L123,457.2L121.4,457.2L121.4,452.3L119.6,452.3L119.6,450.6ZM129.1,454.3C129.1,454.5 129.2,454.7 129.2,454.8C129.3,455 129.4,455.1 129.5,455.2C129.6,455.3 129.8,455.4 130,455.5C130.2,455.6 130.4,455.6 130.6,455.6C131,455.6 131.3,455.5 131.5,455.4C131.7,455.3 131.9,455.1 132,454.9L133.4,455.7C133.3,455.9 133.2,456 133.1,456.2C133,456.4 132.8,456.5 132.6,456.7C132.4,456.8 132.1,457 131.8,457.1C131.5,457.2 131.1,457.2 130.7,457.2C130.2,457.2 129.8,457.1 129.4,457C129,456.8 128.7,456.6 128.4,456.3C128.1,456 127.9,455.6 127.7,455.2C127.5,454.8 127.5,454.3 127.5,453.8L127.5,453.7C127.5,453.2 127.6,452.8 127.7,452.3C127.9,451.9 128.1,451.5 128.4,451.3C128.7,451 129,450.8 129.4,450.6C129.8,450.4 130.2,450.4 130.7,450.4C131.3,450.4 131.7,450.5 132.1,450.7C132.5,450.9 132.8,451.1 133.1,451.4C133.4,451.7 133.5,452 133.7,452.4C133.8,452.8 133.9,453.1 133.9,453.4L133.9,454.3L129.1,454.3ZM130.6,451.9C130.2,451.9 129.8,452 129.6,452.2C129.3,452.4 129.2,452.7 129.1,452.9L132.1,452.9C132,452.6 131.9,452.3 131.6,452.1C131.4,452 131,451.9 130.6,451.9ZM135.3,450.6L138,450.6L138,451.5L138.2,451.5C138.3,451.1 138.5,450.9 138.8,450.7C139.1,450.5 139.4,450.4 139.9,450.4C140.5,450.4 141.1,450.6 141.4,451C141.8,451.4 142,452 142,452.8L142,453.1L140.3,453.3L140.3,453.1C140.3,452.7 140.2,452.5 140,452.3C139.8,452.1 139.5,452 139.2,452C138.9,452 138.6,452.1 138.3,452.4C138.1,452.7 138,453 138,453.5L138,455.6L139.5,455.6L139.5,457.2L135.1,457.2L135.1,455.6L136.4,455.6L136.4,452.3L135.2,452.3L135.3,450.6ZM145,454.3C145,454.5 145.1,454.7 145.1,454.8C145.2,455 145.3,455.1 145.4,455.2C145.5,455.3 145.7,455.4 145.9,455.5C146.1,455.6 146.3,455.6 146.5,455.6C146.9,455.6 147.2,455.5 147.4,455.4C147.6,455.3 147.8,455.1 147.9,454.9L149.3,455.7C149.2,455.9 149.1,456 149,456.2C148.9,456.4 148.7,456.5 148.5,456.7C148.3,456.8 148,457 147.7,457.1C147.4,457.2 147,457.2 146.6,457.2C146.1,457.2 145.7,457.1 145.3,457C144.9,456.8 144.6,456.6 144.3,456.3C144,456 143.8,455.6 143.6,455.2C143.4,454.8 143.4,454.3 143.4,453.8L143.4,453.7C143.4,453.2 143.5,452.8 143.6,452.3C143.8,451.9 144,451.5 144.3,451.3C144.6,451 144.9,450.8 145.3,450.6C145.7,450.4 146.1,450.4 146.6,450.4C147.2,450.4 147.6,450.5 148,450.7C148.4,450.9 148.7,451.1 149,451.4C149.3,451.7 149.4,452 149.6,452.4C149.7,452.8 149.8,453.1 149.8,453.4L149.8,454.3L145,454.3ZM146.5,451.9C146.1,451.9 145.7,452 145.5,452.2C145.2,452.4 145.1,452.7 145,452.9L148,452.9C147.9,452.6 147.8,452.3 147.5,452.1C147.3,452 146.9,451.9 146.5,451.9ZM153.1,457L151.5,457L151.5,450.6L153.1,450.6L153.1,451.6L153.3,451.6C153.4,451.2 153.7,451 154,450.8C154.3,450.6 154.7,450.5 155.2,450.5C155.5,450.5 155.8,450.6 156.1,450.7C156.4,450.8 156.6,450.9 156.8,451.2C157,451.4 157.2,451.7 157.3,452C157.4,452.3 157.5,452.7 157.5,453.1L157.5,457.2L155.9,457.2L155.9,453.5C155.9,453 155.8,452.7 155.6,452.4C155.4,452.1 155.1,452 154.7,452C154.2,452 153.9,452.2 153.6,452.5C153.4,452.8 153.2,453.3 153.2,453.8L153.1,457ZM165.7,454.6C165.6,455.4 165.2,456 164.6,456.4C164.1,456.9 163.3,457.1 162.4,457.1C161.9,457.1 161.5,457 161.1,456.9C160.7,456.8 160.3,456.5 160,456.3C159.7,456 159.5,455.7 159.3,455.3C159.1,454.9 159,454.4 159,453.9L159,453.7C159,453.2 159.1,452.7 159.3,452.3C159.5,451.9 159.7,451.5 160,451.2C160.3,450.9 160.7,450.7 161.1,450.5C161.5,450.3 162,450.3 162.4,450.3C163.3,450.3 164,450.5 164.6,451C165.2,451.5 165.5,452.1 165.7,452.8L164.1,453.2C164,452.8 163.9,452.5 163.6,452.2C163.3,451.9 162.9,451.8 162.4,451.8C162.2,451.8 161.9,451.8 161.7,451.9C161.5,452 161.3,452.1 161.2,452.3C161,452.5 160.9,452.7 160.8,452.9C160.7,453.1 160.7,453.4 160.7,453.7L160.7,453.8C160.7,454.1 160.7,454.3 160.8,454.6C160.9,454.8 161,455 161.2,455.1C161.4,455.2 161.5,455.4 161.7,455.4C161.9,455.5 162.1,455.5 162.4,455.5C162.9,455.5 163.3,455.4 163.5,455.1C163.8,454.8 163.9,454.5 164,454.1L165.7,454.6ZM168.9,454.3C168.9,454.5 169,454.7 169,454.8C169.1,455 169.2,455.1 169.3,455.2C169.4,455.3 169.6,455.4 169.8,455.5C170,455.6 170.2,455.6 170.4,455.6C170.8,455.6 171.1,455.5 171.3,455.4C171.5,455.3 171.7,455.1 171.8,454.9L173.2,455.7C173.1,455.9 173,456 172.9,456.2C172.8,456.4 172.6,456.5 172.4,456.7C172.2,456.8 171.9,457 171.6,457.1C171.3,457.2 170.9,457.2 170.5,457.2C170,457.2 169.6,457.1 169.2,457C168.8,456.8 168.5,456.6 168.2,456.3C167.9,456 167.7,455.6 167.5,455.2C167.3,454.8 167.3,454.3 167.3,453.8L167.3,453.7C167.3,453.2 167.4,452.8 167.5,452.3C167.7,451.9 167.9,451.5 168.2,451.3C168.5,451 168.8,450.8 169.2,450.6C169.6,450.4 170,450.4 170.5,450.4C171.1,450.4 171.5,450.5 171.9,450.7C172.3,450.9 172.6,451.1 172.9,451.4C173.2,451.7 173.4,452 173.5,452.4C173.6,452.8 173.7,453.1 173.7,453.4L173.7,454.3L168.9,454.3ZM170.4,451.9C170,451.9 169.6,452 169.4,452.2C169.1,452.4 169,452.7 168.9,452.9L171.9,452.9C171.8,452.6 171.7,452.3 171.4,452.1C171.2,452 170.8,451.9 170.4,451.9Z" style="fill:white;fill-rule:nonzero;"/>
        <path d="M314,394C314,394.4 313.7,394.6 313.4,394.6L308,394.6C307.6,394.6 307.4,394.3 307.4,394C307.4,393.6 307.7,393.4 308,393.4L313.4,393.4C313.7,393.4 314,393.6 314,394Z" style="fill:white;fill-rule:nonzero;"/>
        <path d="M288.7,394C288.7,394.4 288.4,394.6 288.1,394.6L282.6,394.6C282.2,394.6 282,394.3 282,394C282,393.6 282.3,393.4 282.6,393.4L288,393.4C288.4,393.4 288.7,393.6 288.7,394Z" style="fill:white;fill-rule:nonzero;"/>
        <path d="M298.6,404L298.6,409.4C298.6,409.8 298.3,410 298,410C297.6,410 297.4,409.7 297.4,409.4L297.4,404C297.4,403.6 297.7,403.4 298,403.4C298.4,403.3 298.6,403.6 298.6,404Z" style="fill:white;fill-rule:nonzero;"/>
        <path d="M298.6,378.6L298.6,384C298.6,384.4 298.3,384.6 298,384.6C297.6,384.6 297.4,384.3 297.4,384L297.4,378.6C297.4,378.2 297.7,378 298,378C298.4,378 298.6,378.3 298.6,378.6Z" style="fill:white;fill-rule:nonzero;"/>
        <path d="M304.3,408.299C304.3,408.6 304.1,408.8 303.9,408.9C303.6,409.1 303.2,408.8 303.1,408.5L301.1,403.5C300.9,403.2 301.2,402.8 301.5,402.7C301.8,402.5 302.2,402.8 302.3,403.1L304.3,408.1L304.3,408.299Z" style="fill:white;fill-rule:nonzero;"/>
        <path d="M295,384.7C295,385 294.8,385.2 294.6,385.3C294.3,385.5 293.9,385.2 293.8,384.9L291.8,379.9C291.6,379.6 291.9,379.2 292.2,379.1C292.5,379 292.9,379.2 293,379.5L295,384.5L295,384.7Z" style="fill:white;fill-rule:nonzero;"/>
        <path d="M312.7,400.3C312.7,400.4 312.7,400.5 312.6,400.6C312.4,400.9 312.1,401.1 311.8,400.9L306.9,398.7C306.6,398.5 306.4,398.2 306.6,397.9C306.8,397.6 307.1,397.4 307.4,397.6L312.3,399.8C312.5,399.8 312.7,400.1 312.7,400.3Z" style="fill:white;fill-rule:nonzero;"/>
        <path d="M289.6,389.9C289.6,390 289.6,390.1 289.5,390.2C289.3,390.5 289,390.7 288.7,390.5L283.7,388.3C283.4,388.1 283.2,387.8 283.4,387.5C283.6,387.2 283.9,387 284.2,387.2L289.1,389.4C289.4,389.5 289.6,389.7 289.6,389.9Z" style="fill:white;fill-rule:nonzero;"/>
        <path d="M309.2,405.2C309.2,405.4 309.1,405.6 309,405.7C308.7,406 308.3,405.9 308.1,405.6L304.4,401.7C304.1,401.4 304.1,401 304.4,400.8C304.7,400.5 305.1,400.6 305.3,400.8L309,404.8C309.1,404.9 309.2,405 309.2,405.2Z" style="fill:white;fill-rule:nonzero;"/>
        <path d="M291.8,386.7C291.8,386.9 291.7,387.1 291.6,387.2C291.3,387.5 290.9,387.4 290.7,387.1L287,383.1C286.7,382.9 286.8,382.5 287.1,382.3C287.4,382 287.7,382 288,382.3L291.7,386.3C291.8,386.4 291.8,386.6 291.8,386.7Z" style="fill:white;fill-rule:nonzero;"/>
        <path d="M295.1,403.3C295.1,403.4 295.1,403.5 295,403.5L293,408.5C292.9,408.8 292.5,409 292.2,408.9C291.9,408.8 291.7,408.4 291.8,408.1L293.8,403.1C293.9,402.8 294.3,402.6 294.6,402.7C294.9,402.8 295.1,403.1 295.1,403.3Z" style="fill:white;fill-rule:nonzero;"/>
        <path d="M304.1,379.6C304.1,379.7 304.1,379.8 304,379.8L302,384.8C301.9,385.1 301.5,385.3 301.2,385.2C300.9,385.1 300.7,384.7 300.8,384.4L302.8,379.4C302.9,379.1 303.3,378.9 303.6,379C304,379.1 304.1,379.4 304.1,379.6Z" style="fill:white;fill-rule:nonzero;"/>
        <path d="M291.6,401C291.6,401.2 291.5,401.3 291.4,401.5L287.5,405.3C287.2,405.6 286.8,405.6 286.6,405.3C286.3,405 286.3,404.6 286.6,404.4L290.4,400.6C290.7,400.3 291.1,400.3 291.3,400.6C291.5,400.7 291.6,400.9 291.6,401Z" style="fill:white;fill-rule:nonzero;"/>
        <path d="M309.5,383.1C309.5,383.3 309.4,383.4 309.3,383.6L305.4,387.4C305.1,387.7 304.7,387.7 304.5,387.4C304.3,387.1 304.2,386.7 304.5,386.5L308.4,382.7C308.7,382.4 309.1,382.4 309.3,382.7C309.5,382.8 309.5,383 309.5,383.1Z" style="fill:white;fill-rule:nonzero;"/>
        <path d="M289.5,397.8C289.5,398.1 289.3,398.3 289.1,398.4L284.1,400.5C283.8,400.7 283.4,400.5 283.3,400.1C283.1,399.8 283.3,399.4 283.7,399.3L288.7,397.2C289,397 289.4,397.2 289.5,397.6C289.4,397.7 289.5,397.7 289.5,397.8Z" style="fill:white;fill-rule:nonzero;"/>
        <path d="M312.9,388.1C312.9,388.4 312.7,388.6 312.5,388.7L307.5,390.8C307.2,391 306.8,390.8 306.7,390.4C306.5,390.1 306.7,389.7 307.1,389.6L312.1,387.5C312.4,387.3 312.8,387.5 312.9,387.9C312.8,388 312.9,388.1 312.9,388.1Z" style="fill:white;fill-rule:nonzero;"/>
        <path d="M107,116.9L105.7,116.9L96.7,96.5L103.2,96.5L109.7,111.5L110.5,111.5L117,96.5L123.5,96.5L114.5,116.9L113,116.9L113,128L107,128L107,116.9Z" style="fill:white;fill-rule:nonzero;"/>
        <path d="M115.4,153.1C115.4,151.8 114.9,150.7 113.9,149.8C112.9,148.9 111.6,148.4 109.8,148.4C108.3,148.4 107.1,148.7 106.2,149.3C105.3,149.9 104.9,150.7 104.9,151.8C104.9,152.3 105,152.8 105.2,153.3C105.4,153.7 105.8,154.1 106.3,154.5C106.8,154.8 107.5,155.1 108.4,155.4C109.3,155.7 110.4,155.9 111.7,156.2C115,156.8 117.5,157.8 119.3,159.2C121.1,160.6 121.9,162.7 121.9,165.5L121.9,166C121.9,167.5 121.6,168.8 121.1,170C120.6,171.2 119.8,172.2 118.9,173C118,173.8 116.7,174.5 115.3,174.9C113.9,175.3 112.3,175.6 110.5,175.6C108.4,175.6 106.6,175.3 105,174.7C103.4,174.1 102.1,173.3 101.1,172.3C100,171.2 99.3,170 98.7,168.7C98.2,167.3 97.9,165.8 97.9,164.1L97.9,162.7L103.8,162.7L103.8,163.8C103.8,165.7 104.3,167.2 105.4,168.3C106.5,169.4 108.2,170 110.5,170C112.3,170 113.6,169.6 114.5,168.8C115.4,168 115.8,167.1 115.8,166C115.8,165.5 115.7,165 115.5,164.6C115.3,164.1 115,163.7 114.6,163.3C114.2,162.9 113.5,162.6 112.8,162.3C112.1,162 111,161.7 109.8,161.5C108.2,161.2 106.8,160.9 105.4,160.5C104.1,160.1 102.9,159.5 101.9,158.7C100.9,158 100.2,157.1 99.7,156C99.2,154.9 98.9,153.6 98.9,152L98.9,151.7C98.9,150.4 99.2,149.2 99.7,148.1C100.2,147 101,146 101.9,145.2C102.9,144.4 104,143.8 105.3,143.3C106.6,142.9 108.1,142.6 109.8,142.6C111.7,142.6 113.3,142.9 114.7,143.4C116.1,143.9 117.3,144.6 118.3,145.5C119.3,146.4 120,147.4 120.5,148.6C121,149.8 121.3,151 121.3,152.3L121.3,153.9L115.4,153.9L115.4,153.1Z" style="fill:white;fill-rule:nonzero;"/>
        <path d="M98.7,190.5L121.4,190.5L121.4,196.2L113,196.2L113,222L107,222L107,196.2L98.6,196.2C98.7,196.2 98.7,190.5 98.7,190.5Z" style="fill:white;fill-rule:nonzero;"/>
        <path d="M99.9,237.5L119.8,237.5L119.8,243.2L105.9,243.2L105.9,250.4L119.3,250.4L119.3,256.1L105.9,256.1L105.9,263.4L120.4,263.4L120.4,269.1L99.9,269.1L99.9,237.5Z" style="fill:white;fill-rule:nonzero;"/>
        <path d="M97.2,284.5L107.6,284.5L109.4,308.2L109.4,312.8L110.5,312.8L110.5,308.2L112.3,284.5L122.7,284.5L122.7,316L117.3,316L117.3,294.9L117.8,287.7L116.7,287.7L114.4,316L105.5,316L103.1,287.7L102,287.7L102.5,294.9L102.5,316L97.1,316C97.2,316 97.2,284.5 97.2,284.5Z" style="fill:white;fill-rule:nonzero;"/>
        <path d="M115.4,341.1C115.4,339.8 114.9,338.7 113.9,337.8C112.9,336.9 111.6,336.4 109.8,336.4C108.3,336.4 107.1,336.7 106.2,337.3C105.3,337.9 104.9,338.7 104.9,339.8C104.9,340.3 105,340.8 105.2,341.3C105.4,341.7 105.8,342.1 106.3,342.5C106.8,342.8 107.5,343.1 108.4,343.4C109.3,343.7 110.4,343.9 111.7,344.2C115,344.8 117.5,345.8 119.3,347.2C121.1,348.6 121.9,350.7 121.9,353.5L121.9,354C121.9,355.5 121.6,356.8 121.1,358C120.6,359.2 119.8,360.2 118.9,361C117.9,361.8 116.7,362.5 115.3,362.9C113.9,363.4 112.3,363.6 110.5,363.6C108.4,363.6 106.6,363.3 105,362.7C103.4,362.1 102.1,361.3 101.1,360.3C100,359.3 99.3,358 98.7,356.7C98.2,355.3 97.9,353.8 97.9,352.1L97.9,350.7L103.8,350.7L103.8,351.8C103.8,353.7 104.3,355.2 105.4,356.3C106.5,357.4 108.2,358 110.5,358C112.3,358 113.6,357.6 114.5,356.8C115.4,356 115.8,355.1 115.8,354C115.8,353.5 115.7,353 115.5,352.6C115.3,352.1 115,351.7 114.6,351.3C114.2,350.9 113.5,350.6 112.8,350.3C112,350 111,349.7 109.8,349.5C108.2,349.2 106.8,348.9 105.4,348.5C104.1,348 102.9,347.5 101.9,346.7C100.9,346 100.2,345.1 99.7,344C99.2,342.9 98.9,341.6 98.9,340L98.9,339.7C98.9,338.4 99.2,337.2 99.7,336.1C100.2,335 101,334 101.9,333.2C102.9,332.4 104,331.8 105.3,331.3C106.6,330.8 108.1,330.6 109.8,330.6C111.7,330.6 113.3,330.9 114.7,331.4C116.1,331.9 117.3,332.6 118.3,333.5C119.3,334.4 120,335.4 120.5,336.6C121,337.8 121.3,339 121.3,340.3L121.3,341.9L115.4,341.9L115.4,341.1Z" style="fill:white;fill-rule:nonzero;"/>
        <path d="M154.9,159.1L168.4,159.1L168.4,175L163,175L163,171.5L162.2,171.5C161.8,172.7 161.1,173.7 160.1,174.5C159.1,175.3 157.5,175.7 155.5,175.7C154.1,175.7 152.7,175.4 151.4,174.9C150.1,174.4 149,173.6 148.1,172.5C147.2,171.4 146.4,170.1 145.9,168.5C145.4,166.9 145.1,165.1 145.1,163L145.1,155.6C145.1,153.6 145.4,151.8 146,150.2C146.6,148.6 147.4,147.3 148.4,146.2C149.5,145.1 150.7,144.3 152.1,143.8C153.5,143.2 155.1,142.9 156.9,142.9C158.7,142.9 160.3,143.2 161.7,143.8C163.1,144.4 164.3,145.2 165.3,146.2C166.3,147.2 167,148.4 167.5,149.8C168,151.2 168.3,152.7 168.3,154.3L168.3,154.8L162.4,154.8L162.4,154.3C162.4,152.4 161.9,151 160.9,150C159.9,149 158.6,148.5 156.8,148.5C155.1,148.5 153.7,149.1 152.7,150.2C151.6,151.3 151.1,153.2 151.1,156L151.1,162.7C151.1,167.6 153.1,170 157,170C158.8,170 160.1,169.5 161,168.6C161.9,167.6 162.4,166.4 162.4,164.8L154.8,164.8L154.9,159.1Z" style="fill:white;fill-rule:nonzero;"/>
        <path d="M153.2,206.2C153.2,205.2 153.6,204.3 154.3,203.5C155,202.7 155.9,202.4 157,202.4C158.1,202.4 158.9,202.8 159.7,203.5C160.5,204.2 160.8,205.1 160.8,206.2C160.8,207.3 160.4,208.1 159.7,208.9C159,209.7 158,210 157,210C156,210 155.1,209.6 154.3,208.9C153.5,208.2 153.2,207.3 153.2,206.2ZM145.4,202.7C145.4,198.6 146.4,195.5 148.5,193.2C150.6,191 153.4,189.8 157.1,189.8C160.8,189.8 163.6,190.9 165.6,193.2C167.7,195.4 168.7,198.6 168.7,202.7L168.7,209.7C168.7,213.9 167.7,217.1 165.6,219.3C163.6,221.5 160.7,222.6 157.1,222.6C153.5,222.6 150.6,221.5 148.5,219.3C146.5,217.1 145.4,213.9 145.4,209.7L145.4,202.7ZM157,217.2C158.1,217.2 159,217 159.7,216.7C160.4,216.3 161,215.8 161.5,215.2C162,214.6 162.3,213.8 162.4,213C162.6,212.1 162.7,211.2 162.7,210.1L162.7,202.4C162.7,201.4 162.6,200.5 162.4,199.6C162.2,198.7 161.9,198 161.4,197.4C161,196.8 160.4,196.3 159.6,195.9C158.9,195.5 158,195.3 157,195.3C156,195.3 155.1,195.5 154.4,195.9C153.7,196.3 153.1,196.8 152.6,197.4C152.2,198 151.8,198.8 151.6,199.6C151.4,200.4 151.3,201.4 151.3,202.4L151.3,210.1C151.3,211.2 151.4,212.1 151.6,213C151.8,213.9 152.1,214.6 152.5,215.2C152.9,215.8 153.5,216.3 154.3,216.7C155,217.1 155.9,217.2 157,217.2Z" style="fill:white;fill-rule:nonzero;"/>
        <path d="M160,236.5L160,258.5L154,258.5L154,236.5L160,236.5ZM161.3,264.4C161.3,265 161.2,265.6 160.9,266.1C160.7,266.6 160.4,267.1 160,267.5C159.6,267.9 159.1,268.1 158.6,268.4C158.1,268.6 157.5,268.8 157,268.8C156.4,268.8 155.8,268.7 155.3,268.4C154.8,268.2 154.3,267.9 153.9,267.5C153.5,267.1 153.2,266.7 153,266.1C152.8,265.6 152.7,265 152.7,264.4C152.7,263.8 152.8,263.2 153,262.7C153.2,262.2 153.6,261.7 153.9,261.3C154.3,260.9 154.7,260.6 155.3,260.4C155.8,260.2 156.4,260 157,260C157.6,260 158.1,260.1 158.6,260.4C159.1,260.6 159.6,260.9 160,261.3C160.4,261.7 160.7,262.1 160.9,262.7C161.1,263.2 161.3,263.8 161.3,264.4Z" style="fill:white;fill-rule:nonzero;"/>
        <path d="M63,222C71.837,222 79,214.837 79,206C79,197.163 71.837,190 63,190C54.163,190 47,197.163 47,206C47,214.837 54.163,222 63,222Z" style="fill:rgb(117,250,76);fill-rule:nonzero;"/>
        <path d="M204,34C212.837,34 220,26.837 220,18C220,9.163 212.837,2 204,2C195.163,2 188,9.163 188,18C188,26.837 195.163,34 204,34Z" style="fill:rgb(0,32,245);fill-rule:nonzero;"/>
        <path d="M157,34C165.837,34 173,26.837 173,18C173,9.163 165.837,2 157,2C148.163,2 141,9.163 141,18C141,26.837 148.163,34 157,34Z" style="fill:rgb(230,54,35);fill-rule:nonzero;"/>
        <path d="M157,23C159.761,23 162,20.761 162,18C162,15.239 159.761,13 157,13C154.239,13 152,15.239 152,18C152,20.761 154.239,23 157,23Z" style="fill-rule:nonzero;"/>
        <path d="M237.8,22.7C239.3,22.7 240.6,21.4 240.6,19.7L240.8,20.4L267.8,13.3C268,14.7 269.2,15.8 270.6,15.8C271.1,15.8 271.6,15.6 272.1,15.4L281.3,29.9C281.2,30.3 281.1,30.6 281.1,31C281.1,32.6 282.3,34 283.9,34C285.4,34 286.7,32.7 286.7,31C286.7,30.1 286.2,29.2 285.6,28.7L293.8,8.6L297.6,21.7C296.8,22.2 296.2,23.1 296.2,24.2C296.2,25.9 297.4,27.2 299,27.2C300.5,27.2 301.8,25.9 301.8,24.2C301.8,23.6 301.6,23.1 301.3,22.7L307.8,15.5C308.2,15.7 308.6,15.9 309.2,15.9C310.7,15.9 312,14.6 312,12.9C312,11.3 310.8,9.9 309.2,9.9C307.7,9.9 306.4,11.2 306.4,12.9C306.4,13.5 306.6,14 306.9,14.4L300.4,21.6C300,21.4 299.6,21.2 299,21.2L298.9,21.2L294.9,7.4C295.7,6.9 296.3,6 296.3,4.9C296.3,3.3 295.1,1.9 293.5,1.9C291.9,1.9 290.7,3.2 290.7,4.9C290.7,6.2 291.5,7.3 292.7,7.7L284.3,28C284.2,28 284,27.9 283.9,27.9C283.3,27.9 282.7,28.1 282.2,28.5L273.2,14.1C273.4,13.7 273.5,13.2 273.5,12.7C273.5,11.1 272.3,9.7 270.7,9.7C269.5,9.7 268.5,10.5 268.1,11.6L240.7,18.9C240.4,17.6 239.3,16.6 238,16.6C236.4,16.6 235.2,17.9 235.2,19.6C235,21.4 236.2,22.7 237.8,22.7Z" style="fill:rgb(117,250,76);fill-rule:nonzero;"/>
        <path d="M298,331C306.8,331 314,338.2 314,347C314,355.8 306.8,363 298,363L251,363C242.2,363 235,355.8 235,347C235,338.2 242.2,331 251,331L298,331Z" style="fill:rgb(0,32,245);fill-rule:nonzero;"/>
        <path d="M251,363C259.837,363 267,355.837 267,347C267,338.163 259.837,331 251,331C242.163,331 235,338.163 235,347C235,355.837 242.163,363 251,363Z" style="fill:white;fill-rule:nonzero;"/>
        <path d="M251,352C253.761,352 256,349.761 256,347C256,344.239 253.761,342 251,342C248.239,342 246,344.239 246,347C246,349.761 248.239,352 251,352Z" style="fill-rule:nonzero;"/>
        <path d="M32,300C32,300.4 31.7,300.6 31.4,300.6L26,300.6C25.6,300.6 25.4,300.3 25.4,300C25.4,299.6 25.7,299.4 26,299.4L31.4,299.4C31.7,299.4 32,299.6 32,300Z" style="fill:rgb(238,37,36);fill-rule:nonzero;"/>
        <path d="M6.7,300C6.7,300.4 6.4,300.6 6.1,300.6L0.6,300.6C0.2,300.6 0,300.3 0,300C0,299.6 0.3,299.4 0.6,299.4L6,299.4C6.4,299.4 6.7,299.6 6.7,300Z" style="fill:rgb(238,37,36);fill-rule:nonzero;"/>
        <path d="M16.6,310L16.6,315.4C16.6,315.8 16.3,316 16,316C15.6,316 15.4,315.7 15.4,315.4L15.4,310C15.4,309.6 15.7,309.4 16,309.4C16.4,309.3 16.6,309.6 16.6,310Z" style="fill:rgb(238,37,36);fill-rule:nonzero;"/>
        <path d="M16.6,284.6L16.6,290C16.6,290.4 16.3,290.6 16,290.6C15.6,290.6 15.4,290.3 15.4,290L15.4,284.6C15.4,284.2 15.7,284 16,284C16.4,284 16.6,284.3 16.6,284.6Z" style="fill:rgb(238,37,36);fill-rule:nonzero;"/>
        <path d="M22.3,314.299C22.3,314.6 22.1,314.8 21.9,314.9C21.6,315.1 21.2,314.8 21.1,314.5L19.1,309.5C18.9,309.2 19.2,308.8 19.5,308.7C19.8,308.5 20.2,308.8 20.3,309.1L22.3,314.1L22.3,314.299Z" style="fill:rgb(238,37,36);fill-rule:nonzero;"/>
        <path d="M13,290.7C13,291 12.8,291.2 12.6,291.3C12.3,291.5 11.9,291.2 11.8,290.9L9.8,285.9C9.6,285.6 9.9,285.2 10.2,285.1C10.5,285 10.9,285.2 11,285.5L13,290.5L13,290.7Z" style="fill:rgb(238,37,36);fill-rule:nonzero;"/>
        <path d="M30.7,306.3C30.7,306.4 30.7,306.5 30.6,306.6C30.4,306.9 30.1,307.1 29.8,306.9L24.9,304.7C24.6,304.5 24.4,304.2 24.6,303.9C24.8,303.6 25.1,303.4 25.4,303.6L30.3,305.8C30.5,305.8 30.7,306.1 30.7,306.3Z" style="fill:rgb(238,37,36);fill-rule:nonzero;"/>
        <path d="M7.6,295.9C7.6,296 7.6,296.1 7.5,296.2C7.3,296.5 7,296.7 6.7,296.5L1.7,294.3C1.4,294.1 1.2,293.8 1.4,293.5C1.6,293.2 1.9,293 2.2,293.2L7.1,295.4C7.4,295.5 7.6,295.7 7.6,295.9Z" style="fill:rgb(238,37,36);fill-rule:nonzero;"/>
        <path d="M27.2,311.2C27.2,311.4 27.1,311.6 27,311.7C26.7,312 26.3,311.9 26.1,311.6L22.4,307.7C22.1,307.4 22.1,307 22.4,306.8C22.7,306.5 23.1,306.6 23.3,306.8L27,310.8C27.1,310.9 27.2,311 27.2,311.2Z" style="fill:rgb(238,37,36);fill-rule:nonzero;"/>
        <path d="M9.8,292.7C9.8,292.9 9.7,293.1 9.6,293.2C9.3,293.5 8.9,293.4 8.7,293.1L5,289.1C4.7,288.9 4.8,288.5 5.1,288.3C5.4,288 5.7,288 6,288.3L9.7,292.3C9.8,292.4 9.8,292.6 9.8,292.7Z" style="fill:rgb(238,37,36);fill-rule:nonzero;"/>
        <path d="M13.1,309.3C13.1,309.4 13.1,309.5 13,309.5L11,314.5C10.9,314.8 10.5,315 10.2,314.9C9.9,314.8 9.7,314.4 9.8,314.1L11.8,309.1C11.9,308.8 12.3,308.6 12.6,308.7C12.9,308.8 13.1,309.1 13.1,309.3Z" style="fill:rgb(238,37,36);fill-rule:nonzero;"/>
        <path d="M22.1,285.6C22.1,285.7 22.1,285.8 22,285.8L20,290.8C19.9,291.1 19.5,291.3 19.2,291.2C18.9,291.1 18.7,290.7 18.8,290.4L20.8,285.4C20.9,285.1 21.3,284.9 21.6,285C22,285.1 22.1,285.4 22.1,285.6Z" style="fill:rgb(238,37,36);fill-rule:nonzero;"/>
        <path d="M9.6,307C9.6,307.2 9.5,307.3 9.4,307.5L5.5,311.3C5.2,311.6 4.8,311.6 4.6,311.3C4.3,311 4.3,310.6 4.6,310.4L8.4,306.6C8.7,306.3 9.1,306.3 9.3,306.6C9.5,306.7 9.6,306.9 9.6,307Z" style="fill:rgb(238,37,36);fill-rule:nonzero;"/>
        <path d="M27.5,289.1C27.5,289.3 27.4,289.4 27.3,289.6L23.4,293.4C23.1,293.7 22.7,293.7 22.5,293.4C22.3,293.1 22.2,292.7 22.5,292.5L26.4,288.7C26.7,288.4 27.1,288.4 27.3,288.7C27.5,288.8 27.5,289 27.5,289.1Z" style="fill:rgb(238,37,36);fill-rule:nonzero;"/>
        <path d="M7.5,303.8C7.5,304.1 7.3,304.3 7.1,304.4L2.1,306.5C1.8,306.7 1.4,306.5 1.3,306.1C1.1,305.8 1.3,305.4 1.7,305.3L6.7,303.2C7,303 7.4,303.2 7.5,303.6C7.4,303.7 7.5,303.7 7.5,303.8Z" style="fill:rgb(238,37,36);fill-rule:nonzero;"/>
        <path d="M30.9,294.1C30.9,294.4 30.7,294.6 30.5,294.7L25.5,296.8C25.2,297 24.8,296.8 24.7,296.4C24.5,296.1 24.7,295.7 25.1,295.6L30.1,293.5C30.4,293.3 30.8,293.5 30.9,293.9C30.8,294 30.9,294.1 30.9,294.1Z" style="fill:rgb(238,37,36);fill-rule:nonzero;"/>
        <path d="M126,18C126,18.4 125.7,18.6 125.4,18.6L120,18.6C119.6,18.6 119.4,18.3 119.4,18C119.4,17.6 119.7,17.4 120,17.4L125.4,17.4C125.7,17.4 126,17.6 126,18Z" style="fill:rgb(117,250,76);fill-rule:nonzero;"/>
        <path d="M100.7,18C100.7,18.4 100.4,18.6 100.1,18.6L94.6,18.6C94.2,18.6 94,18.3 94,18C94,17.6 94.3,17.4 94.6,17.4L100,17.4C100.4,17.4 100.7,17.6 100.7,18Z" style="fill:rgb(117,250,76);fill-rule:nonzero;"/>
        <path d="M110.6,28L110.6,33.4C110.6,33.8 110.3,34 110,34C109.6,34 109.4,33.7 109.4,33.4L109.4,28C109.4,27.6 109.7,27.4 110,27.4C110.4,27.3 110.6,27.6 110.6,28Z" style="fill:rgb(117,250,76);fill-rule:nonzero;"/>
        <path d="M110.6,2.6L110.6,8C110.6,8.4 110.3,8.6 110,8.6C109.6,8.6 109.4,8.3 109.4,8L109.4,2.6C109.4,2.2 109.7,2 110,2C110.4,2 110.6,2.3 110.6,2.6Z" style="fill:rgb(117,250,76);fill-rule:nonzero;"/>
        <path d="M116.3,32.3C116.3,32.6 116.1,32.8 115.9,32.9C115.6,33.1 115.2,32.8 115.1,32.499L113.1,27.5C112.9,27.2 113.2,26.799 113.5,26.7C113.8,26.5 114.2,26.799 114.3,27.1L116.3,32.1L116.3,32.3Z" style="fill:rgb(117,250,76);fill-rule:nonzero;"/>
        <path d="M107,8.7C107,9 106.8,9.2 106.6,9.3C106.3,9.5 105.9,9.2 105.8,8.9L103.8,3.9C103.6,3.6 103.9,3.2 104.2,3.1C104.5,3 104.9,3.2 105,3.5L107,8.5L107,8.7Z" style="fill:rgb(117,250,76);fill-rule:nonzero;"/>
        <path d="M124.7,24.3C124.7,24.4 124.7,24.5 124.6,24.6C124.4,24.9 124.1,25.1 123.8,24.9L118.9,22.7C118.6,22.5 118.4,22.2 118.6,21.9C118.8,21.6 119.1,21.4 119.4,21.6L124.3,23.8C124.5,23.8 124.7,24.1 124.7,24.3Z" style="fill:rgb(117,250,76);fill-rule:nonzero;"/>
        <path d="M101.6,13.9C101.6,14 101.6,14.1 101.5,14.2C101.3,14.5 101,14.7 100.7,14.5L95.7,12.3C95.4,12.1 95.2,11.8 95.4,11.5C95.6,11.2 95.9,11 96.2,11.2L101.1,13.4C101.4,13.5 101.6,13.7 101.6,13.9Z" style="fill:rgb(117,250,76);fill-rule:nonzero;"/>
        <path d="M121.2,29.2C121.2,29.4 121.1,29.6 121,29.7C120.7,30 120.3,29.9 120.1,29.6L116.4,25.7C116.1,25.4 116.1,25 116.4,24.8C116.7,24.5 117.1,24.6 117.3,24.8L121,28.8C121.1,28.9 121.2,29 121.2,29.2Z" style="fill:rgb(117,250,76);fill-rule:nonzero;"/>
        <path d="M103.8,10.7C103.8,10.9 103.7,11.1 103.6,11.2C103.3,11.5 102.9,11.4 102.7,11.1L99,7.1C98.7,7 98.8,6.6 99,6.4C99.3,6.1 99.6,6.1 99.9,6.4L103.6,10.4C103.8,10.4 103.8,10.6 103.8,10.7Z" style="fill:rgb(117,250,76);fill-rule:nonzero;"/>
        <path d="M107.1,27.3C107.1,27.4 107.1,27.5 107,27.5L105,32.5C104.9,32.8 104.5,33 104.2,32.9C103.9,32.8 103.7,32.4 103.8,32.1L105.8,27.1C105.9,26.8 106.3,26.6 106.6,26.7C106.9,26.8 107.1,27.1 107.1,27.3Z" style="fill:rgb(117,250,76);fill-rule:nonzero;"/>
        <path d="M116.1,3.6C116.1,3.7 116.1,3.8 116,3.8L114,8.8C113.9,9.1 113.5,9.3 113.2,9.2C112.9,9.1 112.7,8.7 112.8,8.4L114.8,3.4C114.9,3.1 115.3,2.9 115.6,3C116,3.1 116.1,3.4 116.1,3.6Z" style="fill:rgb(117,250,76);fill-rule:nonzero;"/>
        <path d="M103.6,25C103.6,25.2 103.5,25.3 103.4,25.5L99.5,29.3C99.2,29.6 98.8,29.6 98.6,29.3C98.4,29 98.3,28.6 98.6,28.4L102.4,24.6C102.7,24.3 103.1,24.3 103.3,24.6C103.5,24.7 103.6,24.9 103.6,25Z" style="fill:rgb(117,250,76);fill-rule:nonzero;"/>
        <path d="M121.5,7.1C121.5,7.3 121.4,7.4 121.3,7.6L117.4,11.4C117.1,11.7 116.7,11.7 116.5,11.4C116.3,11.1 116.2,10.7 116.5,10.5L120.4,6.7C120.7,6.4 121.1,6.4 121.3,6.7C121.5,6.8 121.5,7 121.5,7.1Z" style="fill:rgb(117,250,76);fill-rule:nonzero;"/>
        <path d="M101.5,21.8C101.5,22.1 101.3,22.3 101.1,22.4L96.1,24.5C95.8,24.7 95.4,24.5 95.3,24.1C95.1,23.8 95.3,23.4 95.7,23.3L100.7,21.2C101,21 101.4,21.2 101.5,21.6C101.4,21.7 101.5,21.7 101.5,21.8Z" style="fill:rgb(117,250,76);fill-rule:nonzero;"/>
        <path d="M124.9,12.1C124.9,12.4 124.7,12.6 124.5,12.7L119.5,14.8C119.2,15 118.8,14.8 118.7,14.4C118.5,14.1 118.7,13.7 119.1,13.6L124.1,11.5C124.4,11.3 124.8,11.5 124.9,11.9C124.8,12 124.9,12.1 124.9,12.1Z" style="fill:rgb(117,250,76);fill-rule:nonzero;"/>
        <path d="M63,316C71.837,316 79,308.837 79,300C79,291.163 71.837,284 63,284C54.163,284 47,291.163 47,300C47,308.837 54.163,316 63,316Z" style="fill:rgb(230,54,35);fill-rule:nonzero;"/>
        <path d="M63,305C65.761,305 68,302.761 68,300C68,297.239 65.761,295 63,295C60.239,295 58,297.239 58,300C58,302.761 60.239,305 63,305Z" style="fill-rule:nonzero;"/>
        <path d="M146.3,107.6C149.227,107.6 151.6,105.227 151.6,102.3C151.6,99.373 149.227,97 146.3,97C143.373,97 141,99.373 141,102.3C141,105.227 143.373,107.6 146.3,107.6Z" style="fill:rgb(230,54,35);fill-rule:nonzero;"/>
        <path d="M167.7,107.6C170.627,107.6 173,105.227 173,102.3C173,99.373 170.627,97 167.7,97C164.773,97 162.4,99.373 162.4,102.3C162.4,105.227 164.773,107.6 167.7,107.6Z" style="fill:rgb(230,54,35);fill-rule:nonzero;"/>
        <path d="M146.3,127C149.227,127 151.6,124.627 151.6,121.7C151.6,118.773 149.227,116.4 146.3,116.4C143.373,116.4 141,118.773 141,121.7C141,124.627 143.373,127 146.3,127Z" style="fill:rgb(230,54,35);fill-rule:nonzero;"/>
        <path d="M167.7,127C170.627,127 173,124.627 173,121.7C173,118.773 170.627,116.4 167.7,116.4C164.773,116.4 162.4,118.773 162.4,121.7C162.4,124.627 164.773,127 167.7,127Z" style="fill:rgb(230,54,35);fill-rule:nonzero;"/>
        <path d="M251,128C242.2,128 235,120.8 235,112C235,103.2 242.2,96 251,96L298,96C306.8,96 314,103.2 314,112C314,120.8 306.8,128 298,128L251,128Z" style="fill:rgb(230,54,35);fill-rule:nonzero;"/>
        <path d="M251,128C259.837,128 267,120.837 267,112C267,103.163 259.837,96 251,96C242.163,96 235,103.163 235,112C235,120.837 242.163,128 251,128Z" style="fill:rgb(0,32,245);fill-rule:nonzero;"/>
        <path d="M298,128C306.837,128 314,120.837 314,112C314,103.163 306.837,96 298,96C289.163,96 282,103.163 282,112C282,120.837 289.163,128 298,128Z" style="fill:rgb(117,250,76);fill-rule:nonzero;"/>
        <path d="M298,117C300.761,117 303,114.761 303,112C303,109.239 300.761,107 298,107C295.239,107 293,109.239 293,112C293,114.761 295.239,117 298,117Z" style="fill-rule:nonzero;"/>
        <rect x="190.4" y="97" width="3.9" height="31" style="fill:white;fill-rule:nonzero;"/>
        <rect x="201.6" y="97" width="3.9" height="31" style="fill:white;fill-rule:nonzero;"/>
        <rect x="213.7" y="97" width="3.9" height="31" style="fill:white;fill-rule:nonzero;"/>
        <rect x="188" y="107.7" width="8.7" height="2.9" style="fill:rgb(230,54,35);fill-rule:nonzero;"/>
        <rect x="199.2" y="117.8" width="8.7" height="2.9" style="fill:rgb(0,32,245);fill-rule:nonzero;"/>
        <rect x="211.3" y="100.9" width="8.7" height="2.9" style="fill:rgb(117,250,76);fill-rule:nonzero;"/>
        <path d="M235,206C235,197.2 242.2,190 251,190C259.8,190 267,197.2 267,206L267,253C267,261.8 259.8,269 251,269C242.2,269 235,261.8 235,253L235,206Z" style="fill:rgb(230,54,35);fill-rule:nonzero;"/>
        <path d="M251,222C259.837,222 267,214.837 267,206C267,197.163 259.837,190 251,190C242.163,190 235,197.163 235,206C235,214.837 242.163,222 251,222Z" style="fill:rgb(0,32,245);fill-rule:nonzero;"/>
        <path d="M251,269C259.837,269 267,261.837 267,253C267,244.163 259.837,237 251,237C242.163,237 235,244.163 235,253C235,261.837 242.163,269 251,269Z" style="fill:white;fill-rule:nonzero;"/>
        <path d="M251,258C253.761,258 256,255.761 256,253C256,250.239 253.761,248 251,248C248.239,248 246,250.239 246,253C246,255.761 248.239,258 251,258Z" style="fill-rule:nonzero;"/>
        <path d="M208.1,266.2C208.1,264.7 206.8,263.4 205.2,263.4L205.9,263.2L199,237C200.4,236.8 201.4,235.7 201.4,234.3C201.4,233.8 201.2,233.3 201,232.9L215.1,224C215.4,224.1 215.8,224.2 216.2,224.2C217.8,224.2 219.1,223 219.1,221.4C219.1,219.9 217.8,218.6 216.2,218.6C215.3,218.6 214.5,219 214,219.7L194.5,211.7L207.2,208C207.7,208.8 208.6,209.3 209.6,209.3C211.2,209.3 212.5,208.1 212.5,206.5C212.5,205 211.2,203.7 209.6,203.7C209,203.7 208.5,203.9 208.1,204.1L201.2,197.8C201.4,197.4 201.6,197 201.6,196.5C201.6,195 200.3,193.7 198.7,193.7C197.1,193.7 195.8,194.9 195.8,196.5C195.8,198 197.1,199.3 198.7,199.3C199.3,199.3 199.8,199.1 200.2,198.9L207.1,205.2C206.9,205.6 206.8,206 206.8,206.5L206.8,206.6L193.4,210.5C192.9,209.7 192,209.2 191,209.2C189.4,209.2 188.1,210.4 188.1,212C188.1,213.5 189.4,214.8 191,214.8C192.3,214.8 193.4,214 193.7,212.9L213.4,221C213.4,221.1 213.3,221.3 213.3,221.4C213.3,222 213.5,222.6 213.9,223.1L200,231.9C199.6,231.7 199.1,231.6 198.6,231.6C197,231.6 195.7,232.8 195.7,234.4C195.7,235.6 196.4,236.5 197.5,236.9L204.6,263.6C203.3,263.9 202.4,265 202.4,266.2C202.4,267.7 203.7,269 205.3,269C206.8,269 208.1,267.8 208.1,266.2Z" style="fill:rgb(117,250,76);fill-rule:nonzero;"/>
        <rect x="282" y="190" width="6.4" height="6.4" style="fill:rgb(0,32,245);fill-rule:nonzero;"/>
        <rect x="294.8" y="190" width="6.4" height="6.4" style="fill:rgb(0,32,245);fill-rule:nonzero;"/>
        <rect x="307.6" y="190" width="6.4" height="6.4" style="fill:rgb(0,32,245);fill-rule:nonzero;"/>
        <rect x="282" y="202.8" width="6.4" height="6.4" style="fill:rgb(0,32,245);fill-rule:nonzero;"/>
        <rect x="294.8" y="202.8" width="6.4" height="6.4" style="fill:rgb(0,32,245);fill-rule:nonzero;"/>
        <rect x="307.6" y="202.8" width="6.4" height="6.4" style="fill:rgb(0,32,245);fill-rule:nonzero;"/>
        <rect x="282" y="215.6" width="6.4" height="6.4" style="fill:rgb(0,32,245);fill-rule:nonzero;"/>
        <rect x="294.8" y="215.6" width="6.4" height="6.4" style="fill:rgb(0,32,245);fill-rule:nonzero;"/>
        <rect x="307.6" y="215.6" width="6.4" height="6.4" style="fill:rgb(0,32,245);fill-rule:nonzero;"/>
        <path d="M298,269C306.837,269 314,261.837 314,253C314,244.163 306.837,237 298,237C289.163,237 282,244.163 282,253C282,261.837 289.163,269 298,269Z" style="fill:rgb(230,54,35);fill-rule:nonzero;"/>
        <path d="M16,363C24.837,363 32,355.837 32,347C32,338.163 24.837,331 16,331C7.163,331 0,338.163 0,347C0,355.837 7.163,363 16,363Z" style="fill:rgb(117,250,76);fill-rule:nonzero;"/>
        <path d="M16,352C18.761,352 21,349.761 21,347C21,344.239 18.761,342 16,342C13.239,342 11,344.239 11,347C11,349.761 13.239,352 16,352Z" style="fill-rule:nonzero;"/>
        <g transform="matrix(1,0,0,1,141,-281.83)">
            <path d="M16,363C24.837,363 32,355.837 32,347C32,338.163 24.837,331 16,331C7.163,331 0,338.163 0,347C0,355.837 7.163,363 16,363Z" style="fill:rgb(117,250,76);fill-rule:nonzero;"/>
        </g>
        <g transform="matrix(1,0,0,1,141,-281.83)">
            <path d="M16,352C18.761,352 21,349.761 21,347C21,344.239 18.761,342 16,342C13.239,342 11,344.239 11,347C11,349.761 13.239,352 16,352Z" style="fill-rule:nonzero;"/>
        </g>
        <path d="M204,363C212.837,363 220,355.837 220,347C220,338.163 212.837,331 204,331C195.163,331 188,338.163 188,347C188,355.837 195.163,363 204,363Z" style="fill:rgb(230,54,35);fill-rule:nonzero;"/>
        <rect x="49.4" y="332" width="3.9" height="31" style="fill:white;fill-rule:nonzero;"/>
        <rect x="60.6" y="332" width="3.9" height="31" style="fill:white;fill-rule:nonzero;"/>
        <rect x="72.7" y="332" width="3.9" height="31" style="fill:white;fill-rule:nonzero;"/>
        <rect x="47" y="342.7" width="8.7" height="2.9" style="fill:rgb(230,54,35);fill-rule:nonzero;"/>
        <rect x="58.2" y="352.8" width="8.7" height="2.9" style="fill:rgb(0,32,245);fill-rule:nonzero;"/>
        <rect x="70.3" y="335.9" width="8.7" height="2.9" style="fill:rgb(117,250,76);fill-rule:nonzero;"/>
        <path d="M298,316C306.837,316 314,308.837 314,300C314,291.163 306.837,284 298,284C289.163,284 282,291.163 282,300C282,308.837 289.163,316 298,316Z" style="fill:white;fill-rule:nonzero;"/>
        <path d="M204,316C195.2,316 188,308.8 188,300C188,291.2 195.2,284 204,284L251,284C259.8,284 267,291.2 267,300C267,308.8 259.8,316 251,316L204,316Z" style="fill:white;fill-rule:nonzero;"/>
        <path d="M204,316C212.837,316 220,308.837 220,300C220,291.163 212.837,284 204,284C195.163,284 188,291.163 188,300C188,308.837 195.163,316 204,316Z" style="fill:rgb(0,32,245);fill-rule:nonzero;"/>
        <path d="M251,316C259.837,316 267,308.837 267,300C267,291.163 259.837,284 251,284C242.163,284 235,291.163 235,300C235,308.837 242.163,316 251,316Z" style="fill:rgb(230,54,35);fill-rule:nonzero;"/>
        <path d="M251,305C253.761,305 256,302.761 256,300C256,297.239 253.761,295 251,295C248.239,295 246,297.239 246,300C246,302.761 248.239,305 251,305Z" style="fill-rule:nonzero;"/>
        <path d="M157,316C165.837,316 173,308.837 173,300C173,291.163 165.837,284 157,284C148.163,284 141,291.163 141,300C141,308.837 148.163,316 157,316Z" style="fill:rgb(117,250,76);fill-rule:nonzero;"/>
        <path d="M157,305C159.761,305 162,302.761 162,300C162,297.239 159.761,295 157,295C154.239,295 152,297.239 152,300C152,302.761 154.239,305 157,305Z" style="fill-rule:nonzero;"/>
        <path d="M251,143C259.8,143 267,150.2 267,159C267,167.8 259.8,175 251,175L204,175C195.2,175 188,167.8 188,159C188,150.2 195.2,143 204,143L251,143Z" style="fill:white;fill-rule:nonzero;"/>
        <path d="M251,175C259.837,175 267,167.837 267,159C267,150.163 259.837,143 251,143C242.163,143 235,150.163 235,159C235,167.837 242.163,175 251,175Z" style="fill:rgb(117,250,76);fill-rule:nonzero;"/>
        <path d="M204,175C212.837,175 220,167.837 220,159C220,150.163 212.837,143 204,143C195.163,143 188,150.163 188,159C188,167.837 195.163,175 204,175Z" style="fill:rgb(230,54,35);fill-rule:nonzero;"/>
        <path d="M314,159C314,159.4 313.7,159.6 313.4,159.6L308,159.6C307.6,159.6 307.4,159.3 307.4,159C307.4,158.6 307.7,158.4 308,158.4L313.4,158.4C313.7,158.4 314,158.6 314,159Z" style="fill:rgb(117,250,76);fill-rule:nonzero;"/>
        <path d="M288.7,159C288.7,159.4 288.4,159.6 288.1,159.6L282.6,159.6C282.2,159.6 282,159.3 282,159C282,158.6 282.3,158.4 282.6,158.4L288,158.4C288.4,158.4 288.7,158.6 288.7,159Z" style="fill:rgb(117,250,76);fill-rule:nonzero;"/>
        <path d="M298.6,169L298.6,174.4C298.6,174.8 298.3,175 298,175C297.6,175 297.4,174.7 297.4,174.4L297.4,169C297.4,168.6 297.7,168.4 298,168.4C298.4,168.3 298.6,168.6 298.6,169Z" style="fill:rgb(117,250,76);fill-rule:nonzero;"/>
        <path d="M298.6,143.6L298.6,149C298.6,149.4 298.3,149.6 298,149.6C297.6,149.6 297.4,149.3 297.4,149L297.4,143.6C297.4,143.2 297.7,143 298,143C298.4,143 298.6,143.3 298.6,143.6Z" style="fill:rgb(117,250,76);fill-rule:nonzero;"/>
        <path d="M304.3,173.3C304.3,173.6 304.1,173.8 303.9,173.9C303.6,174.1 303.2,173.8 303.1,173.5L301.1,168.5C300.9,168.2 301.2,167.8 301.5,167.7C301.8,167.5 302.2,167.8 302.3,168.1L304.3,173.1L304.3,173.3Z" style="fill:rgb(117,250,76);fill-rule:nonzero;"/>
        <path d="M295,149.7C295,150 294.8,150.2 294.6,150.3C294.3,150.5 293.9,150.2 293.8,149.9L291.8,144.9C291.6,144.6 291.9,144.2 292.2,144.1C292.5,144 292.9,144.2 293,144.5L295,149.5L295,149.7Z" style="fill:rgb(117,250,76);fill-rule:nonzero;"/>
        <path d="M312.7,165.3C312.7,165.4 312.7,165.5 312.6,165.6C312.4,165.9 312.1,166.1 311.8,165.9L306.9,163.7C306.6,163.5 306.4,163.2 306.6,162.9C306.8,162.6 307.1,162.4 307.4,162.6L312.3,164.8C312.5,164.8 312.7,165.1 312.7,165.3Z" style="fill:rgb(117,250,76);fill-rule:nonzero;"/>
        <path d="M289.6,154.9C289.6,155 289.6,155.1 289.5,155.2C289.3,155.5 289,155.7 288.7,155.5L283.7,153.3C283.4,153.1 283.2,152.8 283.4,152.5C283.6,152.2 283.9,152 284.2,152.2L289.1,154.4C289.4,154.5 289.6,154.7 289.6,154.9Z" style="fill:rgb(117,250,76);fill-rule:nonzero;"/>
        <path d="M309.2,170.2C309.2,170.4 309.1,170.6 309,170.7C308.7,171 308.3,170.9 308.1,170.6L304.4,166.7C304.1,166.4 304.1,166 304.4,165.8C304.7,165.5 305.1,165.6 305.3,165.8L309,169.8C309.1,169.9 309.2,170 309.2,170.2Z" style="fill:rgb(117,250,76);fill-rule:nonzero;"/>
        <path d="M291.8,151.7C291.8,151.9 291.7,152.1 291.6,152.2C291.3,152.5 290.9,152.4 290.7,152.1L287,148.1C286.7,147.9 286.8,147.5 287.1,147.3C287.4,147 287.7,147 288,147.3L291.7,151.3C291.8,151.4 291.8,151.6 291.8,151.7Z" style="fill:rgb(117,250,76);fill-rule:nonzero;"/>
        <path d="M295.1,168.3C295.1,168.4 295.1,168.5 295,168.5L293,173.5C292.9,173.8 292.5,174 292.2,173.9C291.9,173.8 291.7,173.4 291.8,173.1L293.8,168.1C293.9,167.8 294.3,167.6 294.6,167.7C294.9,167.8 295.1,168.1 295.1,168.3Z" style="fill:rgb(117,250,76);fill-rule:nonzero;"/>
        <path d="M304.1,144.6C304.1,144.7 304.1,144.8 304,144.8L302,149.8C301.9,150.1 301.5,150.3 301.2,150.2C300.9,150.1 300.7,149.7 300.8,149.4L302.8,144.4C302.9,144.1 303.3,143.9 303.6,144C304,144.1 304.1,144.4 304.1,144.6Z" style="fill:rgb(117,250,76);fill-rule:nonzero;"/>
        <path d="M291.6,166C291.6,166.2 291.5,166.3 291.4,166.5L287.5,170.3C287.2,170.6 286.8,170.6 286.6,170.3C286.3,170 286.3,169.6 286.6,169.4L290.4,165.6C290.7,165.3 291.1,165.3 291.3,165.6C291.5,165.7 291.6,165.9 291.6,166Z" style="fill:rgb(117,250,76);fill-rule:nonzero;"/>
        <path d="M309.5,148.1C309.5,148.3 309.4,148.4 309.3,148.6L305.4,152.4C305.1,152.7 304.7,152.7 304.5,152.4C304.3,152.1 304.2,151.7 304.5,151.5L308.4,147.7C308.7,147.4 309.1,147.4 309.3,147.7C309.5,147.8 309.5,148 309.5,148.1Z" style="fill:rgb(117,250,76);fill-rule:nonzero;"/>
        <path d="M289.5,162.8C289.5,163.1 289.3,163.3 289.1,163.4L284.1,165.5C283.8,165.7 283.4,165.5 283.3,165.1C283.1,164.8 283.3,164.4 283.7,164.3L288.7,162.2C289,162 289.4,162.2 289.5,162.6C289.4,162.7 289.5,162.7 289.5,162.8Z" style="fill:rgb(117,250,76);fill-rule:nonzero;"/>
        <path d="M312.9,153.1C312.9,153.4 312.7,153.6 312.5,153.7L307.5,155.8C307.2,156 306.8,155.8 306.7,155.4C306.5,155.1 306.7,154.7 307.1,154.6L312.1,152.5C312.4,152.3 312.8,152.5 312.9,152.9C312.8,153 312.9,153.1 312.9,153.1Z" style="fill:rgb(117,250,76);fill-rule:nonzero;"/>
        <path d="M16,410C7.2,410 0,402.8 0,394C0,385.2 7.2,378 16,378L63,378C71.8,378 79,385.2 79,394C79,402.8 71.8,410 63,410L16,410Z" style="fill:rgb(230,54,35);fill-rule:nonzero;"/>
        <path d="M16,410C24.837,410 32,402.837 32,394C32,385.163 24.837,378 16,378C7.163,378 0,385.163 0,394C0,402.837 7.163,410 16,410Z" style="fill:rgb(0,32,245);fill-rule:nonzero;"/>
        <path d="M63,410C71.837,410 79,402.837 79,394C79,385.163 71.837,378 63,378C54.163,378 47,385.163 47,394C47,402.837 54.163,410 63,410Z" style="fill:rgb(117,250,76);fill-rule:nonzero;"/>
        <rect x="94" y="378" width="6.4" height="6.4" style="fill:white;fill-rule:nonzero;"/>
        <rect x="106.8" y="378" width="6.4" height="6.4" style="fill:white;fill-rule:nonzero;"/>
        <rect x="119.6" y="378" width="6.4" height="6.4" style="fill:white;fill-rule:nonzero;"/>
        <rect x="94" y="390.8" width="6.4" height="6.4" style="fill:white;fill-rule:nonzero;"/>
        <rect x="106.8" y="390.8" width="6.4" height="6.4" style="fill:white;fill-rule:nonzero;"/>
        <rect x="119.6" y="390.8" width="6.4" height="6.4" style="fill:white;fill-rule:nonzero;"/>
        <rect x="94" y="403.6" width="6.4" height="6.4" style="fill:white;fill-rule:nonzero;"/>
        <rect x="106.8" y="403.6" width="6.4" height="6.4" style="fill:white;fill-rule:nonzero;"/>
        <rect x="119.6" y="403.6" width="6.4" height="6.4" style="fill:white;fill-rule:nonzero;"/>
        <path d="M204,378C212.8,378 220,385.2 220,394C220,402.8 212.8,410 204,410L157,410C148.2,410 141,402.8 141,394C141,385.2 148.2,378 157,378L204,378Z" style="fill:white;fill-rule:nonzero;"/>
        <path d="M157,410C165.837,410 173,402.837 173,394C173,385.163 165.837,378 157,378C148.163,378 141,385.163 141,394C141,402.837 148.163,410 157,410Z" style="fill:rgb(230,54,35);fill-rule:nonzero;"/>
        <path d="M157,399C159.761,399 162,396.761 162,394C162,391.239 159.761,389 157,389C154.239,389 152,391.239 152,394C152,396.761 154.239,399 157,399Z" style="fill-rule:nonzero;"/>
        <path d="M251,384.2C252.712,384.2 254.1,382.812 254.1,381.1C254.1,379.388 252.712,378 251,378C249.288,378 247.9,379.388 247.9,381.1C247.9,382.812 249.288,384.2 251,384.2Z" style="fill:rgb(230,54,35);fill-rule:nonzero;"/>
        <path d="M263.9,384.2C265.612,384.2 267,382.812 267,381.1C267,379.388 265.612,378 263.9,378C262.188,378 260.8,379.388 260.8,381.1C260.8,382.812 262.188,384.2 263.9,384.2Z" style="fill:rgb(230,54,35);fill-rule:nonzero;"/>
        <path d="M238.1,397.2C239.812,397.2 241.2,395.812 241.2,394.1C241.2,392.388 239.812,391 238.1,391C236.388,391 235,392.388 235,394.1C235,395.812 236.388,397.2 238.1,397.2Z" style="fill:rgb(230,54,35);fill-rule:nonzero;"/>
        <path d="M251,397.2C252.712,397.2 254.1,395.812 254.1,394.1C254.1,392.388 252.712,391 251,391C249.288,391 247.9,392.388 247.9,394.1C247.9,395.812 249.288,397.2 251,397.2Z" style="fill:rgb(230,54,35);fill-rule:nonzero;"/>
        <path d="M263.9,397.2C265.612,397.2 267,395.812 267,394.1C267,392.388 265.612,391 263.9,391C262.188,391 260.8,392.388 260.8,394.1C260.8,395.812 262.188,397.2 263.9,397.2Z" style="fill:rgb(230,54,35);fill-rule:nonzero;"/>
        <path d="M238.1,410C239.812,410 241.2,408.612 241.2,406.9C241.2,405.188 239.812,403.8 238.1,403.8C236.388,403.8 235,405.188 235,406.9C235,408.612 236.388,410 238.1,410Z" style="fill:rgb(230,54,35);fill-rule:nonzero;"/>
        <path d="M251,410C252.712,410 254.1,408.612 254.1,406.9C254.1,405.188 252.712,403.8 251,403.8C249.288,403.8 247.9,405.188 247.9,406.9C247.9,408.612 249.288,410 251,410Z" style="fill:rgb(230,54,35);fill-rule:nonzero;"/>
        <path d="M263.9,410C265.612,410 267,408.612 267,406.9C267,405.188 265.612,403.8 263.9,403.8C262.188,403.8 260.8,405.188 260.8,406.9C260.8,408.612 262.188,410 263.9,410Z" style="fill:rgb(230,54,35);fill-rule:nonzero;"/>
        <path d="M238.1,384.2C239.812,384.2 241.2,382.812 241.2,381.1C241.2,379.388 239.812,378 238.1,378C236.388,378 235,379.388 235,381.1C235,382.812 236.388,384.2 238.1,384.2Z" style="fill:rgb(230,54,35);fill-rule:nonzero;"/>
        <path d="M63,175C71.837,175 79,167.837 79,159C79,150.163 71.837,143 63,143C54.163,143 47,150.163 47,159C47,167.837 54.163,175 63,175Z" style="fill:white;fill-rule:nonzero;"/>
        <path d="M63,164C65.761,164 68,161.761 68,159C68,156.239 65.761,154 63,154C60.239,154 58,156.239 58,159C58,161.761 60.239,164 63,164Z" style="fill-rule:nonzero;"/>
        <path d="M146.3,343.6C149.227,343.6 151.6,341.227 151.6,338.3C151.6,335.373 149.227,333 146.3,333C143.373,333 141,335.373 141,338.3C141,341.227 143.373,343.6 146.3,343.6Z" style="fill:rgb(230,54,35);fill-rule:nonzero;"/>
        <path d="M167.7,343.6C170.627,343.6 173,341.227 173,338.3C173,335.373 170.627,333 167.7,333C164.773,333 162.4,335.373 162.4,338.3C162.4,341.227 164.773,343.6 167.7,343.6Z" style="fill:rgb(230,54,35);fill-rule:nonzero;"/>
        <path d="M146.3,362.5C149.227,362.5 151.6,360.128 151.6,357.2C151.6,354.273 149.227,351.9 146.3,351.9C143.373,351.9 141,354.273 141,357.2C141,360.128 143.373,362.5 146.3,362.5Z" style="fill:rgb(230,54,35);fill-rule:nonzero;"/>
        <path d="M167.7,362.5C170.627,362.5 173,360.128 173,357.2C173,354.273 170.627,351.9 167.7,351.9C164.773,351.9 162.4,354.273 162.4,357.2C162.4,360.128 164.773,362.5 167.7,362.5Z" style="fill:rgb(230,54,35);fill-rule:nonzero;"/>
        <g transform="matrix(0.58814,0,0,0.58814,-193.005,15.547)">
            <path d="M668.276,62.623C668.276,61.665 667.906,60.833 667.165,60.126C666.424,59.42 665.381,59.066 664.036,59.066C662.896,59.066 661.995,59.3 661.334,59.767C660.673,60.235 660.342,60.867 660.342,61.665C660.342,62.076 660.422,62.446 660.582,62.777C660.741,63.107 661.02,63.404 661.419,63.666C661.818,63.928 662.343,64.162 662.993,64.367C663.642,64.572 664.469,64.766 665.472,64.948C667.98,65.404 669.895,66.168 671.218,67.24C672.54,68.311 673.201,69.896 673.201,71.994L673.201,72.404C673.201,73.521 673.002,74.53 672.603,75.431C672.204,76.331 671.628,77.101 670.876,77.739C670.123,78.377 669.211,78.868 668.14,79.21C667.068,79.552 665.86,79.723 664.514,79.723C662.941,79.723 661.556,79.5 660.359,79.056C659.162,78.611 658.165,77.995 657.367,77.209C656.569,76.422 655.965,75.499 655.554,74.439C655.144,73.379 654.939,72.222 654.939,70.968L654.939,69.942L659.453,69.942L659.453,70.762C659.453,72.199 659.869,73.344 660.701,74.199C661.533,75.054 662.827,75.482 664.583,75.482C665.951,75.482 666.965,75.185 667.627,74.593C668.288,74 668.618,73.293 668.618,72.472C668.618,72.085 668.55,71.714 668.413,71.361C668.276,71.007 668.037,70.688 667.695,70.403C667.353,70.118 666.886,69.862 666.293,69.634C665.7,69.406 664.948,69.212 664.036,69.052C662.827,68.847 661.722,68.579 660.718,68.249C659.715,67.918 658.843,67.479 658.102,66.932C657.361,66.385 656.785,65.701 656.375,64.88C655.965,64.059 655.76,63.056 655.76,61.871L655.76,61.665C655.76,60.685 655.959,59.779 656.358,58.947C656.757,58.114 657.316,57.39 658.034,56.775C658.752,56.159 659.618,55.681 660.633,55.339C661.647,54.997 662.782,54.826 664.036,54.826C665.449,54.826 666.703,55.025 667.798,55.424C668.892,55.823 669.81,56.365 670.551,57.048C671.292,57.732 671.85,58.519 672.226,59.408C672.603,60.297 672.791,61.232 672.791,62.213L672.791,63.444L668.276,63.444L668.276,62.623Z" style="fill:white;fill-rule:nonzero;"/>
            <path d="M681.101,72.165C681.124,72.666 681.244,73.128 681.46,73.55C681.677,73.971 681.973,74.336 682.349,74.644C682.726,74.952 683.159,75.191 683.649,75.362C684.139,75.533 684.658,75.619 685.205,75.619C686.277,75.619 687.097,75.431 687.667,75.054C688.237,74.678 688.648,74.228 688.898,73.703L692.592,75.755C692.387,76.189 692.102,76.639 691.737,77.106C691.372,77.574 690.899,78.001 690.318,78.389C689.736,78.776 689.03,79.096 688.197,79.346C687.365,79.597 686.391,79.723 685.273,79.723C683.997,79.723 682.834,79.517 681.785,79.107C680.736,78.697 679.83,78.104 679.066,77.329C678.302,76.553 677.71,75.607 677.288,74.49C676.866,73.373 676.655,72.108 676.655,70.694L676.655,70.489C676.655,69.189 676.877,68.004 677.322,66.932C677.767,65.86 678.377,64.948 679.152,64.196C679.927,63.444 680.833,62.857 681.871,62.435C682.908,62.013 684.019,61.802 685.205,61.802C686.664,61.802 687.918,62.059 688.967,62.572C690.016,63.085 690.882,63.734 691.566,64.521C692.25,65.308 692.752,66.174 693.071,67.12C693.39,68.066 693.55,68.984 693.55,69.873L693.55,72.165L681.101,72.165ZM685.171,65.701C684.076,65.701 683.187,65.98 682.503,66.539C681.819,67.097 681.375,67.741 681.169,68.471L689.172,68.471C689.035,67.673 688.608,67.012 687.89,66.487C687.171,65.963 686.265,65.701 685.171,65.701Z" style="fill:white;fill-rule:nonzero;"/>
            <path d="M701.655,86.084L697.346,86.084L697.346,62.281L701.655,62.281L701.655,64.743L702.27,64.743C702.726,63.809 703.387,63.085 704.254,62.572C705.12,62.059 706.226,61.802 707.571,61.802C708.574,61.802 709.526,61.996 710.427,62.384C711.327,62.771 712.114,63.335 712.787,64.076C713.459,64.817 713.995,65.724 714.394,66.795C714.793,67.867 714.992,69.087 714.992,70.455L714.992,71.07C714.992,72.461 714.799,73.692 714.411,74.764C714.023,75.835 713.499,76.741 712.838,77.482C712.177,78.223 711.396,78.782 710.495,79.158C709.595,79.534 708.62,79.723 707.571,79.723C706.796,79.723 706.123,79.643 705.553,79.483C704.983,79.324 704.488,79.107 704.066,78.833C703.644,78.56 703.291,78.246 703.006,77.893C702.721,77.539 702.476,77.169 702.27,76.781L701.655,76.781L701.655,86.084ZM706.169,75.619C707.514,75.619 708.603,75.203 709.435,74.37C710.267,73.538 710.683,72.404 710.683,70.968L710.683,70.557C710.683,69.121 710.267,67.987 709.435,67.154C708.603,66.322 707.514,65.906 706.169,65.906C704.824,65.906 703.735,66.334 702.903,67.189C702.071,68.044 701.655,69.166 701.655,70.557L701.655,70.968C701.655,72.358 702.071,73.481 702.903,74.336C703.735,75.191 704.824,75.619 706.169,75.619Z" style="fill:white;fill-rule:nonzero;"/>
            <path d="M718.686,62.281L723.713,62.281L723.713,55.304L728.022,55.304L728.022,62.281L734.144,62.281L734.144,66.385L728.022,66.385L728.022,74.114C728.022,74.798 728.33,75.14 728.946,75.14L733.528,75.14L733.528,79.244L726.346,79.244C725.571,79.244 724.939,78.993 724.448,78.491C723.958,77.99 723.713,77.351 723.713,76.576L723.713,66.385L718.686,66.385L718.686,62.281Z" style="fill:white;fill-rule:nonzero;"/>
            <path d="M743.891,72.165C743.913,72.666 744.033,73.128 744.25,73.55C744.466,73.971 744.763,74.336 745.139,74.644C745.515,74.952 745.948,75.191 746.438,75.362C746.929,75.533 747.447,75.619 747.995,75.619C749.066,75.619 749.887,75.431 750.457,75.054C751.027,74.678 751.437,74.228 751.688,73.703L755.382,75.755C755.176,76.189 754.891,76.639 754.527,77.106C754.162,77.574 753.689,78.001 753.107,78.389C752.526,78.776 751.819,79.096 750.987,79.346C750.155,79.597 749.18,79.723 748.063,79.723C746.786,79.723 745.623,79.517 744.575,79.107C743.526,78.697 742.62,78.104 741.856,77.329C741.092,76.553 740.499,75.607 740.077,74.49C739.656,73.373 739.445,72.108 739.445,70.694L739.445,70.489C739.445,69.189 739.667,68.004 740.112,66.932C740.556,65.86 741.166,64.948 741.941,64.196C742.716,63.444 743.623,62.857 744.66,62.435C745.697,62.013 746.809,61.802 747.995,61.802C749.454,61.802 750.708,62.059 751.756,62.572C752.805,63.085 753.672,63.734 754.356,64.521C755.04,65.308 755.541,66.174 755.86,67.12C756.18,68.066 756.339,68.984 756.339,69.873L756.339,72.165L743.891,72.165ZM747.96,65.701C746.866,65.701 745.977,65.98 745.293,66.539C744.609,67.097 744.164,67.741 743.959,68.471L751.962,68.471C751.825,67.673 751.397,67.012 750.679,66.487C749.961,65.963 749.055,65.701 747.96,65.701Z" style="fill:white;fill-rule:nonzero;"/>
            <path d="M778.056,79.244L773.746,79.244L773.746,67.342C773.746,66.864 773.627,66.505 773.387,66.265C773.148,66.026 772.835,65.906 772.447,65.906C771.991,65.906 771.632,66.043 771.37,66.316C771.107,66.59 770.976,67 770.976,67.548L770.976,79.244L766.667,79.244L766.667,67.342C766.667,66.864 766.536,66.505 766.274,66.265C766.012,66.026 765.698,65.906 765.333,65.906C764.923,65.906 764.581,66.043 764.308,66.316C764.034,66.59 763.897,67 763.897,67.548L763.897,79.244L759.588,79.244L759.588,62.281L763.897,62.281L763.897,63.923L764.513,63.923C764.65,63.307 764.963,62.8 765.453,62.401C765.943,62.002 766.587,61.802 767.385,61.802C768.138,61.802 768.776,62.002 769.301,62.401C769.825,62.8 770.178,63.307 770.361,63.923L770.976,63.923C771.159,63.307 771.541,62.8 772.122,62.401C772.703,62.002 773.427,61.802 774.294,61.802C775.434,61.802 776.346,62.184 777.03,62.948C777.714,63.712 778.056,64.766 778.056,66.111L778.056,79.244Z" style="fill:white;fill-rule:nonzero;"/>
            <path d="M785.545,79.244L781.236,79.244L781.236,55.304L785.545,55.304L785.545,64.743L786.161,64.743C786.617,63.809 787.278,63.085 788.144,62.572C789.011,62.059 790.116,61.802 791.462,61.802C792.465,61.802 793.417,61.996 794.317,62.384C795.218,62.771 796.004,63.335 796.677,64.076C797.35,64.817 797.885,65.724 798.284,66.795C798.683,67.867 798.883,69.087 798.883,70.455L798.883,71.07C798.883,72.461 798.689,73.692 798.301,74.764C797.914,75.835 797.389,76.741 796.728,77.482C796.067,78.223 795.286,78.782 794.386,79.158C793.485,79.534 792.51,79.723 791.462,79.723C790.686,79.723 790.014,79.643 789.444,79.483C788.874,79.324 788.378,79.107 787.956,78.833C787.534,78.56 787.181,78.246 786.896,77.893C786.611,77.539 786.366,77.169 786.161,76.781L785.545,76.781L785.545,79.244ZM790.059,75.619C791.405,75.619 792.493,75.203 793.325,74.37C794.158,73.538 794.574,72.404 794.574,70.968L794.574,70.557C794.574,69.121 794.158,67.987 793.325,67.154C792.493,66.322 791.405,65.906 790.059,65.906C788.714,65.906 787.626,66.334 786.793,67.189C785.961,68.044 785.545,69.166 785.545,70.557L785.545,70.968C785.545,72.358 785.961,73.481 786.793,74.336C787.626,75.191 788.714,75.619 790.059,75.619Z" style="fill:white;fill-rule:nonzero;"/>
            <path d="M806.68,72.165C806.703,72.666 806.823,73.128 807.039,73.55C807.256,73.971 807.552,74.336 807.929,74.644C808.305,74.952 808.738,75.191 809.228,75.362C809.718,75.533 810.237,75.619 810.784,75.619C811.856,75.619 812.676,75.431 813.246,75.054C813.816,74.678 814.227,74.228 814.478,73.703L818.171,75.755C817.966,76.189 817.681,76.639 817.316,77.106C816.951,77.574 816.478,78.001 815.897,78.389C815.316,78.776 814.609,79.096 813.777,79.346C812.944,79.597 811.97,79.723 810.853,79.723C809.576,79.723 808.413,79.517 807.364,79.107C806.315,78.697 805.409,78.104 804.645,77.329C803.882,76.553 803.289,75.607 802.867,74.49C802.445,73.373 802.234,72.108 802.234,70.694L802.234,70.489C802.234,69.189 802.457,68.004 802.901,66.932C803.346,65.86 803.956,64.948 804.731,64.196C805.506,63.444 806.412,62.857 807.45,62.435C808.487,62.013 809.599,61.802 810.784,61.802C812.243,61.802 813.497,62.059 814.546,62.572C815.595,63.085 816.461,63.734 817.145,64.521C817.829,65.308 818.331,66.174 818.65,67.12C818.969,68.066 819.129,68.984 819.129,69.873L819.129,72.165L806.68,72.165ZM810.75,65.701C809.656,65.701 808.766,65.98 808.082,66.539C807.398,67.097 806.954,67.741 806.749,68.471L814.751,68.471C814.614,67.673 814.187,67.012 813.469,66.487C812.751,65.963 811.844,65.701 810.75,65.701Z" style="fill:white;fill-rule:nonzero;"/>
            <path d="M822.993,62.281L830.175,62.281L830.175,64.743L830.791,64.743C831.11,63.809 831.651,63.085 832.415,62.572C833.179,62.059 834.097,61.802 835.168,61.802C836.855,61.802 838.212,62.332 839.238,63.392C840.264,64.453 840.777,66.066 840.777,68.232L840.777,68.984L836.331,69.394L836.331,68.916C836.331,67.981 836.091,67.234 835.613,66.676C835.134,66.117 834.416,65.838 833.458,65.838C832.501,65.838 831.748,66.168 831.201,66.829C830.654,67.491 830.38,68.437 830.38,69.668L830.38,75.14L834.279,75.14L834.279,79.244L822.583,79.244L822.583,75.14L826.071,75.14L826.071,66.385L822.993,66.385L822.993,62.281Z" style="fill:white;fill-rule:nonzero;"/>
            <path d="M672.756,109.134L672.756,113.443L655.93,113.443L655.93,108.723C655.93,107.469 656.119,106.398 656.495,105.509C656.871,104.619 657.407,103.867 658.102,103.252C658.798,102.636 659.635,102.129 660.616,101.73C661.596,101.331 662.702,100.994 663.933,100.721C664.845,100.516 665.592,100.282 666.173,100.02C666.755,99.757 667.216,99.461 667.558,99.131C667.9,98.8 668.134,98.435 668.259,98.036C668.385,97.637 668.447,97.187 668.447,96.685C668.447,95.728 668.1,94.93 667.404,94.291C666.709,93.653 665.746,93.334 664.514,93.334C663.215,93.334 662.178,93.727 661.402,94.514C660.627,95.3 660.24,96.389 660.24,97.78L660.24,99.284L655.725,99.284L655.725,97.369C655.725,96.252 655.925,95.186 656.324,94.172C656.723,93.157 657.293,92.268 658.034,91.504C658.775,90.74 659.681,90.136 660.753,89.692C661.824,89.247 663.033,89.025 664.378,89.025C665.814,89.025 667.068,89.236 668.14,89.657C669.211,90.079 670.106,90.632 670.824,91.316C671.542,92 672.078,92.792 672.432,93.693C672.785,94.593 672.962,95.523 672.962,96.48L672.962,96.89C672.962,98.897 672.397,100.561 671.269,101.884C670.14,103.206 668.299,104.163 665.746,104.756C664.674,105.007 663.791,105.264 663.095,105.526C662.4,105.788 661.858,106.079 661.471,106.398C661.083,106.717 660.815,107.065 660.667,107.441C660.519,107.817 660.445,108.245 660.445,108.723L660.445,109.134L672.756,109.134Z" style="fill:white;fill-rule:nonzero;"/>
            <path d="M676.895,102.773L676.895,89.503L692.9,89.503L692.9,93.813L681.409,93.813L681.409,100.31L682.024,100.31C682.344,99.421 682.942,98.652 683.82,98.002C684.698,97.352 685.878,97.027 687.359,97.027C688.477,97.027 689.48,97.221 690.369,97.609C691.258,97.996 692.011,98.532 692.626,99.216C693.242,99.9 693.715,100.721 694.045,101.678C694.376,102.636 694.541,103.685 694.541,104.825L694.541,105.03C694.541,106.238 694.342,107.378 693.943,108.45C693.544,109.521 692.962,110.462 692.199,111.271C691.435,112.081 690.494,112.725 689.377,113.203C688.26,113.682 686.972,113.922 685.513,113.922C684.054,113.922 682.765,113.722 681.648,113.323C680.531,112.924 679.591,112.366 678.827,111.647C678.063,110.929 677.482,110.074 677.083,109.082C676.684,108.091 676.484,107.013 676.484,105.851L676.484,105.03L680.998,105.03L680.998,105.44C680.998,106.649 681.369,107.646 682.11,108.433C682.851,109.219 683.94,109.613 685.376,109.613C686.812,109.613 687.947,109.225 688.779,108.45C689.611,107.675 690.027,106.603 690.027,105.235C690.027,103.935 689.719,102.961 689.104,102.311C688.488,101.661 687.679,101.336 686.676,101.336C686.014,101.336 685.479,101.479 685.068,101.764C684.658,102.049 684.396,102.385 684.282,102.773L676.895,102.773Z" style="fill:white;fill-rule:nonzero;"/>
            <rect x="700.697" y="102.089" width="10.67" height="3.899" style="fill:white;fill-rule:nonzero;"/>
            <path d="M735.546,109.134L735.546,113.443L718.72,113.443L718.72,108.723C718.72,107.469 718.908,106.398 719.284,105.509C719.661,104.619 720.196,103.867 720.892,103.252C721.587,102.636 722.425,102.129 723.405,101.73C724.386,101.331 725.492,100.994 726.723,100.721C727.635,100.516 728.381,100.282 728.963,100.02C729.544,99.757 730.006,99.461 730.348,99.131C730.69,98.8 730.923,98.435 731.049,98.036C731.174,97.637 731.237,97.187 731.237,96.685C731.237,95.728 730.889,94.93 730.194,94.291C729.499,93.653 728.535,93.334 727.304,93.334C726.005,93.334 724.967,93.727 724.192,94.514C723.417,95.3 723.029,96.389 723.029,97.78L723.029,99.284L718.515,99.284L718.515,97.369C718.515,96.252 718.714,95.186 719.113,94.172C719.512,93.157 720.082,92.268 720.823,91.504C721.564,90.74 722.471,90.136 723.542,89.692C724.614,89.247 725.822,89.025 727.167,89.025C728.604,89.025 729.858,89.236 730.929,89.657C732.001,90.079 732.896,90.632 733.614,91.316C734.332,92 734.868,92.792 735.221,93.693C735.575,94.593 735.751,95.523 735.751,96.48L735.751,96.89C735.751,98.897 735.187,100.561 734.058,101.884C732.93,103.206 731.089,104.163 728.535,104.756C727.464,105.007 726.58,105.264 725.885,105.526C725.189,105.788 724.648,106.079 724.26,106.398C723.873,106.717 723.605,107.065 723.457,107.441C723.308,107.817 723.234,108.245 723.234,108.723L723.234,109.134L735.546,109.134Z" style="fill:white;fill-rule:nonzero;"/>
            <path d="M751.483,96.275C751.483,95.477 751.192,94.787 750.611,94.206C750.029,93.624 749.123,93.334 747.892,93.334C746.661,93.334 745.686,93.693 744.968,94.411C744.25,95.129 743.891,96.07 743.891,97.232L743.891,100.31L744.506,100.31C744.894,99.512 745.521,98.868 746.387,98.378C747.254,97.888 748.234,97.643 749.328,97.643C750.309,97.643 751.232,97.82 752.098,98.173C752.965,98.526 753.717,99.028 754.356,99.678C754.994,100.327 755.496,101.12 755.86,102.055C756.225,102.989 756.408,104.049 756.408,105.235L756.408,105.645C756.408,106.854 756.208,107.965 755.809,108.98C755.41,109.994 754.84,110.867 754.099,111.596C753.358,112.326 752.463,112.896 751.414,113.306C750.366,113.716 749.192,113.922 747.892,113.922C746.706,113.922 745.595,113.728 744.558,113.34C743.52,112.953 742.62,112.411 741.856,111.716C741.092,111.02 740.488,110.188 740.043,109.219C739.599,108.25 739.376,107.184 739.376,106.022L739.376,97.301C739.376,96.047 739.604,94.907 740.06,93.881C740.516,92.855 741.132,91.983 741.907,91.265C742.682,90.547 743.577,89.994 744.592,89.606C745.606,89.218 746.684,89.025 747.824,89.025C748.964,89.025 750.029,89.19 751.021,89.521C752.013,89.851 752.879,90.33 753.62,90.957C754.361,91.584 754.943,92.348 755.364,93.248C755.786,94.149 755.997,95.158 755.997,96.275L751.483,96.275ZM747.892,109.613C749.055,109.613 750.012,109.265 750.765,108.569C751.517,107.874 751.893,106.945 751.893,105.782C751.893,104.619 751.517,103.69 750.765,102.995C750.012,102.3 749.055,101.952 747.892,101.952C746.729,101.952 745.772,102.3 745.019,102.995C744.267,103.69 743.891,104.619 743.891,105.782C743.891,106.945 744.267,107.874 745.019,108.569C745.772,109.265 746.729,109.613 747.892,109.613Z" style="fill:white;fill-rule:nonzero;"/>
            <path d="M798.336,109.134L798.336,113.443L781.51,113.443L781.51,108.723C781.51,107.469 781.698,106.398 782.074,105.509C782.45,104.619 782.986,103.867 783.681,103.252C784.377,102.636 785.215,102.129 786.195,101.73C787.175,101.331 788.281,100.994 789.512,100.721C790.424,100.516 791.171,100.282 791.752,100.02C792.334,99.757 792.795,99.461 793.137,99.131C793.479,98.8 793.713,98.435 793.838,98.036C793.964,97.637 794.027,97.187 794.027,96.685C794.027,95.728 793.679,94.93 792.983,94.291C792.288,93.653 791.325,93.334 790.094,93.334C788.794,93.334 787.757,93.727 786.982,94.514C786.206,95.3 785.819,96.389 785.819,97.78L785.819,99.284L781.304,99.284L781.304,97.369C781.304,96.252 781.504,95.186 781.903,94.172C782.302,93.157 782.872,92.268 783.613,91.504C784.354,90.74 785.26,90.136 786.332,89.692C787.403,89.247 788.612,89.025 789.957,89.025C791.393,89.025 792.647,89.236 793.719,89.657C794.79,90.079 795.685,90.632 796.403,91.316C797.122,92 797.657,92.792 798.011,93.693C798.364,94.593 798.541,95.523 798.541,96.48L798.541,96.89C798.541,98.897 797.977,100.561 796.848,101.884C795.719,103.206 793.878,104.163 791.325,104.756C790.253,105.007 789.37,105.264 788.674,105.526C787.979,105.788 787.438,106.079 787.05,106.398C786.662,106.717 786.394,107.065 786.246,107.441C786.098,107.817 786.024,108.245 786.024,108.723L786.024,109.134L798.336,109.134Z" style="fill:white;fill-rule:nonzero;"/>
            <path d="M807.809,101.473C807.809,100.698 808.094,100.025 808.664,99.455C809.234,98.885 809.906,98.6 810.682,98.6C811.457,98.6 812.129,98.885 812.699,99.455C813.269,100.025 813.554,100.698 813.554,101.473C813.554,102.248 813.269,102.921 812.699,103.491C812.129,104.061 811.457,104.346 810.682,104.346C809.906,104.346 809.234,104.061 808.664,103.491C808.094,102.921 807.809,102.248 807.809,101.473ZM801.858,98.806C801.858,95.705 802.639,93.3 804.201,91.59C805.763,89.88 807.923,89.025 810.682,89.025C813.44,89.025 815.601,89.88 817.162,91.59C818.724,93.3 819.505,95.705 819.505,98.806L819.505,104.141C819.505,107.333 818.724,109.761 817.162,111.425C815.601,113.089 813.44,113.922 810.682,113.922C807.923,113.922 805.763,113.089 804.201,111.425C802.639,109.761 801.858,107.333 801.858,104.141L801.858,98.806ZM810.682,109.818C811.502,109.818 812.186,109.687 812.733,109.424C813.281,109.162 813.725,108.792 814.067,108.313C814.409,107.834 814.649,107.264 814.785,106.603C814.922,105.942 814.991,105.212 814.991,104.414L814.991,98.532C814.991,97.78 814.911,97.073 814.751,96.412C814.592,95.75 814.341,95.181 813.999,94.702C813.657,94.223 813.212,93.841 812.665,93.556C812.118,93.271 811.457,93.129 810.682,93.129C809.906,93.129 809.245,93.271 808.698,93.556C808.151,93.841 807.706,94.223 807.364,94.702C807.022,95.181 806.771,95.75 806.612,96.412C806.452,97.073 806.372,97.78 806.372,98.532L806.372,104.414C806.372,105.212 806.441,105.942 806.578,106.603C806.714,107.264 806.954,107.834 807.296,108.313C807.638,108.792 808.082,109.162 808.63,109.424C809.177,109.687 809.861,109.818 810.682,109.818Z" style="fill:white;fill-rule:nonzero;"/>
            <path d="M840.195,109.134L840.195,113.443L823.369,113.443L823.369,108.723C823.369,107.469 823.558,106.398 823.934,105.509C824.31,104.619 824.846,103.867 825.541,103.252C826.236,102.636 827.074,102.129 828.055,101.73C829.035,101.331 830.141,100.994 831.372,100.721C832.284,100.516 833.031,100.282 833.612,100.02C834.193,99.757 834.655,99.461 834.997,99.131C835.339,98.8 835.573,98.435 835.698,98.036C835.824,97.637 835.886,97.187 835.886,96.685C835.886,95.728 835.539,94.93 834.843,94.291C834.148,93.653 833.185,93.334 831.953,93.334C830.654,93.334 829.616,93.727 828.841,94.514C828.066,95.3 827.679,96.389 827.679,97.78L827.679,99.284L823.164,99.284L823.164,97.369C823.164,96.252 823.364,95.186 823.763,94.172C824.162,93.157 824.732,92.268 825.473,91.504C826.214,90.74 827.12,90.136 828.191,89.692C829.263,89.247 830.471,89.025 831.817,89.025C833.253,89.025 834.507,89.236 835.578,89.657C836.65,90.079 837.545,90.632 838.263,91.316C838.981,92 839.517,92.792 839.87,93.693C840.224,94.593 840.401,95.523 840.401,96.48L840.401,96.89C840.401,98.897 839.836,100.561 838.708,101.884C837.579,103.206 835.738,104.163 833.185,104.756C832.113,105.007 831.23,105.264 830.534,105.526C829.839,105.788 829.297,106.079 828.91,106.398C828.522,106.717 828.254,107.065 828.106,107.441C827.958,107.817 827.884,108.245 827.884,108.723L827.884,109.134L840.195,109.134Z" style="fill:white;fill-rule:nonzero;"/>
            <path d="M850.011,89.503L858.56,89.503L858.56,104.619L862.049,104.619L862.049,108.929L858.56,108.929L858.56,113.443L854.046,113.443L854.046,108.929L843.376,108.929L843.376,102.704L850.011,89.503ZM847.275,104.004L847.275,104.619L854.046,104.619L854.046,91.761L853.43,91.761L847.275,104.004Z" style="fill:white;fill-rule:nonzero;"/>
        </g>
    </g>
</svg>
