<svg width="899" height="617" viewBox="0 0 899 617" fill="none" xmlns="http://www.w3.org/2000/svg">
<g clip-path="url(#clip0_1176_3167)">
<path d="M33.5 244C51.1731 244 65.5 229.673 65.5 212C65.5 194.327 51.1731 180 33.5 180C15.8269 180 1.5 194.327 1.5 212C1.5 229.673 15.8269 244 33.5 244Z" fill="white"/>
<path d="M33.5 330C51.1731 330 65.5 315.673 65.5 298C65.5 280.327 51.1731 266 33.5 266C15.8269 266 1.5 280.327 1.5 298C1.5 315.673 15.8269 330 33.5 330Z" fill="#75FA4C"/>
<path d="M207.5 330C225.173 330 239.5 315.673 239.5 298C239.5 280.327 225.173 266 207.5 266C189.827 266 175.5 280.327 175.5 298C175.5 315.673 189.827 330 207.5 330Z" fill="#75FA4C"/>
<path d="M584.5 154C602.173 154 616.5 139.673 616.5 122C616.5 104.327 602.173 90 584.5 90C566.827 90 552.5 104.327 552.5 122C552.5 139.673 566.827 154 584.5 154Z" fill="#75FA4C"/>
<path d="M33.5 614C51.1731 614 65.5 599.673 65.5 582C65.5 564.327 51.1731 550 33.5 550C15.8269 550 1.5 564.327 1.5 582C1.5 599.673 15.8269 614 33.5 614Z" fill="white"/>
<path d="M33.5 515C51.1731 515 65.5 500.673 65.5 483C65.5 465.327 51.1731 451 33.5 451C15.8269 451 1.5 465.327 1.5 483C1.5 500.673 15.8269 515 33.5 515Z" fill="#0020F5"/>
<path d="M768.5 242C786.173 242 800.5 227.673 800.5 210C800.5 192.327 786.173 178 768.5 178C750.827 178 736.5 192.327 736.5 210C736.5 227.673 750.827 242 768.5 242Z" fill="#E63623"/>
<path d="M687.5 64C705.173 64 719.5 49.6731 719.5 32C719.5 14.3269 705.173 0 687.5 0C669.827 0 655.5 14.3269 655.5 32C655.5 49.6731 669.827 64 687.5 64Z" fill="#0020F5"/>
<path d="M490.5 154C508.173 154 522.5 139.673 522.5 122C522.5 104.327 508.173 90 490.5 90C472.827 90 458.5 104.327 458.5 122C458.5 139.673 472.827 154 490.5 154Z" fill="white"/>
<path d="M129.6 142.2H109.4L106.5 155H94.8L109 95.5H130L144.2 155H132.5L129.6 142.2ZM111.8 131.5H127.2L120.3 101.1H118.8L111.8 131.5Z" fill="white"/>
<path d="M100.4 180.5H111.6V229.3H138.6V240H100.4C100.4 240 100.4 180.5 100.4 180.5Z" fill="white"/>
<path d="M103.4 268.5H114.6V317.3H141.6V328H103.3L103.4 268.5Z" fill="white"/>
<path d="M678.6 297.9H704.1V328H693.9V321.4H692.4C691.7 323.6 690.4 325.5 688.5 327C686.6 328.5 683.7 329.2 679.8 329.2C677.1 329.2 674.5 328.7 672.1 327.7C669.7 326.7 667.7 325.2 665.9 323.2C664.1 321.2 662.8 318.7 661.7 315.7C660.7 312.7 660.2 309.2 660.2 305.2V291.3C660.2 287.4 660.7 284 661.8 281.1C662.9 278.1 664.5 275.6 666.4 273.5C668.4 271.5 670.7 269.9 673.5 268.9C676.2 267.8 679.2 267.3 682.5 267.3C685.9 267.3 688.9 267.9 691.6 269C694.3 270.1 696.5 271.6 698.4 273.6C700.3 275.5 701.7 277.8 702.6 280.5C703.6 283.1 704 285.9 704 288.9V289.9H692.8V288.9C692.8 285.3 691.9 282.6 690 280.8C688.2 278.9 685.6 278 682.3 278C679.1 278 676.5 279.1 674.5 281.2C672.5 283.3 671.4 286.9 671.4 292.1V304.7C671.4 313.9 675.1 318.5 682.6 318.5C685.9 318.5 688.5 317.6 690.2 315.9C692 314.1 692.8 311.7 692.8 308.7H678.5V297.9H678.6Z" fill="white"/>
<path d="M761.3 298.2C761.3 296.3 762 294.6 763.4 293.2C764.8 291.8 766.5 291.1 768.4 291.1C770.3 291.1 772 291.8 773.4 293.2C774.8 294.6 775.5 296.3 775.5 298.2C775.5 300.1 774.8 301.8 773.4 303.2C772 304.6 770.3 305.3 768.4 305.3C766.5 305.3 764.8 304.6 763.4 303.2C762.1 301.8 761.3 300.2 761.3 298.2ZM746.6 291.6C746.6 283.9 748.5 277.9 752.4 273.7C756.3 269.5 761.7 267.3 768.6 267.3C775.5 267.3 780.8 269.4 784.7 273.7C788.6 277.9 790.6 283.9 790.6 291.6V304.9C790.6 312.8 788.6 318.9 784.7 323C780.8 327.1 775.5 329.2 768.6 329.2C761.7 329.2 756.4 327.1 752.4 323C748.5 318.9 746.6 312.8 746.6 304.9V291.6ZM768.5 319C770.5 319 772.2 318.7 773.6 318.1C775 317.4 776.1 316.5 776.9 315.3C777.8 314.1 778.3 312.7 778.7 311.1C779 309.5 779.2 307.6 779.2 305.7V291.1C779.2 289.2 779 287.5 778.6 285.8C778.2 284.2 777.6 282.7 776.7 281.6C775.9 280.4 774.7 279.5 773.4 278.8C772 278.1 770.4 277.7 768.5 277.7C766.6 277.7 764.9 278.1 763.6 278.8C762.2 279.5 761.1 280.4 760.3 281.6C759.5 282.8 758.8 284.2 758.4 285.8C758 287.4 757.8 289.2 757.8 291.1V305.7C757.8 307.7 758 309.5 758.3 311.1C758.6 312.7 759.2 314.2 760.1 315.3C760.9 316.5 762.1 317.4 763.4 318.1C764.7 318.7 766.4 319 768.5 319Z" fill="white"/>
<path d="M868.1 267.5V309H856.9V267.5H868.1ZM870.6 320.1C870.6 321.2 870.4 322.3 869.9 323.3C869.5 324.3 868.9 325.1 868.2 325.8C867.5 326.5 866.6 327 865.6 327.4C864.6 327.9 863.6 328.1 862.5 328.1C861.4 328.1 860.3 327.9 859.4 327.4C858.4 327 857.6 326.5 856.9 325.8C856.2 325.1 855.6 324.2 855.1 323.3C854.7 322.3 854.5 321.2 854.5 320.1C854.5 319 854.7 317.9 855.1 317C855.6 316 856.1 315.1 856.9 314.5C857.6 313.8 858.5 313.2 859.4 312.8C860.4 312.3 861.4 312.1 862.5 312.1C863.6 312.1 864.6 312.3 865.6 312.8C866.6 313.2 867.5 313.8 868.2 314.5C868.9 315.2 869.5 316 869.9 317C870.3 317.9 870.6 319 870.6 320.1Z" fill="white"/>
<path d="M129.7 378.7C129.7 376.3 128.8 374.3 126.9 372.5C125.1 370.7 122.5 369.9 119.2 369.9C116.4 369.9 114.1 370.5 112.5 371.7C110.9 372.8 110 374.4 110 376.4C110 377.4 110.2 378.4 110.6 379.2C111 380 111.7 380.7 112.6 381.4C113.6 382 114.9 382.6 116.5 383.1C118.1 383.6 120.2 384.1 122.7 384.5C128.9 385.6 133.7 387.5 137 390.2C140.3 392.9 141.9 396.8 141.9 402V403C141.9 405.8 141.4 408.3 140.4 410.6C139.4 412.8 138 414.7 136.2 416.3C134.3 417.9 132.1 419.1 129.4 420C126.7 420.9 123.7 421.3 120.4 421.3C116.5 421.3 113 420.8 110 419.7C107.1 418.6 104.6 417 102.6 415.1C100.6 413.1 99.1 410.8 98.1 408.2C97.1 405.5 96.6 402.6 96.6 399.5V397H107.8V399C107.8 402.6 108.8 405.4 110.9 407.6C113 409.7 116.2 410.7 120.6 410.7C124 410.7 126.5 410 128.2 408.5C129.8 407 130.7 405.3 130.7 403.2C130.7 402.2 130.5 401.3 130.2 400.5C129.9 399.6 129.3 398.8 128.4 398.1C127.5 397.4 126.4 396.7 124.9 396.1C123.4 395.5 121.6 395.1 119.3 394.7C116.3 394.2 113.5 393.5 111.1 392.7C108.6 391.8 106.4 390.7 104.6 389.4C102.8 388 101.4 386.3 100.4 384.3C99.4 382.3 98.9 379.8 98.9 376.8V376.3C98.9 373.9 99.4 371.6 100.3 369.6C101.3 367.5 102.7 365.7 104.5 364.2C106.3 362.7 108.5 361.5 111 360.6C113.5 359.7 116.4 359.3 119.5 359.3C123 359.3 126.1 359.8 128.9 360.8C131.6 361.8 133.9 363.1 135.7 364.8C137.6 366.5 139 368.5 139.9 370.7C140.9 372.9 141.3 375.2 141.3 377.7V380.8H130.1V378.7H129.7Z" fill="white"/>
<path d="M201.9 399.1H199.3L182.2 360.5H194.4L206.6 388.9H208.1L220.3 360.5H232.5L215.4 399.1H212.8V420H201.6V399.1H201.9Z" fill="white"/>
<path d="M308.7 378.7C308.7 376.3 307.8 374.3 305.9 372.5C304.1 370.7 301.5 369.9 298.2 369.9C295.4 369.9 293.1 370.5 291.5 371.7C289.9 372.8 289 374.4 289 376.4C289 377.4 289.2 378.4 289.6 379.2C290 380 290.7 380.7 291.6 381.4C292.6 382 293.9 382.6 295.5 383.1C297.1 383.6 299.2 384.1 301.7 384.5C307.9 385.6 312.7 387.5 316 390.2C319.3 392.9 320.9 396.8 320.9 402V403C320.9 405.8 320.4 408.3 319.4 410.6C318.4 412.8 317 414.7 315.2 416.3C313.3 417.9 311.1 419.1 308.4 420C305.7 420.9 302.7 421.3 299.4 421.3C295.5 421.3 292 420.8 289 419.7C286.1 418.6 283.6 417 281.6 415.1C279.6 413.1 278.1 410.8 277.1 408.2C276.1 405.5 275.6 402.6 275.6 399.5V397H286.8V399C286.8 402.6 287.8 405.4 289.9 407.6C292 409.7 295.2 410.7 299.6 410.7C303 410.7 305.5 410 307.2 408.5C308.9 407 309.7 405.3 309.7 403.2C309.7 402.2 309.5 401.3 309.2 400.5C308.9 399.6 308.3 398.8 307.4 398.1C306.5 397.4 305.4 396.7 303.9 396.1C302.4 395.5 300.6 395.1 298.3 394.7C295.3 394.2 292.5 393.5 290.1 392.7C287.6 391.8 285.4 390.7 283.6 389.4C281.8 388 280.4 386.3 279.4 384.3C278.4 382.3 277.9 379.8 277.9 376.8V376.3C277.9 373.9 278.4 371.6 279.3 369.6C280.3 367.5 281.7 365.7 283.5 364.2C285.3 362.7 287.5 361.5 290 360.6C292.5 359.7 295.4 359.3 298.5 359.3C302 359.3 305.1 359.8 307.9 360.8C310.6 361.8 312.9 363.1 314.7 364.8C316.6 366.5 318 368.5 318.9 370.7C319.9 372.9 320.3 375.2 320.3 377.7V380.8H309.1V378.7H308.7Z" fill="white"/>
<path d="M374.1 360.5H416.9V371.2H401.1V420H389.9V371.2H374.1V360.5Z" fill="white"/>
<path d="M474.4 360.5H512V371.2H485.7V384.8H511V395.5H485.7V409.3H513V420H474.4V360.5Z" fill="white"/>
<path d="M560.3 360.5H580L583.4 405.2V413.9H585.4V405.2L588.8 360.5H608.5V420H598.3V380.2L599.3 366.6H597.3L593 420H576.2L571.6 366.6H569.6L570.6 380.2V420H560.4V360.5H560.3Z" fill="white"/>
<path d="M692.7 378.7C692.7 376.3 691.8 374.3 689.9 372.5C688.1 370.7 685.5 369.9 682.2 369.9C679.4 369.9 677.1 370.5 675.5 371.7C673.9 372.8 673 374.4 673 376.4C673 377.4 673.2 378.4 673.6 379.2C674 380 674.7 380.7 675.6 381.4C676.6 382 677.9 382.6 679.5 383.1C681.1 383.6 683.2 384.1 685.7 384.5C691.9 385.6 696.7 387.5 700 390.2C703.3 392.9 704.9 396.8 704.9 402V403C704.9 405.8 704.4 408.3 703.4 410.6C702.4 412.8 701 414.7 699.2 416.3C697.3 417.9 695.1 419.1 692.4 420C689.7 420.9 686.7 421.3 683.4 421.3C679.5 421.3 676 420.8 673 419.7C670.1 418.6 667.6 417 665.6 415.1C663.6 413.1 662.1 410.8 661.1 408.2C660.1 405.5 659.6 402.6 659.6 399.5V397H670.8V399C670.8 402.6 671.8 405.4 673.9 407.6C676 409.7 679.2 410.7 683.6 410.7C687 410.7 689.5 410 691.2 408.5C692.9 407 693.7 405.3 693.7 403.2C693.7 402.2 693.5 401.3 693.2 400.5C692.9 399.6 692.3 398.8 691.4 398.1C690.6 397.4 689.4 396.7 687.9 396.1C686.4 395.5 684.6 395.1 682.3 394.7C679.3 394.2 676.5 393.5 674.1 392.7C671.6 391.8 669.4 390.7 667.6 389.4C665.8 388 664.4 386.3 663.4 384.3C662.4 382.3 661.9 379.8 661.9 376.8V376.3C661.9 373.9 662.4 371.6 663.3 369.6C664.3 367.5 665.7 365.7 667.5 364.2C669.3 362.7 671.5 361.5 674 360.6C676.6 359.7 679.4 359.3 682.5 359.3C686 359.3 689.1 359.8 691.9 360.8C694.6 361.8 696.9 363.1 698.7 364.8C700.6 366.5 702 368.5 702.9 370.7C703.9 372.9 704.3 375.2 704.3 377.7V380.8H693.1V378.7H692.7Z" fill="white"/>
<path d="M243.5 481C243.5 481.8 242.8 482.4 242.1 482.4H230.3C229.5 482.4 228.9 481.7 228.9 481C228.9 480.2 229.6 479.6 230.3 479.6H242.1C242.9 479.6 243.5 480.2 243.5 481Z" fill="#EE2524"/>
<path d="M188.1 481C188.1 481.8 187.4 482.4 186.7 482.4H174.8C174 482.4 173.4 481.7 173.4 481C173.4 480.2 174.1 479.6 174.8 479.6H186.6C187.5 479.6 188.1 480.2 188.1 481Z" fill="#EE2524"/>
<path d="M209.9 502.8V514.6C209.9 515.4 209.2 515.9 208.5 515.9C207.7 515.9 207.1 515.2 207.1 514.6V502.8C207.1 502 207.8 501.4 208.5 501.4C209.3 501.4 209.9 502 209.9 502.8Z" fill="#EE2524"/>
<path d="M209.9 447.4V459.2C209.9 460 209.2 460.6 208.5 460.6C207.7 460.6 207.1 459.9 207.1 459.2V447.4C207.1 446.6 207.8 446 208.5 446C209.3 446 209.9 446.7 209.9 447.4Z" fill="#EE2524"/>
<path d="M222.2 512.3C222.2 512.9 221.9 513.4 221.3 513.7C220.6 514 219.7 513.6 219.5 512.9L215.1 501.9C214.8 501.2 215.2 500.3 215.9 500.1C216.6 499.8 217.5 500.2 217.7 500.9L222.1 511.9C222.2 511.9 222.2 512.1 222.2 512.3Z" fill="#EE2524"/>
<path d="M201.9 460.7C201.9 461.3 201.6 461.8 201 462C200.3 462.3 199.4 461.9 199.2 461.2L194.9 450.2C194.6 449.5 195 448.6 195.7 448.4C196.4 448.2 197.3 448.5 197.5 449.2L201.9 460.2C201.9 460.4 201.9 460.6 201.9 460.7Z" fill="#EE2524"/>
<path d="M240.6 494.7C240.6 494.9 240.6 495 240.5 495.3C240.2 496 239.4 496.3 238.7 496L227.9 491.2C227.2 490.9 226.9 490.1 227.2 489.4C227.5 488.7 228.3 488.4 229 488.7L239.8 493.5C240.2 493.7 240.6 494.3 240.6 494.7Z" fill="#EE2524"/>
<path d="M190 472.1C190 472.3 190 472.4 189.9 472.7C189.6 473.4 188.8 473.7 188.1 473.4L177.2 468.6C176.5 468.3 176.2 467.5 176.5 466.8C176.8 466.1 177.6 465.8 178.3 466.1L189.1 470.9C189.7 471.1 190 471.5 190 472.1Z" fill="#EE2524"/>
<path d="M232.9 505.4C232.9 505.7 232.8 506.2 232.4 506.4C231.8 507 230.9 506.9 230.4 506.3L222.4 497.7C221.8 497.1 221.8 496.2 222.4 495.8C223 495.2 223.9 495.3 224.4 495.8L232.5 504.5C232.8 504.7 232.9 505.1 232.9 505.4Z" fill="#EE2524"/>
<path d="M195 465.1C195 465.4 194.9 465.9 194.6 466.1C194 466.7 193.1 466.6 192.6 466L184.5 457.3C183.9 456.8 184.1 455.9 184.6 455.5C185.2 454.9 185.9 454.9 186.5 455.5L194.6 464.2C194.9 464.5 195 464.8 195 465.1Z" fill="#EE2524"/>
<path d="M202.1 501.4C202.1 501.5 202.1 501.7 202 501.9L197.7 512.9C197.5 513.6 196.6 514 195.9 513.7C195.2 513.5 194.8 512.6 195.1 511.9L199.4 500.9C199.6 500.2 200.5 499.8 201.2 500.1C201.7 500.2 202.1 500.8 202.1 501.4Z" fill="#EE2524"/>
<path d="M221.9 449.6C221.9 449.7 221.9 449.9 221.8 450L217.5 461C217.3 461.7 216.4 462.1 215.7 461.8C215 461.6 214.6 460.7 214.9 460L219.2 449C219.4 448.3 220.3 447.9 221 448.2C221.6 448.5 221.9 449 221.9 449.6Z" fill="#EE2524"/>
<path d="M194.4 496.4C194.4 496.7 194.3 497.1 193.9 497.4L185.5 505.7C184.9 506.3 184 506.3 183.5 505.7C182.9 505.1 182.9 504.2 183.5 503.7L191.8 495.4C192.4 494.8 193.3 494.8 193.8 495.4C194.3 495.6 194.4 496.1 194.4 496.4Z" fill="#EE2524"/>
<path d="M233.7 457.3C233.7 457.6 233.6 458 233.3 458.3L224.9 466.6C224.3 467.2 223.4 467.2 222.9 466.6C222.3 466 222.3 465.1 222.9 464.6L231.3 456.3C231.9 455.7 232.8 455.7 233.3 456.3C233.6 456.6 233.7 456.9 233.7 457.3Z" fill="#EE2524"/>
<path d="M189.8 489.3C189.8 489.9 189.5 490.3 188.9 490.5L178 495C177.3 495.3 176.4 495 176.2 494.2C175.9 493.5 176.2 492.6 177 492.4L187.9 487.9C188.6 487.6 189.5 487.9 189.7 488.7C189.7 489 189.8 489.1 189.8 489.3Z" fill="#EE2524"/>
<path d="M241 468.2C241 468.8 240.7 469.2 240.1 469.4L229.2 473.9C228.5 474.2 227.6 473.9 227.4 473.1C227.1 472.4 227.4 471.5 228.2 471.3L239.1 466.8C239.8 466.5 240.7 466.8 240.9 467.6C240.9 467.8 241 468.1 241 468.2Z" fill="#EE2524"/>
<path d="M898.5 211C898.5 211.8 897.8 212.4 897.2 212.4H885.4C884.6 212.4 884 211.7 884 211C884 210.2 884.7 209.6 885.4 209.6H897.2C897.9 209.6 898.5 210.2 898.5 211Z" fill="#75FA4C"/>
<path d="M843.1 211C843.1 211.8 842.4 212.4 841.8 212.4H829.9C829.1 212.4 828.6 211.7 828.6 211C828.6 210.2 829.3 209.6 829.9 209.6H841.7C842.5 209.6 843.1 210.2 843.1 211Z" fill="#75FA4C"/>
<path d="M864.8 232.8V244.6C864.8 245.4 864.1 246 863.5 246C862.7 246 862.2 245.3 862.2 244.6V232.8C862.2 232 862.9 231.4 863.5 231.4C864.3 231.4 864.8 232 864.8 232.8Z" fill="#75FA4C"/>
<path d="M864.8 177.4V189.2C864.8 190 864.1 190.6 863.5 190.6C862.7 190.6 862.2 189.9 862.2 189.2V177.4C862.2 176.6 862.9 176 863.5 176C864.3 176 864.8 176.7 864.8 177.4Z" fill="#75FA4C"/>
<path d="M877.2 242.3C877.2 242.9 876.9 243.4 876.3 243.7C875.6 244 874.7 243.6 874.5 242.9L870.1 231.9C869.8 231.2 870.2 230.3 870.9 230.1C871.6 229.8 872.5 230.2 872.7 230.9L877.1 241.9C877.2 241.9 877.2 242.1 877.2 242.3Z" fill="#75FA4C"/>
<path d="M856.9 190.7C856.9 191.3 856.6 191.8 856 192.1C855.3 192.4 854.4 192 854.2 191.3L849.9 180.3C849.6 179.6 850 178.7 850.7 178.5C851.4 178.3 852.3 178.6 852.5 179.3L856.9 190.3C856.9 190.4 856.9 190.6 856.9 190.7Z" fill="#75FA4C"/>
<path d="M895.6 224.7C895.6 224.9 895.6 225 895.5 225.3C895.2 226 894.4 226.3 893.7 226L882.9 221.2C882.2 220.9 881.9 220.1 882.2 219.4C882.5 218.7 883.3 218.4 884 218.7L894.8 223.5C895.2 223.7 895.6 224.3 895.6 224.7Z" fill="#75FA4C"/>
<path d="M845 202.1C845 202.3 845 202.4 844.9 202.7C844.6 203.4 843.8 203.7 843.1 203.4L832.2 198.6C831.5 198.3 831.2 197.5 831.5 196.8C831.8 196.1 832.6 195.8 833.3 196.1L844.1 200.9C844.7 201.1 845 201.5 845 202.1Z" fill="#75FA4C"/>
<path d="M887.9 235.4C887.9 235.7 887.8 236.2 887.4 236.4C886.8 237 885.9 236.8 885.4 236.3L877.4 227.7C876.8 227.1 876.8 226.2 877.4 225.8C878 225.2 878.9 225.4 879.4 225.8L887.5 234.5C887.8 234.7 887.9 235.1 887.9 235.4Z" fill="#75FA4C"/>
<path d="M850 195.1C850 195.4 849.9 195.9 849.5 196.1C848.9 196.7 848 196.5 847.5 196L839.4 187.3C838.8 186.8 838.9 185.9 839.5 185.5C840.1 184.9 840.9 184.9 841.4 185.5L849.5 194.2C849.9 194.5 850 194.8 850 195.1Z" fill="#75FA4C"/>
<path d="M857.1 231.4C857.1 231.5 857.1 231.7 857 231.9L852.7 242.9C852.5 243.6 851.6 244 850.9 243.7C850.2 243.5 849.8 242.6 850.1 241.9L854.4 230.9C854.6 230.2 855.5 229.8 856.2 230.1C856.7 230.2 857.1 230.8 857.1 231.4Z" fill="#75FA4C"/>
<path d="M876.9 179.6C876.9 179.7 876.9 179.9 876.8 180L872.5 191C872.3 191.7 871.4 192.1 870.7 191.8C870 191.6 869.6 190.7 869.9 190L874.2 179C874.4 178.3 875.3 177.9 876 178.2C876.6 178.5 876.9 179 876.9 179.6Z" fill="#75FA4C"/>
<path d="M849.4 226.4C849.4 226.7 849.3 227.1 848.9 227.4L840.5 235.7C839.9 236.3 839 236.3 838.5 235.7C838 235.1 837.9 234.2 838.5 233.7L846.8 225.4C847.4 224.8 848.3 224.8 848.8 225.4C849.3 225.6 849.4 226.1 849.4 226.4Z" fill="#75FA4C"/>
<path d="M888.7 187.3C888.7 187.6 888.6 188 888.2 188.3L879.8 196.6C879.2 197.2 878.3 197.2 877.8 196.6C877.2 196 877.2 195.1 877.8 194.6L886.2 186.3C886.8 185.7 887.7 185.7 888.2 186.3C888.6 186.6 888.7 186.9 888.7 187.3Z" fill="#75FA4C"/>
<path d="M844.8 219.3C844.8 219.9 844.5 220.3 843.9 220.5L833 225C832.3 225.3 831.4 225 831.2 224.2C830.9 223.5 831.2 222.6 832 222.4L842.9 217.9C843.6 217.6 844.5 217.9 844.7 218.7C844.7 219 844.8 219.1 844.8 219.3Z" fill="#75FA4C"/>
<path d="M896 198.2C896 198.8 895.7 199.2 895.1 199.4L884.2 203.9C883.5 204.2 882.6 203.9 882.4 203.1C882.1 202.4 882.4 201.5 883.2 201.3L894.1 196.8C894.8 196.5 895.7 196.8 895.9 197.6C895.9 197.8 896 198.1 896 198.2Z" fill="#75FA4C"/>
<path d="M11.5 382C17.5751 382 22.5 377.075 22.5 371C22.5 364.925 17.5751 360 11.5 360C5.42487 360 0.5 364.925 0.5 371C0.5 377.075 5.42487 382 11.5 382Z" fill="#E63623"/>
<path d="M55.5 382C61.5751 382 66.5 377.075 66.5 371C66.5 364.925 61.5751 360 55.5 360C49.4249 360 44.5 364.925 44.5 371C44.5 377.075 49.4249 382 55.5 382Z" fill="#E63623"/>
<path d="M11.5 421C17.5751 421 22.5 416.075 22.5 410C22.5 403.925 17.5751 399 11.5 399C5.42487 399 0.5 403.925 0.5 410C0.5 416.075 5.42487 421 11.5 421Z" fill="#E63623"/>
<path d="M55.5 421C61.5751 421 66.5 416.075 66.5 410C66.5 403.925 61.5751 399 55.5 399C49.4249 399 44.5 403.925 44.5 410C44.5 416.075 49.4249 421 55.5 421Z" fill="#E63623"/>
<path d="M660.5 469C666.575 469 671.5 464.075 671.5 458C671.5 451.925 666.575 447 660.5 447C654.425 447 649.5 451.925 649.5 458C649.5 464.075 654.425 469 660.5 469Z" fill="#E63623"/>
<path d="M704.5 469C710.575 469 715.5 464.075 715.5 458C715.5 451.925 710.575 447 704.5 447C698.425 447 693.5 451.925 693.5 458C693.5 464.075 698.425 469 704.5 469Z" fill="#E63623"/>
<path d="M660.5 508C666.575 508 671.5 503.075 671.5 497C671.5 490.925 666.575 486 660.5 486C654.425 486 649.5 490.925 649.5 497C649.5 503.075 654.425 508 660.5 508Z" fill="#E63623"/>
<path d="M704.5 508C710.575 508 715.5 503.075 715.5 497C715.5 490.925 710.575 486 704.5 486C698.425 486 693.5 490.925 693.5 497C693.5 503.075 698.425 508 704.5 508Z" fill="#E63623"/>
<path d="M186.5 22C192.575 22 197.5 17.0751 197.5 11C197.5 4.92487 192.575 0 186.5 0C180.425 0 175.5 4.92487 175.5 11C175.5 17.0751 180.425 22 186.5 22Z" fill="#E63623"/>
<path d="M230.5 22C236.575 22 241.5 17.0751 241.5 11C241.5 4.92487 236.575 0 230.5 0C224.425 0 219.5 4.92487 219.5 11C219.5 17.0751 224.425 22 230.5 22Z" fill="#E63623"/>
<path d="M186.5 61C192.575 61 197.5 56.0751 197.5 50C197.5 43.9249 192.575 39 186.5 39C180.425 39 175.5 43.9249 175.5 50C175.5 56.0751 180.425 61 186.5 61Z" fill="#E63623"/>
<path d="M230.5 61C236.575 61 241.5 56.0751 241.5 50C241.5 43.9249 236.575 39 230.5 39C224.425 39 219.5 43.9249 219.5 50C219.5 56.0751 224.425 61 230.5 61Z" fill="#E63623"/>
<path d="M1.5 32C1.5 14.3 15.8 0 33.5 0C51.2 0 65.5 14.3 65.5 32V126C65.5 143.7 51.2 158 33.5 158C15.8 158 1.5 143.7 1.5 126V32Z" fill="#E63623"/>
<path d="M33.5 64C51.1731 64 65.5 49.6731 65.5 32C65.5 14.3269 51.1731 0 33.5 0C15.8269 0 1.5 14.3269 1.5 32C1.5 49.6731 15.8269 64 33.5 64Z" fill="#0020F5"/>
<path d="M33.5 158C51.1731 158 65.5 143.673 65.5 126C65.5 108.327 51.1731 94 33.5 94C15.8269 94 1.5 108.327 1.5 126C1.5 143.673 15.8269 158 33.5 158Z" fill="white"/>
<path d="M33.5 136C39.0228 136 43.5 131.523 43.5 126C43.5 120.477 39.0228 116 33.5 116C27.9772 116 23.5 120.477 23.5 126C23.5 131.523 27.9772 136 33.5 136Z" fill="black"/>
<path d="M553.5 211C553.5 193.3 567.8 179 585.5 179C603.2 179 617.5 193.3 617.5 211V305C617.5 322.7 603.2 337 585.5 337C567.8 337 553.5 322.7 553.5 305V211Z" fill="#E63623"/>
<path d="M585.5 243C603.173 243 617.5 228.673 617.5 211C617.5 193.327 603.173 179 585.5 179C567.827 179 553.5 193.327 553.5 211C553.5 228.673 567.827 243 585.5 243Z" fill="#0020F5"/>
<path d="M585.5 337C603.173 337 617.5 322.673 617.5 305C617.5 287.327 603.173 273 585.5 273C567.827 273 553.5 287.327 553.5 305C553.5 322.673 567.827 337 585.5 337Z" fill="white"/>
<path d="M585.5 315C591.023 315 595.5 310.523 595.5 305C595.5 299.477 591.023 295 585.5 295C579.977 295 575.5 299.477 575.5 305C575.5 310.523 579.977 315 585.5 315Z" fill="black"/>
<path d="M301.5 180C319.2 180 333.5 194.3 333.5 212C333.5 229.7 319.2 244 301.5 244H207.5C189.8 244 175.5 229.7 175.5 212C175.5 194.3 189.8 180 207.5 180H301.5Z" fill="white"/>
<path d="M301.5 244C319.173 244 333.5 229.673 333.5 212C333.5 194.327 319.173 180 301.5 180C283.827 180 269.5 194.327 269.5 212C269.5 229.673 283.827 244 301.5 244Z" fill="#75FA4C"/>
<path d="M207.5 244C225.173 244 239.5 229.673 239.5 212C239.5 194.327 225.173 180 207.5 180C189.827 180 175.5 194.327 175.5 212C175.5 229.673 189.827 244 207.5 244Z" fill="#E63623"/>
<path d="M396.5 64C378.8 64 364.5 49.7 364.5 32C364.5 14.3 378.8 0 396.5 0H490.5C508.2 0 522.5 14.3 522.5 32C522.5 49.7 508.2 64 490.5 64H396.5Z" fill="#E63623"/>
<path d="M396.5 64C414.173 64 428.5 49.6731 428.5 32C428.5 14.3269 414.173 0 396.5 0C378.827 0 364.5 14.3269 364.5 32C364.5 49.6731 378.827 64 396.5 64Z" fill="#0020F5"/>
<path d="M490.5 64C508.173 64 522.5 49.6731 522.5 32C522.5 14.3269 508.173 0 490.5 0C472.827 0 458.5 14.3269 458.5 32C458.5 49.6731 472.827 64 490.5 64Z" fill="#75FA4C"/>
<path d="M490.5 42C496.023 42 500.5 37.5228 500.5 32C500.5 26.4772 496.023 22 490.5 22C484.977 22 480.5 26.4772 480.5 32C480.5 37.5228 484.977 42 490.5 42Z" fill="black"/>
<path d="M301.5 330C283.8 330 269.5 315.7 269.5 298C269.5 280.3 283.8 266 301.5 266H395.5C413.2 266 427.5 280.3 427.5 298C427.5 315.7 413.2 330 395.5 330H301.5Z" fill="#E63623"/>
<path d="M301.5 330C319.173 330 333.5 315.673 333.5 298C333.5 280.327 319.173 266 301.5 266C283.827 266 269.5 280.327 269.5 298C269.5 315.673 283.827 330 301.5 330Z" fill="#0020F5"/>
<path d="M395.5 330C413.173 330 427.5 315.673 427.5 298C427.5 280.327 413.173 266 395.5 266C377.827 266 363.5 280.327 363.5 298C363.5 315.673 377.827 330 395.5 330Z" fill="#75FA4C"/>
<path d="M301.5 154C283.8 154 269.5 139.7 269.5 122C269.5 104.3 283.8 90 301.5 90H395.5C413.2 90 427.5 104.3 427.5 122C427.5 139.7 413.2 154 395.5 154H301.5Z" fill="white"/>
<path d="M301.5 154C319.173 154 333.5 139.673 333.5 122C333.5 104.327 319.173 90 301.5 90C283.827 90 269.5 104.327 269.5 122C269.5 139.673 283.827 154 301.5 154Z" fill="#0020F5"/>
<path d="M395.5 154C413.173 154 427.5 139.673 427.5 122C427.5 104.327 413.173 90 395.5 90C377.827 90 363.5 104.327 363.5 122C363.5 139.673 377.827 154 395.5 154Z" fill="#E63623"/>
<path d="M395.5 132C401.023 132 405.5 127.523 405.5 122C405.5 116.477 401.023 112 395.5 112C389.977 112 385.5 116.477 385.5 122C385.5 127.523 389.977 132 395.5 132Z" fill="black"/>
<path d="M777.5 550C795.2 550 809.5 564.3 809.5 582C809.5 599.7 795.2 614 777.5 614H683.5C665.8 614 651.5 599.7 651.5 582C651.5 564.3 665.8 550 683.5 550H777.5Z" fill="white"/>
<path d="M683.5 614C701.173 614 715.5 599.673 715.5 582C715.5 564.327 701.173 550 683.5 550C665.827 550 651.5 564.327 651.5 582C651.5 599.673 665.827 614 683.5 614Z" fill="#E63623"/>
<path d="M683.5 592C689.023 592 693.5 587.523 693.5 582C693.5 576.477 689.023 572 683.5 572C677.977 572 673.5 576.477 673.5 582C673.5 587.523 677.977 592 683.5 592Z" fill="black"/>
<path d="M862.5 446C880.2 446 894.5 460.3 894.5 478C894.5 495.7 880.2 510 862.5 510H768.5C750.8 510 736.5 495.7 736.5 478C736.5 460.3 750.8 446 768.5 446H862.5Z" fill="#0020F5"/>
<path d="M768.5 510C786.173 510 800.5 495.673 800.5 478C800.5 460.327 786.173 446 768.5 446C750.827 446 736.5 460.327 736.5 478C736.5 495.673 750.827 510 768.5 510Z" fill="white"/>
<path d="M768.5 488C774.023 488 778.5 483.523 778.5 478C778.5 472.477 774.023 468 768.5 468C762.977 468 758.5 472.477 758.5 478C758.5 483.523 762.977 488 768.5 488Z" fill="black"/>
<path d="M588.5 446C606.2 446 620.5 460.3 620.5 478C620.5 495.7 606.2 510 588.5 510H494.5C476.8 510 462.5 495.7 462.5 478C462.5 460.3 476.8 446 494.5 446H588.5Z" fill="white"/>
<path d="M494.5 510C512.173 510 526.5 495.673 526.5 478C526.5 460.327 512.173 446 494.5 446C476.827 446 462.5 460.327 462.5 478C462.5 495.673 476.827 510 494.5 510Z" fill="#E63623"/>
<path d="M494.5 488C500.023 488 504.5 483.523 504.5 478C504.5 472.477 500.023 468 494.5 468C488.977 468 484.5 472.477 484.5 478C484.5 483.523 488.977 488 494.5 488Z" fill="black"/>
<path d="M119.5 64C137.173 64 151.5 49.6731 151.5 32C151.5 14.3269 137.173 0 119.5 0C101.827 0 87.5 14.3269 87.5 32C87.5 49.6731 101.827 64 119.5 64Z" fill="white"/>
<path d="M119.5 42C125.023 42 129.5 37.5228 129.5 32C129.5 26.4772 125.023 22 119.5 22C113.977 22 109.5 26.4772 109.5 32C109.5 37.5228 113.977 42 119.5 42Z" fill="black"/>
<path d="M208.5 154C226.173 154 240.5 139.673 240.5 122C240.5 104.327 226.173 90 208.5 90C190.827 90 176.5 104.327 176.5 122C176.5 139.673 190.827 154 208.5 154Z" fill="#75FA4C"/>
<path d="M208.5 132C214.023 132 218.5 127.523 218.5 122C218.5 116.477 214.023 112 208.5 112C202.977 112 198.5 116.477 198.5 122C198.5 127.523 202.977 132 208.5 132Z" fill="black"/>
<path d="M768.5 420C786.173 420 800.5 405.673 800.5 388C800.5 370.327 786.173 356 768.5 356C750.827 356 736.5 370.327 736.5 388C736.5 405.673 750.827 420 768.5 420Z" fill="#75FA4C"/>
<path d="M768.5 398C774.023 398 778.5 393.523 778.5 388C778.5 382.477 774.023 378 768.5 378C762.977 378 758.5 382.477 758.5 388C758.5 393.523 762.977 398 768.5 398Z" fill="black"/>
<path d="M584.5 64C602.173 64 616.5 49.6731 616.5 32C616.5 14.3269 602.173 0 584.5 0C566.827 0 552.5 14.3269 552.5 32C552.5 49.6731 566.827 64 584.5 64Z" fill="#E63623"/>
<path d="M584.5 42C590.023 42 594.5 37.5228 594.5 32C594.5 26.4772 590.023 22 584.5 22C578.977 22 574.5 26.4772 574.5 32C574.5 37.5228 578.977 42 584.5 42Z" fill="black"/>
<path d="M299.5 511C317.173 511 331.5 496.673 331.5 479C331.5 461.327 317.173 447 299.5 447C281.827 447 267.5 461.327 267.5 479C267.5 496.673 281.827 511 299.5 511Z" fill="#E63623"/>
<path d="M299.5 489C305.023 489 309.5 484.523 309.5 479C309.5 473.477 305.023 469 299.5 469C293.977 469 289.5 473.477 289.5 479C289.5 484.523 293.977 489 299.5 489Z" fill="black"/>
<path d="M378.5 451H366.5V463H378.5V451Z" fill="white"/>
<path d="M402.5 451H390.5V463H402.5V451Z" fill="white"/>
<path d="M426.5 451H414.5V463H426.5V451Z" fill="white"/>
<path d="M378.5 475H366.5V487H378.5V475Z" fill="white"/>
<path d="M402.5 475H390.5V487H402.5V475Z" fill="white"/>
<path d="M426.5 475H414.5V487H426.5V475Z" fill="white"/>
<path d="M378.5 499H366.5V511H378.5V499Z" fill="white"/>
<path d="M402.5 499H390.5V511H402.5V499Z" fill="white"/>
<path d="M426.5 499H414.5V511H426.5V499Z" fill="white"/>
<path d="M664.5 181H652.5V193H664.5V181Z" fill="#0020F5"/>
<path d="M688.5 181H676.5V193H688.5V181Z" fill="#0020F5"/>
<path d="M712.5 181H700.5V193H712.5V181Z" fill="#0020F5"/>
<path d="M664.5 205H652.5V217H664.5V205Z" fill="#0020F5"/>
<path d="M688.5 205H676.5V217H688.5V205Z" fill="#0020F5"/>
<path d="M712.5 205H700.5V217H712.5V205Z" fill="#0020F5"/>
<path d="M664.5 229H652.5V241H664.5V229Z" fill="#0020F5"/>
<path d="M688.5 229H676.5V241H688.5V229Z" fill="#0020F5"/>
<path d="M712.5 229H700.5V241H712.5V229Z" fill="#0020F5"/>
<path d="M280.5 0H272.5V64H280.5V0Z" fill="white"/>
<path d="M303.5 0H295.5V64H303.5V0Z" fill="white"/>
<path d="M328.5 0H320.5V64H328.5V0Z" fill="white"/>
<path d="M285.5 22H267.5V28H285.5V22Z" fill="#E63623"/>
<path d="M308.5 43H290.5V49H308.5V43Z" fill="#0020F5"/>
<path d="M333.5 8H315.5V14H333.5V8Z" fill="#75FA4C"/>
<path d="M842.5 356H834.5V420H842.5V356Z" fill="white"/>
<path d="M865.5 356H857.5V420H865.5V356Z" fill="white"/>
<path d="M890.5 356H882.5V420H890.5V356Z" fill="white"/>
<path d="M847.5 378H829.5V384H847.5V378Z" fill="#E63623"/>
<path d="M870.5 399H852.5V405H870.5V399Z" fill="#0020F5"/>
<path d="M895.5 364H877.5V370H895.5V364Z" fill="#75FA4C"/>
<path d="M750 41.2002C753 41.2002 755.5 38.7002 755.5 35.5002L755.8 36.9002L808.4 23.0002C808.8 25.8002 811 27.8002 813.8 27.8002C814.8 27.8002 815.8 27.5002 816.7 27.0002L834.5 55.1002C834.3 55.8002 834.1 56.5002 834.1 57.3002C834.1 60.4002 836.5 63.0002 839.6 63.0002C842.6 63.0002 845.1 60.5002 845.1 57.3002C845.1 55.5002 844.2 53.9002 842.9 52.8002L858.9 13.8002L866.3 39.2002C864.8 40.2002 863.7 42.0002 863.7 44.0002C863.7 47.2002 866.1 49.7002 869.2 49.7002C872.2 49.7002 874.7 47.2002 874.7 44.0002C874.7 42.9002 874.4 41.8002 873.8 41.0002L886.5 27.1002C887.3 27.6002 888.2 27.9002 889.1 27.9002C892.1 27.9002 894.6 25.4002 894.6 22.2002C894.6 19.1002 892.2 16.5002 889.1 16.5002C886.1 16.5002 883.6 19.0002 883.6 22.2002C883.6 23.3002 883.9 24.4002 884.5 25.2002L871.8 39.1002C871 38.6002 870.1 38.4002 869.2 38.4002C869.1 38.4002 869.1 38.4002 869 38.4002L861 11.7002C862.5 10.7002 863.6 8.9002 863.6 6.9002C863.6 3.8002 861.2 1.2002 858.1 1.2002C855 1.2002 852.6 3.7002 852.6 6.9002C852.6 9.4002 854.3 11.6002 856.5 12.3002L840.2 51.7002C840 51.7002 839.6 51.6002 839.4 51.6002C838.2 51.6002 837 52.1002 836.1 52.7002L818.5 24.8002C818.9 24.0002 819.2 23.1002 819.2 22.0002C819.2 18.9002 816.8 16.3002 813.7 16.3002C811.4 16.3002 809.4 17.8002 808.6 20.0002L755.2 34.1002C754.5 31.6002 752.4 29.7002 749.9 29.7002C746.8 29.7002 744.4 32.2002 744.4 35.4002C744.5 38.7002 746.9 41.2002 750 41.2002Z" fill="#75FA4C"/>
<path d="M504.7 323.5C504.7 320.5 502.2 318 499 318L500.4 317.7L486.6 265.1C489.4 264.7 491.4 262.5 491.4 259.7C491.4 258.7 491.1 257.7 490.6 256.8L518.7 239C519.4 239.2 520.1 239.4 520.9 239.4C524 239.4 526.6 237 526.6 233.9C526.6 230.9 524.1 228.4 520.9 228.4C519.1 228.4 517.5 229.3 516.4 230.6L477.4 214.6L502.8 207.2C503.8 208.7 505.6 209.8 507.6 209.8C510.8 209.8 513.3 207.4 513.3 204.3C513.3 201.3 510.8 198.8 507.6 198.8C506.5 198.8 505.4 199.1 504.6 199.7L490.7 187C491.2 186.2 491.5 185.3 491.5 184.4C491.5 181.4 489 178.9 485.8 178.9C482.7 178.9 480.1 181.3 480.1 184.4C480.1 187.4 482.6 189.9 485.8 189.9C486.9 189.9 488 189.6 488.8 189L502.7 201.7C502.2 202.5 502 203.3 502 204.3C502 204.4 502 204.4 502 204.5L475.2 212.3C474.2 210.8 472.4 209.7 470.4 209.7C467.3 209.7 464.7 212.1 464.7 215.2C464.7 218.3 467.2 220.7 470.4 220.7C472.9 220.7 475.1 219 475.8 216.8L515.2 233.1C515.2 233.3 515.1 233.7 515.1 233.9C515.1 235.1 515.6 236.3 516.2 237.2L488.3 254.8C487.5 254.4 486.6 254.1 485.5 254.1C482.4 254.1 479.8 256.5 479.8 259.6C479.8 261.9 481.3 263.9 483.5 264.7L497.6 318.1C495.1 318.8 493.2 320.9 493.2 323.4C493.2 326.5 495.7 328.9 498.9 328.9C502.2 329 504.7 326.6 504.7 323.5Z" fill="#75FA4C"/>
<path d="M122.5 463C125.261 463 127.5 460.761 127.5 458C127.5 455.239 125.261 453 122.5 453C119.739 453 117.5 455.239 117.5 458C117.5 460.761 119.739 463 122.5 463Z" fill="#0020F5"/>
<path d="M147.5 463C150.261 463 152.5 460.761 152.5 458C152.5 455.239 150.261 453 147.5 453C144.739 453 142.5 455.239 142.5 458C142.5 460.761 144.739 463 147.5 463Z" fill="#0020F5"/>
<path d="M97.5 488C100.261 488 102.5 485.761 102.5 483C102.5 480.239 100.261 478 97.5 478C94.7386 478 92.5 480.239 92.5 483C92.5 485.761 94.7386 488 97.5 488Z" fill="#0020F5"/>
<path d="M122.5 488C125.261 488 127.5 485.761 127.5 483C127.5 480.239 125.261 478 122.5 478C119.739 478 117.5 480.239 117.5 483C117.5 485.761 119.739 488 122.5 488Z" fill="#0020F5"/>
<path d="M147.5 488C150.261 488 152.5 485.761 152.5 483C152.5 480.239 150.261 478 147.5 478C144.739 478 142.5 480.239 142.5 483C142.5 485.761 144.739 488 147.5 488Z" fill="#0020F5"/>
<path d="M97.5 513C100.261 513 102.5 510.761 102.5 508C102.5 505.239 100.261 503 97.5 503C94.7386 503 92.5 505.239 92.5 508C92.5 510.761 94.7386 513 97.5 513Z" fill="#0020F5"/>
<path d="M122.5 513C125.261 513 127.5 510.761 127.5 508C127.5 505.239 125.261 503 122.5 503C119.739 503 117.5 505.239 117.5 508C117.5 510.761 119.739 513 122.5 513Z" fill="#0020F5"/>
<path d="M147.5 513C150.261 513 152.5 510.761 152.5 508C152.5 505.239 150.261 503 147.5 503C144.739 503 142.5 505.239 142.5 508C142.5 510.761 144.739 513 147.5 513Z" fill="#0020F5"/>
<path d="M97.5 463C100.261 463 102.5 460.761 102.5 458C102.5 455.239 100.261 453 97.5 453C94.7386 453 92.5 455.239 92.5 458C92.5 460.761 94.7386 463 97.5 463Z" fill="#0020F5"/>
<path d="M122.5 465C125.814 465 128.5 462.314 128.5 459C128.5 455.686 125.814 453 122.5 453C119.186 453 116.5 455.686 116.5 459C116.5 462.314 119.186 465 122.5 465Z" fill="#0020F5"/>
<path d="M147.5 465C150.814 465 153.5 462.314 153.5 459C153.5 455.686 150.814 453 147.5 453C144.186 453 141.5 455.686 141.5 459C141.5 462.314 144.186 465 147.5 465Z" fill="#0020F5"/>
<path d="M97.5 489C100.814 489 103.5 486.314 103.5 483C103.5 479.686 100.814 477 97.5 477C94.1863 477 91.5 479.686 91.5 483C91.5 486.314 94.1863 489 97.5 489Z" fill="#0020F5"/>
<path d="M122.5 489C125.814 489 128.5 486.314 128.5 483C128.5 479.686 125.814 477 122.5 477C119.186 477 116.5 479.686 116.5 483C116.5 486.314 119.186 489 122.5 489Z" fill="#0020F5"/>
<path d="M147.5 489C150.814 489 153.5 486.314 153.5 483C153.5 479.686 150.814 477 147.5 477C144.186 477 141.5 479.686 141.5 483C141.5 486.314 144.186 489 147.5 489Z" fill="#0020F5"/>
<path d="M97.5 513C100.814 513 103.5 510.314 103.5 507C103.5 503.686 100.814 501 97.5 501C94.1863 501 91.5 503.686 91.5 507C91.5 510.314 94.1863 513 97.5 513Z" fill="#0020F5"/>
<path d="M122.5 513C125.814 513 128.5 510.314 128.5 507C128.5 503.686 125.814 501 122.5 501C119.186 501 116.5 503.686 116.5 507C116.5 510.314 119.186 513 122.5 513Z" fill="#0020F5"/>
<path d="M147.5 513C150.814 513 153.5 510.314 153.5 507C153.5 503.686 150.814 501 147.5 501C144.186 501 141.5 503.686 141.5 507C141.5 510.314 144.186 513 147.5 513Z" fill="#0020F5"/>
<path d="M97.5 465C100.814 465 103.5 462.314 103.5 459C103.5 455.686 100.814 453 97.5 453C94.1863 453 91.5 455.686 91.5 459C91.5 462.314 94.1863 465 97.5 465Z" fill="#0020F5"/>
<path d="M863.5 567C866.814 567 869.5 564.314 869.5 561C869.5 557.686 866.814 555 863.5 555C860.186 555 857.5 557.686 857.5 561C857.5 564.314 860.186 567 863.5 567Z" fill="#E63623"/>
<path d="M888.5 567C891.814 567 894.5 564.314 894.5 561C894.5 557.686 891.814 555 888.5 555C885.186 555 882.5 557.686 882.5 561C882.5 564.314 885.186 567 888.5 567Z" fill="#E63623"/>
<path d="M838.5 591C841.814 591 844.5 588.314 844.5 585C844.5 581.686 841.814 579 838.5 579C835.186 579 832.5 581.686 832.5 585C832.5 588.314 835.186 591 838.5 591Z" fill="#E63623"/>
<path d="M863.5 591C866.814 591 869.5 588.314 869.5 585C869.5 581.686 866.814 579 863.5 579C860.186 579 857.5 581.686 857.5 585C857.5 588.314 860.186 591 863.5 591Z" fill="#E63623"/>
<path d="M888.5 591C891.814 591 894.5 588.314 894.5 585C894.5 581.686 891.814 579 888.5 579C885.186 579 882.5 581.686 882.5 585C882.5 588.314 885.186 591 888.5 591Z" fill="#E63623"/>
<path d="M838.5 615C841.814 615 844.5 612.314 844.5 609C844.5 605.686 841.814 603 838.5 603C835.186 603 832.5 605.686 832.5 609C832.5 612.314 835.186 615 838.5 615Z" fill="#E63623"/>
<path d="M863.5 615C866.814 615 869.5 612.314 869.5 609C869.5 605.686 866.814 603 863.5 603C860.186 603 857.5 605.686 857.5 609C857.5 612.314 860.186 615 863.5 615Z" fill="#E63623"/>
<path d="M888.5 615C891.814 615 894.5 612.314 894.5 609C894.5 605.686 891.814 603 888.5 603C885.186 603 882.5 605.686 882.5 609C882.5 612.314 885.186 615 888.5 615Z" fill="#E63623"/>
<path d="M838.5 567C841.814 567 844.5 564.314 844.5 561C844.5 557.686 841.814 555 838.5 555C835.186 555 832.5 557.686 832.5 561C832.5 564.314 835.186 567 838.5 567Z" fill="#E63623"/>
<path d="M623.5 582C623.5 582.8 622.8 583.3 622.2 583.3H610.4C609.6 583.3 609 582.6 609 582C609 581.2 609.7 580.7 610.4 580.7H622.2C622.9 580.7 623.5 581.2 623.5 582Z" fill="white"/>
<path d="M568.1 582C568.1 582.8 567.4 583.3 566.8 583.3H554.9C554.1 583.3 553.6 582.6 553.6 582C553.6 581.2 554.3 580.7 554.9 580.7H566.7C567.5 580.7 568.1 581.2 568.1 582Z" fill="white"/>
<path d="M589.8 603.8V615.6C589.8 616.4 589.1 616.9 588.5 616.9C587.7 616.9 587.2 616.2 587.2 615.6V603.8C587.2 603 587.9 602.4 588.5 602.4C589.3 602.4 589.8 603 589.8 603.8Z" fill="white"/>
<path d="M589.8 548.3V560.1C589.8 560.9 589.1 561.5 588.5 561.5C587.7 561.5 587.2 560.8 587.2 560.1V548.3C587.2 547.5 587.9 547 588.5 547C589.3 547 589.8 547.7 589.8 548.3Z" fill="white"/>
<path d="M602.2 613.3C602.2 613.9 601.9 614.4 601.3 614.7C600.6 615 599.7 614.6 599.5 613.9L595.1 602.9C594.8 602.2 595.2 601.3 595.9 601.1C596.6 600.8 597.5 601.2 597.7 601.9L602.1 612.9C602.2 612.9 602.2 613.1 602.2 613.3Z" fill="white"/>
<path d="M581.9 561.7C581.9 562.3 581.6 562.8 581 563.1C580.3 563.4 579.4 563 579.2 562.3L574.9 551.3C574.6 550.6 575 549.7 575.7 549.5C576.4 549.3 577.3 549.6 577.5 550.3L581.9 561.3C581.9 561.4 581.9 561.6 581.9 561.7Z" fill="white"/>
<path d="M620.6 595.7C620.6 595.9 620.6 596 620.5 596.3C620.2 597 619.4 597.3 618.7 597L607.9 592.2C607.2 591.9 606.9 591.1 607.2 590.4C607.5 589.7 608.3 589.4 609 589.7L619.8 594.5C620.2 594.7 620.6 595.3 620.6 595.7Z" fill="white"/>
<path d="M570 573.1C570 573.3 570 573.4 569.9 573.7C569.6 574.4 568.8 574.7 568.1 574.4L557.2 569.6C556.5 569.3 556.2 568.5 556.5 567.8C556.8 567.1 557.6 566.8 558.3 567.1L569.1 571.9C569.7 572.1 570 572.5 570 573.1Z" fill="white"/>
<path d="M612.9 606.4C612.9 606.7 612.8 607.2 612.4 607.4C611.8 608 610.9 607.8 610.4 607.3L602.4 598.7C601.8 598.1 601.8 597.2 602.4 596.8C603 596.2 603.9 596.4 604.4 596.8L612.5 605.5C612.8 605.7 612.9 606.1 612.9 606.4Z" fill="white"/>
<path d="M575 566.1C575 566.4 574.9 566.9 574.5 567.1C573.9 567.7 573 567.5 572.5 567L564.4 558.3C563.8 557.8 563.9 556.9 564.5 556.5C565.1 555.9 565.9 555.9 566.4 556.5L574.5 565.2C574.9 565.5 575 565.8 575 566.1Z" fill="white"/>
<path d="M582.1 602.4C582.1 602.5 582.1 602.7 582 602.9L577.7 613.9C577.5 614.6 576.6 615 575.9 614.7C575.2 614.5 574.8 613.6 575.1 612.9L579.4 601.9C579.6 601.2 580.5 600.8 581.2 601.1C581.7 601.2 582.1 601.8 582.1 602.4Z" fill="white"/>
<path d="M601.9 550.6C601.9 550.7 601.9 550.9 601.8 551.1L597.5 562.1C597.3 562.8 596.4 563.2 595.7 562.9C595 562.7 594.6 561.8 594.9 561.1L599.2 550.1C599.4 549.4 600.3 549 601 549.3C601.6 549.5 601.9 550 601.9 550.6Z" fill="white"/>
<path d="M574.4 597.4C574.4 597.7 574.3 598.1 573.9 598.4L565.5 606.7C564.9 607.3 564 607.3 563.5 606.7C562.9 606.1 562.9 605.2 563.5 604.7L571.8 596.4C572.4 595.8 573.3 595.8 573.8 596.4C574.3 596.6 574.4 597.1 574.4 597.4Z" fill="white"/>
<path d="M613.7 558.3C613.7 558.6 613.6 559 613.2 559.3L604.8 567.6C604.2 568.2 603.3 568.2 602.8 567.6C602.2 567 602.2 566.1 602.8 565.6L611.2 557.3C611.8 556.7 612.7 556.7 613.2 557.3C613.6 557.6 613.7 557.9 613.7 558.3Z" fill="white"/>
<path d="M569.8 590.3C569.8 590.9 569.5 591.3 568.9 591.5L558 596C557.3 596.3 556.4 596 556.2 595.2C555.9 594.5 556.2 593.6 557 593.4L567.9 588.9C568.6 588.6 569.5 588.9 569.7 589.7C569.7 590 569.8 590.1 569.8 590.3Z" fill="white"/>
<path d="M621 569.2C621 569.8 620.7 570.2 620.1 570.4L609.2 574.9C608.5 575.2 607.6 574.9 607.4 574.1C607.1 573.4 607.4 572.5 608.2 572.3L619.1 567.8C619.8 567.5 620.7 567.8 620.9 568.6C620.9 568.8 621 569.1 621 569.2Z" fill="white"/>
<path d="M426.5 179H363.5V242H426.5V179Z" fill="white"/>
<path d="M93.9 553.8H107V557.1H102.2V572H98.8V557.1H94L93.9 553.8ZM113.8 572H110.5V553.8H113.8V561.2H114.3C114.6 560.4 115.1 559.8 115.8 559.4C116.4 559 117.2 558.7 118.2 558.7C118.8 558.7 119.4 558.8 120 559C120.6 559.2 121 559.5 121.4 559.9C121.8 560.3 122.1 560.9 122.3 561.5C122.5 562.1 122.6 562.9 122.6 563.8V571.9H119.3V564.6C119.3 563.7 119.1 563 118.6 562.4C118.2 561.9 117.5 561.6 116.7 561.6C115.7 561.6 115 561.9 114.5 562.6C114 563.2 113.8 564.1 113.8 565.2V572ZM129.3 566.6C129.3 567 129.4 567.3 129.6 567.7C129.8 568 130 568.3 130.3 568.5C130.6 568.7 130.9 568.9 131.3 569C131.7 569.1 132.1 569.2 132.5 569.2C133.3 569.2 133.9 569.1 134.4 568.8C134.8 568.5 135.1 568.2 135.3 567.8L138.1 569.4C137.9 569.7 137.7 570.1 137.4 570.4C137.1 570.7 136.8 571.1 136.3 571.4C135.9 571.7 135.3 571.9 134.7 572.1C134.1 572.3 133.3 572.4 132.5 572.4C131.5 572.4 130.6 572.2 129.8 571.9C129 571.6 128.3 571.1 127.7 570.5C127.1 569.9 126.7 569.2 126.3 568.3C126 567.5 125.8 566.5 125.8 565.4V565.2C125.8 564.2 126 563.3 126.3 562.5C126.6 561.7 127.1 561 127.7 560.4C128.3 559.8 129 559.4 129.8 559.1C130.6 558.8 131.4 558.6 132.3 558.6C133.4 558.6 134.4 558.8 135.2 559.2C136 559.6 136.7 560.1 137.2 560.7C137.7 561.3 138.1 561.9 138.3 562.7C138.5 563.4 138.7 564.1 138.7 564.8V566.5H129.3V566.6ZM132.3 561.7C131.5 561.7 130.8 561.9 130.3 562.4C129.8 562.8 129.4 563.3 129.3 563.9H135.4C135.3 563.3 135 562.8 134.4 562.4C133.9 561.9 133.2 561.7 132.3 561.7ZM158.1 559.1H161.8V556.4C161.8 555.7 162.1 555 162.6 554.5C163.1 554 163.7 553.7 164.5 553.7H169.8V556.8H165.9C165.4 556.8 165.2 557.1 165.2 557.6V559H170.3V562.1H165V571.9H161.7V562.1H158V559.1H158.1ZM186.8 565.7C186.8 566.8 186.6 567.7 186.3 568.6C185.9 569.4 185.4 570.1 184.8 570.7C184.2 571.3 183.5 571.7 182.6 572C181.8 572.3 181 572.4 180.1 572.4C179.2 572.4 178.4 572.3 177.6 572C176.8 571.7 176.1 571.3 175.5 570.7C174.9 570.1 174.4 569.4 174 568.6C173.6 567.8 173.5 566.8 173.5 565.7V565.4C173.5 564.3 173.7 563.4 174 562.6C174.4 561.8 174.9 561.1 175.5 560.5C176.1 559.9 176.8 559.5 177.6 559.2C178.4 558.9 179.3 558.8 180.1 558.8C180.9 558.8 181.8 558.9 182.6 559.2C183.4 559.5 184.1 559.9 184.8 560.5C185.4 561.1 185.9 561.8 186.3 562.6C186.7 563.4 186.8 564.4 186.8 565.4V565.7ZM180.1 569.2C180.6 569.2 181 569.1 181.4 569C181.8 568.9 182.2 568.6 182.5 568.3C182.8 568 183.1 567.7 183.2 567.2C183.4 566.8 183.5 566.3 183.5 565.7V565.2C183.5 564.7 183.4 564.2 183.2 563.8C183 563.4 182.8 563 182.5 562.7C182.2 562.4 181.8 562.2 181.4 562C181 561.8 180.5 561.8 180.1 561.8C179.7 561.8 179.2 561.9 178.8 562C178.4 562.1 178 562.4 177.7 562.7C177.4 563 177.1 563.4 176.9 563.8C176.7 564.2 176.6 564.7 176.6 565.2V565.7C176.6 566.2 176.7 566.7 176.9 567.2C177.1 567.6 177.3 568 177.7 568.3C178 568.6 178.4 568.8 178.8 569C179.2 569.2 179.6 569.2 180.1 569.2ZM198.8 559.1H202.1V572H198.8V570.1H198.3C197.7 571.6 196.5 572.3 194.6 572.3C194 572.3 193.4 572.2 192.8 572C192.2 571.8 191.8 571.5 191.3 571C190.9 570.6 190.6 570 190.3 569.4C190.1 568.7 190 568 190 567.1V559H193.3V566.4C193.3 567.3 193.5 568 193.9 568.6C194.3 569.1 195 569.4 195.8 569.4C196.8 569.4 197.5 569.1 198 568.5C198.5 567.9 198.7 567 198.7 565.9V559.1H198.8ZM209.2 572H206V559.1H209.3V561H209.8C210.1 560.3 210.6 559.7 211.2 559.3C211.9 558.9 212.6 558.7 213.5 558.7C214.1 558.7 214.7 558.8 215.2 559C215.8 559.2 216.2 559.5 216.7 559.9C217.1 560.3 217.4 560.8 217.7 561.5C217.9 562.1 218.1 562.9 218.1 563.8V572H214.8V564.7C214.8 563.8 214.6 563.1 214.1 562.5C213.7 562 213 561.7 212.2 561.7C211.2 561.7 210.5 562 210 562.7C209.5 563.3 209.3 564.2 209.3 565.3V572H209.2ZM231.1 570.1H230.6C230.5 570.4 230.3 570.7 230.1 571C229.9 571.3 229.7 571.5 229.3 571.7C229 571.9 228.6 572.1 228.2 572.2C227.8 572.3 227.2 572.4 226.6 572.4C225.8 572.4 225.1 572.3 224.4 572C223.7 571.7 223.1 571.3 222.6 570.7C222.1 570.1 221.7 569.4 221.4 568.6C221.1 567.8 221 566.8 221 565.8V565.3C221 564.3 221.1 563.3 221.4 562.5C221.7 561.7 222.1 561 222.6 560.4C223.1 559.8 223.8 559.4 224.4 559.1C225.1 558.8 225.9 558.7 226.6 558.7C227.6 558.7 228.5 558.9 229.1 559.3C229.7 559.7 230.2 560.2 230.5 560.9H231V553.7H234.3V572H231V570.1H231.1ZM227.7 569.2C228.7 569.2 229.5 568.9 230.2 568.2C230.8 567.5 231.2 566.7 231.2 565.6V565.3C231.2 564.2 230.9 563.4 230.2 562.8C229.6 562.1 228.8 561.8 227.7 561.8C226.7 561.8 225.8 562.1 225.2 562.8C224.6 563.4 224.3 564.3 224.3 565.4V565.7C224.3 566.8 224.6 567.7 225.2 568.3C225.9 568.9 226.7 569.2 227.7 569.2ZM246.2 570.1C245.9 570.9 245.4 571.5 244.7 571.8C244.1 572.1 243.3 572.3 242.5 572.3C241.7 572.3 241 572.2 240.3 571.9C239.6 571.6 239 571.2 238.5 570.6C238 570 237.6 569.3 237.3 568.5C237 567.7 236.9 566.8 236.9 565.7V565.3C236.9 564.3 237 563.4 237.3 562.5C237.6 561.7 238 561 238.5 560.4C239 559.8 239.6 559.4 240.2 559.1C240.9 558.8 241.6 558.6 242.4 558.6C243.3 558.6 244.1 558.8 244.6 559.1C245.2 559.4 245.6 559.9 246 560.6H246.5V559H249.8V568C249.8 568.5 250 568.8 250.5 568.8H251V571.9H248.8C248.2 571.9 247.7 571.7 247.3 571.4C246.9 571.1 246.8 570.6 246.8 570L246.2 570.1ZM243.2 569.2C244.2 569.2 244.9 568.9 245.5 568.3C246.1 567.7 246.4 566.8 246.4 565.7V565.4C246.4 564.3 246.1 563.4 245.5 562.8C244.9 562.2 244.2 561.8 243.2 561.8C242.2 561.8 241.5 562.1 240.9 562.8C240.3 563.4 240 564.3 240 565.4V565.7C240 566.8 240.3 567.7 240.9 568.3C241.5 568.9 242.3 569.2 243.2 569.2ZM253.4 559.1H257.2V553.8H260.5V559.1H265.2V562.2H260.5V568.1C260.5 568.6 260.7 568.9 261.2 568.9H264.7V572H259.2C258.6 572 258.1 571.8 257.7 571.4C257.3 571 257.2 570.5 257.2 569.9V562.2H253.4V559.1ZM269.9 568.9H274.3V562.2H270.2V559.1H277.5V568.9H281.2V572H269.8V568.9H269.9ZM278.3 555.3C278.3 555.6 278.2 556 278.1 556.3C278 556.6 277.8 556.9 277.6 557.1C277.4 557.3 277.1 557.5 276.8 557.6C276.5 557.7 276.2 557.8 275.9 557.8C275.6 557.8 275.2 557.7 274.9 557.6C274.6 557.5 274.3 557.3 274.1 557.1C273.9 556.9 273.7 556.6 273.6 556.3C273.5 556 273.4 555.7 273.4 555.3C273.4 555 273.5 554.6 273.6 554.3C273.7 554 273.9 553.7 274.1 553.5C274.3 553.3 274.6 553.1 274.9 553C275.2 552.9 275.5 552.8 275.9 552.8C276.2 552.8 276.5 552.9 276.8 553C277.1 553.1 277.4 553.3 277.6 553.5C277.8 553.7 278 554 278.1 554.3C278.3 554.6 278.3 554.9 278.3 555.3ZM298.2 565.7C298.2 566.8 298 567.7 297.7 568.6C297.3 569.4 296.8 570.1 296.2 570.7C295.6 571.3 294.9 571.7 294 572C293.2 572.3 292.4 572.4 291.5 572.4C290.6 572.4 289.8 572.3 289 572C288.2 571.7 287.5 571.3 286.9 570.7C286.3 570.1 285.8 569.4 285.4 568.6C285 567.8 284.9 566.8 284.9 565.7V565.4C284.9 564.3 285.1 563.4 285.4 562.6C285.8 561.8 286.3 561.1 286.9 560.5C287.5 559.9 288.2 559.5 289 559.2C289.8 558.9 290.7 558.8 291.5 558.8C292.3 558.8 293.2 558.9 294 559.2C294.8 559.5 295.5 559.9 296.2 560.5C296.8 561.1 297.3 561.8 297.7 562.6C298.1 563.4 298.2 564.4 298.2 565.4V565.7ZM291.5 569.2C292 569.2 292.4 569.1 292.8 569C293.2 568.8 293.6 568.6 293.9 568.3C294.2 568 294.5 567.7 294.6 567.2C294.8 566.8 294.9 566.3 294.9 565.7V565.2C294.9 564.7 294.8 564.2 294.6 563.8C294.4 563.4 294.2 563 293.9 562.7C293.6 562.4 293.2 562.2 292.8 562C292.4 561.8 291.9 561.8 291.5 561.8C291 561.8 290.6 561.9 290.2 562C289.8 562.2 289.4 562.4 289.1 562.7C288.8 563 288.5 563.4 288.3 563.8C288.1 564.2 288 564.7 288 565.2V565.7C288 566.2 288.1 566.7 288.3 567.2C288.5 567.6 288.7 568 289.1 568.3C289.4 568.6 289.8 568.8 290.2 569C290.6 569.2 291 569.2 291.5 569.2ZM304.8 572H301.5V559.1H304.8V561H305.3C305.6 560.3 306.1 559.7 306.7 559.3C307.3 558.9 308.1 558.7 309 558.7C309.6 558.7 310.2 558.8 310.7 559C311.3 559.2 311.7 559.5 312.2 559.9C312.6 560.3 312.9 560.8 313.2 561.5C313.4 562.1 313.6 562.9 313.6 563.8V572H310.3V564.7C310.3 563.8 310.1 563.1 309.6 562.5C309.2 562 308.5 561.7 307.7 561.7C306.7 561.7 306 562 305.5 562.7C305 563.3 304.8 564.2 304.8 565.3V572ZM325.8 570.1C325.5 570.9 325 571.5 324.3 571.8C323.7 572.1 322.9 572.3 322.1 572.3C321.3 572.3 320.6 572.2 319.9 571.9C319.2 571.6 318.6 571.2 318.1 570.6C317.6 570 317.2 569.3 316.9 568.5C316.6 567.7 316.5 566.8 316.5 565.7V565.3C316.5 564.3 316.6 563.4 316.9 562.5C317.2 561.7 317.6 561 318.1 560.4C318.6 559.8 319.2 559.4 319.8 559.1C320.5 558.8 321.2 558.6 322 558.6C322.9 558.6 323.7 558.8 324.2 559.1C324.8 559.4 325.2 559.9 325.6 560.6H326.1V559H329.4V568C329.4 568.5 329.6 568.8 330.1 568.8H330.6V571.9H328.4C327.8 571.9 327.3 571.7 326.9 571.4C326.5 571.1 326.4 570.6 326.4 570L325.8 570.1ZM322.8 569.2C323.8 569.2 324.5 568.9 325.1 568.3C325.7 567.7 326 566.8 326 565.7V565.4C326 564.3 325.7 563.4 325.1 562.8C324.5 562.2 323.8 561.8 322.8 561.8C321.8 561.8 321.1 562.1 320.5 562.8C319.9 563.4 319.6 564.3 319.6 565.4V565.7C319.6 566.8 319.9 567.7 320.5 568.3C321.1 568.9 321.9 569.2 322.8 569.2ZM333.2 568.9H337.7V556.9H333.3V553.8H340.9V568.9H345.1V572H333.1L333.2 568.9ZM373.9 559.1H377.2V572H373.9V570.1H373.4C372.8 571.6 371.6 572.3 369.7 572.3C369.1 572.3 368.5 572.2 367.9 572C367.3 571.8 366.9 571.5 366.4 571C366 570.6 365.7 570 365.4 569.4C365.2 568.7 365.1 568 365.1 567.1V559H368.4V566.4C368.4 567.3 368.6 568 369 568.6C369.4 569.1 370.1 569.4 371 569.4C372 569.4 372.7 569.1 373.2 568.5C373.7 567.9 373.9 567 373.9 565.9V559.1ZM385.2 562.7C385.2 563.1 385.4 563.4 385.8 563.6C386.2 563.8 387 563.9 388.2 564C389.5 564.1 390.6 564.5 391.4 565.2C392.2 565.8 392.6 566.7 392.6 567.9V568.1C392.6 569.4 392.1 570.4 391.2 571.2C390.3 572 388.9 572.3 387.2 572.3C386.2 572.3 385.3 572.2 384.6 571.9C383.9 571.6 383.3 571.3 382.8 570.9C382.3 570.5 382 570.1 381.7 569.6C381.5 569.1 381.3 568.6 381.2 568.2L384.2 567.2C384.3 567.8 384.6 568.2 385.1 568.7C385.5 569.1 386.2 569.3 387.2 569.3C388 569.3 388.6 569.2 388.9 568.9C389.2 568.6 389.4 568.4 389.4 568.1C389.4 567.9 389.4 567.8 389.3 567.6C389.2 567.4 389.1 567.3 388.9 567.2C388.7 567.1 388.4 566.9 388 566.9C387.7 566.8 387.2 566.7 386.7 566.7C385.2 566.6 384.1 566.2 383.2 565.6C382.3 565 381.9 564 381.9 562.8V562.6C381.9 562 382 561.4 382.3 560.9C382.6 560.4 382.9 560 383.4 559.7C383.8 559.4 384.4 559.1 385 558.9C385.6 558.7 386.2 558.6 386.8 558.6C387.6 558.6 388.3 558.7 388.9 558.9C389.5 559.1 390 559.4 390.4 559.7C390.8 560 391.2 560.4 391.4 560.8C391.7 561.2 391.9 561.6 392 561.9L389 563.1C388.8 562.6 388.6 562.3 388.2 562C387.8 561.7 387.3 561.6 386.7 561.6C386.1 561.6 385.7 561.7 385.5 561.9C385.3 562.2 385.2 562.4 385.2 562.7ZM399.9 566.6C399.9 567 400 567.3 400.2 567.7C400.4 568 400.6 568.3 400.9 568.5C401.2 568.7 401.5 568.9 401.9 569C402.3 569.1 402.7 569.2 403.1 569.2C403.9 569.2 404.5 569.1 405 568.8C405.4 568.5 405.7 568.2 405.9 567.8L408.7 569.4C408.5 569.7 408.3 570.1 408.1 570.4C407.8 570.7 407.5 571.1 407 571.4C406.6 571.7 406 571.9 405.4 572.1C404.8 572.3 404 572.4 403.2 572.4C402.2 572.4 401.3 572.2 400.5 571.9C399.7 571.6 399 571.1 398.4 570.5C397.8 569.9 397.4 569.2 397 568.3C396.7 567.5 396.5 566.5 396.5 565.4V565.2C396.5 564.2 396.7 563.3 397 562.5C397.3 561.7 397.8 561 398.4 560.4C399 559.8 399.7 559.4 400.5 559.1C401.3 558.8 402.1 558.6 403 558.6C404.1 558.6 405.1 558.8 405.9 559.2C406.7 559.6 407.4 560.1 407.9 560.7C408.4 561.3 408.8 561.9 409 562.7C409.2 563.4 409.4 564.1 409.4 564.8V566.5H399.9V566.6ZM403 561.7C402.2 561.7 401.5 561.9 401 562.4C400.5 562.8 400.1 563.3 400 563.9H406.1C406 563.3 405.7 562.8 405.1 562.4C404.5 561.9 403.8 561.7 403 561.7ZM412.3 559.1H417.8V561H418.3C418.5 560.3 418.9 559.7 419.5 559.4C420.1 559 420.8 558.8 421.6 558.8C422.9 558.8 423.9 559.2 424.7 560C425.5 560.8 425.9 562 425.9 563.7V564.3L422.5 564.6V564.2C422.5 563.5 422.3 562.9 422 562.5C421.6 562.1 421.1 561.8 420.4 561.8C419.7 561.8 419.1 562.1 418.7 562.6C418.3 563.1 418.1 563.8 418.1 564.8V569H421.1V572.1H412V569H414.7V562.3H412.4V559.1H412.3ZM430.7 563.4H438.8V566.4H430.7V563.4ZM448.9 562.7C448.9 563.1 449.1 563.4 449.5 563.6C449.9 563.8 450.7 563.9 451.9 564C453.2 564.1 454.3 564.5 455.1 565.2C455.9 565.8 456.3 566.7 456.3 567.9V568.1C456.3 569.4 455.8 570.4 454.9 571.2C454 572 452.6 572.3 450.9 572.3C449.9 572.3 449 572.2 448.3 571.9C447.6 571.6 447 571.3 446.5 570.9C446 570.5 445.7 570.1 445.4 569.6C445.2 569.1 445 568.6 444.9 568.2L447.9 567.2C448 567.8 448.3 568.2 448.8 568.7C449.3 569.1 449.9 569.3 450.9 569.3C451.7 569.3 452.3 569.2 452.6 568.9C452.9 568.6 453.1 568.4 453.1 568.1C453.1 567.9 453.1 567.8 453 567.6C452.9 567.4 452.8 567.3 452.6 567.2C452.4 567.1 452.1 566.9 451.7 566.9C451.4 566.8 450.9 566.7 450.4 566.7C448.9 566.6 447.8 566.2 446.9 565.6C446.1 565 445.6 564 445.6 562.8V562.6C445.6 562 445.7 561.4 446 560.9C446.3 560.4 446.6 560 447.1 559.7C447.6 559.4 448.1 559.1 448.7 558.9C449.3 558.7 449.9 558.6 450.5 558.6C451.3 558.6 452 558.7 452.6 558.9C453.2 559.1 453.7 559.4 454.1 559.7C454.5 560 454.9 560.4 455.1 560.8C455.4 561.2 455.6 561.6 455.7 561.9L452.7 563.1C452.5 562.6 452.3 562.3 451.9 562C451.5 561.7 451 561.6 450.4 561.6C449.8 561.6 449.4 561.7 449.2 561.9C449 562.2 448.9 562.4 448.9 562.7ZM463.3 577.2H460V559.1H463.3V561H463.8C464.1 560.3 464.7 559.7 465.3 559.4C466 559 466.8 558.8 467.8 558.8C468.6 558.8 469.3 558.9 470 559.2C470.7 559.5 471.3 559.9 471.8 560.5C472.3 561.1 472.7 561.7 473 562.6C473.3 563.4 473.5 564.3 473.5 565.4V565.9C473.5 567 473.4 567.9 473.1 568.7C472.8 569.5 472.4 570.2 471.9 570.8C471.4 571.4 470.8 571.8 470.1 572.1C469.4 572.4 468.7 572.5 467.9 572.5C467.3 572.5 466.8 572.4 466.4 572.3C466 572.2 465.6 572 465.3 571.8C465 571.6 464.7 571.4 464.5 571.1C464.3 570.8 464.1 570.5 464 570.2H463.5V577.2H463.3ZM466.7 569.2C467.7 569.2 468.5 568.9 469.2 568.3C469.8 567.7 470.2 566.8 470.2 565.7V565.4C470.2 564.3 469.9 563.4 469.2 562.8C468.6 562.2 467.8 561.8 466.7 561.8C465.7 561.8 464.8 562.1 464.2 562.8C463.6 563.4 463.3 564.3 463.3 565.3V565.6C463.3 566.7 463.6 567.5 464.2 568.2C464.9 568.9 465.7 569.2 466.7 569.2ZM485 570.1C484.7 570.9 484.2 571.5 483.5 571.8C482.9 572.1 482.1 572.3 481.3 572.3C480.5 572.3 479.8 572.2 479.1 571.9C478.4 571.6 477.8 571.2 477.3 570.6C476.8 570 476.4 569.3 476.1 568.5C475.8 567.7 475.7 566.8 475.7 565.7V565.3C475.7 564.3 475.8 563.4 476.1 562.5C476.4 561.7 476.8 561 477.3 560.4C477.8 559.8 478.4 559.4 479 559.1C479.7 558.8 480.4 558.6 481.2 558.6C482.1 558.6 482.9 558.8 483.4 559.1C484 559.4 484.4 559.9 484.8 560.6H485.3V559H488.6V568C488.6 568.5 488.8 568.8 489.3 568.8H489.8V571.9H487.6C487 571.9 486.5 571.7 486.1 571.4C485.7 571.1 485.6 570.6 485.6 570L485 570.1ZM482 569.2C483 569.2 483.7 568.9 484.3 568.3C484.9 567.7 485.2 566.8 485.2 565.7V565.4C485.2 564.3 484.9 563.4 484.3 562.8C483.7 562.2 483 561.8 482 561.8C481 561.8 480.3 562.1 479.7 562.8C479.1 563.4 478.8 564.3 478.8 565.4V565.7C478.8 566.8 479.1 567.7 479.7 568.3C480.3 568.9 481.1 569.2 482 569.2ZM505.1 567.3C504.8 568.8 504.1 570.1 503 571C501.9 571.9 500.4 572.4 498.6 572.4C497.6 572.4 496.8 572.3 495.9 572C495.1 571.7 494.4 571.3 493.8 570.7C493.2 570.1 492.7 569.5 492.4 568.6C492.1 567.8 491.9 566.9 491.9 565.8V565.5C491.9 564.5 492.1 563.5 492.4 562.7C492.7 561.9 493.2 561.2 493.8 560.6C494.4 560 495.1 559.6 496 559.2C496.8 558.9 497.7 558.7 498.7 558.7C500.5 558.7 502 559.2 503.1 560.1C504.2 561 504.9 562.3 505.2 563.8L502 564.6C501.9 563.8 501.6 563.2 501 562.6C500.4 562 499.7 561.8 498.7 561.8C498.2 561.8 497.8 561.9 497.4 562.1C497 562.3 496.6 562.5 496.3 562.9C496 563.2 495.7 563.6 495.5 564.1C495.3 564.6 495.2 565.1 495.2 565.6V565.8C495.2 566.4 495.3 566.9 495.5 567.3C495.7 567.7 495.9 568.1 496.3 568.4C496.6 568.7 497 568.9 497.4 569.1C497.8 569.2 498.3 569.3 498.7 569.3C499.7 569.3 500.5 569 501 568.5C501.5 568 501.9 567.3 502 566.5L505.1 567.3ZM511.3 566.6C511.3 567 511.4 567.3 511.6 567.7C511.8 568 512 568.3 512.3 568.5C512.6 568.7 512.9 568.9 513.3 569C513.7 569.1 514.1 569.2 514.5 569.2C515.3 569.2 515.9 569.1 516.4 568.8C516.8 568.5 517.1 568.2 517.3 567.8L520.1 569.4C519.9 569.7 519.7 570.1 519.5 570.4C519.2 570.7 518.9 571.1 518.4 571.4C518 571.7 517.4 571.9 516.8 572.1C516.2 572.3 515.4 572.4 514.6 572.4C513.6 572.4 512.7 572.2 511.9 571.9C511.1 571.6 510.4 571.1 509.8 570.5C509.2 569.9 508.8 569.2 508.4 568.3C508.1 567.5 507.9 566.5 507.9 565.4V565.2C507.9 564.2 508.1 563.3 508.4 562.5C508.7 561.7 509.2 561 509.8 560.4C510.4 559.8 511.1 559.4 511.9 559.1C512.7 558.8 513.5 558.6 514.4 558.6C515.5 558.6 516.5 558.8 517.3 559.2C518.1 559.6 518.8 560.1 519.3 560.7C519.8 561.3 520.2 561.9 520.4 562.7C520.6 563.4 520.8 564.1 520.8 564.8V566.5H511.3V566.6ZM514.4 561.7C513.6 561.7 512.9 561.9 512.4 562.4C511.9 562.8 511.5 563.3 511.4 563.9H517.5C517.4 563.3 517.1 562.8 516.5 562.4C515.9 561.9 515.3 561.7 514.4 561.7ZM94.6 589.8H98V604.7H106.3V608H94.6V589.8ZM110.7 604.9H115.1V598.2H111V595.1H118.3V604.9H122V608H110.6L110.7 604.9ZM119.1 591.3C119.1 591.6 119 592 118.9 592.3C118.8 592.6 118.6 592.9 118.4 593.1C118.2 593.3 117.9 593.5 117.6 593.6C117.3 593.7 117 593.8 116.7 593.8C116.4 593.8 116 593.7 115.7 593.6C115.4 593.5 115.1 593.3 114.9 593.1C114.7 592.9 114.5 592.6 114.4 592.3C114.3 592 114.2 591.7 114.2 591.3C114.2 591 114.3 590.6 114.4 590.3C114.5 590 114.7 589.7 114.9 589.5C115.1 589.3 115.4 589.1 115.7 589C116 588.9 116.3 588.8 116.7 588.8C117 588.8 117.3 588.9 117.6 589C117.9 589.1 118.2 589.3 118.4 589.5C118.6 589.7 118.8 590 118.9 590.3C119.1 590.6 119.1 590.9 119.1 591.3ZM129.6 608H126.3V595.1H129.6V597H130.1C130.4 596.3 130.9 595.7 131.5 595.3C132.2 594.9 132.9 594.7 133.8 594.7C134.4 594.7 135 594.8 135.5 595C136.1 595.2 136.5 595.5 137 595.9C137.4 596.3 137.7 596.8 138 597.5C138.2 598.1 138.4 598.9 138.4 599.8V608H135.1V600.7C135.1 599.8 134.9 599.1 134.4 598.5C134 598 133.3 597.7 132.5 597.7C131.5 597.7 130.8 598 130.3 598.7C129.8 599.3 129.6 600.2 129.6 601.3V608ZM151 595.1H154.3V608H151V606.1H150.5C149.9 607.6 148.7 608.3 146.8 608.3C146.2 608.3 145.6 608.2 145 608C144.4 607.8 144 607.5 143.5 607C143.1 606.6 142.8 606 142.5 605.4C142.3 604.7 142.2 604 142.2 603.1V595H145.5V602.4C145.5 603.3 145.7 604 146.2 604.6C146.6 605.1 147.3 605.4 148.1 605.4C149.1 605.4 149.8 605.1 150.3 604.5C150.8 603.9 151 603 151 601.9V595.1ZM166.8 595.1H170.4L167.3 601.2V601.7L170.6 608.1H166.8L164.4 603.1H163.9L161.5 608.1H157.7L161 601.7V601.2L157.9 595.1H161.5L163.9 599.8H164.4L166.8 595.1ZM202.6 603.3C202.3 604.8 201.6 606.1 200.5 607C199.4 607.9 197.9 608.4 196.1 608.4C195.1 608.4 194.3 608.3 193.4 608C192.6 607.7 191.9 607.3 191.3 606.7C190.7 606.1 190.2 605.5 189.9 604.6C189.6 603.8 189.4 602.9 189.4 601.8V601.5C189.4 600.5 189.6 599.5 189.9 598.7C190.2 597.9 190.7 597.2 191.3 596.6C191.9 596 192.6 595.6 193.5 595.2C194.3 594.9 195.2 594.7 196.2 594.7C198 594.7 199.5 595.2 200.6 596.1C201.7 597 202.4 598.3 202.7 599.8L199.5 600.6C199.4 599.8 199.1 599.2 198.5 598.6C197.9 598 197.2 597.8 196.2 597.8C195.7 597.8 195.3 597.9 194.9 598.1C194.5 598.3 194.1 598.5 193.8 598.9C193.5 599.2 193.2 599.6 193 600.1C192.8 600.6 192.7 601.1 192.7 601.6V601.8C192.7 602.4 192.8 602.9 193 603.3C193.2 603.7 193.4 604.1 193.8 604.4C194.1 604.7 194.5 604.9 194.9 605.1C195.3 605.2 195.8 605.3 196.2 605.3C197.2 605.3 198 605 198.5 604.5C199 604 199.4 603.3 199.5 602.5L202.6 603.3ZM218.6 601.7C218.6 602.8 218.4 603.7 218.1 604.6C217.7 605.4 217.2 606.1 216.6 606.7C216 607.3 215.3 607.7 214.4 608C213.6 608.3 212.8 608.4 211.9 608.4C211 608.4 210.2 608.3 209.4 608C208.6 607.7 207.9 607.3 207.3 606.7C206.7 606.1 206.2 605.4 205.8 604.6C205.4 603.8 205.3 602.8 205.3 601.7V601.4C205.3 600.3 205.5 599.4 205.8 598.6C206.2 597.8 206.7 597.1 207.3 596.5C207.9 595.9 208.6 595.5 209.4 595.2C210.2 594.9 211.1 594.8 211.9 594.8C212.7 594.8 213.6 594.9 214.4 595.2C215.2 595.5 215.9 595.9 216.6 596.5C217.2 597.1 217.7 597.8 218.1 598.6C218.5 599.4 218.6 600.4 218.6 601.4V601.7ZM211.9 605.2C212.4 605.2 212.8 605.1 213.2 605C213.6 604.9 214 604.6 214.3 604.3C214.6 604 214.9 603.7 215 603.2C215.2 602.8 215.3 602.3 215.3 601.7V601.2C215.3 600.7 215.2 600.2 215 599.8C214.8 599.4 214.6 599 214.3 598.7C214 598.4 213.6 598.2 213.2 598C212.8 597.8 212.3 597.8 211.9 597.8C211.5 597.8 211 597.9 210.6 598C210.2 598.1 209.8 598.4 209.5 598.7C209.2 599 208.9 599.4 208.7 599.8C208.5 600.2 208.4 600.7 208.4 601.2V601.7C208.4 602.2 208.5 602.7 208.7 603.2C208.9 603.6 209.1 604 209.5 604.3C209.8 604.6 210.2 604.8 210.6 605C211 605.2 211.4 605.2 211.9 605.2ZM225.2 608H221.9V595.1H225.2V597H225.7C226 596.3 226.5 595.7 227.1 595.3C227.8 594.9 228.5 594.7 229.4 594.7C230 594.7 230.6 594.8 231.1 595C231.7 595.2 232.1 595.5 232.6 595.9C233 596.3 233.3 596.8 233.6 597.5C233.8 598.1 234 598.9 234 599.8V608H230.7V600.7C230.7 599.8 230.5 599.1 230 598.5C229.6 598 228.9 597.7 228.1 597.7C227.1 597.7 226.4 598 225.9 598.7C225.4 599.3 225.2 600.2 225.2 601.3V608ZM237.7 595.1H241.4V592.4C241.4 591.7 241.7 591 242.2 590.5C242.7 590 243.3 589.7 244.1 589.7H249.4V592.8H245.5C245 592.8 244.8 593.1 244.8 593.6V595H249.9V598.1H244.8V607.9H241.5V598.1H237.8V595.1H237.7ZM256.6 602.6C256.6 603 256.7 603.3 256.9 603.7C257.1 604 257.3 604.3 257.6 604.5C257.9 604.7 258.2 604.9 258.6 605C259 605.1 259.4 605.2 259.8 605.2C260.6 605.2 261.2 605.1 261.7 604.8C262.1 604.5 262.4 604.2 262.6 603.8L265.4 605.4C265.2 605.7 265 606.1 264.8 606.4C264.5 606.7 264.2 607.1 263.7 607.4C263.3 607.7 262.7 607.9 262.1 608.1C261.5 608.3 260.7 608.4 259.9 608.4C258.9 608.4 258 608.2 257.2 607.9C256.4 607.6 255.7 607.1 255.1 606.5C254.5 605.9 254.1 605.2 253.7 604.3C253.4 603.5 253.2 602.5 253.2 601.4V601.2C253.2 600.2 253.4 599.3 253.7 598.5C254 597.7 254.5 597 255.1 596.4C255.7 595.8 256.4 595.4 257.2 595.1C258 594.8 258.8 594.6 259.7 594.6C260.8 594.6 261.8 594.8 262.6 595.2C263.4 595.6 264.1 596.1 264.6 596.7C265.1 597.3 265.5 597.9 265.7 598.7C265.9 599.4 266.1 600.1 266.1 600.8V602.5H256.6V602.6ZM259.7 597.7C258.9 597.7 258.2 597.9 257.7 598.4C257.2 598.8 256.8 599.3 256.7 599.9H262.8C262.7 599.3 262.4 598.8 261.8 598.4C261.2 597.9 260.5 597.7 259.7 597.7ZM269 595.1H274.5V597H275C275.2 596.3 275.7 595.7 276.2 595.4C276.8 595 277.5 594.8 278.3 594.8C279.6 594.8 280.6 595.2 281.4 596C282.2 596.8 282.6 598 282.6 599.7V600.3L279.2 600.6V600.2C279.2 599.5 279 598.9 278.7 598.5C278.3 598.1 277.8 597.8 277.1 597.8C276.4 597.8 275.8 598.1 275.4 598.6C275 599.1 274.8 599.8 274.8 600.8V605H277.8V608.1H268.9V605H271.6V598.3H269V595.1ZM288.5 602.6C288.5 603 288.6 603.3 288.8 603.7C289 604 289.2 604.3 289.5 604.5C289.8 604.7 290.1 604.9 290.5 605C290.9 605.1 291.3 605.2 291.7 605.2C292.5 605.2 293.1 605.1 293.6 604.8C294 604.5 294.3 604.2 294.5 603.8L297.3 605.4C297.1 605.7 296.9 606.1 296.7 606.4C296.4 606.7 296.1 607.1 295.6 607.4C295.2 607.7 294.6 607.9 294 608.1C293.4 608.3 292.6 608.4 291.8 608.4C290.8 608.4 289.9 608.2 289.1 607.9C288.3 607.6 287.6 607.1 287 606.5C286.4 605.9 286 605.2 285.6 604.3C285.3 603.5 285.1 602.5 285.1 601.4V601.2C285.1 600.2 285.3 599.3 285.6 598.5C285.9 597.7 286.4 597 287 596.4C287.6 595.8 288.3 595.4 289.1 595.1C289.9 594.8 290.7 594.6 291.6 594.6C292.7 594.6 293.7 594.8 294.5 595.2C295.3 595.6 296 596.1 296.5 596.7C297 597.3 297.4 597.9 297.6 598.7C297.8 599.4 298 600.1 298 600.8V602.5H288.5V602.6ZM291.5 597.7C290.7 597.7 290 597.9 289.5 598.4C289 598.8 288.6 599.3 288.5 599.9H294.6C294.5 599.3 294.2 598.8 293.6 598.4C293.1 597.9 292.4 597.7 291.5 597.7ZM304.8 608H301.5V595.1H304.8V597H305.3C305.6 596.3 306.1 595.7 306.7 595.3C307.3 594.9 308.1 594.7 309 594.7C309.6 594.7 310.2 594.8 310.7 595C311.3 595.2 311.7 595.5 312.2 595.9C312.6 596.3 312.9 596.8 313.2 597.5C313.4 598.1 313.6 598.9 313.6 599.8V608H310.3V600.7C310.3 599.8 310.1 599.1 309.6 598.5C309.2 598 308.5 597.7 307.7 597.7C306.7 597.7 306 598 305.5 598.7C305 599.3 304.8 600.2 304.8 601.3V608ZM330 603.3C329.7 604.8 329 606.1 327.9 607C326.8 607.9 325.3 608.4 323.5 608.4C322.5 608.4 321.7 608.3 320.8 608C320 607.7 319.3 607.3 318.7 606.7C318.1 606.1 317.6 605.5 317.3 604.6C317 603.8 316.8 602.9 316.8 601.8V601.5C316.8 600.5 317 599.5 317.3 598.7C317.6 597.9 318.1 597.2 318.7 596.6C319.3 596 320 595.6 320.9 595.2C321.7 594.9 322.6 594.7 323.6 594.7C325.4 594.7 326.9 595.2 328 596.1C329.1 597 329.8 598.3 330.1 599.8L326.9 600.6C326.8 599.8 326.5 599.2 325.9 598.6C325.3 598 324.6 597.8 323.6 597.8C323.1 597.8 322.7 597.9 322.3 598.1C321.9 598.3 321.5 598.5 321.2 598.9C320.9 599.2 320.6 599.6 320.4 600.1C320.2 600.6 320.1 601.1 320.1 601.6V601.8C320.1 602.4 320.2 602.9 320.4 603.3C320.6 603.7 320.8 604.1 321.2 604.4C321.5 604.7 321.9 604.9 322.3 605.1C322.7 605.2 323.2 605.3 323.6 605.3C324.6 605.3 325.4 605 325.9 604.5C326.4 604 326.8 603.3 326.9 602.5L330 603.3ZM336.2 602.6C336.2 603 336.3 603.3 336.5 603.7C336.7 604 336.9 604.3 337.2 604.5C337.5 604.7 337.8 604.9 338.2 605C338.6 605.1 339 605.2 339.4 605.2C340.2 605.2 340.8 605.1 341.3 604.8C341.7 604.5 342 604.2 342.2 603.8L345 605.4C344.8 605.7 344.6 606.1 344.4 606.4C344.1 606.7 343.8 607.1 343.3 607.4C342.9 607.7 342.3 607.9 341.7 608.1C341.1 608.3 340.3 608.4 339.5 608.4C338.5 608.4 337.6 608.2 336.8 607.9C336 607.6 335.3 607.1 334.7 606.5C334.1 605.9 333.7 605.2 333.3 604.3C333 603.5 332.8 602.5 332.8 601.4V601.2C332.8 600.2 333 599.3 333.3 598.5C333.6 597.7 334.1 597 334.7 596.4C335.3 595.8 336 595.4 336.8 595.1C337.6 594.8 338.4 594.6 339.3 594.6C340.4 594.6 341.4 594.8 342.2 595.2C343 595.6 343.7 596.1 344.2 596.7C344.7 597.3 345.1 597.9 345.3 598.7C345.5 599.4 345.7 600.1 345.7 600.8V602.5H336.2V602.6ZM339.3 597.7C338.5 597.7 337.8 597.9 337.3 598.4C336.8 598.8 336.4 599.3 336.3 599.9H342.4C342.3 599.3 342 598.8 341.4 598.4C340.8 597.9 340.1 597.7 339.3 597.7Z" fill="white"/>
<path d="M662.3 109.2C663 109.2 663.6 109.1 664 108.9C664.4 108.7 664.8 108.4 665 108C665.2 107.6 665.4 107.2 665.5 106.8C665.6 106.3 665.6 105.9 665.6 105.4V104.9H669.2V105.4C669.2 107.7 668.6 109.5 667.4 110.7C666.2 111.9 664.5 112.6 662.2 112.6C660 112.6 658.3 111.9 657 110.6C655.7 109.3 655.1 107.3 655.1 104.7V100.4C655.1 99.1996 655.3 98.0996 655.6 97.0996C655.9 96.0996 656.4 95.2996 657 94.5996C657.6 93.8996 658.4 93.3996 659.3 93.0996C660.2 92.6996 661.2 92.5996 662.3 92.5996C663.4 92.5996 664.4 92.7996 665.3 93.0996C666.2 93.3996 666.9 93.8996 667.5 94.4996C668.1 95.0996 668.5 95.8996 668.8 96.7996C669.1 97.6996 669.3 98.6996 669.3 99.7996V100.3H665.7V99.7996C665.7 99.2996 665.6 98.8996 665.5 98.3996C665.4 97.8996 665.2 97.4996 665 97.1996C664.7 96.7996 664.4 96.4996 664 96.2996C663.6 96.0996 663 95.9996 662.4 95.9996C661.8 95.9996 661.3 96.0996 660.8 96.2996C660.4 96.4996 660 96.7996 659.7 97.1996C659.4 97.5996 659.2 98.0996 659.1 98.5996C659 99.0996 658.9 99.6996 658.9 100.2V105C658.9 105.6 659 106.2 659.1 106.7C659.2 107.2 659.4 107.7 659.7 108.1C660 108.5 660.3 108.8 660.8 109C661.1 109.1 661.6 109.2 662.3 109.2Z" fill="white"/>
<path d="M672 100.4C672 97.9 672.6 96 673.9 94.6C675.2 93.2 676.9 92.5 679.1 92.5C681.3 92.5 683.1 93.2 684.3 94.6C685.6 96 686.2 97.9 686.2 100.4V104.7C686.2 107.3 685.6 109.2 684.3 110.6C683 111.9 681.3 112.6 679.1 112.6C676.9 112.6 675.1 111.9 673.9 110.6C672.6 109.3 672 107.3 672 104.7V100.4ZM679 109.2C679.7 109.2 680.2 109.1 680.6 108.9C681 108.7 681.4 108.4 681.7 108C682 107.6 682.2 107.2 682.3 106.6C682.4 106.1 682.5 105.5 682.5 104.8V100.1C682.5 99.5 682.4 98.9 682.3 98.4C682.2 97.9 682 97.4 681.7 97C681.4 96.6 681.1 96.3 680.6 96.1C680.2 95.9 679.6 95.8 679 95.8C678.4 95.8 677.8 95.9 677.4 96.1C677 96.3 676.6 96.6 676.3 97C676 97.4 675.8 97.8 675.7 98.4C675.6 98.9 675.5 99.5 675.5 100.1V104.8C675.5 105.4 675.6 106 675.7 106.6C675.8 107.1 676 107.6 676.3 108C676.6 108.4 676.9 108.7 677.4 108.9C677.8 109.1 678.4 109.2 679 109.2Z" fill="white"/>
<path d="M688.1 92.9004H694.5L695.6 107.4V110.2H696.3V107.4L697.4 92.9004H703.8V112.1H700.5V99.3004L700.8 94.9004H700L698.6 112.2H693.2L691.7 94.9004H691L691.3 99.3004V112.2H688V92.9004H688.1Z" fill="white"/>
<path d="M706.3 92.9004H719.2V96.4004H714.6V108.7H719.2V112.2H706.3V108.7H710.9V96.3004H706.3V92.9004Z" fill="white"/>
<path d="M732.1 110.3H732.6V92.9004H736.2V112.1H729.1L726.8 94.7004H726.3V112.1H722.7V92.9004H729.8L732.1 110.3Z" fill="white"/>
<path d="M745.1 102.4H753.3V112.1H750V110H749.5C749.3 110.7 748.9 111.3 748.2 111.8C747.6 112.3 746.6 112.5 745.4 112.5C744.5 112.5 743.7 112.3 742.9 112C742.1 111.7 741.5 111.2 740.9 110.5C740.3 109.8 739.9 109 739.6 108.1C739.3 107.1 739.1 106 739.1 104.7V100.2C739.1 99 739.3 97.8 739.6 96.9C740 95.9 740.5 95.1 741.1 94.5C741.7 93.8 742.5 93.3 743.4 93C744.3 92.7 745.3 92.5 746.3 92.5C747.4 92.5 748.4 92.7 749.2 93C750 93.3 750.8 93.9 751.4 94.5C752 95.1 752.5 95.9 752.8 96.7C753.1 97.6 753.3 98.5 753.3 99.4V99.7H749.7V99.4C749.7 98.2 749.4 97.4 748.8 96.8C748.2 96.2 747.4 95.9 746.3 95.9C745.3 95.9 744.4 96.2 743.8 96.9C743.1 97.6 742.8 98.8 742.8 100.4V104.5C742.8 107.5 744 109 746.4 109C747.5 109 748.3 108.7 748.9 108.1C749.5 107.5 749.7 106.7 749.7 105.8H745.1V102.4Z" fill="white"/>
<path d="M772.8 108.7H774.6V96.2998H772.8V92.7998H781.2C782.1 92.7998 782.9 92.8998 783.6 93.1998C784.3 93.4998 784.9 93.7998 785.4 94.1998C785.9 94.5998 786.3 95.1998 786.5 95.7998C786.7 96.3998 786.9 97.0998 786.9 97.7998V98.0998C786.9 99.1998 786.6 100.1 786 100.7C785.4 101.4 784.6 101.8 783.7 102.1V102.6C784.6 102.9 785.4 103.3 786 104C786.6 104.7 786.9 105.6 786.9 106.7V107C786.9 107.7 786.8 108.4 786.5 109C786.3 109.6 785.9 110.1 785.4 110.6C784.9 111 784.3 111.4 783.6 111.7C782.9 112 782.1 112.1 781.2 112.1H772.8V108.7ZM778.3 100.7H780.9C781.7 100.7 782.3 100.5 782.8 100.2C783.3 99.8998 783.5 99.2998 783.5 98.5998V98.3998C783.5 97.5998 783.3 97.0998 782.8 96.7998C782.3 96.4998 781.7 96.2998 780.9 96.2998H778.3V100.7ZM778.3 108.7H780.9C781.7 108.7 782.3 108.5 782.8 108.2C783.3 107.9 783.5 107.3 783.5 106.5V106.3C783.5 105.5 783.3 105 782.8 104.7C782.3 104.4 781.7 104.2 780.9 104.2H778.3V108.7Z" fill="white"/>
<path d="M800.1 108H793.6L792.7 112.1H788.9L793.5 92.9004H800.3L804.9 112.1H801L800.1 108ZM794.3 104.5H799.3L797.1 94.7004H796.6L794.3 104.5Z" fill="white"/>
<path d="M813.7 109.2C814.4 109.2 815 109.1 815.4 108.9C815.8 108.7 816.2 108.4 816.4 108C816.6 107.6 816.8 107.2 816.9 106.8C817 106.3 817 105.9 817 105.4V104.9H820.6V105.4C820.6 107.7 820 109.5 818.8 110.7C817.6 111.9 815.9 112.6 813.6 112.6C811.4 112.6 809.7 111.9 808.4 110.6C807.1 109.3 806.5 107.3 806.5 104.7V100.4C806.5 99.1996 806.7 98.0996 807 97.0996C807.3 96.0996 807.8 95.2996 808.4 94.5996C809 93.8996 809.8 93.3996 810.7 93.0996C811.6 92.6996 812.6 92.5996 813.7 92.5996C814.8 92.5996 815.8 92.7996 816.7 93.0996C817.6 93.3996 818.3 93.8996 818.9 94.4996C819.5 95.0996 819.9 95.8996 820.2 96.7996C820.5 97.6996 820.7 98.6996 820.7 99.7996V100.3H817.1V99.7996C817.1 99.2996 817 98.8996 816.9 98.3996C816.8 97.8996 816.6 97.4996 816.4 97.1996C816.1 96.7996 815.8 96.4996 815.4 96.2996C815 96.0996 814.4 95.9996 813.8 95.9996C813.2 95.9996 812.7 96.0996 812.2 96.2996C811.8 96.4996 811.4 96.7996 811.1 97.1996C810.8 97.5996 810.6 98.0996 810.5 98.5996C810.4 99.0996 810.3 99.6996 810.3 100.2V105C810.3 105.6 810.4 106.2 810.5 106.7C810.6 107.2 810.8 107.7 811.1 108.1C811.4 108.5 811.7 108.8 812.2 109C812.5 109.1 813 109.2 813.7 109.2Z" fill="white"/>
<path d="M827.8 112.1H824.2V92.9004H827.8V100.8H828.6L833.7 92.9004H837.8V93.0004L831.9 102.2V102.7L838.2 111.9V112.1H833.9L828.7 104.2H827.9V112.1H827.8Z" fill="white"/>
<path d="M689.4 125.9H702.3V129.4H697.7V141.7H702.3V145.2H689.4V141.7H694V129.4H689.4V125.9Z" fill="white"/>
<path d="M715.3 143.3H715.8V125.9H719.4V145.1H712.3L710 127.7H709.5V145.1H706V125.9H713.1L715.3 143.3Z" fill="white"/>
<path d="M753.039 141.598V145H739.755V141.274C739.755 140.284 739.899 139.438 740.187 138.736C740.493 138.034 740.916 137.44 741.456 136.954C742.014 136.468 742.68 136.072 743.454 135.766C744.228 135.442 745.101 135.172 746.073 134.956C746.793 134.794 747.378 134.614 747.828 134.416C748.296 134.2 748.665 133.966 748.935 133.714C749.205 133.444 749.385 133.156 749.475 132.85C749.583 132.526 749.637 132.166 749.637 131.77C749.637 131.014 749.358 130.384 748.8 129.88C748.26 129.376 747.504 129.124 746.532 129.124C745.506 129.124 744.687 129.439 744.075 130.069C743.463 130.681 743.157 131.536 743.157 132.634V133.822H739.593V132.31C739.593 131.428 739.746 130.591 740.052 129.799C740.376 128.989 740.826 128.287 741.402 127.693C741.996 127.081 742.716 126.604 743.562 126.262C744.408 125.902 745.362 125.722 746.424 125.722C747.558 125.722 748.548 125.893 749.394 126.235C750.24 126.559 750.942 126.991 751.5 127.531C752.076 128.071 752.499 128.701 752.769 129.421C753.057 130.123 753.201 130.852 753.201 131.608V131.932C753.201 133.516 752.751 134.83 751.851 135.874C750.969 136.918 749.52 137.674 747.504 138.142C746.658 138.34 745.956 138.547 745.398 138.763C744.858 138.961 744.435 139.186 744.129 139.438C743.823 139.69 743.607 139.969 743.481 140.275C743.373 140.563 743.319 140.896 743.319 141.274V141.598H753.039ZM760.526 135.55C760.526 134.938 760.751 134.407 761.201 133.957C761.651 133.507 762.182 133.282 762.794 133.282C763.406 133.282 763.937 133.507 764.387 133.957C764.837 134.407 765.062 134.938 765.062 135.55C765.062 136.162 764.837 136.693 764.387 137.143C763.937 137.593 763.406 137.818 762.794 137.818C762.182 137.818 761.651 137.593 761.201 137.143C760.751 136.693 760.526 136.162 760.526 135.55ZM755.828 133.444C755.828 130.996 756.44 129.097 757.664 127.747C758.906 126.397 760.616 125.722 762.794 125.722C764.972 125.722 766.673 126.397 767.897 127.747C769.139 129.097 769.76 130.996 769.76 133.444V137.656C769.76 140.176 769.139 142.093 767.897 143.407C766.673 144.721 764.972 145.378 762.794 145.378C760.616 145.378 758.906 144.721 757.664 143.407C756.44 142.093 755.828 140.176 755.828 137.656V133.444ZM762.794 142.138C763.442 142.138 763.982 142.039 764.414 141.841C764.846 141.625 765.197 141.328 765.467 140.95C765.737 140.572 765.926 140.122 766.034 139.6C766.142 139.078 766.196 138.502 766.196 137.872V133.228C766.196 132.634 766.133 132.076 766.007 131.554C765.881 131.032 765.683 130.582 765.413 130.204C765.143 129.826 764.792 129.529 764.36 129.313C763.928 129.079 763.406 128.962 762.794 128.962C762.182 128.962 761.66 129.079 761.228 129.313C760.796 129.529 760.445 129.826 760.175 130.204C759.905 130.582 759.707 131.032 759.581 131.554C759.455 132.076 759.392 132.634 759.392 133.228V137.872C759.392 138.502 759.446 139.078 759.554 139.6C759.662 140.122 759.851 140.572 760.121 140.95C760.391 141.328 760.742 141.625 761.174 141.841C761.606 142.039 762.146 142.138 762.794 142.138ZM786.103 141.598V145H772.819V141.274C772.819 140.284 772.963 139.438 773.251 138.736C773.557 138.034 773.98 137.44 774.52 136.954C775.078 136.468 775.744 136.072 776.518 135.766C777.292 135.442 778.165 135.172 779.137 134.956C779.857 134.794 780.442 134.614 780.892 134.416C781.36 134.2 781.729 133.966 781.999 133.714C782.269 133.444 782.449 133.156 782.539 132.85C782.647 132.526 782.701 132.166 782.701 131.77C782.701 131.014 782.422 130.384 781.864 129.88C781.324 129.376 780.568 129.124 779.596 129.124C778.57 129.124 777.751 129.439 777.139 130.069C776.527 130.681 776.221 131.536 776.221 132.634V133.822H772.657V132.31C772.657 131.428 772.81 130.591 773.116 129.799C773.44 128.989 773.89 128.287 774.466 127.693C775.06 127.081 775.78 126.604 776.626 126.262C777.472 125.902 778.426 125.722 779.488 125.722C780.622 125.722 781.612 125.893 782.458 126.235C783.304 126.559 784.006 126.991 784.564 127.531C785.14 128.071 785.563 128.701 785.833 129.421C786.121 130.123 786.265 130.852 786.265 131.608V131.932C786.265 133.516 785.815 134.83 784.915 135.874C784.033 136.918 782.584 137.674 780.568 138.142C779.722 138.34 779.02 138.547 778.462 138.763C777.922 138.961 777.499 139.186 777.193 139.438C776.887 139.69 776.671 139.969 776.545 140.275C776.437 140.563 776.383 140.896 776.383 141.274V141.598H786.103ZM794.023 136.9V131.284L798.721 129.988V129.502H789.325V126.1H801.637V132.04L796.615 133.498V133.984H797.263C797.929 133.984 798.586 134.092 799.234 134.308C799.882 134.506 800.449 134.821 800.935 135.253C801.439 135.685 801.844 136.225 802.15 136.873C802.456 137.503 802.609 138.25 802.609 139.114V139.438C802.609 140.284 802.465 141.067 802.177 141.787C801.907 142.507 801.493 143.137 800.935 143.677C800.395 144.199 799.72 144.613 798.91 144.919C798.1 145.225 797.173 145.378 796.129 145.378C795.067 145.378 794.104 145.207 793.24 144.865C792.376 144.523 791.638 144.055 791.026 143.461C790.432 142.867 789.973 142.183 789.649 141.409C789.325 140.635 789.163 139.816 789.163 138.952V137.818H792.727V138.79C792.727 139.654 793.006 140.401 793.564 141.031C794.122 141.661 794.959 141.976 796.075 141.976C797.029 141.976 797.758 141.733 798.262 141.247C798.784 140.761 799.045 140.122 799.045 139.33C799.045 138.484 798.766 137.872 798.208 137.494C797.668 137.098 796.975 136.9 796.129 136.9H794.023Z" fill="white"/>
</g>
<defs>
<clipPath id="clip0_1176_3167">
<rect width="899" height="617" fill="white"/>
</clipPath>
</defs>
</svg>
