<?xml version="1.0" encoding="UTF-8" standalone="no"?>
<!DOCTYPE svg PUBLIC "-//W3C//DTD SVG 1.1//EN" "http://www.w3.org/Graphics/SVG/1.1/DTD/svg11.dtd">
<svg width="100%" height="100%" viewBox="0 0 899 617" version="1.1" xmlns="http://www.w3.org/2000/svg" xmlns:xlink="http://www.w3.org/1999/xlink" xml:space="preserve" xmlns:serif="http://www.serif.com/" style="fill-rule:evenodd;clip-rule:evenodd;stroke-linejoin:round;stroke-miterlimit:2;">
    <g>
        <path d="M33.5,244C51.173,244 65.5,229.673 65.5,212C65.5,194.327 51.173,180 33.5,180C15.827,180 1.5,194.327 1.5,212C1.5,229.673 15.827,244 33.5,244Z" style="fill:white;fill-rule:nonzero;"/>
        <path d="M33.5,330C51.173,330 65.5,315.673 65.5,298C65.5,280.327 51.173,266 33.5,266C15.827,266 1.5,280.327 1.5,298C1.5,315.673 15.827,330 33.5,330Z" style="fill:rgb(117,250,76);fill-rule:nonzero;"/>
        <path d="M207.5,330C225.173,330 239.5,315.673 239.5,298C239.5,280.327 225.173,266 207.5,266C189.827,266 175.5,280.327 175.5,298C175.5,315.673 189.827,330 207.5,330Z" style="fill:rgb(117,250,76);fill-rule:nonzero;"/>
        <path d="M584.5,154C602.173,154 616.5,139.673 616.5,122C616.5,104.327 602.173,90 584.5,90C566.827,90 552.5,104.327 552.5,122C552.5,139.673 566.827,154 584.5,154Z" style="fill:rgb(117,250,76);fill-rule:nonzero;"/>
        <path d="M33.5,614C51.173,614 65.5,599.673 65.5,582C65.5,564.327 51.173,550 33.5,550C15.827,550 1.5,564.327 1.5,582C1.5,599.673 15.827,614 33.5,614Z" style="fill:white;fill-rule:nonzero;"/>
        <path d="M33.5,515C51.173,515 65.5,500.673 65.5,483C65.5,465.327 51.173,451 33.5,451C15.827,451 1.5,465.327 1.5,483C1.5,500.673 15.827,515 33.5,515Z" style="fill:rgb(0,32,245);fill-rule:nonzero;"/>
        <path d="M768.5,242C786.173,242 800.5,227.673 800.5,210C800.5,192.327 786.173,178 768.5,178C750.827,178 736.5,192.327 736.5,210C736.5,227.673 750.827,242 768.5,242Z" style="fill:rgb(230,54,35);fill-rule:nonzero;"/>
        <path d="M687.5,64C705.173,64 719.5,49.673 719.5,32C719.5,14.327 705.173,0 687.5,0C669.827,0 655.5,14.327 655.5,32C655.5,49.673 669.827,64 687.5,64Z" style="fill:rgb(0,32,245);fill-rule:nonzero;"/>
        <path d="M490.5,154C508.173,154 522.5,139.673 522.5,122C522.5,104.327 508.173,90 490.5,90C472.827,90 458.5,104.327 458.5,122C458.5,139.673 472.827,154 490.5,154Z" style="fill:white;fill-rule:nonzero;"/>
        <path d="M129.6,142.2L109.4,142.2L106.5,155L94.8,155L109,95.5L130,95.5L144.2,155L132.5,155L129.6,142.2ZM111.8,131.5L127.2,131.5L120.3,101.1L118.8,101.1L111.8,131.5Z" style="fill:white;fill-rule:nonzero;"/>
        <path d="M100.4,180.5L111.6,180.5L111.6,229.3L138.6,229.3L138.6,240L100.4,240L100.4,180.5Z" style="fill:white;fill-rule:nonzero;"/>
        <path d="M103.4,268.5L114.6,268.5L114.6,317.3L141.6,317.3L141.6,328L103.3,328L103.4,268.5Z" style="fill:white;fill-rule:nonzero;"/>
        <path d="M678.5,297.9L704.1,297.9L704.1,328L693.9,328L693.9,321.4L692.4,321.4C691.7,323.6 690.4,325.5 688.5,327C686.6,328.5 683.7,329.2 679.8,329.2C677.1,329.2 674.5,328.7 672.1,327.7C669.7,326.7 667.7,325.2 665.9,323.2C664.1,321.2 662.8,318.7 661.7,315.7C660.7,312.7 660.2,309.2 660.2,305.2L660.2,291.3C660.2,287.4 660.7,284 661.8,281.1C662.9,278.1 664.5,275.6 666.4,273.5C668.4,271.5 670.7,269.9 673.5,268.9C676.2,267.8 679.2,267.3 682.5,267.3C685.9,267.3 688.9,267.9 691.6,269C694.3,270.1 696.5,271.6 698.4,273.6C700.3,275.5 701.7,277.8 702.6,280.5C703.6,283.1 704,285.9 704,288.9L704,289.9L692.8,289.9L692.8,288.9C692.8,285.3 691.9,282.6 690,280.8C688.2,278.9 685.6,278 682.3,278C679.1,278 676.5,279.1 674.5,281.2C672.5,283.3 671.4,286.9 671.4,292.1L671.4,304.7C671.4,313.9 675.1,318.5 682.6,318.5C685.9,318.5 688.5,317.6 690.2,315.9C692,314.1 692.8,311.7 692.8,308.7L678.5,308.7L678.5,297.9Z" style="fill:white;fill-rule:nonzero;"/>
        <path d="M761.3,298.2C761.3,296.3 762,294.6 763.4,293.2C764.8,291.8 766.5,291.1 768.4,291.1C770.3,291.1 772,291.8 773.4,293.2C774.8,294.6 775.5,296.3 775.5,298.2C775.5,300.1 774.8,301.8 773.4,303.2C772,304.6 770.3,305.3 768.4,305.3C766.5,305.3 764.8,304.6 763.4,303.2C762.1,301.8 761.3,300.2 761.3,298.2ZM746.6,291.6C746.6,283.9 748.5,277.9 752.4,273.7C756.3,269.5 761.7,267.3 768.6,267.3C775.5,267.3 780.8,269.4 784.7,273.7C788.6,277.9 790.6,283.9 790.6,291.6L790.6,304.9C790.6,312.8 788.6,318.9 784.7,323C780.8,327.1 775.5,329.2 768.6,329.2C761.7,329.2 756.4,327.1 752.4,323C748.5,318.9 746.6,312.8 746.6,304.9L746.6,291.6ZM768.5,319C770.5,319 772.2,318.7 773.6,318.1C775,317.4 776.1,316.5 776.9,315.3C777.8,314.1 778.3,312.7 778.7,311.1C779,309.5 779.2,307.6 779.2,305.7L779.2,291.1C779.2,289.2 779,287.5 778.6,285.8C778.2,284.2 777.6,282.7 776.7,281.6C775.9,280.4 774.7,279.5 773.4,278.8C772,278.1 770.4,277.7 768.5,277.7C766.6,277.7 764.9,278.1 763.6,278.8C762.2,279.5 761.1,280.4 760.3,281.6C759.5,282.8 758.8,284.2 758.4,285.8C758,287.4 757.8,289.2 757.8,291.1L757.8,305.7C757.8,307.7 758,309.5 758.3,311.1C758.6,312.7 759.2,314.2 760.1,315.3C760.9,316.5 762.1,317.4 763.4,318.1C764.7,318.7 766.4,319 768.5,319Z" style="fill:white;fill-rule:nonzero;"/>
        <path d="M868.1,267.5L868.1,309L856.9,309L856.9,267.5L868.1,267.5ZM870.6,320.1C870.6,321.2 870.4,322.3 869.9,323.3C869.5,324.3 868.9,325.1 868.2,325.8C867.5,326.5 866.6,327 865.6,327.4C864.6,327.9 863.6,328.1 862.5,328.1C861.4,328.1 860.3,327.9 859.4,327.4C858.4,327 857.6,326.5 856.9,325.8C856.2,325.1 855.6,324.2 855.1,323.3C854.7,322.3 854.5,321.2 854.5,320.1C854.5,319 854.7,317.9 855.1,317C855.6,316 856.1,315.1 856.9,314.5C857.6,313.8 858.5,313.2 859.4,312.8C860.4,312.3 861.4,312.1 862.5,312.1C863.6,312.1 864.6,312.3 865.6,312.8C866.6,313.2 867.5,313.8 868.2,314.5C868.9,315.2 869.5,316 869.9,317C870.3,317.9 870.6,319 870.6,320.1Z" style="fill:white;fill-rule:nonzero;"/>
        <path d="M129.7,378.7C129.7,376.3 128.8,374.3 126.9,372.5C125.1,370.7 122.5,369.9 119.2,369.9C116.4,369.9 114.1,370.5 112.5,371.7C110.9,372.8 110,374.4 110,376.4C110,377.4 110.2,378.4 110.6,379.2C111,380 111.7,380.7 112.6,381.4C113.6,382 114.9,382.6 116.5,383.1C118.1,383.6 120.2,384.1 122.7,384.5C128.9,385.6 133.7,387.5 137,390.2C140.3,392.9 141.9,396.8 141.9,402L141.9,403C141.9,405.8 141.4,408.3 140.4,410.6C139.4,412.8 138,414.7 136.2,416.3C134.3,417.9 132.1,419.1 129.4,420C126.7,420.9 123.7,421.3 120.4,421.3C116.5,421.3 113,420.8 110,419.7C107.1,418.6 104.6,417 102.6,415.1C100.6,413.1 99.1,410.8 98.1,408.2C97.1,405.5 96.6,402.6 96.6,399.5L96.6,397L107.8,397L107.8,399C107.8,402.6 108.8,405.4 110.9,407.6C113,409.7 116.2,410.7 120.6,410.7C124,410.7 126.5,410 128.2,408.5C129.8,407 130.7,405.3 130.7,403.2C130.7,402.2 130.5,401.3 130.2,400.5C129.9,399.6 129.3,398.8 128.4,398.1C127.5,397.4 126.4,396.7 124.9,396.1C123.4,395.5 121.6,395.1 119.3,394.7C116.3,394.2 113.5,393.5 111.1,392.7C108.6,391.8 106.4,390.7 104.6,389.4C102.8,388 101.4,386.3 100.4,384.3C99.4,382.3 98.9,379.8 98.9,376.8L98.9,376.3C98.9,373.9 99.4,371.6 100.3,369.6C101.3,367.5 102.7,365.7 104.5,364.2C106.3,362.7 108.5,361.5 111,360.6C113.5,359.7 116.4,359.3 119.5,359.3C123,359.3 126.1,359.8 128.9,360.8C131.6,361.8 133.9,363.1 135.7,364.8C137.6,366.5 139,368.5 139.9,370.7C140.9,372.9 141.3,375.2 141.3,377.7L141.3,380.8L130.1,380.8L130.1,378.7L129.7,378.7Z" style="fill:white;fill-rule:nonzero;"/>
        <path d="M201.9,399.1L199.3,399.1L182.2,360.5L194.4,360.5L206.6,388.9L208.1,388.9L220.3,360.5L232.5,360.5L215.4,399.1L212.8,399.1L212.8,420L201.6,420L201.6,399.1L201.9,399.1Z" style="fill:white;fill-rule:nonzero;"/>
        <path d="M308.7,378.7C308.7,376.3 307.8,374.3 305.9,372.5C304.1,370.7 301.5,369.9 298.2,369.9C295.4,369.9 293.1,370.5 291.5,371.7C289.9,372.8 289,374.4 289,376.4C289,377.4 289.2,378.4 289.6,379.2C290,380 290.7,380.7 291.6,381.4C292.6,382 293.9,382.6 295.5,383.1C297.1,383.6 299.2,384.1 301.7,384.5C307.9,385.6 312.7,387.5 316,390.2C319.3,392.9 320.9,396.8 320.9,402L320.9,403C320.9,405.8 320.4,408.3 319.4,410.6C318.4,412.8 317,414.7 315.2,416.3C313.3,417.9 311.1,419.1 308.4,420C305.7,420.9 302.7,421.3 299.4,421.3C295.5,421.3 292,420.8 289,419.7C286.1,418.6 283.6,417 281.6,415.1C279.6,413.1 278.1,410.8 277.1,408.2C276.1,405.5 275.6,402.6 275.6,399.5L275.6,397L286.8,397L286.8,399C286.8,402.6 287.8,405.4 289.9,407.6C292,409.7 295.2,410.7 299.6,410.7C303,410.7 305.5,410 307.2,408.5C308.9,407 309.7,405.3 309.7,403.2C309.7,402.2 309.5,401.3 309.2,400.5C308.9,399.6 308.3,398.8 307.4,398.1C306.5,397.4 305.4,396.7 303.9,396.1C302.4,395.5 300.6,395.1 298.3,394.7C295.3,394.2 292.5,393.5 290.1,392.7C287.6,391.8 285.4,390.7 283.6,389.4C281.8,388 280.4,386.3 279.4,384.3C278.4,382.3 277.9,379.8 277.9,376.8L277.9,376.3C277.9,373.9 278.4,371.6 279.3,369.6C280.3,367.5 281.7,365.7 283.5,364.2C285.3,362.7 287.5,361.5 290,360.6C292.5,359.7 295.4,359.3 298.5,359.3C302,359.3 305.1,359.8 307.9,360.8C310.6,361.8 312.9,363.1 314.7,364.8C316.6,366.5 318,368.5 318.9,370.7C319.9,372.9 320.3,375.2 320.3,377.7L320.3,380.8L309.1,380.8L309.1,378.7L308.7,378.7Z" style="fill:white;fill-rule:nonzero;"/>
        <path d="M374.1,360.5L416.9,360.5L416.9,371.2L401.1,371.2L401.1,420L389.9,420L389.9,371.2L374.1,371.2L374.1,360.5Z" style="fill:white;fill-rule:nonzero;"/>
        <path d="M474.4,360.5L512,360.5L512,371.2L485.7,371.2L485.7,384.8L511,384.8L511,395.5L485.7,395.5L485.7,409.3L513,409.3L513,420L474.4,420L474.4,360.5Z" style="fill:white;fill-rule:nonzero;"/>
        <path d="M560.3,360.5L580,360.5L583.4,405.2L583.4,413.9L585.4,413.9L585.4,405.2L588.8,360.5L608.5,360.5L608.5,420L598.3,420L598.3,380.2L599.3,366.6L597.3,366.6L593,420L576.2,420L571.6,366.6L569.6,366.6L570.6,380.2L570.6,420L560.4,420L560.4,360.5L560.3,360.5Z" style="fill:white;fill-rule:nonzero;"/>
        <path d="M692.7,378.7C692.7,376.3 691.8,374.3 689.9,372.5C688.1,370.7 685.5,369.9 682.2,369.9C679.4,369.9 677.1,370.5 675.5,371.7C673.9,372.8 673,374.4 673,376.4C673,377.4 673.2,378.4 673.6,379.2C674,380 674.7,380.7 675.6,381.4C676.6,382 677.9,382.6 679.5,383.1C681.1,383.6 683.2,384.1 685.7,384.5C691.9,385.6 696.7,387.5 700,390.2C703.3,392.9 704.9,396.8 704.9,402L704.9,403C704.9,405.8 704.4,408.3 703.4,410.6C702.4,412.8 701,414.7 699.2,416.3C697.3,417.9 695.1,419.1 692.4,420C689.7,420.9 686.7,421.3 683.4,421.3C679.5,421.3 676,420.8 673,419.7C670.1,418.6 667.6,417 665.6,415.1C663.6,413.1 662.1,410.8 661.1,408.2C660.1,405.5 659.6,402.6 659.6,399.5L659.6,397L670.8,397L670.8,399C670.8,402.6 671.8,405.4 673.9,407.6C676,409.7 679.2,410.7 683.6,410.7C687,410.7 689.5,410 691.2,408.5C692.9,407 693.7,405.3 693.7,403.2C693.7,402.2 693.5,401.3 693.2,400.5C692.9,399.6 692.3,398.8 691.4,398.1C690.6,397.4 689.4,396.7 687.9,396.1C686.4,395.5 684.6,395.1 682.3,394.7C679.3,394.2 676.5,393.5 674.1,392.7C671.6,391.8 669.4,390.7 667.6,389.4C665.8,388 664.4,386.3 663.4,384.3C662.4,382.3 661.9,379.8 661.9,376.8L661.9,376.3C661.9,373.9 662.4,371.6 663.3,369.6C664.3,367.5 665.7,365.7 667.5,364.2C669.3,362.7 671.5,361.5 674,360.6C676.6,359.7 679.4,359.3 682.5,359.3C686,359.3 689.1,359.8 691.9,360.8C694.6,361.8 696.9,363.1 698.7,364.8C700.6,366.5 702,368.5 702.9,370.7C703.9,372.9 704.3,375.2 704.3,377.7L704.3,380.8L693.1,380.8L693.1,378.7L692.7,378.7Z" style="fill:white;fill-rule:nonzero;"/>
        <path d="M243.5,481C243.5,481.8 242.8,482.4 242.1,482.4L230.3,482.4C229.5,482.4 228.9,481.7 228.9,481C228.9,480.2 229.6,479.6 230.3,479.6L242.1,479.6C242.9,479.6 243.5,480.2 243.5,481Z" style="fill:rgb(238,37,36);fill-rule:nonzero;"/>
        <path d="M188.1,481C188.1,481.8 187.4,482.4 186.7,482.4L174.8,482.4C174,482.4 173.4,481.7 173.4,481C173.4,480.2 174.1,479.6 174.8,479.6L186.6,479.6C187.5,479.6 188.1,480.2 188.1,481Z" style="fill:rgb(238,37,36);fill-rule:nonzero;"/>
        <path d="M209.9,502.8L209.9,514.6C209.9,515.4 209.2,515.9 208.5,515.9C207.7,515.9 207.1,515.2 207.1,514.6L207.1,502.8C207.1,502 207.8,501.4 208.5,501.4C209.3,501.4 209.9,502 209.9,502.8Z" style="fill:rgb(238,37,36);fill-rule:nonzero;"/>
        <path d="M209.9,447.4L209.9,459.2C209.9,460 209.2,460.6 208.5,460.6C207.7,460.6 207.1,459.9 207.1,459.2L207.1,447.4C207.1,446.6 207.8,446 208.5,446C209.3,446 209.9,446.7 209.9,447.4Z" style="fill:rgb(238,37,36);fill-rule:nonzero;"/>
        <path d="M222.2,512.3C222.2,512.9 221.9,513.4 221.3,513.7C220.6,514 219.7,513.6 219.5,512.9L215.1,501.9C214.8,501.2 215.2,500.3 215.9,500.1C216.6,499.8 217.5,500.2 217.7,500.9L222.1,511.9C222.2,511.9 222.2,512.1 222.2,512.3Z" style="fill:rgb(238,37,36);fill-rule:nonzero;"/>
        <path d="M201.9,460.7C201.9,461.3 201.6,461.8 201,462C200.3,462.3 199.4,461.9 199.2,461.2L194.9,450.2C194.6,449.5 195,448.6 195.7,448.4C196.4,448.2 197.3,448.5 197.5,449.2L201.9,460.2L201.9,460.7Z" style="fill:rgb(238,37,36);fill-rule:nonzero;"/>
        <path d="M240.6,494.7C240.6,494.9 240.6,495 240.5,495.3C240.2,496 239.4,496.3 238.7,496L227.9,491.2C227.2,490.9 226.9,490.1 227.2,489.4C227.5,488.7 228.3,488.4 229,488.7L239.8,493.5C240.2,493.7 240.6,494.3 240.6,494.7Z" style="fill:rgb(238,37,36);fill-rule:nonzero;"/>
        <path d="M190,472.1C190,472.3 190,472.4 189.9,472.7C189.6,473.4 188.8,473.7 188.1,473.4L177.2,468.6C176.5,468.3 176.2,467.5 176.5,466.8C176.8,466.1 177.6,465.8 178.3,466.1L189.1,470.9C189.7,471.1 190,471.5 190,472.1Z" style="fill:rgb(238,37,36);fill-rule:nonzero;"/>
        <path d="M232.9,505.4C232.9,505.7 232.8,506.2 232.4,506.4C231.8,507 230.9,506.9 230.4,506.3L222.4,497.7C221.8,497.1 221.8,496.2 222.4,495.8C223,495.2 223.9,495.3 224.4,495.8L232.5,504.5C232.8,504.7 232.9,505.1 232.9,505.4Z" style="fill:rgb(238,37,36);fill-rule:nonzero;"/>
        <path d="M195,465.1C195,465.4 194.9,465.9 194.6,466.1C194,466.7 193.1,466.6 192.6,466L184.5,457.3C183.9,456.8 184.1,455.9 184.6,455.5C185.2,454.9 185.9,454.9 186.5,455.5L194.6,464.2C194.9,464.5 195,464.8 195,465.1Z" style="fill:rgb(238,37,36);fill-rule:nonzero;"/>
        <path d="M202.1,501.4C202.1,501.5 202.1,501.7 202,501.9L197.7,512.9C197.5,513.6 196.6,514 195.9,513.7C195.2,513.5 194.8,512.6 195.1,511.9L199.4,500.9C199.6,500.2 200.5,499.8 201.2,500.1C201.7,500.2 202.1,500.8 202.1,501.4Z" style="fill:rgb(238,37,36);fill-rule:nonzero;"/>
        <path d="M221.9,449.6C221.9,449.7 221.9,449.9 221.8,450L217.5,461C217.3,461.7 216.4,462.1 215.7,461.8C215,461.6 214.6,460.7 214.9,460L219.2,449C219.4,448.3 220.3,447.9 221,448.2C221.6,448.5 221.9,449 221.9,449.6Z" style="fill:rgb(238,37,36);fill-rule:nonzero;"/>
        <path d="M194.4,496.4C194.4,496.7 194.3,497.1 193.9,497.4L185.5,505.7C184.9,506.3 184,506.3 183.5,505.7C182.9,505.1 182.9,504.2 183.5,503.7L191.8,495.4C192.4,494.8 193.3,494.8 193.8,495.4C194.3,495.6 194.4,496.1 194.4,496.4Z" style="fill:rgb(238,37,36);fill-rule:nonzero;"/>
        <path d="M233.7,457.3C233.7,457.6 233.6,458 233.3,458.3L224.9,466.6C224.3,467.2 223.4,467.2 222.9,466.6C222.3,466 222.3,465.1 222.9,464.6L231.3,456.3C231.9,455.7 232.8,455.7 233.3,456.3C233.6,456.6 233.7,456.9 233.7,457.3Z" style="fill:rgb(238,37,36);fill-rule:nonzero;"/>
        <path d="M189.8,489.3C189.8,489.9 189.5,490.3 188.9,490.5L178,495C177.3,495.3 176.4,495 176.2,494.2C175.9,493.5 176.2,492.6 177,492.4L187.9,487.9C188.6,487.6 189.5,487.9 189.7,488.7C189.7,489 189.8,489.1 189.8,489.3Z" style="fill:rgb(238,37,36);fill-rule:nonzero;"/>
        <path d="M241,468.2C241,468.8 240.7,469.2 240.1,469.4L229.2,473.9C228.5,474.2 227.6,473.9 227.4,473.1C227.1,472.4 227.4,471.5 228.2,471.3L239.1,466.8C239.8,466.5 240.7,466.8 240.9,467.6C240.9,467.8 241,468.1 241,468.2Z" style="fill:rgb(238,37,36);fill-rule:nonzero;"/>
        <path d="M898.5,211C898.5,211.8 897.8,212.4 897.2,212.4L885.4,212.4C884.6,212.4 884,211.7 884,211C884,210.2 884.7,209.6 885.4,209.6L897.2,209.6C897.9,209.6 898.5,210.2 898.5,211Z" style="fill:rgb(117,250,76);fill-rule:nonzero;"/>
        <path d="M843.1,211C843.1,211.8 842.4,212.4 841.8,212.4L829.9,212.4C829.1,212.4 828.6,211.7 828.6,211C828.6,210.2 829.3,209.6 829.9,209.6L841.7,209.6C842.5,209.6 843.1,210.2 843.1,211Z" style="fill:rgb(117,250,76);fill-rule:nonzero;"/>
        <path d="M864.8,232.8L864.8,244.6C864.8,245.4 864.1,246 863.5,246C862.7,246 862.2,245.3 862.2,244.6L862.2,232.8C862.2,232 862.9,231.4 863.5,231.4C864.3,231.4 864.8,232 864.8,232.8Z" style="fill:rgb(117,250,76);fill-rule:nonzero;"/>
        <path d="M864.8,177.4L864.8,189.2C864.8,190 864.1,190.6 863.5,190.6C862.7,190.6 862.2,189.9 862.2,189.2L862.2,177.4C862.2,176.6 862.9,176 863.5,176C864.3,176 864.8,176.7 864.8,177.4Z" style="fill:rgb(117,250,76);fill-rule:nonzero;"/>
        <path d="M877.2,242.3C877.2,242.9 876.9,243.4 876.3,243.7C875.6,244 874.7,243.6 874.5,242.9L870.1,231.9C869.8,231.2 870.2,230.3 870.9,230.1C871.6,229.8 872.5,230.2 872.7,230.9L877.1,241.9C877.2,241.9 877.2,242.1 877.2,242.3Z" style="fill:rgb(117,250,76);fill-rule:nonzero;"/>
        <path d="M856.9,190.7C856.9,191.3 856.6,191.8 856,192.1C855.3,192.4 854.4,192 854.2,191.3L849.9,180.3C849.6,179.6 850,178.7 850.7,178.5C851.4,178.3 852.3,178.6 852.5,179.3L856.9,190.3L856.9,190.7Z" style="fill:rgb(117,250,76);fill-rule:nonzero;"/>
        <path d="M895.6,224.7C895.6,224.9 895.6,225 895.5,225.3C895.2,226 894.4,226.3 893.7,226L882.9,221.2C882.2,220.9 881.9,220.1 882.2,219.4C882.5,218.7 883.3,218.4 884,218.7L894.8,223.5C895.2,223.7 895.6,224.3 895.6,224.7Z" style="fill:rgb(117,250,76);fill-rule:nonzero;"/>
        <path d="M845,202.1C845,202.3 845,202.4 844.9,202.7C844.6,203.4 843.8,203.7 843.1,203.4L832.2,198.6C831.5,198.3 831.2,197.5 831.5,196.8C831.8,196.1 832.6,195.8 833.3,196.1L844.1,200.9C844.7,201.1 845,201.5 845,202.1Z" style="fill:rgb(117,250,76);fill-rule:nonzero;"/>
        <path d="M887.9,235.4C887.9,235.7 887.8,236.2 887.4,236.4C886.8,237 885.9,236.8 885.4,236.3L877.4,227.7C876.8,227.1 876.8,226.2 877.4,225.8C878,225.2 878.9,225.4 879.4,225.8L887.5,234.5C887.8,234.7 887.9,235.1 887.9,235.4Z" style="fill:rgb(117,250,76);fill-rule:nonzero;"/>
        <path d="M850,195.1C850,195.4 849.9,195.9 849.5,196.1C848.9,196.7 848,196.5 847.5,196L839.4,187.3C838.8,186.8 838.9,185.9 839.5,185.5C840.1,184.9 840.9,184.9 841.4,185.5L849.5,194.2C849.9,194.5 850,194.8 850,195.1Z" style="fill:rgb(117,250,76);fill-rule:nonzero;"/>
        <path d="M857.1,231.4C857.1,231.5 857.1,231.7 857,231.9L852.7,242.9C852.5,243.6 851.6,244 850.9,243.7C850.2,243.5 849.8,242.6 850.1,241.9L854.4,230.9C854.6,230.2 855.5,229.8 856.2,230.1C856.7,230.2 857.1,230.8 857.1,231.4Z" style="fill:rgb(117,250,76);fill-rule:nonzero;"/>
        <path d="M876.9,179.6C876.9,179.7 876.9,179.9 876.8,180L872.5,191C872.3,191.7 871.4,192.1 870.7,191.8C870,191.6 869.6,190.7 869.9,190L874.2,179C874.4,178.3 875.3,177.9 876,178.2C876.6,178.5 876.9,179 876.9,179.6Z" style="fill:rgb(117,250,76);fill-rule:nonzero;"/>
        <path d="M849.4,226.4C849.4,226.7 849.3,227.1 848.9,227.4L840.5,235.7C839.9,236.3 839,236.3 838.5,235.7C838,235.1 837.9,234.2 838.5,233.7L846.8,225.4C847.4,224.8 848.3,224.8 848.8,225.4C849.3,225.6 849.4,226.1 849.4,226.4Z" style="fill:rgb(117,250,76);fill-rule:nonzero;"/>
        <path d="M888.7,187.3C888.7,187.6 888.6,188 888.2,188.3L879.8,196.6C879.2,197.2 878.3,197.2 877.8,196.6C877.2,196 877.2,195.1 877.8,194.6L886.2,186.3C886.8,185.7 887.7,185.7 888.2,186.3C888.6,186.6 888.7,186.9 888.7,187.3Z" style="fill:rgb(117,250,76);fill-rule:nonzero;"/>
        <path d="M844.8,219.3C844.8,219.9 844.5,220.3 843.9,220.5L833,225C832.3,225.3 831.4,225 831.2,224.2C830.9,223.5 831.2,222.6 832,222.4L842.9,217.9C843.6,217.6 844.5,217.9 844.7,218.7C844.7,219 844.8,219.1 844.8,219.3Z" style="fill:rgb(117,250,76);fill-rule:nonzero;"/>
        <path d="M896,198.2C896,198.8 895.7,199.2 895.1,199.4L884.2,203.9C883.5,204.2 882.6,203.9 882.4,203.1C882.1,202.4 882.4,201.5 883.2,201.3L894.1,196.8C894.8,196.5 895.7,196.8 895.9,197.6C895.9,197.8 896,198.1 896,198.2Z" style="fill:rgb(117,250,76);fill-rule:nonzero;"/>
        <path d="M11.5,382C17.575,382 22.5,377.075 22.5,371C22.5,364.925 17.575,360 11.5,360C5.425,360 0.5,364.925 0.5,371C0.5,377.075 5.425,382 11.5,382Z" style="fill:rgb(230,54,35);fill-rule:nonzero;"/>
        <path d="M55.5,382C61.575,382 66.5,377.075 66.5,371C66.5,364.925 61.575,360 55.5,360C49.425,360 44.5,364.925 44.5,371C44.5,377.075 49.425,382 55.5,382Z" style="fill:rgb(230,54,35);fill-rule:nonzero;"/>
        <path d="M11.5,421C17.575,421 22.5,416.075 22.5,410C22.5,403.925 17.575,399 11.5,399C5.425,399 0.5,403.925 0.5,410C0.5,416.075 5.425,421 11.5,421Z" style="fill:rgb(230,54,35);fill-rule:nonzero;"/>
        <path d="M55.5,421C61.575,421 66.5,416.075 66.5,410C66.5,403.925 61.575,399 55.5,399C49.425,399 44.5,403.925 44.5,410C44.5,416.075 49.425,421 55.5,421Z" style="fill:rgb(230,54,35);fill-rule:nonzero;"/>
        <path d="M660.5,469C666.575,469 671.5,464.075 671.5,458C671.5,451.925 666.575,447 660.5,447C654.425,447 649.5,451.925 649.5,458C649.5,464.075 654.425,469 660.5,469Z" style="fill:rgb(230,54,35);fill-rule:nonzero;"/>
        <path d="M704.5,469C710.575,469 715.5,464.075 715.5,458C715.5,451.925 710.575,447 704.5,447C698.425,447 693.5,451.925 693.5,458C693.5,464.075 698.425,469 704.5,469Z" style="fill:rgb(230,54,35);fill-rule:nonzero;"/>
        <path d="M660.5,508C666.575,508 671.5,503.075 671.5,497C671.5,490.925 666.575,486 660.5,486C654.425,486 649.5,490.925 649.5,497C649.5,503.075 654.425,508 660.5,508Z" style="fill:rgb(230,54,35);fill-rule:nonzero;"/>
        <path d="M704.5,508C710.575,508 715.5,503.075 715.5,497C715.5,490.925 710.575,486 704.5,486C698.425,486 693.5,490.925 693.5,497C693.5,503.075 698.425,508 704.5,508Z" style="fill:rgb(230,54,35);fill-rule:nonzero;"/>
        <path d="M186.5,22C192.575,22 197.5,17.075 197.5,11C197.5,4.925 192.575,0 186.5,0C180.425,0 175.5,4.925 175.5,11C175.5,17.075 180.425,22 186.5,22Z" style="fill:rgb(230,54,35);fill-rule:nonzero;"/>
        <path d="M230.5,22C236.575,22 241.5,17.075 241.5,11C241.5,4.925 236.575,0 230.5,0C224.425,0 219.5,4.925 219.5,11C219.5,17.075 224.425,22 230.5,22Z" style="fill:rgb(230,54,35);fill-rule:nonzero;"/>
        <path d="M186.5,61C192.575,61 197.5,56.075 197.5,50C197.5,43.925 192.575,39 186.5,39C180.425,39 175.5,43.925 175.5,50C175.5,56.075 180.425,61 186.5,61Z" style="fill:rgb(230,54,35);fill-rule:nonzero;"/>
        <path d="M230.5,61C236.575,61 241.5,56.075 241.5,50C241.5,43.925 236.575,39 230.5,39C224.425,39 219.5,43.925 219.5,50C219.5,56.075 224.425,61 230.5,61Z" style="fill:rgb(230,54,35);fill-rule:nonzero;"/>
        <path d="M1.5,32C1.5,14.3 15.8,0 33.5,0C51.2,0 65.5,14.3 65.5,32L65.5,126C65.5,143.7 51.2,158 33.5,158C15.8,158 1.5,143.7 1.5,126L1.5,32Z" style="fill:rgb(230,54,35);fill-rule:nonzero;"/>
        <path d="M33.5,64C51.173,64 65.5,49.673 65.5,32C65.5,14.327 51.173,0 33.5,0C15.827,0 1.5,14.327 1.5,32C1.5,49.673 15.827,64 33.5,64Z" style="fill:rgb(0,32,245);fill-rule:nonzero;"/>
        <path d="M33.5,158C51.173,158 65.5,143.673 65.5,126C65.5,108.327 51.173,94 33.5,94C15.827,94 1.5,108.327 1.5,126C1.5,143.673 15.827,158 33.5,158Z" style="fill:white;fill-rule:nonzero;"/>
        <path d="M33.5,136C39.023,136 43.5,131.523 43.5,126C43.5,120.477 39.023,116 33.5,116C27.977,116 23.5,120.477 23.5,126C23.5,131.523 27.977,136 33.5,136Z" style="fill-rule:nonzero;"/>
        <path d="M553.5,211C553.5,193.3 567.8,179 585.5,179C603.2,179 617.5,193.3 617.5,211L617.5,305C617.5,322.7 603.2,337 585.5,337C567.8,337 553.5,322.7 553.5,305L553.5,211Z" style="fill:rgb(230,54,35);fill-rule:nonzero;"/>
        <path d="M585.5,243C603.173,243 617.5,228.673 617.5,211C617.5,193.327 603.173,179 585.5,179C567.827,179 553.5,193.327 553.5,211C553.5,228.673 567.827,243 585.5,243Z" style="fill:rgb(0,32,245);fill-rule:nonzero;"/>
        <path d="M585.5,337C603.173,337 617.5,322.673 617.5,305C617.5,287.327 603.173,273 585.5,273C567.827,273 553.5,287.327 553.5,305C553.5,322.673 567.827,337 585.5,337Z" style="fill:white;fill-rule:nonzero;"/>
        <path d="M585.5,315C591.023,315 595.5,310.523 595.5,305C595.5,299.477 591.023,295 585.5,295C579.977,295 575.5,299.477 575.5,305C575.5,310.523 579.977,315 585.5,315Z" style="fill-rule:nonzero;"/>
        <path d="M301.5,180C319.2,180 333.5,194.3 333.5,212C333.5,229.7 319.2,244 301.5,244L207.5,244C189.8,244 175.5,229.7 175.5,212C175.5,194.3 189.8,180 207.5,180L301.5,180Z" style="fill:white;fill-rule:nonzero;"/>
        <path d="M301.5,244C319.173,244 333.5,229.673 333.5,212C333.5,194.327 319.173,180 301.5,180C283.827,180 269.5,194.327 269.5,212C269.5,229.673 283.827,244 301.5,244Z" style="fill:rgb(117,250,76);fill-rule:nonzero;"/>
        <path d="M207.5,244C225.173,244 239.5,229.673 239.5,212C239.5,194.327 225.173,180 207.5,180C189.827,180 175.5,194.327 175.5,212C175.5,229.673 189.827,244 207.5,244Z" style="fill:rgb(230,54,35);fill-rule:nonzero;"/>
        <path d="M396.5,64C378.8,64 364.5,49.7 364.5,32C364.5,14.3 378.8,0 396.5,0L490.5,0C508.2,0 522.5,14.3 522.5,32C522.5,49.7 508.2,64 490.5,64L396.5,64Z" style="fill:rgb(230,54,35);fill-rule:nonzero;"/>
        <path d="M396.5,64C414.173,64 428.5,49.673 428.5,32C428.5,14.327 414.173,0 396.5,0C378.827,0 364.5,14.327 364.5,32C364.5,49.673 378.827,64 396.5,64Z" style="fill:rgb(0,32,245);fill-rule:nonzero;"/>
        <path d="M490.5,64C508.173,64 522.5,49.673 522.5,32C522.5,14.327 508.173,0 490.5,0C472.827,0 458.5,14.327 458.5,32C458.5,49.673 472.827,64 490.5,64Z" style="fill:rgb(117,250,76);fill-rule:nonzero;"/>
        <path d="M490.5,42C496.023,42 500.5,37.523 500.5,32C500.5,26.477 496.023,22 490.5,22C484.977,22 480.5,26.477 480.5,32C480.5,37.523 484.977,42 490.5,42Z" style="fill-rule:nonzero;"/>
        <path d="M301.5,330C283.8,330 269.5,315.7 269.5,298C269.5,280.3 283.8,266 301.5,266L395.5,266C413.2,266 427.5,280.3 427.5,298C427.5,315.7 413.2,330 395.5,330L301.5,330Z" style="fill:rgb(230,54,35);fill-rule:nonzero;"/>
        <path d="M301.5,330C319.173,330 333.5,315.673 333.5,298C333.5,280.327 319.173,266 301.5,266C283.827,266 269.5,280.327 269.5,298C269.5,315.673 283.827,330 301.5,330Z" style="fill:rgb(0,32,245);fill-rule:nonzero;"/>
        <path d="M395.5,330C413.173,330 427.5,315.673 427.5,298C427.5,280.327 413.173,266 395.5,266C377.827,266 363.5,280.327 363.5,298C363.5,315.673 377.827,330 395.5,330Z" style="fill:rgb(117,250,76);fill-rule:nonzero;"/>
        <path d="M301.5,154C283.8,154 269.5,139.7 269.5,122C269.5,104.3 283.8,90 301.5,90L395.5,90C413.2,90 427.5,104.3 427.5,122C427.5,139.7 413.2,154 395.5,154L301.5,154Z" style="fill:white;fill-rule:nonzero;"/>
        <path d="M301.5,154C319.173,154 333.5,139.673 333.5,122C333.5,104.327 319.173,90 301.5,90C283.827,90 269.5,104.327 269.5,122C269.5,139.673 283.827,154 301.5,154Z" style="fill:rgb(0,32,245);fill-rule:nonzero;"/>
        <path d="M395.5,154C413.173,154 427.5,139.673 427.5,122C427.5,104.327 413.173,90 395.5,90C377.827,90 363.5,104.327 363.5,122C363.5,139.673 377.827,154 395.5,154Z" style="fill:rgb(230,54,35);fill-rule:nonzero;"/>
        <path d="M395.5,132C401.023,132 405.5,127.523 405.5,122C405.5,116.477 401.023,112 395.5,112C389.977,112 385.5,116.477 385.5,122C385.5,127.523 389.977,132 395.5,132Z" style="fill-rule:nonzero;"/>
        <path d="M777.5,550C795.2,550 809.5,564.3 809.5,582C809.5,599.7 795.2,614 777.5,614L683.5,614C665.8,614 651.5,599.7 651.5,582C651.5,564.3 665.8,550 683.5,550L777.5,550Z" style="fill:white;fill-rule:nonzero;"/>
        <path d="M683.5,614C701.173,614 715.5,599.673 715.5,582C715.5,564.327 701.173,550 683.5,550C665.827,550 651.5,564.327 651.5,582C651.5,599.673 665.827,614 683.5,614Z" style="fill:rgb(230,54,35);fill-rule:nonzero;"/>
        <path d="M683.5,592C689.023,592 693.5,587.523 693.5,582C693.5,576.477 689.023,572 683.5,572C677.977,572 673.5,576.477 673.5,582C673.5,587.523 677.977,592 683.5,592Z" style="fill-rule:nonzero;"/>
        <path d="M862.5,446C880.2,446 894.5,460.3 894.5,478C894.5,495.7 880.2,510 862.5,510L768.5,510C750.8,510 736.5,495.7 736.5,478C736.5,460.3 750.8,446 768.5,446L862.5,446Z" style="fill:rgb(0,32,245);fill-rule:nonzero;"/>
        <path d="M768.5,510C786.173,510 800.5,495.673 800.5,478C800.5,460.327 786.173,446 768.5,446C750.827,446 736.5,460.327 736.5,478C736.5,495.673 750.827,510 768.5,510Z" style="fill:white;fill-rule:nonzero;"/>
        <path d="M768.5,488C774.023,488 778.5,483.523 778.5,478C778.5,472.477 774.023,468 768.5,468C762.977,468 758.5,472.477 758.5,478C758.5,483.523 762.977,488 768.5,488Z" style="fill-rule:nonzero;"/>
        <path d="M588.5,446C606.2,446 620.5,460.3 620.5,478C620.5,495.7 606.2,510 588.5,510L494.5,510C476.8,510 462.5,495.7 462.5,478C462.5,460.3 476.8,446 494.5,446L588.5,446Z" style="fill:white;fill-rule:nonzero;"/>
        <path d="M494.5,510C512.173,510 526.5,495.673 526.5,478C526.5,460.327 512.173,446 494.5,446C476.827,446 462.5,460.327 462.5,478C462.5,495.673 476.827,510 494.5,510Z" style="fill:rgb(230,54,35);fill-rule:nonzero;"/>
        <path d="M494.5,488C500.023,488 504.5,483.523 504.5,478C504.5,472.477 500.023,468 494.5,468C488.977,468 484.5,472.477 484.5,478C484.5,483.523 488.977,488 494.5,488Z" style="fill-rule:nonzero;"/>
        <path d="M119.5,64C137.173,64 151.5,49.673 151.5,32C151.5,14.327 137.173,0 119.5,0C101.827,0 87.5,14.327 87.5,32C87.5,49.673 101.827,64 119.5,64Z" style="fill:white;fill-rule:nonzero;"/>
        <path d="M119.5,42C125.023,42 129.5,37.523 129.5,32C129.5,26.477 125.023,22 119.5,22C113.977,22 109.5,26.477 109.5,32C109.5,37.523 113.977,42 119.5,42Z" style="fill-rule:nonzero;"/>
        <path d="M208.5,154C226.173,154 240.5,139.673 240.5,122C240.5,104.327 226.173,90 208.5,90C190.827,90 176.5,104.327 176.5,122C176.5,139.673 190.827,154 208.5,154Z" style="fill:rgb(117,250,76);fill-rule:nonzero;"/>
        <path d="M208.5,132C214.023,132 218.5,127.523 218.5,122C218.5,116.477 214.023,112 208.5,112C202.977,112 198.5,116.477 198.5,122C198.5,127.523 202.977,132 208.5,132Z" style="fill-rule:nonzero;"/>
        <path d="M768.5,420C786.173,420 800.5,405.673 800.5,388C800.5,370.327 786.173,356 768.5,356C750.827,356 736.5,370.327 736.5,388C736.5,405.673 750.827,420 768.5,420Z" style="fill:rgb(117,250,76);fill-rule:nonzero;"/>
        <path d="M768.5,398C774.023,398 778.5,393.523 778.5,388C778.5,382.477 774.023,378 768.5,378C762.977,378 758.5,382.477 758.5,388C758.5,393.523 762.977,398 768.5,398Z" style="fill-rule:nonzero;"/>
        <path d="M584.5,64C602.173,64 616.5,49.673 616.5,32C616.5,14.327 602.173,0 584.5,0C566.827,0 552.5,14.327 552.5,32C552.5,49.673 566.827,64 584.5,64Z" style="fill:rgb(230,54,35);fill-rule:nonzero;"/>
        <path d="M584.5,42C590.023,42 594.5,37.523 594.5,32C594.5,26.477 590.023,22 584.5,22C578.977,22 574.5,26.477 574.5,32C574.5,37.523 578.977,42 584.5,42Z" style="fill-rule:nonzero;"/>
        <path d="M299.5,511C317.173,511 331.5,496.673 331.5,479C331.5,461.327 317.173,447 299.5,447C281.827,447 267.5,461.327 267.5,479C267.5,496.673 281.827,511 299.5,511Z" style="fill:rgb(230,54,35);fill-rule:nonzero;"/>
        <path d="M299.5,489C305.023,489 309.5,484.523 309.5,479C309.5,473.477 305.023,469 299.5,469C293.977,469 289.5,473.477 289.5,479C289.5,484.523 293.977,489 299.5,489Z" style="fill-rule:nonzero;"/>
        <rect x="366.5" y="451" width="12" height="12" style="fill:white;fill-rule:nonzero;"/>
        <rect x="390.5" y="451" width="12" height="12" style="fill:white;fill-rule:nonzero;"/>
        <rect x="414.5" y="451" width="12" height="12" style="fill:white;fill-rule:nonzero;"/>
        <rect x="366.5" y="475" width="12" height="12" style="fill:white;fill-rule:nonzero;"/>
        <rect x="390.5" y="475" width="12" height="12" style="fill:white;fill-rule:nonzero;"/>
        <rect x="414.5" y="475" width="12" height="12" style="fill:white;fill-rule:nonzero;"/>
        <rect x="366.5" y="499" width="12" height="12" style="fill:white;fill-rule:nonzero;"/>
        <rect x="390.5" y="499" width="12" height="12" style="fill:white;fill-rule:nonzero;"/>
        <rect x="414.5" y="499" width="12" height="12" style="fill:white;fill-rule:nonzero;"/>
        <rect x="652.5" y="181" width="12" height="12" style="fill:rgb(0,32,245);fill-rule:nonzero;"/>
        <rect x="676.5" y="181" width="12" height="12" style="fill:rgb(0,32,245);fill-rule:nonzero;"/>
        <rect x="700.5" y="181" width="12" height="12" style="fill:rgb(0,32,245);fill-rule:nonzero;"/>
        <rect x="652.5" y="205" width="12" height="12" style="fill:rgb(0,32,245);fill-rule:nonzero;"/>
        <rect x="676.5" y="205" width="12" height="12" style="fill:rgb(0,32,245);fill-rule:nonzero;"/>
        <rect x="700.5" y="205" width="12" height="12" style="fill:rgb(0,32,245);fill-rule:nonzero;"/>
        <rect x="652.5" y="229" width="12" height="12" style="fill:rgb(0,32,245);fill-rule:nonzero;"/>
        <rect x="676.5" y="229" width="12" height="12" style="fill:rgb(0,32,245);fill-rule:nonzero;"/>
        <rect x="700.5" y="229" width="12" height="12" style="fill:rgb(0,32,245);fill-rule:nonzero;"/>
        <rect x="272.5" y="0" width="8" height="64" style="fill:white;fill-rule:nonzero;"/>
        <rect x="295.5" y="0" width="8" height="64" style="fill:white;fill-rule:nonzero;"/>
        <rect x="320.5" y="0" width="8" height="64" style="fill:white;fill-rule:nonzero;"/>
        <rect x="267.5" y="22" width="18" height="6" style="fill:rgb(230,54,35);fill-rule:nonzero;"/>
        <rect x="290.5" y="43" width="18" height="6" style="fill:rgb(0,32,245);fill-rule:nonzero;"/>
        <rect x="315.5" y="8" width="18" height="6" style="fill:rgb(117,250,76);fill-rule:nonzero;"/>
        <rect x="834.5" y="356" width="8" height="64" style="fill:white;fill-rule:nonzero;"/>
        <rect x="857.5" y="356" width="8" height="64" style="fill:white;fill-rule:nonzero;"/>
        <rect x="882.5" y="356" width="8" height="64" style="fill:white;fill-rule:nonzero;"/>
        <rect x="829.5" y="378" width="18" height="6" style="fill:rgb(230,54,35);fill-rule:nonzero;"/>
        <rect x="852.5" y="399" width="18" height="6" style="fill:rgb(0,32,245);fill-rule:nonzero;"/>
        <rect x="877.5" y="364" width="18" height="6" style="fill:rgb(117,250,76);fill-rule:nonzero;"/>
        <path d="M750,41.2C753,41.2 755.5,38.7 755.5,35.5L755.8,36.9L808.4,23C808.8,25.8 811,27.8 813.8,27.8C814.8,27.8 815.8,27.5 816.7,27L834.5,55.1C834.3,55.8 834.1,56.5 834.1,57.3C834.1,60.4 836.5,63 839.6,63C842.6,63 845.1,60.5 845.1,57.3C845.1,55.5 844.2,53.9 842.9,52.8L858.9,13.8L866.3,39.2C864.8,40.2 863.7,42 863.7,44C863.7,47.2 866.1,49.7 869.2,49.7C872.2,49.7 874.7,47.2 874.7,44C874.7,42.9 874.4,41.8 873.8,41L886.5,27.1C887.3,27.6 888.2,27.9 889.1,27.9C892.1,27.9 894.6,25.4 894.6,22.2C894.6,19.1 892.2,16.5 889.1,16.5C886.1,16.5 883.6,19 883.6,22.2C883.6,23.3 883.9,24.4 884.5,25.2L871.8,39.1C871,38.6 870.1,38.4 869.2,38.4L869,38.4L861,11.7C862.5,10.7 863.6,8.9 863.6,6.9C863.6,3.8 861.2,1.2 858.1,1.2C855,1.2 852.6,3.7 852.6,6.9C852.6,9.4 854.3,11.6 856.5,12.3L840.2,51.7C840,51.7 839.6,51.6 839.4,51.6C838.2,51.6 837,52.1 836.1,52.7L818.5,24.8C818.9,24 819.2,23.1 819.2,22C819.2,18.9 816.8,16.3 813.7,16.3C811.4,16.3 809.4,17.8 808.6,20L755.2,34.1C754.5,31.6 752.4,29.7 749.9,29.7C746.8,29.7 744.4,32.2 744.4,35.4C744.5,38.7 746.9,41.2 750,41.2Z" style="fill:rgb(117,250,76);fill-rule:nonzero;"/>
        <path d="M504.7,323.5C504.7,320.5 502.2,318 499,318L500.4,317.7L486.6,265.1C489.4,264.7 491.4,262.5 491.4,259.7C491.4,258.7 491.1,257.7 490.6,256.8L518.7,239C519.4,239.2 520.1,239.4 520.9,239.4C524,239.4 526.6,237 526.6,233.9C526.6,230.9 524.1,228.4 520.9,228.4C519.1,228.4 517.5,229.3 516.4,230.6L477.4,214.6L502.8,207.2C503.8,208.7 505.6,209.8 507.6,209.8C510.8,209.8 513.3,207.4 513.3,204.3C513.3,201.3 510.8,198.8 507.6,198.8C506.5,198.8 505.4,199.1 504.6,199.7L490.7,187C491.2,186.2 491.5,185.3 491.5,184.4C491.5,181.4 489,178.9 485.8,178.9C482.7,178.9 480.1,181.3 480.1,184.4C480.1,187.4 482.6,189.9 485.8,189.9C486.9,189.9 488,189.6 488.8,189L502.7,201.7C502.2,202.5 502,203.3 502,204.3L502,204.5L475.2,212.3C474.2,210.8 472.4,209.7 470.4,209.7C467.3,209.7 464.7,212.1 464.7,215.2C464.7,218.3 467.2,220.7 470.4,220.7C472.9,220.7 475.1,219 475.8,216.8L515.2,233.1C515.2,233.3 515.1,233.7 515.1,233.9C515.1,235.1 515.6,236.3 516.2,237.2L488.3,254.8C487.5,254.4 486.6,254.1 485.5,254.1C482.4,254.1 479.8,256.5 479.8,259.6C479.8,261.9 481.3,263.9 483.5,264.7L497.6,318.1C495.1,318.8 493.2,320.9 493.2,323.4C493.2,326.5 495.7,328.9 498.9,328.9C502.2,329 504.7,326.6 504.7,323.5Z" style="fill:rgb(117,250,76);fill-rule:nonzero;"/>
        <path d="M122.5,463C125.261,463 127.5,460.761 127.5,458C127.5,455.239 125.261,453 122.5,453C119.739,453 117.5,455.239 117.5,458C117.5,460.761 119.739,463 122.5,463Z" style="fill:rgb(0,32,245);fill-rule:nonzero;"/>
        <path d="M147.5,463C150.261,463 152.5,460.761 152.5,458C152.5,455.239 150.261,453 147.5,453C144.739,453 142.5,455.239 142.5,458C142.5,460.761 144.739,463 147.5,463Z" style="fill:rgb(0,32,245);fill-rule:nonzero;"/>
        <path d="M97.5,488C100.261,488 102.5,485.761 102.5,483C102.5,480.239 100.261,478 97.5,478C94.739,478 92.5,480.239 92.5,483C92.5,485.761 94.739,488 97.5,488Z" style="fill:rgb(0,32,245);fill-rule:nonzero;"/>
        <path d="M122.5,488C125.261,488 127.5,485.761 127.5,483C127.5,480.239 125.261,478 122.5,478C119.739,478 117.5,480.239 117.5,483C117.5,485.761 119.739,488 122.5,488Z" style="fill:rgb(0,32,245);fill-rule:nonzero;"/>
        <path d="M147.5,488C150.261,488 152.5,485.761 152.5,483C152.5,480.239 150.261,478 147.5,478C144.739,478 142.5,480.239 142.5,483C142.5,485.761 144.739,488 147.5,488Z" style="fill:rgb(0,32,245);fill-rule:nonzero;"/>
        <path d="M97.5,513C100.261,513 102.5,510.761 102.5,508C102.5,505.239 100.261,503 97.5,503C94.739,503 92.5,505.239 92.5,508C92.5,510.761 94.739,513 97.5,513Z" style="fill:rgb(0,32,245);fill-rule:nonzero;"/>
        <path d="M122.5,513C125.261,513 127.5,510.761 127.5,508C127.5,505.239 125.261,503 122.5,503C119.739,503 117.5,505.239 117.5,508C117.5,510.761 119.739,513 122.5,513Z" style="fill:rgb(0,32,245);fill-rule:nonzero;"/>
        <path d="M147.5,513C150.261,513 152.5,510.761 152.5,508C152.5,505.239 150.261,503 147.5,503C144.739,503 142.5,505.239 142.5,508C142.5,510.761 144.739,513 147.5,513Z" style="fill:rgb(0,32,245);fill-rule:nonzero;"/>
        <path d="M97.5,463C100.261,463 102.5,460.761 102.5,458C102.5,455.239 100.261,453 97.5,453C94.739,453 92.5,455.239 92.5,458C92.5,460.761 94.739,463 97.5,463Z" style="fill:rgb(0,32,245);fill-rule:nonzero;"/>
        <path d="M122.5,465C125.814,465 128.5,462.314 128.5,459C128.5,455.686 125.814,453 122.5,453C119.186,453 116.5,455.686 116.5,459C116.5,462.314 119.186,465 122.5,465Z" style="fill:rgb(0,32,245);fill-rule:nonzero;"/>
        <path d="M147.5,465C150.814,465 153.5,462.314 153.5,459C153.5,455.686 150.814,453 147.5,453C144.186,453 141.5,455.686 141.5,459C141.5,462.314 144.186,465 147.5,465Z" style="fill:rgb(0,32,245);fill-rule:nonzero;"/>
        <path d="M97.5,489C100.814,489 103.5,486.314 103.5,483C103.5,479.686 100.814,477 97.5,477C94.186,477 91.5,479.686 91.5,483C91.5,486.314 94.186,489 97.5,489Z" style="fill:rgb(0,32,245);fill-rule:nonzero;"/>
        <path d="M122.5,489C125.814,489 128.5,486.314 128.5,483C128.5,479.686 125.814,477 122.5,477C119.186,477 116.5,479.686 116.5,483C116.5,486.314 119.186,489 122.5,489Z" style="fill:rgb(0,32,245);fill-rule:nonzero;"/>
        <path d="M147.5,489C150.814,489 153.5,486.314 153.5,483C153.5,479.686 150.814,477 147.5,477C144.186,477 141.5,479.686 141.5,483C141.5,486.314 144.186,489 147.5,489Z" style="fill:rgb(0,32,245);fill-rule:nonzero;"/>
        <path d="M97.5,513C100.814,513 103.5,510.314 103.5,507C103.5,503.686 100.814,501 97.5,501C94.186,501 91.5,503.686 91.5,507C91.5,510.314 94.186,513 97.5,513Z" style="fill:rgb(0,32,245);fill-rule:nonzero;"/>
        <path d="M122.5,513C125.814,513 128.5,510.314 128.5,507C128.5,503.686 125.814,501 122.5,501C119.186,501 116.5,503.686 116.5,507C116.5,510.314 119.186,513 122.5,513Z" style="fill:rgb(0,32,245);fill-rule:nonzero;"/>
        <path d="M147.5,513C150.814,513 153.5,510.314 153.5,507C153.5,503.686 150.814,501 147.5,501C144.186,501 141.5,503.686 141.5,507C141.5,510.314 144.186,513 147.5,513Z" style="fill:rgb(0,32,245);fill-rule:nonzero;"/>
        <path d="M97.5,465C100.814,465 103.5,462.314 103.5,459C103.5,455.686 100.814,453 97.5,453C94.186,453 91.5,455.686 91.5,459C91.5,462.314 94.186,465 97.5,465Z" style="fill:rgb(0,32,245);fill-rule:nonzero;"/>
        <path d="M863.5,567C866.814,567 869.5,564.314 869.5,561C869.5,557.686 866.814,555 863.5,555C860.186,555 857.5,557.686 857.5,561C857.5,564.314 860.186,567 863.5,567Z" style="fill:rgb(230,54,35);fill-rule:nonzero;"/>
        <path d="M888.5,567C891.814,567 894.5,564.314 894.5,561C894.5,557.686 891.814,555 888.5,555C885.186,555 882.5,557.686 882.5,561C882.5,564.314 885.186,567 888.5,567Z" style="fill:rgb(230,54,35);fill-rule:nonzero;"/>
        <path d="M838.5,591C841.814,591 844.5,588.314 844.5,585C844.5,581.686 841.814,579 838.5,579C835.186,579 832.5,581.686 832.5,585C832.5,588.314 835.186,591 838.5,591Z" style="fill:rgb(230,54,35);fill-rule:nonzero;"/>
        <path d="M863.5,591C866.814,591 869.5,588.314 869.5,585C869.5,581.686 866.814,579 863.5,579C860.186,579 857.5,581.686 857.5,585C857.5,588.314 860.186,591 863.5,591Z" style="fill:rgb(230,54,35);fill-rule:nonzero;"/>
        <path d="M888.5,591C891.814,591 894.5,588.314 894.5,585C894.5,581.686 891.814,579 888.5,579C885.186,579 882.5,581.686 882.5,585C882.5,588.314 885.186,591 888.5,591Z" style="fill:rgb(230,54,35);fill-rule:nonzero;"/>
        <path d="M838.5,615C841.814,615 844.5,612.314 844.5,609C844.5,605.686 841.814,603 838.5,603C835.186,603 832.5,605.686 832.5,609C832.5,612.314 835.186,615 838.5,615Z" style="fill:rgb(230,54,35);fill-rule:nonzero;"/>
        <path d="M863.5,615C866.814,615 869.5,612.314 869.5,609C869.5,605.686 866.814,603 863.5,603C860.186,603 857.5,605.686 857.5,609C857.5,612.314 860.186,615 863.5,615Z" style="fill:rgb(230,54,35);fill-rule:nonzero;"/>
        <path d="M888.5,615C891.814,615 894.5,612.314 894.5,609C894.5,605.686 891.814,603 888.5,603C885.186,603 882.5,605.686 882.5,609C882.5,612.314 885.186,615 888.5,615Z" style="fill:rgb(230,54,35);fill-rule:nonzero;"/>
        <path d="M838.5,567C841.814,567 844.5,564.314 844.5,561C844.5,557.686 841.814,555 838.5,555C835.186,555 832.5,557.686 832.5,561C832.5,564.314 835.186,567 838.5,567Z" style="fill:rgb(230,54,35);fill-rule:nonzero;"/>
        <path d="M623.5,582C623.5,582.8 622.8,583.3 622.2,583.3L610.4,583.3C609.6,583.3 609,582.6 609,582C609,581.2 609.7,580.7 610.4,580.7L622.2,580.7C622.9,580.7 623.5,581.2 623.5,582Z" style="fill:white;fill-rule:nonzero;"/>
        <path d="M568.1,582C568.1,582.8 567.4,583.3 566.8,583.3L554.9,583.3C554.1,583.3 553.6,582.6 553.6,582C553.6,581.2 554.3,580.7 554.9,580.7L566.7,580.7C567.5,580.7 568.1,581.2 568.1,582Z" style="fill:white;fill-rule:nonzero;"/>
        <path d="M589.8,603.8L589.8,615.6C589.8,616.4 589.1,616.9 588.5,616.9C587.7,616.9 587.2,616.2 587.2,615.6L587.2,603.8C587.2,603 587.9,602.4 588.5,602.4C589.3,602.4 589.8,603 589.8,603.8Z" style="fill:white;fill-rule:nonzero;"/>
        <path d="M589.8,548.3L589.8,560.1C589.8,560.9 589.1,561.5 588.5,561.5C587.7,561.5 587.2,560.8 587.2,560.1L587.2,548.3C587.2,547.5 587.9,547 588.5,547C589.3,547 589.8,547.7 589.8,548.3Z" style="fill:white;fill-rule:nonzero;"/>
        <path d="M602.2,613.3C602.2,613.9 601.9,614.4 601.3,614.7C600.6,615 599.7,614.6 599.5,613.9L595.1,602.9C594.8,602.2 595.2,601.3 595.9,601.1C596.6,600.8 597.5,601.2 597.7,601.9L602.1,612.9C602.2,612.9 602.2,613.1 602.2,613.3Z" style="fill:white;fill-rule:nonzero;"/>
        <path d="M581.9,561.7C581.9,562.3 581.6,562.8 581,563.1C580.3,563.4 579.4,563 579.2,562.3L574.9,551.3C574.6,550.6 575,549.7 575.7,549.5C576.4,549.3 577.3,549.6 577.5,550.3L581.9,561.3L581.9,561.7Z" style="fill:white;fill-rule:nonzero;"/>
        <path d="M620.6,595.7C620.6,595.9 620.6,596 620.5,596.3C620.2,597 619.4,597.3 618.7,597L607.9,592.2C607.2,591.9 606.9,591.1 607.2,590.4C607.5,589.7 608.3,589.4 609,589.7L619.8,594.5C620.2,594.7 620.6,595.3 620.6,595.7Z" style="fill:white;fill-rule:nonzero;"/>
        <path d="M570,573.1C570,573.3 570,573.4 569.9,573.7C569.6,574.4 568.8,574.7 568.1,574.4L557.2,569.6C556.5,569.3 556.2,568.5 556.5,567.8C556.8,567.1 557.6,566.8 558.3,567.1L569.1,571.9C569.7,572.1 570,572.5 570,573.1Z" style="fill:white;fill-rule:nonzero;"/>
        <path d="M612.9,606.4C612.9,606.7 612.8,607.2 612.4,607.4C611.8,608 610.9,607.8 610.4,607.3L602.4,598.7C601.8,598.1 601.8,597.2 602.4,596.8C603,596.2 603.9,596.4 604.4,596.8L612.5,605.5C612.8,605.7 612.9,606.1 612.9,606.4Z" style="fill:white;fill-rule:nonzero;"/>
        <path d="M575,566.1C575,566.4 574.9,566.9 574.5,567.1C573.9,567.7 573,567.5 572.5,567L564.4,558.3C563.8,557.8 563.9,556.9 564.5,556.5C565.1,555.9 565.9,555.9 566.4,556.5L574.5,565.2C574.9,565.5 575,565.8 575,566.1Z" style="fill:white;fill-rule:nonzero;"/>
        <path d="M582.1,602.4C582.1,602.5 582.1,602.7 582,602.9L577.7,613.9C577.5,614.6 576.6,615 575.9,614.7C575.2,614.5 574.8,613.6 575.1,612.9L579.4,601.9C579.6,601.2 580.5,600.8 581.2,601.1C581.7,601.2 582.1,601.8 582.1,602.4Z" style="fill:white;fill-rule:nonzero;"/>
        <path d="M601.9,550.6C601.9,550.7 601.9,550.9 601.8,551.1L597.5,562.1C597.3,562.8 596.4,563.2 595.7,562.9C595,562.7 594.6,561.8 594.9,561.1L599.2,550.1C599.4,549.4 600.3,549 601,549.3C601.6,549.5 601.9,550 601.9,550.6Z" style="fill:white;fill-rule:nonzero;"/>
        <path d="M574.4,597.4C574.4,597.7 574.3,598.1 573.9,598.4L565.5,606.7C564.9,607.3 564,607.3 563.5,606.7C562.9,606.1 562.9,605.2 563.5,604.7L571.8,596.4C572.4,595.8 573.3,595.8 573.8,596.4C574.3,596.6 574.4,597.1 574.4,597.4Z" style="fill:white;fill-rule:nonzero;"/>
        <path d="M613.7,558.3C613.7,558.6 613.6,559 613.2,559.3L604.8,567.6C604.2,568.2 603.3,568.2 602.8,567.6C602.2,567 602.2,566.1 602.8,565.6L611.2,557.3C611.8,556.7 612.7,556.7 613.2,557.3C613.6,557.6 613.7,557.9 613.7,558.3Z" style="fill:white;fill-rule:nonzero;"/>
        <path d="M569.8,590.3C569.8,590.9 569.5,591.3 568.9,591.5L558,596C557.3,596.3 556.4,596 556.2,595.2C555.9,594.5 556.2,593.6 557,593.4L567.9,588.9C568.6,588.6 569.5,588.9 569.7,589.7C569.7,590 569.8,590.1 569.8,590.3Z" style="fill:white;fill-rule:nonzero;"/>
        <path d="M621,569.2C621,569.8 620.7,570.2 620.1,570.4L609.2,574.9C608.5,575.2 607.6,574.9 607.4,574.1C607.1,573.4 607.4,572.5 608.2,572.3L619.1,567.8C619.8,567.5 620.7,567.8 620.9,568.6C620.9,568.8 621,569.1 621,569.2Z" style="fill:white;fill-rule:nonzero;"/>
        <rect x="363.5" y="179" width="63" height="63" style="fill:white;fill-rule:nonzero;"/>
        <path d="M93.9,553.8L107,553.8L107,557.1L102.2,557.1L102.2,572L98.8,572L98.8,557.1L94,557.1L93.9,553.8ZM113.8,572L110.5,572L110.5,553.8L113.8,553.8L113.8,561.2L114.3,561.2C114.6,560.4 115.1,559.8 115.8,559.4C116.4,559 117.2,558.7 118.2,558.7C118.8,558.7 119.4,558.8 120,559C120.6,559.2 121,559.5 121.4,559.9C121.8,560.3 122.1,560.9 122.3,561.5C122.5,562.1 122.6,562.9 122.6,563.8L122.6,571.9L119.3,571.9L119.3,564.6C119.3,563.7 119.1,563 118.6,562.4C118.2,561.9 117.5,561.6 116.7,561.6C115.7,561.6 115,561.9 114.5,562.6C114,563.2 113.8,564.1 113.8,565.2L113.8,572ZM129.3,566.6C129.3,567 129.4,567.3 129.6,567.7C129.8,568 130,568.3 130.3,568.5C130.6,568.7 130.9,568.9 131.3,569C131.7,569.1 132.1,569.2 132.5,569.2C133.3,569.2 133.9,569.1 134.4,568.8C134.8,568.5 135.1,568.2 135.3,567.8L138.1,569.4C137.9,569.7 137.7,570.1 137.4,570.4C137.1,570.7 136.8,571.1 136.3,571.4C135.9,571.7 135.3,571.9 134.7,572.1C134.1,572.3 133.3,572.4 132.5,572.4C131.5,572.4 130.6,572.2 129.8,571.9C129,571.6 128.3,571.1 127.7,570.5C127.1,569.9 126.7,569.2 126.3,568.3C126,567.5 125.8,566.5 125.8,565.4L125.8,565.2C125.8,564.2 126,563.3 126.3,562.5C126.6,561.7 127.1,561 127.7,560.4C128.3,559.8 129,559.4 129.8,559.1C130.6,558.8 131.4,558.6 132.3,558.6C133.4,558.6 134.4,558.8 135.2,559.2C136,559.6 136.7,560.1 137.2,560.7C137.7,561.3 138.1,561.9 138.3,562.7C138.5,563.4 138.7,564.1 138.7,564.8L138.7,566.5L129.3,566.5L129.3,566.6ZM132.3,561.7C131.5,561.7 130.8,561.9 130.3,562.4C129.8,562.8 129.4,563.3 129.3,563.9L135.4,563.9C135.3,563.3 135,562.8 134.4,562.4C133.9,561.9 133.2,561.7 132.3,561.7ZM158,559.1L161.8,559.1L161.8,556.4C161.8,555.7 162.1,555 162.6,554.5C163.1,554 163.7,553.7 164.5,553.7L169.8,553.7L169.8,556.8L165.9,556.8C165.4,556.8 165.2,557.1 165.2,557.6L165.2,559L170.3,559L170.3,562.1L165,562.1L165,571.9L161.7,571.9L161.7,562.1L158,562.1L158,559.1ZM186.8,565.7C186.8,566.8 186.6,567.7 186.3,568.6C185.9,569.4 185.4,570.1 184.8,570.7C184.2,571.3 183.5,571.7 182.6,572C181.8,572.3 181,572.4 180.1,572.4C179.2,572.4 178.4,572.3 177.6,572C176.8,571.7 176.1,571.3 175.5,570.7C174.9,570.1 174.4,569.4 174,568.6C173.6,567.8 173.5,566.8 173.5,565.7L173.5,565.4C173.5,564.3 173.7,563.4 174,562.6C174.4,561.8 174.9,561.1 175.5,560.5C176.1,559.9 176.8,559.5 177.6,559.2C178.4,558.9 179.3,558.8 180.1,558.8C180.9,558.8 181.8,558.9 182.6,559.2C183.4,559.5 184.1,559.9 184.8,560.5C185.4,561.1 185.9,561.8 186.3,562.6C186.7,563.4 186.8,564.4 186.8,565.4L186.8,565.7ZM180.1,569.2C180.6,569.2 181,569.1 181.4,569C181.8,568.9 182.2,568.6 182.5,568.3C182.8,568 183.1,567.7 183.2,567.2C183.4,566.8 183.5,566.3 183.5,565.7L183.5,565.2C183.5,564.7 183.4,564.2 183.2,563.8C183,563.4 182.8,563 182.5,562.7C182.2,562.4 181.8,562.2 181.4,562C181,561.8 180.5,561.8 180.1,561.8C179.7,561.8 179.2,561.9 178.8,562C178.4,562.1 178,562.4 177.7,562.7C177.4,563 177.1,563.4 176.9,563.8C176.7,564.2 176.6,564.7 176.6,565.2L176.6,565.7C176.6,566.2 176.7,566.7 176.9,567.2C177.1,567.6 177.3,568 177.7,568.3C178,568.6 178.4,568.8 178.8,569C179.2,569.2 179.6,569.2 180.1,569.2ZM198.7,559.1L202.1,559.1L202.1,572L198.8,572L198.8,570.1L198.3,570.1C197.7,571.6 196.5,572.3 194.6,572.3C194,572.3 193.4,572.2 192.8,572C192.2,571.8 191.8,571.5 191.3,571C190.9,570.6 190.6,570 190.3,569.4C190.1,568.7 190,568 190,567.1L190,559L193.3,559L193.3,566.4C193.3,567.3 193.5,568 193.9,568.6C194.3,569.1 195,569.4 195.8,569.4C196.8,569.4 197.5,569.1 198,568.5C198.5,567.9 198.7,567 198.7,565.9L198.7,559.1ZM209.3,572L206,572L206,559.1L209.3,559.1L209.3,561L209.8,561C210.1,560.3 210.6,559.7 211.2,559.3C211.9,558.9 212.6,558.7 213.5,558.7C214.1,558.7 214.7,558.8 215.2,559C215.8,559.2 216.2,559.5 216.7,559.9C217.1,560.3 217.4,560.8 217.7,561.5C217.9,562.1 218.1,562.9 218.1,563.8L218.1,572L214.8,572L214.8,564.7C214.8,563.8 214.6,563.1 214.1,562.5C213.7,562 213,561.7 212.2,561.7C211.2,561.7 210.5,562 210,562.7C209.5,563.3 209.3,564.2 209.3,565.3L209.3,572ZM231.1,570.1L230.6,570.1C230.5,570.4 230.3,570.7 230.1,571C229.9,571.3 229.7,571.5 229.3,571.7C229,571.9 228.6,572.1 228.2,572.2C227.8,572.3 227.2,572.4 226.6,572.4C225.8,572.4 225.1,572.3 224.4,572C223.7,571.7 223.1,571.3 222.6,570.7C222.1,570.1 221.7,569.4 221.4,568.6C221.1,567.8 221,566.8 221,565.8L221,565.3C221,564.3 221.1,563.3 221.4,562.5C221.7,561.7 222.1,561 222.6,560.4C223.1,559.8 223.8,559.4 224.4,559.1C225.1,558.8 225.9,558.7 226.6,558.7C227.6,558.7 228.5,558.9 229.1,559.3C229.7,559.7 230.2,560.2 230.5,560.9L231,560.9L231,553.7L234.3,553.7L234.3,572L231,572L231,570.1L231.1,570.1ZM227.7,569.2C228.7,569.2 229.5,568.9 230.2,568.2C230.8,567.5 231.2,566.7 231.2,565.6L231.2,565.3C231.2,564.2 230.9,563.4 230.2,562.8C229.6,562.1 228.8,561.8 227.7,561.8C226.7,561.8 225.8,562.1 225.2,562.8C224.6,563.4 224.3,564.3 224.3,565.4L224.3,565.7C224.3,566.8 224.6,567.7 225.2,568.3C225.9,568.9 226.7,569.2 227.7,569.2ZM246.2,570.1C245.9,570.9 245.4,571.5 244.7,571.8C244.1,572.1 243.3,572.3 242.5,572.3C241.7,572.3 241,572.2 240.3,571.9C239.6,571.6 239,571.2 238.5,570.6C238,570 237.6,569.3 237.3,568.5C237,567.7 236.9,566.8 236.9,565.7L236.9,565.3C236.9,564.3 237,563.4 237.3,562.5C237.6,561.7 238,561 238.5,560.4C239,559.8 239.6,559.4 240.2,559.1C240.9,558.8 241.6,558.6 242.4,558.6C243.3,558.6 244.1,558.8 244.6,559.1C245.2,559.4 245.6,559.9 246,560.6L246.5,560.6L246.5,559L249.8,559L249.8,568C249.8,568.5 250,568.8 250.5,568.8L251,568.8L251,571.9L248.8,571.9C248.2,571.9 247.7,571.7 247.3,571.4C246.9,571.1 246.8,570.6 246.8,570L246.2,570.1ZM243.2,569.2C244.2,569.2 244.9,568.9 245.5,568.3C246.1,567.7 246.4,566.8 246.4,565.7L246.4,565.4C246.4,564.3 246.1,563.4 245.5,562.8C244.9,562.2 244.2,561.8 243.2,561.8C242.2,561.8 241.5,562.1 240.9,562.8C240.3,563.4 240,564.3 240,565.4L240,565.7C240,566.8 240.3,567.7 240.9,568.3C241.5,568.9 242.3,569.2 243.2,569.2ZM253.4,559.1L257.2,559.1L257.2,553.8L260.5,553.8L260.5,559.1L265.2,559.1L265.2,562.2L260.5,562.2L260.5,568.1C260.5,568.6 260.7,568.9 261.2,568.9L264.7,568.9L264.7,572L259.2,572C258.6,572 258.1,571.8 257.7,571.4C257.3,571 257.2,570.5 257.2,569.9L257.2,562.2L253.4,562.2L253.4,559.1ZM269.8,568.9L274.3,568.9L274.3,562.2L270.2,562.2L270.2,559.1L277.5,559.1L277.5,568.9L281.2,568.9L281.2,572L269.8,572L269.8,568.9ZM278.3,555.3C278.3,555.6 278.2,556 278.1,556.3C278,556.6 277.8,556.9 277.6,557.1C277.4,557.3 277.1,557.5 276.8,557.6C276.5,557.7 276.2,557.8 275.9,557.8C275.6,557.8 275.2,557.7 274.9,557.6C274.6,557.5 274.3,557.3 274.1,557.1C273.9,556.9 273.7,556.6 273.6,556.3C273.5,556 273.4,555.7 273.4,555.3C273.4,555 273.5,554.6 273.6,554.3C273.7,554 273.9,553.7 274.1,553.5C274.3,553.3 274.6,553.1 274.9,553C275.2,552.9 275.5,552.8 275.9,552.8C276.2,552.8 276.5,552.9 276.8,553C277.1,553.1 277.4,553.3 277.6,553.5C277.8,553.7 278,554 278.1,554.3C278.3,554.6 278.3,554.9 278.3,555.3ZM298.2,565.7C298.2,566.8 298,567.7 297.7,568.6C297.3,569.4 296.8,570.1 296.2,570.7C295.6,571.3 294.9,571.7 294,572C293.2,572.3 292.4,572.4 291.5,572.4C290.6,572.4 289.8,572.3 289,572C288.2,571.7 287.5,571.3 286.9,570.7C286.3,570.1 285.8,569.4 285.4,568.6C285,567.8 284.9,566.8 284.9,565.7L284.9,565.4C284.9,564.3 285.1,563.4 285.4,562.6C285.8,561.8 286.3,561.1 286.9,560.5C287.5,559.9 288.2,559.5 289,559.2C289.8,558.9 290.7,558.8 291.5,558.8C292.3,558.8 293.2,558.9 294,559.2C294.8,559.5 295.5,559.9 296.2,560.5C296.8,561.1 297.3,561.8 297.7,562.6C298.1,563.4 298.2,564.4 298.2,565.4L298.2,565.7ZM291.5,569.2C292,569.2 292.4,569.1 292.8,569C293.2,568.8 293.6,568.6 293.9,568.3C294.2,568 294.5,567.7 294.6,567.2C294.8,566.8 294.9,566.3 294.9,565.7L294.9,565.2C294.9,564.7 294.8,564.2 294.6,563.8C294.4,563.4 294.2,563 293.9,562.7C293.6,562.4 293.2,562.2 292.8,562C292.4,561.8 291.9,561.8 291.5,561.8C291,561.8 290.6,561.9 290.2,562C289.8,562.2 289.4,562.4 289.1,562.7C288.8,563 288.5,563.4 288.3,563.8C288.1,564.2 288,564.7 288,565.2L288,565.7C288,566.2 288.1,566.7 288.3,567.2C288.5,567.6 288.7,568 289.1,568.3C289.4,568.6 289.8,568.8 290.2,569C290.6,569.2 291,569.2 291.5,569.2ZM304.8,572L301.5,572L301.5,559.1L304.8,559.1L304.8,561L305.3,561C305.6,560.3 306.1,559.7 306.7,559.3C307.3,558.9 308.1,558.7 309,558.7C309.6,558.7 310.2,558.8 310.7,559C311.3,559.2 311.7,559.5 312.2,559.9C312.6,560.3 312.9,560.8 313.2,561.5C313.4,562.1 313.6,562.9 313.6,563.8L313.6,572L310.3,572L310.3,564.7C310.3,563.8 310.1,563.1 309.6,562.5C309.2,562 308.5,561.7 307.7,561.7C306.7,561.7 306,562 305.5,562.7C305,563.3 304.8,564.2 304.8,565.3L304.8,572ZM325.8,570.1C325.5,570.9 325,571.5 324.3,571.8C323.7,572.1 322.9,572.3 322.1,572.3C321.3,572.3 320.6,572.2 319.9,571.9C319.2,571.6 318.6,571.2 318.1,570.6C317.6,570 317.2,569.3 316.9,568.5C316.6,567.7 316.5,566.8 316.5,565.7L316.5,565.3C316.5,564.3 316.6,563.4 316.9,562.5C317.2,561.7 317.6,561 318.1,560.4C318.6,559.8 319.2,559.4 319.8,559.1C320.5,558.8 321.2,558.6 322,558.6C322.9,558.6 323.7,558.8 324.2,559.1C324.8,559.4 325.2,559.9 325.6,560.6L326.1,560.6L326.1,559L329.4,559L329.4,568C329.4,568.5 329.6,568.8 330.1,568.8L330.6,568.8L330.6,571.9L328.4,571.9C327.8,571.9 327.3,571.7 326.9,571.4C326.5,571.1 326.4,570.6 326.4,570L325.8,570.1ZM322.8,569.2C323.8,569.2 324.5,568.9 325.1,568.3C325.7,567.7 326,566.8 326,565.7L326,565.4C326,564.3 325.7,563.4 325.1,562.8C324.5,562.2 323.8,561.8 322.8,561.8C321.8,561.8 321.1,562.1 320.5,562.8C319.9,563.4 319.6,564.3 319.6,565.4L319.6,565.7C319.6,566.8 319.9,567.7 320.5,568.3C321.1,568.9 321.9,569.2 322.8,569.2ZM333.2,568.9L337.7,568.9L337.7,556.9L333.3,556.9L333.3,553.8L340.9,553.8L340.9,568.9L345.1,568.9L345.1,572L333.1,572L333.2,568.9ZM373.9,559.1L377.2,559.1L377.2,572L373.9,572L373.9,570.1L373.4,570.1C372.8,571.6 371.6,572.3 369.7,572.3C369.1,572.3 368.5,572.2 367.9,572C367.3,571.8 366.9,571.5 366.4,571C366,570.6 365.7,570 365.4,569.4C365.2,568.7 365.1,568 365.1,567.1L365.1,559L368.4,559L368.4,566.4C368.4,567.3 368.6,568 369,568.6C369.4,569.1 370.1,569.4 371,569.4C372,569.4 372.7,569.1 373.2,568.5C373.7,567.9 373.9,567 373.9,565.9L373.9,559.1ZM385.2,562.7C385.2,563.1 385.4,563.4 385.8,563.6C386.2,563.8 387,563.9 388.2,564C389.5,564.1 390.6,564.5 391.4,565.2C392.2,565.8 392.6,566.7 392.6,567.9L392.6,568.1C392.6,569.4 392.1,570.4 391.2,571.2C390.3,572 388.9,572.3 387.2,572.3C386.2,572.3 385.3,572.2 384.6,571.9C383.9,571.6 383.3,571.3 382.8,570.9C382.3,570.5 382,570.1 381.7,569.6C381.5,569.1 381.3,568.6 381.2,568.2L384.2,567.2C384.3,567.8 384.6,568.2 385.1,568.7C385.5,569.1 386.2,569.3 387.2,569.3C388,569.3 388.6,569.2 388.9,568.9C389.2,568.6 389.4,568.4 389.4,568.1C389.4,567.9 389.4,567.8 389.3,567.6C389.2,567.4 389.1,567.3 388.9,567.2C388.7,567.1 388.4,566.9 388,566.9C387.7,566.8 387.2,566.7 386.7,566.7C385.2,566.6 384.1,566.2 383.2,565.6C382.3,565 381.9,564 381.9,562.8L381.9,562.6C381.9,562 382,561.4 382.3,560.9C382.6,560.4 382.9,560 383.4,559.7C383.8,559.4 384.4,559.1 385,558.9C385.6,558.7 386.2,558.6 386.8,558.6C387.6,558.6 388.3,558.7 388.9,558.9C389.5,559.1 390,559.4 390.4,559.7C390.8,560 391.2,560.4 391.4,560.8C391.7,561.2 391.9,561.6 392,561.9L389,563.1C388.8,562.6 388.6,562.3 388.2,562C387.8,561.7 387.3,561.6 386.7,561.6C386.1,561.6 385.7,561.7 385.5,561.9C385.3,562.2 385.2,562.4 385.2,562.7ZM399.9,566.6C399.9,567 400,567.3 400.2,567.7C400.4,568 400.6,568.3 400.9,568.5C401.2,568.7 401.5,568.9 401.9,569C402.3,569.1 402.7,569.2 403.1,569.2C403.9,569.2 404.5,569.1 405,568.8C405.4,568.5 405.7,568.2 405.9,567.8L408.7,569.4C408.5,569.7 408.3,570.1 408.1,570.4C407.8,570.7 407.5,571.1 407,571.4C406.6,571.7 406,571.9 405.4,572.1C404.8,572.3 404,572.4 403.2,572.4C402.2,572.4 401.3,572.2 400.5,571.9C399.7,571.6 399,571.1 398.4,570.5C397.8,569.9 397.4,569.2 397,568.3C396.7,567.5 396.5,566.5 396.5,565.4L396.5,565.2C396.5,564.2 396.7,563.3 397,562.5C397.3,561.7 397.8,561 398.4,560.4C399,559.8 399.7,559.4 400.5,559.1C401.3,558.8 402.1,558.6 403,558.6C404.1,558.6 405.1,558.8 405.9,559.2C406.7,559.6 407.4,560.1 407.9,560.7C408.4,561.3 408.8,561.9 409,562.7C409.2,563.4 409.4,564.1 409.4,564.8L409.4,566.5L399.9,566.5L399.9,566.6ZM403,561.7C402.2,561.7 401.5,561.9 401,562.4C400.5,562.8 400.1,563.3 400,563.9L406.1,563.9C406,563.3 405.7,562.8 405.1,562.4C404.5,561.9 403.8,561.7 403,561.7ZM412.3,559.1L417.8,559.1L417.8,561L418.3,561C418.5,560.3 418.9,559.7 419.5,559.4C420.1,559 420.8,558.8 421.6,558.8C422.9,558.8 423.9,559.2 424.7,560C425.5,560.8 425.9,562 425.9,563.7L425.9,564.3L422.5,564.6L422.5,564.2C422.5,563.5 422.3,562.9 422,562.5C421.6,562.1 421.1,561.8 420.4,561.8C419.7,561.8 419.1,562.1 418.7,562.6C418.3,563.1 418.1,563.8 418.1,564.8L418.1,569L421.1,569L421.1,572.1L412,572.1L412,569L414.7,569L414.7,562.3L412.4,562.3L412.4,559.1L412.3,559.1ZM430.7,563.4L438.8,563.4L438.8,566.4L430.7,566.4L430.7,563.4ZM448.9,562.7C448.9,563.1 449.1,563.4 449.5,563.6C449.9,563.8 450.7,563.9 451.9,564C453.2,564.1 454.3,564.5 455.1,565.2C455.9,565.8 456.3,566.7 456.3,567.9L456.3,568.1C456.3,569.4 455.8,570.4 454.9,571.2C454,572 452.6,572.3 450.9,572.3C449.9,572.3 449,572.2 448.3,571.9C447.6,571.6 447,571.3 446.5,570.9C446,570.5 445.7,570.1 445.4,569.6C445.2,569.1 445,568.6 444.9,568.2L447.9,567.2C448,567.8 448.3,568.2 448.8,568.7C449.3,569.1 449.9,569.3 450.9,569.3C451.7,569.3 452.3,569.2 452.6,568.9C452.9,568.6 453.1,568.4 453.1,568.1C453.1,567.9 453.1,567.8 453,567.6C452.9,567.4 452.8,567.3 452.6,567.2C452.4,567.1 452.1,566.9 451.7,566.9C451.4,566.8 450.9,566.7 450.4,566.7C448.9,566.6 447.8,566.2 446.9,565.6C446.1,565 445.6,564 445.6,562.8L445.6,562.6C445.6,562 445.7,561.4 446,560.9C446.3,560.4 446.6,560 447.1,559.7C447.6,559.4 448.1,559.1 448.7,558.9C449.3,558.7 449.9,558.6 450.5,558.6C451.3,558.6 452,558.7 452.6,558.9C453.2,559.1 453.7,559.4 454.1,559.7C454.5,560 454.9,560.4 455.1,560.8C455.4,561.2 455.6,561.6 455.7,561.9L452.7,563.1C452.5,562.6 452.3,562.3 451.9,562C451.5,561.7 451,561.6 450.4,561.6C449.8,561.6 449.4,561.7 449.2,561.9C449,562.2 448.9,562.4 448.9,562.7ZM463.5,577.2L460,577.2L460,559.1L463.3,559.1L463.3,561L463.8,561C464.1,560.3 464.7,559.7 465.3,559.4C466,559 466.8,558.8 467.8,558.8C468.6,558.8 469.3,558.9 470,559.2C470.7,559.5 471.3,559.9 471.8,560.5C472.3,561.1 472.7,561.7 473,562.6C473.3,563.4 473.5,564.3 473.5,565.4L473.5,565.9C473.5,567 473.4,567.9 473.1,568.7C472.8,569.5 472.4,570.2 471.9,570.8C471.4,571.4 470.8,571.8 470.1,572.1C469.4,572.4 468.7,572.5 467.9,572.5C467.3,572.5 466.8,572.4 466.4,572.3C466,572.2 465.6,572 465.3,571.8C465,571.6 464.7,571.4 464.5,571.1C464.3,570.8 464.1,570.5 464,570.2L463.5,570.2L463.5,577.2ZM466.7,569.2C467.7,569.2 468.5,568.9 469.2,568.3C469.8,567.7 470.2,566.8 470.2,565.7L470.2,565.4C470.2,564.3 469.9,563.4 469.2,562.8C468.6,562.2 467.8,561.8 466.7,561.8C465.7,561.8 464.8,562.1 464.2,562.8C463.6,563.4 463.3,564.3 463.3,565.3L463.3,565.6C463.3,566.7 463.6,567.5 464.2,568.2C464.9,568.9 465.7,569.2 466.7,569.2ZM485,570.1C484.7,570.9 484.2,571.5 483.5,571.8C482.9,572.1 482.1,572.3 481.3,572.3C480.5,572.3 479.8,572.2 479.1,571.9C478.4,571.6 477.8,571.2 477.3,570.6C476.8,570 476.4,569.3 476.1,568.5C475.8,567.7 475.7,566.8 475.7,565.7L475.7,565.3C475.7,564.3 475.8,563.4 476.1,562.5C476.4,561.7 476.8,561 477.3,560.4C477.8,559.8 478.4,559.4 479,559.1C479.7,558.8 480.4,558.6 481.2,558.6C482.1,558.6 482.9,558.8 483.4,559.1C484,559.4 484.4,559.9 484.8,560.6L485.3,560.6L485.3,559L488.6,559L488.6,568C488.6,568.5 488.8,568.8 489.3,568.8L489.8,568.8L489.8,571.9L487.6,571.9C487,571.9 486.5,571.7 486.1,571.4C485.7,571.1 485.6,570.6 485.6,570L485,570.1ZM482,569.2C483,569.2 483.7,568.9 484.3,568.3C484.9,567.7 485.2,566.8 485.2,565.7L485.2,565.4C485.2,564.3 484.9,563.4 484.3,562.8C483.7,562.2 483,561.8 482,561.8C481,561.8 480.3,562.1 479.7,562.8C479.1,563.4 478.8,564.3 478.8,565.4L478.8,565.7C478.8,566.8 479.1,567.7 479.7,568.3C480.3,568.9 481.1,569.2 482,569.2ZM505.1,567.3C504.8,568.8 504.1,570.1 503,571C501.9,571.9 500.4,572.4 498.6,572.4C497.6,572.4 496.8,572.3 495.9,572C495.1,571.7 494.4,571.3 493.8,570.7C493.2,570.1 492.7,569.5 492.4,568.6C492.1,567.8 491.9,566.9 491.9,565.8L491.9,565.5C491.9,564.5 492.1,563.5 492.4,562.7C492.7,561.9 493.2,561.2 493.8,560.6C494.4,560 495.1,559.6 496,559.2C496.8,558.9 497.7,558.7 498.7,558.7C500.5,558.7 502,559.2 503.1,560.1C504.2,561 504.9,562.3 505.2,563.8L502,564.6C501.9,563.8 501.6,563.2 501,562.6C500.4,562 499.7,561.8 498.7,561.8C498.2,561.8 497.8,561.9 497.4,562.1C497,562.3 496.6,562.5 496.3,562.9C496,563.2 495.7,563.6 495.5,564.1C495.3,564.6 495.2,565.1 495.2,565.6L495.2,565.8C495.2,566.4 495.3,566.9 495.5,567.3C495.7,567.7 495.9,568.1 496.3,568.4C496.6,568.7 497,568.9 497.4,569.1C497.8,569.2 498.3,569.3 498.7,569.3C499.7,569.3 500.5,569 501,568.5C501.5,568 501.9,567.3 502,566.5L505.1,567.3ZM511.3,566.6C511.3,567 511.4,567.3 511.6,567.7C511.8,568 512,568.3 512.3,568.5C512.6,568.7 512.9,568.9 513.3,569C513.7,569.1 514.1,569.2 514.5,569.2C515.3,569.2 515.9,569.1 516.4,568.8C516.8,568.5 517.1,568.2 517.3,567.8L520.1,569.4C519.9,569.7 519.7,570.1 519.5,570.4C519.2,570.7 518.9,571.1 518.4,571.4C518,571.7 517.4,571.9 516.8,572.1C516.2,572.3 515.4,572.4 514.6,572.4C513.6,572.4 512.7,572.2 511.9,571.9C511.1,571.6 510.4,571.1 509.8,570.5C509.2,569.9 508.8,569.2 508.4,568.3C508.1,567.5 507.9,566.5 507.9,565.4L507.9,565.2C507.9,564.2 508.1,563.3 508.4,562.5C508.7,561.7 509.2,561 509.8,560.4C510.4,559.8 511.1,559.4 511.9,559.1C512.7,558.8 513.5,558.6 514.4,558.6C515.5,558.6 516.5,558.8 517.3,559.2C518.1,559.6 518.8,560.1 519.3,560.7C519.8,561.3 520.2,561.9 520.4,562.7C520.6,563.4 520.8,564.1 520.8,564.8L520.8,566.5L511.3,566.5L511.3,566.6ZM514.4,561.7C513.6,561.7 512.9,561.9 512.4,562.4C511.9,562.8 511.5,563.3 511.4,563.9L517.5,563.9C517.4,563.3 517.1,562.8 516.5,562.4C515.9,561.9 515.3,561.7 514.4,561.7ZM94.6,589.8L98,589.8L98,604.7L106.3,604.7L106.3,608L94.6,608L94.6,589.8ZM110.7,604.9L115.1,604.9L115.1,598.2L111,598.2L111,595.1L118.3,595.1L118.3,604.9L122,604.9L122,608L110.6,608L110.7,604.9ZM119.1,591.3C119.1,591.6 119,592 118.9,592.3C118.8,592.6 118.6,592.9 118.4,593.1C118.2,593.3 117.9,593.5 117.6,593.6C117.3,593.7 117,593.8 116.7,593.8C116.4,593.8 116,593.7 115.7,593.6C115.4,593.5 115.1,593.3 114.9,593.1C114.7,592.9 114.5,592.6 114.4,592.3C114.3,592 114.2,591.7 114.2,591.3C114.2,591 114.3,590.6 114.4,590.3C114.5,590 114.7,589.7 114.9,589.5C115.1,589.3 115.4,589.1 115.7,589C116,588.9 116.3,588.8 116.7,588.8C117,588.8 117.3,588.9 117.6,589C117.9,589.1 118.2,589.3 118.4,589.5C118.6,589.7 118.8,590 118.9,590.3C119.1,590.6 119.1,590.9 119.1,591.3ZM129.6,608L126.3,608L126.3,595.1L129.6,595.1L129.6,597L130.1,597C130.4,596.3 130.9,595.7 131.5,595.3C132.2,594.9 132.9,594.7 133.8,594.7C134.4,594.7 135,594.8 135.5,595C136.1,595.2 136.5,595.5 137,595.9C137.4,596.3 137.7,596.8 138,597.5C138.2,598.1 138.4,598.9 138.4,599.8L138.4,608L135.1,608L135.1,600.7C135.1,599.8 134.9,599.1 134.4,598.5C134,598 133.3,597.7 132.5,597.7C131.5,597.7 130.8,598 130.3,598.7C129.8,599.3 129.6,600.2 129.6,601.3L129.6,608ZM151,595.1L154.3,595.1L154.3,608L151,608L151,606.1L150.5,606.1C149.9,607.6 148.7,608.3 146.8,608.3C146.2,608.3 145.6,608.2 145,608C144.4,607.8 144,607.5 143.5,607C143.1,606.6 142.8,606 142.5,605.4C142.3,604.7 142.2,604 142.2,603.1L142.2,595L145.5,595L145.5,602.4C145.5,603.3 145.7,604 146.2,604.6C146.6,605.1 147.3,605.4 148.1,605.4C149.1,605.4 149.8,605.1 150.3,604.5C150.8,603.9 151,603 151,601.9L151,595.1ZM166.8,595.1L170.4,595.1L167.3,601.2L167.3,601.7L170.6,608.1L166.8,608.1L164.4,603.1L163.9,603.1L161.5,608.1L157.7,608.1L161,601.7L161,601.2L157.9,595.1L161.5,595.1L163.9,599.8L164.4,599.8L166.8,595.1ZM202.6,603.3C202.3,604.8 201.6,606.1 200.5,607C199.4,607.9 197.9,608.4 196.1,608.4C195.1,608.4 194.3,608.3 193.4,608C192.6,607.7 191.9,607.3 191.3,606.7C190.7,606.1 190.2,605.5 189.9,604.6C189.6,603.8 189.4,602.9 189.4,601.8L189.4,601.5C189.4,600.5 189.6,599.5 189.9,598.7C190.2,597.9 190.7,597.2 191.3,596.6C191.9,596 192.6,595.6 193.5,595.2C194.3,594.9 195.2,594.7 196.2,594.7C198,594.7 199.5,595.2 200.6,596.1C201.7,597 202.4,598.3 202.7,599.8L199.5,600.6C199.4,599.8 199.1,599.2 198.5,598.6C197.9,598 197.2,597.8 196.2,597.8C195.7,597.8 195.3,597.9 194.9,598.1C194.5,598.3 194.1,598.5 193.8,598.9C193.5,599.2 193.2,599.6 193,600.1C192.8,600.6 192.7,601.1 192.7,601.6L192.7,601.8C192.7,602.4 192.8,602.9 193,603.3C193.2,603.7 193.4,604.1 193.8,604.4C194.1,604.7 194.5,604.9 194.9,605.1C195.3,605.2 195.8,605.3 196.2,605.3C197.2,605.3 198,605 198.5,604.5C199,604 199.4,603.3 199.5,602.5L202.6,603.3ZM218.6,601.7C218.6,602.8 218.4,603.7 218.1,604.6C217.7,605.4 217.2,606.1 216.6,606.7C216,607.3 215.3,607.7 214.4,608C213.6,608.3 212.8,608.4 211.9,608.4C211,608.4 210.2,608.3 209.4,608C208.6,607.7 207.9,607.3 207.3,606.7C206.7,606.1 206.2,605.4 205.8,604.6C205.4,603.8 205.3,602.8 205.3,601.7L205.3,601.4C205.3,600.3 205.5,599.4 205.8,598.6C206.2,597.8 206.7,597.1 207.3,596.5C207.9,595.9 208.6,595.5 209.4,595.2C210.2,594.9 211.1,594.8 211.9,594.8C212.7,594.8 213.6,594.9 214.4,595.2C215.2,595.5 215.9,595.9 216.6,596.5C217.2,597.1 217.7,597.8 218.1,598.6C218.5,599.4 218.6,600.4 218.6,601.4L218.6,601.7ZM211.9,605.2C212.4,605.2 212.8,605.1 213.2,605C213.6,604.9 214,604.6 214.3,604.3C214.6,604 214.9,603.7 215,603.2C215.2,602.8 215.3,602.3 215.3,601.7L215.3,601.2C215.3,600.7 215.2,600.2 215,599.8C214.8,599.4 214.6,599 214.3,598.7C214,598.4 213.6,598.2 213.2,598C212.8,597.8 212.3,597.8 211.9,597.8C211.5,597.8 211,597.9 210.6,598C210.2,598.1 209.8,598.4 209.5,598.7C209.2,599 208.9,599.4 208.7,599.8C208.5,600.2 208.4,600.7 208.4,601.2L208.4,601.7C208.4,602.2 208.5,602.7 208.7,603.2C208.9,603.6 209.1,604 209.5,604.3C209.8,604.6 210.2,604.8 210.6,605C211,605.2 211.4,605.2 211.9,605.2ZM225.2,608L221.9,608L221.9,595.1L225.2,595.1L225.2,597L225.7,597C226,596.3 226.5,595.7 227.1,595.3C227.8,594.9 228.5,594.7 229.4,594.7C230,594.7 230.6,594.8 231.1,595C231.7,595.2 232.1,595.5 232.6,595.9C233,596.3 233.3,596.8 233.6,597.5C233.8,598.1 234,598.9 234,599.8L234,608L230.7,608L230.7,600.7C230.7,599.8 230.5,599.1 230,598.5C229.6,598 228.9,597.7 228.1,597.7C227.1,597.7 226.4,598 225.9,598.7C225.4,599.3 225.2,600.2 225.2,601.3L225.2,608ZM237.7,595.1L241.4,595.1L241.4,592.4C241.4,591.7 241.7,591 242.2,590.5C242.7,590 243.3,589.7 244.1,589.7L249.4,589.7L249.4,592.8L245.5,592.8C245,592.8 244.8,593.1 244.8,593.6L244.8,595L249.9,595L249.9,598.1L244.8,598.1L244.8,607.9L241.5,607.9L241.5,598.1L237.8,598.1L237.8,595.1L237.7,595.1ZM256.6,602.6C256.6,603 256.7,603.3 256.9,603.7C257.1,604 257.3,604.3 257.6,604.5C257.9,604.7 258.2,604.9 258.6,605C259,605.1 259.4,605.2 259.8,605.2C260.6,605.2 261.2,605.1 261.7,604.8C262.1,604.5 262.4,604.2 262.6,603.8L265.4,605.4C265.2,605.7 265,606.1 264.8,606.4C264.5,606.7 264.2,607.1 263.7,607.4C263.3,607.7 262.7,607.9 262.1,608.1C261.5,608.3 260.7,608.4 259.9,608.4C258.9,608.4 258,608.2 257.2,607.9C256.4,607.6 255.7,607.1 255.1,606.5C254.5,605.9 254.1,605.2 253.7,604.3C253.4,603.5 253.2,602.5 253.2,601.4L253.2,601.2C253.2,600.2 253.4,599.3 253.7,598.5C254,597.7 254.5,597 255.1,596.4C255.7,595.8 256.4,595.4 257.2,595.1C258,594.8 258.8,594.6 259.7,594.6C260.8,594.6 261.8,594.8 262.6,595.2C263.4,595.6 264.1,596.1 264.6,596.7C265.1,597.3 265.5,597.9 265.7,598.7C265.9,599.4 266.1,600.1 266.1,600.8L266.1,602.5L256.6,602.5L256.6,602.6ZM259.7,597.7C258.9,597.7 258.2,597.9 257.7,598.4C257.2,598.8 256.8,599.3 256.7,599.9L262.8,599.9C262.7,599.3 262.4,598.8 261.8,598.4C261.2,597.9 260.5,597.7 259.7,597.7ZM269,595.1L274.5,595.1L274.5,597L275,597C275.2,596.3 275.7,595.7 276.2,595.4C276.8,595 277.5,594.8 278.3,594.8C279.6,594.8 280.6,595.2 281.4,596C282.2,596.8 282.6,598 282.6,599.7L282.6,600.3L279.2,600.6L279.2,600.2C279.2,599.5 279,598.9 278.7,598.5C278.3,598.1 277.8,597.8 277.1,597.8C276.4,597.8 275.8,598.1 275.4,598.6C275,599.1 274.8,599.8 274.8,600.8L274.8,605L277.8,605L277.8,608.1L268.9,608.1L268.9,605L271.6,605L271.6,598.3L269,598.3L269,595.1ZM288.5,602.6C288.5,603 288.6,603.3 288.8,603.7C289,604 289.2,604.3 289.5,604.5C289.8,604.7 290.1,604.9 290.5,605C290.9,605.1 291.3,605.2 291.7,605.2C292.5,605.2 293.1,605.1 293.6,604.8C294,604.5 294.3,604.2 294.5,603.8L297.3,605.4C297.1,605.7 296.9,606.1 296.7,606.4C296.4,606.7 296.1,607.1 295.6,607.4C295.2,607.7 294.6,607.9 294,608.1C293.4,608.3 292.6,608.4 291.8,608.4C290.8,608.4 289.9,608.2 289.1,607.9C288.3,607.6 287.6,607.1 287,606.5C286.4,605.9 286,605.2 285.6,604.3C285.3,603.5 285.1,602.5 285.1,601.4L285.1,601.2C285.1,600.2 285.3,599.3 285.6,598.5C285.9,597.7 286.4,597 287,596.4C287.6,595.8 288.3,595.4 289.1,595.1C289.9,594.8 290.7,594.6 291.6,594.6C292.7,594.6 293.7,594.8 294.5,595.2C295.3,595.6 296,596.1 296.5,596.7C297,597.3 297.4,597.9 297.6,598.7C297.8,599.4 298,600.1 298,600.8L298,602.5L288.5,602.5L288.5,602.6ZM291.5,597.7C290.7,597.7 290,597.9 289.5,598.4C289,598.8 288.6,599.3 288.5,599.9L294.6,599.9C294.5,599.3 294.2,598.8 293.6,598.4C293.1,597.9 292.4,597.7 291.5,597.7ZM304.8,608L301.5,608L301.5,595.1L304.8,595.1L304.8,597L305.3,597C305.6,596.3 306.1,595.7 306.7,595.3C307.3,594.9 308.1,594.7 309,594.7C309.6,594.7 310.2,594.8 310.7,595C311.3,595.2 311.7,595.5 312.2,595.9C312.6,596.3 312.9,596.8 313.2,597.5C313.4,598.1 313.6,598.9 313.6,599.8L313.6,608L310.3,608L310.3,600.7C310.3,599.8 310.1,599.1 309.6,598.5C309.2,598 308.5,597.7 307.7,597.7C306.7,597.7 306,598 305.5,598.7C305,599.3 304.8,600.2 304.8,601.3L304.8,608ZM330,603.3C329.7,604.8 329,606.1 327.9,607C326.8,607.9 325.3,608.4 323.5,608.4C322.5,608.4 321.7,608.3 320.8,608C320,607.7 319.3,607.3 318.7,606.7C318.1,606.1 317.6,605.5 317.3,604.6C317,603.8 316.8,602.9 316.8,601.8L316.8,601.5C316.8,600.5 317,599.5 317.3,598.7C317.6,597.9 318.1,597.2 318.7,596.6C319.3,596 320,595.6 320.9,595.2C321.7,594.9 322.6,594.7 323.6,594.7C325.4,594.7 326.9,595.2 328,596.1C329.1,597 329.8,598.3 330.1,599.8L326.9,600.6C326.8,599.8 326.5,599.2 325.9,598.6C325.3,598 324.6,597.8 323.6,597.8C323.1,597.8 322.7,597.9 322.3,598.1C321.9,598.3 321.5,598.5 321.2,598.9C320.9,599.2 320.6,599.6 320.4,600.1C320.2,600.6 320.1,601.1 320.1,601.6L320.1,601.8C320.1,602.4 320.2,602.9 320.4,603.3C320.6,603.7 320.8,604.1 321.2,604.4C321.5,604.7 321.9,604.9 322.3,605.1C322.7,605.2 323.2,605.3 323.6,605.3C324.6,605.3 325.4,605 325.9,604.5C326.4,604 326.8,603.3 326.9,602.5L330,603.3ZM336.2,602.6C336.2,603 336.3,603.3 336.5,603.7C336.7,604 336.9,604.3 337.2,604.5C337.5,604.7 337.8,604.9 338.2,605C338.6,605.1 339,605.2 339.4,605.2C340.2,605.2 340.8,605.1 341.3,604.8C341.7,604.5 342,604.2 342.2,603.8L345,605.4C344.8,605.7 344.6,606.1 344.4,606.4C344.1,606.7 343.8,607.1 343.3,607.4C342.9,607.7 342.3,607.9 341.7,608.1C341.1,608.3 340.3,608.4 339.5,608.4C338.5,608.4 337.6,608.2 336.8,607.9C336,607.6 335.3,607.1 334.7,606.5C334.1,605.9 333.7,605.2 333.3,604.3C333,603.5 332.8,602.5 332.8,601.4L332.8,601.2C332.8,600.2 333,599.3 333.3,598.5C333.6,597.7 334.1,597 334.7,596.4C335.3,595.8 336,595.4 336.8,595.1C337.6,594.8 338.4,594.6 339.3,594.6C340.4,594.6 341.4,594.8 342.2,595.2C343,595.6 343.7,596.1 344.2,596.7C344.7,597.3 345.1,597.9 345.3,598.7C345.5,599.4 345.7,600.1 345.7,600.8L345.7,602.5L336.2,602.5L336.2,602.6ZM339.3,597.7C338.5,597.7 337.8,597.9 337.3,598.4C336.8,598.8 336.4,599.3 336.3,599.9L342.4,599.9C342.3,599.3 342,598.8 341.4,598.4C340.8,597.9 340.1,597.7 339.3,597.7Z" style="fill:white;fill-rule:nonzero;"/>
        <g transform="matrix(1.11114,0,0,1.11114,-74.2923,26.323)">
            <path d="M668.276,62.623C668.276,61.665 667.906,60.833 667.165,60.126C666.424,59.42 665.381,59.066 664.036,59.066C662.896,59.066 661.995,59.3 661.334,59.767C660.673,60.235 660.342,60.867 660.342,61.665C660.342,62.076 660.422,62.446 660.582,62.777C660.741,63.107 661.02,63.404 661.419,63.666C661.818,63.928 662.343,64.162 662.993,64.367C663.642,64.572 664.469,64.766 665.472,64.948C667.98,65.404 669.895,66.168 671.218,67.24C672.54,68.311 673.201,69.896 673.201,71.994L673.201,72.404C673.201,73.521 673.002,74.53 672.603,75.431C672.204,76.331 671.628,77.101 670.876,77.739C670.123,78.377 669.211,78.868 668.14,79.21C667.068,79.552 665.86,79.723 664.514,79.723C662.941,79.723 661.556,79.5 660.359,79.056C659.162,78.611 658.165,77.995 657.367,77.209C656.569,76.422 655.965,75.499 655.554,74.439C655.144,73.379 654.939,72.222 654.939,70.968L654.939,69.942L659.453,69.942L659.453,70.762C659.453,72.199 659.869,73.344 660.701,74.199C661.533,75.054 662.827,75.482 664.583,75.482C665.951,75.482 666.965,75.185 667.627,74.593C668.288,74 668.618,73.293 668.618,72.472C668.618,72.085 668.55,71.714 668.413,71.361C668.276,71.007 668.037,70.688 667.695,70.403C667.353,70.118 666.886,69.862 666.293,69.634C665.7,69.406 664.948,69.212 664.036,69.052C662.827,68.847 661.722,68.579 660.718,68.249C659.715,67.918 658.843,67.479 658.102,66.932C657.361,66.385 656.785,65.701 656.375,64.88C655.965,64.059 655.76,63.056 655.76,61.871L655.76,61.665C655.76,60.685 655.959,59.779 656.358,58.947C656.757,58.114 657.316,57.39 658.034,56.775C658.752,56.159 659.618,55.681 660.633,55.339C661.647,54.997 662.782,54.826 664.036,54.826C665.449,54.826 666.703,55.025 667.798,55.424C668.892,55.823 669.81,56.365 670.551,57.048C671.292,57.732 671.85,58.519 672.226,59.408C672.603,60.297 672.791,61.232 672.791,62.213L672.791,63.444L668.276,63.444L668.276,62.623Z" style="fill:white;fill-rule:nonzero;"/>
            <path d="M681.101,72.165C681.124,72.666 681.244,73.128 681.46,73.55C681.677,73.971 681.973,74.336 682.349,74.644C682.726,74.952 683.159,75.191 683.649,75.362C684.139,75.533 684.658,75.619 685.205,75.619C686.277,75.619 687.097,75.431 687.667,75.054C688.237,74.678 688.648,74.228 688.898,73.703L692.592,75.755C692.387,76.189 692.102,76.639 691.737,77.106C691.372,77.574 690.899,78.001 690.318,78.389C689.736,78.776 689.03,79.096 688.197,79.346C687.365,79.597 686.391,79.723 685.273,79.723C683.997,79.723 682.834,79.517 681.785,79.107C680.736,78.697 679.83,78.104 679.066,77.329C678.302,76.553 677.71,75.607 677.288,74.49C676.866,73.373 676.655,72.108 676.655,70.694L676.655,70.489C676.655,69.189 676.877,68.004 677.322,66.932C677.767,65.86 678.377,64.948 679.152,64.196C679.927,63.444 680.833,62.857 681.871,62.435C682.908,62.013 684.019,61.802 685.205,61.802C686.664,61.802 687.918,62.059 688.967,62.572C690.016,63.085 690.882,63.734 691.566,64.521C692.25,65.308 692.752,66.174 693.071,67.12C693.39,68.066 693.55,68.984 693.55,69.873L693.55,72.165L681.101,72.165ZM685.171,65.701C684.076,65.701 683.187,65.98 682.503,66.539C681.819,67.097 681.375,67.741 681.169,68.471L689.172,68.471C689.035,67.673 688.608,67.012 687.89,66.487C687.171,65.963 686.265,65.701 685.171,65.701Z" style="fill:white;fill-rule:nonzero;"/>
            <path d="M701.655,86.084L697.346,86.084L697.346,62.281L701.655,62.281L701.655,64.743L702.27,64.743C702.726,63.809 703.387,63.085 704.254,62.572C705.12,62.059 706.226,61.802 707.571,61.802C708.574,61.802 709.526,61.996 710.427,62.384C711.327,62.771 712.114,63.335 712.787,64.076C713.459,64.817 713.995,65.724 714.394,66.795C714.793,67.867 714.992,69.087 714.992,70.455L714.992,71.07C714.992,72.461 714.799,73.692 714.411,74.764C714.023,75.835 713.499,76.741 712.838,77.482C712.177,78.223 711.396,78.782 710.495,79.158C709.595,79.534 708.62,79.723 707.571,79.723C706.796,79.723 706.123,79.643 705.553,79.483C704.983,79.324 704.488,79.107 704.066,78.833C703.644,78.56 703.291,78.246 703.006,77.893C702.721,77.539 702.476,77.169 702.27,76.781L701.655,76.781L701.655,86.084ZM706.169,75.619C707.514,75.619 708.603,75.203 709.435,74.37C710.267,73.538 710.683,72.404 710.683,70.968L710.683,70.557C710.683,69.121 710.267,67.987 709.435,67.154C708.603,66.322 707.514,65.906 706.169,65.906C704.824,65.906 703.735,66.334 702.903,67.189C702.071,68.044 701.655,69.166 701.655,70.557L701.655,70.968C701.655,72.358 702.071,73.481 702.903,74.336C703.735,75.191 704.824,75.619 706.169,75.619Z" style="fill:white;fill-rule:nonzero;"/>
            <path d="M718.686,62.281L723.713,62.281L723.713,55.304L728.022,55.304L728.022,62.281L734.144,62.281L734.144,66.385L728.022,66.385L728.022,74.114C728.022,74.798 728.33,75.14 728.946,75.14L733.528,75.14L733.528,79.244L726.346,79.244C725.571,79.244 724.939,78.993 724.448,78.491C723.958,77.99 723.713,77.351 723.713,76.576L723.713,66.385L718.686,66.385L718.686,62.281Z" style="fill:white;fill-rule:nonzero;"/>
            <path d="M743.891,72.165C743.913,72.666 744.033,73.128 744.25,73.55C744.466,73.971 744.763,74.336 745.139,74.644C745.515,74.952 745.948,75.191 746.438,75.362C746.929,75.533 747.447,75.619 747.995,75.619C749.066,75.619 749.887,75.431 750.457,75.054C751.027,74.678 751.437,74.228 751.688,73.703L755.382,75.755C755.176,76.189 754.891,76.639 754.527,77.106C754.162,77.574 753.689,78.001 753.107,78.389C752.526,78.776 751.819,79.096 750.987,79.346C750.155,79.597 749.18,79.723 748.063,79.723C746.786,79.723 745.623,79.517 744.575,79.107C743.526,78.697 742.62,78.104 741.856,77.329C741.092,76.553 740.499,75.607 740.077,74.49C739.656,73.373 739.445,72.108 739.445,70.694L739.445,70.489C739.445,69.189 739.667,68.004 740.112,66.932C740.556,65.86 741.166,64.948 741.941,64.196C742.716,63.444 743.623,62.857 744.66,62.435C745.697,62.013 746.809,61.802 747.995,61.802C749.454,61.802 750.708,62.059 751.756,62.572C752.805,63.085 753.672,63.734 754.356,64.521C755.04,65.308 755.541,66.174 755.86,67.12C756.18,68.066 756.339,68.984 756.339,69.873L756.339,72.165L743.891,72.165ZM747.96,65.701C746.866,65.701 745.977,65.98 745.293,66.539C744.609,67.097 744.164,67.741 743.959,68.471L751.962,68.471C751.825,67.673 751.397,67.012 750.679,66.487C749.961,65.963 749.055,65.701 747.96,65.701Z" style="fill:white;fill-rule:nonzero;"/>
            <path d="M778.056,79.244L773.746,79.244L773.746,67.342C773.746,66.864 773.627,66.505 773.387,66.265C773.148,66.026 772.835,65.906 772.447,65.906C771.991,65.906 771.632,66.043 771.37,66.316C771.107,66.59 770.976,67 770.976,67.548L770.976,79.244L766.667,79.244L766.667,67.342C766.667,66.864 766.536,66.505 766.274,66.265C766.012,66.026 765.698,65.906 765.333,65.906C764.923,65.906 764.581,66.043 764.308,66.316C764.034,66.59 763.897,67 763.897,67.548L763.897,79.244L759.588,79.244L759.588,62.281L763.897,62.281L763.897,63.923L764.513,63.923C764.65,63.307 764.963,62.8 765.453,62.401C765.943,62.002 766.587,61.802 767.385,61.802C768.138,61.802 768.776,62.002 769.301,62.401C769.825,62.8 770.178,63.307 770.361,63.923L770.976,63.923C771.159,63.307 771.541,62.8 772.122,62.401C772.703,62.002 773.427,61.802 774.294,61.802C775.434,61.802 776.346,62.184 777.03,62.948C777.714,63.712 778.056,64.766 778.056,66.111L778.056,79.244Z" style="fill:white;fill-rule:nonzero;"/>
            <path d="M785.545,79.244L781.236,79.244L781.236,55.304L785.545,55.304L785.545,64.743L786.161,64.743C786.617,63.809 787.278,63.085 788.144,62.572C789.011,62.059 790.116,61.802 791.462,61.802C792.465,61.802 793.417,61.996 794.317,62.384C795.218,62.771 796.004,63.335 796.677,64.076C797.35,64.817 797.885,65.724 798.284,66.795C798.683,67.867 798.883,69.087 798.883,70.455L798.883,71.07C798.883,72.461 798.689,73.692 798.301,74.764C797.914,75.835 797.389,76.741 796.728,77.482C796.067,78.223 795.286,78.782 794.386,79.158C793.485,79.534 792.51,79.723 791.462,79.723C790.686,79.723 790.014,79.643 789.444,79.483C788.874,79.324 788.378,79.107 787.956,78.833C787.534,78.56 787.181,78.246 786.896,77.893C786.611,77.539 786.366,77.169 786.161,76.781L785.545,76.781L785.545,79.244ZM790.059,75.619C791.405,75.619 792.493,75.203 793.325,74.37C794.158,73.538 794.574,72.404 794.574,70.968L794.574,70.557C794.574,69.121 794.158,67.987 793.325,67.154C792.493,66.322 791.405,65.906 790.059,65.906C788.714,65.906 787.626,66.334 786.793,67.189C785.961,68.044 785.545,69.166 785.545,70.557L785.545,70.968C785.545,72.358 785.961,73.481 786.793,74.336C787.626,75.191 788.714,75.619 790.059,75.619Z" style="fill:white;fill-rule:nonzero;"/>
            <path d="M806.68,72.165C806.703,72.666 806.823,73.128 807.039,73.55C807.256,73.971 807.552,74.336 807.929,74.644C808.305,74.952 808.738,75.191 809.228,75.362C809.718,75.533 810.237,75.619 810.784,75.619C811.856,75.619 812.676,75.431 813.246,75.054C813.816,74.678 814.227,74.228 814.478,73.703L818.171,75.755C817.966,76.189 817.681,76.639 817.316,77.106C816.951,77.574 816.478,78.001 815.897,78.389C815.316,78.776 814.609,79.096 813.777,79.346C812.944,79.597 811.97,79.723 810.853,79.723C809.576,79.723 808.413,79.517 807.364,79.107C806.315,78.697 805.409,78.104 804.645,77.329C803.882,76.553 803.289,75.607 802.867,74.49C802.445,73.373 802.234,72.108 802.234,70.694L802.234,70.489C802.234,69.189 802.457,68.004 802.901,66.932C803.346,65.86 803.956,64.948 804.731,64.196C805.506,63.444 806.412,62.857 807.45,62.435C808.487,62.013 809.599,61.802 810.784,61.802C812.243,61.802 813.497,62.059 814.546,62.572C815.595,63.085 816.461,63.734 817.145,64.521C817.829,65.308 818.331,66.174 818.65,67.12C818.969,68.066 819.129,68.984 819.129,69.873L819.129,72.165L806.68,72.165ZM810.75,65.701C809.656,65.701 808.766,65.98 808.082,66.539C807.398,67.097 806.954,67.741 806.749,68.471L814.751,68.471C814.614,67.673 814.187,67.012 813.469,66.487C812.751,65.963 811.844,65.701 810.75,65.701Z" style="fill:white;fill-rule:nonzero;"/>
            <path d="M822.993,62.281L830.175,62.281L830.175,64.743L830.791,64.743C831.11,63.809 831.651,63.085 832.415,62.572C833.179,62.059 834.097,61.802 835.168,61.802C836.855,61.802 838.212,62.332 839.238,63.392C840.264,64.453 840.777,66.066 840.777,68.232L840.777,68.984L836.331,69.394L836.331,68.916C836.331,67.981 836.091,67.234 835.613,66.676C835.134,66.117 834.416,65.838 833.458,65.838C832.501,65.838 831.748,66.168 831.201,66.829C830.654,67.491 830.38,68.437 830.38,69.668L830.38,75.14L834.279,75.14L834.279,79.244L822.583,79.244L822.583,75.14L826.071,75.14L826.071,66.385L822.993,66.385L822.993,62.281Z" style="fill:white;fill-rule:nonzero;"/>
            <path d="M672.756,109.134L672.756,113.443L655.93,113.443L655.93,108.723C655.93,107.469 656.119,106.398 656.495,105.509C656.871,104.619 657.407,103.867 658.102,103.252C658.798,102.636 659.635,102.129 660.616,101.73C661.596,101.331 662.702,100.994 663.933,100.721C664.845,100.516 665.592,100.282 666.173,100.02C666.755,99.757 667.216,99.461 667.558,99.131C667.9,98.8 668.134,98.435 668.259,98.036C668.385,97.637 668.447,97.187 668.447,96.685C668.447,95.728 668.1,94.93 667.404,94.291C666.709,93.653 665.746,93.334 664.514,93.334C663.215,93.334 662.178,93.727 661.402,94.514C660.627,95.3 660.24,96.389 660.24,97.78L660.24,99.284L655.725,99.284L655.725,97.369C655.725,96.252 655.925,95.186 656.324,94.172C656.723,93.157 657.293,92.268 658.034,91.504C658.775,90.74 659.681,90.136 660.753,89.692C661.824,89.247 663.033,89.025 664.378,89.025C665.814,89.025 667.068,89.236 668.14,89.657C669.211,90.079 670.106,90.632 670.824,91.316C671.542,92 672.078,92.792 672.432,93.693C672.785,94.593 672.962,95.523 672.962,96.48L672.962,96.89C672.962,98.897 672.397,100.561 671.269,101.884C670.14,103.206 668.299,104.163 665.746,104.756C664.674,105.007 663.791,105.264 663.095,105.526C662.4,105.788 661.858,106.079 661.471,106.398C661.083,106.717 660.815,107.065 660.667,107.441C660.519,107.817 660.445,108.245 660.445,108.723L660.445,109.134L672.756,109.134Z" style="fill:white;fill-rule:nonzero;"/>
            <path d="M676.895,102.773L676.895,89.503L692.9,89.503L692.9,93.813L681.409,93.813L681.409,100.31L682.024,100.31C682.344,99.421 682.942,98.652 683.82,98.002C684.698,97.352 685.878,97.027 687.359,97.027C688.477,97.027 689.48,97.221 690.369,97.609C691.258,97.996 692.011,98.532 692.626,99.216C693.242,99.9 693.715,100.721 694.045,101.678C694.376,102.636 694.541,103.685 694.541,104.825L694.541,105.03C694.541,106.238 694.342,107.378 693.943,108.45C693.544,109.521 692.962,110.462 692.199,111.271C691.435,112.081 690.494,112.725 689.377,113.203C688.26,113.682 686.972,113.922 685.513,113.922C684.054,113.922 682.765,113.722 681.648,113.323C680.531,112.924 679.591,112.366 678.827,111.647C678.063,110.929 677.482,110.074 677.083,109.082C676.684,108.091 676.484,107.013 676.484,105.851L676.484,105.03L680.998,105.03L680.998,105.44C680.998,106.649 681.369,107.646 682.11,108.433C682.851,109.219 683.94,109.613 685.376,109.613C686.812,109.613 687.947,109.225 688.779,108.45C689.611,107.675 690.027,106.603 690.027,105.235C690.027,103.935 689.719,102.961 689.104,102.311C688.488,101.661 687.679,101.336 686.676,101.336C686.014,101.336 685.479,101.479 685.068,101.764C684.658,102.049 684.396,102.385 684.282,102.773L676.895,102.773Z" style="fill:white;fill-rule:nonzero;"/>
            <rect x="700.697" y="102.089" width="10.67" height="3.899" style="fill:white;fill-rule:nonzero;"/>
            <path d="M735.546,109.134L735.546,113.443L718.72,113.443L718.72,108.723C718.72,107.469 718.908,106.398 719.284,105.509C719.661,104.619 720.196,103.867 720.892,103.252C721.587,102.636 722.425,102.129 723.405,101.73C724.386,101.331 725.492,100.994 726.723,100.721C727.635,100.516 728.381,100.282 728.963,100.02C729.544,99.757 730.006,99.461 730.348,99.131C730.69,98.8 730.923,98.435 731.049,98.036C731.174,97.637 731.237,97.187 731.237,96.685C731.237,95.728 730.889,94.93 730.194,94.291C729.499,93.653 728.535,93.334 727.304,93.334C726.005,93.334 724.967,93.727 724.192,94.514C723.417,95.3 723.029,96.389 723.029,97.78L723.029,99.284L718.515,99.284L718.515,97.369C718.515,96.252 718.714,95.186 719.113,94.172C719.512,93.157 720.082,92.268 720.823,91.504C721.564,90.74 722.471,90.136 723.542,89.692C724.614,89.247 725.822,89.025 727.167,89.025C728.604,89.025 729.858,89.236 730.929,89.657C732.001,90.079 732.896,90.632 733.614,91.316C734.332,92 734.868,92.792 735.221,93.693C735.575,94.593 735.751,95.523 735.751,96.48L735.751,96.89C735.751,98.897 735.187,100.561 734.058,101.884C732.93,103.206 731.089,104.163 728.535,104.756C727.464,105.007 726.58,105.264 725.885,105.526C725.189,105.788 724.648,106.079 724.26,106.398C723.873,106.717 723.605,107.065 723.457,107.441C723.308,107.817 723.234,108.245 723.234,108.723L723.234,109.134L735.546,109.134Z" style="fill:white;fill-rule:nonzero;"/>
            <path d="M751.483,96.275C751.483,95.477 751.192,94.787 750.611,94.206C750.029,93.624 749.123,93.334 747.892,93.334C746.661,93.334 745.686,93.693 744.968,94.411C744.25,95.129 743.891,96.07 743.891,97.232L743.891,100.31L744.506,100.31C744.894,99.512 745.521,98.868 746.387,98.378C747.254,97.888 748.234,97.643 749.328,97.643C750.309,97.643 751.232,97.82 752.098,98.173C752.965,98.526 753.717,99.028 754.356,99.678C754.994,100.327 755.496,101.12 755.86,102.055C756.225,102.989 756.408,104.049 756.408,105.235L756.408,105.645C756.408,106.854 756.208,107.965 755.809,108.98C755.41,109.994 754.84,110.867 754.099,111.596C753.358,112.326 752.463,112.896 751.414,113.306C750.366,113.716 749.192,113.922 747.892,113.922C746.706,113.922 745.595,113.728 744.558,113.34C743.52,112.953 742.62,112.411 741.856,111.716C741.092,111.02 740.488,110.188 740.043,109.219C739.599,108.25 739.376,107.184 739.376,106.022L739.376,97.301C739.376,96.047 739.604,94.907 740.06,93.881C740.516,92.855 741.132,91.983 741.907,91.265C742.682,90.547 743.577,89.994 744.592,89.606C745.606,89.218 746.684,89.025 747.824,89.025C748.964,89.025 750.029,89.19 751.021,89.521C752.013,89.851 752.879,90.33 753.62,90.957C754.361,91.584 754.943,92.348 755.364,93.248C755.786,94.149 755.997,95.158 755.997,96.275L751.483,96.275ZM747.892,109.613C749.055,109.613 750.012,109.265 750.765,108.569C751.517,107.874 751.893,106.945 751.893,105.782C751.893,104.619 751.517,103.69 750.765,102.995C750.012,102.3 749.055,101.952 747.892,101.952C746.729,101.952 745.772,102.3 745.019,102.995C744.267,103.69 743.891,104.619 743.891,105.782C743.891,106.945 744.267,107.874 745.019,108.569C745.772,109.265 746.729,109.613 747.892,109.613Z" style="fill:white;fill-rule:nonzero;"/>
            <path d="M798.336,109.134L798.336,113.443L781.51,113.443L781.51,108.723C781.51,107.469 781.698,106.398 782.074,105.509C782.45,104.619 782.986,103.867 783.681,103.252C784.377,102.636 785.215,102.129 786.195,101.73C787.175,101.331 788.281,100.994 789.512,100.721C790.424,100.516 791.171,100.282 791.752,100.02C792.334,99.757 792.795,99.461 793.137,99.131C793.479,98.8 793.713,98.435 793.838,98.036C793.964,97.637 794.027,97.187 794.027,96.685C794.027,95.728 793.679,94.93 792.983,94.291C792.288,93.653 791.325,93.334 790.094,93.334C788.794,93.334 787.757,93.727 786.982,94.514C786.206,95.3 785.819,96.389 785.819,97.78L785.819,99.284L781.304,99.284L781.304,97.369C781.304,96.252 781.504,95.186 781.903,94.172C782.302,93.157 782.872,92.268 783.613,91.504C784.354,90.74 785.26,90.136 786.332,89.692C787.403,89.247 788.612,89.025 789.957,89.025C791.393,89.025 792.647,89.236 793.719,89.657C794.79,90.079 795.685,90.632 796.403,91.316C797.122,92 797.657,92.792 798.011,93.693C798.364,94.593 798.541,95.523 798.541,96.48L798.541,96.89C798.541,98.897 797.977,100.561 796.848,101.884C795.719,103.206 793.878,104.163 791.325,104.756C790.253,105.007 789.37,105.264 788.674,105.526C787.979,105.788 787.438,106.079 787.05,106.398C786.662,106.717 786.394,107.065 786.246,107.441C786.098,107.817 786.024,108.245 786.024,108.723L786.024,109.134L798.336,109.134Z" style="fill:white;fill-rule:nonzero;"/>
            <path d="M807.809,101.473C807.809,100.698 808.094,100.025 808.664,99.455C809.234,98.885 809.906,98.6 810.682,98.6C811.457,98.6 812.129,98.885 812.699,99.455C813.269,100.025 813.554,100.698 813.554,101.473C813.554,102.248 813.269,102.921 812.699,103.491C812.129,104.061 811.457,104.346 810.682,104.346C809.906,104.346 809.234,104.061 808.664,103.491C808.094,102.921 807.809,102.248 807.809,101.473ZM801.858,98.806C801.858,95.705 802.639,93.3 804.201,91.59C805.763,89.88 807.923,89.025 810.682,89.025C813.44,89.025 815.601,89.88 817.162,91.59C818.724,93.3 819.505,95.705 819.505,98.806L819.505,104.141C819.505,107.333 818.724,109.761 817.162,111.425C815.601,113.089 813.44,113.922 810.682,113.922C807.923,113.922 805.763,113.089 804.201,111.425C802.639,109.761 801.858,107.333 801.858,104.141L801.858,98.806ZM810.682,109.818C811.502,109.818 812.186,109.687 812.733,109.424C813.281,109.162 813.725,108.792 814.067,108.313C814.409,107.834 814.649,107.264 814.785,106.603C814.922,105.942 814.991,105.212 814.991,104.414L814.991,98.532C814.991,97.78 814.911,97.073 814.751,96.412C814.592,95.75 814.341,95.181 813.999,94.702C813.657,94.223 813.212,93.841 812.665,93.556C812.118,93.271 811.457,93.129 810.682,93.129C809.906,93.129 809.245,93.271 808.698,93.556C808.151,93.841 807.706,94.223 807.364,94.702C807.022,95.181 806.771,95.75 806.612,96.412C806.452,97.073 806.372,97.78 806.372,98.532L806.372,104.414C806.372,105.212 806.441,105.942 806.578,106.603C806.714,107.264 806.954,107.834 807.296,108.313C807.638,108.792 808.082,109.162 808.63,109.424C809.177,109.687 809.861,109.818 810.682,109.818Z" style="fill:white;fill-rule:nonzero;"/>
            <path d="M840.195,109.134L840.195,113.443L823.369,113.443L823.369,108.723C823.369,107.469 823.558,106.398 823.934,105.509C824.31,104.619 824.846,103.867 825.541,103.252C826.236,102.636 827.074,102.129 828.055,101.73C829.035,101.331 830.141,100.994 831.372,100.721C832.284,100.516 833.031,100.282 833.612,100.02C834.193,99.757 834.655,99.461 834.997,99.131C835.339,98.8 835.573,98.435 835.698,98.036C835.824,97.637 835.886,97.187 835.886,96.685C835.886,95.728 835.539,94.93 834.843,94.291C834.148,93.653 833.185,93.334 831.953,93.334C830.654,93.334 829.616,93.727 828.841,94.514C828.066,95.3 827.679,96.389 827.679,97.78L827.679,99.284L823.164,99.284L823.164,97.369C823.164,96.252 823.364,95.186 823.763,94.172C824.162,93.157 824.732,92.268 825.473,91.504C826.214,90.74 827.12,90.136 828.191,89.692C829.263,89.247 830.471,89.025 831.817,89.025C833.253,89.025 834.507,89.236 835.578,89.657C836.65,90.079 837.545,90.632 838.263,91.316C838.981,92 839.517,92.792 839.87,93.693C840.224,94.593 840.401,95.523 840.401,96.48L840.401,96.89C840.401,98.897 839.836,100.561 838.708,101.884C837.579,103.206 835.738,104.163 833.185,104.756C832.113,105.007 831.23,105.264 830.534,105.526C829.839,105.788 829.297,106.079 828.91,106.398C828.522,106.717 828.254,107.065 828.106,107.441C827.958,107.817 827.884,108.245 827.884,108.723L827.884,109.134L840.195,109.134Z" style="fill:white;fill-rule:nonzero;"/>
            <path d="M850.011,89.503L858.56,89.503L858.56,104.619L862.049,104.619L862.049,108.929L858.56,108.929L858.56,113.443L854.046,113.443L854.046,108.929L843.376,108.929L843.376,102.704L850.011,89.503ZM847.275,104.004L847.275,104.619L854.046,104.619L854.046,91.761L853.43,91.761L847.275,104.004Z" style="fill:white;fill-rule:nonzero;"/>
        </g>
    </g>
</svg>
