<svg width="314" height="458" viewBox="0 0 314 458" fill="none" xmlns="http://www.w3.org/2000/svg">
<g clip-path="url(#clip0_1176_2922)">
<path d="M16 128C24.8366 128 32 120.837 32 112C32 103.163 24.8366 96 16 96C7.16344 96 0 103.163 0 112C0 120.837 7.16344 128 16 128Z" fill="white"/>
<path d="M16 174C24.8366 174 32 166.837 32 158C32 149.163 24.8366 142 16 142C7.16344 142 0 149.163 0 158C0 166.837 7.16344 174 16 174Z" fill="#75FA4C"/>
<path d="M16 457C24.8366 457 32 449.837 32 441C32 432.163 24.8366 425 16 425C7.16344 425 0 432.163 0 441C0 449.837 7.16344 457 16 457Z" fill="white"/>
<path d="M16 269C24.8366 269 32 261.837 32 253C32 244.163 24.8366 237 16 237C7.16344 237 0 244.163 0 253C0 261.837 7.16344 269 16 269Z" fill="#0020F5"/>
<path d="M5.3 201.6C8.22711 201.6 10.6 199.227 10.6 196.3C10.6 193.373 8.22711 191 5.3 191C2.37289 191 0 193.373 0 196.3C0 199.227 2.37289 201.6 5.3 201.6Z" fill="#E63623"/>
<path d="M26.7 201.6C29.6271 201.6 32 199.227 32 196.3C32 193.373 29.6271 191 26.7 191C23.7729 191 21.4 193.373 21.4 196.3C21.4 199.227 23.7729 201.6 26.7 201.6Z" fill="#E63623"/>
<path d="M5.3 220.5C8.22711 220.5 10.6 218.128 10.6 215.2C10.6 212.273 8.22711 209.9 5.3 209.9C2.37289 209.9 0 212.273 0 215.2C0 218.128 2.37289 220.5 5.3 220.5Z" fill="#E63623"/>
<path d="M26.7 220.5C29.6271 220.5 32 218.128 32 215.2C32 212.273 29.6271 209.9 26.7 209.9C23.7729 209.9 21.4 212.273 21.4 215.2C21.4 218.128 23.7729 220.5 26.7 220.5Z" fill="#E63623"/>
<path d="M0 18C0 9.2 7.2 2 16 2C24.8 2 32 9.2 32 18V65C32 73.8 24.8 81 16 81C7.2 81 0 73.8 0 65V18Z" fill="#E63623"/>
<path d="M16 34C24.8366 34 32 26.8366 32 18C32 9.16344 24.8366 2 16 2C7.16344 2 0 9.16344 0 18C0 26.8366 7.16344 34 16 34Z" fill="#0020F5"/>
<path d="M16 81C24.8366 81 32 73.8366 32 65C32 56.1634 24.8366 49 16 49C7.16344 49 0 56.1634 0 65C0 73.8366 7.16344 81 16 81Z" fill="white"/>
<path d="M16 70C18.7614 70 21 67.7614 21 65C21 62.2386 18.7614 60 16 60C13.2386 60 11 62.2386 11 65C11 67.7614 13.2386 70 16 70Z" fill="black"/>
<path d="M68.3 27.2H57.6L56.1 34H49.9L57.4 2.5H68.6L76.1 34H69.9L68.3 27.2ZM58.9 21.6H67L63.4 5.5H62.6L58.9 21.6Z" fill="white"/>
<path d="M52.9 49.5H58.8V75.3H73.1V81H52.9V49.5Z" fill="white"/>
<path d="M52.9 96.5H58.8V122.3H73.1V128H52.9V96.5Z" fill="white"/>
<path d="M115.4 59.1002C115.4 57.8002 114.9 56.7002 113.9 55.8002C112.9 54.9002 111.6 54.4002 109.8 54.4002C108.3 54.4002 107.1 54.7002 106.2 55.3002C105.3 55.9002 104.9 56.7002 104.9 57.8002C104.9 58.3002 105 58.8002 105.2 59.3002C105.4 59.7002 105.8 60.1002 106.3 60.5002C106.8 60.8002 107.5 61.1002 108.4 61.4002C109.3 61.7002 110.4 61.9002 111.7 62.2002C115 62.8002 117.5 63.8002 119.3 65.2002C121.1 66.6002 121.9 68.7002 121.9 71.5002V72.0002C121.9 73.5002 121.6 74.8002 121.1 76.0002C120.6 77.2002 119.8 78.2002 118.9 79.0002C118 79.8002 116.7 80.5002 115.3 80.9002C113.9 81.3002 112.3 81.6002 110.5 81.6002C108.4 81.6002 106.6 81.3002 105 80.7002C103.4 80.1002 102.1 79.3002 101.1 78.3002C100 77.2002 99.3 76.0002 98.7 74.7002C98.2 73.3002 97.9 71.8002 97.9 70.1002V68.8002H103.8V69.9002C103.8 71.8002 104.3 73.3002 105.4 74.4002C106.5 75.5002 108.2 76.1002 110.5 76.1002C112.3 76.1002 113.6 75.7002 114.5 74.9002C115.4 74.1002 115.8 73.2002 115.8 72.1002C115.8 71.6002 115.7 71.1002 115.5 70.7002C115.3 70.2002 115 69.8002 114.6 69.4002C114.2 69.0002 113.5 68.7002 112.8 68.4002C112.1 68.1002 111 67.8002 109.8 67.6002C108.2 67.3002 106.8 67.0002 105.4 66.6002C104.1 66.2002 102.9 65.6002 101.9 64.8002C100.9 64.1002 100.2 63.2002 99.7 62.1002C99.2 61.0002 98.9 59.7002 98.9 58.1002V57.8002C98.9 56.5002 99.2 55.3002 99.7 54.2002C100.2 53.1002 101 52.1002 101.9 51.3002C102.9 50.5002 104 49.9002 105.3 49.4002C106.6 48.9002 108.1 48.7002 109.8 48.7002C111.7 48.7002 113.3 49.0002 114.7 49.5002C116.1 50.0002 117.3 50.7002 118.3 51.6002C119.3 52.5002 120 53.5002 120.5 54.7002C121 55.9002 121.3 57.1002 121.3 58.4002V60.0002H115.4V59.1002Z" fill="white"/>
<path d="M63 242.4C64.4912 242.4 65.7 241.191 65.7 239.7C65.7 238.209 64.4912 237 63 237C61.5088 237 60.3 238.209 60.3 239.7C60.3 241.191 61.5088 242.4 63 242.4Z" fill="#0020F5"/>
<path d="M76.3 242.4C77.7912 242.4 79 241.191 79 239.7C79 238.209 77.7912 237 76.3 237C74.8088 237 73.6 238.209 73.6 239.7C73.6 241.191 74.8088 242.4 76.3 242.4Z" fill="#0020F5"/>
<path d="M49.7 255.7C51.1912 255.7 52.4 254.491 52.4 253C52.4 251.509 51.1912 250.3 49.7 250.3C48.2088 250.3 47 251.509 47 253C47 254.491 48.2088 255.7 49.7 255.7Z" fill="#0020F5"/>
<path d="M63 255.7C64.4912 255.7 65.7 254.491 65.7 253C65.7 251.509 64.4912 250.3 63 250.3C61.5088 250.3 60.3 251.509 60.3 253C60.3 254.491 61.5088 255.7 63 255.7Z" fill="#0020F5"/>
<path d="M76.3 255.7C77.7912 255.7 79 254.491 79 253C79 251.509 77.7912 250.3 76.3 250.3C74.8088 250.3 73.6 251.509 73.6 253C73.6 254.491 74.8088 255.7 76.3 255.7Z" fill="#0020F5"/>
<path d="M49.7 269C51.1912 269 52.4 267.791 52.4 266.3C52.4 264.808 51.1912 263.6 49.7 263.6C48.2088 263.6 47 264.808 47 266.3C47 267.791 48.2088 269 49.7 269Z" fill="#0020F5"/>
<path d="M65.6837 266.469C65.7829 264.981 64.6571 263.694 63.1692 263.595C61.6814 263.496 60.3948 264.622 60.2956 266.11C60.1964 267.598 61.3221 268.884 62.81 268.983C64.2979 269.083 65.5845 267.957 65.6837 266.469Z" fill="#0020F5"/>
<path d="M76.3 269C77.7912 269 79 267.791 79 266.3C79 264.808 77.7912 263.6 76.3 263.6C74.8088 263.6 73.6 264.808 73.6 266.3C73.6 267.791 74.8088 269 76.3 269Z" fill="#0020F5"/>
<path d="M49.7 242.4C51.1912 242.4 52.4 241.191 52.4 239.7C52.4 238.209 51.1912 237 49.7 237C48.2088 237 47 238.209 47 239.7C47 241.191 48.2088 242.4 49.7 242.4Z" fill="#0020F5"/>
<path d="M47.7 429.9H54.3V431.5H51.9V439H50.2V431.5H47.8L47.7 429.9ZM57.6 439H56V429.9H57.6V433.6H57.8C58 433.2 58.2 432.9 58.5 432.7C58.8 432.5 59.2 432.4 59.7 432.4C60 432.4 60.3 432.5 60.6 432.6C60.9 432.7 61.1 432.9 61.3 433.1C61.5 433.3 61.7 433.6 61.8 433.9C61.9 434.2 62 434.6 62 435V439.1H60.4V435.4C60.4 434.9 60.3 434.6 60.1 434.3C59.9 434 59.6 433.9 59.2 433.9C58.7 433.9 58.4 434.1 58.1 434.4C57.9 434.7 57.7 435.2 57.7 435.7C57.6 435.6 57.6 439 57.6 439ZM65.4 436.3C65.4 436.5 65.5 436.7 65.5 436.8C65.6 437 65.7 437.1 65.8 437.2C65.9 437.3 66.1 437.4 66.3 437.5C66.5 437.6 66.7 437.6 66.9 437.6C67.3 437.6 67.6 437.5 67.8 437.4C68 437.3 68.2 437.1 68.3 436.9L69.7 437.7C69.6 437.9 69.5 438 69.4 438.2C69.3 438.4 69.1 438.5 68.9 438.7C68.7 438.8 68.4 439 68.1 439.1C67.8 439.2 67.4 439.2 67 439.2C66.5 439.2 66.1 439.1 65.7 439C65.3 438.8 65 438.6 64.7 438.3C64.4 438 64.2 437.6 64 437.2C63.8 436.8 63.8 436.3 63.8 435.8V435.7C63.8 435.2 63.9 434.8 64 434.3C64.2 433.9 64.4 433.5 64.7 433.3C65 433.1 65.3 432.8 65.7 432.6C66.1 432.4 66.5 432.4 67 432.4C67.6 432.4 68 432.5 68.4 432.7C68.8 432.9 69.1 433.1 69.4 433.4C69.7 433.7 69.9 434 70 434.4C70.1 434.8 70.2 435.1 70.2 435.4V436.3H65.4ZM66.9 433.9C66.5 433.9 66.1 434 65.9 434.2C65.6 434.4 65.5 434.7 65.4 434.9H68.4C68.3 434.6 68.2 434.3 67.9 434.1C67.7 434 67.3 433.9 66.9 433.9ZM79.8 432.6H81.6V431.3C81.6 430.9 81.7 430.6 82 430.4C82.3 430.1 82.6 430 82.9 430H85.5V431.6H83.6C83.4 431.6 83.2 431.7 83.2 432V432.7H85.7V434.3H83.2V439.2H81.6V434.3H79.8V432.6ZM94.1 435.9C94.1 436.4 94 436.9 93.8 437.3C93.6 437.7 93.4 438.1 93.1 438.3C92.8 438.6 92.4 438.8 92 438.9C91.6 439 91.2 439.1 90.7 439.1C90.2 439.1 89.8 439 89.4 438.9C89 438.8 88.6 438.5 88.3 438.3C88 438 87.7 437.7 87.6 437.3C87.4 436.9 87.3 436.4 87.3 435.9V435.7C87.3 435.2 87.4 434.7 87.6 434.3C87.8 433.9 88 433.5 88.3 433.2C88.6 432.9 89 432.7 89.4 432.6C89.8 432.5 90.2 432.4 90.7 432.4C91.2 432.4 91.6 432.5 92 432.6C92.4 432.7 92.8 433 93.1 433.2C93.4 433.5 93.7 433.8 93.8 434.3C94 434.7 94.1 435.2 94.1 435.7V435.9ZM90.8 437.6C91 437.6 91.3 437.6 91.5 437.5C91.7 437.4 91.9 437.3 92 437.2C92.1 437.1 92.3 436.9 92.4 436.7C92.5 436.5 92.5 436.2 92.5 436V435.7C92.5 435.4 92.5 435.2 92.4 435C92.3 434.8 92.2 434.6 92 434.5C91.8 434.4 91.7 434.2 91.5 434.2C91.3 434.2 91.1 434.1 90.8 434.1C90.5 434.1 90.3 434.1 90.1 434.2C89.9 434.3 89.7 434.4 89.6 434.5C89.5 434.6 89.3 434.8 89.2 435C89.1 435.2 89.1 435.4 89.1 435.7V436C89.1 436.3 89.1 436.5 89.2 436.7C89.3 436.9 89.4 437.1 89.6 437.2C89.8 437.3 89.9 437.5 90.1 437.5C90.3 437.5 90.5 437.6 90.8 437.6ZM100.1 432.6H101.7V439H100.1V438.1H99.9C99.6 438.8 99 439.2 98.1 439.2C97.8 439.2 97.5 439.1 97.2 439C96.9 438.9 96.7 438.7 96.5 438.5C96.3 438.3 96.1 438 96 437.7C95.9 437.4 95.8 437 95.8 436.5V432.5H97.4V436.2C97.4 436.7 97.5 437 97.7 437.3C97.9 437.6 98.2 437.7 98.7 437.7C99.2 437.7 99.6 437.5 99.8 437.2C100 436.9 100.2 436.4 100.2 435.9C100.1 435.9 100.1 432.6 100.1 432.6ZM105.4 439H103.8V432.6H105.4V433.6H105.6C105.7 433.2 106 433 106.3 432.8C106.6 432.6 107 432.5 107.5 432.5C107.8 432.5 108.1 432.6 108.4 432.7C108.7 432.8 108.9 432.9 109.1 433.2C109.3 433.4 109.5 433.7 109.6 434C109.7 434.3 109.8 434.7 109.8 435.1V439.2H108.2V435.5C108.2 435 108.1 434.7 107.9 434.4C107.7 434.1 107.4 434 107 434C106.5 434 106.2 434.2 105.9 434.5C105.7 434.8 105.5 435.3 105.5 435.8L105.4 439ZM116.3 438.1H116.1C116 438.2 115.9 438.4 115.8 438.5C115.7 438.6 115.6 438.7 115.4 438.9C115.2 439 115.1 439.1 114.8 439.1C114.6 439.2 114.3 439.2 114 439.2C113.6 439.2 113.2 439.1 112.9 439C112.6 438.9 112.3 438.6 112 438.4C111.7 438.1 111.5 437.8 111.4 437.4C111.3 437 111.2 436.5 111.2 436V435.8C111.2 435.3 111.3 434.8 111.4 434.4C111.6 434 111.8 433.6 112 433.4C112.3 433.1 112.6 432.9 112.9 432.8C113.3 432.7 113.6 432.6 114 432.6C114.5 432.6 114.9 432.7 115.2 432.9C115.5 433.1 115.7 433.4 115.9 433.7H116.1V430.1H117.7V439.2H116.1V438.1H116.3ZM114.6 437.6C115.1 437.6 115.5 437.4 115.8 437.1C116.1 436.8 116.3 436.3 116.3 435.8V435.6C116.3 435.1 116.1 434.6 115.8 434.3C115.5 434 115.1 433.8 114.6 433.8C114.1 433.8 113.7 434 113.4 434.3C113.1 434.6 112.9 435 112.9 435.6V435.8C112.9 436.3 113.1 436.8 113.4 437.1C113.7 437.5 114.1 437.6 114.6 437.6ZM123.8 438.1C123.6 438.5 123.4 438.8 123.1 439C122.8 439.2 122.4 439.2 122 439.2C121.6 439.2 121.2 439.1 120.9 439C120.6 438.9 120.3 438.6 120 438.4C119.7 438.1 119.5 437.8 119.4 437.4C119.3 437 119.2 436.5 119.2 436V435.8C119.2 435.3 119.3 434.8 119.4 434.4C119.5 434 119.7 433.6 120 433.4C120.3 433.1 120.5 432.9 120.9 432.8C121.2 432.6 121.6 432.6 122 432.6C122.5 432.6 122.8 432.7 123.1 432.8C123.4 433 123.6 433.2 123.8 433.5H124V432.7H125.6V437.2C125.6 437.5 125.7 437.6 126 437.6H126.2V439.2H125.1C124.8 439.2 124.6 439.1 124.4 438.9C124.2 438.7 124.1 438.5 124.1 438.2H123.8V438.1ZM122.4 437.6C122.9 437.6 123.3 437.4 123.5 437.1C123.8 436.8 123.9 436.3 123.9 435.8V435.6C123.9 435.1 123.8 434.6 123.5 434.3C123.2 434 122.8 433.8 122.4 433.8C121.9 433.8 121.5 434 121.3 434.3C121 434.6 120.9 435 120.9 435.6V435.8C120.9 436.3 121 436.8 121.3 437.1C121.5 437.5 121.9 437.6 122.4 437.6ZM127.4 432.6H129.3V429.9H130.9V432.6H133.2V434.2H131V437.1C131 437.4 131.1 437.5 131.4 437.5H133.1V439.1H130.4C130.1 439.1 129.9 439 129.7 438.8C129.5 438.6 129.4 438.4 129.4 438.1V434.2H127.5L127.4 432.6ZM135.7 437.4H137.9V434.1H135.9V432.5H139.6V437.4H141.5V439H135.8L135.7 437.4ZM139.9 430.6C139.9 430.8 139.9 430.9 139.8 431.1C139.7 431.2 139.7 431.4 139.5 431.5C139.4 431.6 139.3 431.7 139.1 431.8C139 431.9 138.8 431.9 138.6 431.9C138.4 431.9 138.3 431.9 138.1 431.8C138 431.7 137.8 431.6 137.7 431.5C137.6 431.4 137.5 431.3 137.4 431.1C137.3 430.9 137.3 430.8 137.3 430.6C137.3 430.4 137.3 430.3 137.4 430.1C137.5 429.9 137.6 429.8 137.7 429.7C137.8 429.6 137.9 429.5 138.1 429.4C138.2 429.3 138.4 429.3 138.6 429.3C138.8 429.3 138.9 429.3 139.1 429.4C139.3 429.5 139.4 429.5 139.5 429.7C139.6 429.8 139.7 429.9 139.8 430.1C139.9 430.3 139.9 430.5 139.9 430.6ZM149.9 435.9C149.9 436.4 149.8 436.9 149.6 437.3C149.4 437.7 149.2 438.1 148.9 438.3C148.6 438.6 148.2 438.8 147.8 438.9C147.4 439 147 439.1 146.5 439.1C146 439.1 145.6 439 145.2 438.9C144.8 438.8 144.4 438.5 144.1 438.3C143.8 438 143.5 437.7 143.4 437.3C143.2 436.9 143.1 436.4 143.1 435.9V435.7C143.1 435.2 143.2 434.7 143.4 434.3C143.6 433.9 143.8 433.5 144.1 433.2C144.4 432.9 144.8 432.7 145.2 432.6C145.6 432.5 146 432.4 146.5 432.4C147 432.4 147.4 432.5 147.8 432.6C148.2 432.7 148.6 433 148.9 433.2C149.2 433.4 149.5 433.8 149.6 434.3C149.8 434.7 149.9 435.2 149.9 435.7V435.9ZM146.5 437.6C146.7 437.6 147 437.6 147.2 437.5C147.4 437.4 147.6 437.3 147.7 437.2C147.8 437.1 148 436.9 148.1 436.7C148.2 436.5 148.2 436.2 148.2 436V435.7C148.2 435.4 148.2 435.2 148.1 435C148 434.8 147.9 434.6 147.7 434.5C147.5 434.4 147.4 434.2 147.2 434.2C147 434.1 146.8 434.1 146.5 434.1C146.2 434.1 146 434.1 145.8 434.2C145.6 434.3 145.4 434.4 145.3 434.5C145.2 434.6 145 434.8 144.9 435C144.8 435.2 144.8 435.4 144.8 435.7V436C144.8 436.3 144.8 436.5 144.9 436.7C145 436.9 145.1 437.1 145.3 437.2C145.5 437.3 145.6 437.5 145.8 437.5C146 437.6 146.3 437.6 146.5 437.6ZM153.1 439H151.5V432.6H153.1V433.6H153.3C153.4 433.2 153.7 433 154 432.8C154.3 432.6 154.7 432.5 155.2 432.5C155.5 432.5 155.8 432.6 156.1 432.7C156.4 432.8 156.6 432.9 156.8 433.2C157 433.4 157.2 433.7 157.3 434C157.4 434.3 157.5 434.7 157.5 435.1V439.2H155.9V435.5C155.9 435 155.8 434.7 155.6 434.4C155.4 434.1 155.1 434 154.7 434C154.2 434 153.9 434.2 153.6 434.5C153.4 434.8 153.2 435.3 153.2 435.8L153.1 439ZM163.6 438.1C163.4 438.5 163.2 438.8 162.9 439C162.6 439.2 162.2 439.2 161.8 439.2C161.4 439.2 161 439.1 160.7 439C160.4 438.9 160.1 438.6 159.8 438.4C159.5 438.1 159.3 437.8 159.2 437.4C159.1 437 159 436.5 159 436V435.8C159 435.3 159.1 434.8 159.2 434.4C159.3 434 159.5 433.6 159.8 433.4C160.1 433.1 160.3 432.9 160.7 432.8C161 432.6 161.4 432.6 161.8 432.6C162.3 432.6 162.6 432.7 162.9 432.8C163.2 433 163.4 433.2 163.6 433.5H163.8V432.7H165.4V437.2C165.4 437.5 165.5 437.6 165.8 437.6H166V439.2H164.9C164.6 439.2 164.4 439.1 164.2 438.9C164 438.7 163.9 438.5 163.9 438.2H163.6V438.1ZM162.2 437.6C162.7 437.6 163.1 437.4 163.3 437.1C163.6 436.8 163.7 436.3 163.7 435.8V435.6C163.7 435.1 163.6 434.6 163.3 434.3C163 434 162.6 433.8 162.2 433.8C161.7 433.8 161.3 434 161.1 434.3C160.8 434.6 160.7 435 160.7 435.6V435.8C160.7 436.3 160.8 436.8 161.1 437.1C161.3 437.5 161.7 437.6 162.2 437.6ZM167.4 437.4H169.7V431.4H167.5V429.8H171.3V437.3H173.4V438.9H167.4V437.4ZM187.7 432.6H189.3V439H187.7V438.1H187.5C187.2 438.8 186.6 439.2 185.7 439.2C185.4 439.2 185.1 439.1 184.8 439C184.5 438.9 184.3 438.7 184.1 438.5C183.9 438.3 183.7 438 183.6 437.7C183.5 437.4 183.4 437 183.4 436.5V432.5H185V436.2C185 436.7 185.1 437 185.3 437.3C185.5 437.6 185.8 437.7 186.3 437.7C186.8 437.7 187.2 437.5 187.4 437.2C187.6 436.9 187.8 436.4 187.8 435.9V432.6H187.7ZM193.3 434.4C193.3 434.6 193.4 434.8 193.6 434.9C193.8 435 194.2 435.1 194.8 435.1C195.5 435.2 196 435.4 196.4 435.7C196.8 436 197 436.5 197 437.1V437.2C197 437.8 196.8 438.4 196.3 438.7C195.8 439.1 195.2 439.3 194.3 439.3C193.8 439.3 193.4 439.2 193 439.1C192.6 439 192.4 438.8 192.1 438.6C191.9 438.4 191.7 438.2 191.6 438C191.5 437.8 191.4 437.5 191.4 437.3L192.9 436.8C193 437.1 193.1 437.3 193.3 437.5C193.5 437.7 193.9 437.8 194.3 437.8C194.7 437.8 195 437.7 195.1 437.6C195.3 437.5 195.3 437.3 195.3 437.2C195.3 437.1 195.3 437 195.2 437C195.2 436.9 195.1 436.9 195 436.8C194.9 436.7 194.8 436.7 194.6 436.6C194.4 436.6 194.2 436.5 193.9 436.5C193.2 436.4 192.6 436.3 192.2 435.9C191.8 435.6 191.6 435.1 191.6 434.5V434.4C191.6 434.1 191.7 433.8 191.8 433.6C191.9 433.4 192.1 433.2 192.3 433C192.5 432.8 192.8 432.7 193.1 432.6C193.4 432.5 193.7 432.5 194 432.5C194.4 432.5 194.8 432.6 195.1 432.7C195.4 432.8 195.7 432.9 195.9 433.1C196.1 433.3 196.3 433.4 196.4 433.6C196.5 433.8 196.6 434 196.7 434.2L195.2 434.8C195.1 434.6 195 434.4 194.8 434.3C194.6 434.2 194.4 434.1 194.1 434.1C193.8 434.1 193.6 434.2 193.5 434.3C193.4 434.1 193.3 434.2 193.3 434.4ZM200.7 436.3C200.7 436.5 200.8 436.7 200.8 436.8C200.9 437 201 437.1 201.1 437.2C201.2 437.3 201.4 437.4 201.6 437.5C201.8 437.6 202 437.6 202.2 437.6C202.6 437.6 202.9 437.5 203.1 437.4C203.3 437.3 203.5 437.1 203.6 436.9L205 437.7C204.9 437.9 204.8 438 204.7 438.2C204.6 438.4 204.4 438.5 204.2 438.7C204 438.8 203.7 439 203.4 439.1C203.1 439.2 202.7 439.2 202.3 439.2C201.8 439.2 201.4 439.1 201 439C200.6 438.8 200.3 438.6 200 438.3C199.7 438 199.5 437.6 199.3 437.2C199.1 436.8 199.1 436.3 199.1 435.8V435.7C199.1 435.2 199.2 434.8 199.3 434.3C199.5 433.9 199.7 433.5 200 433.3C200.3 433 200.6 432.8 201 432.6C201.4 432.4 201.8 432.4 202.3 432.4C202.9 432.4 203.3 432.5 203.7 432.7C204.1 432.9 204.4 433.1 204.7 433.4C205 433.7 205.2 434 205.3 434.4C205.4 434.8 205.5 435.1 205.5 435.4V436.3H200.7ZM202.2 433.9C201.8 433.9 201.4 434 201.2 434.2C200.9 434.4 200.8 434.7 200.7 434.9H203.7C203.6 434.6 203.5 434.3 203.2 434.1C203 434 202.7 433.9 202.2 433.9ZM206.9 432.6H209.6V433.5H209.8C209.9 433.1 210.1 432.9 210.4 432.7C210.7 432.5 211 432.4 211.5 432.4C212.1 432.4 212.7 432.6 213 433C213.4 433.4 213.6 434 213.6 434.8V435.1L211.9 435.3V435.1C211.9 434.7 211.8 434.5 211.6 434.3C211.4 434.1 211.1 434 210.8 434C210.5 434 210.2 434.1 209.9 434.4C209.7 434.7 209.6 435 209.6 435.5V437.6H211.1V439.2H206.7V437.6H208V434.3H206.8L206.9 432.6ZM216.1 434.7H220.2V436.2H216.1V434.7ZM225.2 434.4C225.2 434.6 225.3 434.8 225.5 434.9C225.7 435 226.1 435.1 226.7 435.1C227.4 435.2 227.9 435.4 228.3 435.7C228.7 436 228.9 436.5 228.9 437.1V437.2C228.9 437.8 228.7 438.4 228.2 438.7C227.7 439.1 227.1 439.3 226.2 439.3C225.7 439.3 225.3 439.2 224.9 439.1C224.5 439 224.3 438.8 224 438.6C223.8 438.4 223.6 438.2 223.5 438C223.4 437.8 223.3 437.5 223.3 437.3L224.8 436.8C224.9 437.1 225 437.3 225.2 437.5C225.4 437.7 225.8 437.8 226.2 437.8C226.6 437.8 226.9 437.7 227 437.6C227.2 437.5 227.2 437.3 227.2 437.2C227.2 437.1 227.2 437 227.1 437C227.1 436.9 227 436.9 226.9 436.8C226.8 436.7 226.7 436.7 226.5 436.6C226.3 436.6 226.1 436.5 225.8 436.5C225.1 436.4 224.5 436.3 224.1 435.9C223.7 435.6 223.5 435.1 223.5 434.5V434.4C223.5 434.1 223.6 433.8 223.7 433.6C223.8 433.4 224 433.2 224.2 433C224.4 432.8 224.7 432.7 225 432.6C225.3 432.5 225.6 432.5 225.9 432.5C226.3 432.5 226.7 432.6 227 432.7C227.3 432.8 227.6 432.9 227.8 433.1C228 433.3 228.2 433.4 228.3 433.6C228.4 433.8 228.5 434 228.6 434.2L227.1 434.8C227 434.6 226.9 434.4 226.7 434.3C226.5 434.2 226.3 434.1 226 434.1C225.7 434.1 225.5 434.2 225.4 434.3C225.3 434.1 225.2 434.2 225.2 434.4ZM232.4 441.6H230.8V432.6H232.4V433.5H232.6C232.8 433.1 233 432.9 233.4 432.7C233.7 432.5 234.2 432.4 234.7 432.4C235.1 432.4 235.4 432.5 235.8 432.6C236.1 432.7 236.4 433 236.7 433.2C237 433.5 237.2 433.8 237.3 434.2C237.5 434.6 237.5 435.1 237.5 435.6V435.8C237.5 436.3 237.4 436.8 237.3 437.2C237.2 437.6 237 438 236.7 438.2C236.4 438.5 236.1 438.7 235.8 438.8C235.5 438.9 235.1 439 234.7 439C234.4 439 234.1 439 233.9 438.9C233.7 438.8 233.5 438.8 233.3 438.7C233.1 438.6 233 438.5 232.9 438.3C232.8 438.2 232.7 438 232.6 437.9H232.4V441.6ZM234.1 437.6C234.6 437.6 235 437.4 235.3 437.1C235.6 436.8 235.8 436.3 235.8 435.8V435.6C235.8 435.1 235.6 434.6 235.3 434.3C235 434 234.6 433.8 234.1 433.8C233.6 433.8 233.2 434 232.9 434.3C232.6 434.6 232.4 435 232.4 435.6V435.8C232.4 436.3 232.6 436.8 232.9 437.1C233.2 437.5 233.6 437.6 234.1 437.6ZM243.2 438.1C243 438.5 242.8 438.8 242.5 439C242.2 439.2 241.8 439.2 241.4 439.2C241 439.2 240.6 439.1 240.3 439C240 438.9 239.7 438.6 239.4 438.4C239.1 438.1 238.9 437.8 238.8 437.4C238.7 437 238.6 436.5 238.6 436V435.8C238.6 435.3 238.7 434.8 238.8 434.4C238.9 434 239.1 433.6 239.4 433.4C239.7 433.2 239.9 432.9 240.3 432.8C240.6 432.6 241 432.6 241.4 432.6C241.9 432.6 242.2 432.7 242.5 432.8C242.8 433 243 433.2 243.2 433.5H243.4V432.7H245V437.2C245 437.5 245.1 437.6 245.4 437.6H245.6V439.2H244.5C244.2 439.2 244 439.1 243.8 438.9C243.6 438.7 243.5 438.5 243.5 438.2H243.2V438.1ZM241.8 437.6C242.3 437.6 242.7 437.4 242.9 437.1C243.2 436.8 243.3 436.3 243.3 435.8V435.6C243.3 435.1 243.2 434.6 242.9 434.3C242.6 434 242.2 433.8 241.8 433.8C241.3 433.8 240.9 434 240.7 434.3C240.4 434.6 240.3 435 240.3 435.6V435.8C240.3 436.3 240.4 436.8 240.7 437.1C240.9 437.5 241.3 437.6 241.8 437.6ZM253.3 436.6C253.2 437.4 252.8 438 252.2 438.4C251.7 438.9 250.9 439.1 250 439.1C249.5 439.1 249.1 439 248.7 438.9C248.3 438.8 247.9 438.5 247.6 438.3C247.3 438.1 247.1 437.7 246.9 437.3C246.7 436.9 246.6 436.4 246.6 435.9V435.7C246.6 435.2 246.7 434.7 246.9 434.3C247.1 433.9 247.3 433.5 247.6 433.2C247.9 432.9 248.3 432.7 248.7 432.5C249.1 432.3 249.6 432.3 250 432.3C250.9 432.3 251.6 432.5 252.2 433C252.8 433.5 253.1 434.1 253.3 434.8L251.7 435.2C251.6 434.8 251.5 434.5 251.2 434.2C250.9 433.9 250.5 433.8 250 433.8C249.8 433.8 249.5 433.8 249.3 433.9C249.1 434 248.9 434.1 248.8 434.3C248.6 434.5 248.5 434.7 248.4 434.9C248.3 435.1 248.3 435.4 248.3 435.7V435.8C248.3 436.1 248.3 436.3 248.4 436.6C248.5 436.8 248.6 437 248.8 437.1C249 437.2 249.1 437.4 249.3 437.4C249.5 437.5 249.7 437.5 250 437.5C250.5 437.5 250.9 437.4 251.1 437.1C251.4 436.8 251.5 436.5 251.6 436.1L253.3 436.6ZM256.4 436.3C256.4 436.5 256.5 436.7 256.5 436.8C256.6 437 256.7 437.1 256.8 437.2C256.9 437.3 257.1 437.4 257.3 437.5C257.5 437.6 257.7 437.6 257.9 437.6C258.3 437.6 258.6 437.5 258.8 437.4C259 437.3 259.2 437.1 259.3 436.9L260.7 437.7C260.6 437.9 260.5 438 260.4 438.2C260.3 438.4 260.1 438.5 259.9 438.7C259.7 438.8 259.4 439 259.1 439.1C258.8 439.2 258.4 439.2 258 439.2C257.5 439.2 257.1 439.1 256.7 439C256.3 438.9 256 438.6 255.7 438.3C255.4 438 255.2 437.6 255 437.2C254.8 436.8 254.8 436.3 254.8 435.8V435.7C254.8 435.2 254.9 434.8 255 434.3C255.2 433.9 255.4 433.5 255.7 433.3C256 433.1 256.3 432.8 256.7 432.6C257.1 432.4 257.5 432.4 258 432.4C258.6 432.4 259 432.5 259.4 432.7C259.8 432.9 260.1 433.1 260.4 433.4C260.7 433.7 260.9 434 261 434.4C261.1 434.8 261.2 435.1 261.2 435.4V436.3H256.4ZM258 433.9C257.6 433.9 257.2 434 257 434.2C256.7 434.4 256.6 434.7 256.5 434.9H259.5C259.4 434.6 259.3 434.3 259 434.1C258.7 434 258.4 433.9 258 433.9ZM48.1 447.9H49.8V455.4H53.9V457H48.1V447.9ZM56.1 455.4H58.3V452.1H56.3V450.5H60V455.4H61.9V457H56.2C56.1 457 56.1 455.4 56.1 455.4ZM60.3 448.6C60.3 448.8 60.3 448.9 60.2 449.1C60.1 449.2 60.1 449.4 59.9 449.5C59.8 449.6 59.7 449.7 59.5 449.8C59.4 449.9 59.2 449.9 59 449.9C58.8 449.9 58.7 449.9 58.5 449.8C58.4 449.7 58.2 449.6 58.1 449.5C58 449.4 57.9 449.3 57.8 449.1C57.7 448.9 57.7 448.8 57.7 448.6C57.7 448.4 57.7 448.3 57.8 448.1C57.9 447.9 58 447.8 58.1 447.7C58.2 447.6 58.3 447.5 58.5 447.4C58.6 447.3 58.8 447.3 59 447.3C59.2 447.3 59.3 447.3 59.5 447.4C59.7 447.5 59.8 447.5 59.9 447.7C60 447.8 60.1 447.9 60.2 448.1C60.3 448.3 60.3 448.5 60.3 448.6ZM65.6 457H64V450.6H65.6V451.6H65.8C65.9 451.2 66.2 451 66.5 450.8C66.8 450.6 67.2 450.5 67.7 450.5C68 450.5 68.3 450.6 68.6 450.7C68.9 450.8 69.1 450.9 69.3 451.2C69.5 451.4 69.7 451.7 69.8 452C69.9 452.3 70 452.7 70 453.1V457.2H68.4V453.5C68.4 453 68.3 452.7 68.1 452.4C67.9 452.1 67.6 452 67.2 452C66.7 452 66.4 452.2 66.1 452.5C65.9 452.8 65.7 453.3 65.7 453.8L65.6 457ZM76.3 450.6H77.9V457H76.3V456.1H76C75.7 456.8 75.1 457.2 74.2 457.2C73.9 457.2 73.6 457.1 73.3 457C73 456.9 72.8 456.7 72.6 456.5C72.4 456.3 72.2 456 72.1 455.7C72 455.4 71.9 455 71.9 454.5V450.5H73.5V454.2C73.5 454.7 73.6 455 73.8 455.3C74 455.6 74.3 455.7 74.8 455.7C75.3 455.7 75.7 455.5 75.9 455.2C76.1 454.9 76.3 454.4 76.3 453.9V450.6ZM84.1 450.6H85.9L84.3 453.6V453.8L86 457H84.1L82.9 454.5H82.7L81.5 457H79.6L81.3 453.8V453.6L79.7 450.6H81.5L82.7 453H82.9L84.1 450.6ZM102.1 454.6C102 455.4 101.6 456 101 456.4C100.5 456.9 99.7 457.1 98.8 457.1C98.3 457.1 97.9 457 97.5 456.9C97.1 456.8 96.7 456.5 96.4 456.3C96.1 456.1 95.9 455.7 95.7 455.3C95.5 454.9 95.4 454.4 95.4 453.9V453.7C95.4 453.2 95.5 452.7 95.7 452.3C95.9 451.9 96.1 451.5 96.4 451.2C96.7 450.9 97.1 450.7 97.5 450.5C97.9 450.3 98.4 450.3 98.8 450.3C99.7 450.3 100.4 450.5 101 451C101.6 451.5 101.9 452.1 102.1 452.8L100.5 453.2C100.4 452.8 100.3 452.5 100 452.2C99.7 451.9 99.3 451.8 98.8 451.8C98.6 451.8 98.3 451.8 98.1 451.9C97.9 452 97.7 452.1 97.6 452.3C97.4 452.5 97.3 452.7 97.2 452.9C97.1 453.1 97.1 453.4 97.1 453.7V453.8C97.1 454.1 97.1 454.3 97.2 454.6C97.3 454.8 97.4 455 97.6 455.1C97.8 455.2 97.9 455.4 98.1 455.4C98.3 455.5 98.5 455.5 98.8 455.5C99.3 455.5 99.7 455.4 99.9 455.1C100.2 454.8 100.3 454.5 100.4 454.1L102.1 454.6ZM110.1 453.9C110.1 454.4 110 454.9 109.8 455.3C109.6 455.7 109.4 456.1 109.1 456.3C108.8 456.6 108.4 456.8 108 456.9C107.6 457 107.2 457.1 106.7 457.1C106.2 457.1 105.8 457 105.4 456.9C105 456.8 104.6 456.5 104.3 456.3C104 456 103.7 455.7 103.6 455.3C103.4 454.9 103.3 454.4 103.3 453.9V453.7C103.3 453.2 103.4 452.7 103.6 452.3C103.8 451.9 104 451.5 104.3 451.2C104.6 450.9 105 450.7 105.4 450.6C105.8 450.5 106.2 450.4 106.7 450.4C107.2 450.4 107.6 450.5 108 450.6C108.4 450.7 108.8 451 109.1 451.2C109.4 451.5 109.7 451.8 109.8 452.3C110 452.7 110.1 453.2 110.1 453.7V453.9ZM106.7 455.6C106.9 455.6 107.2 455.6 107.4 455.5C107.6 455.4 107.8 455.3 107.9 455.2C108 455.1 108.2 454.9 108.3 454.7C108.4 454.5 108.4 454.2 108.4 454V453.7C108.4 453.4 108.4 453.2 108.3 453C108.2 452.8 108.1 452.6 107.9 452.5C107.7 452.4 107.6 452.2 107.4 452.2C107.2 452.2 107 452.1 106.7 452.1C106.4 452.1 106.2 452.1 106 452.2C105.8 452.3 105.6 452.4 105.5 452.5C105.4 452.6 105.2 452.8 105.1 453C105 453.2 105 453.4 105 453.7V454C105 454.3 105 454.5 105.1 454.7C105.2 454.9 105.3 455.1 105.5 455.2C105.7 455.3 105.8 455.5 106 455.5C106.2 455.5 106.5 455.6 106.7 455.6ZM113.3 457H111.7V450.6H113.3V451.6H113.5C113.6 451.2 113.9 451 114.2 450.8C114.5 450.6 114.9 450.5 115.4 450.5C115.7 450.5 116 450.6 116.3 450.7C116.6 450.8 116.8 450.9 117 451.2C117.2 451.4 117.4 451.7 117.5 452C117.6 452.3 117.7 452.7 117.7 453.1V457.2H116.1V453.5C116.1 453 116 452.7 115.8 452.4C115.6 452.1 115.3 452 114.9 452C114.4 452 114.1 452.2 113.8 452.5C113.6 452.8 113.4 453.3 113.4 453.8L113.3 457ZM119.6 450.6H121.4V449.3C121.4 448.9 121.5 448.6 121.8 448.4C122.1 448.1 122.4 448 122.7 448H125.3V449.6H123.4C123.2 449.6 123 449.7 123 450V450.7H125.5V452.3H123V457.2H121.4V452.3H119.6V450.6ZM129.1 454.3C129.1 454.5 129.2 454.7 129.2 454.8C129.3 455 129.4 455.1 129.5 455.2C129.6 455.3 129.8 455.4 130 455.5C130.2 455.6 130.4 455.6 130.6 455.6C131 455.6 131.3 455.5 131.5 455.4C131.7 455.3 131.9 455.1 132 454.9L133.4 455.7C133.3 455.9 133.2 456 133.1 456.2C133 456.4 132.8 456.5 132.6 456.7C132.4 456.8 132.1 457 131.8 457.1C131.5 457.2 131.1 457.2 130.7 457.2C130.2 457.2 129.8 457.1 129.4 457C129 456.8 128.7 456.6 128.4 456.3C128.1 456 127.9 455.6 127.7 455.2C127.5 454.8 127.5 454.3 127.5 453.8V453.7C127.5 453.2 127.6 452.8 127.7 452.3C127.9 451.9 128.1 451.5 128.4 451.3C128.7 451 129 450.8 129.4 450.6C129.8 450.4 130.2 450.4 130.7 450.4C131.3 450.4 131.7 450.5 132.1 450.7C132.5 450.9 132.8 451.1 133.1 451.4C133.4 451.7 133.5 452 133.7 452.4C133.8 452.8 133.9 453.1 133.9 453.4V454.3H129.1ZM130.6 451.9C130.2 451.9 129.8 452 129.6 452.2C129.3 452.4 129.2 452.7 129.1 452.9H132.1C132 452.6 131.9 452.3 131.6 452.1C131.4 452 131 451.9 130.6 451.9ZM135.3 450.6H138V451.5H138.2C138.3 451.1 138.5 450.9 138.8 450.7C139.1 450.5 139.4 450.4 139.9 450.4C140.5 450.4 141.1 450.6 141.4 451C141.8 451.4 142 452 142 452.8V453.1L140.3 453.3V453.1C140.3 452.7 140.2 452.5 140 452.3C139.8 452.1 139.5 452 139.2 452C138.9 452 138.6 452.1 138.3 452.4C138.1 452.7 138 453 138 453.5V455.6H139.5V457.2H135.1V455.6H136.4V452.3H135.2L135.3 450.6ZM145 454.3C145 454.5 145.1 454.7 145.1 454.8C145.2 455 145.3 455.1 145.4 455.2C145.5 455.3 145.7 455.4 145.9 455.5C146.1 455.6 146.3 455.6 146.5 455.6C146.9 455.6 147.2 455.5 147.4 455.4C147.6 455.3 147.8 455.1 147.9 454.9L149.3 455.7C149.2 455.9 149.1 456 149 456.2C148.9 456.4 148.7 456.5 148.5 456.7C148.3 456.8 148 457 147.7 457.1C147.4 457.2 147 457.2 146.6 457.2C146.1 457.2 145.7 457.1 145.3 457C144.9 456.8 144.6 456.6 144.3 456.3C144 456 143.8 455.6 143.6 455.2C143.4 454.8 143.4 454.3 143.4 453.8V453.7C143.4 453.2 143.5 452.8 143.6 452.3C143.8 451.9 144 451.5 144.3 451.3C144.6 451 144.9 450.8 145.3 450.6C145.7 450.4 146.1 450.4 146.6 450.4C147.2 450.4 147.6 450.5 148 450.7C148.4 450.9 148.7 451.1 149 451.4C149.3 451.7 149.4 452 149.6 452.4C149.7 452.8 149.8 453.1 149.8 453.4V454.3H145ZM146.5 451.9C146.1 451.9 145.7 452 145.5 452.2C145.2 452.4 145.1 452.7 145 452.9H148C147.9 452.6 147.8 452.3 147.5 452.1C147.3 452 146.9 451.9 146.5 451.9ZM153.1 457H151.5V450.6H153.1V451.6H153.3C153.4 451.2 153.7 451 154 450.8C154.3 450.6 154.7 450.5 155.2 450.5C155.5 450.5 155.8 450.6 156.1 450.7C156.4 450.8 156.6 450.9 156.8 451.2C157 451.4 157.2 451.7 157.3 452C157.4 452.3 157.5 452.7 157.5 453.1V457.2H155.9V453.5C155.9 453 155.8 452.7 155.6 452.4C155.4 452.1 155.1 452 154.7 452C154.2 452 153.9 452.2 153.6 452.5C153.4 452.8 153.2 453.3 153.2 453.8L153.1 457ZM165.7 454.6C165.6 455.4 165.2 456 164.6 456.4C164.1 456.9 163.3 457.1 162.4 457.1C161.9 457.1 161.5 457 161.1 456.9C160.7 456.8 160.3 456.5 160 456.3C159.7 456 159.5 455.7 159.3 455.3C159.1 454.9 159 454.4 159 453.9V453.7C159 453.2 159.1 452.7 159.3 452.3C159.5 451.9 159.7 451.5 160 451.2C160.3 450.9 160.7 450.7 161.1 450.5C161.5 450.3 162 450.3 162.4 450.3C163.3 450.3 164 450.5 164.6 451C165.2 451.5 165.5 452.1 165.7 452.8L164.1 453.2C164 452.8 163.9 452.5 163.6 452.2C163.3 451.9 162.9 451.8 162.4 451.8C162.2 451.8 161.9 451.8 161.7 451.9C161.5 452 161.3 452.1 161.2 452.3C161 452.5 160.9 452.7 160.8 452.9C160.7 453.1 160.7 453.4 160.7 453.7V453.8C160.7 454.1 160.7 454.3 160.8 454.6C160.9 454.8 161 455 161.2 455.1C161.4 455.2 161.5 455.4 161.7 455.4C161.9 455.5 162.1 455.5 162.4 455.5C162.9 455.5 163.3 455.4 163.5 455.1C163.8 454.8 163.9 454.5 164 454.1L165.7 454.6ZM168.9 454.3C168.9 454.5 169 454.7 169 454.8C169.1 455 169.2 455.1 169.3 455.2C169.4 455.3 169.6 455.4 169.8 455.5C170 455.6 170.2 455.6 170.4 455.6C170.8 455.6 171.1 455.5 171.3 455.4C171.5 455.3 171.7 455.1 171.8 454.9L173.2 455.7C173.1 455.9 173 456 172.9 456.2C172.8 456.4 172.6 456.5 172.4 456.7C172.2 456.8 171.9 457 171.6 457.1C171.3 457.2 170.9 457.2 170.5 457.2C170 457.2 169.6 457.1 169.2 457C168.8 456.8 168.5 456.6 168.2 456.3C167.9 456 167.7 455.6 167.5 455.2C167.3 454.8 167.3 454.3 167.3 453.8V453.7C167.3 453.2 167.4 452.8 167.5 452.3C167.7 451.9 167.9 451.5 168.2 451.3C168.5 451 168.8 450.8 169.2 450.6C169.6 450.4 170 450.4 170.5 450.4C171.1 450.4 171.5 450.5 171.9 450.7C172.3 450.9 172.6 451.1 172.9 451.4C173.2 451.7 173.4 452 173.5 452.4C173.6 452.8 173.7 453.1 173.7 453.4V454.3H168.9ZM170.4 451.9C170 451.9 169.6 452 169.4 452.2C169.1 452.4 169 452.7 168.9 452.9H171.9C171.8 452.6 171.7 452.3 171.4 452.1C171.2 452 170.8 451.9 170.4 451.9Z" fill="white"/>
<path d="M314 394C314 394.4 313.7 394.6 313.4 394.6H308C307.6 394.6 307.4 394.3 307.4 394C307.4 393.6 307.7 393.4 308 393.4H313.4C313.7 393.4 314 393.6 314 394Z" fill="white"/>
<path d="M288.7 394C288.7 394.4 288.4 394.6 288.1 394.6H282.6C282.2 394.6 282 394.3 282 394C282 393.6 282.3 393.4 282.6 393.4H288C288.4 393.4 288.7 393.6 288.7 394Z" fill="white"/>
<path d="M298.6 404V409.4C298.6 409.8 298.3 410 298 410C297.6 410 297.4 409.7 297.4 409.4V404C297.4 403.6 297.7 403.4 298 403.4C298.4 403.3 298.6 403.6 298.6 404Z" fill="white"/>
<path d="M298.6 378.6V384C298.6 384.4 298.3 384.6 298 384.6C297.6 384.6 297.4 384.3 297.4 384V378.6C297.4 378.2 297.7 378 298 378C298.4 378 298.6 378.3 298.6 378.6Z" fill="white"/>
<path d="M304.3 408.299C304.3 408.6 304.1 408.8 303.9 408.9C303.6 409.1 303.2 408.8 303.1 408.5L301.1 403.5C300.9 403.2 301.2 402.8 301.5 402.7C301.8 402.5 302.2 402.8 302.3 403.1L304.3 408.1C304.3 408.1 304.3 408.2 304.3 408.299Z" fill="white"/>
<path d="M295 384.7C295 385 294.8 385.2 294.6 385.3C294.3 385.5 293.9 385.2 293.8 384.9L291.8 379.9C291.6 379.6 291.9 379.2 292.2 379.1C292.5 379 292.9 379.2 293 379.5L295 384.5C295 384.6 295 384.7 295 384.7Z" fill="white"/>
<path d="M312.7 400.3C312.7 400.4 312.7 400.5 312.6 400.6C312.4 400.9 312.1 401.1 311.8 400.9L306.9 398.7C306.6 398.5 306.4 398.2 306.6 397.9C306.8 397.6 307.1 397.4 307.4 397.6L312.3 399.8C312.5 399.8 312.7 400.1 312.7 400.3Z" fill="white"/>
<path d="M289.6 389.9C289.6 390 289.6 390.1 289.5 390.2C289.3 390.5 289 390.7 288.7 390.5L283.7 388.3C283.4 388.1 283.2 387.8 283.4 387.5C283.6 387.2 283.9 387 284.2 387.2L289.1 389.4C289.4 389.5 289.6 389.7 289.6 389.9Z" fill="white"/>
<path d="M309.2 405.2C309.2 405.4 309.1 405.6 309 405.7C308.7 406 308.3 405.9 308.1 405.6L304.4 401.7C304.1 401.4 304.1 401 304.4 400.8C304.7 400.5 305.1 400.6 305.3 400.8L309 404.8C309.1 404.9 309.2 405 309.2 405.2Z" fill="white"/>
<path d="M291.8 386.7C291.8 386.9 291.7 387.1 291.6 387.2C291.3 387.5 290.9 387.4 290.7 387.1L287 383.1C286.7 382.9 286.8 382.5 287.1 382.3C287.4 382 287.7 382 288 382.3L291.7 386.3C291.8 386.4 291.8 386.6 291.8 386.7Z" fill="white"/>
<path d="M295.1 403.3C295.1 403.4 295.1 403.5 295 403.5L293 408.5C292.9 408.8 292.5 409 292.2 408.9C291.9 408.8 291.7 408.4 291.8 408.1L293.8 403.1C293.9 402.8 294.3 402.6 294.6 402.7C294.9 402.8 295.1 403.1 295.1 403.3Z" fill="white"/>
<path d="M304.1 379.6C304.1 379.7 304.1 379.8 304 379.8L302 384.8C301.9 385.1 301.5 385.3 301.2 385.2C300.9 385.1 300.7 384.7 300.8 384.4L302.8 379.4C302.9 379.1 303.3 378.9 303.6 379C304 379.1 304.1 379.4 304.1 379.6Z" fill="white"/>
<path d="M291.6 401C291.6 401.2 291.5 401.3 291.4 401.5L287.5 405.3C287.2 405.6 286.8 405.6 286.6 405.3C286.3 405 286.3 404.6 286.6 404.4L290.4 400.6C290.7 400.3 291.1 400.3 291.3 400.6C291.5 400.7 291.6 400.9 291.6 401Z" fill="white"/>
<path d="M309.5 383.1C309.5 383.3 309.4 383.4 309.3 383.6L305.4 387.4C305.1 387.7 304.7 387.7 304.5 387.4C304.3 387.1 304.2 386.7 304.5 386.5L308.4 382.7C308.7 382.4 309.1 382.4 309.3 382.7C309.5 382.8 309.5 383 309.5 383.1Z" fill="white"/>
<path d="M289.5 397.8C289.5 398.1 289.3 398.3 289.1 398.4L284.1 400.5C283.8 400.7 283.4 400.5 283.3 400.1C283.1 399.8 283.3 399.4 283.7 399.3L288.7 397.2C289 397 289.4 397.2 289.5 397.6C289.4 397.7 289.5 397.7 289.5 397.8Z" fill="white"/>
<path d="M312.9 388.1C312.9 388.4 312.7 388.6 312.5 388.7L307.5 390.8C307.2 391 306.8 390.8 306.7 390.4C306.5 390.1 306.7 389.7 307.1 389.6L312.1 387.5C312.4 387.3 312.8 387.5 312.9 387.9C312.8 388 312.9 388.1 312.9 388.1Z" fill="white"/>
<path d="M107 116.9H105.7L96.7 96.5H103.2L109.7 111.5H110.5L117 96.5H123.5L114.5 116.9H113V128H107V116.9Z" fill="white"/>
<path d="M115.4 153.1C115.4 151.8 114.9 150.7 113.9 149.8C112.9 148.9 111.6 148.4 109.8 148.4C108.3 148.4 107.1 148.7 106.2 149.3C105.3 149.9 104.9 150.7 104.9 151.8C104.9 152.3 105 152.8 105.2 153.3C105.4 153.7 105.8 154.1 106.3 154.5C106.8 154.8 107.5 155.1 108.4 155.4C109.3 155.7 110.4 155.9 111.7 156.2C115 156.8 117.5 157.8 119.3 159.2C121.1 160.6 121.9 162.7 121.9 165.5V166C121.9 167.5 121.6 168.8 121.1 170C120.6 171.2 119.8 172.2 118.9 173C118 173.8 116.7 174.5 115.3 174.9C113.9 175.3 112.3 175.6 110.5 175.6C108.4 175.6 106.6 175.3 105 174.7C103.4 174.1 102.1 173.3 101.1 172.3C100 171.2 99.3 170 98.7 168.7C98.2 167.3 97.9 165.8 97.9 164.1V162.7H103.8V163.8C103.8 165.7 104.3 167.2 105.4 168.3C106.5 169.4 108.2 170 110.5 170C112.3 170 113.6 169.6 114.5 168.8C115.4 168 115.8 167.1 115.8 166C115.8 165.5 115.7 165 115.5 164.6C115.3 164.1 115 163.7 114.6 163.3C114.2 162.9 113.5 162.6 112.8 162.3C112.1 162 111 161.7 109.8 161.5C108.2 161.2 106.8 160.9 105.4 160.5C104.1 160.1 102.9 159.5 101.9 158.7C100.9 158 100.2 157.1 99.7 156C99.2 154.9 98.9 153.6 98.9 152V151.7C98.9 150.4 99.2 149.2 99.7 148.1C100.2 147 101 146 101.9 145.2C102.9 144.4 104 143.8 105.3 143.3C106.6 142.9 108.1 142.6 109.8 142.6C111.7 142.6 113.3 142.9 114.7 143.4C116.1 143.9 117.3 144.6 118.3 145.5C119.3 146.4 120 147.4 120.5 148.6C121 149.8 121.3 151 121.3 152.3V153.9H115.4V153.1Z" fill="white"/>
<path d="M98.7 190.5H121.4V196.2H113V222H107V196.2H98.6C98.7 196.2 98.7 190.5 98.7 190.5Z" fill="white"/>
<path d="M99.9 237.5H119.8V243.2H105.9V250.4H119.3V256.1H105.9V263.4H120.4V269.1H99.9C99.9 269 99.9 237.5 99.9 237.5Z" fill="white"/>
<path d="M97.2 284.5H107.6L109.4 308.2V312.8H110.5V308.2L112.3 284.5H122.7V316H117.3V294.9L117.8 287.7H116.7L114.4 316H105.5L103.1 287.7H102L102.5 294.9V316H97.1C97.2 316 97.2 284.5 97.2 284.5Z" fill="white"/>
<path d="M115.4 341.1C115.4 339.8 114.9 338.7 113.9 337.8C112.9 336.9 111.6 336.4 109.8 336.4C108.3 336.4 107.1 336.7 106.2 337.3C105.3 337.9 104.9 338.7 104.9 339.8C104.9 340.3 105 340.8 105.2 341.3C105.4 341.7 105.8 342.1 106.3 342.5C106.8 342.8 107.5 343.1 108.4 343.4C109.3 343.7 110.4 343.9 111.7 344.2C115 344.8 117.5 345.8 119.3 347.2C121.1 348.6 121.9 350.7 121.9 353.5V354C121.9 355.5 121.6 356.8 121.1 358C120.6 359.2 119.8 360.2 118.9 361C117.9 361.8 116.7 362.5 115.3 362.9C113.9 363.4 112.3 363.6 110.5 363.6C108.4 363.6 106.6 363.3 105 362.7C103.4 362.1 102.1 361.3 101.1 360.3C100 359.3 99.3 358 98.7 356.7C98.2 355.3 97.9 353.8 97.9 352.1V350.7H103.8V351.8C103.8 353.7 104.3 355.2 105.4 356.3C106.5 357.4 108.2 358 110.5 358C112.3 358 113.6 357.6 114.5 356.8C115.4 356 115.8 355.1 115.8 354C115.8 353.5 115.7 353 115.5 352.6C115.3 352.1 115 351.7 114.6 351.3C114.2 350.9 113.5 350.6 112.8 350.3C112 350 111 349.7 109.8 349.5C108.2 349.2 106.8 348.9 105.4 348.5C104.1 348 102.9 347.5 101.9 346.7C100.9 346 100.2 345.1 99.7 344C99.2 342.9 98.9 341.6 98.9 340V339.7C98.9 338.4 99.2 337.2 99.7 336.1C100.2 335 101 334 101.9 333.2C102.9 332.4 104 331.8 105.3 331.3C106.6 330.8 108.1 330.6 109.8 330.6C111.7 330.6 113.3 330.9 114.7 331.4C116.1 331.9 117.3 332.6 118.3 333.5C119.3 334.4 120 335.4 120.5 336.6C121 337.8 121.3 339 121.3 340.3V341.9H115.4V341.1Z" fill="white"/>
<path d="M154.9 159.1H168.4V175H163V171.5H162.2C161.8 172.7 161.1 173.7 160.1 174.5C159.1 175.3 157.5 175.7 155.5 175.7C154.1 175.7 152.7 175.4 151.4 174.9C150.1 174.4 149 173.6 148.1 172.5C147.2 171.4 146.4 170.1 145.9 168.5C145.4 166.9 145.1 165.1 145.1 163V155.6C145.1 153.6 145.4 151.8 146 150.2C146.6 148.6 147.4 147.3 148.4 146.2C149.5 145.1 150.7 144.3 152.1 143.8C153.5 143.2 155.1 142.9 156.9 142.9C158.7 142.9 160.3 143.2 161.7 143.8C163.1 144.4 164.3 145.2 165.3 146.2C166.3 147.2 167 148.4 167.5 149.8C168 151.2 168.3 152.7 168.3 154.3V154.8H162.4V154.3C162.4 152.4 161.9 151 160.9 150C159.9 149 158.6 148.5 156.8 148.5C155.1 148.5 153.7 149.1 152.7 150.2C151.6 151.3 151.1 153.2 151.1 156V162.7C151.1 167.6 153.1 170 157 170C158.8 170 160.1 169.5 161 168.6C161.9 167.6 162.4 166.4 162.4 164.8H154.8L154.9 159.1Z" fill="white"/>
<path d="M153.2 206.2C153.2 205.2 153.6 204.3 154.3 203.5C155 202.7 155.9 202.4 157 202.4C158.1 202.4 158.9 202.8 159.7 203.5C160.5 204.2 160.8 205.1 160.8 206.2C160.8 207.3 160.4 208.1 159.7 208.9C159 209.7 158 210 157 210C156 210 155.1 209.6 154.3 208.9C153.5 208.2 153.2 207.3 153.2 206.2ZM145.4 202.7C145.4 198.6 146.4 195.5 148.5 193.2C150.6 191 153.4 189.8 157.1 189.8C160.8 189.8 163.6 190.9 165.6 193.2C167.7 195.4 168.7 198.6 168.7 202.7V209.7C168.7 213.9 167.7 217.1 165.6 219.3C163.6 221.5 160.7 222.6 157.1 222.6C153.5 222.6 150.6 221.5 148.5 219.3C146.5 217.1 145.4 213.9 145.4 209.7V202.7ZM157 217.2C158.1 217.2 159 217 159.7 216.7C160.4 216.3 161 215.8 161.5 215.2C162 214.6 162.3 213.8 162.4 213C162.6 212.1 162.7 211.2 162.7 210.1V202.4C162.7 201.4 162.6 200.5 162.4 199.6C162.2 198.7 161.9 198 161.4 197.4C161 196.8 160.4 196.3 159.6 195.9C158.9 195.5 158 195.3 157 195.3C156 195.3 155.1 195.5 154.4 195.9C153.7 196.3 153.1 196.8 152.6 197.4C152.2 198 151.8 198.8 151.6 199.6C151.4 200.4 151.3 201.4 151.3 202.4V210.1C151.3 211.2 151.4 212.1 151.6 213C151.8 213.9 152.1 214.6 152.5 215.2C152.9 215.8 153.5 216.3 154.3 216.7C155 217.1 155.9 217.2 157 217.2Z" fill="white"/>
<path d="M160 236.5V258.5H154V236.5H160ZM161.3 264.4C161.3 265 161.2 265.6 160.9 266.1C160.7 266.6 160.4 267.1 160 267.5C159.6 267.9 159.1 268.1 158.6 268.4C158.1 268.6 157.5 268.8 157 268.8C156.4 268.8 155.8 268.7 155.3 268.4C154.8 268.2 154.3 267.9 153.9 267.5C153.5 267.1 153.2 266.7 153 266.1C152.8 265.6 152.7 265 152.7 264.4C152.7 263.8 152.8 263.2 153 262.7C153.2 262.2 153.6 261.7 153.9 261.3C154.3 260.9 154.7 260.6 155.3 260.4C155.8 260.2 156.4 260 157 260C157.6 260 158.1 260.1 158.6 260.4C159.1 260.6 159.6 260.9 160 261.3C160.4 261.7 160.7 262.1 160.9 262.7C161.1 263.2 161.3 263.8 161.3 264.4Z" fill="white"/>
<path d="M63 222C71.8366 222 79 214.837 79 206C79 197.163 71.8366 190 63 190C54.1634 190 47 197.163 47 206C47 214.837 54.1634 222 63 222Z" fill="#75FA4C"/>
<path d="M204 34C212.837 34 220 26.8366 220 18C220 9.16344 212.837 2 204 2C195.163 2 188 9.16344 188 18C188 26.8366 195.163 34 204 34Z" fill="#0020F5"/>
<path d="M157 34C165.837 34 173 26.8366 173 18C173 9.16344 165.837 2 157 2C148.163 2 141 9.16344 141 18C141 26.8366 148.163 34 157 34Z" fill="#E63623"/>
<path d="M157 23C159.761 23 162 20.7614 162 18C162 15.2386 159.761 13 157 13C154.239 13 152 15.2386 152 18C152 20.7614 154.239 23 157 23Z" fill="black"/>
<path d="M237.8 22.7004C239.3 22.7004 240.6 21.4004 240.6 19.7004L240.8 20.4004L267.8 13.3004C268 14.7004 269.2 15.8004 270.6 15.8004C271.1 15.8004 271.6 15.6004 272.1 15.4004L281.3 29.9004C281.2 30.3004 281.1 30.6004 281.1 31.0004C281.1 32.6004 282.3 34.0004 283.9 34.0004C285.4 34.0004 286.7 32.7004 286.7 31.0004C286.7 30.1004 286.2 29.2004 285.6 28.7004L293.8 8.60039L297.6 21.7004C296.8 22.2004 296.2 23.1004 296.2 24.2004C296.2 25.9004 297.4 27.2004 299 27.2004C300.5 27.2004 301.8 25.9004 301.8 24.2004C301.8 23.6004 301.6 23.1004 301.3 22.7004L307.8 15.5004C308.2 15.7004 308.6 15.9004 309.2 15.9004C310.7 15.9004 312 14.6004 312 12.9004C312 11.3004 310.8 9.90039 309.2 9.90039C307.7 9.90039 306.4 11.2004 306.4 12.9004C306.4 13.5004 306.6 14.0004 306.9 14.4004L300.4 21.6004C300 21.4004 299.6 21.2004 299 21.2004C298.9 21.2004 298.9 21.2004 298.9 21.2004L294.9 7.40039C295.7 6.90039 296.3 6.00039 296.3 4.90039C296.3 3.30039 295.1 1.90039 293.5 1.90039C291.9 1.90039 290.7 3.20039 290.7 4.90039C290.7 6.20039 291.5 7.30039 292.7 7.70039L284.3 28.0004C284.2 28.0004 284 27.9004 283.9 27.9004C283.3 27.9004 282.7 28.1004 282.2 28.5004L273.2 14.1004C273.4 13.7004 273.5 13.2004 273.5 12.7004C273.5 11.1004 272.3 9.70039 270.7 9.70039C269.5 9.70039 268.5 10.5004 268.1 11.6004L240.7 18.9004C240.4 17.6004 239.3 16.6004 238 16.6004C236.4 16.6004 235.2 17.9004 235.2 19.6004C235 21.4004 236.2 22.7004 237.8 22.7004Z" fill="#75FA4C"/>
<path d="M298 331C306.8 331 314 338.2 314 347C314 355.8 306.8 363 298 363H251C242.2 363 235 355.8 235 347C235 338.2 242.2 331 251 331H298Z" fill="#0020F5"/>
<path d="M251 363C259.837 363 267 355.837 267 347C267 338.163 259.837 331 251 331C242.163 331 235 338.163 235 347C235 355.837 242.163 363 251 363Z" fill="white"/>
<path d="M251 352C253.761 352 256 349.761 256 347C256 344.239 253.761 342 251 342C248.239 342 246 344.239 246 347C246 349.761 248.239 352 251 352Z" fill="black"/>
<path d="M32 300C32 300.4 31.7 300.6 31.4 300.6H26C25.6 300.6 25.4 300.3 25.4 300C25.4 299.6 25.7 299.4 26 299.4H31.4C31.7 299.4 32 299.6 32 300Z" fill="#EE2524"/>
<path d="M6.7 300C6.7 300.4 6.4 300.6 6.1 300.6H0.6C0.2 300.6 0 300.3 0 300C0 299.6 0.3 299.4 0.6 299.4H6C6.4 299.4 6.7 299.6 6.7 300Z" fill="#EE2524"/>
<path d="M16.6 310V315.4C16.6 315.8 16.3 316 16 316C15.6 316 15.4 315.7 15.4 315.4V310C15.4 309.6 15.7 309.4 16 309.4C16.4 309.3 16.6 309.6 16.6 310Z" fill="#EE2524"/>
<path d="M16.6 284.6V290C16.6 290.4 16.3 290.6 16 290.6C15.6 290.6 15.4 290.3 15.4 290V284.6C15.4 284.2 15.7 284 16 284C16.4 284 16.6 284.3 16.6 284.6Z" fill="#EE2524"/>
<path d="M22.3 314.299C22.3 314.6 22.1 314.8 21.9 314.9C21.6 315.1 21.2 314.8 21.1 314.5L19.1 309.5C18.9 309.2 19.2 308.8 19.5 308.7C19.8 308.5 20.2 308.8 20.3 309.1L22.3 314.1C22.3 314.1 22.3 314.2 22.3 314.299Z" fill="#EE2524"/>
<path d="M13 290.7C13 291 12.8 291.2 12.6 291.3C12.3 291.5 11.9 291.2 11.8 290.9L9.8 285.9C9.6 285.6 9.9 285.2 10.2 285.1C10.5 285 10.9 285.2 11 285.5L13 290.5C13 290.6 13 290.7 13 290.7Z" fill="#EE2524"/>
<path d="M30.7 306.3C30.7 306.4 30.7 306.5 30.6 306.6C30.4 306.9 30.1 307.1 29.8 306.9L24.9 304.7C24.6 304.5 24.4 304.2 24.6 303.9C24.8 303.6 25.1 303.4 25.4 303.6L30.3 305.8C30.5 305.8 30.7 306.1 30.7 306.3Z" fill="#EE2524"/>
<path d="M7.6 295.9C7.6 296 7.6 296.1 7.5 296.2C7.3 296.5 7 296.7 6.7 296.5L1.7 294.3C1.4 294.1 1.2 293.8 1.4 293.5C1.6 293.2 1.9 293 2.2 293.2L7.1 295.4C7.4 295.5 7.6 295.7 7.6 295.9Z" fill="#EE2524"/>
<path d="M27.2 311.2C27.2 311.4 27.1 311.6 27 311.7C26.7 312 26.3 311.9 26.1 311.6L22.4 307.7C22.1 307.4 22.1 307 22.4 306.8C22.7 306.5 23.1 306.6 23.3 306.8L27 310.8C27.1 310.9 27.2 311 27.2 311.2Z" fill="#EE2524"/>
<path d="M9.8 292.7C9.8 292.9 9.7 293.1 9.6 293.2C9.3 293.5 8.9 293.4 8.7 293.1L5 289.1C4.7 288.9 4.8 288.5 5.1 288.3C5.4 288 5.7 288 6 288.3L9.7 292.3C9.8 292.4 9.8 292.6 9.8 292.7Z" fill="#EE2524"/>
<path d="M13.1 309.3C13.1 309.4 13.1 309.5 13 309.5L11 314.5C10.9 314.8 10.5 315 10.2 314.9C9.9 314.8 9.7 314.4 9.8 314.1L11.8 309.1C11.9 308.8 12.3 308.6 12.6 308.7C12.9 308.8 13.1 309.1 13.1 309.3Z" fill="#EE2524"/>
<path d="M22.1 285.6C22.1 285.7 22.1 285.8 22 285.8L20 290.8C19.9 291.1 19.5 291.3 19.2 291.2C18.9 291.1 18.7 290.7 18.8 290.4L20.8 285.4C20.9 285.1 21.3 284.9 21.6 285C22 285.1 22.1 285.4 22.1 285.6Z" fill="#EE2524"/>
<path d="M9.6 307C9.6 307.2 9.5 307.3 9.4 307.5L5.5 311.3C5.2 311.6 4.8 311.6 4.6 311.3C4.3 311 4.3 310.6 4.6 310.4L8.4 306.6C8.7 306.3 9.1 306.3 9.3 306.6C9.5 306.7 9.6 306.9 9.6 307Z" fill="#EE2524"/>
<path d="M27.5 289.1C27.5 289.3 27.4 289.4 27.3 289.6L23.4 293.4C23.1 293.7 22.7 293.7 22.5 293.4C22.3 293.1 22.2 292.7 22.5 292.5L26.4 288.7C26.7 288.4 27.1 288.4 27.3 288.7C27.5 288.8 27.5 289 27.5 289.1Z" fill="#EE2524"/>
<path d="M7.5 303.8C7.5 304.1 7.3 304.3 7.1 304.4L2.1 306.5C1.8 306.7 1.4 306.5 1.3 306.1C1.1 305.8 1.3 305.4 1.7 305.3L6.7 303.2C7 303 7.4 303.2 7.5 303.6C7.4 303.7 7.5 303.7 7.5 303.8Z" fill="#EE2524"/>
<path d="M30.9 294.1C30.9 294.4 30.7 294.6 30.5 294.7L25.5 296.8C25.2 297 24.8 296.8 24.7 296.4C24.5 296.1 24.7 295.7 25.1 295.6L30.1 293.5C30.4 293.3 30.8 293.5 30.9 293.9C30.8 294 30.9 294.1 30.9 294.1Z" fill="#EE2524"/>
<path d="M126 18.0004C126 18.4004 125.7 18.6004 125.4 18.6004H120C119.6 18.6004 119.4 18.3004 119.4 18.0004C119.4 17.6004 119.7 17.4004 120 17.4004H125.4C125.7 17.4004 126 17.6004 126 18.0004Z" fill="#75FA4C"/>
<path d="M100.7 18.0004C100.7 18.4004 100.4 18.6004 100.1 18.6004H94.6C94.2 18.6004 94 18.3004 94 18.0004C94 17.6004 94.3 17.4004 94.6 17.4004H100C100.4 17.4004 100.7 17.6004 100.7 18.0004Z" fill="#75FA4C"/>
<path d="M110.6 28.0002V33.4002C110.6 33.8002 110.3 34.0002 110 34.0002C109.6 34.0002 109.4 33.7002 109.4 33.4002V28.0002C109.4 27.6002 109.7 27.4002 110 27.4002C110.4 27.3002 110.6 27.6002 110.6 28.0002Z" fill="#75FA4C"/>
<path d="M110.6 2.6V8C110.6 8.4 110.3 8.6 110 8.6C109.6 8.6 109.4 8.3 109.4 8V2.6C109.4 2.2 109.7 2 110 2C110.4 2 110.6 2.3 110.6 2.6Z" fill="#75FA4C"/>
<path d="M116.3 32.2995C116.3 32.5995 116.1 32.7995 115.9 32.8995C115.6 33.0995 115.2 32.7995 115.1 32.4995L113.1 27.4995C112.9 27.1995 113.2 26.7995 113.5 26.6995C113.8 26.4995 114.2 26.7995 114.3 27.0995L116.3 32.0995C116.3 32.0995 116.3 32.1995 116.3 32.2995Z" fill="#75FA4C"/>
<path d="M107 8.70023C107 9.00023 106.8 9.20023 106.6 9.30023C106.3 9.50023 105.9 9.20023 105.8 8.90023L103.8 3.90023C103.6 3.60023 103.9 3.20023 104.2 3.10023C104.5 3.00023 104.9 3.20023 105 3.50023L107 8.50023C107 8.60023 107 8.70023 107 8.70023Z" fill="#75FA4C"/>
<path d="M124.7 24.3C124.7 24.4 124.7 24.5 124.6 24.6C124.4 24.9 124.1 25.1 123.8 24.9L118.9 22.7C118.6 22.5 118.4 22.2 118.6 21.9C118.8 21.6 119.1 21.4 119.4 21.6L124.3 23.8C124.5 23.8 124.7 24.1 124.7 24.3Z" fill="#75FA4C"/>
<path d="M101.6 13.8996C101.6 13.9996 101.6 14.0996 101.5 14.1996C101.3 14.4996 101 14.6996 100.7 14.4996L95.7 12.2996C95.4 12.0996 95.2 11.7996 95.4 11.4996C95.6 11.1996 95.9 10.9996 96.2 11.1996L101.1 13.3996C101.4 13.4996 101.6 13.6996 101.6 13.8996Z" fill="#75FA4C"/>
<path d="M121.2 29.1997C121.2 29.3997 121.1 29.5997 121 29.6997C120.7 29.9997 120.3 29.8997 120.1 29.5997L116.4 25.6997C116.1 25.3997 116.1 24.9997 116.4 24.7997C116.7 24.4997 117.1 24.5997 117.3 24.7997L121 28.7997C121.1 28.8997 121.2 28.9997 121.2 29.1997Z" fill="#75FA4C"/>
<path d="M103.8 10.6998C103.8 10.8998 103.7 11.0998 103.6 11.1998C103.3 11.4998 102.9 11.3998 102.7 11.0998L99 7.0998C98.7 6.9998 98.8 6.5998 99 6.3998C99.3 6.0998 99.6 6.0998 99.9 6.3998L103.6 10.3998C103.8 10.3998 103.8 10.5998 103.8 10.6998Z" fill="#75FA4C"/>
<path d="M107.1 27.2998C107.1 27.3998 107.1 27.4998 107 27.4998L105 32.4998C104.9 32.7998 104.5 32.9998 104.2 32.8998C103.9 32.7998 103.7 32.3998 103.8 32.0998L105.8 27.0998C105.9 26.7998 106.3 26.5998 106.6 26.6998C106.9 26.7998 107.1 27.0998 107.1 27.2998Z" fill="#75FA4C"/>
<path d="M116.1 3.59965C116.1 3.69965 116.1 3.79965 116 3.79965L114 8.79965C113.9 9.09965 113.5 9.29965 113.2 9.19965C112.9 9.09965 112.7 8.69965 112.8 8.39965L114.8 3.39965C114.9 3.09965 115.3 2.89965 115.6 2.99965C116 3.09965 116.1 3.39965 116.1 3.59965Z" fill="#75FA4C"/>
<path d="M103.6 25C103.6 25.2 103.5 25.3 103.4 25.5L99.5 29.3C99.2 29.6 98.8 29.6 98.6 29.3C98.4 29 98.3 28.6 98.6 28.4L102.4 24.6C102.7 24.3 103.1 24.3 103.3 24.6C103.5 24.7 103.6 24.9 103.6 25Z" fill="#75FA4C"/>
<path d="M121.5 7.09961C121.5 7.29961 121.4 7.39961 121.3 7.59961L117.4 11.3996C117.1 11.6996 116.7 11.6996 116.5 11.3996C116.3 11.0996 116.2 10.6996 116.5 10.4996L120.4 6.69961C120.7 6.39961 121.1 6.39961 121.3 6.69961C121.5 6.79961 121.5 6.99961 121.5 7.09961Z" fill="#75FA4C"/>
<path d="M101.5 21.7996C101.5 22.0996 101.3 22.2996 101.1 22.3996L96.1 24.4996C95.8 24.6996 95.4 24.4996 95.3 24.0996C95.1 23.7996 95.3 23.3996 95.7 23.2996L100.7 21.1996C101 20.9996 101.4 21.1996 101.5 21.5996C101.4 21.6996 101.5 21.6996 101.5 21.7996Z" fill="#75FA4C"/>
<path d="M124.9 12.1003C124.9 12.4003 124.7 12.6003 124.5 12.7003L119.5 14.8003C119.2 15.0003 118.8 14.8003 118.7 14.4003C118.5 14.1003 118.7 13.7003 119.1 13.6003L124.1 11.5003C124.4 11.3003 124.8 11.5003 124.9 11.9003C124.8 12.0003 124.9 12.1003 124.9 12.1003Z" fill="#75FA4C"/>
<path d="M63 316C71.8366 316 79 308.837 79 300C79 291.163 71.8366 284 63 284C54.1634 284 47 291.163 47 300C47 308.837 54.1634 316 63 316Z" fill="#E63623"/>
<path d="M63 305C65.7614 305 68 302.761 68 300C68 297.239 65.7614 295 63 295C60.2386 295 58 297.239 58 300C58 302.761 60.2386 305 63 305Z" fill="black"/>
<path d="M146.3 107.6C149.227 107.6 151.6 105.227 151.6 102.3C151.6 99.3729 149.227 97 146.3 97C143.373 97 141 99.3729 141 102.3C141 105.227 143.373 107.6 146.3 107.6Z" fill="#E63623"/>
<path d="M167.7 107.6C170.627 107.6 173 105.227 173 102.3C173 99.3729 170.627 97 167.7 97C164.773 97 162.4 99.3729 162.4 102.3C162.4 105.227 164.773 107.6 167.7 107.6Z" fill="#E63623"/>
<path d="M146.3 127C149.227 127 151.6 124.627 151.6 121.7C151.6 118.773 149.227 116.4 146.3 116.4C143.373 116.4 141 118.773 141 121.7C141 124.627 143.373 127 146.3 127Z" fill="#E63623"/>
<path d="M167.7 127C170.627 127 173 124.627 173 121.7C173 118.773 170.627 116.4 167.7 116.4C164.773 116.4 162.4 118.773 162.4 121.7C162.4 124.627 164.773 127 167.7 127Z" fill="#E63623"/>
<path d="M251 128C242.2 128 235 120.8 235 112C235 103.2 242.2 96 251 96H298C306.8 96 314 103.2 314 112C314 120.8 306.8 128 298 128H251Z" fill="#E63623"/>
<path d="M251 128C259.837 128 267 120.837 267 112C267 103.163 259.837 96 251 96C242.163 96 235 103.163 235 112C235 120.837 242.163 128 251 128Z" fill="#0020F5"/>
<path d="M298 128C306.837 128 314 120.837 314 112C314 103.163 306.837 96 298 96C289.163 96 282 103.163 282 112C282 120.837 289.163 128 298 128Z" fill="#75FA4C"/>
<path d="M298 117C300.761 117 303 114.761 303 112C303 109.239 300.761 107 298 107C295.239 107 293 109.239 293 112C293 114.761 295.239 117 298 117Z" fill="black"/>
<path d="M194.3 97H190.4V128H194.3V97Z" fill="white"/>
<path d="M205.5 97H201.6V128H205.5V97Z" fill="white"/>
<path d="M217.6 97H213.7V128H217.6V97Z" fill="white"/>
<path d="M196.7 107.7H188V110.6H196.7V107.7Z" fill="#E63623"/>
<path d="M207.9 117.8H199.2V120.7H207.9V117.8Z" fill="#0020F5"/>
<path d="M220 100.9H211.3V103.8H220V100.9Z" fill="#75FA4C"/>
<path d="M235 206C235 197.2 242.2 190 251 190C259.8 190 267 197.2 267 206V253C267 261.8 259.8 269 251 269C242.2 269 235 261.8 235 253V206Z" fill="#E63623"/>
<path d="M251 222C259.837 222 267 214.837 267 206C267 197.163 259.837 190 251 190C242.163 190 235 197.163 235 206C235 214.837 242.163 222 251 222Z" fill="#0020F5"/>
<path d="M251 269C259.837 269 267 261.837 267 253C267 244.163 259.837 237 251 237C242.163 237 235 244.163 235 253C235 261.837 242.163 269 251 269Z" fill="white"/>
<path d="M251 258C253.761 258 256 255.761 256 253C256 250.239 253.761 248 251 248C248.239 248 246 250.239 246 253C246 255.761 248.239 258 251 258Z" fill="black"/>
<path d="M208.1 266.2C208.1 264.7 206.8 263.4 205.2 263.4L205.9 263.2L199 237C200.4 236.8 201.4 235.7 201.4 234.3C201.4 233.8 201.2 233.3 201 232.9L215.1 224C215.4 224.1 215.8 224.2 216.2 224.2C217.8 224.2 219.1 223 219.1 221.4C219.1 219.9 217.8 218.6 216.2 218.6C215.3 218.6 214.5 219 214 219.7L194.5 211.7L207.2 208C207.7 208.8 208.6 209.3 209.6 209.3C211.2 209.3 212.5 208.1 212.5 206.5C212.5 205 211.2 203.7 209.6 203.7C209 203.7 208.5 203.9 208.1 204.1L201.2 197.8C201.4 197.4 201.6 197 201.6 196.5C201.6 195 200.3 193.7 198.7 193.7C197.1 193.7 195.8 194.9 195.8 196.5C195.8 198 197.1 199.3 198.7 199.3C199.3 199.3 199.8 199.1 200.2 198.9L207.1 205.2C206.9 205.6 206.8 206 206.8 206.5C206.8 206.6 206.8 206.6 206.8 206.6L193.4 210.5C192.9 209.7 192 209.2 191 209.2C189.4 209.2 188.1 210.4 188.1 212C188.1 213.5 189.4 214.8 191 214.8C192.3 214.8 193.4 214 193.7 212.9L213.4 221C213.4 221.1 213.3 221.3 213.3 221.4C213.3 222 213.5 222.6 213.9 223.1L200 231.9C199.6 231.7 199.1 231.6 198.6 231.6C197 231.6 195.7 232.8 195.7 234.4C195.7 235.6 196.4 236.5 197.5 236.9L204.6 263.6C203.3 263.9 202.4 265 202.4 266.2C202.4 267.7 203.7 269 205.3 269C206.8 269 208.1 267.8 208.1 266.2Z" fill="#75FA4C"/>
<path d="M288.4 190H282V196.4H288.4V190Z" fill="#0020F5"/>
<path d="M301.2 190H294.8V196.4H301.2V190Z" fill="#0020F5"/>
<path d="M314 190H307.6V196.4H314V190Z" fill="#0020F5"/>
<path d="M288.4 202.8H282V209.2H288.4V202.8Z" fill="#0020F5"/>
<path d="M301.2 202.8H294.8V209.2H301.2V202.8Z" fill="#0020F5"/>
<path d="M314 202.8H307.6V209.2H314V202.8Z" fill="#0020F5"/>
<path d="M288.4 215.6H282V222H288.4V215.6Z" fill="#0020F5"/>
<path d="M301.2 215.6H294.8V222H301.2V215.6Z" fill="#0020F5"/>
<path d="M314 215.6H307.6V222H314V215.6Z" fill="#0020F5"/>
<path d="M298 269C306.837 269 314 261.837 314 253C314 244.163 306.837 237 298 237C289.163 237 282 244.163 282 253C282 261.837 289.163 269 298 269Z" fill="#E63623"/>
<path d="M16 363C24.8366 363 32 355.837 32 347C32 338.163 24.8366 331 16 331C7.16344 331 0 338.163 0 347C0 355.837 7.16344 363 16 363Z" fill="#75FA4C"/>
<path d="M16 352C18.7614 352 21 349.761 21 347C21 344.239 18.7614 342 16 342C13.2386 342 11 344.239 11 347C11 349.761 13.2386 352 16 352Z" fill="black"/>
<path d="M204 363C212.837 363 220 355.837 220 347C220 338.163 212.837 331 204 331C195.163 331 188 338.163 188 347C188 355.837 195.163 363 204 363Z" fill="#E63623"/>
<path d="M53.3 332H49.4V363H53.3V332Z" fill="white"/>
<path d="M64.5 332H60.6V363H64.5V332Z" fill="white"/>
<path d="M76.6 332H72.7V363H76.6V332Z" fill="white"/>
<path d="M55.7 342.7H47V345.6H55.7V342.7Z" fill="#E63623"/>
<path d="M66.9 352.8H58.2V355.7H66.9V352.8Z" fill="#0020F5"/>
<path d="M79 335.9H70.3V338.8H79V335.9Z" fill="#75FA4C"/>
<path d="M298 316C306.837 316 314 308.837 314 300C314 291.163 306.837 284 298 284C289.163 284 282 291.163 282 300C282 308.837 289.163 316 298 316Z" fill="white"/>
<path d="M204 316C195.2 316 188 308.8 188 300C188 291.2 195.2 284 204 284H251C259.8 284 267 291.2 267 300C267 308.8 259.8 316 251 316H204Z" fill="white"/>
<path d="M204 316C212.837 316 220 308.837 220 300C220 291.163 212.837 284 204 284C195.163 284 188 291.163 188 300C188 308.837 195.163 316 204 316Z" fill="#0020F5"/>
<path d="M251 316C259.837 316 267 308.837 267 300C267 291.163 259.837 284 251 284C242.163 284 235 291.163 235 300C235 308.837 242.163 316 251 316Z" fill="#E63623"/>
<path d="M251 305C253.761 305 256 302.761 256 300C256 297.239 253.761 295 251 295C248.239 295 246 297.239 246 300C246 302.761 248.239 305 251 305Z" fill="black"/>
<path d="M157 316C165.837 316 173 308.837 173 300C173 291.163 165.837 284 157 284C148.163 284 141 291.163 141 300C141 308.837 148.163 316 157 316Z" fill="#75FA4C"/>
<path d="M157 305C159.761 305 162 302.761 162 300C162 297.239 159.761 295 157 295C154.239 295 152 297.239 152 300C152 302.761 154.239 305 157 305Z" fill="black"/>
<path d="M251 143C259.8 143 267 150.2 267 159C267 167.8 259.8 175 251 175H204C195.2 175 188 167.8 188 159C188 150.2 195.2 143 204 143H251Z" fill="white"/>
<path d="M251 175C259.837 175 267 167.837 267 159C267 150.163 259.837 143 251 143C242.163 143 235 150.163 235 159C235 167.837 242.163 175 251 175Z" fill="#75FA4C"/>
<path d="M204 175C212.837 175 220 167.837 220 159C220 150.163 212.837 143 204 143C195.163 143 188 150.163 188 159C188 167.837 195.163 175 204 175Z" fill="#E63623"/>
<path d="M314 159C314 159.4 313.7 159.6 313.4 159.6H308C307.6 159.6 307.4 159.3 307.4 159C307.4 158.6 307.7 158.4 308 158.4H313.4C313.7 158.4 314 158.6 314 159Z" fill="#75FA4C"/>
<path d="M288.7 159C288.7 159.4 288.4 159.6 288.1 159.6H282.6C282.2 159.6 282 159.3 282 159C282 158.6 282.3 158.4 282.6 158.4H288C288.4 158.4 288.7 158.6 288.7 159Z" fill="#75FA4C"/>
<path d="M298.6 169V174.4C298.6 174.8 298.3 175 298 175C297.6 175 297.4 174.7 297.4 174.4V169C297.4 168.6 297.7 168.4 298 168.4C298.4 168.3 298.6 168.6 298.6 169Z" fill="#75FA4C"/>
<path d="M298.6 143.6V149C298.6 149.4 298.3 149.6 298 149.6C297.6 149.6 297.4 149.3 297.4 149V143.6C297.4 143.2 297.7 143 298 143C298.4 143 298.6 143.3 298.6 143.6Z" fill="#75FA4C"/>
<path d="M304.3 173.3C304.3 173.6 304.1 173.8 303.9 173.9C303.6 174.1 303.2 173.8 303.1 173.5L301.1 168.5C300.9 168.2 301.2 167.8 301.5 167.7C301.8 167.5 302.2 167.8 302.3 168.1L304.3 173.1C304.3 173.1 304.3 173.2 304.3 173.3Z" fill="#75FA4C"/>
<path d="M295 149.7C295 150 294.8 150.2 294.6 150.3C294.3 150.5 293.9 150.2 293.8 149.9L291.8 144.9C291.6 144.6 291.9 144.2 292.2 144.1C292.5 144 292.9 144.2 293 144.5L295 149.5C295 149.6 295 149.7 295 149.7Z" fill="#75FA4C"/>
<path d="M312.7 165.3C312.7 165.4 312.7 165.5 312.6 165.6C312.4 165.9 312.1 166.1 311.8 165.9L306.9 163.7C306.6 163.5 306.4 163.2 306.6 162.9C306.8 162.6 307.1 162.4 307.4 162.6L312.3 164.8C312.5 164.8 312.7 165.1 312.7 165.3Z" fill="#75FA4C"/>
<path d="M289.6 154.9C289.6 155 289.6 155.1 289.5 155.2C289.3 155.5 289 155.7 288.7 155.5L283.7 153.3C283.4 153.1 283.2 152.8 283.4 152.5C283.6 152.2 283.9 152 284.2 152.2L289.1 154.4C289.4 154.5 289.6 154.7 289.6 154.9Z" fill="#75FA4C"/>
<path d="M309.2 170.2C309.2 170.4 309.1 170.6 309 170.7C308.7 171 308.3 170.9 308.1 170.6L304.4 166.7C304.1 166.4 304.1 166 304.4 165.8C304.7 165.5 305.1 165.6 305.3 165.8L309 169.8C309.1 169.9 309.2 170 309.2 170.2Z" fill="#75FA4C"/>
<path d="M291.8 151.7C291.8 151.9 291.7 152.1 291.6 152.2C291.3 152.5 290.9 152.4 290.7 152.1L287 148.1C286.7 147.9 286.8 147.5 287.1 147.3C287.4 147 287.7 147 288 147.3L291.7 151.3C291.8 151.4 291.8 151.6 291.8 151.7Z" fill="#75FA4C"/>
<path d="M295.1 168.3C295.1 168.4 295.1 168.5 295 168.5L293 173.5C292.9 173.8 292.5 174 292.2 173.9C291.9 173.8 291.7 173.4 291.8 173.1L293.8 168.1C293.9 167.8 294.3 167.6 294.6 167.7C294.9 167.8 295.1 168.1 295.1 168.3Z" fill="#75FA4C"/>
<path d="M304.1 144.6C304.1 144.7 304.1 144.8 304 144.8L302 149.8C301.9 150.1 301.5 150.3 301.2 150.2C300.9 150.1 300.7 149.7 300.8 149.4L302.8 144.4C302.9 144.1 303.3 143.9 303.6 144C304 144.1 304.1 144.4 304.1 144.6Z" fill="#75FA4C"/>
<path d="M291.6 166C291.6 166.2 291.5 166.3 291.4 166.5L287.5 170.3C287.2 170.6 286.8 170.6 286.6 170.3C286.3 170 286.3 169.6 286.6 169.4L290.4 165.6C290.7 165.3 291.1 165.3 291.3 165.6C291.5 165.7 291.6 165.9 291.6 166Z" fill="#75FA4C"/>
<path d="M309.5 148.1C309.5 148.3 309.4 148.4 309.3 148.6L305.4 152.4C305.1 152.7 304.7 152.7 304.5 152.4C304.3 152.1 304.2 151.7 304.5 151.5L308.4 147.7C308.7 147.4 309.1 147.4 309.3 147.7C309.5 147.8 309.5 148 309.5 148.1Z" fill="#75FA4C"/>
<path d="M289.5 162.8C289.5 163.1 289.3 163.3 289.1 163.4L284.1 165.5C283.8 165.7 283.4 165.5 283.3 165.1C283.1 164.8 283.3 164.4 283.7 164.3L288.7 162.2C289 162 289.4 162.2 289.5 162.6C289.4 162.7 289.5 162.7 289.5 162.8Z" fill="#75FA4C"/>
<path d="M312.9 153.1C312.9 153.4 312.7 153.6 312.5 153.7L307.5 155.8C307.2 156 306.8 155.8 306.7 155.4C306.5 155.1 306.7 154.7 307.1 154.6L312.1 152.5C312.4 152.3 312.8 152.5 312.9 152.9C312.8 153 312.9 153.1 312.9 153.1Z" fill="#75FA4C"/>
<path d="M16 410C7.2 410 0 402.8 0 394C0 385.2 7.2 378 16 378H63C71.8 378 79 385.2 79 394C79 402.8 71.8 410 63 410H16Z" fill="#E63623"/>
<path d="M16 410C24.8366 410 32 402.837 32 394C32 385.163 24.8366 378 16 378C7.16344 378 0 385.163 0 394C0 402.837 7.16344 410 16 410Z" fill="#0020F5"/>
<path d="M63 410C71.8366 410 79 402.837 79 394C79 385.163 71.8366 378 63 378C54.1634 378 47 385.163 47 394C47 402.837 54.1634 410 63 410Z" fill="#75FA4C"/>
<path d="M100.4 378H94V384.4H100.4V378Z" fill="white"/>
<path d="M113.2 378H106.8V384.4H113.2V378Z" fill="white"/>
<path d="M126 378H119.6V384.4H126V378Z" fill="white"/>
<path d="M100.4 390.8H94V397.2H100.4V390.8Z" fill="white"/>
<path d="M113.2 390.8H106.8V397.2H113.2V390.8Z" fill="white"/>
<path d="M126 390.8H119.6V397.2H126V390.8Z" fill="white"/>
<path d="M100.4 403.6H94V410H100.4V403.6Z" fill="white"/>
<path d="M113.2 403.6H106.8V410H113.2V403.6Z" fill="white"/>
<path d="M126 403.6H119.6V410H126V403.6Z" fill="white"/>
<path d="M204 378C212.8 378 220 385.2 220 394C220 402.8 212.8 410 204 410H157C148.2 410 141 402.8 141 394C141 385.2 148.2 378 157 378H204Z" fill="white"/>
<path d="M157 410C165.837 410 173 402.837 173 394C173 385.163 165.837 378 157 378C148.163 378 141 385.163 141 394C141 402.837 148.163 410 157 410Z" fill="#E63623"/>
<path d="M157 399C159.761 399 162 396.761 162 394C162 391.239 159.761 389 157 389C154.239 389 152 391.239 152 394C152 396.761 154.239 399 157 399Z" fill="black"/>
<path d="M251 384.2C252.712 384.2 254.1 382.812 254.1 381.1C254.1 379.388 252.712 378 251 378C249.288 378 247.9 379.388 247.9 381.1C247.9 382.812 249.288 384.2 251 384.2Z" fill="#E63623"/>
<path d="M263.9 384.2C265.612 384.2 267 382.812 267 381.1C267 379.388 265.612 378 263.9 378C262.188 378 260.8 379.388 260.8 381.1C260.8 382.812 262.188 384.2 263.9 384.2Z" fill="#E63623"/>
<path d="M238.1 397.2C239.812 397.2 241.2 395.812 241.2 394.1C241.2 392.388 239.812 391 238.1 391C236.388 391 235 392.388 235 394.1C235 395.812 236.388 397.2 238.1 397.2Z" fill="#E63623"/>
<path d="M251 397.2C252.712 397.2 254.1 395.812 254.1 394.1C254.1 392.388 252.712 391 251 391C249.288 391 247.9 392.388 247.9 394.1C247.9 395.812 249.288 397.2 251 397.2Z" fill="#E63623"/>
<path d="M263.9 397.2C265.612 397.2 267 395.812 267 394.1C267 392.388 265.612 391 263.9 391C262.188 391 260.8 392.388 260.8 394.1C260.8 395.812 262.188 397.2 263.9 397.2Z" fill="#E63623"/>
<path d="M238.1 410C239.812 410 241.2 408.612 241.2 406.9C241.2 405.188 239.812 403.8 238.1 403.8C236.388 403.8 235 405.188 235 406.9C235 408.612 236.388 410 238.1 410Z" fill="#E63623"/>
<path d="M251 410C252.712 410 254.1 408.612 254.1 406.9C254.1 405.188 252.712 403.8 251 403.8C249.288 403.8 247.9 405.188 247.9 406.9C247.9 408.612 249.288 410 251 410Z" fill="#E63623"/>
<path d="M263.9 410C265.612 410 267 408.612 267 406.9C267 405.188 265.612 403.8 263.9 403.8C262.188 403.8 260.8 405.188 260.8 406.9C260.8 408.612 262.188 410 263.9 410Z" fill="#E63623"/>
<path d="M238.1 384.2C239.812 384.2 241.2 382.812 241.2 381.1C241.2 379.388 239.812 378 238.1 378C236.388 378 235 379.388 235 381.1C235 382.812 236.388 384.2 238.1 384.2Z" fill="#E63623"/>
<path d="M63 175C71.8366 175 79 167.837 79 159C79 150.163 71.8366 143 63 143C54.1634 143 47 150.163 47 159C47 167.837 54.1634 175 63 175Z" fill="white"/>
<path d="M63 164C65.7614 164 68 161.761 68 159C68 156.239 65.7614 154 63 154C60.2386 154 58 156.239 58 159C58 161.761 60.2386 164 63 164Z" fill="black"/>
<path d="M146.3 343.6C149.227 343.6 151.6 341.227 151.6 338.3C151.6 335.373 149.227 333 146.3 333C143.373 333 141 335.373 141 338.3C141 341.227 143.373 343.6 146.3 343.6Z" fill="#E63623"/>
<path d="M167.7 343.6C170.627 343.6 173 341.227 173 338.3C173 335.373 170.627 333 167.7 333C164.773 333 162.4 335.373 162.4 338.3C162.4 341.227 164.773 343.6 167.7 343.6Z" fill="#E63623"/>
<path d="M146.3 362.5C149.227 362.5 151.6 360.128 151.6 357.2C151.6 354.273 149.227 351.9 146.3 351.9C143.373 351.9 141 354.273 141 357.2C141 360.128 143.373 362.5 146.3 362.5Z" fill="#E63623"/>
<path d="M167.7 362.5C170.627 362.5 173 360.128 173 357.2C173 354.273 170.627 351.9 167.7 351.9C164.773 351.9 162.4 354.273 162.4 357.2C162.4 360.128 164.773 362.5 167.7 362.5Z" fill="#E63623"/>
<path d="M166.9 62.1C167.3 62.1 167.7 62 168 61.9C168.3 61.8 168.5 61.6 168.7 61.4C168.9 61.2 169 60.9 169 60.6C169.1 60.3 169.1 60 169.1 59.7V59.4H171.4V59.7C171.4 61.1 171 62.3 170.3 63C169.5 63.8 168.4 64.2 167 64.2C165.6 64.2 164.5 63.8 163.7 62.9C162.9 62.1 162.5 60.8 162.5 59.2V56.5C162.5 55.7 162.6 55 162.8 54.4C163 53.8 163.3 53.3 163.7 52.8C164.1 52.4 164.6 52.1 165.1 51.8C165.7 51.6 166.3 51.5 167 51.5C167.7 51.5 168.4 51.6 168.9 51.8C169.5 52 169.9 52.3 170.3 52.7C170.7 53.1 171 53.6 171.2 54.1C171.4 54.7 171.5 55.3 171.5 56V56.3H169V56C169 55.7 169 55.4 168.9 55.1C168.8 54.8 168.7 54.5 168.6 54.3C168.4 54.1 168.2 53.9 167.9 53.7C167.6 53.6 167.3 53.5 166.9 53.5C166.5 53.5 166.2 53.6 165.9 53.7C165.6 53.8 165.4 54 165.2 54.3C165 54.5 164.9 54.8 164.8 55.2C164.7 55.5 164.7 55.9 164.7 56.2V59.3C164.7 59.7 164.7 60.1 164.8 60.4C164.9 60.7 165 61 165.2 61.3C165.4 61.5 165.6 61.7 165.9 61.9C166.1 62 166.5 62.1 166.9 62.1Z" fill="white"/>
<path d="M173 56.5C173 54.9 173.4 53.7 174.2 52.8C175 51.9 176.1 51.5 177.5 51.5C178.9 51.5 180 51.9 180.8 52.8C181.6 53.7 182 54.9 182 56.5V59.2C182 60.8 181.6 62.1 180.8 62.9C180 63.7 178.9 64.2 177.5 64.2C176.1 64.2 175 63.8 174.2 62.9C173.4 62.1 173 60.8 173 59.2V56.5ZM177.5 62.1C177.9 62.1 178.3 62 178.5 61.9C178.8 61.8 179 61.6 179.2 61.3C179.4 61.1 179.5 60.8 179.6 60.4C179.7 60.1 179.7 59.7 179.7 59.3V56.3C179.7 55.9 179.7 55.6 179.6 55.2C179.5 54.9 179.4 54.6 179.2 54.3C179 54.1 178.8 53.9 178.5 53.7C178.2 53.6 177.9 53.5 177.5 53.5C177.1 53.5 176.8 53.6 176.5 53.7C176.2 53.8 176 54 175.8 54.3C175.6 54.5 175.5 54.8 175.4 55.2C175.3 55.5 175.3 55.9 175.3 56.3V59.3C175.3 59.7 175.3 60.1 175.4 60.4C175.5 60.7 175.6 61 175.8 61.3C176 61.6 176.2 61.7 176.5 61.9C176.7 62 177.1 62.1 177.5 62.1Z" fill="white"/>
<path d="M183.2 51.7002H187.2L187.9 60.8002V62.6002H188.3V60.8002L189 51.7002H193V63.9002H191V55.8002L191.2 53.0002H190.8L189.9 63.9002H186.5L185.5 53.0002H185L185.2 55.8002V63.9002H183.1V51.7002H183.2Z" fill="white"/>
<path d="M194.7 51.7002H202.8V53.9002H199.9V61.7002H202.8V63.9002H194.7V61.7002H197.6V53.9002H194.7V51.7002Z" fill="white"/>
<path d="M211 62.8002H211.3V51.8002H213.6V64.0002H209.1L207.7 53.0002H207.4V64.0002H205.1V51.7002H209.6L211 62.8002Z" fill="white"/>
<path d="M219.2 57.8002H224.4V64.0002H222.3V62.6002H222C221.9 63.1002 221.6 63.4002 221.2 63.7002C220.8 64.0002 220.2 64.2002 219.4 64.2002C218.8 64.2002 218.3 64.1002 217.8 63.9002C217.3 63.7002 216.9 63.4002 216.5 63.0002C216.1 62.6002 215.9 62.1002 215.6 61.5002C215.4 60.9002 215.3 60.2002 215.3 59.4002V56.5002C215.3 55.7002 215.4 55.0002 215.6 54.4002C215.8 53.8002 216.1 53.3002 216.5 52.9002C216.9 52.5002 217.4 52.2002 217.9 52.0002C218.5 51.8002 219.1 51.7002 219.7 51.7002C220.4 51.7002 221 51.8002 221.6 52.0002C222.1 52.2002 222.6 52.5002 223 52.9002C223.4 53.3002 223.7 53.8002 223.9 54.3002C224.1 54.8002 224.2 55.4002 224.2 56.0002V56.2002H221.9V56.0002C221.9 55.3002 221.7 54.7002 221.3 54.3002C220.9 53.9002 220.4 53.7002 219.7 53.7002C219.1 53.7002 218.5 53.9002 218.1 54.4002C217.7 54.8002 217.5 55.6002 217.5 56.6002V59.2002C217.5 61.1002 218.3 62.0002 219.8 62.0002C220.5 62.0002 221 61.8002 221.4 61.5002C221.8 61.1002 221.9 60.6002 221.9 60.0002H219V57.8002H219.2Z" fill="white"/>
<path d="M236.8 61.7002H237.9V53.9002H236.8V51.7002H242.1C242.7 51.7002 243.2 51.8002 243.6 51.9002C244 52.1002 244.4 52.3002 244.7 52.6002C245 52.9002 245.2 53.2002 245.4 53.6002C245.6 54.0002 245.6 54.4002 245.6 54.9002V55.1002C245.6 55.8002 245.4 56.4002 245 56.8002C244.6 57.2002 244.1 57.5002 243.5 57.7002V58.0002C244.1 58.2002 244.6 58.5002 245 58.9002C245.4 59.3002 245.6 59.9002 245.6 60.6002V60.8002C245.6 61.3002 245.5 61.7002 245.4 62.1002C245.2 62.5002 245 62.8002 244.7 63.1002C244.4 63.4002 244 63.6002 243.6 63.8002C243.2 64.0002 242.6 64.0002 242.1 64.0002H236.8V61.7002ZM240.2 56.7002H241.9C242.4 56.7002 242.8 56.6002 243.1 56.4002C243.4 56.2002 243.6 55.9002 243.6 55.4002V55.3002C243.6 54.8002 243.4 54.5002 243.1 54.3002C242.8 54.1002 242.4 54.0002 241.9 54.0002H240.2V56.7002ZM240.2 61.7002H241.9C242.4 61.7002 242.8 61.6002 243.1 61.4002C243.4 61.2002 243.6 60.8002 243.6 60.4002V60.3002C243.6 59.8002 243.4 59.5002 243.1 59.3002C242.8 59.1002 242.4 59.0002 241.9 59.0002H240.2V61.7002Z" fill="white"/>
<path d="M254 61.3002H249.9L249.3 63.9002H246.9L249.8 51.7002H254.1L257 63.9002H254.6L254 61.3002ZM250.4 59.1002H253.5L252.1 52.9002H251.8L250.4 59.1002Z" fill="white"/>
<path d="M262.6 62.1C263 62.1 263.4 62 263.7 61.9C264 61.8 264.2 61.6 264.4 61.4C264.6 61.2 264.7 60.9 264.7 60.6C264.8 60.3 264.8 60 264.8 59.7V59.4H267.1V59.7C267.1 61.1 266.7 62.3 266 63C265.2 63.8 264.1 64.2 262.7 64.2C261.3 64.2 260.2 63.8 259.4 62.9C258.6 62.1 258.2 60.8 258.2 59.2V56.5C258.2 55.7 258.3 55 258.5 54.4C258.7 53.8 259 53.3 259.4 52.8C259.8 52.4 260.3 52.1 260.8 51.8C261.4 51.6 262 51.5 262.7 51.5C263.4 51.5 264.1 51.6 264.6 51.8C265.2 52 265.6 52.3 266 52.7C266.4 53.1 266.7 53.6 266.9 54.1C267.1 54.7 267.2 55.3 267.2 56V56.3H264.9V56C264.9 55.7 264.9 55.4 264.8 55.1C264.7 54.8 264.6 54.5 264.5 54.3C264.4 54.1 264.1 53.9 263.8 53.7C263.5 53.6 263.2 53.5 262.8 53.5C262.4 53.5 262.1 53.6 261.8 53.7C261.5 53.8 261.3 54 261.1 54.3C260.9 54.5 260.8 54.8 260.7 55.2C260.6 55.5 260.6 55.9 260.6 56.2V59.3C260.6 59.7 260.6 60.1 260.7 60.4C260.8 60.7 260.9 61 261.1 61.3C261.3 61.5 261.5 61.7 261.8 61.9C261.9 62 262.2 62.1 262.6 62.1Z" fill="white"/>
<path d="M271.5 63.9002H269.2V51.7002H271.5V56.7002H272L275.2 51.7002H277.8V51.8002L274 57.6002V58.0002L278 63.8002V63.9002H275.3L272 58.9002H271.5V63.9002Z" fill="white"/>
<path d="M184 72.5996H192.1V74.7996H189.2V82.5996H192.1V84.7996H184V82.5996H186.9V74.7996H184V72.5996Z" fill="white"/>
<path d="M200.4 83.5996H200.7V72.5996H203V84.7996H198.5L197.1 73.7996H196.8V84.7996H194.5V72.5996H199L200.4 83.5996Z" fill="white"/>
<path d="M224.469 82.858V85H216.105V82.654C216.105 82.0307 216.196 81.498 216.377 81.056C216.57 80.614 216.836 80.24 217.176 79.934C217.527 79.628 217.947 79.3787 218.434 79.186C218.921 78.982 219.471 78.812 220.083 78.676C220.536 78.574 220.905 78.4607 221.188 78.336C221.483 78.2 221.715 78.0527 221.885 77.894C222.055 77.724 222.168 77.5427 222.225 77.35C222.293 77.146 222.327 76.9193 222.327 76.67C222.327 76.194 222.151 75.7973 221.8 75.48C221.46 75.1627 220.984 75.004 220.372 75.004C219.726 75.004 219.21 75.2023 218.825 75.599C218.44 75.9843 218.247 76.5227 218.247 77.214V77.962H216.003V77.01C216.003 76.4547 216.099 75.9277 216.292 75.429C216.496 74.919 216.779 74.477 217.142 74.103C217.516 73.7177 217.969 73.4173 218.502 73.202C219.035 72.9753 219.635 72.862 220.304 72.862C221.018 72.862 221.641 72.9697 222.174 73.185C222.707 73.389 223.149 73.661 223.5 74.001C223.863 74.341 224.129 74.7377 224.299 75.191C224.48 75.633 224.571 76.092 224.571 76.568V76.772C224.571 77.7693 224.288 78.5967 223.721 79.254C223.166 79.9113 222.253 80.3873 220.984 80.682C220.451 80.8067 220.009 80.937 219.658 81.073C219.318 81.1977 219.052 81.3393 218.859 81.498C218.666 81.6567 218.53 81.8323 218.451 82.025C218.383 82.2063 218.349 82.416 218.349 82.654V82.858H224.469ZM229.183 79.05C229.183 78.6647 229.325 78.3303 229.608 78.047C229.892 77.7637 230.226 77.622 230.611 77.622C230.997 77.622 231.331 77.7637 231.614 78.047C231.898 78.3303 232.039 78.6647 232.039 79.05C232.039 79.4353 231.898 79.7697 231.614 80.053C231.331 80.3363 230.997 80.478 230.611 80.478C230.226 80.478 229.892 80.3363 229.608 80.053C229.325 79.7697 229.183 79.4353 229.183 79.05ZM226.225 77.724C226.225 76.1827 226.611 74.987 227.381 74.137C228.163 73.287 229.24 72.862 230.611 72.862C231.983 72.862 233.054 73.287 233.824 74.137C234.606 74.987 234.997 76.1827 234.997 77.724V80.376C234.997 81.9627 234.606 83.1697 233.824 83.997C233.054 84.8243 231.983 85.238 230.611 85.238C229.24 85.238 228.163 84.8243 227.381 83.997C226.611 83.1697 226.225 81.9627 226.225 80.376V77.724ZM230.611 83.198C231.019 83.198 231.359 83.1357 231.631 83.011C231.903 82.875 232.124 82.688 232.294 82.45C232.464 82.212 232.583 81.9287 232.651 81.6C232.719 81.2713 232.753 80.9087 232.753 80.512V77.588C232.753 77.214 232.714 76.8627 232.634 76.534C232.555 76.2053 232.43 75.922 232.26 75.684C232.09 75.446 231.869 75.259 231.597 75.123C231.325 74.9757 230.997 74.902 230.611 74.902C230.226 74.902 229.897 74.9757 229.625 75.123C229.353 75.259 229.132 75.446 228.962 75.684C228.792 75.922 228.668 76.2053 228.588 76.534C228.509 76.8627 228.469 77.214 228.469 77.588V80.512C228.469 80.9087 228.503 81.2713 228.571 81.6C228.639 81.9287 228.758 82.212 228.928 82.45C229.098 82.688 229.319 82.875 229.591 83.011C229.863 83.1357 230.203 83.198 230.611 83.198ZM245.287 82.858V85H236.923V82.654C236.923 82.0307 237.014 81.498 237.195 81.056C237.388 80.614 237.654 80.24 237.994 79.934C238.346 79.628 238.765 79.3787 239.252 79.186C239.74 78.982 240.289 78.812 240.901 78.676C241.355 78.574 241.723 78.4607 242.006 78.336C242.301 78.2 242.533 78.0527 242.703 77.894C242.873 77.724 242.987 77.5427 243.043 77.35C243.111 77.146 243.145 76.9193 243.145 76.67C243.145 76.194 242.97 75.7973 242.618 75.48C242.278 75.1627 241.802 75.004 241.19 75.004C240.544 75.004 240.029 75.2023 239.643 75.599C239.258 75.9843 239.065 76.5227 239.065 77.214V77.962H236.821V77.01C236.821 76.4547 236.918 75.9277 237.11 75.429C237.314 74.919 237.598 74.477 237.96 74.103C238.334 73.7177 238.788 73.4173 239.32 73.202C239.853 72.9753 240.454 72.862 241.122 72.862C241.836 72.862 242.46 72.9697 242.992 73.185C243.525 73.389 243.967 73.661 244.318 74.001C244.681 74.341 244.947 74.7377 245.117 75.191C245.299 75.633 245.389 76.092 245.389 76.568V76.772C245.389 77.7693 245.106 78.5967 244.539 79.254C243.984 79.9113 243.072 80.3873 241.802 80.682C241.27 80.8067 240.828 80.937 240.476 81.073C240.136 81.1977 239.87 81.3393 239.677 81.498C239.485 81.6567 239.349 81.8323 239.269 82.025C239.201 82.2063 239.167 82.416 239.167 82.654V82.858H245.287ZM250.274 79.9V76.364L253.232 75.548V75.242H247.316V73.1H255.068V76.84L251.906 77.758V78.064H252.314C252.733 78.064 253.147 78.132 253.555 78.268C253.963 78.3927 254.32 78.591 254.626 78.863C254.943 79.135 255.198 79.475 255.391 79.883C255.583 80.2797 255.68 80.75 255.68 81.294V81.498C255.68 82.0307 255.589 82.5237 255.408 82.977C255.238 83.4303 254.977 83.827 254.626 84.167C254.286 84.4957 253.861 84.7563 253.351 84.949C252.841 85.1417 252.257 85.238 251.6 85.238C250.931 85.238 250.325 85.1303 249.781 84.915C249.237 84.6997 248.772 84.405 248.387 84.031C248.013 83.657 247.724 83.2263 247.52 82.739C247.316 82.2517 247.214 81.736 247.214 81.192V80.478H249.458V81.09C249.458 81.634 249.633 82.1043 249.985 82.501C250.336 82.8977 250.863 83.096 251.566 83.096C252.166 83.096 252.625 82.943 252.943 82.637C253.271 82.331 253.436 81.9287 253.436 81.43C253.436 80.8973 253.26 80.512 252.909 80.274C252.569 80.0247 252.132 79.9 251.6 79.9H250.274Z" fill="white"/>
</g>
<defs>
<clipPath id="clip0_1176_2922">
<rect width="314" height="458" fill="white"/>
</clipPath>
</defs>
</svg>
