<?xml version="1.0" encoding="utf-8"?>
<!-- Generator: Adobe Illustrator 25.4.1, SVG Export Plug-In . SVG Version: 6.00 Build 0)  -->
<svg version="1.1"
	 id="svg380" xmlns:cc="http://creativecommons.org/ns#" xmlns:dc="http://purl.org/dc/elements/1.1/" xmlns:inkscape="http://www.inkscape.org/namespaces/inkscape" xmlns:rdf="http://www.w3.org/1999/02/22-rdf-syntax-ns#" xmlns:sodipodi="http://sodipodi.sourceforge.net/DTD/sodipodi-0.dtd" xmlns:svg="http://www.w3.org/2000/svg"
	 xmlns="http://www.w3.org/2000/svg" xmlns:xlink="http://www.w3.org/1999/xlink" x="0px" y="0px" viewBox="0 0 899 617"
	 style="enable-background:new 0 0 899 617;" xml:space="preserve">
<style type="text/css">
	.st0{fill:#FFFFFF;}
	.st1{fill:#75FA4C;}
	.st2{fill:#0020F5;}
	.st3{fill:#E63623;}
	.st4{fill:#EE2524;}
	.st5{clip-path:url(#SVGID_00000124124301510835169510000008838061555911455626_);}
	.st6{clip-path:url(#SVGID_00000101783583526263869540000002262301424752346034_);}
</style>
<sodipodi:namedview  bordercolor="#666666" borderopacity="1" gridtolerance="10" guidetolerance="10" id="namedview382" inkscape:current-layer="svg380" inkscape:cx="643.55476" inkscape:cy="444.48929" inkscape:pageopacity="0" inkscape:pageshadow="2" inkscape:window-height="2032" inkscape:window-maximized="1" inkscape:window-width="3840" inkscape:window-x="0" inkscape:window-y="54" inkscape:zoom="4" objecttolerance="10" pagecolor="#000000" showgrid="true">
	<inkscape:grid  id="grid1191" type="xygrid"></inkscape:grid>
</sodipodi:namedview>
<circle id="circle2" class="st0" cx="33.5" cy="212" r="32"/>
<circle id="circle4" class="st1" cx="33.5" cy="298" r="32"/>
<circle id="circle6" class="st1" cx="207.5" cy="298" r="32"/>
<circle id="circle6_3_" class="st1" cx="584.5" cy="122" r="32"/>
<circle id="circle8" class="st0" cx="33.5" cy="582" r="32"/>
<circle id="circle10" class="st2" cx="33.5" cy="483" r="32"/>
<circle id="circle12" class="st3" cx="768.5" cy="210" r="32"/>
<circle id="circle14" class="st2" cx="687.5" cy="32" r="32"/>
<circle id="circle16" class="st0" cx="490.5" cy="122" r="32"/>
<path id="path18" class="st0" d="M129.6,142.2h-20.2l-2.9,12.8H94.8L109,95.5h21l14.2,59.5h-11.7L129.6,142.2z M111.8,131.5h15.4
	l-6.9-30.4h-1.5L111.8,131.5z"/>
<path id="path20" class="st0" d="M100.4,180.5h11.2v48.8h27V240h-38.2C100.4,240,100.4,180.5,100.4,180.5z"/>
<path id="path22" class="st0" d="M103.4,268.5h11.2v48.8h27V328h-38.3L103.4,268.5L103.4,268.5z"/>
<path id="path24" class="st0" d="M678.6,297.9h25.5V328h-10.2v-6.6h-1.5c-0.7,2.2-2,4.1-3.9,5.6s-4.8,2.2-8.7,2.2
	c-2.7,0-5.3-0.5-7.7-1.5s-4.4-2.5-6.2-4.5s-3.1-4.5-4.2-7.5c-1-3-1.5-6.5-1.5-10.5v-13.9c0-3.9,0.5-7.3,1.6-10.2
	c1.1-3,2.7-5.5,4.6-7.6c2-2,4.3-3.6,7.1-4.6c2.7-1.1,5.7-1.6,9-1.6c3.4,0,6.4,0.6,9.1,1.7c2.7,1.1,4.9,2.6,6.8,4.6
	c1.9,1.9,3.3,4.2,4.2,6.9c1,2.6,1.4,5.4,1.4,8.4v1h-11.2v-1c0-3.6-0.9-6.3-2.8-8.1c-1.8-1.9-4.4-2.8-7.7-2.8c-3.2,0-5.8,1.1-7.8,3.2
	s-3.1,5.7-3.1,10.9v12.6c0,9.2,3.7,13.8,11.2,13.8c3.3,0,5.9-0.9,7.6-2.6c1.8-1.8,2.6-4.2,2.6-7.2h-14.3v-10.8H678.6z"/>
<path id="path26" class="st0" d="M761.3,298.2c0-1.9,0.7-3.6,2.1-5c1.4-1.4,3.1-2.1,5-2.1s3.6,0.7,5,2.1s2.1,3.1,2.1,5
	s-0.7,3.6-2.1,5c-1.4,1.4-3.1,2.1-5,2.1s-3.6-0.7-5-2.1C762.1,301.8,761.3,300.2,761.3,298.2z M746.6,291.6c0-7.7,1.9-13.7,5.8-17.9
	c3.9-4.2,9.3-6.4,16.2-6.4s12.2,2.1,16.1,6.4c3.9,4.2,5.9,10.2,5.9,17.9v13.3c0,7.9-2,14-5.9,18.1s-9.2,6.2-16.1,6.2
	s-12.2-2.1-16.2-6.2c-3.9-4.1-5.8-10.2-5.8-18.1V291.6z M768.5,319c2,0,3.7-0.3,5.1-0.9c1.4-0.7,2.5-1.6,3.3-2.8
	c0.9-1.2,1.4-2.6,1.8-4.2c0.3-1.6,0.5-3.5,0.5-5.4v-14.6c0-1.9-0.2-3.6-0.6-5.3c-0.4-1.6-1-3.1-1.9-4.2c-0.8-1.2-2-2.1-3.3-2.8
	c-1.4-0.7-3-1.1-4.9-1.1s-3.6,0.4-4.9,1.1c-1.4,0.7-2.5,1.6-3.3,2.8c-0.8,1.2-1.5,2.6-1.9,4.2s-0.6,3.4-0.6,5.3v14.6
	c0,2,0.2,3.8,0.5,5.4s0.9,3.1,1.8,4.2c0.8,1.2,2,2.1,3.3,2.8C764.7,318.7,766.4,319,768.5,319z"/>
<path id="path28" class="st0" d="M868.1,267.5V309h-11.2v-41.5H868.1z M870.6,320.1c0,1.1-0.2,2.2-0.7,3.2c-0.4,1-1,1.8-1.7,2.5
	s-1.6,1.2-2.6,1.6c-1,0.5-2,0.7-3.1,0.7s-2.2-0.2-3.1-0.7c-1-0.4-1.8-0.9-2.5-1.6s-1.3-1.6-1.8-2.5c-0.4-1-0.6-2.1-0.6-3.2
	s0.2-2.2,0.6-3.1c0.5-1,1-1.9,1.8-2.5c0.7-0.7,1.6-1.3,2.5-1.7c1-0.5,2-0.7,3.1-0.7s2.1,0.2,3.1,0.7c1,0.4,1.9,1,2.6,1.7
	c0.7,0.7,1.3,1.5,1.7,2.5C870.3,317.9,870.6,319,870.6,320.1z"/>
<path id="path30" class="st0" d="M129.7,378.7c0-2.4-0.9-4.4-2.8-6.2c-1.8-1.8-4.4-2.6-7.7-2.6c-2.8,0-5.1,0.6-6.7,1.8
	c-1.6,1.1-2.5,2.7-2.5,4.7c0,1,0.2,2,0.6,2.8s1.1,1.5,2,2.2c1,0.6,2.3,1.2,3.9,1.7s3.7,1,6.2,1.4c6.2,1.1,11,3,14.3,5.7
	s4.9,6.6,4.9,11.8v1c0,2.8-0.5,5.3-1.5,7.6c-1,2.2-2.4,4.1-4.2,5.7c-1.9,1.6-4.1,2.8-6.8,3.7c-2.7,0.9-5.7,1.3-9,1.3
	c-3.9,0-7.4-0.5-10.4-1.6c-2.9-1.1-5.4-2.7-7.4-4.6c-2-2-3.5-4.3-4.5-6.9c-1-2.7-1.5-5.6-1.5-8.7V397h11.2v2c0,3.6,1,6.4,3.1,8.6
	c2.1,2.1,5.3,3.1,9.7,3.1c3.4,0,5.9-0.7,7.6-2.2c1.6-1.5,2.5-3.2,2.5-5.3c0-1-0.2-1.9-0.5-2.7c-0.3-0.9-0.9-1.7-1.8-2.4
	c-0.9-0.7-2-1.4-3.5-2s-3.3-1-5.6-1.4c-3-0.5-5.8-1.2-8.2-2c-2.5-0.9-4.7-2-6.5-3.3c-1.8-1.4-3.2-3.1-4.2-5.1s-1.5-4.5-1.5-7.5v-0.5
	c0-2.4,0.5-4.7,1.4-6.7c1-2.1,2.4-3.9,4.2-5.4c1.8-1.5,4-2.7,6.5-3.6s5.4-1.3,8.5-1.3c3.5,0,6.6,0.5,9.4,1.5c2.7,1,5,2.3,6.8,4
	c1.9,1.7,3.3,3.7,4.2,5.9c1,2.2,1.4,4.5,1.4,7v3.1h-11.2v-2.1H129.7z"/>
<path id="path32" class="st0" d="M201.9,399.1h-2.6l-17.1-38.6h12.2l12.2,28.4h1.5l12.2-28.4h12.2l-17.1,38.6h-2.6V420h-11.2v-20.9
	H201.9z"/>
<path id="path34" class="st0" d="M308.7,378.7c0-2.4-0.9-4.4-2.8-6.2c-1.8-1.8-4.4-2.6-7.7-2.6c-2.8,0-5.1,0.6-6.7,1.8
	c-1.6,1.1-2.5,2.7-2.5,4.7c0,1,0.2,2,0.6,2.8s1.1,1.5,2,2.2c1,0.6,2.3,1.2,3.9,1.7s3.7,1,6.2,1.4c6.2,1.1,11,3,14.3,5.7
	s4.9,6.6,4.9,11.8v1c0,2.8-0.5,5.3-1.5,7.6c-1,2.2-2.4,4.1-4.2,5.7c-1.9,1.6-4.1,2.8-6.8,3.7c-2.7,0.9-5.7,1.3-9,1.3
	c-3.9,0-7.4-0.5-10.4-1.6c-2.9-1.1-5.4-2.7-7.4-4.6c-2-2-3.5-4.3-4.5-6.9c-1-2.7-1.5-5.6-1.5-8.7V397h11.2v2c0,3.6,1,6.4,3.1,8.6
	c2.1,2.1,5.3,3.1,9.7,3.1c3.4,0,5.9-0.7,7.6-2.2s2.5-3.2,2.5-5.3c0-1-0.2-1.9-0.5-2.7c-0.3-0.9-0.9-1.7-1.8-2.4
	c-0.9-0.7-2-1.4-3.5-2s-3.3-1-5.6-1.4c-3-0.5-5.8-1.2-8.2-2c-2.5-0.9-4.7-2-6.5-3.3c-1.8-1.4-3.2-3.1-4.2-5.1s-1.5-4.5-1.5-7.5v-0.5
	c0-2.4,0.5-4.7,1.4-6.7c1-2.1,2.4-3.9,4.2-5.4c1.8-1.5,4-2.7,6.5-3.6s5.4-1.3,8.5-1.3c3.5,0,6.6,0.5,9.4,1.5c2.7,1,5,2.3,6.8,4
	c1.9,1.7,3.3,3.7,4.2,5.9c1,2.2,1.4,4.5,1.4,7v3.1h-11.2v-2.1H308.7z"/>
<path id="path36" class="st0" d="M374.1,360.5h42.8v10.7h-15.8V420h-11.2v-48.8h-15.8V360.5z"/>
<path id="path38" class="st0" d="M474.4,360.5H512v10.7h-26.3v13.6H511v10.7h-25.3v13.8H513V420h-38.6V360.5z"/>
<path id="path40" class="st0" d="M560.3,360.5H580l3.4,44.7v8.7h2v-8.7l3.4-44.7h19.7V420h-10.2v-39.8l1-13.6h-2L593,420h-16.8
	l-4.6-53.4h-2l1,13.6V420h-10.2v-59.5H560.3z"/>
<path id="path42" class="st0" d="M692.7,378.7c0-2.4-0.9-4.4-2.8-6.2c-1.8-1.8-4.4-2.6-7.7-2.6c-2.8,0-5.1,0.6-6.7,1.8
	c-1.6,1.1-2.5,2.7-2.5,4.7c0,1,0.2,2,0.6,2.8c0.4,0.8,1.1,1.5,2,2.2c1,0.6,2.3,1.2,3.9,1.7c1.6,0.5,3.7,1,6.2,1.4
	c6.2,1.1,11,3,14.3,5.7s4.9,6.6,4.9,11.8v1c0,2.8-0.5,5.3-1.5,7.6c-1,2.2-2.4,4.1-4.2,5.7c-1.9,1.6-4.1,2.8-6.8,3.7
	c-2.7,0.9-5.7,1.3-9,1.3c-3.9,0-7.4-0.5-10.4-1.6c-2.9-1.1-5.4-2.7-7.4-4.6c-2-2-3.5-4.3-4.5-6.9c-1-2.7-1.5-5.6-1.5-8.7V397h11.2v2
	c0,3.6,1,6.4,3.1,8.6c2.1,2.1,5.3,3.1,9.7,3.1c3.4,0,5.9-0.7,7.6-2.2s2.5-3.2,2.5-5.3c0-1-0.2-1.9-0.5-2.7c-0.3-0.9-0.9-1.7-1.8-2.4
	c-0.8-0.7-2-1.4-3.5-2s-3.3-1-5.6-1.4c-3-0.5-5.8-1.2-8.2-2c-2.5-0.9-4.7-2-6.5-3.3c-1.8-1.4-3.2-3.1-4.2-5.1s-1.5-4.5-1.5-7.5v-0.5
	c0-2.4,0.5-4.7,1.4-6.7c1-2.1,2.4-3.9,4.2-5.4s4-2.7,6.5-3.6c2.6-0.9,5.4-1.3,8.5-1.3c3.5,0,6.6,0.5,9.4,1.5c2.7,1,5,2.3,6.8,4
	c1.9,1.7,3.3,3.7,4.2,5.9c1,2.2,1.4,4.5,1.4,7v3.1h-11.2v-2.1H692.7z"/>
<path id="path44" class="st4" d="M243.5,481c0,0.8-0.7,1.4-1.4,1.4h-11.8c-0.8,0-1.4-0.7-1.4-1.4c0-0.8,0.7-1.4,1.4-1.4h11.8
	C242.9,479.6,243.5,480.2,243.5,481z"/>
<path id="path46" class="st4" d="M188.1,481c0,0.8-0.7,1.4-1.4,1.4h-11.9c-0.8,0-1.4-0.7-1.4-1.4c0-0.8,0.7-1.4,1.4-1.4h11.8
	C187.5,479.6,188.1,480.2,188.1,481z"/>
<path id="path48" class="st4" d="M209.9,502.8v11.8c0,0.8-0.7,1.3-1.4,1.3c-0.8,0-1.4-0.7-1.4-1.3v-11.8c0-0.8,0.7-1.4,1.4-1.4
	C209.3,501.4,209.9,502,209.9,502.8z"/>
<path id="path50" class="st4" d="M209.9,447.4v11.8c0,0.8-0.7,1.4-1.4,1.4c-0.8,0-1.4-0.7-1.4-1.4v-11.8c0-0.8,0.7-1.4,1.4-1.4
	C209.3,446,209.9,446.7,209.9,447.4z"/>
<path id="path52" class="st4" d="M222.2,512.3c0,0.6-0.3,1.1-0.9,1.4c-0.7,0.3-1.6-0.1-1.8-0.8l-4.4-11c-0.3-0.7,0.1-1.6,0.8-1.8
	c0.7-0.3,1.6,0.1,1.8,0.8l4.4,11C222.2,511.9,222.2,512.1,222.2,512.3z"/>
<path id="path54" class="st4" d="M201.9,460.7c0,0.6-0.3,1.1-0.9,1.3c-0.7,0.3-1.6-0.1-1.8-0.8l-4.3-11c-0.3-0.7,0.1-1.6,0.8-1.8
	c0.7-0.2,1.6,0.1,1.8,0.8l4.4,11C201.9,460.4,201.9,460.6,201.9,460.7z"/>
<path id="path56" class="st4" d="M240.6,494.7c0,0.2,0,0.3-0.1,0.6c-0.3,0.7-1.1,1-1.8,0.7l-10.8-4.8c-0.7-0.3-1-1.1-0.7-1.8
	c0.3-0.7,1.1-1,1.8-0.7l10.8,4.8C240.2,493.7,240.6,494.3,240.6,494.7z"/>
<path id="path58" class="st4" d="M190,472.1c0,0.2,0,0.3-0.1,0.6c-0.3,0.7-1.1,1-1.8,0.7l-10.9-4.8c-0.7-0.3-1-1.1-0.7-1.8
	c0.3-0.7,1.1-1,1.8-0.7l10.8,4.8C189.7,471.1,190,471.5,190,472.1z"/>
<path id="path60" class="st4" d="M232.9,505.4c0,0.3-0.1,0.8-0.5,1c-0.6,0.6-1.5,0.5-2-0.1l-8-8.6c-0.6-0.6-0.6-1.5,0-1.9
	c0.6-0.6,1.5-0.5,2,0l8.1,8.7C232.8,504.7,232.9,505.1,232.9,505.4z"/>
<path id="path62" class="st4" d="M195,465.1c0,0.3-0.1,0.8-0.4,1c-0.6,0.6-1.5,0.5-2-0.1l-8.1-8.7c-0.6-0.5-0.4-1.4,0.1-1.8
	c0.6-0.6,1.3-0.6,1.9,0l8.1,8.7C194.9,464.5,195,464.8,195,465.1z"/>
<path id="path64" class="st4" d="M202.1,501.4c0,0.1,0,0.3-0.1,0.5l-4.3,11c-0.2,0.7-1.1,1.1-1.8,0.8c-0.7-0.2-1.1-1.1-0.8-1.8
	l4.3-11c0.2-0.7,1.1-1.1,1.8-0.8C201.7,500.2,202.1,500.8,202.1,501.4z"/>
<path id="path66" class="st4" d="M221.9,449.6c0,0.1,0,0.3-0.1,0.4l-4.3,11c-0.2,0.7-1.1,1.1-1.8,0.8c-0.7-0.2-1.1-1.1-0.8-1.8
	l4.3-11c0.2-0.7,1.1-1.1,1.8-0.8C221.6,448.5,221.9,449,221.9,449.6z"/>
<path id="path68" class="st4" d="M194.4,496.4c0,0.3-0.1,0.7-0.5,1l-8.4,8.3c-0.6,0.6-1.5,0.6-2,0c-0.6-0.6-0.6-1.5,0-2l8.3-8.3
	c0.6-0.6,1.5-0.6,2,0C194.3,495.6,194.4,496.1,194.4,496.4z"/>
<path id="path70" class="st4" d="M233.7,457.3c0,0.3-0.1,0.7-0.4,1l-8.4,8.3c-0.6,0.6-1.5,0.6-2,0c-0.6-0.6-0.6-1.5,0-2l8.4-8.3
	c0.6-0.6,1.5-0.6,2,0C233.6,456.6,233.7,456.9,233.7,457.3z"/>
<path id="path72" class="st4" d="M189.8,489.3c0,0.6-0.3,1-0.9,1.2L178,495c-0.7,0.3-1.6,0-1.8-0.8c-0.3-0.7,0-1.6,0.8-1.8l10.9-4.5
	c0.7-0.3,1.6,0,1.8,0.8C189.7,489,189.8,489.1,189.8,489.3z"/>
<path id="path74" class="st4" d="M241,468.2c0,0.6-0.3,1-0.9,1.2l-10.9,4.5c-0.7,0.3-1.6,0-1.8-0.8c-0.3-0.7,0-1.6,0.8-1.8l10.9-4.5
	c0.7-0.3,1.6,0,1.8,0.8C240.9,467.8,241,468.1,241,468.2z"/>
<path id="path76" class="st1" d="M898.5,211c0,0.8-0.7,1.4-1.3,1.4h-11.8c-0.8,0-1.4-0.7-1.4-1.4c0-0.8,0.7-1.4,1.4-1.4h11.8
	C897.9,209.6,898.5,210.2,898.5,211z"/>
<path id="path78" class="st1" d="M843.1,211c0,0.8-0.7,1.4-1.3,1.4h-11.9c-0.8,0-1.3-0.7-1.3-1.4c0-0.8,0.7-1.4,1.3-1.4h11.8
	C842.5,209.6,843.1,210.2,843.1,211z"/>
<path id="path80" class="st1" d="M864.8,232.8v11.8c0,0.8-0.7,1.4-1.3,1.4c-0.8,0-1.3-0.7-1.3-1.4v-11.8c0-0.8,0.7-1.4,1.3-1.4
	C864.3,231.4,864.8,232,864.8,232.8z"/>
<path id="path82" class="st1" d="M864.8,177.4v11.8c0,0.8-0.7,1.4-1.3,1.4c-0.8,0-1.3-0.7-1.3-1.4v-11.8c0-0.8,0.7-1.4,1.3-1.4
	C864.3,176,864.8,176.7,864.8,177.4z"/>
<path id="path84" class="st1" d="M877.2,242.3c0,0.6-0.3,1.1-0.9,1.4c-0.7,0.3-1.6-0.1-1.8-0.8l-4.4-11c-0.3-0.7,0.1-1.6,0.8-1.8
	c0.7-0.3,1.6,0.1,1.8,0.8l4.4,11C877.2,241.9,877.2,242.1,877.2,242.3z"/>
<path id="path86" class="st1" d="M856.9,190.7c0,0.6-0.3,1.1-0.9,1.4c-0.7,0.3-1.6-0.1-1.8-0.8l-4.3-11c-0.3-0.7,0.1-1.6,0.8-1.8
	s1.6,0.1,1.8,0.8l4.4,11C856.9,190.4,856.9,190.6,856.9,190.7z"/>
<path id="path88" class="st1" d="M895.6,224.7c0,0.2,0,0.3-0.1,0.6c-0.3,0.7-1.1,1-1.8,0.7l-10.8-4.8c-0.7-0.3-1-1.1-0.7-1.8
	s1.1-1,1.8-0.7l10.8,4.8C895.2,223.7,895.6,224.3,895.6,224.7z"/>
<path id="path90" class="st1" d="M845,202.1c0,0.2,0,0.3-0.1,0.6c-0.3,0.7-1.1,1-1.8,0.7l-10.9-4.8c-0.7-0.3-1-1.1-0.7-1.8
	s1.1-1,1.8-0.7l10.8,4.8C844.7,201.1,845,201.5,845,202.1z"/>
<path id="path92" class="st1" d="M887.9,235.4c0,0.3-0.1,0.8-0.5,1c-0.6,0.6-1.5,0.4-2-0.1l-8-8.6c-0.6-0.6-0.6-1.5,0-1.9
	c0.6-0.6,1.5-0.4,2,0l8.1,8.7C887.8,234.7,887.9,235.1,887.9,235.4z"/>
<path id="path94" class="st1" d="M850,195.1c0,0.3-0.1,0.8-0.5,1c-0.6,0.6-1.5,0.4-2-0.1l-8.1-8.7c-0.6-0.5-0.5-1.4,0.1-1.8
	c0.6-0.6,1.4-0.6,1.9,0l8.1,8.7C849.9,194.5,850,194.8,850,195.1z"/>
<path id="path96" class="st1" d="M857.1,231.4c0,0.1,0,0.3-0.1,0.5l-4.3,11c-0.2,0.7-1.1,1.1-1.8,0.8c-0.7-0.2-1.1-1.1-0.8-1.8
	l4.3-11c0.2-0.7,1.1-1.1,1.8-0.8C856.7,230.2,857.1,230.8,857.1,231.4z"/>
<path id="path98" class="st1" d="M876.9,179.6c0,0.1,0,0.3-0.1,0.4l-4.3,11c-0.2,0.7-1.1,1.1-1.8,0.8c-0.7-0.2-1.1-1.1-0.8-1.8
	l4.3-11c0.2-0.7,1.1-1.1,1.8-0.8C876.6,178.5,876.9,179,876.9,179.6z"/>
<path id="path100" class="st1" d="M849.4,226.4c0,0.3-0.1,0.7-0.5,1l-8.4,8.3c-0.6,0.6-1.5,0.6-2,0s-0.6-1.5,0-2l8.3-8.3
	c0.6-0.6,1.5-0.6,2,0C849.3,225.6,849.4,226.1,849.4,226.4z"/>
<path id="path102" class="st1" d="M888.7,187.3c0,0.3-0.1,0.7-0.5,1l-8.4,8.3c-0.6,0.6-1.5,0.6-2,0c-0.6-0.6-0.6-1.5,0-2l8.4-8.3
	c0.6-0.6,1.5-0.6,2,0C888.6,186.6,888.7,186.9,888.7,187.3z"/>
<path id="path104" class="st1" d="M844.8,219.3c0,0.6-0.3,1-0.9,1.2L833,225c-0.7,0.3-1.6,0-1.8-0.8c-0.3-0.7,0-1.6,0.8-1.8
	l10.9-4.5c0.7-0.3,1.6,0,1.8,0.8C844.7,219,844.8,219.1,844.8,219.3z"/>
<path id="path106" class="st1" d="M896,198.2c0,0.6-0.3,1-0.9,1.2l-10.9,4.5c-0.7,0.3-1.6,0-1.8-0.8c-0.3-0.7,0-1.6,0.8-1.8
	l10.9-4.5c0.7-0.3,1.6,0,1.8,0.8C895.9,197.8,896,198.1,896,198.2z"/>
<circle id="circle108" class="st3" cx="11.5" cy="371" r="11"/>
<circle id="circle110" class="st3" cx="55.5" cy="371" r="11"/>
<circle id="circle112" class="st3" cx="11.5" cy="410" r="11"/>
<circle id="circle114" class="st3" cx="55.5" cy="410" r="11"/>
<circle id="circle116" class="st3" cx="660.5" cy="458" r="11"/>
<circle id="circle118" class="st3" cx="704.5" cy="458" r="11"/>
<circle id="circle120" class="st3" cx="660.5" cy="497" r="11"/>
<circle id="circle122" class="st3" cx="704.5" cy="497" r="11"/>
<circle id="circle124" class="st3" cx="186.5" cy="11" r="11"/>
<circle id="circle126" class="st3" cx="230.5" cy="11" r="11"/>
<circle id="circle128" class="st3" cx="186.5" cy="50" r="11"/>
<circle id="circle130" class="st3" cx="230.5" cy="50" r="11"/>
<path id="path132" class="st3" d="M1.5,32c0-17.7,14.3-32,32-32s32,14.3,32,32v94c0,17.7-14.3,32-32,32s-32-14.3-32-32V32z"/>
<circle id="circle134" class="st2" cx="33.5" cy="32" r="32"/>
<circle id="circle136" class="st0" cx="33.5" cy="126" r="32"/>
<circle id="circle138" cx="33.5" cy="126" r="10"/>
<path id="path140" class="st3" d="M553.5,211c0-17.7,14.3-32,32-32s32,14.3,32,32v94c0,17.7-14.3,32-32,32s-32-14.3-32-32V211z"/>
<circle id="circle142" class="st2" cx="585.5" cy="211" r="32"/>
<circle id="circle144" class="st0" cx="585.5" cy="305" r="32"/>
<circle id="circle146" cx="585.5" cy="305" r="10"/>
<path id="path148" class="st0" d="M301.5,180c17.7,0,32,14.3,32,32s-14.3,32-32,32h-94c-17.7,0-32-14.3-32-32s14.3-32,32-32H301.5z"
	/>
<circle id="circle150" class="st1" cx="301.5" cy="212" r="32"/>
<circle id="circle152" class="st3" cx="207.5" cy="212" r="32"/>
<path id="path154" class="st3" d="M396.5,64c-17.7,0-32-14.3-32-32s14.3-32,32-32h94c17.7,0,32,14.3,32,32s-14.3,32-32,32H396.5z"/>
<circle id="circle156" class="st2" cx="396.5" cy="32" r="32"/>
<circle id="circle158" class="st1" cx="490.5" cy="32" r="32"/>
<circle id="circle160" cx="490.5" cy="32" r="10"/>
<path id="path162" class="st3" d="M301.5,330c-17.7,0-32-14.3-32-32s14.3-32,32-32h94c17.7,0,32,14.3,32,32s-14.3,32-32,32H301.5z"
	/>
<circle id="circle164" class="st2" cx="301.5" cy="298" r="32"/>
<circle id="circle166" class="st1" cx="395.5" cy="298" r="32"/>
<path id="path168" class="st0" d="M301.5,154c-17.7,0-32-14.3-32-32s14.3-32,32-32h94c17.7,0,32,14.3,32,32s-14.3,32-32,32H301.5z"
	/>
<circle id="circle170" class="st2" cx="301.5" cy="122" r="32"/>
<circle id="circle172" class="st3" cx="395.5" cy="122" r="32"/>
<circle id="circle174" cx="395.5" cy="122" r="10"/>
<path id="path176" class="st0" d="M777.5,550c17.7,0,32,14.3,32,32s-14.3,32-32,32h-94c-17.7,0-32-14.3-32-32s14.3-32,32-32H777.5z"
	/>
<circle id="circle178" class="st3" cx="683.5" cy="582" r="32"/>
<circle id="circle180" cx="683.5" cy="582" r="10"/>
<path id="path182" class="st2" d="M862.5,446c17.7,0,32,14.3,32,32s-14.3,32-32,32h-94c-17.7,0-32-14.3-32-32s14.3-32,32-32H862.5z"
	/>
<circle id="circle184" class="st0" cx="768.5" cy="478" r="32"/>
<circle id="circle186" cx="768.5" cy="478" r="10"/>
<path id="path188" class="st0" d="M588.5,446c17.7,0,32,14.3,32,32s-14.3,32-32,32h-94c-17.7,0-32-14.3-32-32s14.3-32,32-32H588.5z"
	/>
<circle id="circle190" class="st3" cx="494.5" cy="478" r="32"/>
<circle id="circle192" cx="494.5" cy="478" r="10"/>
<circle id="circle194" class="st0" cx="119.5" cy="32" r="32"/>
<circle id="circle196" cx="119.5" cy="32" r="10"/>
<circle id="circle198" class="st1" cx="208.5" cy="122" r="32"/>
<circle id="circle200" cx="208.5" cy="122" r="10"/>
<circle id="circle202" class="st1" cx="768.5" cy="388" r="32"/>
<circle id="circle204" cx="768.5" cy="388" r="10"/>
<circle id="circle206" class="st3" cx="584.5" cy="32" r="32"/>
<circle id="circle208" cx="584.5" cy="32" r="10"/>
<circle id="circle210" class="st3" cx="299.5" cy="479" r="32"/>
<circle id="circle212" cx="299.5" cy="479" r="10"/>
<rect id="rect214" x="366.5" y="451" class="st0" width="12" height="12"/>
<rect id="rect216" x="390.5" y="451" class="st0" width="12" height="12"/>
<rect id="rect218" x="414.5" y="451" class="st0" width="12" height="12"/>
<rect id="rect220" x="366.5" y="475" class="st0" width="12" height="12"/>
<rect id="rect222" x="390.5" y="475" class="st0" width="12" height="12"/>
<rect id="rect224" x="414.5" y="475" class="st0" width="12" height="12"/>
<rect id="rect226" x="366.5" y="499" class="st0" width="12" height="12"/>
<rect id="rect228" x="390.5" y="499" class="st0" width="12" height="12"/>
<rect id="rect230" x="414.5" y="499" class="st0" width="12" height="12"/>
<rect id="rect232" x="652.5" y="181" class="st2" width="12" height="12"/>
<rect id="rect234" x="676.5" y="181" class="st2" width="12" height="12"/>
<rect id="rect236" x="700.5" y="181" class="st2" width="12" height="12"/>
<rect id="rect238" x="652.5" y="205" class="st2" width="12" height="12"/>
<rect id="rect240" x="676.5" y="205" class="st2" width="12" height="12"/>
<rect id="rect242" x="700.5" y="205" class="st2" width="12" height="12"/>
<rect id="rect244" x="652.5" y="229" class="st2" width="12" height="12"/>
<rect id="rect246" x="676.5" y="229" class="st2" width="12" height="12"/>
<rect id="rect248" x="700.5" y="229" class="st2" width="12" height="12"/>
<rect id="rect250" x="272.5" class="st0" width="8" height="64"/>
<rect id="rect252" x="295.5" class="st0" width="8" height="64"/>
<rect id="rect254" x="320.5" class="st0" width="8" height="64"/>
<rect id="rect256" x="267.5" y="22" class="st3" width="18" height="6"/>
<rect id="rect258" x="290.5" y="43" class="st2" width="18" height="6"/>
<rect id="rect260" x="315.5" y="8" class="st1" width="18" height="6"/>
<rect id="rect262" x="834.5" y="356" class="st0" width="8" height="64"/>
<rect id="rect264" x="857.5" y="356" class="st0" width="8" height="64"/>
<rect id="rect266" x="882.5" y="356" class="st0" width="8" height="64"/>
<rect id="rect268" x="829.5" y="378" class="st3" width="18" height="6"/>
<rect id="rect270" x="852.5" y="399" class="st2" width="18" height="6"/>
<rect id="rect272" x="877.5" y="364" class="st1" width="18" height="6"/>
<g>
	<g>
		<g>
			<defs>
				<rect id="SVGID_1_" x="744.5" y="1" width="150" height="62"/>
			</defs>
			<clipPath id="SVGID_00000159460427498301068770000008140429233914510236_">
				<use xlink:href="#SVGID_1_"  style="overflow:visible;"/>
			</clipPath>
			<g id="g276" style="clip-path:url(#SVGID_00000159460427498301068770000008140429233914510236_);">
				<path id="path274" class="st1" d="M750,41.2c3,0,5.5-2.5,5.5-5.7l0.3,1.4L808.4,23c0.4,2.8,2.6,4.8,5.4,4.8c1,0,2-0.3,2.9-0.8
					l17.8,28.1c-0.2,0.7-0.4,1.4-0.4,2.2c0,3.1,2.4,5.7,5.5,5.7c3,0,5.5-2.5,5.5-5.7c0-1.8-0.9-3.4-2.2-4.5l16-39l7.4,25.4
					c-1.5,1-2.6,2.8-2.6,4.8c0,3.2,2.4,5.7,5.5,5.7c3,0,5.5-2.5,5.5-5.7c0-1.1-0.3-2.2-0.9-3l12.7-13.9c0.8,0.5,1.7,0.8,2.6,0.8
					c3,0,5.5-2.5,5.5-5.7c0-3.1-2.4-5.7-5.5-5.7c-3,0-5.5,2.5-5.5,5.7c0,1.1,0.3,2.2,0.9,3l-12.7,13.9c-0.8-0.5-1.7-0.7-2.6-0.7
					c-0.1,0-0.1,0-0.2,0l-8-26.7c1.5-1,2.6-2.8,2.6-4.8c0-3.1-2.4-5.7-5.5-5.7s-5.5,2.5-5.5,5.7c0,2.5,1.7,4.7,3.9,5.4l-16.3,39.4
					c-0.2,0-0.6-0.1-0.8-0.1c-1.2,0-2.4,0.5-3.3,1.1l-17.6-27.9c0.4-0.8,0.7-1.7,0.7-2.8c0-3.1-2.4-5.7-5.5-5.7
					c-2.3,0-4.3,1.5-5.1,3.7l-53.4,14.1c-0.7-2.5-2.8-4.4-5.3-4.4c-3.1,0-5.5,2.5-5.5,5.7C744.5,38.7,746.9,41.2,750,41.2z"/>
			</g>
		</g>
	</g>
</g>
<g>
	<g>
		<g>
			<defs>
				<rect id="SVGID_00000127011227640983289210000003325021900841095860_" x="464.5" y="179" width="62" height="150"/>
			</defs>
			<clipPath id="SVGID_00000021804512006556639500000008063592918597829550_">
				<use xlink:href="#SVGID_00000127011227640983289210000003325021900841095860_"  style="overflow:visible;"/>
			</clipPath>
			<g id="g280" style="clip-path:url(#SVGID_00000021804512006556639500000008063592918597829550_);">
				<path id="path278" class="st1" d="M504.7,323.5c0-3-2.5-5.5-5.7-5.5l1.4-0.3l-13.8-52.6c2.8-0.4,4.8-2.6,4.8-5.4
					c0-1-0.3-2-0.8-2.9l28.1-17.8c0.7,0.2,1.4,0.4,2.2,0.4c3.1,0,5.7-2.4,5.7-5.5c0-3-2.5-5.5-5.7-5.5c-1.8,0-3.4,0.9-4.5,2.2
					l-39-16l25.4-7.4c1,1.5,2.8,2.6,4.8,2.6c3.2,0,5.7-2.4,5.7-5.5c0-3-2.5-5.5-5.7-5.5c-1.1,0-2.2,0.3-3,0.9L490.7,187
					c0.5-0.8,0.8-1.7,0.8-2.6c0-3-2.5-5.5-5.7-5.5c-3.1,0-5.7,2.4-5.7,5.5c0,3,2.5,5.5,5.7,5.5c1.1,0,2.2-0.3,3-0.9l13.9,12.7
					c-0.5,0.8-0.7,1.6-0.7,2.6c0,0.1,0,0.1,0,0.2l-26.8,7.8c-1-1.5-2.8-2.6-4.8-2.6c-3.1,0-5.7,2.4-5.7,5.5s2.5,5.5,5.7,5.5
					c2.5,0,4.7-1.7,5.4-3.9l39.4,16.3c0,0.2-0.1,0.6-0.1,0.8c0,1.2,0.5,2.4,1.1,3.3l-27.9,17.6c-0.8-0.4-1.7-0.7-2.8-0.7
					c-3.1,0-5.7,2.4-5.7,5.5c0,2.3,1.5,4.3,3.7,5.1l14.1,53.4c-2.5,0.7-4.4,2.8-4.4,5.3c0,3.1,2.5,5.5,5.7,5.5
					C502.2,329,504.7,326.6,504.7,323.5z"/>
			</g>
		</g>
	</g>
</g>
<circle id="circle282" class="st2" cx="122.5" cy="458" r="5"/>
<circle id="circle284" class="st2" cx="147.5" cy="458" r="5"/>
<circle id="circle286" class="st2" cx="97.5" cy="483" r="5"/>
<circle id="circle288" class="st2" cx="122.5" cy="483" r="5"/>
<circle id="circle290" class="st2" cx="147.5" cy="483" r="5"/>
<circle id="circle292" class="st2" cx="97.5" cy="508" r="5"/>
<circle id="circle294" class="st2" cx="122.5" cy="508" r="5"/>
<circle id="circle296" class="st2" cx="147.5" cy="508" r="5"/>
<circle id="circle298" class="st2" cx="97.5" cy="458" r="5"/>
<circle id="circle300" class="st2" cx="122.5" cy="459" r="6"/>
<circle id="circle302" class="st2" cx="147.5" cy="459" r="6"/>
<circle id="circle304" class="st2" cx="97.5" cy="483" r="6"/>
<circle id="circle306" class="st2" cx="122.5" cy="483" r="6"/>
<circle id="circle308" class="st2" cx="147.5" cy="483" r="6"/>
<circle id="circle310" class="st2" cx="97.5" cy="507" r="6"/>
<circle id="circle312" class="st2" cx="122.5" cy="507" r="6"/>
<circle id="circle314" class="st2" cx="147.5" cy="507" r="6"/>
<circle id="circle316" class="st2" cx="97.5" cy="459" r="6"/>
<circle id="circle318" class="st3" cx="863.5" cy="561" r="6"/>
<circle id="circle320" class="st3" cx="888.5" cy="561" r="6"/>
<circle id="circle322" class="st3" cx="838.5" cy="585" r="6"/>
<circle id="circle324" class="st3" cx="863.5" cy="585" r="6"/>
<circle id="circle326" class="st3" cx="888.5" cy="585" r="6"/>
<circle id="circle328" class="st3" cx="838.5" cy="609" r="6"/>
<circle id="circle330" class="st3" cx="863.5" cy="609" r="6"/>
<circle id="circle332" class="st3" cx="888.5" cy="609" r="6"/>
<circle id="circle334" class="st3" cx="838.5" cy="561" r="6"/>
<path id="path336" class="st0" d="M623.5,582c0,0.8-0.7,1.3-1.3,1.3h-11.8c-0.8,0-1.4-0.7-1.4-1.3c0-0.8,0.7-1.3,1.4-1.3h11.8
	C622.9,580.7,623.5,581.2,623.5,582z"/>
<path id="path338" class="st0" d="M568.1,582c0,0.8-0.7,1.3-1.3,1.3h-11.9c-0.8,0-1.3-0.7-1.3-1.3c0-0.8,0.7-1.3,1.3-1.3h11.8
	C567.5,580.7,568.1,581.2,568.1,582z"/>
<path id="path340" class="st0" d="M589.8,603.8v11.8c0,0.8-0.7,1.3-1.3,1.3c-0.8,0-1.3-0.7-1.3-1.3v-11.8c0-0.8,0.7-1.4,1.3-1.4
	C589.3,602.4,589.8,603,589.8,603.8z"/>
<path id="path342" class="st0" d="M589.8,548.3v11.8c0,0.8-0.7,1.4-1.3,1.4c-0.8,0-1.3-0.7-1.3-1.4v-11.8c0-0.8,0.7-1.3,1.3-1.3
	C589.3,547,589.8,547.7,589.8,548.3z"/>
<path id="path344" class="st0" d="M602.2,613.3c0,0.6-0.3,1.1-0.9,1.4c-0.7,0.3-1.6-0.1-1.8-0.8l-4.4-11c-0.3-0.7,0.1-1.6,0.8-1.8
	c0.7-0.3,1.6,0.1,1.8,0.8l4.4,11C602.2,612.9,602.2,613.1,602.2,613.3z"/>
<path id="path346" class="st0" d="M581.9,561.7c0,0.6-0.3,1.1-0.9,1.4c-0.7,0.3-1.6-0.1-1.8-0.8l-4.3-11c-0.3-0.7,0.1-1.6,0.8-1.8
	s1.6,0.1,1.8,0.8l4.4,11C581.9,561.4,581.9,561.6,581.9,561.7z"/>
<path id="path348" class="st0" d="M620.6,595.7c0,0.2,0,0.3-0.1,0.6c-0.3,0.7-1.1,1-1.8,0.7l-10.8-4.8c-0.7-0.3-1-1.1-0.7-1.8
	s1.1-1,1.8-0.7l10.8,4.8C620.2,594.7,620.6,595.3,620.6,595.7z"/>
<path id="path350" class="st0" d="M570,573.1c0,0.2,0,0.3-0.1,0.6c-0.3,0.7-1.1,1-1.8,0.7l-10.9-4.8c-0.7-0.3-1-1.1-0.7-1.8
	s1.1-1,1.8-0.7l10.8,4.8C569.7,572.1,570,572.5,570,573.1z"/>
<path id="path352" class="st0" d="M612.9,606.4c0,0.3-0.1,0.8-0.5,1c-0.6,0.6-1.5,0.4-2-0.1l-8-8.6c-0.6-0.6-0.6-1.5,0-1.9
	c0.6-0.6,1.5-0.4,2,0l8.1,8.7C612.8,605.7,612.9,606.1,612.9,606.4z"/>
<path id="path354" class="st0" d="M575,566.1c0,0.3-0.1,0.8-0.5,1c-0.6,0.6-1.5,0.4-2-0.1l-8.1-8.7c-0.6-0.5-0.5-1.4,0.1-1.8
	c0.6-0.6,1.4-0.6,1.9,0l8.1,8.7C574.9,565.5,575,565.8,575,566.1z"/>
<path id="path356" class="st0" d="M582.1,602.4c0,0.1,0,0.3-0.1,0.5l-4.3,11c-0.2,0.7-1.1,1.1-1.8,0.8c-0.7-0.2-1.1-1.1-0.8-1.8
	l4.3-11c0.2-0.7,1.1-1.1,1.8-0.8C581.7,601.2,582.1,601.8,582.1,602.4z"/>
<path id="path358" class="st0" d="M601.9,550.6c0,0.1,0,0.3-0.1,0.5l-4.3,11c-0.2,0.7-1.1,1.1-1.8,0.8c-0.7-0.2-1.1-1.1-0.8-1.8
	l4.3-11c0.2-0.7,1.1-1.1,1.8-0.8C601.6,549.5,601.9,550,601.9,550.6z"/>
<path id="path360" class="st0" d="M574.4,597.4c0,0.3-0.1,0.7-0.5,1l-8.4,8.3c-0.6,0.6-1.5,0.6-2,0c-0.6-0.6-0.6-1.5,0-2l8.3-8.3
	c0.6-0.6,1.5-0.6,2,0C574.3,596.6,574.4,597.1,574.4,597.4z"/>
<path id="path362" class="st0" d="M613.7,558.3c0,0.3-0.1,0.7-0.5,1l-8.4,8.3c-0.6,0.6-1.5,0.6-2,0c-0.6-0.6-0.6-1.5,0-2l8.4-8.3
	c0.6-0.6,1.5-0.6,2,0C613.6,557.6,613.7,557.9,613.7,558.3z"/>
<path id="path364" class="st0" d="M569.8,590.3c0,0.6-0.3,1-0.9,1.2L558,596c-0.7,0.3-1.6,0-1.8-0.8c-0.3-0.7,0-1.6,0.8-1.8
	l10.9-4.5c0.7-0.3,1.6,0,1.8,0.8C569.7,590,569.8,590.1,569.8,590.3z"/>
<path id="path366" class="st0" d="M621,569.2c0,0.6-0.3,1-0.9,1.2l-10.9,4.5c-0.7,0.3-1.6,0-1.8-0.8c-0.3-0.7,0-1.6,0.8-1.8
	l10.9-4.5c0.7-0.3,1.6,0,1.8,0.8C620.9,568.8,621,569.1,621,569.2z"/>
<rect id="rect368" x="363.5" y="179" class="st0" width="63" height="63"/>
<path id="path370" class="st0" d="M93.9,553.8H107v3.3h-4.8V572h-3.4v-14.9H94L93.9,553.8L93.9,553.8z M113.8,572h-3.3v-18.2h3.3
	v7.4h0.5c0.3-0.8,0.8-1.4,1.5-1.8c0.6-0.4,1.4-0.7,2.4-0.7c0.6,0,1.2,0.1,1.8,0.3s1,0.5,1.4,0.9s0.7,1,0.9,1.6
	c0.2,0.6,0.3,1.4,0.3,2.3v8.1h-3.3v-7.3c0-0.9-0.2-1.6-0.7-2.2c-0.4-0.5-1.1-0.8-1.9-0.8c-1,0-1.7,0.3-2.2,1
	c-0.5,0.6-0.7,1.5-0.7,2.6L113.8,572L113.8,572z M129.3,566.6c0,0.4,0.1,0.7,0.3,1.1c0.2,0.3,0.4,0.6,0.7,0.8s0.6,0.4,1,0.5
	s0.8,0.2,1.2,0.2c0.8,0,1.4-0.1,1.9-0.4c0.4-0.3,0.7-0.6,0.9-1l2.8,1.6c-0.2,0.3-0.4,0.7-0.7,1s-0.6,0.7-1.1,1
	c-0.4,0.3-1,0.5-1.6,0.7s-1.4,0.3-2.2,0.3c-1,0-1.9-0.2-2.7-0.5s-1.5-0.8-2.1-1.4c-0.6-0.6-1-1.3-1.4-2.2c-0.3-0.8-0.5-1.8-0.5-2.9
	v-0.2c0-1,0.2-1.9,0.5-2.7s0.8-1.5,1.4-2.1s1.3-1,2.1-1.3s1.6-0.5,2.5-0.5c1.1,0,2.1,0.2,2.9,0.6c0.8,0.4,1.5,0.9,2,1.5
	s0.9,1.2,1.1,2c0.2,0.7,0.4,1.4,0.4,2.1v1.7h-9.4L129.3,566.6L129.3,566.6z M132.3,561.7c-0.8,0-1.5,0.2-2,0.7
	c-0.5,0.4-0.9,0.9-1,1.5h6.1c-0.1-0.6-0.4-1.1-1-1.5C133.9,561.9,133.2,561.7,132.3,561.7z M158.1,559.1h3.7v-2.7
	c0-0.7,0.3-1.4,0.8-1.9s1.1-0.8,1.9-0.8h5.3v3.1h-3.9c-0.5,0-0.7,0.3-0.7,0.8v1.4h5.1v3.1H165v9.8h-3.3v-9.8H158v-3L158.1,559.1
	L158.1,559.1z M186.8,565.7c0,1.1-0.2,2-0.5,2.9c-0.4,0.8-0.9,1.5-1.5,2.1s-1.3,1-2.2,1.3c-0.8,0.3-1.6,0.4-2.5,0.4
	s-1.7-0.1-2.5-0.4c-0.8-0.3-1.5-0.7-2.1-1.3s-1.1-1.3-1.5-2.1s-0.5-1.8-0.5-2.9v-0.3c0-1.1,0.2-2,0.5-2.8c0.4-0.8,0.9-1.5,1.5-2.1
	s1.3-1,2.1-1.3s1.7-0.4,2.5-0.4s1.7,0.1,2.5,0.4c0.8,0.3,1.5,0.7,2.2,1.3c0.6,0.6,1.1,1.3,1.5,2.1s0.5,1.8,0.5,2.8V565.7z
	 M180.1,569.2c0.5,0,0.9-0.1,1.3-0.2s0.8-0.4,1.1-0.7s0.6-0.6,0.7-1.1c0.2-0.4,0.3-0.9,0.3-1.5v-0.5c0-0.5-0.1-1-0.3-1.4
	s-0.4-0.8-0.7-1.1s-0.7-0.5-1.1-0.7s-0.9-0.2-1.3-0.2s-0.9,0.1-1.3,0.2s-0.8,0.4-1.1,0.7s-0.6,0.7-0.8,1.1c-0.2,0.4-0.3,0.9-0.3,1.4
	v0.5c0,0.5,0.1,1,0.3,1.5c0.2,0.4,0.4,0.8,0.8,1.1c0.3,0.3,0.7,0.5,1.1,0.7S179.6,569.2,180.1,569.2z M198.8,559.1h3.3V572h-3.3
	v-1.9h-0.5c-0.6,1.5-1.8,2.2-3.7,2.2c-0.6,0-1.2-0.1-1.8-0.3s-1-0.5-1.5-1c-0.4-0.4-0.7-1-1-1.6c-0.2-0.7-0.3-1.4-0.3-2.3V559h3.3
	v7.4c0,0.9,0.2,1.6,0.6,2.2c0.4,0.5,1.1,0.8,1.9,0.8c1,0,1.7-0.3,2.2-0.9c0.5-0.6,0.7-1.5,0.7-2.6v-6.8L198.8,559.1L198.8,559.1z
	 M209.2,572H206v-12.9h3.3v1.9h0.5c0.3-0.7,0.8-1.3,1.4-1.7c0.7-0.4,1.4-0.6,2.3-0.6c0.6,0,1.2,0.1,1.7,0.3c0.6,0.2,1,0.5,1.5,0.9
	c0.4,0.4,0.7,0.9,1,1.6c0.2,0.6,0.4,1.4,0.4,2.3v8.2h-3.3v-7.3c0-0.9-0.2-1.6-0.7-2.2c-0.4-0.5-1.1-0.8-1.9-0.8c-1,0-1.7,0.3-2.2,1
	c-0.5,0.6-0.7,1.5-0.7,2.6v6.7H209.2z M231.1,570.1h-0.5c-0.1,0.3-0.3,0.6-0.5,0.9c-0.2,0.3-0.4,0.5-0.8,0.7
	c-0.3,0.2-0.7,0.4-1.1,0.5c-0.4,0.1-1,0.2-1.6,0.2c-0.8,0-1.5-0.1-2.2-0.4c-0.7-0.3-1.3-0.7-1.8-1.3s-0.9-1.3-1.2-2.1
	s-0.4-1.8-0.4-2.8v-0.5c0-1,0.1-2,0.4-2.8c0.3-0.8,0.7-1.5,1.2-2.1s1.2-1,1.8-1.3c0.7-0.3,1.5-0.4,2.2-0.4c1,0,1.9,0.2,2.5,0.6
	c0.6,0.4,1.1,0.9,1.4,1.6h0.5v-7.2h3.3V572H231v-1.9H231.1z M227.7,569.2c1,0,1.8-0.3,2.5-1c0.6-0.7,1-1.5,1-2.6v-0.3
	c0-1.1-0.3-1.9-1-2.5c-0.6-0.7-1.4-1-2.5-1c-1,0-1.9,0.3-2.5,1c-0.6,0.6-0.9,1.5-0.9,2.6v0.3c0,1.1,0.3,2,0.9,2.6
	C225.9,568.9,226.7,569.2,227.7,569.2z M246.2,570.1c-0.3,0.8-0.8,1.4-1.5,1.7c-0.6,0.3-1.4,0.5-2.2,0.5s-1.5-0.1-2.2-0.4
	c-0.7-0.3-1.3-0.7-1.8-1.3s-0.9-1.3-1.2-2.1s-0.4-1.7-0.4-2.8v-0.4c0-1,0.1-1.9,0.4-2.8c0.3-0.8,0.7-1.5,1.2-2.1s1.1-1,1.7-1.3
	c0.7-0.3,1.4-0.5,2.2-0.5c0.9,0,1.7,0.2,2.2,0.5c0.6,0.3,1,0.8,1.4,1.5h0.5V559h3.3v9c0,0.5,0.2,0.8,0.7,0.8h0.5v3.1h-2.2
	c-0.6,0-1.1-0.2-1.5-0.5s-0.5-0.8-0.5-1.4L246.2,570.1L246.2,570.1z M243.2,569.2c1,0,1.7-0.3,2.3-0.9c0.6-0.6,0.9-1.5,0.9-2.6v-0.3
	c0-1.1-0.3-2-0.9-2.6c-0.6-0.6-1.3-1-2.3-1s-1.7,0.3-2.3,1c-0.6,0.6-0.9,1.5-0.9,2.6v0.3c0,1.1,0.3,2,0.9,2.6
	C241.5,568.9,242.3,569.2,243.2,569.2z M253.4,559.1h3.8v-5.3h3.3v5.3h4.7v3.1h-4.7v5.9c0,0.5,0.2,0.8,0.7,0.8h3.5v3.1h-5.5
	c-0.6,0-1.1-0.2-1.5-0.6c-0.4-0.4-0.5-0.9-0.5-1.5v-7.7h-3.8L253.4,559.1L253.4,559.1z M269.9,568.9h4.4v-6.7h-4.1v-3.1h7.3v9.8h3.7
	v3.1h-11.4v-3.1H269.9z M278.3,555.3c0,0.3-0.1,0.7-0.2,1s-0.3,0.6-0.5,0.8s-0.5,0.4-0.8,0.5s-0.6,0.2-0.9,0.2s-0.7-0.1-1-0.2
	c-0.3-0.1-0.6-0.3-0.8-0.5c-0.2-0.2-0.4-0.5-0.5-0.8s-0.2-0.6-0.2-1c0-0.3,0.1-0.7,0.2-1s0.3-0.6,0.5-0.8s0.5-0.4,0.8-0.5
	s0.6-0.2,1-0.2c0.3,0,0.6,0.1,0.9,0.2c0.3,0.1,0.6,0.3,0.8,0.5c0.2,0.2,0.4,0.5,0.5,0.8C278.3,554.6,278.3,554.9,278.3,555.3z
	 M298.2,565.7c0,1.1-0.2,2-0.5,2.9c-0.4,0.8-0.9,1.5-1.5,2.1s-1.3,1-2.2,1.3c-0.8,0.3-1.6,0.4-2.5,0.4s-1.7-0.1-2.5-0.4
	c-0.8-0.3-1.5-0.7-2.1-1.3s-1.1-1.3-1.5-2.1s-0.5-1.8-0.5-2.9v-0.3c0-1.1,0.2-2,0.5-2.8c0.4-0.8,0.9-1.5,1.5-2.1s1.3-1,2.1-1.3
	c0.8-0.3,1.7-0.4,2.5-0.4s1.7,0.1,2.5,0.4c0.8,0.3,1.5,0.7,2.2,1.3c0.6,0.6,1.1,1.3,1.5,2.1s0.5,1.8,0.5,2.8V565.7z M291.5,569.2
	c0.5,0,0.9-0.1,1.3-0.2c0.4-0.2,0.8-0.4,1.1-0.7c0.3-0.3,0.6-0.6,0.7-1.1c0.2-0.4,0.3-0.9,0.3-1.5v-0.5c0-0.5-0.1-1-0.3-1.4
	c-0.2-0.4-0.4-0.8-0.7-1.1c-0.3-0.3-0.7-0.5-1.1-0.7s-0.9-0.2-1.3-0.2c-0.5,0-0.9,0.1-1.3,0.2c-0.4,0.2-0.8,0.4-1.1,0.7
	c-0.3,0.3-0.6,0.7-0.8,1.1c-0.2,0.4-0.3,0.9-0.3,1.4v0.5c0,0.5,0.1,1,0.3,1.5c0.2,0.4,0.4,0.8,0.8,1.1c0.3,0.3,0.7,0.5,1.1,0.7
	S291,569.2,291.5,569.2z M304.8,572h-3.3v-12.9h3.3v1.9h0.5c0.3-0.7,0.8-1.3,1.4-1.7s1.4-0.6,2.3-0.6c0.6,0,1.2,0.1,1.7,0.3
	c0.6,0.2,1,0.5,1.5,0.9c0.4,0.4,0.7,0.9,1,1.6c0.2,0.6,0.4,1.4,0.4,2.3v8.2h-3.3v-7.3c0-0.9-0.2-1.6-0.7-2.2
	c-0.4-0.5-1.1-0.8-1.9-0.8c-1,0-1.7,0.3-2.2,1c-0.5,0.6-0.7,1.5-0.7,2.6L304.8,572L304.8,572z M325.8,570.1
	c-0.3,0.8-0.8,1.4-1.5,1.7c-0.6,0.3-1.4,0.5-2.2,0.5c-0.8,0-1.5-0.1-2.2-0.4c-0.7-0.3-1.3-0.7-1.8-1.3s-0.9-1.3-1.2-2.1
	c-0.3-0.8-0.4-1.7-0.4-2.8v-0.4c0-1,0.1-1.9,0.4-2.8c0.3-0.8,0.7-1.5,1.2-2.1s1.1-1,1.7-1.3c0.7-0.3,1.4-0.5,2.2-0.5
	c0.9,0,1.7,0.2,2.2,0.5c0.6,0.3,1,0.8,1.4,1.5h0.5V559h3.3v9c0,0.5,0.2,0.8,0.7,0.8h0.5v3.1h-2.2c-0.6,0-1.1-0.2-1.5-0.5
	s-0.5-0.8-0.5-1.4L325.8,570.1L325.8,570.1z M322.8,569.2c1,0,1.7-0.3,2.3-0.9c0.6-0.6,0.9-1.5,0.9-2.6v-0.3c0-1.1-0.3-2-0.9-2.6
	s-1.3-1-2.3-1s-1.7,0.3-2.3,1c-0.6,0.6-0.9,1.5-0.9,2.6v0.3c0,1.1,0.3,2,0.9,2.6C321.1,568.9,321.9,569.2,322.8,569.2z M333.2,568.9
	h4.5v-12h-4.4v-3.1h7.6v15.1h4.2v3.1h-12L333.2,568.9L333.2,568.9z M373.9,559.1h3.3V572h-3.3v-1.9h-0.5c-0.6,1.5-1.8,2.2-3.7,2.2
	c-0.6,0-1.2-0.1-1.8-0.3c-0.6-0.2-1-0.5-1.5-1c-0.4-0.4-0.7-1-1-1.6c-0.2-0.7-0.3-1.4-0.3-2.3V559h3.3v7.4c0,0.9,0.2,1.6,0.6,2.2
	c0.4,0.5,1.1,0.8,2,0.8c1,0,1.7-0.3,2.2-0.9c0.5-0.6,0.7-1.5,0.7-2.6L373.9,559.1L373.9,559.1z M385.2,562.7c0,0.4,0.2,0.7,0.6,0.9
	s1.2,0.3,2.4,0.4c1.3,0.1,2.4,0.5,3.2,1.2c0.8,0.6,1.2,1.5,1.2,2.7v0.2c0,1.3-0.5,2.3-1.4,3.1s-2.3,1.1-4,1.1c-1,0-1.9-0.1-2.6-0.4
	c-0.7-0.3-1.3-0.6-1.8-1s-0.8-0.8-1.1-1.3c-0.2-0.5-0.4-1-0.5-1.4l3-1c0.1,0.6,0.4,1,0.9,1.5c0.4,0.4,1.1,0.6,2.1,0.6
	c0.8,0,1.4-0.1,1.7-0.4c0.3-0.3,0.5-0.5,0.5-0.8c0-0.2,0-0.3-0.1-0.5s-0.2-0.3-0.4-0.4c-0.2-0.1-0.5-0.3-0.9-0.3
	c-0.3-0.1-0.8-0.2-1.3-0.2c-1.5-0.1-2.6-0.5-3.5-1.1s-1.3-1.6-1.3-2.8v-0.2c0-0.6,0.1-1.2,0.4-1.7s0.6-0.9,1.1-1.2
	c0.4-0.3,1-0.6,1.6-0.8s1.2-0.3,1.8-0.3c0.8,0,1.5,0.1,2.1,0.3s1.1,0.5,1.5,0.8s0.8,0.7,1,1.1c0.3,0.4,0.5,0.8,0.6,1.1l-3,1.2
	c-0.2-0.5-0.4-0.8-0.8-1.1s-0.9-0.4-1.5-0.4s-1,0.1-1.2,0.3C385.3,562.2,385.2,562.4,385.2,562.7z M399.9,566.6
	c0,0.4,0.1,0.7,0.3,1.1c0.2,0.3,0.4,0.6,0.7,0.8c0.3,0.2,0.6,0.4,1,0.5s0.8,0.2,1.2,0.2c0.8,0,1.4-0.1,1.9-0.4
	c0.4-0.3,0.7-0.6,0.9-1l2.8,1.6c-0.2,0.3-0.4,0.7-0.6,1c-0.3,0.3-0.6,0.7-1.1,1c-0.4,0.3-1,0.5-1.6,0.7s-1.4,0.3-2.2,0.3
	c-1,0-1.9-0.2-2.7-0.5c-0.8-0.3-1.5-0.8-2.1-1.4c-0.6-0.6-1-1.3-1.4-2.2c-0.3-0.8-0.5-1.8-0.5-2.9v-0.2c0-1,0.2-1.9,0.5-2.7
	s0.8-1.5,1.4-2.1s1.3-1,2.1-1.3c0.8-0.3,1.6-0.5,2.5-0.5c1.1,0,2.1,0.2,2.9,0.6c0.8,0.4,1.5,0.9,2,1.5s0.9,1.2,1.1,2
	c0.2,0.7,0.4,1.4,0.4,2.1v1.7h-9.5L399.9,566.6L399.9,566.6z M403,561.7c-0.8,0-1.5,0.2-2,0.7c-0.5,0.4-0.9,0.9-1,1.5h6.1
	c-0.1-0.6-0.4-1.1-1-1.5C404.5,561.9,403.8,561.7,403,561.7z M412.3,559.1h5.5v1.9h0.5c0.2-0.7,0.6-1.3,1.2-1.6
	c0.6-0.4,1.3-0.6,2.1-0.6c1.3,0,2.3,0.4,3.1,1.2c0.8,0.8,1.2,2,1.2,3.7v0.6l-3.4,0.3v-0.4c0-0.7-0.2-1.3-0.5-1.7
	c-0.4-0.4-0.9-0.7-1.6-0.7s-1.3,0.3-1.7,0.8c-0.4,0.5-0.6,1.2-0.6,2.2v4.2h3v3.1H412V569h2.7v-6.7h-2.3v-3.2H412.3z M430.7,563.4
	h8.1v3h-8.1V563.4z M448.9,562.7c0,0.4,0.2,0.7,0.6,0.9s1.2,0.3,2.4,0.4c1.3,0.1,2.4,0.5,3.2,1.2c0.8,0.6,1.2,1.5,1.2,2.7v0.2
	c0,1.3-0.5,2.3-1.4,3.1s-2.3,1.1-4,1.1c-1,0-1.9-0.1-2.6-0.4c-0.7-0.3-1.3-0.6-1.8-1s-0.8-0.8-1.1-1.3c-0.2-0.5-0.4-1-0.5-1.4l3-1
	c0.1,0.6,0.4,1,0.9,1.5c0.5,0.4,1.1,0.6,2.1,0.6c0.8,0,1.4-0.1,1.7-0.4c0.3-0.3,0.5-0.5,0.5-0.8c0-0.2,0-0.3-0.1-0.5
	s-0.2-0.3-0.4-0.4c-0.2-0.1-0.5-0.3-0.9-0.3c-0.3-0.1-0.8-0.2-1.3-0.2c-1.5-0.1-2.6-0.5-3.5-1.1c-0.8-0.6-1.3-1.6-1.3-2.8v-0.2
	c0-0.6,0.1-1.2,0.4-1.7s0.6-0.9,1.1-1.2s1-0.6,1.6-0.8s1.2-0.3,1.8-0.3c0.8,0,1.5,0.1,2.1,0.3s1.1,0.5,1.5,0.8s0.8,0.7,1,1.1
	c0.3,0.4,0.5,0.8,0.6,1.1l-3,1.2c-0.2-0.5-0.4-0.8-0.8-1.1s-0.9-0.4-1.5-0.4s-1,0.1-1.2,0.3C449,562.2,448.9,562.4,448.9,562.7z
	 M463.3,577.2H460v-18.1h3.3v1.9h0.5c0.3-0.7,0.9-1.3,1.5-1.6c0.7-0.4,1.5-0.6,2.5-0.6c0.8,0,1.5,0.1,2.2,0.4
	c0.7,0.3,1.3,0.7,1.8,1.3s0.9,1.2,1.2,2.1c0.3,0.8,0.5,1.7,0.5,2.8v0.5c0,1.1-0.1,2-0.4,2.8s-0.7,1.5-1.2,2.1s-1.1,1-1.8,1.3
	c-0.7,0.3-1.4,0.4-2.2,0.4c-0.6,0-1.1-0.1-1.5-0.2c-0.4-0.1-0.8-0.3-1.1-0.5c-0.3-0.2-0.6-0.4-0.8-0.7c-0.2-0.3-0.4-0.6-0.5-0.9
	h-0.5v7H463.3z M466.7,569.2c1,0,1.8-0.3,2.5-0.9c0.6-0.6,1-1.5,1-2.6v-0.3c0-1.1-0.3-2-1-2.6c-0.6-0.6-1.4-1-2.5-1
	c-1,0-1.9,0.3-2.5,1c-0.6,0.6-0.9,1.5-0.9,2.5v0.3c0,1.1,0.3,1.9,0.9,2.6C464.9,568.9,465.7,569.2,466.7,569.2z M485,570.1
	c-0.3,0.8-0.8,1.4-1.5,1.7c-0.6,0.3-1.4,0.5-2.2,0.5c-0.8,0-1.5-0.1-2.2-0.4c-0.7-0.3-1.3-0.7-1.8-1.3s-0.9-1.3-1.2-2.1
	c-0.3-0.8-0.4-1.7-0.4-2.8v-0.4c0-1,0.1-1.9,0.4-2.8c0.3-0.8,0.7-1.5,1.2-2.1s1.1-1,1.7-1.3c0.7-0.3,1.4-0.5,2.2-0.5
	c0.9,0,1.7,0.2,2.2,0.5c0.6,0.3,1,0.8,1.4,1.5h0.5V559h3.3v9c0,0.5,0.2,0.8,0.7,0.8h0.5v3.1h-2.2c-0.6,0-1.1-0.2-1.5-0.5
	s-0.5-0.8-0.5-1.4L485,570.1L485,570.1z M482,569.2c1,0,1.7-0.3,2.3-0.9c0.6-0.6,0.9-1.5,0.9-2.6v-0.3c0-1.1-0.3-2-0.9-2.6
	s-1.3-1-2.3-1s-1.7,0.3-2.3,1c-0.6,0.6-0.9,1.5-0.9,2.6v0.3c0,1.1,0.3,2,0.9,2.6C480.3,568.9,481.1,569.2,482,569.2z M505.1,567.3
	c-0.3,1.5-1,2.8-2.1,3.7s-2.6,1.4-4.4,1.4c-1,0-1.8-0.1-2.7-0.4c-0.8-0.3-1.5-0.7-2.1-1.3s-1.1-1.2-1.4-2.1
	c-0.3-0.8-0.5-1.7-0.5-2.8v-0.3c0-1,0.2-2,0.5-2.8s0.8-1.5,1.4-2.1s1.3-1,2.2-1.4c0.8-0.3,1.7-0.5,2.7-0.5c1.8,0,3.3,0.5,4.4,1.4
	s1.8,2.2,2.1,3.7l-3.2,0.8c-0.1-0.8-0.4-1.4-1-2s-1.3-0.8-2.3-0.8c-0.5,0-0.9,0.1-1.3,0.3s-0.8,0.4-1.1,0.8
	c-0.3,0.3-0.6,0.7-0.8,1.2c-0.2,0.5-0.3,1-0.3,1.5v0.2c0,0.6,0.1,1.1,0.3,1.5c0.2,0.4,0.4,0.8,0.8,1.1c0.3,0.3,0.7,0.5,1.1,0.7
	c0.4,0.1,0.9,0.2,1.3,0.2c1,0,1.8-0.3,2.3-0.8s0.9-1.2,1-2L505.1,567.3z M511.3,566.6c0,0.4,0.1,0.7,0.3,1.1
	c0.2,0.3,0.4,0.6,0.7,0.8c0.3,0.2,0.6,0.4,1,0.5s0.8,0.2,1.2,0.2c0.8,0,1.4-0.1,1.9-0.4c0.4-0.3,0.7-0.6,0.9-1l2.8,1.6
	c-0.2,0.3-0.4,0.7-0.6,1c-0.3,0.3-0.6,0.7-1.1,1c-0.4,0.3-1,0.5-1.6,0.7s-1.4,0.3-2.2,0.3c-1,0-1.9-0.2-2.7-0.5s-1.5-0.8-2.1-1.4
	c-0.6-0.6-1-1.3-1.4-2.2c-0.3-0.8-0.5-1.8-0.5-2.9v-0.2c0-1,0.2-1.9,0.5-2.7s0.8-1.5,1.4-2.1s1.3-1,2.1-1.3c0.8-0.3,1.6-0.5,2.5-0.5
	c1.1,0,2.1,0.2,2.9,0.6c0.8,0.4,1.5,0.9,2,1.5s0.9,1.2,1.1,2c0.2,0.7,0.4,1.4,0.4,2.1v1.7h-9.5L511.3,566.6L511.3,566.6z
	 M514.4,561.7c-0.8,0-1.5,0.2-2,0.7c-0.5,0.4-0.9,0.9-1,1.5h6.1c-0.1-0.6-0.4-1.1-1-1.5C515.9,561.9,515.3,561.7,514.4,561.7z
	 M94.6,589.8H98v14.9h8.3v3.3H94.6V589.8z M110.7,604.9h4.4v-6.7H111v-3.1h7.3v9.8h3.7v3.1h-11.4L110.7,604.9L110.7,604.9z
	 M119.1,591.3c0,0.3-0.1,0.7-0.2,1s-0.3,0.6-0.5,0.8s-0.5,0.4-0.8,0.5s-0.6,0.2-0.9,0.2s-0.7-0.1-1-0.2c-0.3-0.1-0.6-0.3-0.8-0.5
	c-0.2-0.2-0.4-0.5-0.5-0.8s-0.2-0.6-0.2-1c0-0.3,0.1-0.7,0.2-1s0.3-0.6,0.5-0.8s0.5-0.4,0.8-0.5s0.6-0.2,1-0.2
	c0.3,0,0.6,0.1,0.9,0.2c0.3,0.1,0.6,0.3,0.8,0.5c0.2,0.2,0.4,0.5,0.5,0.8C119.1,590.6,119.1,590.9,119.1,591.3z M129.6,608h-3.3
	v-12.9h3.3v1.9h0.5c0.3-0.7,0.8-1.3,1.4-1.7c0.7-0.4,1.4-0.6,2.3-0.6c0.6,0,1.2,0.1,1.7,0.3c0.6,0.2,1,0.5,1.5,0.9
	c0.4,0.4,0.7,0.9,1,1.6c0.2,0.6,0.4,1.4,0.4,2.3v8.2h-3.3v-7.3c0-0.9-0.2-1.6-0.7-2.2c-0.4-0.5-1.1-0.8-1.9-0.8c-1,0-1.7,0.3-2.2,1
	c-0.5,0.6-0.7,1.5-0.7,2.6V608z M151,595.1h3.3V608H151v-1.9h-0.5c-0.6,1.5-1.8,2.2-3.7,2.2c-0.6,0-1.2-0.1-1.8-0.3s-1-0.5-1.5-1
	c-0.4-0.4-0.7-1-1-1.6c-0.2-0.7-0.3-1.4-0.3-2.3V595h3.3v7.4c0,0.9,0.2,1.6,0.7,2.2c0.4,0.5,1.1,0.8,1.9,0.8c1,0,1.7-0.3,2.2-0.9
	c0.5-0.6,0.7-1.5,0.7-2.6L151,595.1L151,595.1z M166.8,595.1h3.6l-3.1,6.1v0.5l3.3,6.4h-3.8l-2.4-5h-0.5l-2.4,5h-3.8l3.3-6.4v-0.5
	l-3.1-6.1h3.6l2.4,4.7h0.5L166.8,595.1z M202.6,603.3c-0.3,1.5-1,2.8-2.1,3.7s-2.6,1.4-4.4,1.4c-1,0-1.8-0.1-2.7-0.4
	c-0.8-0.3-1.5-0.7-2.1-1.3s-1.1-1.2-1.4-2.1c-0.3-0.8-0.5-1.7-0.5-2.8v-0.3c0-1,0.2-2,0.5-2.8s0.8-1.5,1.4-2.1
	c0.6-0.6,1.3-1,2.2-1.4c0.8-0.3,1.7-0.5,2.7-0.5c1.8,0,3.3,0.5,4.4,1.4c1.1,0.9,1.8,2.2,2.1,3.7l-3.2,0.8c-0.1-0.8-0.4-1.4-1-2
	s-1.3-0.8-2.3-0.8c-0.5,0-0.9,0.1-1.3,0.3c-0.4,0.2-0.8,0.4-1.1,0.8c-0.3,0.3-0.6,0.7-0.8,1.2s-0.3,1-0.3,1.5v0.2
	c0,0.6,0.1,1.1,0.3,1.5s0.4,0.8,0.8,1.1c0.3,0.3,0.7,0.5,1.1,0.7c0.4,0.1,0.9,0.2,1.3,0.2c1,0,1.8-0.3,2.3-0.8s0.9-1.2,1-2
	L202.6,603.3z M218.6,601.7c0,1.1-0.2,2-0.5,2.9c-0.4,0.8-0.9,1.5-1.5,2.1s-1.3,1-2.2,1.3c-0.8,0.3-1.6,0.4-2.5,0.4
	s-1.7-0.1-2.5-0.4c-0.8-0.3-1.5-0.7-2.1-1.3s-1.1-1.3-1.5-2.1s-0.5-1.8-0.5-2.9v-0.3c0-1.1,0.2-2,0.5-2.8c0.4-0.8,0.9-1.5,1.5-2.1
	s1.3-1,2.1-1.3s1.7-0.4,2.5-0.4s1.7,0.1,2.5,0.4c0.8,0.3,1.5,0.7,2.2,1.3c0.6,0.6,1.1,1.3,1.5,2.1s0.5,1.8,0.5,2.8V601.7z
	 M211.9,605.2c0.5,0,0.9-0.1,1.3-0.2s0.8-0.4,1.1-0.7s0.6-0.6,0.7-1.1c0.2-0.4,0.3-0.9,0.3-1.5v-0.5c0-0.5-0.1-1-0.3-1.4
	s-0.4-0.8-0.7-1.1s-0.7-0.5-1.1-0.7s-0.9-0.2-1.3-0.2s-0.9,0.1-1.3,0.2s-0.8,0.4-1.1,0.7s-0.6,0.7-0.8,1.1c-0.2,0.4-0.3,0.9-0.3,1.4
	v0.5c0,0.5,0.1,1,0.3,1.5c0.2,0.4,0.4,0.8,0.8,1.1c0.3,0.3,0.7,0.5,1.1,0.7S211.4,605.2,211.9,605.2z M225.2,608h-3.3v-12.9h3.3v1.9
	h0.5c0.3-0.7,0.8-1.3,1.4-1.7c0.7-0.4,1.4-0.6,2.3-0.6c0.6,0,1.2,0.1,1.7,0.3c0.6,0.2,1,0.5,1.5,0.9c0.4,0.4,0.7,0.9,1,1.6
	c0.2,0.6,0.4,1.4,0.4,2.3v8.2h-3.3v-7.3c0-0.9-0.2-1.6-0.7-2.2c-0.4-0.5-1.1-0.8-1.9-0.8c-1,0-1.7,0.3-2.2,1
	c-0.5,0.6-0.7,1.5-0.7,2.6V608z M237.7,595.1h3.7v-2.7c0-0.7,0.3-1.4,0.8-1.9s1.1-0.8,1.9-0.8h5.3v3.1h-3.9c-0.5,0-0.7,0.3-0.7,0.8
	v1.4h5.1v3.1h-5.1v9.8h-3.3v-9.8h-3.7v-3L237.7,595.1L237.7,595.1z M256.6,602.6c0,0.4,0.1,0.7,0.3,1.1c0.2,0.3,0.4,0.6,0.7,0.8
	c0.3,0.2,0.6,0.4,1,0.5s0.8,0.2,1.2,0.2c0.8,0,1.4-0.1,1.9-0.4c0.4-0.3,0.7-0.6,0.9-1l2.8,1.6c-0.2,0.3-0.4,0.7-0.6,1
	c-0.3,0.3-0.6,0.7-1.1,1c-0.4,0.3-1,0.5-1.6,0.7s-1.4,0.3-2.2,0.3c-1,0-1.9-0.2-2.7-0.5c-0.8-0.3-1.5-0.8-2.1-1.4
	c-0.6-0.6-1-1.3-1.4-2.2c-0.3-0.8-0.5-1.8-0.5-2.9v-0.2c0-1,0.2-1.9,0.5-2.7s0.8-1.5,1.4-2.1c0.6-0.6,1.3-1,2.1-1.3
	c0.8-0.3,1.6-0.5,2.5-0.5c1.1,0,2.1,0.2,2.9,0.6c0.8,0.4,1.5,0.9,2,1.5s0.9,1.2,1.1,2c0.2,0.7,0.4,1.4,0.4,2.1v1.7h-9.5L256.6,602.6
	L256.6,602.6z M259.7,597.7c-0.8,0-1.5,0.2-2,0.7c-0.5,0.4-0.9,0.9-1,1.5h6.1c-0.1-0.6-0.4-1.1-1-1.5
	C261.2,597.9,260.5,597.7,259.7,597.7z M269,595.1h5.5v1.9h0.5c0.2-0.7,0.7-1.3,1.2-1.6c0.6-0.4,1.3-0.6,2.1-0.6
	c1.3,0,2.3,0.4,3.1,1.2c0.8,0.8,1.2,2,1.2,3.7v0.6l-3.4,0.3v-0.4c0-0.7-0.2-1.3-0.5-1.7c-0.4-0.4-0.9-0.7-1.6-0.7s-1.3,0.3-1.7,0.8
	c-0.4,0.5-0.6,1.2-0.6,2.2v4.2h3v3.1h-8.9V605h2.7v-6.7H269V595.1z M288.5,602.6c0,0.4,0.1,0.7,0.3,1.1c0.2,0.3,0.4,0.6,0.7,0.8
	c0.3,0.2,0.6,0.4,1,0.5s0.8,0.2,1.2,0.2c0.8,0,1.4-0.1,1.9-0.4c0.4-0.3,0.7-0.6,0.9-1l2.8,1.6c-0.2,0.3-0.4,0.7-0.6,1
	c-0.3,0.3-0.6,0.7-1.1,1c-0.4,0.3-1,0.5-1.6,0.7s-1.4,0.3-2.2,0.3c-1,0-1.9-0.2-2.7-0.5s-1.5-0.8-2.1-1.4c-0.6-0.6-1-1.3-1.4-2.2
	c-0.3-0.8-0.5-1.8-0.5-2.9v-0.2c0-1,0.2-1.9,0.5-2.7s0.8-1.5,1.4-2.1s1.3-1,2.1-1.3c0.8-0.3,1.6-0.5,2.5-0.5c1.1,0,2.1,0.2,2.9,0.6
	c0.8,0.4,1.5,0.9,2,1.5s0.9,1.2,1.1,2c0.2,0.7,0.4,1.4,0.4,2.1v1.7h-9.5L288.5,602.6L288.5,602.6z M291.5,597.7
	c-0.8,0-1.5,0.2-2,0.7c-0.5,0.4-0.9,0.9-1,1.5h6.1c-0.1-0.6-0.4-1.1-1-1.5C293.1,597.9,292.4,597.7,291.5,597.7z M304.8,608h-3.3
	v-12.9h3.3v1.9h0.5c0.3-0.7,0.8-1.3,1.4-1.7s1.4-0.6,2.3-0.6c0.6,0,1.2,0.1,1.7,0.3c0.6,0.2,1,0.5,1.5,0.9c0.4,0.4,0.7,0.9,1,1.6
	c0.2,0.6,0.4,1.4,0.4,2.3v8.2h-3.3v-7.3c0-0.9-0.2-1.6-0.7-2.2c-0.4-0.5-1.1-0.8-1.9-0.8c-1,0-1.7,0.3-2.2,1
	c-0.5,0.6-0.7,1.5-0.7,2.6L304.8,608L304.8,608z M330,603.3c-0.3,1.5-1,2.8-2.1,3.7s-2.6,1.4-4.4,1.4c-1,0-1.8-0.1-2.7-0.4
	c-0.8-0.3-1.5-0.7-2.1-1.3s-1.1-1.2-1.4-2.1c-0.3-0.8-0.5-1.7-0.5-2.8v-0.3c0-1,0.2-2,0.5-2.8s0.8-1.5,1.4-2.1s1.3-1,2.2-1.4
	c0.8-0.3,1.7-0.5,2.7-0.5c1.8,0,3.3,0.5,4.4,1.4s1.8,2.2,2.1,3.7l-3.2,0.8c-0.1-0.8-0.4-1.4-1-2s-1.3-0.8-2.3-0.8
	c-0.5,0-0.9,0.1-1.3,0.3s-0.8,0.4-1.1,0.8c-0.3,0.3-0.6,0.7-0.8,1.2c-0.2,0.5-0.3,1-0.3,1.5v0.2c0,0.6,0.1,1.1,0.3,1.5
	c0.2,0.4,0.4,0.8,0.8,1.1c0.3,0.3,0.7,0.5,1.1,0.7c0.4,0.1,0.9,0.2,1.3,0.2c1,0,1.8-0.3,2.3-0.8s0.9-1.2,1-2L330,603.3z
	 M336.2,602.6c0,0.4,0.1,0.7,0.3,1.1c0.2,0.3,0.4,0.6,0.7,0.8c0.3,0.2,0.6,0.4,1,0.5s0.8,0.2,1.2,0.2c0.8,0,1.4-0.1,1.9-0.4
	c0.4-0.3,0.7-0.6,0.9-1l2.8,1.6c-0.2,0.3-0.4,0.7-0.6,1c-0.3,0.3-0.6,0.7-1.1,1c-0.4,0.3-1,0.5-1.6,0.7s-1.4,0.3-2.2,0.3
	c-1,0-1.9-0.2-2.7-0.5c-0.8-0.3-1.5-0.8-2.1-1.4c-0.6-0.6-1-1.3-1.4-2.2c-0.3-0.8-0.5-1.8-0.5-2.9v-0.2c0-1,0.2-1.9,0.5-2.7
	s0.8-1.5,1.4-2.1s1.3-1,2.1-1.3c0.8-0.3,1.6-0.5,2.5-0.5c1.1,0,2.1,0.2,2.9,0.6c0.8,0.4,1.5,0.9,2,1.5s0.9,1.2,1.1,2
	c0.2,0.7,0.4,1.4,0.4,2.1v1.7h-9.5L336.2,602.6L336.2,602.6z M339.3,597.7c-0.8,0-1.5,0.2-2,0.7c-0.5,0.4-0.9,0.9-1,1.5h6.1
	c-0.1-0.6-0.4-1.1-1-1.5C340.8,597.9,340.1,597.7,339.3,597.7z"/>
<g>
	<g>
		<path class="st0" d="M965,136l2.7-3.2c2,1.8,4.6,3,7.3,3c3,0,4.7-1.3,4.7-3.2c0-2.3-1.8-3-4.3-4l-3.6-1.6
			c-2.7-1.1-5.6-3.1-5.6-6.9c0-4.2,3.7-7.4,9.1-7.4c3.2,0,6.2,1.2,8.4,3.3l-2.4,3c-1.8-1.4-3.6-2.2-6.2-2.2c-2.5,0-4.2,1.1-4.2,3.1
			s2.1,2.8,4.5,3.7l3.4,1.5c3.3,1.3,5.7,3.3,5.7,7c0,4.2-3.6,7.8-9.7,7.8C971.1,139.8,967.6,138.4,965,136z"/>
		<path class="st0" d="M988.7,113.2h8.6c5.7,0,10,2,10,8.1c0,5.9-4.3,8.5-10,8.5h-3.9v9.6h-4.7L988.7,113.2L988.7,113.2z M996.9,126
			c3.9,0,5.7-1.6,5.7-4.8c0-3.2-1.9-4.3-5.7-4.3h-3.6v9.1C993.3,126,996.9,126,996.9,126z"/>
		<path class="st0" d="M1011.1,113.2h8.7c5.4,0,9.6,1.9,9.6,7.8c0,5.6-4.2,8.2-9.6,8.2h-4.1v10.2h-4.7L1011.1,113.2L1011.1,113.2z
			 M1019.3,125.4c3.6,0,5.5-1.5,5.5-4.5s-1.9-4-5.5-4h-3.6v8.5H1019.3z M1022.3,125.1l8.2,14.2h-5.2l-6.3-11.5L1022.3,125.1z"/>
		<path class="st0" d="M1033.6,135.4h6.3v-18.3h-6.3v-3.9h17.3v3.9h-6.3v18.3h6.3v3.9h-17.2L1033.6,135.4L1033.6,135.4z"/>
		<path class="st0" d="M1055.7,113.2h4.9l6.9,14.7l2.4,5.6h0.1c-0.2-2.7-0.6-6-0.6-8.9v-11.4h4.4v26.1h-4.9l-6.9-14.7l-2.4-5.6h-0.1
			c0.2,2.8,0.6,5.9,0.6,8.8v11.4h-4.4V113.2L1055.7,113.2z"/>
		<path class="st0" d="M1077.2,126.3c0-8.6,5.1-13.6,11.9-13.6c3.5,0,5.9,1.6,7.4,3.3l-2.6,2.8c-1.2-1.2-2.6-2.1-4.8-2.1
			c-4.2,0-7,3.6-7,9.4c0,6,2.5,9.6,7.1,9.6c1.4,0,2.8-0.4,3.5-1.1V129h-4.5v-3.8h8.7v11.5c-1.7,1.7-4.6,3.1-8,3.1
			C1082.2,139.8,1077.2,135,1077.2,126.3z"/>
		<path class="st0" d="M1122.9,136.6c8-6.9,12.8-11.4,12.8-15.3c0-3-1.6-4.9-4.8-4.9c-2.2,0-4.1,1.3-5.6,2.8l-2.6-2.5
			c2.5-2.5,5-4,8.8-4c5.2,0,8.7,3.3,8.7,8.4c0,4.6-4.6,9.3-10.5,14.6c1.5-0.1,3.3-0.2,4.7-0.2h7.2v3.9h-18.7V136.6z"/>
		<path class="st0" d="M1145.4,126.1c0-8.8,3.7-13.4,9.5-13.4c5.8,0,9.5,4.6,9.5,13.4s-3.7,13.7-9.5,13.7
			C1149.1,139.8,1145.4,134.9,1145.4,126.1z M1160.1,126.1c0-7.2-2.3-9.8-5.3-9.8s-5.3,2.6-5.3,9.8c0,7.2,2.3,10,5.3,10
			S1160.1,133.3,1160.1,126.1z M1152.1,126c0-1.8,1.2-2.8,2.7-2.8s2.7,1.1,2.7,2.8c0,1.8-1.2,2.8-2.7,2.8S1152.1,127.7,1152.1,126z"
			/>
		<path class="st0" d="M1168,136.6c8-6.9,12.8-11.4,12.8-15.3c0-3-1.6-4.9-4.8-4.9c-2.2,0-4.1,1.3-5.6,2.8l-2.6-2.5
			c2.5-2.5,5-4,8.8-4c5.2,0,8.7,3.3,8.7,8.4c0,4.6-4.6,9.3-10.5,14.6c1.5-0.1,3.3-0.2,4.7-0.2h7.2v3.9h-18.5v-2.8H1168z"/>
		<path class="st0" d="M1190.5,136.6c8-6.9,12.8-11.4,12.8-15.3c0-3-1.6-4.9-4.8-4.9c-2.2,0-4.1,1.3-5.6,2.8l-2.6-2.5
			c2.5-2.5,5-4,8.8-4c5.2,0,8.7,3.3,8.7,8.4c0,4.6-4.6,9.3-10.5,14.6c1.5-0.1,3.3-0.2,4.7-0.2h7.2v3.9h-18.5v-2.8H1190.5z"/>
	</g>
</g>
<g>
	<path class="st0" d="M988.7,284.6l-3.4-1.5c-2.4-0.9-4.5-1.7-4.5-3.7s1.7-3.1,4.2-3.1c2.6,0,4.4,0.8,6.2,2.2l2.4-3
		c-2.2-2.1-5.2-3.3-8.4-3.3c-5.4,0-9.1,3.2-9.1,7.4c0,3.8,2.9,5.8,5.6,6.9l3.6,1.6c2.5,1,4.3,1.7,4.3,4c0,1.9-1.7,3.2-4.7,3.2
		c-2.7,0-5.3-1.2-7.3-3l-2.7,3.2c2.6,2.4,6.1,3.8,9.8,3.9c6.1,0,9.7-3.6,9.7-7.8C994.4,287.9,992,285.9,988.7,284.6z"/>
	<path class="st0" d="M1007.2,272.7h-8.6l0,0v26.2h4.7v-9.6h3.9c5.7,0,10-2.6,10-8.5C1017.2,274.7,1012.9,272.7,1007.2,272.7z
		 M1006.8,285.5h-3.6v-9.1h3.6c3.8,0,5.7,1.1,5.7,4.3S1010.7,285.5,1006.8,285.5z"/>
	<path class="st0" d="M1039.3,280.5c0-5.9-4.2-7.8-9.6-7.8h-8.7h-0.1v26.2h4.7v-10.2h4.1l5.5,10.1h5.2l-6.2-10.8
		C1037.2,286.8,1039.3,284.4,1039.3,280.5z M1025.6,276.4h3.6c3.6,0,5.5,1,5.5,4s-1.9,4.5-5.5,4.5h-3.6V276.4z"/>
	<polygon class="st0" points="1043.5,276.6 1049.8,276.6 1049.8,294.9 1043.6,294.9 1043.6,298.8 1060.8,298.8 1060.8,294.9 
		1054.5,294.9 1054.5,276.6 1060.8,276.6 1060.8,272.7 1043.5,272.7 	"/>
	<path class="st0" d="M1079.3,284.1c0,2.9,0.4,6.2,0.6,8.9h-0.1l-2.4-5.6l-6.9-14.7h-4.9l0,0v26h4.4v-11.4c0-2.9-0.4-6-0.6-8.8h0.1
		l2.4,5.6l6.9,14.7h4.9v-26.1h-4.4V284.1z"/>
	<path class="st0" d="M1098.1,288.5h4.5v5.6c-0.7,0.7-2.1,1.1-3.5,1.1c-4.6,0-7.1-3.6-7.1-9.6c0-5.8,2.8-9.4,7-9.4
		c2.2,0,3.6,0.9,4.8,2.1l2.6-2.8c-1.5-1.7-3.9-3.3-7.4-3.3c-6.8,0-11.9,5-11.9,13.6c0,8.7,5,13.5,11.7,13.5c3.4,0,6.3-1.4,8-3.1
		v-11.5h-8.7V288.5z"/>
	<path class="st0" d="M1139.6,295.2c5.9-5.3,10.5-10,10.5-14.6c0-5.1-3.5-8.4-8.7-8.4c-3.8,0-6.3,1.5-8.8,4l2.6,2.5
		c1.5-1.5,3.4-2.8,5.6-2.8c3.2,0,4.8,1.9,4.8,4.9c0,3.9-4.8,8.4-12.8,15.3v2.8h18.7V295h-7.2C1142.9,295,1141.1,295.1,1139.6,295.2z
		"/>
	<path class="st0" d="M1164.8,272.2c-5.8,0-9.5,4.6-9.5,13.4s3.7,13.7,9.5,13.7s9.5-4.9,9.5-13.7S1170.6,272.2,1164.8,272.2z
		 M1164.7,295.6c-3,0-5.3-2.8-5.3-10s2.3-9.8,5.3-9.8s5.3,2.6,5.3,9.8S1167.7,295.6,1164.7,295.6z"/>
	<ellipse class="st0" cx="1164.7" cy="285.5" rx="2.7" ry="2.8"/>
	<path class="st0" d="M1184.7,295.2c5.9-5.3,10.5-10,10.5-14.6c0-5.1-3.5-8.4-8.7-8.4c-3.8,0-6.3,1.5-8.8,4l2.6,2.5
		c1.5-1.5,3.4-2.8,5.6-2.8c3.2,0,4.8,1.9,4.8,4.9c0,3.9-4.8,8.4-12.8,15.3h0.2v2.8h18.5V295h-7.2
		C1188,295,1186.2,295.1,1184.7,295.2z"/>
	<path class="st0" d="M1211.9,295c-1.4,0-3.2,0.1-4.7,0.2c5.9-5.3,10.5-10,10.5-14.6c0-5.1-3.5-8.4-8.7-8.4c-3.8,0-6.3,1.5-8.8,4
		l2.6,2.5c1.5-1.5,3.4-2.8,5.6-2.8c3.2,0,4.8,1.9,4.8,4.9c0,3.9-4.8,8.4-12.8,15.3h0.2v2.8h18.5V295H1211.9z"/>
</g>
<g>
	<g>
		<path class="st0" d="M662.3,109.2c0.7,0,1.3-0.1,1.7-0.3c0.4-0.2,0.8-0.5,1-0.9c0.2-0.4,0.4-0.8,0.5-1.2c0.1-0.5,0.1-0.9,0.1-1.4
			v-0.5h3.6v0.5c0,2.3-0.6,4.1-1.8,5.3c-1.2,1.2-2.9,1.9-5.2,1.9c-2.2,0-3.9-0.7-5.2-2c-1.3-1.3-1.9-3.3-1.9-5.9v-4.3
			c0-1.2,0.2-2.3,0.5-3.3c0.3-1,0.8-1.8,1.4-2.5c0.6-0.7,1.4-1.2,2.3-1.5c0.9-0.4,1.9-0.5,3-0.5c1.1,0,2.1,0.2,3,0.5
			c0.9,0.3,1.6,0.8,2.2,1.4c0.6,0.6,1,1.4,1.3,2.3c0.3,0.9,0.5,1.9,0.5,3v0.5h-3.6v-0.5c0-0.5-0.1-0.9-0.2-1.4
			c-0.1-0.5-0.3-0.9-0.5-1.2c-0.3-0.4-0.6-0.7-1-0.9c-0.4-0.2-1-0.3-1.6-0.3c-0.6,0-1.1,0.1-1.6,0.3c-0.4,0.2-0.8,0.5-1.1,0.9
			c-0.3,0.4-0.5,0.9-0.6,1.4c-0.1,0.5-0.2,1.1-0.2,1.6v4.8c0,0.6,0.1,1.2,0.2,1.7c0.1,0.5,0.3,1,0.6,1.4c0.3,0.4,0.6,0.7,1.1,0.9
			C661.1,109.1,661.6,109.2,662.3,109.2z"/>
		<path class="st0" d="M672,100.4c0-2.5,0.6-4.4,1.9-5.8c1.3-1.4,3-2.1,5.2-2.1c2.2,0,4,0.7,5.2,2.1c1.3,1.4,1.9,3.3,1.9,5.8v4.3
			c0,2.6-0.6,4.5-1.9,5.9c-1.3,1.3-3,2-5.2,2c-2.2,0-4-0.7-5.2-2c-1.3-1.3-1.9-3.3-1.9-5.9V100.4z M679,109.2c0.7,0,1.2-0.1,1.6-0.3
			c0.4-0.2,0.8-0.5,1.1-0.9c0.3-0.4,0.5-0.8,0.6-1.4c0.1-0.5,0.2-1.1,0.2-1.8v-4.7c0-0.6-0.1-1.2-0.2-1.7c-0.1-0.5-0.3-1-0.6-1.4
			c-0.3-0.4-0.6-0.7-1.1-0.9c-0.4-0.2-1-0.3-1.6-0.3c-0.6,0-1.2,0.1-1.6,0.3c-0.4,0.2-0.8,0.5-1.1,0.9c-0.3,0.4-0.5,0.8-0.6,1.4
			c-0.1,0.5-0.2,1.1-0.2,1.7v4.7c0,0.6,0.1,1.2,0.2,1.8c0.1,0.5,0.3,1,0.6,1.4s0.6,0.7,1.1,0.9C677.8,109.1,678.4,109.2,679,109.2z"
			/>
		<path class="st0" d="M688.1,92.9h6.4l1.1,14.5v2.8h0.7v-2.8l1.1-14.5h6.4v19.2h-3.3V99.3l0.3-4.4H700l-1.4,17.3h-5.4l-1.5-17.3
			H691l0.3,4.4v12.9h-3.3V92.9z"/>
		<path class="st0" d="M706.3,92.9h12.9v3.5h-4.6v12.3h4.6v3.5h-12.9v-3.5h4.6V96.3h-4.6V92.9z"/>
		<path class="st0" d="M732.1,110.3h0.5V92.9h3.6v19.2h-7.1l-2.3-17.4h-0.5v17.4h-3.6V92.9h7.1L732.1,110.3z"/>
		<path class="st0" d="M745.1,102.4h8.2v9.7H750V110h-0.5c-0.2,0.7-0.6,1.3-1.3,1.8c-0.6,0.5-1.6,0.7-2.8,0.7
			c-0.9,0-1.7-0.2-2.5-0.5c-0.8-0.3-1.4-0.8-2-1.5s-1-1.5-1.3-2.4c-0.3-1-0.5-2.1-0.5-3.4v-4.5c0-1.2,0.2-2.4,0.5-3.3
			c0.4-1,0.9-1.8,1.5-2.4c0.6-0.7,1.4-1.2,2.3-1.5c0.9-0.3,1.9-0.5,2.9-0.5c1.1,0,2.1,0.2,2.9,0.5s1.6,0.9,2.2,1.5
			c0.6,0.6,1.1,1.4,1.4,2.2c0.3,0.9,0.5,1.8,0.5,2.7v0.3h-3.6v-0.3c0-1.2-0.3-2-0.9-2.6c-0.6-0.6-1.4-0.9-2.5-0.9
			c-1,0-1.9,0.3-2.5,1c-0.7,0.7-1,1.9-1,3.5v4.1c0,3,1.2,4.5,3.6,4.5c1.1,0,1.9-0.3,2.5-0.9c0.6-0.6,0.8-1.4,0.8-2.3h-4.6V102.4z"/>
		<path class="st0" d="M772.8,108.7h1.8V96.3h-1.8v-3.5h8.4c0.9,0,1.7,0.1,2.4,0.4c0.7,0.3,1.3,0.6,1.8,1c0.5,0.4,0.9,1,1.1,1.6
			c0.2,0.6,0.4,1.3,0.4,2v0.3c0,1.1-0.3,2-0.9,2.6c-0.6,0.7-1.4,1.1-2.3,1.4v0.5c0.9,0.3,1.7,0.7,2.3,1.4c0.6,0.7,0.9,1.6,0.9,2.7
			v0.3c0,0.7-0.1,1.4-0.4,2c-0.2,0.6-0.6,1.1-1.1,1.6c-0.5,0.4-1.1,0.8-1.8,1.1c-0.7,0.3-1.5,0.4-2.4,0.4h-8.4V108.7z M778.3,100.7
			h2.6c0.8,0,1.4-0.2,1.9-0.5c0.5-0.3,0.7-0.9,0.7-1.6v-0.2c0-0.8-0.2-1.3-0.7-1.6c-0.5-0.3-1.1-0.5-1.9-0.5h-2.6V100.7z
			 M778.3,108.7h2.6c0.8,0,1.4-0.2,1.9-0.5c0.5-0.3,0.7-0.9,0.7-1.7v-0.2c0-0.8-0.2-1.3-0.7-1.6c-0.5-0.3-1.1-0.5-1.9-0.5h-2.6
			V108.7z"/>
		<path class="st0" d="M800.1,108h-6.5l-0.9,4.1h-3.8l4.6-19.2h6.8l4.6,19.2H801L800.1,108z M794.3,104.5h5l-2.2-9.8h-0.5
			L794.3,104.5z"/>
		<path class="st0" d="M813.7,109.2c0.7,0,1.3-0.1,1.7-0.3c0.4-0.2,0.8-0.5,1-0.9c0.2-0.4,0.4-0.8,0.5-1.2c0.1-0.5,0.1-0.9,0.1-1.4
			v-0.5h3.6v0.5c0,2.3-0.6,4.1-1.8,5.3c-1.2,1.2-2.9,1.9-5.2,1.9c-2.2,0-3.9-0.7-5.2-2c-1.3-1.3-1.9-3.3-1.9-5.9v-4.3
			c0-1.2,0.2-2.3,0.5-3.3c0.3-1,0.8-1.8,1.4-2.5c0.6-0.7,1.4-1.2,2.3-1.5c0.9-0.4,1.9-0.5,3-0.5c1.1,0,2.1,0.2,3,0.5
			c0.9,0.3,1.6,0.8,2.2,1.4c0.6,0.6,1,1.4,1.3,2.3c0.3,0.9,0.5,1.9,0.5,3v0.5h-3.6v-0.5c0-0.5-0.1-0.9-0.2-1.4
			c-0.1-0.5-0.3-0.9-0.5-1.2c-0.3-0.4-0.6-0.7-1-0.9c-0.4-0.2-1-0.3-1.6-0.3c-0.6,0-1.1,0.1-1.6,0.3c-0.4,0.2-0.8,0.5-1.1,0.9
			c-0.3,0.4-0.5,0.9-0.6,1.4c-0.1,0.5-0.2,1.1-0.2,1.6v4.8c0,0.6,0.1,1.2,0.2,1.7c0.1,0.5,0.3,1,0.6,1.4c0.3,0.4,0.6,0.7,1.1,0.9
			C812.5,109.1,813,109.2,813.7,109.2z"/>
		<path class="st0" d="M827.8,112.1h-3.6V92.9h3.6v7.9h0.8l5.1-7.9h4.1V93l-5.9,9.2v0.5l6.3,9.2v0.2h-4.3l-5.2-7.9h-0.8V112.1z"/>
		<path class="st0" d="M689.4,125.9h12.9v3.5h-4.6v12.3h4.6v3.5h-12.9v-3.5h4.6v-12.3h-4.6V125.9z"/>
		<path class="st0" d="M715.3,143.3h0.5v-17.4h3.6v19.2h-7.1l-2.3-17.4h-0.5v17.4H706v-19.2h7.1L715.3,143.3z"/>
		<path class="st0" d="M753.2,141.6v3.5h-13.5v-3.8c0-1,0.2-1.9,0.5-2.6s0.7-1.3,1.3-1.8c0.6-0.5,1.2-0.9,2-1.2
			c0.8-0.3,1.7-0.6,2.7-0.8c0.7-0.2,1.3-0.4,1.8-0.6c0.5-0.2,0.8-0.4,1.1-0.7c0.3-0.3,0.5-0.6,0.6-0.9c0.1-0.3,0.2-0.7,0.2-1.1
			c0-0.8-0.3-1.4-0.8-1.9s-1.3-0.8-2.3-0.8c-1,0-1.9,0.3-2.5,0.9c-0.6,0.6-0.9,1.5-0.9,2.6v1.2h-3.6v-1.5c0-0.9,0.2-1.8,0.5-2.6
			c0.3-0.8,0.8-1.5,1.4-2.1c0.6-0.6,1.3-1.1,2.2-1.5c0.9-0.4,1.8-0.5,2.9-0.5c1.2,0,2.2,0.2,3,0.5c0.9,0.3,1.6,0.8,2.2,1.3
			c0.6,0.5,1,1.2,1.3,1.9c0.3,0.7,0.4,1.5,0.4,2.2v0.3c0,1.6-0.5,2.9-1.4,4c-0.9,1.1-2.4,1.8-4.4,2.3c-0.9,0.2-1.6,0.4-2.1,0.6
			c-0.6,0.2-1,0.4-1.3,0.7c-0.3,0.3-0.5,0.5-0.6,0.8c-0.1,0.3-0.2,0.6-0.2,1v0.3H753.2z"/>
		<path class="st0" d="M756.1,133.3c0-2.5,0.6-4.4,1.9-5.8c1.3-1.4,3-2.1,5.2-2.1c2.2,0,4,0.7,5.2,2.1c1.3,1.4,1.9,3.3,1.9,5.8v4.3
			c0,2.6-0.6,4.5-1.9,5.9c-1.3,1.3-3,2-5.2,2c-2.2,0-4-0.7-5.2-2c-1.3-1.3-1.9-3.3-1.9-5.9V133.3z M763.1,142.2
			c0.7,0,1.2-0.1,1.6-0.3c0.4-0.2,0.8-0.5,1.1-0.9c0.3-0.4,0.5-0.8,0.6-1.4c0.1-0.5,0.2-1.1,0.2-1.8v-4.7c0-0.6-0.1-1.2-0.2-1.7
			c-0.1-0.5-0.3-1-0.6-1.4c-0.3-0.4-0.6-0.7-1.1-0.9c-0.4-0.2-1-0.3-1.6-0.3c-0.6,0-1.2,0.1-1.6,0.3c-0.4,0.2-0.8,0.5-1.1,0.9
			c-0.3,0.4-0.5,0.8-0.6,1.4c-0.1,0.5-0.2,1.1-0.2,1.7v4.7c0,0.6,0.1,1.2,0.2,1.8c0.1,0.5,0.3,1,0.6,1.4s0.6,0.7,1.1,0.9
			C761.9,142.1,762.5,142.2,763.1,142.2z M760.8,135.5c0-0.6,0.2-1.2,0.7-1.6c0.5-0.5,1-0.7,1.6-0.7c0.6,0,1.2,0.2,1.6,0.7
			c0.5,0.5,0.7,1,0.7,1.6s-0.2,1.2-0.7,1.6c-0.5,0.5-1,0.7-1.6,0.7c-0.6,0-1.2-0.2-1.6-0.7C761.1,136.6,760.8,136.1,760.8,135.5z"/>
		<path class="st0" d="M786.9,141.6v3.5h-13.5v-3.8c0-1,0.2-1.9,0.5-2.6c0.3-0.7,0.7-1.3,1.3-1.8c0.6-0.5,1.2-0.9,2-1.2
			c0.8-0.3,1.7-0.6,2.7-0.8c0.7-0.2,1.3-0.4,1.8-0.6c0.5-0.2,0.8-0.4,1.1-0.7c0.3-0.3,0.5-0.6,0.6-0.9c0.1-0.3,0.2-0.7,0.2-1.1
			c0-0.8-0.3-1.4-0.8-1.9s-1.3-0.8-2.3-0.8c-1,0-1.9,0.3-2.5,0.9c-0.6,0.6-0.9,1.5-0.9,2.6v1.2h-3.6v-1.5c0-0.9,0.2-1.8,0.5-2.6
			c0.3-0.8,0.8-1.5,1.4-2.1c0.6-0.6,1.3-1.1,2.2-1.5c0.9-0.4,1.8-0.5,2.9-0.5c1.2,0,2.2,0.2,3,0.5c0.9,0.3,1.6,0.8,2.2,1.3
			s1,1.2,1.3,1.9c0.3,0.7,0.4,1.5,0.4,2.2v0.3c0,1.6-0.5,2.9-1.4,4c-0.9,1.1-2.4,1.8-4.4,2.3c-0.9,0.2-1.6,0.4-2.1,0.6
			c-0.6,0.2-1,0.4-1.3,0.7c-0.3,0.3-0.5,0.5-0.6,0.8s-0.2,0.6-0.2,1v0.3H786.9z"/>
		<path class="st0" d="M803.7,141.6v3.5h-13.5v-3.8c0-1,0.2-1.9,0.5-2.6c0.3-0.7,0.7-1.3,1.3-1.8c0.6-0.5,1.2-0.9,2-1.2
			c0.8-0.3,1.7-0.6,2.7-0.8c0.7-0.2,1.3-0.4,1.8-0.6c0.5-0.2,0.8-0.4,1.1-0.7c0.3-0.3,0.5-0.6,0.6-0.9c0.1-0.3,0.2-0.7,0.2-1.1
			c0-0.8-0.3-1.4-0.8-1.9s-1.3-0.8-2.3-0.8c-1,0-1.9,0.3-2.5,0.9c-0.6,0.6-0.9,1.5-0.9,2.6v1.2H790v-1.5c0-0.9,0.2-1.8,0.5-2.6
			c0.3-0.8,0.8-1.5,1.4-2.1c0.6-0.6,1.3-1.1,2.2-1.5c0.9-0.4,1.8-0.5,2.9-0.5c1.2,0,2.2,0.2,3,0.5c0.9,0.3,1.6,0.8,2.2,1.3
			s1,1.2,1.3,1.9c0.3,0.7,0.4,1.5,0.4,2.2v0.3c0,1.6-0.5,2.9-1.4,4c-0.9,1.1-2.4,1.8-4.4,2.3c-0.9,0.2-1.6,0.4-2.1,0.6
			c-0.6,0.2-1,0.4-1.3,0.7c-0.3,0.3-0.5,0.5-0.6,0.8s-0.2,0.6-0.2,1v0.3H803.7z"/>
	</g>
</g>
</svg>
