<?xml version="1.0" encoding="utf-8"?>
<!-- Generator: Adobe Illustrator 25.4.1, SVG Export Plug-In . SVG Version: 6.00 Build 0)  -->
<svg version="1.1"
	 id="svg3069" xmlns:cc="http://creativecommons.org/ns#" xmlns:dc="http://purl.org/dc/elements/1.1/" xmlns:inkscape="http://www.inkscape.org/namespaces/inkscape" xmlns:rdf="http://www.w3.org/1999/02/22-rdf-syntax-ns#" xmlns:sodipodi="http://sodipodi.sourceforge.net/DTD/sodipodi-0.dtd" xmlns:svg="http://www.w3.org/2000/svg"
	 xmlns="http://www.w3.org/2000/svg" xmlns:xlink="http://www.w3.org/1999/xlink" x="0px" y="0px" viewBox="0 0 314 458"
	 style="enable-background:new 0 0 314 458;" xml:space="preserve">
<style type="text/css">
	.st0{fill:#FFFFFF;}
	.st1{fill:#75FA4C;}
	.st2{fill:#0020F5;}
	.st3{fill:#E63623;}
	.st4{clip-path:url(#SVGID_00000045593831057874838950000007027801999667116690_);}
	.st5{clip-path:url(#SVGID_00000137843132997922831590000003010388648610676404_);}
	.st6{fill:#EE2524;}
	.st7{clip-path:url(#SVGID_00000085237540289453516390000012478557398044954513_);}
	.st8{clip-path:url(#SVGID_00000133528850320087175220000004522450514337622435_);}
	.st9{clip-path:url(#SVGID_00000098197576889439531620000008237655656617642398_);}
</style>
<sodipodi:namedview  bordercolor="#666666" borderopacity="1" gridtolerance="10" guidetolerance="10" id="namedview3071" inkscape:current-layer="svg3069" inkscape:cx="147.68188" inkscape:cy="312.16449" inkscape:pageopacity="0" inkscape:pageshadow="2" inkscape:window-height="2032" inkscape:window-maximized="1" inkscape:window-width="3840" inkscape:window-x="0" inkscape:window-y="54" inkscape:zoom="5.6568543" objecttolerance="10" pagecolor="#000000" showgrid="true">
	<inkscape:grid  id="grid3654" type="xygrid"></inkscape:grid>
</sodipodi:namedview>
<circle id="circle2668" class="st0" cx="16" cy="112" r="16"/>
<circle id="circle2670" class="st1" cx="16" cy="158" r="16"/>
<circle id="circle2672" class="st0" cx="16" cy="441" r="16"/>
<circle id="circle2674" class="st2" cx="16" cy="253" r="16"/>
<circle id="circle2676" class="st3" cx="5.3" cy="196.3" r="5.3"/>
<circle id="circle2678" class="st3" cx="26.7" cy="196.3" r="5.3"/>
<circle id="circle2680" class="st3" cx="5.3" cy="215.2" r="5.3"/>
<circle id="circle2682" class="st3" cx="26.7" cy="215.2" r="5.3"/>
<path id="path2684" class="st3" d="M0,18C0,9.2,7.2,2,16,2s16,7.2,16,16v47c0,8.8-7.2,16-16,16S0,73.8,0,65V18z"/>
<circle id="circle2686" class="st2" cx="16" cy="18" r="16"/>
<circle id="circle2688" class="st0" cx="16" cy="65" r="16"/>
<circle id="circle2690" cx="16" cy="65" r="5"/>
<path id="path2692" class="st0" d="M68.3,27.2H57.6L56.1,34h-6.2l7.5-31.5h11.2L76.1,34h-6.2L68.3,27.2z M58.9,21.6H67L63.4,5.5
	h-0.8L58.9,21.6z"/>
<path id="path2694" class="st0" d="M52.9,49.5h5.9v25.8h14.3V81H52.9V49.5z"/>
<path id="path2696" class="st0" d="M52.9,96.5h5.9v25.8h14.3v5.7H52.9V96.5z"/>
<path id="path2698" class="st0" d="M115.4,59.1c0-1.3-0.5-2.4-1.5-3.3c-1-0.9-2.3-1.4-4.1-1.4c-1.5,0-2.7,0.3-3.6,0.9
	c-0.9,0.6-1.3,1.4-1.3,2.5c0,0.5,0.1,1,0.3,1.5c0.2,0.4,0.6,0.8,1.1,1.2c0.5,0.3,1.2,0.6,2.1,0.9c0.9,0.3,2,0.5,3.3,0.8
	c3.3,0.6,5.8,1.6,7.6,3c1.8,1.4,2.6,3.5,2.6,6.3V72c0,1.5-0.3,2.8-0.8,4s-1.3,2.2-2.2,3s-2.2,1.5-3.6,1.9s-3,0.7-4.8,0.7
	c-2.1,0-3.9-0.3-5.5-0.9s-2.9-1.4-3.9-2.4c-1.1-1.1-1.8-2.3-2.4-3.6c-0.5-1.4-0.8-2.9-0.8-4.6v-1.3h5.9v1.1c0,1.9,0.5,3.4,1.6,4.5
	s2.8,1.7,5.1,1.7c1.8,0,3.1-0.4,4-1.2c0.9-0.8,1.3-1.7,1.3-2.8c0-0.5-0.1-1-0.3-1.4c-0.2-0.5-0.5-0.9-0.9-1.3s-1.1-0.7-1.8-1
	s-1.8-0.6-3-0.8c-1.6-0.3-3-0.6-4.4-1c-1.3-0.4-2.5-1-3.5-1.8c-1-0.7-1.7-1.6-2.2-2.7s-0.8-2.4-0.8-4v-0.3c0-1.3,0.3-2.5,0.8-3.6
	s1.3-2.1,2.2-2.9c1-0.8,2.1-1.4,3.4-1.9s2.8-0.7,4.5-0.7c1.9,0,3.5,0.3,4.9,0.8s2.6,1.2,3.6,2.1c1,0.9,1.7,1.9,2.2,3.1
	c0.5,1.2,0.8,2.4,0.8,3.7V60h-5.9L115.4,59.1L115.4,59.1z"/>
<circle id="circle2700" class="st2" cx="63" cy="239.7" r="2.7"/>
<circle id="circle2702" class="st2" cx="76.3" cy="239.7" r="2.7"/>
<circle id="circle2704" class="st2" cx="49.7" cy="253" r="2.7"/>
<circle id="circle2706" class="st2" cx="63" cy="253" r="2.7"/>
<circle id="circle2708" class="st2" cx="76.3" cy="253" r="2.7"/>
<circle id="circle2710" class="st2" cx="49.7" cy="266.3" r="2.7"/>
<ellipse id="circle2712" transform="matrix(6.652072e-02 -0.9978 0.9978 6.652072e-02 -206.9153 311.4365)" class="st2" cx="63" cy="266.3" rx="2.7" ry="2.7"/>
<circle id="circle2714" class="st2" cx="76.3" cy="266.3" r="2.7"/>
<circle id="circle2716" class="st2" cx="49.7" cy="239.7" r="2.7"/>
<path id="path2718" class="st0" d="M47.7,429.9h6.6v1.6h-2.4v7.5h-1.7v-7.5h-2.4L47.7,429.9L47.7,429.9z M57.6,439H56v-9.1h1.6v3.7
	h0.2c0.2-0.4,0.4-0.7,0.7-0.9c0.3-0.2,0.7-0.3,1.2-0.3c0.3,0,0.6,0.1,0.9,0.2c0.3,0.1,0.5,0.3,0.7,0.5s0.4,0.5,0.5,0.8
	s0.2,0.7,0.2,1.1v4.1h-1.6v-3.7c0-0.5-0.1-0.8-0.3-1.1c-0.2-0.3-0.5-0.4-0.9-0.4c-0.5,0-0.8,0.2-1.1,0.5c-0.2,0.3-0.4,0.8-0.4,1.3
	C57.6,435.6,57.6,439,57.6,439z M65.4,436.3c0,0.2,0.1,0.4,0.1,0.5c0.1,0.2,0.2,0.3,0.3,0.4c0.1,0.1,0.3,0.2,0.5,0.3
	c0.2,0.1,0.4,0.1,0.6,0.1c0.4,0,0.7-0.1,0.9-0.2c0.2-0.1,0.4-0.3,0.5-0.5l1.4,0.8c-0.1,0.2-0.2,0.3-0.3,0.5
	c-0.1,0.2-0.3,0.3-0.5,0.5c-0.2,0.1-0.5,0.3-0.8,0.4s-0.7,0.1-1.1,0.1c-0.5,0-0.9-0.1-1.3-0.2c-0.4-0.2-0.7-0.4-1-0.7
	c-0.3-0.3-0.5-0.7-0.7-1.1s-0.2-0.9-0.2-1.4v-0.1c0-0.5,0.1-0.9,0.2-1.4c0.2-0.4,0.4-0.8,0.7-1s0.6-0.5,1-0.7s0.8-0.2,1.3-0.2
	c0.6,0,1,0.1,1.4,0.3c0.4,0.2,0.7,0.4,1,0.7c0.3,0.3,0.5,0.6,0.6,1s0.2,0.7,0.2,1v0.9L65.4,436.3L65.4,436.3z M66.9,433.9
	c-0.4,0-0.8,0.1-1,0.3c-0.3,0.2-0.4,0.5-0.5,0.7h3c-0.1-0.3-0.2-0.6-0.5-0.8C67.7,434,67.3,433.9,66.9,433.9z M79.8,432.6h1.8v-1.3
	c0-0.4,0.1-0.7,0.4-0.9c0.3-0.3,0.6-0.4,0.9-0.4h2.6v1.6h-1.9c-0.2,0-0.4,0.1-0.4,0.4v0.7h2.5v1.6h-2.5v4.9h-1.6v-4.9h-1.8V432.6z
	 M94.1,435.9c0,0.5-0.1,1-0.3,1.4c-0.2,0.4-0.4,0.8-0.7,1c-0.3,0.3-0.7,0.5-1.1,0.6s-0.8,0.2-1.3,0.2s-0.9-0.1-1.3-0.2
	s-0.8-0.4-1.1-0.6c-0.3-0.3-0.6-0.6-0.7-1c-0.2-0.4-0.3-0.9-0.3-1.4v-0.2c0-0.5,0.1-1,0.3-1.4c0.2-0.4,0.4-0.8,0.7-1.1
	s0.7-0.5,1.1-0.6s0.8-0.2,1.3-0.2s0.9,0.1,1.3,0.2s0.8,0.4,1.1,0.6c0.3,0.3,0.6,0.6,0.7,1.1c0.2,0.4,0.3,0.9,0.3,1.4V435.9z
	 M90.8,437.6c0.2,0,0.5,0,0.7-0.1s0.4-0.2,0.5-0.3s0.3-0.3,0.4-0.5s0.1-0.5,0.1-0.7v-0.3c0-0.3,0-0.5-0.1-0.7s-0.2-0.4-0.4-0.5
	s-0.3-0.3-0.5-0.3s-0.4-0.1-0.7-0.1s-0.5,0-0.7,0.1s-0.4,0.2-0.5,0.3s-0.3,0.3-0.4,0.5s-0.1,0.4-0.1,0.7v0.3c0,0.3,0,0.5,0.1,0.7
	s0.2,0.4,0.4,0.5s0.3,0.3,0.5,0.3S90.5,437.6,90.8,437.6z M100.1,432.6h1.6v6.4h-1.6v-0.9h-0.2c-0.3,0.7-0.9,1.1-1.8,1.1
	c-0.3,0-0.6-0.1-0.9-0.2s-0.5-0.3-0.7-0.5s-0.4-0.5-0.5-0.8s-0.2-0.7-0.2-1.2v-4h1.6v3.7c0,0.5,0.1,0.8,0.3,1.1
	c0.2,0.3,0.5,0.4,1,0.4s0.9-0.2,1.1-0.5s0.4-0.8,0.4-1.3C100.1,435.9,100.1,432.6,100.1,432.6z M105.4,439h-1.6v-6.4h1.6v1h0.2
	c0.1-0.4,0.4-0.6,0.7-0.8c0.3-0.2,0.7-0.3,1.2-0.3c0.3,0,0.6,0.1,0.9,0.2s0.5,0.2,0.7,0.5c0.2,0.2,0.4,0.5,0.5,0.8s0.2,0.7,0.2,1.1
	v4.1h-1.6v-3.7c0-0.5-0.1-0.8-0.3-1.1c-0.2-0.3-0.5-0.4-0.9-0.4c-0.5,0-0.8,0.2-1.1,0.5c-0.2,0.3-0.4,0.8-0.4,1.3L105.4,439
	L105.4,439z M116.3,438.1h-0.2c-0.1,0.1-0.2,0.3-0.3,0.4c-0.1,0.1-0.2,0.2-0.4,0.4c-0.2,0.1-0.3,0.2-0.6,0.2
	c-0.2,0.1-0.5,0.1-0.8,0.1c-0.4,0-0.8-0.1-1.1-0.2c-0.3-0.1-0.6-0.4-0.9-0.6c-0.3-0.3-0.5-0.6-0.6-1s-0.2-0.9-0.2-1.4v-0.2
	c0-0.5,0.1-1,0.2-1.4c0.2-0.4,0.4-0.8,0.6-1c0.3-0.3,0.6-0.5,0.9-0.6c0.4-0.1,0.7-0.2,1.1-0.2c0.5,0,0.9,0.1,1.2,0.3
	c0.3,0.2,0.5,0.5,0.7,0.8h0.2v-3.6h1.6v9.1h-1.6v-1.1L116.3,438.1L116.3,438.1z M114.6,437.6c0.5,0,0.9-0.2,1.2-0.5
	c0.3-0.3,0.5-0.8,0.5-1.3v-0.2c0-0.5-0.2-1-0.5-1.3s-0.7-0.5-1.2-0.5s-0.9,0.2-1.2,0.5c-0.3,0.3-0.5,0.7-0.5,1.3v0.2
	c0,0.5,0.2,1,0.5,1.3C113.7,437.5,114.1,437.6,114.6,437.6z M123.8,438.1c-0.2,0.4-0.4,0.7-0.7,0.9c-0.3,0.2-0.7,0.2-1.1,0.2
	s-0.8-0.1-1.1-0.2c-0.3-0.1-0.6-0.4-0.9-0.6c-0.3-0.3-0.5-0.6-0.6-1s-0.2-0.9-0.2-1.4v-0.2c0-0.5,0.1-1,0.2-1.4s0.3-0.8,0.6-1
	c0.3-0.3,0.5-0.5,0.9-0.6c0.3-0.2,0.7-0.2,1.1-0.2c0.5,0,0.8,0.1,1.1,0.2c0.3,0.2,0.5,0.4,0.7,0.7h0.2v-0.8h1.6v4.5
	c0,0.3,0.1,0.4,0.4,0.4h0.2v1.6h-1.1c-0.3,0-0.5-0.1-0.7-0.3c-0.2-0.2-0.3-0.4-0.3-0.7h-0.3C123.8,438.2,123.8,438.1,123.8,438.1z
	 M122.4,437.6c0.5,0,0.9-0.2,1.1-0.5c0.3-0.3,0.4-0.8,0.4-1.3v-0.2c0-0.5-0.1-1-0.4-1.3s-0.7-0.5-1.1-0.5c-0.5,0-0.9,0.2-1.1,0.5
	c-0.3,0.3-0.4,0.7-0.4,1.3v0.2c0,0.5,0.1,1,0.4,1.3C121.5,437.5,121.9,437.6,122.4,437.6z M127.4,432.6h1.9v-2.7h1.6v2.7h2.3v1.6
	H131v2.9c0,0.3,0.1,0.4,0.4,0.4h1.7v1.6h-2.7c-0.3,0-0.5-0.1-0.7-0.3c-0.2-0.2-0.3-0.4-0.3-0.7v-3.9h-1.9L127.4,432.6L127.4,432.6z
	 M135.7,437.4h2.2v-3.3h-2v-1.6h3.7v4.9h1.9v1.6h-5.7L135.7,437.4L135.7,437.4z M139.9,430.6c0,0.2,0,0.3-0.1,0.5
	c-0.1,0.1-0.1,0.3-0.3,0.4c-0.1,0.1-0.2,0.2-0.4,0.3c-0.1,0.1-0.3,0.1-0.5,0.1s-0.3,0-0.5-0.1c-0.1-0.1-0.3-0.2-0.4-0.3
	c-0.1-0.1-0.2-0.2-0.3-0.4c-0.1-0.2-0.1-0.3-0.1-0.5s0-0.3,0.1-0.5s0.2-0.3,0.3-0.4s0.2-0.2,0.4-0.3c0.1-0.1,0.3-0.1,0.5-0.1
	s0.3,0,0.5,0.1s0.3,0.1,0.4,0.3c0.1,0.1,0.2,0.2,0.3,0.4S139.9,430.5,139.9,430.6z M149.9,435.9c0,0.5-0.1,1-0.3,1.4s-0.4,0.8-0.7,1
	c-0.3,0.3-0.7,0.5-1.1,0.6c-0.4,0.1-0.8,0.2-1.3,0.2s-0.9-0.1-1.3-0.2c-0.4-0.1-0.8-0.4-1.1-0.6c-0.3-0.3-0.6-0.6-0.7-1
	c-0.2-0.4-0.3-0.9-0.3-1.4v-0.2c0-0.5,0.1-1,0.3-1.4s0.4-0.8,0.7-1.1s0.7-0.5,1.1-0.6c0.4-0.1,0.8-0.2,1.3-0.2s0.9,0.1,1.3,0.2
	c0.4,0.1,0.8,0.4,1.1,0.6s0.6,0.6,0.7,1.1c0.2,0.4,0.3,0.9,0.3,1.4V435.9z M146.5,437.6c0.2,0,0.5,0,0.7-0.1s0.4-0.2,0.5-0.3
	s0.3-0.3,0.4-0.5c0.1-0.2,0.1-0.5,0.1-0.7v-0.3c0-0.3,0-0.5-0.1-0.7s-0.2-0.4-0.4-0.5s-0.3-0.3-0.5-0.3c-0.2-0.1-0.4-0.1-0.7-0.1
	s-0.5,0-0.7,0.1s-0.4,0.2-0.5,0.3s-0.3,0.3-0.4,0.5c-0.1,0.2-0.1,0.4-0.1,0.7v0.3c0,0.3,0,0.5,0.1,0.7s0.2,0.4,0.4,0.5
	s0.3,0.3,0.5,0.3C146,437.6,146.3,437.6,146.5,437.6z M153.1,439h-1.6v-6.4h1.6v1h0.2c0.1-0.4,0.4-0.6,0.7-0.8
	c0.3-0.2,0.7-0.3,1.2-0.3c0.3,0,0.6,0.1,0.9,0.2c0.3,0.1,0.5,0.2,0.7,0.5c0.2,0.2,0.4,0.5,0.5,0.8s0.2,0.7,0.2,1.1v4.1h-1.6v-3.7
	c0-0.5-0.1-0.8-0.3-1.1c-0.2-0.3-0.5-0.4-0.9-0.4c-0.5,0-0.8,0.2-1.1,0.5c-0.2,0.3-0.4,0.8-0.4,1.3L153.1,439L153.1,439z
	 M163.6,438.1c-0.2,0.4-0.4,0.7-0.7,0.9c-0.3,0.2-0.7,0.2-1.1,0.2c-0.4,0-0.8-0.1-1.1-0.2s-0.6-0.4-0.9-0.6c-0.3-0.3-0.5-0.6-0.6-1
	s-0.2-0.9-0.2-1.4v-0.2c0-0.5,0.1-1,0.2-1.4c0.1-0.4,0.3-0.8,0.6-1c0.3-0.3,0.5-0.5,0.9-0.6c0.3-0.2,0.7-0.2,1.1-0.2
	c0.5,0,0.8,0.1,1.1,0.2c0.3,0.2,0.5,0.4,0.7,0.7h0.2v-0.8h1.6v4.5c0,0.3,0.1,0.4,0.4,0.4h0.2v1.6h-1.1c-0.3,0-0.5-0.1-0.7-0.3
	c-0.2-0.2-0.3-0.4-0.3-0.7h-0.3L163.6,438.1L163.6,438.1z M162.2,437.6c0.5,0,0.9-0.2,1.1-0.5c0.3-0.3,0.4-0.8,0.4-1.3v-0.2
	c0-0.5-0.1-1-0.4-1.3c-0.3-0.3-0.7-0.5-1.1-0.5c-0.5,0-0.9,0.2-1.1,0.5c-0.3,0.3-0.4,0.7-0.4,1.3v0.2c0,0.5,0.1,1,0.4,1.3
	C161.3,437.5,161.7,437.6,162.2,437.6z M167.4,437.4h2.3v-6h-2.2v-1.6h3.8v7.5h2.1v1.6h-6L167.4,437.4L167.4,437.4z M187.7,432.6
	h1.6v6.4h-1.6v-0.9h-0.2c-0.3,0.7-0.9,1.1-1.8,1.1c-0.3,0-0.6-0.1-0.9-0.2c-0.3-0.1-0.5-0.3-0.7-0.5s-0.4-0.5-0.5-0.8
	s-0.2-0.7-0.2-1.2v-4h1.6v3.7c0,0.5,0.1,0.8,0.3,1.1c0.2,0.3,0.5,0.4,1,0.4s0.9-0.2,1.1-0.5c0.2-0.3,0.4-0.8,0.4-1.3v-3.3
	L187.7,432.6L187.7,432.6z M193.3,434.4c0,0.2,0.1,0.4,0.3,0.5s0.6,0.2,1.2,0.2c0.7,0.1,1.2,0.3,1.6,0.6c0.4,0.3,0.6,0.8,0.6,1.4
	v0.1c0,0.6-0.2,1.2-0.7,1.5c-0.5,0.4-1.1,0.6-2,0.6c-0.5,0-0.9-0.1-1.3-0.2c-0.4-0.1-0.6-0.3-0.9-0.5c-0.2-0.2-0.4-0.4-0.5-0.6
	s-0.2-0.5-0.2-0.7l1.5-0.5c0.1,0.3,0.2,0.5,0.4,0.7s0.6,0.3,1,0.3s0.7-0.1,0.8-0.2c0.2-0.1,0.2-0.3,0.2-0.4s0-0.2-0.1-0.2
	c0-0.1-0.1-0.1-0.2-0.2c-0.1-0.1-0.2-0.1-0.4-0.2c-0.2,0-0.4-0.1-0.7-0.1c-0.7-0.1-1.3-0.2-1.7-0.6c-0.4-0.3-0.6-0.8-0.6-1.4v-0.1
	c0-0.3,0.1-0.6,0.2-0.8c0.1-0.2,0.3-0.4,0.5-0.6s0.5-0.3,0.8-0.4s0.6-0.1,0.9-0.1c0.4,0,0.8,0.1,1.1,0.2s0.6,0.2,0.8,0.4
	c0.2,0.2,0.4,0.3,0.5,0.5s0.2,0.4,0.3,0.6l-1.5,0.6c-0.1-0.2-0.2-0.4-0.4-0.5s-0.4-0.2-0.7-0.2s-0.5,0.1-0.6,0.2
	C193.4,434.1,193.3,434.2,193.3,434.4z M200.7,436.3c0,0.2,0.1,0.4,0.1,0.5c0.1,0.2,0.2,0.3,0.3,0.4s0.3,0.2,0.5,0.3
	c0.2,0.1,0.4,0.1,0.6,0.1c0.4,0,0.7-0.1,0.9-0.2s0.4-0.3,0.5-0.5l1.4,0.8c-0.1,0.2-0.2,0.3-0.3,0.5s-0.3,0.3-0.5,0.5
	c-0.2,0.1-0.5,0.3-0.8,0.4s-0.7,0.1-1.1,0.1c-0.5,0-0.9-0.1-1.3-0.2c-0.4-0.2-0.7-0.4-1-0.7c-0.3-0.3-0.5-0.7-0.7-1.1
	s-0.2-0.9-0.2-1.4v-0.1c0-0.5,0.1-0.9,0.2-1.4c0.2-0.4,0.4-0.8,0.7-1c0.3-0.3,0.6-0.5,1-0.7s0.8-0.2,1.3-0.2c0.6,0,1,0.1,1.4,0.3
	c0.4,0.2,0.7,0.4,1,0.7c0.3,0.3,0.5,0.6,0.6,1s0.2,0.7,0.2,1v0.9L200.7,436.3L200.7,436.3z M202.2,433.9c-0.4,0-0.8,0.1-1,0.3
	c-0.3,0.2-0.4,0.5-0.5,0.7h3c-0.1-0.3-0.2-0.6-0.5-0.8C203,434,202.7,433.9,202.2,433.9z M206.9,432.6h2.7v0.9h0.2
	c0.1-0.4,0.3-0.6,0.6-0.8c0.3-0.2,0.6-0.3,1.1-0.3c0.6,0,1.2,0.2,1.5,0.6c0.4,0.4,0.6,1,0.6,1.8v0.3l-1.7,0.2v-0.2
	c0-0.4-0.1-0.6-0.3-0.8c-0.2-0.2-0.5-0.3-0.8-0.3s-0.6,0.1-0.9,0.4c-0.2,0.3-0.3,0.6-0.3,1.1v2.1h1.5v1.6h-4.4v-1.6h1.3v-3.3h-1.2
	L206.9,432.6L206.9,432.6z M216.1,434.7h4.1v1.5h-4.1V434.7z M225.2,434.4c0,0.2,0.1,0.4,0.3,0.5s0.6,0.2,1.2,0.2
	c0.7,0.1,1.2,0.3,1.6,0.6c0.4,0.3,0.6,0.8,0.6,1.4v0.1c0,0.6-0.2,1.2-0.7,1.5c-0.5,0.4-1.1,0.6-2,0.6c-0.5,0-0.9-0.1-1.3-0.2
	s-0.6-0.3-0.9-0.5c-0.2-0.2-0.4-0.4-0.5-0.6s-0.2-0.5-0.2-0.7l1.5-0.5c0.1,0.3,0.2,0.5,0.4,0.7s0.6,0.3,1,0.3s0.7-0.1,0.8-0.2
	c0.2-0.1,0.2-0.3,0.2-0.4s0-0.2-0.1-0.2c0-0.1-0.1-0.1-0.2-0.2c-0.1-0.1-0.2-0.1-0.4-0.2c-0.2,0-0.4-0.1-0.7-0.1
	c-0.7-0.1-1.3-0.2-1.7-0.6c-0.4-0.3-0.6-0.8-0.6-1.4v-0.1c0-0.3,0.1-0.6,0.2-0.8c0.1-0.2,0.3-0.4,0.5-0.6s0.5-0.3,0.8-0.4
	s0.6-0.1,0.9-0.1c0.4,0,0.8,0.1,1.1,0.2s0.6,0.2,0.8,0.4c0.2,0.2,0.4,0.3,0.5,0.5s0.2,0.4,0.3,0.6l-1.5,0.6
	c-0.1-0.2-0.2-0.4-0.4-0.5s-0.4-0.2-0.7-0.2s-0.5,0.1-0.6,0.2C225.3,434.1,225.2,434.2,225.2,434.4z M232.4,441.6h-1.6v-9h1.6v0.9
	h0.2c0.2-0.4,0.4-0.6,0.8-0.8c0.3-0.2,0.8-0.3,1.3-0.3c0.4,0,0.7,0.1,1.1,0.2c0.3,0.1,0.6,0.4,0.9,0.6c0.3,0.3,0.5,0.6,0.6,1
	c0.2,0.4,0.2,0.9,0.2,1.4v0.2c0,0.5-0.1,1-0.2,1.4c-0.1,0.4-0.3,0.8-0.6,1c-0.3,0.3-0.6,0.5-0.9,0.6c-0.3,0.1-0.7,0.2-1.1,0.2
	c-0.3,0-0.6,0-0.8-0.1s-0.4-0.1-0.6-0.2c-0.2-0.1-0.3-0.2-0.4-0.4c-0.1-0.1-0.2-0.3-0.3-0.4h-0.2V441.6L232.4,441.6z M234.1,437.6
	c0.5,0,0.9-0.2,1.2-0.5s0.5-0.8,0.5-1.3v-0.2c0-0.5-0.2-1-0.5-1.3s-0.7-0.5-1.2-0.5s-0.9,0.2-1.2,0.5s-0.5,0.7-0.5,1.3v0.2
	c0,0.5,0.2,1,0.5,1.3C233.2,437.5,233.6,437.6,234.1,437.6z M243.2,438.1c-0.2,0.4-0.4,0.7-0.7,0.9c-0.3,0.2-0.7,0.2-1.1,0.2
	c-0.4,0-0.8-0.1-1.1-0.2s-0.6-0.4-0.9-0.6c-0.3-0.3-0.5-0.6-0.6-1s-0.2-0.9-0.2-1.4v-0.2c0-0.5,0.1-1,0.2-1.4c0.1-0.4,0.3-0.8,0.6-1
	s0.5-0.5,0.9-0.6c0.3-0.2,0.7-0.2,1.1-0.2c0.5,0,0.8,0.1,1.1,0.2c0.3,0.2,0.5,0.4,0.7,0.7h0.2v-0.8h1.6v4.5c0,0.3,0.1,0.4,0.4,0.4
	h0.2v1.6h-1.1c-0.3,0-0.5-0.1-0.7-0.3c-0.2-0.2-0.3-0.4-0.3-0.7h-0.3L243.2,438.1L243.2,438.1z M241.8,437.6c0.5,0,0.9-0.2,1.1-0.5
	c0.3-0.3,0.4-0.8,0.4-1.3v-0.2c0-0.5-0.1-1-0.4-1.3c-0.3-0.3-0.7-0.5-1.1-0.5c-0.5,0-0.9,0.2-1.1,0.5c-0.3,0.3-0.4,0.7-0.4,1.3v0.2
	c0,0.5,0.1,1,0.4,1.3C240.9,437.5,241.3,437.6,241.8,437.6z M253.3,436.6c-0.1,0.8-0.5,1.4-1.1,1.8c-0.5,0.5-1.3,0.7-2.2,0.7
	c-0.5,0-0.9-0.1-1.3-0.2c-0.4-0.1-0.8-0.4-1.1-0.6s-0.5-0.6-0.7-1s-0.3-0.9-0.3-1.4v-0.2c0-0.5,0.1-1,0.3-1.4s0.4-0.8,0.7-1.1
	c0.3-0.3,0.7-0.5,1.1-0.7c0.4-0.2,0.9-0.2,1.3-0.2c0.9,0,1.6,0.2,2.2,0.7c0.6,0.5,0.9,1.1,1.1,1.8l-1.6,0.4c-0.1-0.4-0.2-0.7-0.5-1
	s-0.7-0.4-1.2-0.4c-0.2,0-0.5,0-0.7,0.1s-0.4,0.2-0.5,0.4c-0.2,0.2-0.3,0.4-0.4,0.6c-0.1,0.2-0.1,0.5-0.1,0.8v0.1
	c0,0.3,0,0.5,0.1,0.8c0.1,0.2,0.2,0.4,0.4,0.5s0.3,0.3,0.5,0.3c0.2,0.1,0.4,0.1,0.7,0.1c0.5,0,0.9-0.1,1.1-0.4
	c0.3-0.3,0.4-0.6,0.5-1L253.3,436.6z M256.4,436.3c0,0.2,0.1,0.4,0.1,0.5c0.1,0.2,0.2,0.3,0.3,0.4c0.1,0.1,0.3,0.2,0.5,0.3
	c0.2,0.1,0.4,0.1,0.6,0.1c0.4,0,0.7-0.1,0.9-0.2c0.2-0.1,0.4-0.3,0.5-0.5l1.4,0.8c-0.1,0.2-0.2,0.3-0.3,0.5
	c-0.1,0.2-0.3,0.3-0.5,0.5c-0.2,0.1-0.5,0.3-0.8,0.4s-0.7,0.1-1.1,0.1c-0.5,0-0.9-0.1-1.3-0.2s-0.7-0.4-1-0.7
	c-0.3-0.3-0.5-0.7-0.7-1.1s-0.2-0.9-0.2-1.4v-0.1c0-0.5,0.1-0.9,0.2-1.4c0.2-0.4,0.4-0.8,0.7-1c0.3-0.2,0.6-0.5,1-0.7
	s0.8-0.2,1.3-0.2c0.6,0,1,0.1,1.4,0.3c0.4,0.2,0.7,0.4,1,0.7c0.3,0.3,0.5,0.6,0.6,1s0.2,0.7,0.2,1v0.9L256.4,436.3L256.4,436.3z
	 M258,433.9c-0.4,0-0.8,0.1-1,0.3c-0.3,0.2-0.4,0.5-0.5,0.7h3c-0.1-0.3-0.2-0.6-0.5-0.8C258.7,434,258.4,433.9,258,433.9z
	 M48.1,447.9h1.7v7.5h4.1v1.6h-5.8V447.9z M56.1,455.4h2.2v-3.3h-2v-1.6H60v4.9h1.9v1.6h-5.7C56.1,457,56.1,455.4,56.1,455.4z
	 M60.3,448.6c0,0.2,0,0.3-0.1,0.5c-0.1,0.1-0.1,0.3-0.3,0.4c-0.1,0.1-0.2,0.2-0.4,0.3c-0.1,0.1-0.3,0.1-0.5,0.1s-0.3,0-0.5-0.1
	c-0.1-0.1-0.3-0.2-0.4-0.3c-0.1-0.1-0.2-0.2-0.3-0.4c-0.1-0.2-0.1-0.3-0.1-0.5s0-0.3,0.1-0.5s0.2-0.3,0.3-0.4s0.2-0.2,0.4-0.3
	c0.1-0.1,0.3-0.1,0.5-0.1s0.3,0,0.5,0.1s0.3,0.1,0.4,0.3c0.1,0.1,0.2,0.2,0.3,0.4S60.3,448.5,60.3,448.6z M65.6,457H64v-6.4h1.6v1
	h0.2c0.1-0.4,0.4-0.6,0.7-0.8c0.3-0.2,0.7-0.3,1.2-0.3c0.3,0,0.6,0.1,0.9,0.2s0.5,0.2,0.7,0.5c0.2,0.2,0.4,0.5,0.5,0.8
	s0.2,0.7,0.2,1.1v4.1h-1.6v-3.7c0-0.5-0.1-0.8-0.3-1.1c-0.2-0.3-0.5-0.4-0.9-0.4c-0.5,0-0.8,0.2-1.1,0.5c-0.2,0.3-0.4,0.8-0.4,1.3
	L65.6,457L65.6,457z M76.3,450.6h1.6v6.4h-1.6v-0.9H76c-0.3,0.7-0.9,1.1-1.8,1.1c-0.3,0-0.6-0.1-0.9-0.2s-0.5-0.3-0.7-0.5
	s-0.4-0.5-0.5-0.8s-0.2-0.7-0.2-1.2v-4h1.6v3.7c0,0.5,0.1,0.8,0.3,1.1c0.2,0.3,0.5,0.4,1,0.4s0.9-0.2,1.1-0.5s0.4-0.8,0.4-1.3
	C76.3,453.9,76.3,450.6,76.3,450.6z M84.1,450.6h1.8l-1.6,3v0.2L86,457h-1.9l-1.2-2.5h-0.2l-1.2,2.5h-1.9l1.7-3.2v-0.2l-1.6-3h1.8
	l1.2,2.4h0.2L84.1,450.6z M102.1,454.6c-0.1,0.8-0.5,1.4-1.1,1.8c-0.5,0.5-1.3,0.7-2.2,0.7c-0.5,0-0.9-0.1-1.3-0.2s-0.8-0.4-1.1-0.6
	s-0.5-0.6-0.7-1s-0.3-0.9-0.3-1.4v-0.2c0-0.5,0.1-1,0.3-1.4c0.2-0.4,0.4-0.8,0.7-1.1c0.3-0.3,0.7-0.5,1.1-0.7s0.9-0.2,1.3-0.2
	c0.9,0,1.6,0.2,2.2,0.7s0.9,1.1,1.1,1.8l-1.6,0.4c-0.1-0.4-0.2-0.7-0.5-1s-0.7-0.4-1.2-0.4c-0.2,0-0.5,0-0.7,0.1s-0.4,0.2-0.5,0.4
	c-0.2,0.2-0.3,0.4-0.4,0.6s-0.1,0.5-0.1,0.8v0.1c0,0.3,0,0.5,0.1,0.8c0.1,0.2,0.2,0.4,0.4,0.5s0.3,0.3,0.5,0.3
	c0.2,0.1,0.4,0.1,0.7,0.1c0.5,0,0.9-0.1,1.1-0.4c0.3-0.3,0.4-0.6,0.5-1L102.1,454.6z M110.1,453.9c0,0.5-0.1,1-0.3,1.4
	c-0.2,0.4-0.4,0.8-0.7,1c-0.3,0.3-0.7,0.5-1.1,0.6s-0.8,0.2-1.3,0.2s-0.9-0.1-1.3-0.2s-0.8-0.4-1.1-0.6c-0.3-0.3-0.6-0.6-0.7-1
	c-0.2-0.4-0.3-0.9-0.3-1.4v-0.2c0-0.5,0.1-1,0.3-1.4c0.2-0.4,0.4-0.8,0.7-1.1s0.7-0.5,1.1-0.6s0.8-0.2,1.3-0.2s0.9,0.1,1.3,0.2
	s0.8,0.4,1.1,0.6c0.3,0.3,0.6,0.6,0.7,1.1c0.2,0.4,0.3,0.9,0.3,1.4V453.9z M106.7,455.6c0.2,0,0.5,0,0.7-0.1s0.4-0.2,0.5-0.3
	s0.3-0.3,0.4-0.5s0.1-0.5,0.1-0.7v-0.3c0-0.3,0-0.5-0.1-0.7s-0.2-0.4-0.4-0.5s-0.3-0.3-0.5-0.3s-0.4-0.1-0.7-0.1s-0.5,0-0.7,0.1
	s-0.4,0.2-0.5,0.3s-0.3,0.3-0.4,0.5s-0.1,0.4-0.1,0.7v0.3c0,0.3,0,0.5,0.1,0.7s0.2,0.4,0.4,0.5s0.3,0.3,0.5,0.3
	S106.5,455.6,106.7,455.6z M113.3,457h-1.6v-6.4h1.6v1h0.2c0.1-0.4,0.4-0.6,0.7-0.8c0.3-0.2,0.7-0.3,1.2-0.3c0.3,0,0.6,0.1,0.9,0.2
	s0.5,0.2,0.7,0.5c0.2,0.2,0.4,0.5,0.5,0.8s0.2,0.7,0.2,1.1v4.1h-1.6v-3.7c0-0.5-0.1-0.8-0.3-1.1c-0.2-0.3-0.5-0.4-0.9-0.4
	c-0.5,0-0.8,0.2-1.1,0.5c-0.2,0.3-0.4,0.8-0.4,1.3L113.3,457L113.3,457z M119.6,450.6h1.8v-1.3c0-0.4,0.1-0.7,0.4-0.9
	c0.3-0.3,0.6-0.4,0.9-0.4h2.6v1.6h-1.9c-0.2,0-0.4,0.1-0.4,0.4v0.7h2.5v1.6H123v4.9h-1.6v-4.9h-1.8V450.6z M129.1,454.3
	c0,0.2,0.1,0.4,0.1,0.5c0.1,0.2,0.2,0.3,0.3,0.4s0.3,0.2,0.5,0.3c0.2,0.1,0.4,0.1,0.6,0.1c0.4,0,0.7-0.1,0.9-0.2s0.4-0.3,0.5-0.5
	l1.4,0.8c-0.1,0.2-0.2,0.3-0.3,0.5s-0.3,0.3-0.5,0.5c-0.2,0.1-0.5,0.3-0.8,0.4s-0.7,0.1-1.1,0.1c-0.5,0-0.9-0.1-1.3-0.2
	c-0.4-0.2-0.7-0.4-1-0.7c-0.3-0.3-0.5-0.7-0.7-1.1s-0.2-0.9-0.2-1.4v-0.1c0-0.5,0.1-0.9,0.2-1.4c0.2-0.4,0.4-0.8,0.7-1
	c0.3-0.3,0.6-0.5,1-0.7s0.8-0.2,1.3-0.2c0.6,0,1,0.1,1.4,0.3c0.4,0.2,0.7,0.4,1,0.7c0.3,0.3,0.4,0.6,0.6,1c0.1,0.4,0.2,0.7,0.2,1
	v0.9L129.1,454.3L129.1,454.3z M130.6,451.9c-0.4,0-0.8,0.1-1,0.3c-0.3,0.2-0.4,0.5-0.5,0.7h3c-0.1-0.3-0.2-0.6-0.5-0.8
	C131.4,452,131,451.9,130.6,451.9z M135.3,450.6h2.7v0.9h0.2c0.1-0.4,0.3-0.6,0.6-0.8c0.3-0.2,0.6-0.3,1.1-0.3
	c0.6,0,1.2,0.2,1.5,0.6c0.4,0.4,0.6,1,0.6,1.8v0.3l-1.7,0.2v-0.2c0-0.4-0.1-0.6-0.3-0.8c-0.2-0.2-0.5-0.3-0.8-0.3s-0.6,0.1-0.9,0.4
	c-0.2,0.3-0.3,0.6-0.3,1.1v2.1h1.5v1.6h-4.4v-1.6h1.3v-3.3h-1.2L135.3,450.6L135.3,450.6z M145,454.3c0,0.2,0.1,0.4,0.1,0.5
	c0.1,0.2,0.2,0.3,0.3,0.4s0.3,0.2,0.5,0.3c0.2,0.1,0.4,0.1,0.6,0.1c0.4,0,0.7-0.1,0.9-0.2s0.4-0.3,0.5-0.5l1.4,0.8
	c-0.1,0.2-0.2,0.3-0.3,0.5s-0.3,0.3-0.5,0.5c-0.2,0.1-0.5,0.3-0.8,0.4s-0.7,0.1-1.1,0.1c-0.5,0-0.9-0.1-1.3-0.2
	c-0.4-0.2-0.7-0.4-1-0.7c-0.3-0.3-0.5-0.7-0.7-1.1s-0.2-0.9-0.2-1.4v-0.1c0-0.5,0.1-0.9,0.2-1.4c0.2-0.4,0.4-0.8,0.7-1
	c0.3-0.3,0.6-0.5,1-0.7s0.8-0.2,1.3-0.2c0.6,0,1,0.1,1.4,0.3c0.4,0.2,0.7,0.4,1,0.7c0.3,0.3,0.4,0.6,0.6,1c0.1,0.4,0.2,0.7,0.2,1
	v0.9L145,454.3L145,454.3z M146.5,451.9c-0.4,0-0.8,0.1-1,0.3c-0.3,0.2-0.4,0.5-0.5,0.7h3c-0.1-0.3-0.2-0.6-0.5-0.8
	C147.3,452,146.9,451.9,146.5,451.9z M153.1,457h-1.6v-6.4h1.6v1h0.2c0.1-0.4,0.4-0.6,0.7-0.8c0.3-0.2,0.7-0.3,1.2-0.3
	c0.3,0,0.6,0.1,0.9,0.2c0.3,0.1,0.5,0.2,0.7,0.5c0.2,0.2,0.4,0.5,0.5,0.8s0.2,0.7,0.2,1.1v4.1h-1.6v-3.7c0-0.5-0.1-0.8-0.3-1.1
	c-0.2-0.3-0.5-0.4-0.9-0.4c-0.5,0-0.8,0.2-1.1,0.5c-0.2,0.3-0.4,0.8-0.4,1.3L153.1,457L153.1,457z M165.7,454.6
	c-0.1,0.8-0.5,1.4-1.1,1.8c-0.5,0.5-1.3,0.7-2.2,0.7c-0.5,0-0.9-0.1-1.3-0.2c-0.4-0.1-0.8-0.4-1.1-0.6c-0.3-0.3-0.5-0.6-0.7-1
	s-0.3-0.9-0.3-1.4v-0.2c0-0.5,0.1-1,0.3-1.4s0.4-0.8,0.7-1.1c0.3-0.3,0.7-0.5,1.1-0.7c0.4-0.2,0.9-0.2,1.3-0.2
	c0.9,0,1.6,0.2,2.2,0.7c0.6,0.5,0.9,1.1,1.1,1.8l-1.6,0.4c-0.1-0.4-0.2-0.7-0.5-1s-0.7-0.4-1.2-0.4c-0.2,0-0.5,0-0.7,0.1
	s-0.4,0.2-0.5,0.4c-0.2,0.2-0.3,0.4-0.4,0.6c-0.1,0.2-0.1,0.5-0.1,0.8v0.1c0,0.3,0,0.5,0.1,0.8c0.1,0.2,0.2,0.4,0.4,0.5
	s0.3,0.3,0.5,0.3c0.2,0.1,0.4,0.1,0.7,0.1c0.5,0,0.9-0.1,1.1-0.4c0.3-0.3,0.4-0.6,0.5-1L165.7,454.6z M168.9,454.3
	c0,0.2,0.1,0.4,0.1,0.5c0.1,0.2,0.2,0.3,0.3,0.4s0.3,0.2,0.5,0.3c0.2,0.1,0.4,0.1,0.6,0.1c0.4,0,0.7-0.1,0.9-0.2s0.4-0.3,0.5-0.5
	l1.4,0.8c-0.1,0.2-0.2,0.3-0.3,0.5s-0.3,0.3-0.5,0.5c-0.2,0.1-0.5,0.3-0.8,0.4s-0.7,0.1-1.1,0.1c-0.5,0-0.9-0.1-1.3-0.2
	c-0.4-0.2-0.7-0.4-1-0.7c-0.3-0.3-0.5-0.7-0.7-1.1s-0.2-0.9-0.2-1.4v-0.1c0-0.5,0.1-0.9,0.2-1.4c0.2-0.4,0.4-0.8,0.7-1
	c0.3-0.3,0.6-0.5,1-0.7s0.8-0.2,1.3-0.2c0.6,0,1,0.1,1.4,0.3c0.4,0.2,0.7,0.4,1,0.7c0.3,0.3,0.5,0.6,0.6,1s0.2,0.7,0.2,1v0.9
	L168.9,454.3L168.9,454.3z M170.4,451.9c-0.4,0-0.8,0.1-1,0.3c-0.3,0.2-0.4,0.5-0.5,0.7h3c-0.1-0.3-0.2-0.6-0.5-0.8
	C171.2,452,170.8,451.9,170.4,451.9z"/>
<path id="path2720" class="st0" d="M314,394c0,0.4-0.3,0.6-0.6,0.6H308c-0.4,0-0.6-0.3-0.6-0.6c0-0.4,0.3-0.6,0.6-0.6h5.4
	C313.7,393.4,314,393.6,314,394z"/>
<path id="path2722" class="st0" d="M288.7,394c0,0.4-0.3,0.6-0.6,0.6h-5.5c-0.4,0-0.6-0.3-0.6-0.6c0-0.4,0.3-0.6,0.6-0.6h5.4
	C288.4,393.4,288.7,393.6,288.7,394z"/>
<path id="path2724" class="st0" d="M298.6,404v5.4c0,0.4-0.3,0.6-0.6,0.6c-0.4,0-0.6-0.3-0.6-0.6V404c0-0.4,0.3-0.6,0.6-0.6
	C298.4,403.3,298.6,403.6,298.6,404z"/>
<path id="path2726" class="st0" d="M298.6,378.6v5.4c0,0.4-0.3,0.6-0.6,0.6c-0.4,0-0.6-0.3-0.6-0.6v-5.4c0-0.4,0.3-0.6,0.6-0.6
	C298.4,378,298.6,378.3,298.6,378.6z"/>
<path id="path2728" class="st0" d="M304.3,408.3c0,0.3-0.2,0.5-0.4,0.6c-0.3,0.2-0.7-0.1-0.8-0.4l-2-5c-0.2-0.3,0.1-0.7,0.4-0.8
	c0.3-0.2,0.7,0.1,0.8,0.4l2,5C304.3,408.1,304.3,408.2,304.3,408.3z"/>
<path id="path2730" class="st0" d="M295,384.7c0,0.3-0.2,0.5-0.4,0.6c-0.3,0.2-0.7-0.1-0.8-0.4l-2-5c-0.2-0.3,0.1-0.7,0.4-0.8
	s0.7,0.1,0.8,0.4l2,5C295,384.6,295,384.7,295,384.7z"/>
<path id="path2732" class="st0" d="M312.7,400.3c0,0.1,0,0.2-0.1,0.3c-0.2,0.3-0.5,0.5-0.8,0.3l-4.9-2.2c-0.3-0.2-0.5-0.5-0.3-0.8
	s0.5-0.5,0.8-0.3l4.9,2.2C312.5,399.8,312.7,400.1,312.7,400.3z"/>
<path id="path2734" class="st0" d="M289.6,389.9c0,0.1,0,0.2-0.1,0.3c-0.2,0.3-0.5,0.5-0.8,0.3l-5-2.2c-0.3-0.2-0.5-0.5-0.3-0.8
	s0.5-0.5,0.8-0.3l4.9,2.2C289.4,389.5,289.6,389.7,289.6,389.9z"/>
<path id="path2736" class="st0" d="M309.2,405.2c0,0.2-0.1,0.4-0.2,0.5c-0.3,0.3-0.7,0.2-0.9-0.1l-3.7-3.9c-0.3-0.3-0.3-0.7,0-0.9
	c0.3-0.3,0.7-0.2,0.9,0l3.7,4C309.1,404.9,309.2,405,309.2,405.2z"/>
<path id="path2738" class="st0" d="M291.8,386.7c0,0.2-0.1,0.4-0.2,0.5c-0.3,0.3-0.7,0.2-0.9-0.1l-3.7-4c-0.3-0.2-0.2-0.6,0.1-0.8
	c0.3-0.3,0.6-0.3,0.9,0l3.7,4C291.8,386.4,291.8,386.6,291.8,386.7z"/>
<path id="path2740" class="st0" d="M295.1,403.3c0,0.1,0,0.2-0.1,0.2l-2,5c-0.1,0.3-0.5,0.5-0.8,0.4s-0.5-0.5-0.4-0.8l2-5
	c0.1-0.3,0.5-0.5,0.8-0.4C294.9,402.8,295.1,403.1,295.1,403.3z"/>
<path id="path2742" class="st0" d="M304.1,379.6c0,0.1,0,0.2-0.1,0.2l-2,5c-0.1,0.3-0.5,0.5-0.8,0.4s-0.5-0.5-0.4-0.8l2-5
	c0.1-0.3,0.5-0.5,0.8-0.4C304,379.1,304.1,379.4,304.1,379.6z"/>
<path id="path2744" class="st0" d="M291.6,401c0,0.2-0.1,0.3-0.2,0.5l-3.9,3.8c-0.3,0.3-0.7,0.3-0.9,0c-0.3-0.3-0.3-0.7,0-0.9
	l3.8-3.8c0.3-0.3,0.7-0.3,0.9,0C291.5,400.7,291.6,400.9,291.6,401z"/>
<path id="path2746" class="st0" d="M309.5,383.1c0,0.2-0.1,0.3-0.2,0.5l-3.9,3.8c-0.3,0.3-0.7,0.3-0.9,0s-0.3-0.7,0-0.9l3.9-3.8
	c0.3-0.3,0.7-0.3,0.9,0C309.5,382.8,309.5,383,309.5,383.1z"/>
<path id="path2748" class="st0" d="M289.5,397.8c0,0.3-0.2,0.5-0.4,0.6l-5,2.1c-0.3,0.2-0.7,0-0.8-0.4c-0.2-0.3,0-0.7,0.4-0.8l5-2.1
	c0.3-0.2,0.7,0,0.8,0.4C289.4,397.7,289.5,397.7,289.5,397.8z"/>
<path id="path2750" class="st0" d="M312.9,388.1c0,0.3-0.2,0.5-0.4,0.6l-5,2.1c-0.3,0.2-0.7,0-0.8-0.4c-0.2-0.3,0-0.7,0.4-0.8l5-2.1
	c0.3-0.2,0.7,0,0.8,0.4C312.8,388,312.9,388.1,312.9,388.1z"/>
<path id="path2752" class="st0" d="M107,116.9h-1.3l-9-20.4h6.5l6.5,15h0.8l6.5-15h6.5l-9,20.4H113V128h-6V116.9z"/>
<path id="path2754" class="st0" d="M115.4,153.1c0-1.3-0.5-2.4-1.5-3.3c-1-0.9-2.3-1.4-4.1-1.4c-1.5,0-2.7,0.3-3.6,0.9
	c-0.9,0.6-1.3,1.4-1.3,2.5c0,0.5,0.1,1,0.3,1.5c0.2,0.4,0.6,0.8,1.1,1.2c0.5,0.3,1.2,0.6,2.1,0.9c0.9,0.3,2,0.5,3.3,0.8
	c3.3,0.6,5.8,1.6,7.6,3s2.6,3.5,2.6,6.3v0.5c0,1.5-0.3,2.8-0.8,4s-1.3,2.2-2.2,3s-2.2,1.5-3.6,1.9s-3,0.7-4.8,0.7
	c-2.1,0-3.9-0.3-5.5-0.9c-1.6-0.6-2.9-1.4-3.9-2.4c-1.1-1.1-1.8-2.3-2.4-3.6c-0.5-1.4-0.8-2.9-0.8-4.6v-1.4h5.9v1.1
	c0,1.9,0.5,3.4,1.6,4.5s2.8,1.7,5.1,1.7c1.8,0,3.1-0.4,4-1.2s1.3-1.7,1.3-2.8c0-0.5-0.1-1-0.3-1.4c-0.2-0.5-0.5-0.9-0.9-1.3
	c-0.4-0.4-1.1-0.7-1.8-1s-1.8-0.6-3-0.8c-1.6-0.3-3-0.6-4.4-1c-1.3-0.4-2.5-1-3.5-1.8c-1-0.7-1.7-1.6-2.2-2.7s-0.8-2.4-0.8-4v-0.3
	c0-1.3,0.3-2.5,0.8-3.6s1.3-2.1,2.2-2.9c1-0.8,2.1-1.4,3.4-1.9c1.3-0.4,2.8-0.7,4.5-0.7c1.9,0,3.5,0.3,4.9,0.8s2.6,1.2,3.6,2.1
	c1,0.9,1.7,1.9,2.2,3.1c0.5,1.2,0.8,2.4,0.8,3.7v1.6h-5.9L115.4,153.1L115.4,153.1z"/>
<path id="path2756" class="st0" d="M98.7,190.5h22.7v5.7H113V222h-6v-25.8h-8.4C98.7,196.2,98.7,190.5,98.7,190.5z"/>
<path id="path2758" class="st0" d="M99.9,237.5h19.9v5.7h-13.9v7.2h13.4v5.7h-13.4v7.3h14.5v5.7H99.9
	C99.9,269,99.9,237.5,99.9,237.5z"/>
<path id="path2760" class="st0" d="M97.2,284.5h10.4l1.8,23.7v4.6h1.1v-4.6l1.8-23.7h10.4V316h-5.4v-21.1l0.5-7.2h-1.1l-2.3,28.3
	h-8.9l-2.4-28.3H102l0.5,7.2V316h-5.4C97.2,316,97.2,284.5,97.2,284.5z"/>
<path id="path2762" class="st0" d="M115.4,341.1c0-1.3-0.5-2.4-1.5-3.3s-2.3-1.4-4.1-1.4c-1.5,0-2.7,0.3-3.6,0.9s-1.3,1.4-1.3,2.5
	c0,0.5,0.1,1,0.3,1.5c0.2,0.4,0.6,0.8,1.1,1.2c0.5,0.3,1.2,0.6,2.1,0.9s2,0.5,3.3,0.8c3.3,0.6,5.8,1.6,7.6,3s2.6,3.5,2.6,6.3v0.5
	c0,1.5-0.3,2.8-0.8,4s-1.3,2.2-2.2,3c-1,0.8-2.2,1.5-3.6,1.9c-1.4,0.5-3,0.7-4.8,0.7c-2.1,0-3.9-0.3-5.5-0.9s-2.9-1.4-3.9-2.4
	c-1.1-1-1.8-2.3-2.4-3.6c-0.5-1.4-0.8-2.9-0.8-4.6v-1.4h5.9v1.1c0,1.9,0.5,3.4,1.6,4.5s2.8,1.7,5.1,1.7c1.8,0,3.1-0.4,4-1.2
	c0.9-0.8,1.3-1.7,1.3-2.8c0-0.5-0.1-1-0.3-1.4c-0.2-0.5-0.5-0.9-0.9-1.3s-1.1-0.7-1.8-1c-0.8-0.3-1.8-0.6-3-0.8
	c-1.6-0.3-3-0.6-4.4-1c-1.3-0.5-2.5-1-3.5-1.8c-1-0.7-1.7-1.6-2.2-2.7s-0.8-2.4-0.8-4v-0.3c0-1.3,0.3-2.5,0.8-3.6s1.3-2.1,2.2-2.9
	c1-0.8,2.1-1.4,3.4-1.9s2.8-0.7,4.5-0.7c1.9,0,3.5,0.3,4.9,0.8s2.6,1.2,3.6,2.1s1.7,1.9,2.2,3.1s0.8,2.4,0.8,3.7v1.6h-5.9
	L115.4,341.1L115.4,341.1z"/>
<path id="path2764" class="st0" d="M154.9,159.1h13.5V175H163v-3.5h-0.8c-0.4,1.2-1.1,2.2-2.1,3s-2.6,1.2-4.6,1.2
	c-1.4,0-2.8-0.3-4.1-0.8s-2.4-1.3-3.3-2.4c-0.9-1.1-1.7-2.4-2.2-4s-0.8-3.4-0.8-5.5v-7.4c0-2,0.3-3.8,0.9-5.4c0.6-1.6,1.4-2.9,2.4-4
	c1.1-1.1,2.3-1.9,3.7-2.4c1.4-0.6,3-0.9,4.8-0.9s3.4,0.3,4.8,0.9c1.4,0.6,2.6,1.4,3.6,2.4s1.7,2.2,2.2,3.6c0.5,1.4,0.8,2.9,0.8,4.5
	v0.5h-5.9v-0.5c0-1.9-0.5-3.3-1.5-4.3s-2.3-1.5-4.1-1.5c-1.7,0-3.1,0.6-4.1,1.7c-1.1,1.1-1.6,3-1.6,5.8v6.7c0,4.9,2,7.3,5.9,7.3
	c1.8,0,3.1-0.5,4-1.4c0.9-1,1.4-2.2,1.4-3.8h-7.6L154.9,159.1L154.9,159.1z"/>
<path id="path2766" class="st0" d="M153.2,206.2c0-1,0.4-1.9,1.1-2.7s1.6-1.1,2.7-1.1s1.9,0.4,2.7,1.1s1.1,1.6,1.1,2.7
	s-0.4,1.9-1.1,2.7S158,210,157,210s-1.9-0.4-2.7-1.1S153.2,207.3,153.2,206.2z M145.4,202.7c0-4.1,1-7.2,3.1-9.5
	c2.1-2.2,4.9-3.4,8.6-3.4s6.5,1.1,8.5,3.4c2.1,2.2,3.1,5.4,3.1,9.5v7c0,4.2-1,7.4-3.1,9.6c-2,2.2-4.9,3.3-8.5,3.3s-6.5-1.1-8.6-3.3
	c-2-2.2-3.1-5.4-3.1-9.6V202.7z M157,217.2c1.1,0,2-0.2,2.7-0.5c0.7-0.4,1.3-0.9,1.8-1.5s0.8-1.4,0.9-2.2c0.2-0.9,0.3-1.8,0.3-2.9
	v-7.7c0-1-0.1-1.9-0.3-2.8s-0.5-1.6-1-2.2c-0.4-0.6-1-1.1-1.8-1.5c-0.7-0.4-1.6-0.6-2.6-0.6s-1.9,0.2-2.6,0.6
	c-0.7,0.4-1.3,0.9-1.8,1.5c-0.4,0.6-0.8,1.4-1,2.2s-0.3,1.8-0.3,2.8v7.7c0,1.1,0.1,2,0.3,2.9s0.5,1.6,0.9,2.2c0.4,0.6,1,1.1,1.8,1.5
	C155,217.1,155.9,217.2,157,217.2z"/>
<path id="path2768" class="st0" d="M160,236.5v22h-6v-22H160z M161.3,264.4c0,0.6-0.1,1.2-0.4,1.7c-0.2,0.5-0.5,1-0.9,1.4
	s-0.9,0.6-1.4,0.9c-0.5,0.2-1.1,0.4-1.6,0.4c-0.6,0-1.2-0.1-1.7-0.4c-0.5-0.2-1-0.5-1.4-0.9s-0.7-0.8-0.9-1.4
	c-0.2-0.5-0.3-1.1-0.3-1.7s0.1-1.2,0.3-1.7s0.6-1,0.9-1.4c0.4-0.4,0.8-0.7,1.4-0.9c0.5-0.2,1.1-0.4,1.7-0.4c0.6,0,1.1,0.1,1.6,0.4
	c0.5,0.2,1,0.5,1.4,0.9s0.7,0.8,0.9,1.4C161.1,263.2,161.3,263.8,161.3,264.4z"/>
<circle id="circle2770" class="st1" cx="63" cy="206" r="16"/>
<circle id="circle2772" class="st2" cx="204" cy="18" r="16"/>
<circle id="circle2774" class="st3" cx="157" cy="18" r="16"/>
<circle id="circle2776" cx="157" cy="18" r="5"/>
<g>
	<g>
		<g>
			<g>
				<defs>
					<rect id="SVGID_1_" x="235" y="2" width="77" height="32"/>
				</defs>
				<clipPath id="SVGID_00000030471264570817233900000005433445402813264572_">
					<use xlink:href="#SVGID_1_"  style="overflow:visible;"/>
				</clipPath>
				<g id="g2780" style="clip-path:url(#SVGID_00000030471264570817233900000005433445402813264572_);">
					<path id="path2778" class="st1" d="M237.8,22.7c1.5,0,2.8-1.3,2.8-3l0.2,0.7l27-7.1c0.2,1.4,1.4,2.5,2.8,2.5
						c0.5,0,1-0.2,1.5-0.4l9.2,14.5c-0.1,0.4-0.2,0.7-0.2,1.1c0,1.6,1.2,3,2.8,3c1.5,0,2.8-1.3,2.8-3c0-0.9-0.5-1.8-1.1-2.3
						l8.2-20.1l3.8,13.1c-0.8,0.5-1.4,1.4-1.4,2.5c0,1.7,1.2,3,2.8,3c1.5,0,2.8-1.3,2.8-3c0-0.6-0.2-1.1-0.5-1.5l6.5-7.2
						c0.4,0.2,0.8,0.4,1.4,0.4c1.5,0,2.8-1.3,2.8-3c0-1.6-1.2-3-2.8-3c-1.5,0-2.8,1.3-2.8,3c0,0.6,0.2,1.1,0.5,1.5l-6.5,7.2
						c-0.4-0.2-0.8-0.4-1.4-0.4c-0.1,0-0.1,0-0.1,0l-4-13.8c0.8-0.5,1.4-1.4,1.4-2.5c0-1.6-1.2-3-2.8-3s-2.8,1.3-2.8,3
						c0,1.3,0.8,2.4,2,2.8L284.3,28c-0.1,0-0.3-0.1-0.4-0.1c-0.6,0-1.2,0.2-1.7,0.6l-9-14.4c0.2-0.4,0.3-0.9,0.3-1.4
						c0-1.6-1.2-3-2.8-3c-1.2,0-2.2,0.8-2.6,1.9l-27.4,7.3c-0.3-1.3-1.4-2.3-2.7-2.3c-1.6,0-2.8,1.3-2.8,3
						C235,21.4,236.2,22.7,237.8,22.7z"/>
				</g>
			</g>
		</g>
	</g>
</g>
<path id="path2782" class="st2" d="M298,331c8.8,0,16,7.2,16,16s-7.2,16-16,16h-47c-8.8,0-16-7.2-16-16s7.2-16,16-16H298z"/>
<circle id="circle2784" class="st0" cx="251" cy="347" r="16"/>
<circle id="circle2786" cx="251" cy="347" r="5"/>
<g>
	<g>
		<g>
			<g>
				<defs>
					<rect id="SVGID_00000154392535987311144660000014930028028916242081_" y="284" width="32" height="32"/>
				</defs>
				<clipPath id="SVGID_00000150814578542782350740000010342290841374062779_">
					<use xlink:href="#SVGID_00000154392535987311144660000014930028028916242081_"  style="overflow:visible;"/>
				</clipPath>
				<g id="g2820" style="clip-path:url(#SVGID_00000150814578542782350740000010342290841374062779_);">
					<path id="path2788" class="st6" d="M32,300c0,0.4-0.3,0.6-0.6,0.6H26c-0.4,0-0.6-0.3-0.6-0.6c0-0.4,0.3-0.6,0.6-0.6h5.4
						C31.7,299.4,32,299.6,32,300z"/>
					<path id="path2790" class="st6" d="M6.7,300c0,0.4-0.3,0.6-0.6,0.6H0.6c-0.4,0-0.6-0.3-0.6-0.6c0-0.4,0.3-0.6,0.6-0.6H6
						C6.4,299.4,6.7,299.6,6.7,300z"/>
					<path id="path2792" class="st6" d="M16.6,310v5.4c0,0.4-0.3,0.6-0.6,0.6c-0.4,0-0.6-0.3-0.6-0.6V310c0-0.4,0.3-0.6,0.6-0.6
						C16.4,309.3,16.6,309.6,16.6,310z"/>
					<path id="path2794" class="st6" d="M16.6,284.6v5.4c0,0.4-0.3,0.6-0.6,0.6c-0.4,0-0.6-0.3-0.6-0.6v-5.4c0-0.4,0.3-0.6,0.6-0.6
						C16.4,284,16.6,284.3,16.6,284.6z"/>
					<path id="path2796" class="st6" d="M22.3,314.3c0,0.3-0.2,0.5-0.4,0.6c-0.3,0.2-0.7-0.1-0.8-0.4l-2-5c-0.2-0.3,0.1-0.7,0.4-0.8
						c0.3-0.2,0.7,0.1,0.8,0.4l2,5C22.3,314.1,22.3,314.2,22.3,314.3z"/>
					<path id="path2798" class="st6" d="M13,290.7c0,0.3-0.2,0.5-0.4,0.6c-0.3,0.2-0.7-0.1-0.8-0.4l-2-5c-0.2-0.3,0.1-0.7,0.4-0.8
						s0.7,0.1,0.8,0.4l2,5C13,290.6,13,290.7,13,290.7z"/>
					<path id="path2800" class="st6" d="M30.7,306.3c0,0.1,0,0.2-0.1,0.3c-0.2,0.3-0.5,0.5-0.8,0.3l-4.9-2.2
						c-0.3-0.2-0.5-0.5-0.3-0.8s0.5-0.5,0.8-0.3l4.9,2.2C30.5,305.8,30.7,306.1,30.7,306.3z"/>
					<path id="path2802" class="st6" d="M7.6,295.9c0,0.1,0,0.2-0.1,0.3c-0.2,0.3-0.5,0.5-0.8,0.3l-5-2.2c-0.3-0.2-0.5-0.5-0.3-0.8
						s0.5-0.5,0.8-0.3l4.9,2.2C7.4,295.5,7.6,295.7,7.6,295.9z"/>
					<path id="path2804" class="st6" d="M27.2,311.2c0,0.2-0.1,0.4-0.2,0.5c-0.3,0.3-0.7,0.2-0.9-0.1l-3.7-3.9
						c-0.3-0.3-0.3-0.7,0-0.9c0.3-0.3,0.7-0.2,0.9,0l3.7,4C27.1,310.9,27.2,311,27.2,311.2z"/>
					<path id="path2806" class="st6" d="M9.8,292.7c0,0.2-0.1,0.4-0.2,0.5c-0.3,0.3-0.7,0.2-0.9-0.1l-3.7-4
						c-0.3-0.2-0.2-0.6,0.1-0.8c0.3-0.3,0.6-0.3,0.9,0l3.7,4C9.8,292.4,9.8,292.6,9.8,292.7z"/>
					<path id="path2808" class="st6" d="M13.1,309.3c0,0.1,0,0.2-0.1,0.2l-2,5c-0.1,0.3-0.5,0.5-0.8,0.4s-0.5-0.5-0.4-0.8l2-5
						c0.1-0.3,0.5-0.5,0.8-0.4C12.9,308.8,13.1,309.1,13.1,309.3z"/>
					<path id="path2810" class="st6" d="M22.1,285.6c0,0.1,0,0.2-0.1,0.2l-2,5c-0.1,0.3-0.5,0.5-0.8,0.4s-0.5-0.5-0.4-0.8l2-5
						c0.1-0.3,0.5-0.5,0.8-0.4C22,285.1,22.1,285.4,22.1,285.6z"/>
					<path id="path2812" class="st6" d="M9.6,307c0,0.2-0.1,0.3-0.2,0.5l-3.9,3.8c-0.3,0.3-0.7,0.3-0.9,0c-0.3-0.3-0.3-0.7,0-0.9
						l3.8-3.8c0.3-0.3,0.7-0.3,0.9,0C9.5,306.7,9.6,306.9,9.6,307z"/>
					<path id="path2814" class="st6" d="M27.5,289.1c0,0.2-0.1,0.3-0.2,0.5l-3.9,3.8c-0.3,0.3-0.7,0.3-0.9,0s-0.3-0.7,0-0.9l3.9-3.8
						c0.3-0.3,0.7-0.3,0.9,0C27.5,288.8,27.5,289,27.5,289.1z"/>
					<path id="path2816" class="st6" d="M7.5,303.8c0,0.3-0.2,0.5-0.4,0.6l-5,2.1c-0.3,0.2-0.7,0-0.8-0.4c-0.2-0.3,0-0.7,0.4-0.8
						l5-2.1c0.3-0.2,0.7,0,0.8,0.4C7.4,303.7,7.5,303.7,7.5,303.8z"/>
					<path id="path2818" class="st6" d="M30.9,294.1c0,0.3-0.2,0.5-0.4,0.6l-5,2.1c-0.3,0.2-0.7,0-0.8-0.4c-0.2-0.3,0-0.7,0.4-0.8
						l5-2.1c0.3-0.2,0.7,0,0.8,0.4C30.8,294,30.9,294.1,30.9,294.1z"/>
				</g>
			</g>
		</g>
	</g>
</g>
<g>
	<g>
		<g>
			<g>
				<defs>
					<rect id="SVGID_00000030454294861008430260000004255700925859667109_" x="94" y="2" width="32" height="32"/>
				</defs>
				<clipPath id="SVGID_00000096021690657744559020000007707281993544348834_">
					<use xlink:href="#SVGID_00000030454294861008430260000004255700925859667109_"  style="overflow:visible;"/>
				</clipPath>
				<g id="g2854" style="clip-path:url(#SVGID_00000096021690657744559020000007707281993544348834_);">
					<path id="path2822" class="st1" d="M126,18c0,0.4-0.3,0.6-0.6,0.6H120c-0.4,0-0.6-0.3-0.6-0.6c0-0.4,0.3-0.6,0.6-0.6h5.4
						C125.7,17.4,126,17.6,126,18z"/>
					<path id="path2824" class="st1" d="M100.7,18c0,0.4-0.3,0.6-0.6,0.6h-5.5c-0.4,0-0.6-0.3-0.6-0.6c0-0.4,0.3-0.6,0.6-0.6h5.4
						C100.4,17.4,100.7,17.6,100.7,18z"/>
					<path id="path2826" class="st1" d="M110.6,28v5.4c0,0.4-0.3,0.6-0.6,0.6c-0.4,0-0.6-0.3-0.6-0.6V28c0-0.4,0.3-0.6,0.6-0.6
						C110.4,27.3,110.6,27.6,110.6,28z"/>
					<path id="path2828" class="st1" d="M110.6,2.6V8c0,0.4-0.3,0.6-0.6,0.6c-0.4,0-0.6-0.3-0.6-0.6V2.6c0-0.4,0.3-0.6,0.6-0.6
						C110.4,2,110.6,2.3,110.6,2.6z"/>
					<path id="path2830" class="st1" d="M116.3,32.3c0,0.3-0.2,0.5-0.4,0.6c-0.3,0.2-0.7-0.1-0.8-0.4l-2-5c-0.2-0.3,0.1-0.7,0.4-0.8
						c0.3-0.2,0.7,0.1,0.8,0.4l2,5C116.3,32.1,116.3,32.2,116.3,32.3z"/>
					<path id="path2832" class="st1" d="M107,8.7c0,0.3-0.2,0.5-0.4,0.6c-0.3,0.2-0.7-0.1-0.8-0.4l-2-5c-0.2-0.3,0.1-0.7,0.4-0.8
						s0.7,0.1,0.8,0.4l2,5C107,8.6,107,8.7,107,8.7z"/>
					<path id="path2834" class="st1" d="M124.7,24.3c0,0.1,0,0.2-0.1,0.3c-0.2,0.3-0.5,0.5-0.8,0.3l-4.9-2.2
						c-0.3-0.2-0.5-0.5-0.3-0.8s0.5-0.5,0.8-0.3l4.9,2.2C124.5,23.8,124.7,24.1,124.7,24.3z"/>
					<path id="path2836" class="st1" d="M101.6,13.9c0,0.1,0,0.2-0.1,0.3c-0.2,0.3-0.5,0.5-0.8,0.3l-5-2.2c-0.3-0.2-0.5-0.5-0.3-0.8
						s0.5-0.5,0.8-0.3l4.9,2.2C101.4,13.5,101.6,13.7,101.6,13.9z"/>
					<path id="path2838" class="st1" d="M121.2,29.2c0,0.2-0.1,0.4-0.2,0.5c-0.3,0.3-0.7,0.2-0.9-0.1l-3.7-3.9
						c-0.3-0.3-0.3-0.7,0-0.9c0.3-0.3,0.7-0.2,0.9,0l3.7,4C121.1,28.9,121.2,29,121.2,29.2z"/>
					<path id="path2840" class="st1" d="M103.8,10.7c0,0.2-0.1,0.4-0.2,0.5c-0.3,0.3-0.7,0.2-0.9-0.1l-3.7-4c-0.3-0.1-0.2-0.5,0-0.7
						c0.3-0.3,0.6-0.3,0.9,0l3.7,4C103.8,10.4,103.8,10.6,103.8,10.7z"/>
					<path id="path2842" class="st1" d="M107.1,27.3c0,0.1,0,0.2-0.1,0.2l-2,5c-0.1,0.3-0.5,0.5-0.8,0.4s-0.5-0.5-0.4-0.8l2-5
						c0.1-0.3,0.5-0.5,0.8-0.4C106.9,26.8,107.1,27.1,107.1,27.3z"/>
					<path id="path2844" class="st1" d="M116.1,3.6c0,0.1,0,0.2-0.1,0.2l-2,5c-0.1,0.3-0.5,0.5-0.8,0.4s-0.5-0.5-0.4-0.8l2-5
						c0.1-0.3,0.5-0.5,0.8-0.4C116,3.1,116.1,3.4,116.1,3.6z"/>
					<path id="path2846" class="st1" d="M103.6,25c0,0.2-0.1,0.3-0.2,0.5l-3.9,3.8c-0.3,0.3-0.7,0.3-0.9,0s-0.3-0.7,0-0.9l3.8-3.8
						c0.3-0.3,0.7-0.3,0.9,0C103.5,24.7,103.6,24.9,103.6,25z"/>
					<path id="path2848" class="st1" d="M121.5,7.1c0,0.2-0.1,0.3-0.2,0.5l-3.9,3.8c-0.3,0.3-0.7,0.3-0.9,0s-0.3-0.7,0-0.9l3.9-3.8
						c0.3-0.3,0.7-0.3,0.9,0C121.5,6.8,121.5,7,121.5,7.1z"/>
					<path id="path2850" class="st1" d="M101.5,21.8c0,0.3-0.2,0.5-0.4,0.6l-5,2.1c-0.3,0.2-0.7,0-0.8-0.4c-0.2-0.3,0-0.7,0.4-0.8
						l5-2.1c0.3-0.2,0.7,0,0.8,0.4C101.4,21.7,101.5,21.7,101.5,21.8z"/>
					<path id="path2852" class="st1" d="M124.9,12.1c0,0.3-0.2,0.5-0.4,0.6l-5,2.1c-0.3,0.2-0.7,0-0.8-0.4c-0.2-0.3,0-0.7,0.4-0.8
						l5-2.1c0.3-0.2,0.7,0,0.8,0.4C124.8,12,124.9,12.1,124.9,12.1z"/>
				</g>
			</g>
		</g>
	</g>
</g>
<circle id="circle2856" class="st3" cx="63" cy="300" r="16"/>
<circle id="circle2858" cx="63" cy="300" r="5"/>
<circle id="circle2860" class="st3" cx="146.3" cy="102.3" r="5.3"/>
<circle id="circle2862" class="st3" cx="167.7" cy="102.3" r="5.3"/>
<circle id="circle2864" class="st3" cx="146.3" cy="121.7" r="5.3"/>
<circle id="circle2866" class="st3" cx="167.7" cy="121.7" r="5.3"/>
<path id="path2868" class="st3" d="M251,128c-8.8,0-16-7.2-16-16s7.2-16,16-16h47c8.8,0,16,7.2,16,16s-7.2,16-16,16H251z"/>
<circle id="circle2870" class="st2" cx="251" cy="112" r="16"/>
<circle id="circle2872" class="st1" cx="298" cy="112" r="16"/>
<circle id="circle2874" cx="298" cy="112" r="5"/>
<rect id="rect2876" x="190.4" y="97" class="st0" width="3.9" height="31"/>
<rect id="rect2878" x="201.6" y="97" class="st0" width="3.9" height="31"/>
<rect id="rect2880" x="213.7" y="97" class="st0" width="3.9" height="31"/>
<rect id="rect2882" x="188" y="107.7" class="st3" width="8.7" height="2.9"/>
<rect id="rect2884" x="199.2" y="117.8" class="st2" width="8.7" height="2.9"/>
<rect id="rect2886" x="211.3" y="100.9" class="st1" width="8.7" height="2.9"/>
<path id="path2888" class="st3" d="M235,206c0-8.8,7.2-16,16-16c8.8,0,16,7.2,16,16v47c0,8.8-7.2,16-16,16s-16-7.2-16-16V206z"/>
<circle id="circle2890" class="st2" cx="251" cy="206" r="16"/>
<circle id="circle2892" class="st0" cx="251" cy="253" r="16"/>
<circle id="circle2894" cx="251" cy="253" r="5"/>
<g>
	<g>
		<g>
			<g>
				<defs>
					<rect id="SVGID_00000116223683619763882790000003128418412436448402_" x="188" y="194" width="31" height="75"/>
				</defs>
				<clipPath id="SVGID_00000085226956257214908020000000975733643154268349_">
					<use xlink:href="#SVGID_00000116223683619763882790000003128418412436448402_"  style="overflow:visible;"/>
				</clipPath>
				<g id="g2898" style="clip-path:url(#SVGID_00000085226956257214908020000000975733643154268349_);">
					<path id="path2896" class="st1" d="M208.1,266.2c0-1.5-1.3-2.8-2.9-2.8l0.7-0.2L199,237c1.4-0.2,2.4-1.3,2.4-2.7
						c0-0.5-0.2-1-0.4-1.4l14.1-8.9c0.3,0.1,0.7,0.2,1.1,0.2c1.6,0,2.9-1.2,2.9-2.8c0-1.5-1.3-2.8-2.9-2.8c-0.9,0-1.7,0.4-2.2,1.1
						l-19.5-8l12.7-3.7c0.5,0.8,1.4,1.3,2.4,1.3c1.6,0,2.9-1.2,2.9-2.8c0-1.5-1.3-2.8-2.9-2.8c-0.6,0-1.1,0.2-1.5,0.4l-6.9-6.3
						c0.2-0.4,0.4-0.8,0.4-1.3c0-1.5-1.3-2.8-2.9-2.8c-1.6,0-2.9,1.2-2.9,2.8c0,1.5,1.3,2.8,2.9,2.8c0.6,0,1.1-0.2,1.5-0.4l6.9,6.3
						c-0.2,0.4-0.3,0.8-0.3,1.3c0,0.1,0,0.1,0,0.1l-13.4,3.9c-0.5-0.8-1.4-1.3-2.4-1.3c-1.6,0-2.9,1.2-2.9,2.8
						c0,1.5,1.3,2.8,2.9,2.8c1.3,0,2.4-0.8,2.7-1.9l19.7,8.1c0,0.1-0.1,0.3-0.1,0.4c0,0.6,0.2,1.2,0.6,1.7l-13.9,8.8
						c-0.4-0.2-0.9-0.3-1.4-0.3c-1.6,0-2.9,1.2-2.9,2.8c0,1.2,0.7,2.1,1.8,2.5l7.1,26.7c-1.3,0.3-2.2,1.4-2.2,2.6
						c0,1.5,1.3,2.8,2.9,2.8C206.8,269,208.1,267.8,208.1,266.2z"/>
				</g>
			</g>
		</g>
	</g>
</g>
<rect id="rect2900" x="282" y="190" class="st2" width="6.4" height="6.4"/>
<rect id="rect2902" x="294.8" y="190" class="st2" width="6.4" height="6.4"/>
<rect id="rect2904" x="307.6" y="190" class="st2" width="6.4" height="6.4"/>
<rect id="rect2906" x="282" y="202.8" class="st2" width="6.4" height="6.4"/>
<rect id="rect2908" x="294.8" y="202.8" class="st2" width="6.4" height="6.4"/>
<rect id="rect2910" x="307.6" y="202.8" class="st2" width="6.4" height="6.4"/>
<rect id="rect2912" x="282" y="215.6" class="st2" width="6.4" height="6.4"/>
<rect id="rect2914" x="294.8" y="215.6" class="st2" width="6.4" height="6.4"/>
<rect id="rect2916" x="307.6" y="215.6" class="st2" width="6.4" height="6.4"/>
<circle id="circle2918" class="st3" cx="298" cy="253" r="16"/>
<circle id="circle2920" class="st1" cx="16" cy="347" r="16"/>
<circle id="circle2922" cx="16" cy="347" r="5"/>
<circle id="circle2924" class="st3" cx="204" cy="347" r="16"/>
<rect id="rect2926" x="49.4" y="332" class="st0" width="3.9" height="31"/>
<rect id="rect2928" x="60.6" y="332" class="st0" width="3.9" height="31"/>
<rect id="rect2930" x="72.7" y="332" class="st0" width="3.9" height="31"/>
<rect id="rect2932" x="47" y="342.7" class="st3" width="8.7" height="2.9"/>
<rect id="rect2934" x="58.2" y="352.8" class="st2" width="8.7" height="2.9"/>
<rect id="rect2936" x="70.3" y="335.9" class="st1" width="8.7" height="2.9"/>
<circle id="circle2938" class="st0" cx="298" cy="300" r="16"/>
<path id="path2940" class="st0" d="M204,316c-8.8,0-16-7.2-16-16s7.2-16,16-16h47c8.8,0,16,7.2,16,16s-7.2,16-16,16H204z"/>
<circle id="circle2942" class="st2" cx="204" cy="300" r="16"/>
<circle id="circle2944" class="st3" cx="251" cy="300" r="16"/>
<circle id="circle2946" cx="251" cy="300" r="5"/>
<circle id="circle2948" class="st1" cx="157" cy="300" r="16"/>
<circle id="circle2950" cx="157" cy="300" r="5"/>
<path id="path2952" class="st0" d="M251,143c8.8,0,16,7.2,16,16s-7.2,16-16,16h-47c-8.8,0-16-7.2-16-16s7.2-16,16-16H251z"/>
<circle id="circle2954" class="st1" cx="251" cy="159" r="16"/>
<circle id="circle2956" class="st3" cx="204" cy="159" r="16"/>
<g>
	<g>
		<g>
			<g>
				<defs>
					<rect id="SVGID_00000169551195201601782330000005895729859954139812_" x="282" y="143" width="32" height="32"/>
				</defs>
				<clipPath id="SVGID_00000132051757632925757640000000407670970997244289_">
					<use xlink:href="#SVGID_00000169551195201601782330000005895729859954139812_"  style="overflow:visible;"/>
				</clipPath>
				<g id="g2990" style="clip-path:url(#SVGID_00000132051757632925757640000000407670970997244289_);">
					<path id="path2958" class="st1" d="M314,159c0,0.4-0.3,0.6-0.6,0.6H308c-0.4,0-0.6-0.3-0.6-0.6c0-0.4,0.3-0.6,0.6-0.6h5.4
						C313.7,158.4,314,158.6,314,159z"/>
					<path id="path2960" class="st1" d="M288.7,159c0,0.4-0.3,0.6-0.6,0.6h-5.5c-0.4,0-0.6-0.3-0.6-0.6c0-0.4,0.3-0.6,0.6-0.6h5.4
						C288.4,158.4,288.7,158.6,288.7,159z"/>
					<path id="path2962" class="st1" d="M298.6,169v5.4c0,0.4-0.3,0.6-0.6,0.6c-0.4,0-0.6-0.3-0.6-0.6V169c0-0.4,0.3-0.6,0.6-0.6
						C298.4,168.3,298.6,168.6,298.6,169z"/>
					<path id="path2964" class="st1" d="M298.6,143.6v5.4c0,0.4-0.3,0.6-0.6,0.6c-0.4,0-0.6-0.3-0.6-0.6v-5.4c0-0.4,0.3-0.6,0.6-0.6
						C298.4,143,298.6,143.3,298.6,143.6z"/>
					<path id="path2966" class="st1" d="M304.3,173.3c0,0.3-0.2,0.5-0.4,0.6c-0.3,0.2-0.7-0.1-0.8-0.4l-2-5
						c-0.2-0.3,0.1-0.7,0.4-0.8c0.3-0.2,0.7,0.1,0.8,0.4l2,5C304.3,173.1,304.3,173.2,304.3,173.3z"/>
					<path id="path2968" class="st1" d="M295,149.7c0,0.3-0.2,0.5-0.4,0.6c-0.3,0.2-0.7-0.1-0.8-0.4l-2-5c-0.2-0.3,0.1-0.7,0.4-0.8
						s0.7,0.1,0.8,0.4l2,5C295,149.6,295,149.7,295,149.7z"/>
					<path id="path2970" class="st1" d="M312.7,165.3c0,0.1,0,0.2-0.1,0.3c-0.2,0.3-0.5,0.5-0.8,0.3l-4.9-2.2
						c-0.3-0.2-0.5-0.5-0.3-0.8s0.5-0.5,0.8-0.3l4.9,2.2C312.5,164.8,312.7,165.1,312.7,165.3z"/>
					<path id="path2972" class="st1" d="M289.6,154.9c0,0.1,0,0.2-0.1,0.3c-0.2,0.3-0.5,0.5-0.8,0.3l-5-2.2
						c-0.3-0.2-0.5-0.5-0.3-0.8s0.5-0.5,0.8-0.3l4.9,2.2C289.4,154.5,289.6,154.7,289.6,154.9z"/>
					<path id="path2974" class="st1" d="M309.2,170.2c0,0.2-0.1,0.4-0.2,0.5c-0.3,0.3-0.7,0.2-0.9-0.1l-3.7-3.9
						c-0.3-0.3-0.3-0.7,0-0.9c0.3-0.3,0.7-0.2,0.9,0l3.7,4C309.1,169.9,309.2,170,309.2,170.2z"/>
					<path id="path2976" class="st1" d="M291.8,151.7c0,0.2-0.1,0.4-0.2,0.5c-0.3,0.3-0.7,0.2-0.9-0.1l-3.7-4
						c-0.3-0.2-0.2-0.6,0.1-0.8c0.3-0.3,0.6-0.3,0.9,0l3.7,4C291.8,151.4,291.8,151.6,291.8,151.7z"/>
					<path id="path2978" class="st1" d="M295.1,168.3c0,0.1,0,0.2-0.1,0.2l-2,5c-0.1,0.3-0.5,0.5-0.8,0.4s-0.5-0.5-0.4-0.8l2-5
						c0.1-0.3,0.5-0.5,0.8-0.4S295.1,168.1,295.1,168.3z"/>
					<path id="path2980" class="st1" d="M304.1,144.6c0,0.1,0,0.2-0.1,0.2l-2,5c-0.1,0.3-0.5,0.5-0.8,0.4s-0.5-0.5-0.4-0.8l2-5
						c0.1-0.3,0.5-0.5,0.8-0.4C304,144.1,304.1,144.4,304.1,144.6z"/>
					<path id="path2982" class="st1" d="M291.6,166c0,0.2-0.1,0.3-0.2,0.5l-3.9,3.8c-0.3,0.3-0.7,0.3-0.9,0c-0.3-0.3-0.3-0.7,0-0.9
						l3.8-3.8c0.3-0.3,0.7-0.3,0.9,0C291.5,165.7,291.6,165.9,291.6,166z"/>
					<path id="path2984" class="st1" d="M309.5,148.1c0,0.2-0.1,0.3-0.2,0.5l-3.9,3.8c-0.3,0.3-0.7,0.3-0.9,0s-0.3-0.7,0-0.9
						l3.9-3.8c0.3-0.3,0.7-0.3,0.9,0C309.5,147.8,309.5,148,309.5,148.1z"/>
					<path id="path2986" class="st1" d="M289.5,162.8c0,0.3-0.2,0.5-0.4,0.6l-5,2.1c-0.3,0.2-0.7,0-0.8-0.4c-0.2-0.3,0-0.7,0.4-0.8
						l5-2.1c0.3-0.2,0.7,0,0.8,0.4C289.4,162.7,289.5,162.7,289.5,162.8z"/>
					<path id="path2988" class="st1" d="M312.9,153.1c0,0.3-0.2,0.5-0.4,0.6l-5,2.1c-0.3,0.2-0.7,0-0.8-0.4c-0.2-0.3,0-0.7,0.4-0.8
						l5-2.1c0.3-0.2,0.7,0,0.8,0.4C312.8,153,312.9,153.1,312.9,153.1z"/>
				</g>
			</g>
		</g>
	</g>
</g>
<path id="path2992" class="st3" d="M16,410c-8.8,0-16-7.2-16-16s7.2-16,16-16h47c8.8,0,16,7.2,16,16s-7.2,16-16,16H16z"/>
<circle id="circle2994" class="st2" cx="16" cy="394" r="16"/>
<circle id="circle2996" class="st1" cx="63" cy="394" r="16"/>
<rect id="rect2998" x="94" y="378" class="st0" width="6.4" height="6.4"/>
<rect id="rect3000" x="106.8" y="378" class="st0" width="6.4" height="6.4"/>
<rect id="rect3002" x="119.6" y="378" class="st0" width="6.4" height="6.4"/>
<rect id="rect3004" x="94" y="390.8" class="st0" width="6.4" height="6.4"/>
<rect id="rect3006" x="106.8" y="390.8" class="st0" width="6.4" height="6.4"/>
<rect id="rect3008" x="119.6" y="390.8" class="st0" width="6.4" height="6.4"/>
<rect id="rect3010" x="94" y="403.6" class="st0" width="6.4" height="6.4"/>
<rect id="rect3012" x="106.8" y="403.6" class="st0" width="6.4" height="6.4"/>
<rect id="rect3014" x="119.6" y="403.6" class="st0" width="6.4" height="6.4"/>
<path id="path3016" class="st0" d="M204,378c8.8,0,16,7.2,16,16s-7.2,16-16,16h-47c-8.8,0-16-7.2-16-16s7.2-16,16-16H204z"/>
<circle id="circle3018" class="st3" cx="157" cy="394" r="16"/>
<circle id="circle3020" cx="157" cy="394" r="5"/>
<circle id="circle3022" class="st3" cx="251" cy="381.1" r="3.1"/>
<circle id="circle3024" class="st3" cx="263.9" cy="381.1" r="3.1"/>
<circle id="circle3026" class="st3" cx="238.1" cy="394.1" r="3.1"/>
<circle id="circle3028" class="st3" cx="251" cy="394.1" r="3.1"/>
<circle id="circle3030" class="st3" cx="263.9" cy="394.1" r="3.1"/>
<circle id="circle3032" class="st3" cx="238.1" cy="406.9" r="3.1"/>
<circle id="circle3034" class="st3" cx="251" cy="406.9" r="3.1"/>
<circle id="circle3036" class="st3" cx="263.9" cy="406.9" r="3.1"/>
<circle id="circle3038" class="st3" cx="238.1" cy="381.1" r="3.1"/>
<circle id="circle3040" class="st0" cx="63" cy="159" r="16"/>
<circle id="circle3042" cx="63" cy="159" r="5"/>
<circle id="circle3044" class="st3" cx="146.3" cy="338.3" r="5.3"/>
<circle id="circle3046" class="st3" cx="167.7" cy="338.3" r="5.3"/>
<circle id="circle3048" class="st3" cx="146.3" cy="357.2" r="5.3"/>
<circle id="circle3050" class="st3" cx="167.7" cy="357.2" r="5.3"/>
<g>
	<g>
		<path class="st0" d="M405.5,95.1l1.6-1.9c1.2,1.1,2.7,1.8,4.4,1.8c1.8,0,2.8-0.8,2.8-1.9c0-1.4-1.1-1.8-2.6-2.4l-2.2-0.9
			c-1.6-0.6-3.3-1.9-3.3-4.2c0-2.5,2.2-4.4,5.5-4.4c1.9,0,3.7,0.7,5,2l-1.4,1.8c-1.1-0.9-2.2-1.3-3.7-1.3s-2.5,0.7-2.5,1.8
			c0,1.2,1.3,1.7,2.7,2.2l2.1,0.9c2,0.8,3.4,2,3.4,4.2c0,2.5-2.1,4.7-5.8,4.7C409.1,97.3,407,96.5,405.5,95.1z"/>
		<path class="st0" d="M421.1,81.4h5.2c3.4,0,6,1.2,6,4.8c0,3.5-2.6,5.1-6,5.1h-2.4v5.8h-2.8V81.4z M426,89.1c2.3,0,3.4-0.9,3.4-2.9
			c0-1.9-1.2-2.6-3.4-2.6h-2.1v5.5H426z"/>
		<path class="st0" d="M435.9,81.4h5.2c3.3,0,5.8,1.2,5.8,4.7c0,3.4-2.5,4.9-5.8,4.9h-2.4v6.1h-2.8V81.4z M440.8,88.7
			c2.1,0,3.3-0.9,3.3-2.7s-1.2-2.4-3.3-2.4h-2.2v5.1C438.6,88.7,440.8,88.7,440.8,88.7z M442.6,88.5l4.9,8.5h-3.1l-3.8-6.9
			L442.6,88.5z"/>
		<path class="st0" d="M450.8,94.7h3.8v-11h-3.8v-2.3h10.3v2.3h-3.8v11h3.8V97h-10.4v-2.3H450.8z"/>
		<path class="st0" d="M465.4,81.4h2.9l4.2,8.8l1.4,3.4h0.1c-0.1-1.6-0.4-3.6-0.4-5.3v-6.9h2.7v15.7h-2.9l-4.2-8.8l-1.4-3.3h-0.1
			c0.1,1.7,0.4,3.6,0.4,5.3v6.9h-2.7V81.4z"/>
		<path class="st0" d="M479.7,89.3c0-5.2,3-8.2,7.1-8.2c2.1,0,3.5,1,4.5,2l-1.6,1.7c-0.7-0.7-1.5-1.3-2.9-1.3
			c-2.5,0-4.2,2.2-4.2,5.7c0,3.6,1.5,5.7,4.3,5.7c0.8,0,1.7-0.2,2.1-0.7v-3.4h-2.7v-2.3h5.2v6.9c-1,1-2.8,1.9-4.8,1.9
			C482.7,97.3,479.7,94.5,479.7,89.3z"/>
		<path class="st0" d="M509.8,95.5c4.8-4.1,7.7-6.8,7.7-9.2c0-1.8-1-3-2.9-3c-1.3,0-2.4,0.8-3.4,1.7l-1.5-1.5c1.5-1.5,3-2.4,5.3-2.4
			c3.1,0,5.2,2,5.2,5c0,2.7-2.7,5.6-6.3,8.8c0.9-0.1,2-0.1,2.8-0.1h4.3v2.3h-11.1L509.8,95.5L509.8,95.5z"/>
		<path class="st0" d="M524.7,89.1c0-5.3,2.2-8.1,5.7-8.1s5.7,2.8,5.7,8.1c0,5.3-2.2,8.2-5.7,8.2C526.9,97.3,524.7,94.4,524.7,89.1z
			 M533.5,89.1c0-4.3-1.4-5.9-3.2-5.9c-1.8,0-3.2,1.6-3.2,5.9c0,4.3,1.4,6,3.2,6C532.2,95.2,533.5,93.5,533.5,89.1z M528.7,89.1
			c0-1.1,0.7-1.7,1.6-1.7s1.6,0.6,1.6,1.7c0,1.1-0.7,1.7-1.6,1.7C529.4,90.8,528.7,90.1,528.7,89.1z"/>
		<path class="st0" d="M539.6,95.5c4.8-4.1,7.7-6.8,7.7-9.2c0-1.8-1-3-2.9-3c-1.3,0-2.4,0.8-3.4,1.7l-1.5-1.5c1.5-1.5,3-2.4,5.3-2.4
			c3.1,0,5.2,2,5.2,5c0,2.7-2.7,5.6-6.3,8.8c0.9-0.1,2-0.1,2.8-0.1h4.3v2.3h-11.1L539.6,95.5L539.6,95.5z"/>
		<path class="st0" d="M554.5,95.5c4.8-4.1,7.7-6.8,7.7-9.2c0-1.8-1-3-2.9-3c-1.3,0-2.4,0.8-3.4,1.7l-1.5-1.5c1.5-1.5,3-2.4,5.3-2.4
			c3.1,0,5.2,2,5.2,5c0,2.7-2.7,5.6-6.3,8.8c0.9-0.1,2-0.1,2.8-0.1h4.3v2.3h-11.1L554.5,95.5L554.5,95.5z"/>
	</g>
</g>
<g>
	<g>
		<path class="st0" d="M166.9,62.1c0.4,0,0.8-0.1,1.1-0.2c0.3-0.1,0.5-0.3,0.7-0.5c0.2-0.2,0.3-0.5,0.3-0.8c0.1-0.3,0.1-0.6,0.1-0.9
			v-0.3h2.3v0.3c0,1.4-0.4,2.6-1.1,3.3c-0.8,0.8-1.9,1.2-3.3,1.2c-1.4,0-2.5-0.4-3.3-1.3c-0.8-0.8-1.2-2.1-1.2-3.7v-2.7
			c0-0.8,0.1-1.5,0.3-2.1c0.2-0.6,0.5-1.1,0.9-1.6c0.4-0.4,0.9-0.7,1.4-1c0.6-0.2,1.2-0.3,1.9-0.3c0.7,0,1.4,0.1,1.9,0.3
			c0.6,0.2,1,0.5,1.4,0.9c0.4,0.4,0.7,0.9,0.9,1.4c0.2,0.6,0.3,1.2,0.3,1.9v0.3H169V56c0-0.3,0-0.6-0.1-0.9
			c-0.1-0.3-0.2-0.6-0.3-0.8c-0.2-0.2-0.4-0.4-0.7-0.6c-0.3-0.1-0.6-0.2-1-0.2c-0.4,0-0.7,0.1-1,0.2c-0.3,0.1-0.5,0.3-0.7,0.6
			c-0.2,0.2-0.3,0.5-0.4,0.9c-0.1,0.3-0.1,0.7-0.1,1v3.1c0,0.4,0,0.8,0.1,1.1c0.1,0.3,0.2,0.6,0.4,0.9c0.2,0.2,0.4,0.4,0.7,0.6
			C166.1,62,166.5,62.1,166.9,62.1z"/>
		<path class="st0" d="M173,56.5c0-1.6,0.4-2.8,1.2-3.7c0.8-0.9,1.9-1.3,3.3-1.3c1.4,0,2.5,0.4,3.3,1.3c0.8,0.9,1.2,2.1,1.2,3.7v2.7
			c0,1.6-0.4,2.9-1.2,3.7c-0.8,0.8-1.9,1.3-3.3,1.3c-1.4,0-2.5-0.4-3.3-1.3c-0.8-0.8-1.2-2.1-1.2-3.7V56.5z M177.5,62.1
			c0.4,0,0.8-0.1,1-0.2c0.3-0.1,0.5-0.3,0.7-0.6c0.2-0.2,0.3-0.5,0.4-0.9c0.1-0.3,0.1-0.7,0.1-1.1v-3c0-0.4,0-0.7-0.1-1.1
			c-0.1-0.3-0.2-0.6-0.4-0.9c-0.2-0.2-0.4-0.4-0.7-0.6c-0.3-0.1-0.6-0.2-1-0.2c-0.4,0-0.7,0.1-1,0.2c-0.3,0.1-0.5,0.3-0.7,0.6
			c-0.2,0.2-0.3,0.5-0.4,0.9c-0.1,0.3-0.1,0.7-0.1,1.1v3c0,0.4,0,0.8,0.1,1.1c0.1,0.3,0.2,0.6,0.4,0.9s0.4,0.4,0.7,0.6
			C176.7,62,177.1,62.1,177.5,62.1z"/>
		<path class="st0" d="M183.2,51.7h4l0.7,9.1v1.8h0.4v-1.8l0.7-9.1h4v12.2H191v-8.1l0.2-2.8h-0.4l-0.9,10.9h-3.4L185.5,53H185
			l0.2,2.8v8.1h-2.1V51.7z"/>
		<path class="st0" d="M194.7,51.7h8.1v2.2h-2.9v7.8h2.9v2.2h-8.1v-2.2h2.9v-7.8h-2.9V51.7z"/>
		<path class="st0" d="M211,62.8h0.3v-11h2.3v12.2h-4.5l-1.4-11h-0.3v11h-2.3V51.7h4.5L211,62.8z"/>
		<path class="st0" d="M219.2,57.8h5.2v6.2h-2.1v-1.4H222c-0.1,0.5-0.4,0.8-0.8,1.1c-0.4,0.3-1,0.5-1.8,0.5c-0.6,0-1.1-0.1-1.6-0.3
			c-0.5-0.2-0.9-0.5-1.3-0.9s-0.6-0.9-0.9-1.5c-0.2-0.6-0.3-1.3-0.3-2.1v-2.9c0-0.8,0.1-1.5,0.3-2.1c0.2-0.6,0.5-1.1,0.9-1.5
			c0.4-0.4,0.9-0.7,1.4-0.9c0.6-0.2,1.2-0.3,1.8-0.3c0.7,0,1.3,0.1,1.9,0.3c0.5,0.2,1,0.5,1.4,0.9c0.4,0.4,0.7,0.9,0.9,1.4
			s0.3,1.1,0.3,1.7v0.2h-2.3v-0.2c0-0.7-0.2-1.3-0.6-1.7c-0.4-0.4-0.9-0.6-1.6-0.6c-0.6,0-1.2,0.2-1.6,0.7c-0.4,0.4-0.6,1.2-0.6,2.2
			v2.6c0,1.9,0.8,2.8,2.3,2.8c0.7,0,1.2-0.2,1.6-0.5c0.4-0.4,0.5-0.9,0.5-1.5h-2.9V57.8z"/>
		<path class="st0" d="M236.8,61.7h1.1v-7.8h-1.1v-2.2h5.3c0.6,0,1.1,0.1,1.5,0.2c0.4,0.2,0.8,0.4,1.1,0.7c0.3,0.3,0.5,0.6,0.7,1
			c0.2,0.4,0.2,0.8,0.2,1.3v0.2c0,0.7-0.2,1.3-0.6,1.7c-0.4,0.4-0.9,0.7-1.5,0.9V58c0.6,0.2,1.1,0.5,1.5,0.9c0.4,0.4,0.6,1,0.6,1.7
			v0.2c0,0.5-0.1,0.9-0.2,1.3c-0.2,0.4-0.4,0.7-0.7,1c-0.3,0.3-0.7,0.5-1.1,0.7c-0.4,0.2-1,0.2-1.5,0.2h-5.3V61.7z M240.2,56.7h1.7
			c0.5,0,0.9-0.1,1.2-0.3c0.3-0.2,0.5-0.5,0.5-1v-0.1c0-0.5-0.2-0.8-0.5-1c-0.3-0.2-0.7-0.3-1.2-0.3h-1.7V56.7z M240.2,61.7h1.7
			c0.5,0,0.9-0.1,1.2-0.3c0.3-0.2,0.5-0.6,0.5-1v-0.1c0-0.5-0.2-0.8-0.5-1c-0.3-0.2-0.7-0.3-1.2-0.3h-1.7V61.7z"/>
		<path class="st0" d="M254,61.3h-4.1l-0.6,2.6h-2.4l2.9-12.2h4.3l2.9,12.2h-2.4L254,61.3z M250.4,59.1h3.1l-1.4-6.2h-0.3
			L250.4,59.1z"/>
		<path class="st0" d="M262.6,62.1c0.4,0,0.8-0.1,1.1-0.2c0.3-0.1,0.5-0.3,0.7-0.5c0.2-0.2,0.3-0.5,0.3-0.8c0.1-0.3,0.1-0.6,0.1-0.9
			v-0.3h2.3v0.3c0,1.4-0.4,2.6-1.1,3.3c-0.8,0.8-1.9,1.2-3.3,1.2c-1.4,0-2.5-0.4-3.3-1.3c-0.8-0.8-1.2-2.1-1.2-3.7v-2.7
			c0-0.8,0.1-1.5,0.3-2.1c0.2-0.6,0.5-1.1,0.9-1.6c0.4-0.4,0.9-0.7,1.4-1c0.6-0.2,1.2-0.3,1.9-0.3c0.7,0,1.4,0.1,1.9,0.3
			c0.6,0.2,1,0.5,1.4,0.9c0.4,0.4,0.7,0.9,0.9,1.4c0.2,0.6,0.3,1.2,0.3,1.9v0.3h-2.3V56c0-0.3,0-0.6-0.1-0.9
			c-0.1-0.3-0.2-0.6-0.3-0.8s-0.4-0.4-0.7-0.6c-0.3-0.1-0.6-0.2-1-0.2c-0.4,0-0.7,0.1-1,0.2c-0.3,0.1-0.5,0.3-0.7,0.6
			c-0.2,0.2-0.3,0.5-0.4,0.9c-0.1,0.3-0.1,0.7-0.1,1v3.1c0,0.4,0,0.8,0.1,1.1c0.1,0.3,0.2,0.6,0.4,0.9c0.2,0.2,0.4,0.4,0.7,0.6
			C261.9,62,262.2,62.1,262.6,62.1z"/>
		<path class="st0" d="M271.5,63.9h-2.3V51.7h2.3v5h0.5l3.2-5h2.6v0.1l-3.8,5.8V58l4,5.8v0.1h-2.7l-3.3-5h-0.5V63.9z"/>
		<path class="st0" d="M184,72.6h8.1v2.2h-2.9v7.8h2.9v2.2H184v-2.2h2.9v-7.8H184V72.6z"/>
		<path class="st0" d="M200.4,83.6h0.3v-11h2.3v12.2h-4.5l-1.4-11h-0.3v11h-2.3V72.6h4.5L200.4,83.6z"/>
		<path class="st0" d="M224.4,82.6v2.2h-8.6v-2.4c0-0.6,0.1-1.2,0.3-1.6c0.2-0.5,0.5-0.8,0.8-1.1c0.4-0.3,0.8-0.6,1.3-0.8
			c0.5-0.2,1.1-0.4,1.7-0.5c0.5-0.1,0.8-0.2,1.1-0.4c0.3-0.1,0.5-0.3,0.7-0.5c0.2-0.2,0.3-0.4,0.4-0.6c0.1-0.2,0.1-0.4,0.1-0.7
			c0-0.5-0.2-0.9-0.5-1.2s-0.8-0.5-1.5-0.5c-0.7,0-1.2,0.2-1.6,0.6s-0.6,1-0.6,1.7v0.8h-2.3v-1c0-0.6,0.1-1.1,0.3-1.6
			c0.2-0.5,0.5-1,0.9-1.4c0.4-0.4,0.8-0.7,1.4-0.9c0.5-0.2,1.2-0.3,1.8-0.3c0.7,0,1.4,0.1,1.9,0.3c0.5,0.2,1,0.5,1.4,0.8
			c0.4,0.3,0.6,0.8,0.8,1.2c0.2,0.5,0.3,0.9,0.3,1.4v0.2c0,1-0.3,1.9-0.9,2.5c-0.6,0.7-1.5,1.2-2.8,1.5c-0.5,0.1-1,0.3-1.3,0.4
			c-0.4,0.1-0.6,0.3-0.8,0.4c-0.2,0.2-0.3,0.3-0.4,0.5c-0.1,0.2-0.1,0.4-0.1,0.7v0.2H224.4z"/>
		<path class="st0" d="M226.2,77.3c0-1.6,0.4-2.8,1.2-3.7c0.8-0.9,1.9-1.3,3.3-1.3c1.4,0,2.5,0.4,3.3,1.3c0.8,0.9,1.2,2.1,1.2,3.7
			V80c0,1.6-0.4,2.9-1.2,3.7c-0.8,0.8-1.9,1.3-3.3,1.3c-1.4,0-2.5-0.4-3.3-1.3c-0.8-0.8-1.2-2.1-1.2-3.7V77.3z M230.7,82.9
			c0.4,0,0.8-0.1,1-0.2c0.3-0.1,0.5-0.3,0.7-0.6c0.2-0.2,0.3-0.5,0.4-0.9c0.1-0.3,0.1-0.7,0.1-1.1v-3c0-0.4,0-0.7-0.1-1.1
			c-0.1-0.3-0.2-0.6-0.4-0.9c-0.2-0.2-0.4-0.4-0.7-0.6c-0.3-0.1-0.6-0.2-1-0.2c-0.4,0-0.7,0.1-1,0.2c-0.3,0.1-0.5,0.3-0.7,0.6
			c-0.2,0.2-0.3,0.5-0.4,0.9c-0.1,0.3-0.1,0.7-0.1,1.1v3c0,0.4,0,0.8,0.1,1.1c0.1,0.3,0.2,0.6,0.4,0.9c0.2,0.2,0.4,0.4,0.7,0.6
			C229.9,82.9,230.2,82.9,230.7,82.9z M229.2,78.7c0-0.4,0.1-0.7,0.4-1c0.3-0.3,0.6-0.4,1-0.4c0.4,0,0.7,0.1,1,0.4
			c0.3,0.3,0.4,0.6,0.4,1s-0.1,0.7-0.4,1c-0.3,0.3-0.6,0.4-1,0.4c-0.4,0-0.7-0.1-1-0.4C229.3,79.4,229.2,79.1,229.2,78.7z"/>
		<path class="st0" d="M245.7,82.6v2.2h-8.6v-2.4c0-0.6,0.1-1.2,0.3-1.6c0.2-0.5,0.5-0.8,0.8-1.1c0.4-0.3,0.8-0.6,1.3-0.8
			c0.5-0.2,1.1-0.4,1.7-0.5c0.5-0.1,0.8-0.2,1.1-0.4c0.3-0.1,0.5-0.3,0.7-0.5c0.2-0.2,0.3-0.4,0.4-0.6c0.1-0.2,0.1-0.4,0.1-0.7
			c0-0.5-0.2-0.9-0.5-1.2s-0.8-0.5-1.5-0.5c-0.7,0-1.2,0.2-1.6,0.6c-0.4,0.4-0.6,1-0.6,1.7v0.8H237v-1c0-0.6,0.1-1.1,0.3-1.6
			c0.2-0.5,0.5-1,0.9-1.4c0.4-0.4,0.8-0.7,1.4-0.9c0.5-0.2,1.2-0.3,1.8-0.3c0.7,0,1.4,0.1,1.9,0.3c0.5,0.2,1,0.5,1.4,0.8
			s0.6,0.8,0.8,1.2c0.2,0.5,0.3,0.9,0.3,1.4v0.2c0,1-0.3,1.9-0.9,2.5c-0.6,0.7-1.5,1.2-2.8,1.5c-0.5,0.1-1,0.3-1.3,0.4
			c-0.4,0.1-0.6,0.3-0.8,0.4c-0.2,0.2-0.3,0.3-0.4,0.5c-0.1,0.2-0.1,0.4-0.1,0.7v0.2H245.7z"/>
		<path class="st0" d="M256.3,82.6v2.2h-8.6v-2.4c0-0.6,0.1-1.2,0.3-1.6c0.2-0.5,0.5-0.8,0.8-1.1c0.4-0.3,0.8-0.6,1.3-0.8
			c0.5-0.2,1.1-0.4,1.7-0.5c0.5-0.1,0.8-0.2,1.1-0.4c0.3-0.1,0.5-0.3,0.7-0.5c0.2-0.2,0.3-0.4,0.4-0.6c0.1-0.2,0.1-0.4,0.1-0.7
			c0-0.5-0.2-0.9-0.5-1.2s-0.8-0.5-1.5-0.5c-0.7,0-1.2,0.2-1.6,0.6s-0.6,1-0.6,1.7v0.8h-2.3v-1c0-0.6,0.1-1.1,0.3-1.6
			c0.2-0.5,0.5-1,0.9-1.4c0.4-0.4,0.8-0.7,1.4-0.9c0.5-0.2,1.2-0.3,1.8-0.3c0.7,0,1.4,0.1,1.9,0.3c0.5,0.2,1,0.5,1.4,0.8
			s0.6,0.8,0.8,1.2c0.2,0.5,0.3,0.9,0.3,1.4v0.2c0,1-0.3,1.9-0.9,2.5c-0.6,0.7-1.5,1.2-2.8,1.5c-0.5,0.1-1,0.3-1.3,0.4
			c-0.4,0.1-0.6,0.3-0.8,0.4c-0.2,0.2-0.3,0.3-0.4,0.5c-0.1,0.2-0.1,0.4-0.1,0.7v0.2H256.3z"/>
	</g>
</g>
</svg>
