<?xml version="1.0" encoding="UTF-8" standalone="no"?>
<!DOCTYPE svg PUBLIC "-//W3C//DTD SVG 1.1//EN" "http://www.w3.org/Graphics/SVG/1.1/DTD/svg11.dtd">
<svg width="100%" height="100%" viewBox="0 0 899 617" version="1.1" xmlns="http://www.w3.org/2000/svg" xmlns:xlink="http://www.w3.org/1999/xlink" xml:space="preserve" xmlns:serif="http://www.serif.com/" style="fill-rule:evenodd;clip-rule:evenodd;stroke-linejoin:round;stroke-miterlimit:2;">
    <rect id="Artboard1" x="0" y="0" width="899" height="617" style="fill:none;"/>
    <g id="Artboard11" serif:id="Artboard1">
        <g>
            <path d="M33.5,244C51.173,244 65.5,229.673 65.5,212C65.5,194.327 51.173,180 33.5,180C15.827,180 1.5,194.327 1.5,212C1.5,229.673 15.827,244 33.5,244Z" style="fill:white;fill-rule:nonzero;"/>
            <path d="M33.5,330C51.173,330 65.5,315.673 65.5,298C65.5,280.327 51.173,266 33.5,266C15.827,266 1.5,280.327 1.5,298C1.5,315.673 15.827,330 33.5,330Z" style="fill:rgb(117,250,76);fill-rule:nonzero;"/>
            <path d="M207.5,330C225.173,330 239.5,315.673 239.5,298C239.5,280.327 225.173,266 207.5,266C189.827,266 175.5,280.327 175.5,298C175.5,315.673 189.827,330 207.5,330Z" style="fill:rgb(117,250,76);fill-rule:nonzero;"/>
            <path d="M584.5,154C602.173,154 616.5,139.673 616.5,122C616.5,104.327 602.173,90 584.5,90C566.827,90 552.5,104.327 552.5,122C552.5,139.673 566.827,154 584.5,154Z" style="fill:rgb(117,250,76);fill-rule:nonzero;"/>
            <path d="M33.5,614C51.173,614 65.5,599.673 65.5,582C65.5,564.327 51.173,550 33.5,550C15.827,550 1.5,564.327 1.5,582C1.5,599.673 15.827,614 33.5,614Z" style="fill:white;fill-rule:nonzero;"/>
            <path d="M33.5,515C51.173,515 65.5,500.673 65.5,483C65.5,465.327 51.173,451 33.5,451C15.827,451 1.5,465.327 1.5,483C1.5,500.673 15.827,515 33.5,515Z" style="fill:rgb(0,32,245);fill-rule:nonzero;"/>
            <path d="M768.5,242C786.173,242 800.5,227.673 800.5,210C800.5,192.327 786.173,178 768.5,178C750.827,178 736.5,192.327 736.5,210C736.5,227.673 750.827,242 768.5,242Z" style="fill:rgb(230,54,35);fill-rule:nonzero;"/>
            <path d="M687.5,64C705.173,64 719.5,49.673 719.5,32C719.5,14.327 705.173,0 687.5,0C669.827,0 655.5,14.327 655.5,32C655.5,49.673 669.827,64 687.5,64Z" style="fill:rgb(0,32,245);fill-rule:nonzero;"/>
            <path d="M490.5,154C508.173,154 522.5,139.673 522.5,122C522.5,104.327 508.173,90 490.5,90C472.827,90 458.5,104.327 458.5,122C458.5,139.673 472.827,154 490.5,154Z" style="fill:white;fill-rule:nonzero;"/>
            <path d="M129.6,142.2L109.4,142.2L106.5,155L94.8,155L109,95.5L130,95.5L144.2,155L132.5,155L129.6,142.2ZM111.8,131.5L127.2,131.5L120.3,101.1L118.8,101.1L111.8,131.5Z" style="fill:white;fill-rule:nonzero;"/>
            <path d="M100.4,180.5L111.6,180.5L111.6,229.3L138.6,229.3L138.6,240L100.4,240L100.4,180.5Z" style="fill:white;fill-rule:nonzero;"/>
            <path d="M103.4,268.5L114.6,268.5L114.6,317.3L141.6,317.3L141.6,328L103.3,328L103.4,268.5Z" style="fill:white;fill-rule:nonzero;"/>
            <path d="M678.5,297.9L704.1,297.9L704.1,328L693.9,328L693.9,321.4L692.4,321.4C691.7,323.6 690.4,325.5 688.5,327C686.6,328.5 683.7,329.2 679.8,329.2C677.1,329.2 674.5,328.7 672.1,327.7C669.7,326.7 667.7,325.2 665.9,323.2C664.1,321.2 662.8,318.7 661.7,315.7C660.7,312.7 660.2,309.2 660.2,305.2L660.2,291.3C660.2,287.4 660.7,284 661.8,281.1C662.9,278.1 664.5,275.6 666.4,273.5C668.4,271.5 670.7,269.9 673.5,268.9C676.2,267.8 679.2,267.3 682.5,267.3C685.9,267.3 688.9,267.9 691.6,269C694.3,270.1 696.5,271.6 698.4,273.6C700.3,275.5 701.7,277.8 702.6,280.5C703.6,283.1 704,285.9 704,288.9L704,289.9L692.8,289.9L692.8,288.9C692.8,285.3 691.9,282.6 690,280.8C688.2,278.9 685.6,278 682.3,278C679.1,278 676.5,279.1 674.5,281.2C672.5,283.3 671.4,286.9 671.4,292.1L671.4,304.7C671.4,313.9 675.1,318.5 682.6,318.5C685.9,318.5 688.5,317.6 690.2,315.9C692,314.1 692.8,311.7 692.8,308.7L678.5,308.7L678.5,297.9Z" style="fill:white;fill-rule:nonzero;"/>
            <path d="M761.3,298.2C761.3,296.3 762,294.6 763.4,293.2C764.8,291.8 766.5,291.1 768.4,291.1C770.3,291.1 772,291.8 773.4,293.2C774.8,294.6 775.5,296.3 775.5,298.2C775.5,300.1 774.8,301.8 773.4,303.2C772,304.6 770.3,305.3 768.4,305.3C766.5,305.3 764.8,304.6 763.4,303.2C762.1,301.8 761.3,300.2 761.3,298.2ZM746.6,291.6C746.6,283.9 748.5,277.9 752.4,273.7C756.3,269.5 761.7,267.3 768.6,267.3C775.5,267.3 780.8,269.4 784.7,273.7C788.6,277.9 790.6,283.9 790.6,291.6L790.6,304.9C790.6,312.8 788.6,318.9 784.7,323C780.8,327.1 775.5,329.2 768.6,329.2C761.7,329.2 756.4,327.1 752.4,323C748.5,318.9 746.6,312.8 746.6,304.9L746.6,291.6ZM768.5,319C770.5,319 772.2,318.7 773.6,318.1C775,317.4 776.1,316.5 776.9,315.3C777.8,314.1 778.3,312.7 778.7,311.1C779,309.5 779.2,307.6 779.2,305.7L779.2,291.1C779.2,289.2 779,287.5 778.6,285.8C778.2,284.2 777.6,282.7 776.7,281.6C775.9,280.4 774.7,279.5 773.4,278.8C772,278.1 770.4,277.7 768.5,277.7C766.6,277.7 764.9,278.1 763.6,278.8C762.2,279.5 761.1,280.4 760.3,281.6C759.5,282.8 758.8,284.2 758.4,285.8C758,287.4 757.8,289.2 757.8,291.1L757.8,305.7C757.8,307.7 758,309.5 758.3,311.1C758.6,312.7 759.2,314.2 760.1,315.3C760.9,316.5 762.1,317.4 763.4,318.1C764.7,318.7 766.4,319 768.5,319Z" style="fill:white;fill-rule:nonzero;"/>
            <path d="M868.1,267.5L868.1,309L856.9,309L856.9,267.5L868.1,267.5ZM870.6,320.1C870.6,321.2 870.4,322.3 869.9,323.3C869.5,324.3 868.9,325.1 868.2,325.8C867.5,326.5 866.6,327 865.6,327.4C864.6,327.9 863.6,328.1 862.5,328.1C861.4,328.1 860.3,327.9 859.4,327.4C858.4,327 857.6,326.5 856.9,325.8C856.2,325.1 855.6,324.2 855.1,323.3C854.7,322.3 854.5,321.2 854.5,320.1C854.5,319 854.7,317.9 855.1,317C855.6,316 856.1,315.1 856.9,314.5C857.6,313.8 858.5,313.2 859.4,312.8C860.4,312.3 861.4,312.1 862.5,312.1C863.6,312.1 864.6,312.3 865.6,312.8C866.6,313.2 867.5,313.8 868.2,314.5C868.9,315.2 869.5,316 869.9,317C870.3,317.9 870.6,319 870.6,320.1Z" style="fill:white;fill-rule:nonzero;"/>
            <path d="M129.7,378.7C129.7,376.3 128.8,374.3 126.9,372.5C125.1,370.7 122.5,369.9 119.2,369.9C116.4,369.9 114.1,370.5 112.5,371.7C110.9,372.8 110,374.4 110,376.4C110,377.4 110.2,378.4 110.6,379.2C111,380 111.7,380.7 112.6,381.4C113.6,382 114.9,382.6 116.5,383.1C118.1,383.6 120.2,384.1 122.7,384.5C128.9,385.6 133.7,387.5 137,390.2C140.3,392.9 141.9,396.8 141.9,402L141.9,403C141.9,405.8 141.4,408.3 140.4,410.6C139.4,412.8 138,414.7 136.2,416.3C134.3,417.9 132.1,419.1 129.4,420C126.7,420.9 123.7,421.3 120.4,421.3C116.5,421.3 113,420.8 110,419.7C107.1,418.6 104.6,417 102.6,415.1C100.6,413.1 99.1,410.8 98.1,408.2C97.1,405.5 96.6,402.6 96.6,399.5L96.6,397L107.8,397L107.8,399C107.8,402.6 108.8,405.4 110.9,407.6C113,409.7 116.2,410.7 120.6,410.7C124,410.7 126.5,410 128.2,408.5C129.8,407 130.7,405.3 130.7,403.2C130.7,402.2 130.5,401.3 130.2,400.5C129.9,399.6 129.3,398.8 128.4,398.1C127.5,397.4 126.4,396.7 124.9,396.1C123.4,395.5 121.6,395.1 119.3,394.7C116.3,394.2 113.5,393.5 111.1,392.7C108.6,391.8 106.4,390.7 104.6,389.4C102.8,388 101.4,386.3 100.4,384.3C99.4,382.3 98.9,379.8 98.9,376.8L98.9,376.3C98.9,373.9 99.4,371.6 100.3,369.6C101.3,367.5 102.7,365.7 104.5,364.2C106.3,362.7 108.5,361.5 111,360.6C113.5,359.7 116.4,359.3 119.5,359.3C123,359.3 126.1,359.8 128.9,360.8C131.6,361.8 133.9,363.1 135.7,364.8C137.6,366.5 139,368.5 139.9,370.7C140.9,372.9 141.3,375.2 141.3,377.7L141.3,380.8L130.1,380.8L130.1,378.7L129.7,378.7Z" style="fill:white;fill-rule:nonzero;"/>
            <path d="M201.9,399.1L199.3,399.1L182.2,360.5L194.4,360.5L206.6,388.9L208.1,388.9L220.3,360.5L232.5,360.5L215.4,399.1L212.8,399.1L212.8,420L201.6,420L201.6,399.1L201.9,399.1Z" style="fill:white;fill-rule:nonzero;"/>
            <path d="M308.7,378.7C308.7,376.3 307.8,374.3 305.9,372.5C304.1,370.7 301.5,369.9 298.2,369.9C295.4,369.9 293.1,370.5 291.5,371.7C289.9,372.8 289,374.4 289,376.4C289,377.4 289.2,378.4 289.6,379.2C290,380 290.7,380.7 291.6,381.4C292.6,382 293.9,382.6 295.5,383.1C297.1,383.6 299.2,384.1 301.7,384.5C307.9,385.6 312.7,387.5 316,390.2C319.3,392.9 320.9,396.8 320.9,402L320.9,403C320.9,405.8 320.4,408.3 319.4,410.6C318.4,412.8 317,414.7 315.2,416.3C313.3,417.9 311.1,419.1 308.4,420C305.7,420.9 302.7,421.3 299.4,421.3C295.5,421.3 292,420.8 289,419.7C286.1,418.6 283.6,417 281.6,415.1C279.6,413.1 278.1,410.8 277.1,408.2C276.1,405.5 275.6,402.6 275.6,399.5L275.6,397L286.8,397L286.8,399C286.8,402.6 287.8,405.4 289.9,407.6C292,409.7 295.2,410.7 299.6,410.7C303,410.7 305.5,410 307.2,408.5C308.9,407 309.7,405.3 309.7,403.2C309.7,402.2 309.5,401.3 309.2,400.5C308.9,399.6 308.3,398.8 307.4,398.1C306.5,397.4 305.4,396.7 303.9,396.1C302.4,395.5 300.6,395.1 298.3,394.7C295.3,394.2 292.5,393.5 290.1,392.7C287.6,391.8 285.4,390.7 283.6,389.4C281.8,388 280.4,386.3 279.4,384.3C278.4,382.3 277.9,379.8 277.9,376.8L277.9,376.3C277.9,373.9 278.4,371.6 279.3,369.6C280.3,367.5 281.7,365.7 283.5,364.2C285.3,362.7 287.5,361.5 290,360.6C292.5,359.7 295.4,359.3 298.5,359.3C302,359.3 305.1,359.8 307.9,360.8C310.6,361.8 312.9,363.1 314.7,364.8C316.6,366.5 318,368.5 318.9,370.7C319.9,372.9 320.3,375.2 320.3,377.7L320.3,380.8L309.1,380.8L309.1,378.7L308.7,378.7Z" style="fill:white;fill-rule:nonzero;"/>
            <path d="M374.1,360.5L416.9,360.5L416.9,371.2L401.1,371.2L401.1,420L389.9,420L389.9,371.2L374.1,371.2L374.1,360.5Z" style="fill:white;fill-rule:nonzero;"/>
            <path d="M474.4,360.5L512,360.5L512,371.2L485.7,371.2L485.7,384.8L511,384.8L511,395.5L485.7,395.5L485.7,409.3L513,409.3L513,420L474.4,420L474.4,360.5Z" style="fill:white;fill-rule:nonzero;"/>
            <path d="M560.3,360.5L580,360.5L583.4,405.2L583.4,413.9L585.4,413.9L585.4,405.2L588.8,360.5L608.5,360.5L608.5,420L598.3,420L598.3,380.2L599.3,366.6L597.3,366.6L593,420L576.2,420L571.6,366.6L569.6,366.6L570.6,380.2L570.6,420L560.4,420L560.4,360.5L560.3,360.5Z" style="fill:white;fill-rule:nonzero;"/>
            <path d="M692.7,378.7C692.7,376.3 691.8,374.3 689.9,372.5C688.1,370.7 685.5,369.9 682.2,369.9C679.4,369.9 677.1,370.5 675.5,371.7C673.9,372.8 673,374.4 673,376.4C673,377.4 673.2,378.4 673.6,379.2C674,380 674.7,380.7 675.6,381.4C676.6,382 677.9,382.6 679.5,383.1C681.1,383.6 683.2,384.1 685.7,384.5C691.9,385.6 696.7,387.5 700,390.2C703.3,392.9 704.9,396.8 704.9,402L704.9,403C704.9,405.8 704.4,408.3 703.4,410.6C702.4,412.8 701,414.7 699.2,416.3C697.3,417.9 695.1,419.1 692.4,420C689.7,420.9 686.7,421.3 683.4,421.3C679.5,421.3 676,420.8 673,419.7C670.1,418.6 667.6,417 665.6,415.1C663.6,413.1 662.1,410.8 661.1,408.2C660.1,405.5 659.6,402.6 659.6,399.5L659.6,397L670.8,397L670.8,399C670.8,402.6 671.8,405.4 673.9,407.6C676,409.7 679.2,410.7 683.6,410.7C687,410.7 689.5,410 691.2,408.5C692.9,407 693.7,405.3 693.7,403.2C693.7,402.2 693.5,401.3 693.2,400.5C692.9,399.6 692.3,398.8 691.4,398.1C690.6,397.4 689.4,396.7 687.9,396.1C686.4,395.5 684.6,395.1 682.3,394.7C679.3,394.2 676.5,393.5 674.1,392.7C671.6,391.8 669.4,390.7 667.6,389.4C665.8,388 664.4,386.3 663.4,384.3C662.4,382.3 661.9,379.8 661.9,376.8L661.9,376.3C661.9,373.9 662.4,371.6 663.3,369.6C664.3,367.5 665.7,365.7 667.5,364.2C669.3,362.7 671.5,361.5 674,360.6C676.6,359.7 679.4,359.3 682.5,359.3C686,359.3 689.1,359.8 691.9,360.8C694.6,361.8 696.9,363.1 698.7,364.8C700.6,366.5 702,368.5 702.9,370.7C703.9,372.9 704.3,375.2 704.3,377.7L704.3,380.8L693.1,380.8L693.1,378.7L692.7,378.7Z" style="fill:white;fill-rule:nonzero;"/>
            <path d="M243.5,481C243.5,481.8 242.8,482.4 242.1,482.4L230.3,482.4C229.5,482.4 228.9,481.7 228.9,481C228.9,480.2 229.6,479.6 230.3,479.6L242.1,479.6C242.9,479.6 243.5,480.2 243.5,481Z" style="fill:rgb(238,37,36);fill-rule:nonzero;"/>
            <path d="M188.1,481C188.1,481.8 187.4,482.4 186.7,482.4L174.8,482.4C174,482.4 173.4,481.7 173.4,481C173.4,480.2 174.1,479.6 174.8,479.6L186.6,479.6C187.5,479.6 188.1,480.2 188.1,481Z" style="fill:rgb(238,37,36);fill-rule:nonzero;"/>
            <path d="M209.9,502.8L209.9,514.6C209.9,515.4 209.2,515.9 208.5,515.9C207.7,515.9 207.1,515.2 207.1,514.6L207.1,502.8C207.1,502 207.8,501.4 208.5,501.4C209.3,501.4 209.9,502 209.9,502.8Z" style="fill:rgb(238,37,36);fill-rule:nonzero;"/>
            <path d="M209.9,447.4L209.9,459.2C209.9,460 209.2,460.6 208.5,460.6C207.7,460.6 207.1,459.9 207.1,459.2L207.1,447.4C207.1,446.6 207.8,446 208.5,446C209.3,446 209.9,446.7 209.9,447.4Z" style="fill:rgb(238,37,36);fill-rule:nonzero;"/>
            <path d="M222.2,512.3C222.2,512.9 221.9,513.4 221.3,513.7C220.6,514 219.7,513.6 219.5,512.9L215.1,501.9C214.8,501.2 215.2,500.3 215.9,500.1C216.6,499.8 217.5,500.2 217.7,500.9L222.1,511.9C222.2,511.9 222.2,512.1 222.2,512.3Z" style="fill:rgb(238,37,36);fill-rule:nonzero;"/>
            <path d="M201.9,460.7C201.9,461.3 201.6,461.8 201,462C200.3,462.3 199.4,461.9 199.2,461.2L194.9,450.2C194.6,449.5 195,448.6 195.7,448.4C196.4,448.2 197.3,448.5 197.5,449.2L201.9,460.2L201.9,460.7Z" style="fill:rgb(238,37,36);fill-rule:nonzero;"/>
            <path d="M240.6,494.7C240.6,494.9 240.6,495 240.5,495.3C240.2,496 239.4,496.3 238.7,496L227.9,491.2C227.2,490.9 226.9,490.1 227.2,489.4C227.5,488.7 228.3,488.4 229,488.7L239.8,493.5C240.2,493.7 240.6,494.3 240.6,494.7Z" style="fill:rgb(238,37,36);fill-rule:nonzero;"/>
            <path d="M190,472.1C190,472.3 190,472.4 189.9,472.7C189.6,473.4 188.8,473.7 188.1,473.4L177.2,468.6C176.5,468.3 176.2,467.5 176.5,466.8C176.8,466.1 177.6,465.8 178.3,466.1L189.1,470.9C189.7,471.1 190,471.5 190,472.1Z" style="fill:rgb(238,37,36);fill-rule:nonzero;"/>
            <path d="M232.9,505.4C232.9,505.7 232.8,506.2 232.4,506.4C231.8,507 230.9,506.9 230.4,506.3L222.4,497.7C221.8,497.1 221.8,496.2 222.4,495.8C223,495.2 223.9,495.3 224.4,495.8L232.5,504.5C232.8,504.7 232.9,505.1 232.9,505.4Z" style="fill:rgb(238,37,36);fill-rule:nonzero;"/>
            <path d="M195,465.1C195,465.4 194.9,465.9 194.6,466.1C194,466.7 193.1,466.6 192.6,466L184.5,457.3C183.9,456.8 184.1,455.9 184.6,455.5C185.2,454.9 185.9,454.9 186.5,455.5L194.6,464.2C194.9,464.5 195,464.8 195,465.1Z" style="fill:rgb(238,37,36);fill-rule:nonzero;"/>
            <path d="M202.1,501.4C202.1,501.5 202.1,501.7 202,501.9L197.7,512.9C197.5,513.6 196.6,514 195.9,513.7C195.2,513.5 194.8,512.6 195.1,511.9L199.4,500.9C199.6,500.2 200.5,499.8 201.2,500.1C201.7,500.2 202.1,500.8 202.1,501.4Z" style="fill:rgb(238,37,36);fill-rule:nonzero;"/>
            <path d="M221.9,449.6C221.9,449.7 221.9,449.9 221.8,450L217.5,461C217.3,461.7 216.4,462.1 215.7,461.8C215,461.6 214.6,460.7 214.9,460L219.2,449C219.4,448.3 220.3,447.9 221,448.2C221.6,448.5 221.9,449 221.9,449.6Z" style="fill:rgb(238,37,36);fill-rule:nonzero;"/>
            <path d="M194.4,496.4C194.4,496.7 194.3,497.1 193.9,497.4L185.5,505.7C184.9,506.3 184,506.3 183.5,505.7C182.9,505.1 182.9,504.2 183.5,503.7L191.8,495.4C192.4,494.8 193.3,494.8 193.8,495.4C194.3,495.6 194.4,496.1 194.4,496.4Z" style="fill:rgb(238,37,36);fill-rule:nonzero;"/>
            <path d="M233.7,457.3C233.7,457.6 233.6,458 233.3,458.3L224.9,466.6C224.3,467.2 223.4,467.2 222.9,466.6C222.3,466 222.3,465.1 222.9,464.6L231.3,456.3C231.9,455.7 232.8,455.7 233.3,456.3C233.6,456.6 233.7,456.9 233.7,457.3Z" style="fill:rgb(238,37,36);fill-rule:nonzero;"/>
            <path d="M189.8,489.3C189.8,489.9 189.5,490.3 188.9,490.5L178,495C177.3,495.3 176.4,495 176.2,494.2C175.9,493.5 176.2,492.6 177,492.4L187.9,487.9C188.6,487.6 189.5,487.9 189.7,488.7C189.7,489 189.8,489.1 189.8,489.3Z" style="fill:rgb(238,37,36);fill-rule:nonzero;"/>
            <path d="M241,468.2C241,468.8 240.7,469.2 240.1,469.4L229.2,473.9C228.5,474.2 227.6,473.9 227.4,473.1C227.1,472.4 227.4,471.5 228.2,471.3L239.1,466.8C239.8,466.5 240.7,466.8 240.9,467.6C240.9,467.8 241,468.1 241,468.2Z" style="fill:rgb(238,37,36);fill-rule:nonzero;"/>
            <path d="M898.5,211C898.5,211.8 897.8,212.4 897.2,212.4L885.4,212.4C884.6,212.4 884,211.7 884,211C884,210.2 884.7,209.6 885.4,209.6L897.2,209.6C897.9,209.6 898.5,210.2 898.5,211Z" style="fill:rgb(117,250,76);fill-rule:nonzero;"/>
            <path d="M843.1,211C843.1,211.8 842.4,212.4 841.8,212.4L829.9,212.4C829.1,212.4 828.6,211.7 828.6,211C828.6,210.2 829.3,209.6 829.9,209.6L841.7,209.6C842.5,209.6 843.1,210.2 843.1,211Z" style="fill:rgb(117,250,76);fill-rule:nonzero;"/>
            <path d="M864.8,232.8L864.8,244.6C864.8,245.4 864.1,246 863.5,246C862.7,246 862.2,245.3 862.2,244.6L862.2,232.8C862.2,232 862.9,231.4 863.5,231.4C864.3,231.4 864.8,232 864.8,232.8Z" style="fill:rgb(117,250,76);fill-rule:nonzero;"/>
            <path d="M864.8,177.4L864.8,189.2C864.8,190 864.1,190.6 863.5,190.6C862.7,190.6 862.2,189.9 862.2,189.2L862.2,177.4C862.2,176.6 862.9,176 863.5,176C864.3,176 864.8,176.7 864.8,177.4Z" style="fill:rgb(117,250,76);fill-rule:nonzero;"/>
            <path d="M877.2,242.3C877.2,242.9 876.9,243.4 876.3,243.7C875.6,244 874.7,243.6 874.5,242.9L870.1,231.9C869.8,231.2 870.2,230.3 870.9,230.1C871.6,229.8 872.5,230.2 872.7,230.9L877.1,241.9C877.2,241.9 877.2,242.1 877.2,242.3Z" style="fill:rgb(117,250,76);fill-rule:nonzero;"/>
            <path d="M856.9,190.7C856.9,191.3 856.6,191.8 856,192.1C855.3,192.4 854.4,192 854.2,191.3L849.9,180.3C849.6,179.6 850,178.7 850.7,178.5C851.4,178.3 852.3,178.6 852.5,179.3L856.9,190.3L856.9,190.7Z" style="fill:rgb(117,250,76);fill-rule:nonzero;"/>
            <path d="M895.6,224.7C895.6,224.9 895.6,225 895.5,225.3C895.2,226 894.4,226.3 893.7,226L882.9,221.2C882.2,220.9 881.9,220.1 882.2,219.4C882.5,218.7 883.3,218.4 884,218.7L894.8,223.5C895.2,223.7 895.6,224.3 895.6,224.7Z" style="fill:rgb(117,250,76);fill-rule:nonzero;"/>
            <path d="M845,202.1C845,202.3 845,202.4 844.9,202.7C844.6,203.4 843.8,203.7 843.1,203.4L832.2,198.6C831.5,198.3 831.2,197.5 831.5,196.8C831.8,196.1 832.6,195.8 833.3,196.1L844.1,200.9C844.7,201.1 845,201.5 845,202.1Z" style="fill:rgb(117,250,76);fill-rule:nonzero;"/>
            <path d="M887.9,235.4C887.9,235.7 887.8,236.2 887.4,236.4C886.8,237 885.9,236.8 885.4,236.3L877.4,227.7C876.8,227.1 876.8,226.2 877.4,225.8C878,225.2 878.9,225.4 879.4,225.8L887.5,234.5C887.8,234.7 887.9,235.1 887.9,235.4Z" style="fill:rgb(117,250,76);fill-rule:nonzero;"/>
            <path d="M850,195.1C850,195.4 849.9,195.9 849.5,196.1C848.9,196.7 848,196.5 847.5,196L839.4,187.3C838.8,186.8 838.9,185.9 839.5,185.5C840.1,184.9 840.9,184.9 841.4,185.5L849.5,194.2C849.9,194.5 850,194.8 850,195.1Z" style="fill:rgb(117,250,76);fill-rule:nonzero;"/>
            <path d="M857.1,231.4C857.1,231.5 857.1,231.7 857,231.9L852.7,242.9C852.5,243.6 851.6,244 850.9,243.7C850.2,243.5 849.8,242.6 850.1,241.9L854.4,230.9C854.6,230.2 855.5,229.8 856.2,230.1C856.7,230.2 857.1,230.8 857.1,231.4Z" style="fill:rgb(117,250,76);fill-rule:nonzero;"/>
            <path d="M876.9,179.6C876.9,179.7 876.9,179.9 876.8,180L872.5,191C872.3,191.7 871.4,192.1 870.7,191.8C870,191.6 869.6,190.7 869.9,190L874.2,179C874.4,178.3 875.3,177.9 876,178.2C876.6,178.5 876.9,179 876.9,179.6Z" style="fill:rgb(117,250,76);fill-rule:nonzero;"/>
            <path d="M849.4,226.4C849.4,226.7 849.3,227.1 848.9,227.4L840.5,235.7C839.9,236.3 839,236.3 838.5,235.7C838,235.1 837.9,234.2 838.5,233.7L846.8,225.4C847.4,224.8 848.3,224.8 848.8,225.4C849.3,225.6 849.4,226.1 849.4,226.4Z" style="fill:rgb(117,250,76);fill-rule:nonzero;"/>
            <path d="M888.7,187.3C888.7,187.6 888.6,188 888.2,188.3L879.8,196.6C879.2,197.2 878.3,197.2 877.8,196.6C877.2,196 877.2,195.1 877.8,194.6L886.2,186.3C886.8,185.7 887.7,185.7 888.2,186.3C888.6,186.6 888.7,186.9 888.7,187.3Z" style="fill:rgb(117,250,76);fill-rule:nonzero;"/>
            <path d="M844.8,219.3C844.8,219.9 844.5,220.3 843.9,220.5L833,225C832.3,225.3 831.4,225 831.2,224.2C830.9,223.5 831.2,222.6 832,222.4L842.9,217.9C843.6,217.6 844.5,217.9 844.7,218.7C844.7,219 844.8,219.1 844.8,219.3Z" style="fill:rgb(117,250,76);fill-rule:nonzero;"/>
            <path d="M896,198.2C896,198.8 895.7,199.2 895.1,199.4L884.2,203.9C883.5,204.2 882.6,203.9 882.4,203.1C882.1,202.4 882.4,201.5 883.2,201.3L894.1,196.8C894.8,196.5 895.7,196.8 895.9,197.6C895.9,197.8 896,198.1 896,198.2Z" style="fill:rgb(117,250,76);fill-rule:nonzero;"/>
            <path d="M11.5,382C17.575,382 22.5,377.075 22.5,371C22.5,364.925 17.575,360 11.5,360C5.425,360 0.5,364.925 0.5,371C0.5,377.075 5.425,382 11.5,382Z" style="fill:rgb(230,54,35);fill-rule:nonzero;"/>
            <path d="M55.5,382C61.575,382 66.5,377.075 66.5,371C66.5,364.925 61.575,360 55.5,360C49.425,360 44.5,364.925 44.5,371C44.5,377.075 49.425,382 55.5,382Z" style="fill:rgb(230,54,35);fill-rule:nonzero;"/>
            <path d="M11.5,421C17.575,421 22.5,416.075 22.5,410C22.5,403.925 17.575,399 11.5,399C5.425,399 0.5,403.925 0.5,410C0.5,416.075 5.425,421 11.5,421Z" style="fill:rgb(230,54,35);fill-rule:nonzero;"/>
            <path d="M55.5,421C61.575,421 66.5,416.075 66.5,410C66.5,403.925 61.575,399 55.5,399C49.425,399 44.5,403.925 44.5,410C44.5,416.075 49.425,421 55.5,421Z" style="fill:rgb(230,54,35);fill-rule:nonzero;"/>
            <path d="M660.5,469C666.575,469 671.5,464.075 671.5,458C671.5,451.925 666.575,447 660.5,447C654.425,447 649.5,451.925 649.5,458C649.5,464.075 654.425,469 660.5,469Z" style="fill:rgb(230,54,35);fill-rule:nonzero;"/>
            <path d="M704.5,469C710.575,469 715.5,464.075 715.5,458C715.5,451.925 710.575,447 704.5,447C698.425,447 693.5,451.925 693.5,458C693.5,464.075 698.425,469 704.5,469Z" style="fill:rgb(230,54,35);fill-rule:nonzero;"/>
            <path d="M660.5,508C666.575,508 671.5,503.075 671.5,497C671.5,490.925 666.575,486 660.5,486C654.425,486 649.5,490.925 649.5,497C649.5,503.075 654.425,508 660.5,508Z" style="fill:rgb(230,54,35);fill-rule:nonzero;"/>
            <path d="M704.5,508C710.575,508 715.5,503.075 715.5,497C715.5,490.925 710.575,486 704.5,486C698.425,486 693.5,490.925 693.5,497C693.5,503.075 698.425,508 704.5,508Z" style="fill:rgb(230,54,35);fill-rule:nonzero;"/>
            <path d="M186.5,22C192.575,22 197.5,17.075 197.5,11C197.5,4.925 192.575,0 186.5,0C180.425,0 175.5,4.925 175.5,11C175.5,17.075 180.425,22 186.5,22Z" style="fill:rgb(230,54,35);fill-rule:nonzero;"/>
            <path d="M230.5,22C236.575,22 241.5,17.075 241.5,11C241.5,4.925 236.575,0 230.5,0C224.425,0 219.5,4.925 219.5,11C219.5,17.075 224.425,22 230.5,22Z" style="fill:rgb(230,54,35);fill-rule:nonzero;"/>
            <path d="M186.5,61C192.575,61 197.5,56.075 197.5,50C197.5,43.925 192.575,39 186.5,39C180.425,39 175.5,43.925 175.5,50C175.5,56.075 180.425,61 186.5,61Z" style="fill:rgb(230,54,35);fill-rule:nonzero;"/>
            <path d="M230.5,61C236.575,61 241.5,56.075 241.5,50C241.5,43.925 236.575,39 230.5,39C224.425,39 219.5,43.925 219.5,50C219.5,56.075 224.425,61 230.5,61Z" style="fill:rgb(230,54,35);fill-rule:nonzero;"/>
            <path d="M1.5,32C1.5,14.3 15.8,0 33.5,0C51.2,0 65.5,14.3 65.5,32L65.5,126C65.5,143.7 51.2,158 33.5,158C15.8,158 1.5,143.7 1.5,126L1.5,32Z" style="fill:rgb(230,54,35);fill-rule:nonzero;"/>
            <path d="M33.5,64C51.173,64 65.5,49.673 65.5,32C65.5,14.327 51.173,0 33.5,0C15.827,0 1.5,14.327 1.5,32C1.5,49.673 15.827,64 33.5,64Z" style="fill:rgb(0,32,245);fill-rule:nonzero;"/>
            <path d="M33.5,158C51.173,158 65.5,143.673 65.5,126C65.5,108.327 51.173,94 33.5,94C15.827,94 1.5,108.327 1.5,126C1.5,143.673 15.827,158 33.5,158Z" style="fill:white;fill-rule:nonzero;"/>
            <path d="M33.5,136C39.023,136 43.5,131.523 43.5,126C43.5,120.477 39.023,116 33.5,116C27.977,116 23.5,120.477 23.5,126C23.5,131.523 27.977,136 33.5,136Z" style="fill-rule:nonzero;"/>
            <path d="M553.5,211C553.5,193.3 567.8,179 585.5,179C603.2,179 617.5,193.3 617.5,211L617.5,305C617.5,322.7 603.2,337 585.5,337C567.8,337 553.5,322.7 553.5,305L553.5,211Z" style="fill:rgb(230,54,35);fill-rule:nonzero;"/>
            <path d="M585.5,243C603.173,243 617.5,228.673 617.5,211C617.5,193.327 603.173,179 585.5,179C567.827,179 553.5,193.327 553.5,211C553.5,228.673 567.827,243 585.5,243Z" style="fill:rgb(0,32,245);fill-rule:nonzero;"/>
            <path d="M585.5,337C603.173,337 617.5,322.673 617.5,305C617.5,287.327 603.173,273 585.5,273C567.827,273 553.5,287.327 553.5,305C553.5,322.673 567.827,337 585.5,337Z" style="fill:white;fill-rule:nonzero;"/>
            <path d="M585.5,315C591.023,315 595.5,310.523 595.5,305C595.5,299.477 591.023,295 585.5,295C579.977,295 575.5,299.477 575.5,305C575.5,310.523 579.977,315 585.5,315Z" style="fill-rule:nonzero;"/>
            <path d="M301.5,180C319.2,180 333.5,194.3 333.5,212C333.5,229.7 319.2,244 301.5,244L207.5,244C189.8,244 175.5,229.7 175.5,212C175.5,194.3 189.8,180 207.5,180L301.5,180Z" style="fill:white;fill-rule:nonzero;"/>
            <path d="M301.5,244C319.173,244 333.5,229.673 333.5,212C333.5,194.327 319.173,180 301.5,180C283.827,180 269.5,194.327 269.5,212C269.5,229.673 283.827,244 301.5,244Z" style="fill:rgb(117,250,76);fill-rule:nonzero;"/>
            <path d="M207.5,244C225.173,244 239.5,229.673 239.5,212C239.5,194.327 225.173,180 207.5,180C189.827,180 175.5,194.327 175.5,212C175.5,229.673 189.827,244 207.5,244Z" style="fill:rgb(230,54,35);fill-rule:nonzero;"/>
            <path d="M396.5,64C378.8,64 364.5,49.7 364.5,32C364.5,14.3 378.8,0 396.5,0L490.5,0C508.2,0 522.5,14.3 522.5,32C522.5,49.7 508.2,64 490.5,64L396.5,64Z" style="fill:rgb(230,54,35);fill-rule:nonzero;"/>
            <path d="M396.5,64C414.173,64 428.5,49.673 428.5,32C428.5,14.327 414.173,0 396.5,0C378.827,0 364.5,14.327 364.5,32C364.5,49.673 378.827,64 396.5,64Z" style="fill:rgb(0,32,245);fill-rule:nonzero;"/>
            <path d="M490.5,64C508.173,64 522.5,49.673 522.5,32C522.5,14.327 508.173,0 490.5,0C472.827,0 458.5,14.327 458.5,32C458.5,49.673 472.827,64 490.5,64Z" style="fill:rgb(117,250,76);fill-rule:nonzero;"/>
            <path d="M490.5,42C496.023,42 500.5,37.523 500.5,32C500.5,26.477 496.023,22 490.5,22C484.977,22 480.5,26.477 480.5,32C480.5,37.523 484.977,42 490.5,42Z" style="fill-rule:nonzero;"/>
            <path d="M301.5,330C283.8,330 269.5,315.7 269.5,298C269.5,280.3 283.8,266 301.5,266L395.5,266C413.2,266 427.5,280.3 427.5,298C427.5,315.7 413.2,330 395.5,330L301.5,330Z" style="fill:rgb(230,54,35);fill-rule:nonzero;"/>
            <path d="M301.5,330C319.173,330 333.5,315.673 333.5,298C333.5,280.327 319.173,266 301.5,266C283.827,266 269.5,280.327 269.5,298C269.5,315.673 283.827,330 301.5,330Z" style="fill:rgb(0,32,245);fill-rule:nonzero;"/>
            <path d="M395.5,330C413.173,330 427.5,315.673 427.5,298C427.5,280.327 413.173,266 395.5,266C377.827,266 363.5,280.327 363.5,298C363.5,315.673 377.827,330 395.5,330Z" style="fill:rgb(117,250,76);fill-rule:nonzero;"/>
            <path d="M301.5,154C283.8,154 269.5,139.7 269.5,122C269.5,104.3 283.8,90 301.5,90L395.5,90C413.2,90 427.5,104.3 427.5,122C427.5,139.7 413.2,154 395.5,154L301.5,154Z" style="fill:white;fill-rule:nonzero;"/>
            <path d="M301.5,154C319.173,154 333.5,139.673 333.5,122C333.5,104.327 319.173,90 301.5,90C283.827,90 269.5,104.327 269.5,122C269.5,139.673 283.827,154 301.5,154Z" style="fill:rgb(0,32,245);fill-rule:nonzero;"/>
            <path d="M395.5,154C413.173,154 427.5,139.673 427.5,122C427.5,104.327 413.173,90 395.5,90C377.827,90 363.5,104.327 363.5,122C363.5,139.673 377.827,154 395.5,154Z" style="fill:rgb(230,54,35);fill-rule:nonzero;"/>
            <path d="M395.5,132C401.023,132 405.5,127.523 405.5,122C405.5,116.477 401.023,112 395.5,112C389.977,112 385.5,116.477 385.5,122C385.5,127.523 389.977,132 395.5,132Z" style="fill-rule:nonzero;"/>
            <path d="M777.5,550C795.2,550 809.5,564.3 809.5,582C809.5,599.7 795.2,614 777.5,614L683.5,614C665.8,614 651.5,599.7 651.5,582C651.5,564.3 665.8,550 683.5,550L777.5,550Z" style="fill:white;fill-rule:nonzero;"/>
            <path d="M683.5,614C701.173,614 715.5,599.673 715.5,582C715.5,564.327 701.173,550 683.5,550C665.827,550 651.5,564.327 651.5,582C651.5,599.673 665.827,614 683.5,614Z" style="fill:rgb(230,54,35);fill-rule:nonzero;"/>
            <path d="M683.5,592C689.023,592 693.5,587.523 693.5,582C693.5,576.477 689.023,572 683.5,572C677.977,572 673.5,576.477 673.5,582C673.5,587.523 677.977,592 683.5,592Z" style="fill-rule:nonzero;"/>
            <path d="M862.5,446C880.2,446 894.5,460.3 894.5,478C894.5,495.7 880.2,510 862.5,510L768.5,510C750.8,510 736.5,495.7 736.5,478C736.5,460.3 750.8,446 768.5,446L862.5,446Z" style="fill:rgb(0,32,245);fill-rule:nonzero;"/>
            <path d="M768.5,510C786.173,510 800.5,495.673 800.5,478C800.5,460.327 786.173,446 768.5,446C750.827,446 736.5,460.327 736.5,478C736.5,495.673 750.827,510 768.5,510Z" style="fill:white;fill-rule:nonzero;"/>
            <path d="M768.5,488C774.023,488 778.5,483.523 778.5,478C778.5,472.477 774.023,468 768.5,468C762.977,468 758.5,472.477 758.5,478C758.5,483.523 762.977,488 768.5,488Z" style="fill-rule:nonzero;"/>
            <path d="M588.5,446C606.2,446 620.5,460.3 620.5,478C620.5,495.7 606.2,510 588.5,510L494.5,510C476.8,510 462.5,495.7 462.5,478C462.5,460.3 476.8,446 494.5,446L588.5,446Z" style="fill:white;fill-rule:nonzero;"/>
            <path d="M494.5,510C512.173,510 526.5,495.673 526.5,478C526.5,460.327 512.173,446 494.5,446C476.827,446 462.5,460.327 462.5,478C462.5,495.673 476.827,510 494.5,510Z" style="fill:rgb(230,54,35);fill-rule:nonzero;"/>
            <path d="M494.5,488C500.023,488 504.5,483.523 504.5,478C504.5,472.477 500.023,468 494.5,468C488.977,468 484.5,472.477 484.5,478C484.5,483.523 488.977,488 494.5,488Z" style="fill-rule:nonzero;"/>
            <path d="M119.5,64C137.173,64 151.5,49.673 151.5,32C151.5,14.327 137.173,0 119.5,0C101.827,0 87.5,14.327 87.5,32C87.5,49.673 101.827,64 119.5,64Z" style="fill:white;fill-rule:nonzero;"/>
            <path d="M119.5,42C125.023,42 129.5,37.523 129.5,32C129.5,26.477 125.023,22 119.5,22C113.977,22 109.5,26.477 109.5,32C109.5,37.523 113.977,42 119.5,42Z" style="fill-rule:nonzero;"/>
            <path d="M208.5,154C226.173,154 240.5,139.673 240.5,122C240.5,104.327 226.173,90 208.5,90C190.827,90 176.5,104.327 176.5,122C176.5,139.673 190.827,154 208.5,154Z" style="fill:rgb(117,250,76);fill-rule:nonzero;"/>
            <path d="M208.5,132C214.023,132 218.5,127.523 218.5,122C218.5,116.477 214.023,112 208.5,112C202.977,112 198.5,116.477 198.5,122C198.5,127.523 202.977,132 208.5,132Z" style="fill-rule:nonzero;"/>
            <path d="M768.5,420C786.173,420 800.5,405.673 800.5,388C800.5,370.327 786.173,356 768.5,356C750.827,356 736.5,370.327 736.5,388C736.5,405.673 750.827,420 768.5,420Z" style="fill:rgb(117,250,76);fill-rule:nonzero;"/>
            <path d="M768.5,398C774.023,398 778.5,393.523 778.5,388C778.5,382.477 774.023,378 768.5,378C762.977,378 758.5,382.477 758.5,388C758.5,393.523 762.977,398 768.5,398Z" style="fill-rule:nonzero;"/>
            <path d="M584.5,64C602.173,64 616.5,49.673 616.5,32C616.5,14.327 602.173,0 584.5,0C566.827,0 552.5,14.327 552.5,32C552.5,49.673 566.827,64 584.5,64Z" style="fill:rgb(230,54,35);fill-rule:nonzero;"/>
            <path d="M584.5,42C590.023,42 594.5,37.523 594.5,32C594.5,26.477 590.023,22 584.5,22C578.977,22 574.5,26.477 574.5,32C574.5,37.523 578.977,42 584.5,42Z" style="fill-rule:nonzero;"/>
            <path d="M299.5,511C317.173,511 331.5,496.673 331.5,479C331.5,461.327 317.173,447 299.5,447C281.827,447 267.5,461.327 267.5,479C267.5,496.673 281.827,511 299.5,511Z" style="fill:rgb(230,54,35);fill-rule:nonzero;"/>
            <path d="M299.5,489C305.023,489 309.5,484.523 309.5,479C309.5,473.477 305.023,469 299.5,469C293.977,469 289.5,473.477 289.5,479C289.5,484.523 293.977,489 299.5,489Z" style="fill-rule:nonzero;"/>
            <rect x="366.5" y="451" width="12" height="12" style="fill:white;fill-rule:nonzero;"/>
            <rect x="390.5" y="451" width="12" height="12" style="fill:white;fill-rule:nonzero;"/>
            <rect x="414.5" y="451" width="12" height="12" style="fill:white;fill-rule:nonzero;"/>
            <rect x="366.5" y="475" width="12" height="12" style="fill:white;fill-rule:nonzero;"/>
            <rect x="390.5" y="475" width="12" height="12" style="fill:white;fill-rule:nonzero;"/>
            <rect x="414.5" y="475" width="12" height="12" style="fill:white;fill-rule:nonzero;"/>
            <rect x="366.5" y="499" width="12" height="12" style="fill:white;fill-rule:nonzero;"/>
            <rect x="390.5" y="499" width="12" height="12" style="fill:white;fill-rule:nonzero;"/>
            <rect x="414.5" y="499" width="12" height="12" style="fill:white;fill-rule:nonzero;"/>
            <rect x="652.5" y="181" width="12" height="12" style="fill:rgb(0,32,245);fill-rule:nonzero;"/>
            <rect x="676.5" y="181" width="12" height="12" style="fill:rgb(0,32,245);fill-rule:nonzero;"/>
            <rect x="700.5" y="181" width="12" height="12" style="fill:rgb(0,32,245);fill-rule:nonzero;"/>
            <rect x="652.5" y="205" width="12" height="12" style="fill:rgb(0,32,245);fill-rule:nonzero;"/>
            <rect x="676.5" y="205" width="12" height="12" style="fill:rgb(0,32,245);fill-rule:nonzero;"/>
            <rect x="700.5" y="205" width="12" height="12" style="fill:rgb(0,32,245);fill-rule:nonzero;"/>
            <rect x="652.5" y="229" width="12" height="12" style="fill:rgb(0,32,245);fill-rule:nonzero;"/>
            <rect x="676.5" y="229" width="12" height="12" style="fill:rgb(0,32,245);fill-rule:nonzero;"/>
            <rect x="700.5" y="229" width="12" height="12" style="fill:rgb(0,32,245);fill-rule:nonzero;"/>
            <rect x="272.5" y="0" width="8" height="64" style="fill:white;fill-rule:nonzero;"/>
            <rect x="295.5" y="0" width="8" height="64" style="fill:white;fill-rule:nonzero;"/>
            <rect x="320.5" y="0" width="8" height="64" style="fill:white;fill-rule:nonzero;"/>
            <rect x="267.5" y="22" width="18" height="6" style="fill:rgb(230,54,35);fill-rule:nonzero;"/>
            <rect x="290.5" y="43" width="18" height="6" style="fill:rgb(0,32,245);fill-rule:nonzero;"/>
            <rect x="315.5" y="8" width="18" height="6" style="fill:rgb(117,250,76);fill-rule:nonzero;"/>
            <rect x="834.5" y="356" width="8" height="64" style="fill:white;fill-rule:nonzero;"/>
            <rect x="857.5" y="356" width="8" height="64" style="fill:white;fill-rule:nonzero;"/>
            <rect x="882.5" y="356" width="8" height="64" style="fill:white;fill-rule:nonzero;"/>
            <rect x="829.5" y="378" width="18" height="6" style="fill:rgb(230,54,35);fill-rule:nonzero;"/>
            <rect x="852.5" y="399" width="18" height="6" style="fill:rgb(0,32,245);fill-rule:nonzero;"/>
            <rect x="877.5" y="364" width="18" height="6" style="fill:rgb(117,250,76);fill-rule:nonzero;"/>
            <path d="M750,41.2C753,41.2 755.5,38.7 755.5,35.5L755.8,36.9L808.4,23C808.8,25.8 811,27.8 813.8,27.8C814.8,27.8 815.8,27.5 816.7,27L834.5,55.1C834.3,55.8 834.1,56.5 834.1,57.3C834.1,60.4 836.5,63 839.6,63C842.6,63 845.1,60.5 845.1,57.3C845.1,55.5 844.2,53.9 842.9,52.8L858.9,13.8L866.3,39.2C864.8,40.2 863.7,42 863.7,44C863.7,47.2 866.1,49.7 869.2,49.7C872.2,49.7 874.7,47.2 874.7,44C874.7,42.9 874.4,41.8 873.8,41L886.5,27.1C887.3,27.6 888.2,27.9 889.1,27.9C892.1,27.9 894.6,25.4 894.6,22.2C894.6,19.1 892.2,16.5 889.1,16.5C886.1,16.5 883.6,19 883.6,22.2C883.6,23.3 883.9,24.4 884.5,25.2L871.8,39.1C871,38.6 870.1,38.4 869.2,38.4L869,38.4L861,11.7C862.5,10.7 863.6,8.9 863.6,6.9C863.6,3.8 861.2,1.2 858.1,1.2C855,1.2 852.6,3.7 852.6,6.9C852.6,9.4 854.3,11.6 856.5,12.3L840.2,51.7C840,51.7 839.6,51.6 839.4,51.6C838.2,51.6 837,52.1 836.1,52.7L818.5,24.8C818.9,24 819.2,23.1 819.2,22C819.2,18.9 816.8,16.3 813.7,16.3C811.4,16.3 809.4,17.8 808.6,20L755.2,34.1C754.5,31.6 752.4,29.7 749.9,29.7C746.8,29.7 744.4,32.2 744.4,35.4C744.5,38.7 746.9,41.2 750,41.2Z" style="fill:rgb(117,250,76);fill-rule:nonzero;"/>
            <path d="M504.7,323.5C504.7,320.5 502.2,318 499,318L500.4,317.7L486.6,265.1C489.4,264.7 491.4,262.5 491.4,259.7C491.4,258.7 491.1,257.7 490.6,256.8L518.7,239C519.4,239.2 520.1,239.4 520.9,239.4C524,239.4 526.6,237 526.6,233.9C526.6,230.9 524.1,228.4 520.9,228.4C519.1,228.4 517.5,229.3 516.4,230.6L477.4,214.6L502.8,207.2C503.8,208.7 505.6,209.8 507.6,209.8C510.8,209.8 513.3,207.4 513.3,204.3C513.3,201.3 510.8,198.8 507.6,198.8C506.5,198.8 505.4,199.1 504.6,199.7L490.7,187C491.2,186.2 491.5,185.3 491.5,184.4C491.5,181.4 489,178.9 485.8,178.9C482.7,178.9 480.1,181.3 480.1,184.4C480.1,187.4 482.6,189.9 485.8,189.9C486.9,189.9 488,189.6 488.8,189L502.7,201.7C502.2,202.5 502,203.3 502,204.3L502,204.5L475.2,212.3C474.2,210.8 472.4,209.7 470.4,209.7C467.3,209.7 464.7,212.1 464.7,215.2C464.7,218.3 467.2,220.7 470.4,220.7C472.9,220.7 475.1,219 475.8,216.8L515.2,233.1C515.2,233.3 515.1,233.7 515.1,233.9C515.1,235.1 515.6,236.3 516.2,237.2L488.3,254.8C487.5,254.4 486.6,254.1 485.5,254.1C482.4,254.1 479.8,256.5 479.8,259.6C479.8,261.9 481.3,263.9 483.5,264.7L497.6,318.1C495.1,318.8 493.2,320.9 493.2,323.4C493.2,326.5 495.7,328.9 498.9,328.9C502.2,329 504.7,326.6 504.7,323.5Z" style="fill:rgb(117,250,76);fill-rule:nonzero;"/>
            <path d="M122.5,463C125.261,463 127.5,460.761 127.5,458C127.5,455.239 125.261,453 122.5,453C119.739,453 117.5,455.239 117.5,458C117.5,460.761 119.739,463 122.5,463Z" style="fill:rgb(0,32,245);fill-rule:nonzero;"/>
            <path d="M147.5,463C150.261,463 152.5,460.761 152.5,458C152.5,455.239 150.261,453 147.5,453C144.739,453 142.5,455.239 142.5,458C142.5,460.761 144.739,463 147.5,463Z" style="fill:rgb(0,32,245);fill-rule:nonzero;"/>
            <path d="M97.5,488C100.261,488 102.5,485.761 102.5,483C102.5,480.239 100.261,478 97.5,478C94.739,478 92.5,480.239 92.5,483C92.5,485.761 94.739,488 97.5,488Z" style="fill:rgb(0,32,245);fill-rule:nonzero;"/>
            <path d="M122.5,488C125.261,488 127.5,485.761 127.5,483C127.5,480.239 125.261,478 122.5,478C119.739,478 117.5,480.239 117.5,483C117.5,485.761 119.739,488 122.5,488Z" style="fill:rgb(0,32,245);fill-rule:nonzero;"/>
            <path d="M147.5,488C150.261,488 152.5,485.761 152.5,483C152.5,480.239 150.261,478 147.5,478C144.739,478 142.5,480.239 142.5,483C142.5,485.761 144.739,488 147.5,488Z" style="fill:rgb(0,32,245);fill-rule:nonzero;"/>
            <path d="M97.5,513C100.261,513 102.5,510.761 102.5,508C102.5,505.239 100.261,503 97.5,503C94.739,503 92.5,505.239 92.5,508C92.5,510.761 94.739,513 97.5,513Z" style="fill:rgb(0,32,245);fill-rule:nonzero;"/>
            <path d="M122.5,513C125.261,513 127.5,510.761 127.5,508C127.5,505.239 125.261,503 122.5,503C119.739,503 117.5,505.239 117.5,508C117.5,510.761 119.739,513 122.5,513Z" style="fill:rgb(0,32,245);fill-rule:nonzero;"/>
            <path d="M147.5,513C150.261,513 152.5,510.761 152.5,508C152.5,505.239 150.261,503 147.5,503C144.739,503 142.5,505.239 142.5,508C142.5,510.761 144.739,513 147.5,513Z" style="fill:rgb(0,32,245);fill-rule:nonzero;"/>
            <path d="M97.5,463C100.261,463 102.5,460.761 102.5,458C102.5,455.239 100.261,453 97.5,453C94.739,453 92.5,455.239 92.5,458C92.5,460.761 94.739,463 97.5,463Z" style="fill:rgb(0,32,245);fill-rule:nonzero;"/>
            <path d="M122.5,465C125.814,465 128.5,462.314 128.5,459C128.5,455.686 125.814,453 122.5,453C119.186,453 116.5,455.686 116.5,459C116.5,462.314 119.186,465 122.5,465Z" style="fill:rgb(0,32,245);fill-rule:nonzero;"/>
            <path d="M147.5,465C150.814,465 153.5,462.314 153.5,459C153.5,455.686 150.814,453 147.5,453C144.186,453 141.5,455.686 141.5,459C141.5,462.314 144.186,465 147.5,465Z" style="fill:rgb(0,32,245);fill-rule:nonzero;"/>
            <path d="M97.5,489C100.814,489 103.5,486.314 103.5,483C103.5,479.686 100.814,477 97.5,477C94.186,477 91.5,479.686 91.5,483C91.5,486.314 94.186,489 97.5,489Z" style="fill:rgb(0,32,245);fill-rule:nonzero;"/>
            <path d="M122.5,489C125.814,489 128.5,486.314 128.5,483C128.5,479.686 125.814,477 122.5,477C119.186,477 116.5,479.686 116.5,483C116.5,486.314 119.186,489 122.5,489Z" style="fill:rgb(0,32,245);fill-rule:nonzero;"/>
            <path d="M147.5,489C150.814,489 153.5,486.314 153.5,483C153.5,479.686 150.814,477 147.5,477C144.186,477 141.5,479.686 141.5,483C141.5,486.314 144.186,489 147.5,489Z" style="fill:rgb(0,32,245);fill-rule:nonzero;"/>
            <path d="M97.5,513C100.814,513 103.5,510.314 103.5,507C103.5,503.686 100.814,501 97.5,501C94.186,501 91.5,503.686 91.5,507C91.5,510.314 94.186,513 97.5,513Z" style="fill:rgb(0,32,245);fill-rule:nonzero;"/>
            <path d="M122.5,513C125.814,513 128.5,510.314 128.5,507C128.5,503.686 125.814,501 122.5,501C119.186,501 116.5,503.686 116.5,507C116.5,510.314 119.186,513 122.5,513Z" style="fill:rgb(0,32,245);fill-rule:nonzero;"/>
            <path d="M147.5,513C150.814,513 153.5,510.314 153.5,507C153.5,503.686 150.814,501 147.5,501C144.186,501 141.5,503.686 141.5,507C141.5,510.314 144.186,513 147.5,513Z" style="fill:rgb(0,32,245);fill-rule:nonzero;"/>
            <path d="M97.5,465C100.814,465 103.5,462.314 103.5,459C103.5,455.686 100.814,453 97.5,453C94.186,453 91.5,455.686 91.5,459C91.5,462.314 94.186,465 97.5,465Z" style="fill:rgb(0,32,245);fill-rule:nonzero;"/>
            <path d="M863.5,567C866.814,567 869.5,564.314 869.5,561C869.5,557.686 866.814,555 863.5,555C860.186,555 857.5,557.686 857.5,561C857.5,564.314 860.186,567 863.5,567Z" style="fill:rgb(230,54,35);fill-rule:nonzero;"/>
            <path d="M888.5,567C891.814,567 894.5,564.314 894.5,561C894.5,557.686 891.814,555 888.5,555C885.186,555 882.5,557.686 882.5,561C882.5,564.314 885.186,567 888.5,567Z" style="fill:rgb(230,54,35);fill-rule:nonzero;"/>
            <path d="M838.5,591C841.814,591 844.5,588.314 844.5,585C844.5,581.686 841.814,579 838.5,579C835.186,579 832.5,581.686 832.5,585C832.5,588.314 835.186,591 838.5,591Z" style="fill:rgb(230,54,35);fill-rule:nonzero;"/>
            <path d="M863.5,591C866.814,591 869.5,588.314 869.5,585C869.5,581.686 866.814,579 863.5,579C860.186,579 857.5,581.686 857.5,585C857.5,588.314 860.186,591 863.5,591Z" style="fill:rgb(230,54,35);fill-rule:nonzero;"/>
            <path d="M888.5,591C891.814,591 894.5,588.314 894.5,585C894.5,581.686 891.814,579 888.5,579C885.186,579 882.5,581.686 882.5,585C882.5,588.314 885.186,591 888.5,591Z" style="fill:rgb(230,54,35);fill-rule:nonzero;"/>
            <path d="M838.5,615C841.814,615 844.5,612.314 844.5,609C844.5,605.686 841.814,603 838.5,603C835.186,603 832.5,605.686 832.5,609C832.5,612.314 835.186,615 838.5,615Z" style="fill:rgb(230,54,35);fill-rule:nonzero;"/>
            <path d="M863.5,615C866.814,615 869.5,612.314 869.5,609C869.5,605.686 866.814,603 863.5,603C860.186,603 857.5,605.686 857.5,609C857.5,612.314 860.186,615 863.5,615Z" style="fill:rgb(230,54,35);fill-rule:nonzero;"/>
            <path d="M888.5,615C891.814,615 894.5,612.314 894.5,609C894.5,605.686 891.814,603 888.5,603C885.186,603 882.5,605.686 882.5,609C882.5,612.314 885.186,615 888.5,615Z" style="fill:rgb(230,54,35);fill-rule:nonzero;"/>
            <path d="M838.5,567C841.814,567 844.5,564.314 844.5,561C844.5,557.686 841.814,555 838.5,555C835.186,555 832.5,557.686 832.5,561C832.5,564.314 835.186,567 838.5,567Z" style="fill:rgb(230,54,35);fill-rule:nonzero;"/>
            <path d="M623.5,582C623.5,582.8 622.8,583.3 622.2,583.3L610.4,583.3C609.6,583.3 609,582.6 609,582C609,581.2 609.7,580.7 610.4,580.7L622.2,580.7C622.9,580.7 623.5,581.2 623.5,582Z" style="fill:white;fill-rule:nonzero;"/>
            <path d="M568.1,582C568.1,582.8 567.4,583.3 566.8,583.3L554.9,583.3C554.1,583.3 553.6,582.6 553.6,582C553.6,581.2 554.3,580.7 554.9,580.7L566.7,580.7C567.5,580.7 568.1,581.2 568.1,582Z" style="fill:white;fill-rule:nonzero;"/>
            <path d="M589.8,603.8L589.8,615.6C589.8,616.4 589.1,616.9 588.5,616.9C587.7,616.9 587.2,616.2 587.2,615.6L587.2,603.8C587.2,603 587.9,602.4 588.5,602.4C589.3,602.4 589.8,603 589.8,603.8Z" style="fill:white;fill-rule:nonzero;"/>
            <path d="M589.8,548.3L589.8,560.1C589.8,560.9 589.1,561.5 588.5,561.5C587.7,561.5 587.2,560.8 587.2,560.1L587.2,548.3C587.2,547.5 587.9,547 588.5,547C589.3,547 589.8,547.7 589.8,548.3Z" style="fill:white;fill-rule:nonzero;"/>
            <path d="M602.2,613.3C602.2,613.9 601.9,614.4 601.3,614.7C600.6,615 599.7,614.6 599.5,613.9L595.1,602.9C594.8,602.2 595.2,601.3 595.9,601.1C596.6,600.8 597.5,601.2 597.7,601.9L602.1,612.9C602.2,612.9 602.2,613.1 602.2,613.3Z" style="fill:white;fill-rule:nonzero;"/>
            <path d="M581.9,561.7C581.9,562.3 581.6,562.8 581,563.1C580.3,563.4 579.4,563 579.2,562.3L574.9,551.3C574.6,550.6 575,549.7 575.7,549.5C576.4,549.3 577.3,549.6 577.5,550.3L581.9,561.3L581.9,561.7Z" style="fill:white;fill-rule:nonzero;"/>
            <path d="M620.6,595.7C620.6,595.9 620.6,596 620.5,596.3C620.2,597 619.4,597.3 618.7,597L607.9,592.2C607.2,591.9 606.9,591.1 607.2,590.4C607.5,589.7 608.3,589.4 609,589.7L619.8,594.5C620.2,594.7 620.6,595.3 620.6,595.7Z" style="fill:white;fill-rule:nonzero;"/>
            <path d="M570,573.1C570,573.3 570,573.4 569.9,573.7C569.6,574.4 568.8,574.7 568.1,574.4L557.2,569.6C556.5,569.3 556.2,568.5 556.5,567.8C556.8,567.1 557.6,566.8 558.3,567.1L569.1,571.9C569.7,572.1 570,572.5 570,573.1Z" style="fill:white;fill-rule:nonzero;"/>
            <path d="M612.9,606.4C612.9,606.7 612.8,607.2 612.4,607.4C611.8,608 610.9,607.8 610.4,607.3L602.4,598.7C601.8,598.1 601.8,597.2 602.4,596.8C603,596.2 603.9,596.4 604.4,596.8L612.5,605.5C612.8,605.7 612.9,606.1 612.9,606.4Z" style="fill:white;fill-rule:nonzero;"/>
            <path d="M575,566.1C575,566.4 574.9,566.9 574.5,567.1C573.9,567.7 573,567.5 572.5,567L564.4,558.3C563.8,557.8 563.9,556.9 564.5,556.5C565.1,555.9 565.9,555.9 566.4,556.5L574.5,565.2C574.9,565.5 575,565.8 575,566.1Z" style="fill:white;fill-rule:nonzero;"/>
            <path d="M582.1,602.4C582.1,602.5 582.1,602.7 582,602.9L577.7,613.9C577.5,614.6 576.6,615 575.9,614.7C575.2,614.5 574.8,613.6 575.1,612.9L579.4,601.9C579.6,601.2 580.5,600.8 581.2,601.1C581.7,601.2 582.1,601.8 582.1,602.4Z" style="fill:white;fill-rule:nonzero;"/>
            <path d="M601.9,550.6C601.9,550.7 601.9,550.9 601.8,551.1L597.5,562.1C597.3,562.8 596.4,563.2 595.7,562.9C595,562.7 594.6,561.8 594.9,561.1L599.2,550.1C599.4,549.4 600.3,549 601,549.3C601.6,549.5 601.9,550 601.9,550.6Z" style="fill:white;fill-rule:nonzero;"/>
            <path d="M574.4,597.4C574.4,597.7 574.3,598.1 573.9,598.4L565.5,606.7C564.9,607.3 564,607.3 563.5,606.7C562.9,606.1 562.9,605.2 563.5,604.7L571.8,596.4C572.4,595.8 573.3,595.8 573.8,596.4C574.3,596.6 574.4,597.1 574.4,597.4Z" style="fill:white;fill-rule:nonzero;"/>
            <path d="M613.7,558.3C613.7,558.6 613.6,559 613.2,559.3L604.8,567.6C604.2,568.2 603.3,568.2 602.8,567.6C602.2,567 602.2,566.1 602.8,565.6L611.2,557.3C611.8,556.7 612.7,556.7 613.2,557.3C613.6,557.6 613.7,557.9 613.7,558.3Z" style="fill:white;fill-rule:nonzero;"/>
            <path d="M569.8,590.3C569.8,590.9 569.5,591.3 568.9,591.5L558,596C557.3,596.3 556.4,596 556.2,595.2C555.9,594.5 556.2,593.6 557,593.4L567.9,588.9C568.6,588.6 569.5,588.9 569.7,589.7C569.7,590 569.8,590.1 569.8,590.3Z" style="fill:white;fill-rule:nonzero;"/>
            <path d="M621,569.2C621,569.8 620.7,570.2 620.1,570.4L609.2,574.9C608.5,575.2 607.6,574.9 607.4,574.1C607.1,573.4 607.4,572.5 608.2,572.3L619.1,567.8C619.8,567.5 620.7,567.8 620.9,568.6C620.9,568.8 621,569.1 621,569.2Z" style="fill:white;fill-rule:nonzero;"/>
            <rect x="363.5" y="179" width="63" height="63" style="fill:white;fill-rule:nonzero;"/>
            <path d="M93.9,553.8L107,553.8L107,557.1L102.2,557.1L102.2,572L98.8,572L98.8,557.1L94,557.1L93.9,553.8ZM113.8,572L110.5,572L110.5,553.8L113.8,553.8L113.8,561.2L114.3,561.2C114.6,560.4 115.1,559.8 115.8,559.4C116.4,559 117.2,558.7 118.2,558.7C118.8,558.7 119.4,558.8 120,559C120.6,559.2 121,559.5 121.4,559.9C121.8,560.3 122.1,560.9 122.3,561.5C122.5,562.1 122.6,562.9 122.6,563.8L122.6,571.9L119.3,571.9L119.3,564.6C119.3,563.7 119.1,563 118.6,562.4C118.2,561.9 117.5,561.6 116.7,561.6C115.7,561.6 115,561.9 114.5,562.6C114,563.2 113.8,564.1 113.8,565.2L113.8,572ZM129.3,566.6C129.3,567 129.4,567.3 129.6,567.7C129.8,568 130,568.3 130.3,568.5C130.6,568.7 130.9,568.9 131.3,569C131.7,569.1 132.1,569.2 132.5,569.2C133.3,569.2 133.9,569.1 134.4,568.8C134.8,568.5 135.1,568.2 135.3,567.8L138.1,569.4C137.9,569.7 137.7,570.1 137.4,570.4C137.1,570.7 136.8,571.1 136.3,571.4C135.9,571.7 135.3,571.9 134.7,572.1C134.1,572.3 133.3,572.4 132.5,572.4C131.5,572.4 130.6,572.2 129.8,571.9C129,571.6 128.3,571.1 127.7,570.5C127.1,569.9 126.7,569.2 126.3,568.3C126,567.5 125.8,566.5 125.8,565.4L125.8,565.2C125.8,564.2 126,563.3 126.3,562.5C126.6,561.7 127.1,561 127.7,560.4C128.3,559.8 129,559.4 129.8,559.1C130.6,558.8 131.4,558.6 132.3,558.6C133.4,558.6 134.4,558.8 135.2,559.2C136,559.6 136.7,560.1 137.2,560.7C137.7,561.3 138.1,561.9 138.3,562.7C138.5,563.4 138.7,564.1 138.7,564.8L138.7,566.5L129.3,566.5L129.3,566.6ZM132.3,561.7C131.5,561.7 130.8,561.9 130.3,562.4C129.8,562.8 129.4,563.3 129.3,563.9L135.4,563.9C135.3,563.3 135,562.8 134.4,562.4C133.9,561.9 133.2,561.7 132.3,561.7ZM158,559.1L161.8,559.1L161.8,556.4C161.8,555.7 162.1,555 162.6,554.5C163.1,554 163.7,553.7 164.5,553.7L169.8,553.7L169.8,556.8L165.9,556.8C165.4,556.8 165.2,557.1 165.2,557.6L165.2,559L170.3,559L170.3,562.1L165,562.1L165,571.9L161.7,571.9L161.7,562.1L158,562.1L158,559.1ZM186.8,565.7C186.8,566.8 186.6,567.7 186.3,568.6C185.9,569.4 185.4,570.1 184.8,570.7C184.2,571.3 183.5,571.7 182.6,572C181.8,572.3 181,572.4 180.1,572.4C179.2,572.4 178.4,572.3 177.6,572C176.8,571.7 176.1,571.3 175.5,570.7C174.9,570.1 174.4,569.4 174,568.6C173.6,567.8 173.5,566.8 173.5,565.7L173.5,565.4C173.5,564.3 173.7,563.4 174,562.6C174.4,561.8 174.9,561.1 175.5,560.5C176.1,559.9 176.8,559.5 177.6,559.2C178.4,558.9 179.3,558.8 180.1,558.8C180.9,558.8 181.8,558.9 182.6,559.2C183.4,559.5 184.1,559.9 184.8,560.5C185.4,561.1 185.9,561.8 186.3,562.6C186.7,563.4 186.8,564.4 186.8,565.4L186.8,565.7ZM180.1,569.2C180.6,569.2 181,569.1 181.4,569C181.8,568.9 182.2,568.6 182.5,568.3C182.8,568 183.1,567.7 183.2,567.2C183.4,566.8 183.5,566.3 183.5,565.7L183.5,565.2C183.5,564.7 183.4,564.2 183.2,563.8C183,563.4 182.8,563 182.5,562.7C182.2,562.4 181.8,562.2 181.4,562C181,561.8 180.5,561.8 180.1,561.8C179.7,561.8 179.2,561.9 178.8,562C178.4,562.1 178,562.4 177.7,562.7C177.4,563 177.1,563.4 176.9,563.8C176.7,564.2 176.6,564.7 176.6,565.2L176.6,565.7C176.6,566.2 176.7,566.7 176.9,567.2C177.1,567.6 177.3,568 177.7,568.3C178,568.6 178.4,568.8 178.8,569C179.2,569.2 179.6,569.2 180.1,569.2ZM198.7,559.1L202.1,559.1L202.1,572L198.8,572L198.8,570.1L198.3,570.1C197.7,571.6 196.5,572.3 194.6,572.3C194,572.3 193.4,572.2 192.8,572C192.2,571.8 191.8,571.5 191.3,571C190.9,570.6 190.6,570 190.3,569.4C190.1,568.7 190,568 190,567.1L190,559L193.3,559L193.3,566.4C193.3,567.3 193.5,568 193.9,568.6C194.3,569.1 195,569.4 195.8,569.4C196.8,569.4 197.5,569.1 198,568.5C198.5,567.9 198.7,567 198.7,565.9L198.7,559.1ZM209.3,572L206,572L206,559.1L209.3,559.1L209.3,561L209.8,561C210.1,560.3 210.6,559.7 211.2,559.3C211.9,558.9 212.6,558.7 213.5,558.7C214.1,558.7 214.7,558.8 215.2,559C215.8,559.2 216.2,559.5 216.7,559.9C217.1,560.3 217.4,560.8 217.7,561.5C217.9,562.1 218.1,562.9 218.1,563.8L218.1,572L214.8,572L214.8,564.7C214.8,563.8 214.6,563.1 214.1,562.5C213.7,562 213,561.7 212.2,561.7C211.2,561.7 210.5,562 210,562.7C209.5,563.3 209.3,564.2 209.3,565.3L209.3,572ZM231.1,570.1L230.6,570.1C230.5,570.4 230.3,570.7 230.1,571C229.9,571.3 229.7,571.5 229.3,571.7C229,571.9 228.6,572.1 228.2,572.2C227.8,572.3 227.2,572.4 226.6,572.4C225.8,572.4 225.1,572.3 224.4,572C223.7,571.7 223.1,571.3 222.6,570.7C222.1,570.1 221.7,569.4 221.4,568.6C221.1,567.8 221,566.8 221,565.8L221,565.3C221,564.3 221.1,563.3 221.4,562.5C221.7,561.7 222.1,561 222.6,560.4C223.1,559.8 223.8,559.4 224.4,559.1C225.1,558.8 225.9,558.7 226.6,558.7C227.6,558.7 228.5,558.9 229.1,559.3C229.7,559.7 230.2,560.2 230.5,560.9L231,560.9L231,553.7L234.3,553.7L234.3,572L231,572L231,570.1L231.1,570.1ZM227.7,569.2C228.7,569.2 229.5,568.9 230.2,568.2C230.8,567.5 231.2,566.7 231.2,565.6L231.2,565.3C231.2,564.2 230.9,563.4 230.2,562.8C229.6,562.1 228.8,561.8 227.7,561.8C226.7,561.8 225.8,562.1 225.2,562.8C224.6,563.4 224.3,564.3 224.3,565.4L224.3,565.7C224.3,566.8 224.6,567.7 225.2,568.3C225.9,568.9 226.7,569.2 227.7,569.2ZM246.2,570.1C245.9,570.9 245.4,571.5 244.7,571.8C244.1,572.1 243.3,572.3 242.5,572.3C241.7,572.3 241,572.2 240.3,571.9C239.6,571.6 239,571.2 238.5,570.6C238,570 237.6,569.3 237.3,568.5C237,567.7 236.9,566.8 236.9,565.7L236.9,565.3C236.9,564.3 237,563.4 237.3,562.5C237.6,561.7 238,561 238.5,560.4C239,559.8 239.6,559.4 240.2,559.1C240.9,558.8 241.6,558.6 242.4,558.6C243.3,558.6 244.1,558.8 244.6,559.1C245.2,559.4 245.6,559.9 246,560.6L246.5,560.6L246.5,559L249.8,559L249.8,568C249.8,568.5 250,568.8 250.5,568.8L251,568.8L251,571.9L248.8,571.9C248.2,571.9 247.7,571.7 247.3,571.4C246.9,571.1 246.8,570.6 246.8,570L246.2,570.1ZM243.2,569.2C244.2,569.2 244.9,568.9 245.5,568.3C246.1,567.7 246.4,566.8 246.4,565.7L246.4,565.4C246.4,564.3 246.1,563.4 245.5,562.8C244.9,562.2 244.2,561.8 243.2,561.8C242.2,561.8 241.5,562.1 240.9,562.8C240.3,563.4 240,564.3 240,565.4L240,565.7C240,566.8 240.3,567.7 240.9,568.3C241.5,568.9 242.3,569.2 243.2,569.2ZM253.4,559.1L257.2,559.1L257.2,553.8L260.5,553.8L260.5,559.1L265.2,559.1L265.2,562.2L260.5,562.2L260.5,568.1C260.5,568.6 260.7,568.9 261.2,568.9L264.7,568.9L264.7,572L259.2,572C258.6,572 258.1,571.8 257.7,571.4C257.3,571 257.2,570.5 257.2,569.9L257.2,562.2L253.4,562.2L253.4,559.1ZM269.8,568.9L274.3,568.9L274.3,562.2L270.2,562.2L270.2,559.1L277.5,559.1L277.5,568.9L281.2,568.9L281.2,572L269.8,572L269.8,568.9ZM278.3,555.3C278.3,555.6 278.2,556 278.1,556.3C278,556.6 277.8,556.9 277.6,557.1C277.4,557.3 277.1,557.5 276.8,557.6C276.5,557.7 276.2,557.8 275.9,557.8C275.6,557.8 275.2,557.7 274.9,557.6C274.6,557.5 274.3,557.3 274.1,557.1C273.9,556.9 273.7,556.6 273.6,556.3C273.5,556 273.4,555.7 273.4,555.3C273.4,555 273.5,554.6 273.6,554.3C273.7,554 273.9,553.7 274.1,553.5C274.3,553.3 274.6,553.1 274.9,553C275.2,552.9 275.5,552.8 275.9,552.8C276.2,552.8 276.5,552.9 276.8,553C277.1,553.1 277.4,553.3 277.6,553.5C277.8,553.7 278,554 278.1,554.3C278.3,554.6 278.3,554.9 278.3,555.3ZM298.2,565.7C298.2,566.8 298,567.7 297.7,568.6C297.3,569.4 296.8,570.1 296.2,570.7C295.6,571.3 294.9,571.7 294,572C293.2,572.3 292.4,572.4 291.5,572.4C290.6,572.4 289.8,572.3 289,572C288.2,571.7 287.5,571.3 286.9,570.7C286.3,570.1 285.8,569.4 285.4,568.6C285,567.8 284.9,566.8 284.9,565.7L284.9,565.4C284.9,564.3 285.1,563.4 285.4,562.6C285.8,561.8 286.3,561.1 286.9,560.5C287.5,559.9 288.2,559.5 289,559.2C289.8,558.9 290.7,558.8 291.5,558.8C292.3,558.8 293.2,558.9 294,559.2C294.8,559.5 295.5,559.9 296.2,560.5C296.8,561.1 297.3,561.8 297.7,562.6C298.1,563.4 298.2,564.4 298.2,565.4L298.2,565.7ZM291.5,569.2C292,569.2 292.4,569.1 292.8,569C293.2,568.8 293.6,568.6 293.9,568.3C294.2,568 294.5,567.7 294.6,567.2C294.8,566.8 294.9,566.3 294.9,565.7L294.9,565.2C294.9,564.7 294.8,564.2 294.6,563.8C294.4,563.4 294.2,563 293.9,562.7C293.6,562.4 293.2,562.2 292.8,562C292.4,561.8 291.9,561.8 291.5,561.8C291,561.8 290.6,561.9 290.2,562C289.8,562.2 289.4,562.4 289.1,562.7C288.8,563 288.5,563.4 288.3,563.8C288.1,564.2 288,564.7 288,565.2L288,565.7C288,566.2 288.1,566.7 288.3,567.2C288.5,567.6 288.7,568 289.1,568.3C289.4,568.6 289.8,568.8 290.2,569C290.6,569.2 291,569.2 291.5,569.2ZM304.8,572L301.5,572L301.5,559.1L304.8,559.1L304.8,561L305.3,561C305.6,560.3 306.1,559.7 306.7,559.3C307.3,558.9 308.1,558.7 309,558.7C309.6,558.7 310.2,558.8 310.7,559C311.3,559.2 311.7,559.5 312.2,559.9C312.6,560.3 312.9,560.8 313.2,561.5C313.4,562.1 313.6,562.9 313.6,563.8L313.6,572L310.3,572L310.3,564.7C310.3,563.8 310.1,563.1 309.6,562.5C309.2,562 308.5,561.7 307.7,561.7C306.7,561.7 306,562 305.5,562.7C305,563.3 304.8,564.2 304.8,565.3L304.8,572ZM325.8,570.1C325.5,570.9 325,571.5 324.3,571.8C323.7,572.1 322.9,572.3 322.1,572.3C321.3,572.3 320.6,572.2 319.9,571.9C319.2,571.6 318.6,571.2 318.1,570.6C317.6,570 317.2,569.3 316.9,568.5C316.6,567.7 316.5,566.8 316.5,565.7L316.5,565.3C316.5,564.3 316.6,563.4 316.9,562.5C317.2,561.7 317.6,561 318.1,560.4C318.6,559.8 319.2,559.4 319.8,559.1C320.5,558.8 321.2,558.6 322,558.6C322.9,558.6 323.7,558.8 324.2,559.1C324.8,559.4 325.2,559.9 325.6,560.6L326.1,560.6L326.1,559L329.4,559L329.4,568C329.4,568.5 329.6,568.8 330.1,568.8L330.6,568.8L330.6,571.9L328.4,571.9C327.8,571.9 327.3,571.7 326.9,571.4C326.5,571.1 326.4,570.6 326.4,570L325.8,570.1ZM322.8,569.2C323.8,569.2 324.5,568.9 325.1,568.3C325.7,567.7 326,566.8 326,565.7L326,565.4C326,564.3 325.7,563.4 325.1,562.8C324.5,562.2 323.8,561.8 322.8,561.8C321.8,561.8 321.1,562.1 320.5,562.8C319.9,563.4 319.6,564.3 319.6,565.4L319.6,565.7C319.6,566.8 319.9,567.7 320.5,568.3C321.1,568.9 321.9,569.2 322.8,569.2ZM333.2,568.9L337.7,568.9L337.7,556.9L333.3,556.9L333.3,553.8L340.9,553.8L340.9,568.9L345.1,568.9L345.1,572L333.1,572L333.2,568.9ZM373.9,559.1L377.2,559.1L377.2,572L373.9,572L373.9,570.1L373.4,570.1C372.8,571.6 371.6,572.3 369.7,572.3C369.1,572.3 368.5,572.2 367.9,572C367.3,571.8 366.9,571.5 366.4,571C366,570.6 365.7,570 365.4,569.4C365.2,568.7 365.1,568 365.1,567.1L365.1,559L368.4,559L368.4,566.4C368.4,567.3 368.6,568 369,568.6C369.4,569.1 370.1,569.4 371,569.4C372,569.4 372.7,569.1 373.2,568.5C373.7,567.9 373.9,567 373.9,565.9L373.9,559.1ZM385.2,562.7C385.2,563.1 385.4,563.4 385.8,563.6C386.2,563.8 387,563.9 388.2,564C389.5,564.1 390.6,564.5 391.4,565.2C392.2,565.8 392.6,566.7 392.6,567.9L392.6,568.1C392.6,569.4 392.1,570.4 391.2,571.2C390.3,572 388.9,572.3 387.2,572.3C386.2,572.3 385.3,572.2 384.6,571.9C383.9,571.6 383.3,571.3 382.8,570.9C382.3,570.5 382,570.1 381.7,569.6C381.5,569.1 381.3,568.6 381.2,568.2L384.2,567.2C384.3,567.8 384.6,568.2 385.1,568.7C385.5,569.1 386.2,569.3 387.2,569.3C388,569.3 388.6,569.2 388.9,568.9C389.2,568.6 389.4,568.4 389.4,568.1C389.4,567.9 389.4,567.8 389.3,567.6C389.2,567.4 389.1,567.3 388.9,567.2C388.7,567.1 388.4,566.9 388,566.9C387.7,566.8 387.2,566.7 386.7,566.7C385.2,566.6 384.1,566.2 383.2,565.6C382.3,565 381.9,564 381.9,562.8L381.9,562.6C381.9,562 382,561.4 382.3,560.9C382.6,560.4 382.9,560 383.4,559.7C383.8,559.4 384.4,559.1 385,558.9C385.6,558.7 386.2,558.6 386.8,558.6C387.6,558.6 388.3,558.7 388.9,558.9C389.5,559.1 390,559.4 390.4,559.7C390.8,560 391.2,560.4 391.4,560.8C391.7,561.2 391.9,561.6 392,561.9L389,563.1C388.8,562.6 388.6,562.3 388.2,562C387.8,561.7 387.3,561.6 386.7,561.6C386.1,561.6 385.7,561.7 385.5,561.9C385.3,562.2 385.2,562.4 385.2,562.7ZM399.9,566.6C399.9,567 400,567.3 400.2,567.7C400.4,568 400.6,568.3 400.9,568.5C401.2,568.7 401.5,568.9 401.9,569C402.3,569.1 402.7,569.2 403.1,569.2C403.9,569.2 404.5,569.1 405,568.8C405.4,568.5 405.7,568.2 405.9,567.8L408.7,569.4C408.5,569.7 408.3,570.1 408.1,570.4C407.8,570.7 407.5,571.1 407,571.4C406.6,571.7 406,571.9 405.4,572.1C404.8,572.3 404,572.4 403.2,572.4C402.2,572.4 401.3,572.2 400.5,571.9C399.7,571.6 399,571.1 398.4,570.5C397.8,569.9 397.4,569.2 397,568.3C396.7,567.5 396.5,566.5 396.5,565.4L396.5,565.2C396.5,564.2 396.7,563.3 397,562.5C397.3,561.7 397.8,561 398.4,560.4C399,559.8 399.7,559.4 400.5,559.1C401.3,558.8 402.1,558.6 403,558.6C404.1,558.6 405.1,558.8 405.9,559.2C406.7,559.6 407.4,560.1 407.9,560.7C408.4,561.3 408.8,561.9 409,562.7C409.2,563.4 409.4,564.1 409.4,564.8L409.4,566.5L399.9,566.5L399.9,566.6ZM403,561.7C402.2,561.7 401.5,561.9 401,562.4C400.5,562.8 400.1,563.3 400,563.9L406.1,563.9C406,563.3 405.7,562.8 405.1,562.4C404.5,561.9 403.8,561.7 403,561.7ZM412.3,559.1L417.8,559.1L417.8,561L418.3,561C418.5,560.3 418.9,559.7 419.5,559.4C420.1,559 420.8,558.8 421.6,558.8C422.9,558.8 423.9,559.2 424.7,560C425.5,560.8 425.9,562 425.9,563.7L425.9,564.3L422.5,564.6L422.5,564.2C422.5,563.5 422.3,562.9 422,562.5C421.6,562.1 421.1,561.8 420.4,561.8C419.7,561.8 419.1,562.1 418.7,562.6C418.3,563.1 418.1,563.8 418.1,564.8L418.1,569L421.1,569L421.1,572.1L412,572.1L412,569L414.7,569L414.7,562.3L412.4,562.3L412.4,559.1L412.3,559.1ZM430.7,563.4L438.8,563.4L438.8,566.4L430.7,566.4L430.7,563.4ZM448.9,562.7C448.9,563.1 449.1,563.4 449.5,563.6C449.9,563.8 450.7,563.9 451.9,564C453.2,564.1 454.3,564.5 455.1,565.2C455.9,565.8 456.3,566.7 456.3,567.9L456.3,568.1C456.3,569.4 455.8,570.4 454.9,571.2C454,572 452.6,572.3 450.9,572.3C449.9,572.3 449,572.2 448.3,571.9C447.6,571.6 447,571.3 446.5,570.9C446,570.5 445.7,570.1 445.4,569.6C445.2,569.1 445,568.6 444.9,568.2L447.9,567.2C448,567.8 448.3,568.2 448.8,568.7C449.3,569.1 449.9,569.3 450.9,569.3C451.7,569.3 452.3,569.2 452.6,568.9C452.9,568.6 453.1,568.4 453.1,568.1C453.1,567.9 453.1,567.8 453,567.6C452.9,567.4 452.8,567.3 452.6,567.2C452.4,567.1 452.1,566.9 451.7,566.9C451.4,566.8 450.9,566.7 450.4,566.7C448.9,566.6 447.8,566.2 446.9,565.6C446.1,565 445.6,564 445.6,562.8L445.6,562.6C445.6,562 445.7,561.4 446,560.9C446.3,560.4 446.6,560 447.1,559.7C447.6,559.4 448.1,559.1 448.7,558.9C449.3,558.7 449.9,558.6 450.5,558.6C451.3,558.6 452,558.7 452.6,558.9C453.2,559.1 453.7,559.4 454.1,559.7C454.5,560 454.9,560.4 455.1,560.8C455.4,561.2 455.6,561.6 455.7,561.9L452.7,563.1C452.5,562.6 452.3,562.3 451.9,562C451.5,561.7 451,561.6 450.4,561.6C449.8,561.6 449.4,561.7 449.2,561.9C449,562.2 448.9,562.4 448.9,562.7ZM463.5,577.2L460,577.2L460,559.1L463.3,559.1L463.3,561L463.8,561C464.1,560.3 464.7,559.7 465.3,559.4C466,559 466.8,558.8 467.8,558.8C468.6,558.8 469.3,558.9 470,559.2C470.7,559.5 471.3,559.9 471.8,560.5C472.3,561.1 472.7,561.7 473,562.6C473.3,563.4 473.5,564.3 473.5,565.4L473.5,565.9C473.5,567 473.4,567.9 473.1,568.7C472.8,569.5 472.4,570.2 471.9,570.8C471.4,571.4 470.8,571.8 470.1,572.1C469.4,572.4 468.7,572.5 467.9,572.5C467.3,572.5 466.8,572.4 466.4,572.3C466,572.2 465.6,572 465.3,571.8C465,571.6 464.7,571.4 464.5,571.1C464.3,570.8 464.1,570.5 464,570.2L463.5,570.2L463.5,577.2ZM466.7,569.2C467.7,569.2 468.5,568.9 469.2,568.3C469.8,567.7 470.2,566.8 470.2,565.7L470.2,565.4C470.2,564.3 469.9,563.4 469.2,562.8C468.6,562.2 467.8,561.8 466.7,561.8C465.7,561.8 464.8,562.1 464.2,562.8C463.6,563.4 463.3,564.3 463.3,565.3L463.3,565.6C463.3,566.7 463.6,567.5 464.2,568.2C464.9,568.9 465.7,569.2 466.7,569.2ZM485,570.1C484.7,570.9 484.2,571.5 483.5,571.8C482.9,572.1 482.1,572.3 481.3,572.3C480.5,572.3 479.8,572.2 479.1,571.9C478.4,571.6 477.8,571.2 477.3,570.6C476.8,570 476.4,569.3 476.1,568.5C475.8,567.7 475.7,566.8 475.7,565.7L475.7,565.3C475.7,564.3 475.8,563.4 476.1,562.5C476.4,561.7 476.8,561 477.3,560.4C477.8,559.8 478.4,559.4 479,559.1C479.7,558.8 480.4,558.6 481.2,558.6C482.1,558.6 482.9,558.8 483.4,559.1C484,559.4 484.4,559.9 484.8,560.6L485.3,560.6L485.3,559L488.6,559L488.6,568C488.6,568.5 488.8,568.8 489.3,568.8L489.8,568.8L489.8,571.9L487.6,571.9C487,571.9 486.5,571.7 486.1,571.4C485.7,571.1 485.6,570.6 485.6,570L485,570.1ZM482,569.2C483,569.2 483.7,568.9 484.3,568.3C484.9,567.7 485.2,566.8 485.2,565.7L485.2,565.4C485.2,564.3 484.9,563.4 484.3,562.8C483.7,562.2 483,561.8 482,561.8C481,561.8 480.3,562.1 479.7,562.8C479.1,563.4 478.8,564.3 478.8,565.4L478.8,565.7C478.8,566.8 479.1,567.7 479.7,568.3C480.3,568.9 481.1,569.2 482,569.2ZM505.1,567.3C504.8,568.8 504.1,570.1 503,571C501.9,571.9 500.4,572.4 498.6,572.4C497.6,572.4 496.8,572.3 495.9,572C495.1,571.7 494.4,571.3 493.8,570.7C493.2,570.1 492.7,569.5 492.4,568.6C492.1,567.8 491.9,566.9 491.9,565.8L491.9,565.5C491.9,564.5 492.1,563.5 492.4,562.7C492.7,561.9 493.2,561.2 493.8,560.6C494.4,560 495.1,559.6 496,559.2C496.8,558.9 497.7,558.7 498.7,558.7C500.5,558.7 502,559.2 503.1,560.1C504.2,561 504.9,562.3 505.2,563.8L502,564.6C501.9,563.8 501.6,563.2 501,562.6C500.4,562 499.7,561.8 498.7,561.8C498.2,561.8 497.8,561.9 497.4,562.1C497,562.3 496.6,562.5 496.3,562.9C496,563.2 495.7,563.6 495.5,564.1C495.3,564.6 495.2,565.1 495.2,565.6L495.2,565.8C495.2,566.4 495.3,566.9 495.5,567.3C495.7,567.7 495.9,568.1 496.3,568.4C496.6,568.7 497,568.9 497.4,569.1C497.8,569.2 498.3,569.3 498.7,569.3C499.7,569.3 500.5,569 501,568.5C501.5,568 501.9,567.3 502,566.5L505.1,567.3ZM511.3,566.6C511.3,567 511.4,567.3 511.6,567.7C511.8,568 512,568.3 512.3,568.5C512.6,568.7 512.9,568.9 513.3,569C513.7,569.1 514.1,569.2 514.5,569.2C515.3,569.2 515.9,569.1 516.4,568.8C516.8,568.5 517.1,568.2 517.3,567.8L520.1,569.4C519.9,569.7 519.7,570.1 519.5,570.4C519.2,570.7 518.9,571.1 518.4,571.4C518,571.7 517.4,571.9 516.8,572.1C516.2,572.3 515.4,572.4 514.6,572.4C513.6,572.4 512.7,572.2 511.9,571.9C511.1,571.6 510.4,571.1 509.8,570.5C509.2,569.9 508.8,569.2 508.4,568.3C508.1,567.5 507.9,566.5 507.9,565.4L507.9,565.2C507.9,564.2 508.1,563.3 508.4,562.5C508.7,561.7 509.2,561 509.8,560.4C510.4,559.8 511.1,559.4 511.9,559.1C512.7,558.8 513.5,558.6 514.4,558.6C515.5,558.6 516.5,558.8 517.3,559.2C518.1,559.6 518.8,560.1 519.3,560.7C519.8,561.3 520.2,561.9 520.4,562.7C520.6,563.4 520.8,564.1 520.8,564.8L520.8,566.5L511.3,566.5L511.3,566.6ZM514.4,561.7C513.6,561.7 512.9,561.9 512.4,562.4C511.9,562.8 511.5,563.3 511.4,563.9L517.5,563.9C517.4,563.3 517.1,562.8 516.5,562.4C515.9,561.9 515.3,561.7 514.4,561.7ZM94.6,589.8L98,589.8L98,604.7L106.3,604.7L106.3,608L94.6,608L94.6,589.8ZM110.7,604.9L115.1,604.9L115.1,598.2L111,598.2L111,595.1L118.3,595.1L118.3,604.9L122,604.9L122,608L110.6,608L110.7,604.9ZM119.1,591.3C119.1,591.6 119,592 118.9,592.3C118.8,592.6 118.6,592.9 118.4,593.1C118.2,593.3 117.9,593.5 117.6,593.6C117.3,593.7 117,593.8 116.7,593.8C116.4,593.8 116,593.7 115.7,593.6C115.4,593.5 115.1,593.3 114.9,593.1C114.7,592.9 114.5,592.6 114.4,592.3C114.3,592 114.2,591.7 114.2,591.3C114.2,591 114.3,590.6 114.4,590.3C114.5,590 114.7,589.7 114.9,589.5C115.1,589.3 115.4,589.1 115.7,589C116,588.9 116.3,588.8 116.7,588.8C117,588.8 117.3,588.9 117.6,589C117.9,589.1 118.2,589.3 118.4,589.5C118.6,589.7 118.8,590 118.9,590.3C119.1,590.6 119.1,590.9 119.1,591.3ZM129.6,608L126.3,608L126.3,595.1L129.6,595.1L129.6,597L130.1,597C130.4,596.3 130.9,595.7 131.5,595.3C132.2,594.9 132.9,594.7 133.8,594.7C134.4,594.7 135,594.8 135.5,595C136.1,595.2 136.5,595.5 137,595.9C137.4,596.3 137.7,596.8 138,597.5C138.2,598.1 138.4,598.9 138.4,599.8L138.4,608L135.1,608L135.1,600.7C135.1,599.8 134.9,599.1 134.4,598.5C134,598 133.3,597.7 132.5,597.7C131.5,597.7 130.8,598 130.3,598.7C129.8,599.3 129.6,600.2 129.6,601.3L129.6,608ZM151,595.1L154.3,595.1L154.3,608L151,608L151,606.1L150.5,606.1C149.9,607.6 148.7,608.3 146.8,608.3C146.2,608.3 145.6,608.2 145,608C144.4,607.8 144,607.5 143.5,607C143.1,606.6 142.8,606 142.5,605.4C142.3,604.7 142.2,604 142.2,603.1L142.2,595L145.5,595L145.5,602.4C145.5,603.3 145.7,604 146.2,604.6C146.6,605.1 147.3,605.4 148.1,605.4C149.1,605.4 149.8,605.1 150.3,604.5C150.8,603.9 151,603 151,601.9L151,595.1ZM166.8,595.1L170.4,595.1L167.3,601.2L167.3,601.7L170.6,608.1L166.8,608.1L164.4,603.1L163.9,603.1L161.5,608.1L157.7,608.1L161,601.7L161,601.2L157.9,595.1L161.5,595.1L163.9,599.8L164.4,599.8L166.8,595.1ZM202.6,603.3C202.3,604.8 201.6,606.1 200.5,607C199.4,607.9 197.9,608.4 196.1,608.4C195.1,608.4 194.3,608.3 193.4,608C192.6,607.7 191.9,607.3 191.3,606.7C190.7,606.1 190.2,605.5 189.9,604.6C189.6,603.8 189.4,602.9 189.4,601.8L189.4,601.5C189.4,600.5 189.6,599.5 189.9,598.7C190.2,597.9 190.7,597.2 191.3,596.6C191.9,596 192.6,595.6 193.5,595.2C194.3,594.9 195.2,594.7 196.2,594.7C198,594.7 199.5,595.2 200.6,596.1C201.7,597 202.4,598.3 202.7,599.8L199.5,600.6C199.4,599.8 199.1,599.2 198.5,598.6C197.9,598 197.2,597.8 196.2,597.8C195.7,597.8 195.3,597.9 194.9,598.1C194.5,598.3 194.1,598.5 193.8,598.9C193.5,599.2 193.2,599.6 193,600.1C192.8,600.6 192.7,601.1 192.7,601.6L192.7,601.8C192.7,602.4 192.8,602.9 193,603.3C193.2,603.7 193.4,604.1 193.8,604.4C194.1,604.7 194.5,604.9 194.9,605.1C195.3,605.2 195.8,605.3 196.2,605.3C197.2,605.3 198,605 198.5,604.5C199,604 199.4,603.3 199.5,602.5L202.6,603.3ZM218.6,601.7C218.6,602.8 218.4,603.7 218.1,604.6C217.7,605.4 217.2,606.1 216.6,606.7C216,607.3 215.3,607.7 214.4,608C213.6,608.3 212.8,608.4 211.9,608.4C211,608.4 210.2,608.3 209.4,608C208.6,607.7 207.9,607.3 207.3,606.7C206.7,606.1 206.2,605.4 205.8,604.6C205.4,603.8 205.3,602.8 205.3,601.7L205.3,601.4C205.3,600.3 205.5,599.4 205.8,598.6C206.2,597.8 206.7,597.1 207.3,596.5C207.9,595.9 208.6,595.5 209.4,595.2C210.2,594.9 211.1,594.8 211.9,594.8C212.7,594.8 213.6,594.9 214.4,595.2C215.2,595.5 215.9,595.9 216.6,596.5C217.2,597.1 217.7,597.8 218.1,598.6C218.5,599.4 218.6,600.4 218.6,601.4L218.6,601.7ZM211.9,605.2C212.4,605.2 212.8,605.1 213.2,605C213.6,604.9 214,604.6 214.3,604.3C214.6,604 214.9,603.7 215,603.2C215.2,602.8 215.3,602.3 215.3,601.7L215.3,601.2C215.3,600.7 215.2,600.2 215,599.8C214.8,599.4 214.6,599 214.3,598.7C214,598.4 213.6,598.2 213.2,598C212.8,597.8 212.3,597.8 211.9,597.8C211.5,597.8 211,597.9 210.6,598C210.2,598.1 209.8,598.4 209.5,598.7C209.2,599 208.9,599.4 208.7,599.8C208.5,600.2 208.4,600.7 208.4,601.2L208.4,601.7C208.4,602.2 208.5,602.7 208.7,603.2C208.9,603.6 209.1,604 209.5,604.3C209.8,604.6 210.2,604.8 210.6,605C211,605.2 211.4,605.2 211.9,605.2ZM225.2,608L221.9,608L221.9,595.1L225.2,595.1L225.2,597L225.7,597C226,596.3 226.5,595.7 227.1,595.3C227.8,594.9 228.5,594.7 229.4,594.7C230,594.7 230.6,594.8 231.1,595C231.7,595.2 232.1,595.5 232.6,595.9C233,596.3 233.3,596.8 233.6,597.5C233.8,598.1 234,598.9 234,599.8L234,608L230.7,608L230.7,600.7C230.7,599.8 230.5,599.1 230,598.5C229.6,598 228.9,597.7 228.1,597.7C227.1,597.7 226.4,598 225.9,598.7C225.4,599.3 225.2,600.2 225.2,601.3L225.2,608ZM237.7,595.1L241.4,595.1L241.4,592.4C241.4,591.7 241.7,591 242.2,590.5C242.7,590 243.3,589.7 244.1,589.7L249.4,589.7L249.4,592.8L245.5,592.8C245,592.8 244.8,593.1 244.8,593.6L244.8,595L249.9,595L249.9,598.1L244.8,598.1L244.8,607.9L241.5,607.9L241.5,598.1L237.8,598.1L237.8,595.1L237.7,595.1ZM256.6,602.6C256.6,603 256.7,603.3 256.9,603.7C257.1,604 257.3,604.3 257.6,604.5C257.9,604.7 258.2,604.9 258.6,605C259,605.1 259.4,605.2 259.8,605.2C260.6,605.2 261.2,605.1 261.7,604.8C262.1,604.5 262.4,604.2 262.6,603.8L265.4,605.4C265.2,605.7 265,606.1 264.8,606.4C264.5,606.7 264.2,607.1 263.7,607.4C263.3,607.7 262.7,607.9 262.1,608.1C261.5,608.3 260.7,608.4 259.9,608.4C258.9,608.4 258,608.2 257.2,607.9C256.4,607.6 255.7,607.1 255.1,606.5C254.5,605.9 254.1,605.2 253.7,604.3C253.4,603.5 253.2,602.5 253.2,601.4L253.2,601.2C253.2,600.2 253.4,599.3 253.7,598.5C254,597.7 254.5,597 255.1,596.4C255.7,595.8 256.4,595.4 257.2,595.1C258,594.8 258.8,594.6 259.7,594.6C260.8,594.6 261.8,594.8 262.6,595.2C263.4,595.6 264.1,596.1 264.6,596.7C265.1,597.3 265.5,597.9 265.7,598.7C265.9,599.4 266.1,600.1 266.1,600.8L266.1,602.5L256.6,602.5L256.6,602.6ZM259.7,597.7C258.9,597.7 258.2,597.9 257.7,598.4C257.2,598.8 256.8,599.3 256.7,599.9L262.8,599.9C262.7,599.3 262.4,598.8 261.8,598.4C261.2,597.9 260.5,597.7 259.7,597.7ZM269,595.1L274.5,595.1L274.5,597L275,597C275.2,596.3 275.7,595.7 276.2,595.4C276.8,595 277.5,594.8 278.3,594.8C279.6,594.8 280.6,595.2 281.4,596C282.2,596.8 282.6,598 282.6,599.7L282.6,600.3L279.2,600.6L279.2,600.2C279.2,599.5 279,598.9 278.7,598.5C278.3,598.1 277.8,597.8 277.1,597.8C276.4,597.8 275.8,598.1 275.4,598.6C275,599.1 274.8,599.8 274.8,600.8L274.8,605L277.8,605L277.8,608.1L268.9,608.1L268.9,605L271.6,605L271.6,598.3L269,598.3L269,595.1ZM288.5,602.6C288.5,603 288.6,603.3 288.8,603.7C289,604 289.2,604.3 289.5,604.5C289.8,604.7 290.1,604.9 290.5,605C290.9,605.1 291.3,605.2 291.7,605.2C292.5,605.2 293.1,605.1 293.6,604.8C294,604.5 294.3,604.2 294.5,603.8L297.3,605.4C297.1,605.7 296.9,606.1 296.7,606.4C296.4,606.7 296.1,607.1 295.6,607.4C295.2,607.7 294.6,607.9 294,608.1C293.4,608.3 292.6,608.4 291.8,608.4C290.8,608.4 289.9,608.2 289.1,607.9C288.3,607.6 287.6,607.1 287,606.5C286.4,605.9 286,605.2 285.6,604.3C285.3,603.5 285.1,602.5 285.1,601.4L285.1,601.2C285.1,600.2 285.3,599.3 285.6,598.5C285.9,597.7 286.4,597 287,596.4C287.6,595.8 288.3,595.4 289.1,595.1C289.9,594.8 290.7,594.6 291.6,594.6C292.7,594.6 293.7,594.8 294.5,595.2C295.3,595.6 296,596.1 296.5,596.7C297,597.3 297.4,597.9 297.6,598.7C297.8,599.4 298,600.1 298,600.8L298,602.5L288.5,602.5L288.5,602.6ZM291.5,597.7C290.7,597.7 290,597.9 289.5,598.4C289,598.8 288.6,599.3 288.5,599.9L294.6,599.9C294.5,599.3 294.2,598.8 293.6,598.4C293.1,597.9 292.4,597.7 291.5,597.7ZM304.8,608L301.5,608L301.5,595.1L304.8,595.1L304.8,597L305.3,597C305.6,596.3 306.1,595.7 306.7,595.3C307.3,594.9 308.1,594.7 309,594.7C309.6,594.7 310.2,594.8 310.7,595C311.3,595.2 311.7,595.5 312.2,595.9C312.6,596.3 312.9,596.8 313.2,597.5C313.4,598.1 313.6,598.9 313.6,599.8L313.6,608L310.3,608L310.3,600.7C310.3,599.8 310.1,599.1 309.6,598.5C309.2,598 308.5,597.7 307.7,597.7C306.7,597.7 306,598 305.5,598.7C305,599.3 304.8,600.2 304.8,601.3L304.8,608ZM330,603.3C329.7,604.8 329,606.1 327.9,607C326.8,607.9 325.3,608.4 323.5,608.4C322.5,608.4 321.7,608.3 320.8,608C320,607.7 319.3,607.3 318.7,606.7C318.1,606.1 317.6,605.5 317.3,604.6C317,603.8 316.8,602.9 316.8,601.8L316.8,601.5C316.8,600.5 317,599.5 317.3,598.7C317.6,597.9 318.1,597.2 318.7,596.6C319.3,596 320,595.6 320.9,595.2C321.7,594.9 322.6,594.7 323.6,594.7C325.4,594.7 326.9,595.2 328,596.1C329.1,597 329.8,598.3 330.1,599.8L326.9,600.6C326.8,599.8 326.5,599.2 325.9,598.6C325.3,598 324.6,597.8 323.6,597.8C323.1,597.8 322.7,597.9 322.3,598.1C321.9,598.3 321.5,598.5 321.2,598.9C320.9,599.2 320.6,599.6 320.4,600.1C320.2,600.6 320.1,601.1 320.1,601.6L320.1,601.8C320.1,602.4 320.2,602.9 320.4,603.3C320.6,603.7 320.8,604.1 321.2,604.4C321.5,604.7 321.9,604.9 322.3,605.1C322.7,605.2 323.2,605.3 323.6,605.3C324.6,605.3 325.4,605 325.9,604.5C326.4,604 326.8,603.3 326.9,602.5L330,603.3ZM336.2,602.6C336.2,603 336.3,603.3 336.5,603.7C336.7,604 336.9,604.3 337.2,604.5C337.5,604.7 337.8,604.9 338.2,605C338.6,605.1 339,605.2 339.4,605.2C340.2,605.2 340.8,605.1 341.3,604.8C341.7,604.5 342,604.2 342.2,603.8L345,605.4C344.8,605.7 344.6,606.1 344.4,606.4C344.1,606.7 343.8,607.1 343.3,607.4C342.9,607.7 342.3,607.9 341.7,608.1C341.1,608.3 340.3,608.4 339.5,608.4C338.5,608.4 337.6,608.2 336.8,607.9C336,607.6 335.3,607.1 334.7,606.5C334.1,605.9 333.7,605.2 333.3,604.3C333,603.5 332.8,602.5 332.8,601.4L332.8,601.2C332.8,600.2 333,599.3 333.3,598.5C333.6,597.7 334.1,597 334.7,596.4C335.3,595.8 336,595.4 336.8,595.1C337.6,594.8 338.4,594.6 339.3,594.6C340.4,594.6 341.4,594.8 342.2,595.2C343,595.6 343.7,596.1 344.2,596.7C344.7,597.3 345.1,597.9 345.3,598.7C345.5,599.4 345.7,600.1 345.7,600.8L345.7,602.5L336.2,602.5L336.2,602.6ZM339.3,597.7C338.5,597.7 337.8,597.9 337.3,598.4C336.8,598.8 336.4,599.3 336.3,599.9L342.4,599.9C342.3,599.3 342,598.8 341.4,598.4C340.8,597.9 340.1,597.7 339.3,597.7Z" style="fill:white;fill-rule:nonzero;"/>
            <g transform="matrix(1,0,0,1,2.3675,4.66217)">
                <g transform="matrix(30,0,0,30,640.772,112.6)">
                    <path d="M0.426,-0.486C0.426,-0.514 0.415,-0.538 0.394,-0.559C0.372,-0.58 0.341,-0.59 0.302,-0.59C0.269,-0.59 0.242,-0.583 0.223,-0.57C0.204,-0.556 0.194,-0.537 0.194,-0.514C0.194,-0.502 0.196,-0.491 0.201,-0.482C0.206,-0.472 0.214,-0.463 0.226,-0.456C0.237,-0.448 0.253,-0.441 0.272,-0.435C0.291,-0.429 0.315,-0.423 0.344,-0.418C0.417,-0.405 0.473,-0.382 0.512,-0.351C0.551,-0.32 0.57,-0.273 0.57,-0.212L0.57,-0.2C0.57,-0.167 0.564,-0.138 0.553,-0.112C0.541,-0.085 0.524,-0.063 0.502,-0.044C0.48,-0.025 0.453,-0.011 0.422,-0.001C0.391,0.009 0.355,0.014 0.316,0.014C0.27,0.014 0.23,0.008 0.195,-0.006C0.16,-0.019 0.13,-0.037 0.107,-0.06C0.084,-0.083 0.066,-0.11 0.054,-0.141C0.042,-0.171 0.036,-0.205 0.036,-0.242L0.036,-0.272L0.168,-0.272L0.168,-0.248C0.168,-0.206 0.18,-0.172 0.205,-0.148C0.229,-0.123 0.267,-0.11 0.318,-0.11C0.358,-0.11 0.388,-0.119 0.407,-0.136C0.426,-0.153 0.436,-0.174 0.436,-0.198C0.436,-0.209 0.434,-0.22 0.43,-0.231C0.426,-0.241 0.419,-0.25 0.409,-0.259C0.399,-0.267 0.385,-0.274 0.368,-0.281C0.351,-0.288 0.329,-0.293 0.302,-0.298C0.267,-0.304 0.234,-0.312 0.205,-0.322C0.176,-0.331 0.15,-0.344 0.129,-0.36C0.107,-0.376 0.09,-0.396 0.078,-0.42C0.066,-0.444 0.06,-0.473 0.06,-0.508L0.06,-0.514C0.06,-0.543 0.066,-0.569 0.078,-0.594C0.089,-0.618 0.106,-0.639 0.127,-0.657C0.148,-0.675 0.173,-0.689 0.203,-0.699C0.232,-0.709 0.265,-0.714 0.302,-0.714C0.343,-0.714 0.38,-0.708 0.412,-0.697C0.444,-0.685 0.471,-0.669 0.493,-0.649C0.514,-0.629 0.531,-0.606 0.542,-0.58C0.553,-0.554 0.558,-0.527 0.558,-0.498L0.558,-0.462L0.426,-0.462L0.426,-0.486Z" style="fill:white;fill-rule:nonzero;"/>
                </g>
                <g transform="matrix(30,0,0,30,659.132,112.6)">
                    <path d="M0.189,-0.207C0.19,-0.192 0.193,-0.179 0.2,-0.167C0.206,-0.154 0.215,-0.143 0.226,-0.135C0.237,-0.126 0.249,-0.118 0.264,-0.114C0.278,-0.109 0.293,-0.106 0.309,-0.106C0.34,-0.106 0.364,-0.112 0.381,-0.123C0.398,-0.134 0.41,-0.147 0.417,-0.162L0.525,-0.102C0.519,-0.089 0.511,-0.076 0.5,-0.063C0.489,-0.049 0.475,-0.036 0.459,-0.025C0.442,-0.014 0.421,-0.004 0.397,0.003C0.372,0.01 0.344,0.014 0.311,0.014C0.274,0.014 0.24,0.008 0.209,-0.004C0.178,-0.016 0.152,-0.033 0.13,-0.056C0.107,-0.079 0.09,-0.106 0.078,-0.139C0.065,-0.172 0.059,-0.209 0.059,-0.25L0.059,-0.256C0.059,-0.294 0.066,-0.329 0.079,-0.36C0.092,-0.391 0.109,-0.418 0.132,-0.44C0.155,-0.462 0.181,-0.479 0.212,-0.492C0.242,-0.504 0.274,-0.51 0.309,-0.51C0.352,-0.51 0.388,-0.503 0.419,-0.488C0.45,-0.472 0.475,-0.454 0.495,-0.431C0.515,-0.408 0.53,-0.382 0.539,-0.355C0.548,-0.327 0.553,-0.3 0.553,-0.274L0.553,-0.207L0.189,-0.207ZM0.308,-0.396C0.276,-0.396 0.25,-0.388 0.23,-0.372C0.21,-0.355 0.197,-0.336 0.191,-0.315L0.425,-0.315C0.421,-0.338 0.409,-0.358 0.388,-0.373C0.367,-0.388 0.34,-0.396 0.308,-0.396Z" style="fill:white;fill-rule:nonzero;"/>
                </g>
                <g transform="matrix(30,0,0,30,677.492,112.6)">
                    <path d="M0.178,0.2L0.052,0.2L0.052,-0.496L0.178,-0.496L0.178,-0.424L0.196,-0.424C0.209,-0.451 0.229,-0.472 0.254,-0.488C0.279,-0.503 0.312,-0.51 0.351,-0.51C0.38,-0.51 0.408,-0.504 0.435,-0.493C0.461,-0.482 0.484,-0.465 0.504,-0.444C0.523,-0.422 0.539,-0.395 0.551,-0.364C0.562,-0.333 0.568,-0.297 0.568,-0.257L0.568,-0.239C0.568,-0.198 0.562,-0.162 0.551,-0.131C0.54,-0.1 0.524,-0.073 0.505,-0.052C0.486,-0.03 0.463,-0.014 0.437,-0.003C0.41,0.009 0.382,0.014 0.351,0.014C0.328,0.014 0.309,0.012 0.292,0.007C0.275,0.002 0.261,-0.004 0.249,-0.012C0.236,-0.02 0.226,-0.029 0.218,-0.04C0.209,-0.05 0.202,-0.061 0.196,-0.072L0.178,-0.072L0.178,0.2ZM0.31,-0.106C0.349,-0.106 0.381,-0.118 0.406,-0.143C0.43,-0.167 0.442,-0.2 0.442,-0.242L0.442,-0.254C0.442,-0.296 0.43,-0.329 0.406,-0.354C0.381,-0.378 0.349,-0.39 0.31,-0.39C0.271,-0.39 0.239,-0.378 0.215,-0.353C0.19,-0.327 0.178,-0.295 0.178,-0.254L0.178,-0.242C0.178,-0.201 0.19,-0.169 0.215,-0.144C0.239,-0.119 0.271,-0.106 0.31,-0.106Z" style="fill:white;fill-rule:nonzero;"/>
                </g>
                <g transform="matrix(30,0,0,30,714.212,112.6)">
                    <path d="M0.238,-0.3L0.238,-0.508L0.412,-0.556L0.412,-0.574L0.064,-0.574L0.064,-0.7L0.52,-0.7L0.52,-0.48L0.334,-0.426L0.334,-0.408L0.358,-0.408C0.383,-0.408 0.407,-0.404 0.431,-0.397C0.455,-0.389 0.476,-0.377 0.495,-0.361C0.513,-0.345 0.528,-0.325 0.539,-0.302C0.55,-0.278 0.556,-0.25 0.556,-0.218L0.556,-0.206C0.556,-0.175 0.551,-0.146 0.541,-0.119C0.53,-0.092 0.515,-0.069 0.495,-0.05C0.474,-0.03 0.449,-0.014 0.419,-0.003C0.389,0.008 0.355,0.014 0.316,0.014C0.277,0.014 0.241,0.008 0.209,-0.005C0.177,-0.018 0.15,-0.035 0.128,-0.057C0.105,-0.079 0.088,-0.104 0.076,-0.133C0.064,-0.162 0.058,-0.192 0.058,-0.224L0.058,-0.266L0.19,-0.266L0.19,-0.23C0.19,-0.198 0.2,-0.17 0.221,-0.147C0.242,-0.124 0.273,-0.112 0.314,-0.112C0.349,-0.112 0.377,-0.121 0.396,-0.139C0.415,-0.157 0.424,-0.181 0.424,-0.21C0.424,-0.241 0.414,-0.264 0.394,-0.279C0.373,-0.293 0.347,-0.3 0.316,-0.3L0.238,-0.3Z" style="fill:white;fill-rule:nonzero;"/>
                </g>
                <g transform="matrix(30,0,0,30,732.572,112.6)">
                    <path d="M0.222,-0.35C0.222,-0.373 0.23,-0.392 0.247,-0.409C0.264,-0.426 0.283,-0.434 0.306,-0.434C0.329,-0.434 0.348,-0.426 0.365,-0.409C0.382,-0.392 0.39,-0.373 0.39,-0.35C0.39,-0.327 0.382,-0.308 0.365,-0.291C0.348,-0.274 0.329,-0.266 0.306,-0.266C0.283,-0.266 0.264,-0.274 0.247,-0.291C0.23,-0.308 0.222,-0.327 0.222,-0.35ZM0.048,-0.428C0.048,-0.519 0.071,-0.589 0.117,-0.639C0.162,-0.689 0.225,-0.714 0.306,-0.714C0.387,-0.714 0.45,-0.689 0.496,-0.639C0.541,-0.589 0.564,-0.519 0.564,-0.428L0.564,-0.272C0.564,-0.179 0.541,-0.108 0.496,-0.059C0.45,-0.01 0.387,0.014 0.306,0.014C0.225,0.014 0.162,-0.01 0.117,-0.059C0.071,-0.108 0.048,-0.179 0.048,-0.272L0.048,-0.428ZM0.306,-0.106C0.33,-0.106 0.35,-0.11 0.366,-0.118C0.382,-0.125 0.395,-0.136 0.405,-0.15C0.415,-0.164 0.422,-0.181 0.426,-0.2C0.43,-0.219 0.432,-0.241 0.432,-0.264L0.432,-0.436C0.432,-0.458 0.43,-0.479 0.425,-0.498C0.42,-0.517 0.413,-0.534 0.403,-0.548C0.393,-0.562 0.38,-0.573 0.364,-0.582C0.348,-0.59 0.329,-0.594 0.306,-0.594C0.283,-0.594 0.264,-0.59 0.248,-0.582C0.232,-0.573 0.219,-0.562 0.209,-0.548C0.199,-0.534 0.192,-0.517 0.187,-0.498C0.182,-0.479 0.18,-0.458 0.18,-0.436L0.18,-0.264C0.18,-0.241 0.182,-0.219 0.186,-0.2C0.19,-0.181 0.197,-0.164 0.207,-0.15C0.217,-0.136 0.23,-0.125 0.246,-0.118C0.262,-0.11 0.282,-0.106 0.306,-0.106Z" style="fill:white;fill-rule:nonzero;"/>
                </g>
                <g transform="matrix(30,0,0,30,750.932,112.6)">
                    <rect x="0.15" y="-0.332" width="0.312" height="0.114" style="fill:white;fill-rule:nonzero;"/>
                </g>
                <g transform="matrix(30,0,0,30,769.292,112.6)">
                    <path d="M0.048,-0.428C0.048,-0.519 0.071,-0.589 0.117,-0.639C0.162,-0.689 0.225,-0.714 0.306,-0.714C0.387,-0.714 0.45,-0.689 0.496,-0.639C0.541,-0.589 0.564,-0.519 0.564,-0.428L0.564,-0.272C0.564,-0.179 0.541,-0.108 0.496,-0.059C0.45,-0.01 0.387,0.014 0.306,0.014C0.225,0.014 0.162,-0.01 0.117,-0.059C0.071,-0.108 0.048,-0.179 0.048,-0.272L0.048,-0.428ZM0.306,-0.106C0.33,-0.106 0.35,-0.11 0.366,-0.118C0.382,-0.125 0.395,-0.136 0.405,-0.15C0.415,-0.164 0.422,-0.181 0.426,-0.2C0.43,-0.219 0.432,-0.241 0.432,-0.264L0.432,-0.436C0.432,-0.458 0.43,-0.479 0.425,-0.498C0.42,-0.517 0.413,-0.534 0.403,-0.548C0.393,-0.562 0.38,-0.573 0.364,-0.582C0.348,-0.59 0.329,-0.594 0.306,-0.594C0.283,-0.594 0.264,-0.59 0.248,-0.582C0.232,-0.573 0.219,-0.562 0.209,-0.548C0.199,-0.534 0.192,-0.517 0.187,-0.498C0.182,-0.479 0.18,-0.458 0.18,-0.436L0.18,-0.264C0.18,-0.241 0.182,-0.219 0.186,-0.2C0.19,-0.181 0.197,-0.164 0.207,-0.15C0.217,-0.136 0.23,-0.125 0.246,-0.118C0.262,-0.11 0.282,-0.106 0.306,-0.106Z" style="fill:white;fill-rule:nonzero;"/>
                </g>
                <g transform="matrix(30,0,0,30,787.652,112.6)">
                    <path d="M0.562,-0.182C0.551,-0.123 0.524,-0.076 0.482,-0.04C0.439,-0.004 0.383,0.014 0.312,0.014C0.275,0.014 0.241,0.008 0.21,-0.003C0.178,-0.014 0.15,-0.031 0.127,-0.052C0.104,-0.073 0.085,-0.1 0.072,-0.131C0.059,-0.162 0.052,-0.198 0.052,-0.238L0.052,-0.25C0.052,-0.29 0.059,-0.326 0.072,-0.358C0.085,-0.39 0.104,-0.417 0.128,-0.44C0.151,-0.463 0.179,-0.48 0.211,-0.492C0.242,-0.504 0.276,-0.51 0.312,-0.51C0.381,-0.51 0.438,-0.492 0.481,-0.456C0.524,-0.42 0.551,-0.373 0.562,-0.314L0.438,-0.282C0.434,-0.311 0.421,-0.337 0.4,-0.358C0.379,-0.379 0.349,-0.39 0.31,-0.39C0.292,-0.39 0.275,-0.387 0.259,-0.38C0.243,-0.373 0.229,-0.364 0.217,-0.352C0.205,-0.339 0.196,-0.324 0.189,-0.307C0.182,-0.289 0.178,-0.269 0.178,-0.247L0.178,-0.241C0.178,-0.219 0.182,-0.2 0.189,-0.183C0.196,-0.166 0.205,-0.151 0.217,-0.14C0.229,-0.129 0.243,-0.12 0.259,-0.115C0.275,-0.109 0.292,-0.106 0.31,-0.106C0.349,-0.106 0.378,-0.116 0.399,-0.135C0.419,-0.154 0.432,-0.18 0.438,-0.213L0.562,-0.182Z" style="fill:white;fill-rule:nonzero;"/>
                </g>
                <g transform="matrix(30,0,0,30,806.012,112.6)">
                    <path d="M0.064,-0.496L0.211,-0.496L0.211,-0.7L0.337,-0.7L0.337,-0.496L0.516,-0.496L0.516,-0.376L0.337,-0.376L0.337,-0.15C0.337,-0.13 0.346,-0.12 0.364,-0.12L0.498,-0.12L0.498,-0L0.288,-0C0.265,-0 0.247,-0.007 0.233,-0.022C0.218,-0.037 0.211,-0.055 0.211,-0.078L0.211,-0.376L0.064,-0.376L0.064,-0.496Z" style="fill:white;fill-rule:nonzero;"/>
                </g>
                <g transform="matrix(30,0,0,30,842.732,112.6)">
                    <path d="M0.264,-0.126L0.264,-0.634L0.246,-0.634L0.18,-0.394L0.054,-0.394L0.054,-0.406L0.138,-0.7L0.396,-0.7L0.396,-0.126L0.57,-0.126L0.57,-0L0.066,-0L0.066,-0.126L0.264,-0.126Z" style="fill:white;fill-rule:nonzero;"/>
                </g>
                <g transform="matrix(30,0,0,30,695.852,142.6)">
                    <path d="M0.046,-0.126L0.112,-0.126L0.112,-0.574L0.046,-0.574L0.046,-0.7L0.353,-0.7C0.386,-0.7 0.416,-0.695 0.442,-0.686C0.467,-0.677 0.489,-0.664 0.507,-0.648C0.524,-0.632 0.538,-0.613 0.547,-0.591C0.556,-0.568 0.56,-0.544 0.56,-0.518L0.56,-0.506C0.56,-0.466 0.549,-0.434 0.527,-0.41C0.504,-0.386 0.476,-0.369 0.442,-0.36L0.442,-0.342C0.476,-0.333 0.504,-0.316 0.527,-0.292C0.549,-0.267 0.56,-0.235 0.56,-0.195L0.56,-0.183C0.56,-0.157 0.556,-0.133 0.547,-0.111C0.538,-0.088 0.524,-0.069 0.507,-0.053C0.489,-0.036 0.467,-0.023 0.442,-0.014C0.416,-0.005 0.386,-0 0.353,-0L0.046,-0L0.046,-0.126ZM0.244,-0.126L0.34,-0.126C0.368,-0.126 0.391,-0.132 0.408,-0.144C0.425,-0.156 0.434,-0.176 0.434,-0.204L0.434,-0.21C0.434,-0.238 0.425,-0.258 0.408,-0.27C0.391,-0.282 0.368,-0.288 0.34,-0.288L0.244,-0.288L0.244,-0.126ZM0.244,-0.414L0.34,-0.414C0.368,-0.414 0.391,-0.42 0.408,-0.432C0.425,-0.443 0.434,-0.463 0.434,-0.491L0.434,-0.497C0.434,-0.525 0.425,-0.545 0.408,-0.557C0.391,-0.568 0.368,-0.574 0.34,-0.574L0.244,-0.574L0.244,-0.414Z" style="fill:white;fill-rule:nonzero;"/>
                </g>
                <g transform="matrix(30,0,0,30,714.212,142.6)">
                    <path d="M0.189,-0.207C0.19,-0.192 0.193,-0.179 0.2,-0.167C0.206,-0.154 0.215,-0.143 0.226,-0.135C0.237,-0.126 0.249,-0.118 0.264,-0.114C0.278,-0.109 0.293,-0.106 0.309,-0.106C0.34,-0.106 0.364,-0.112 0.381,-0.123C0.398,-0.134 0.41,-0.147 0.417,-0.162L0.525,-0.102C0.519,-0.089 0.511,-0.076 0.5,-0.063C0.489,-0.049 0.475,-0.036 0.459,-0.025C0.442,-0.014 0.421,-0.004 0.397,0.003C0.372,0.01 0.344,0.014 0.311,0.014C0.274,0.014 0.24,0.008 0.209,-0.004C0.178,-0.016 0.152,-0.033 0.13,-0.056C0.107,-0.079 0.09,-0.106 0.078,-0.139C0.065,-0.172 0.059,-0.209 0.059,-0.25L0.059,-0.256C0.059,-0.294 0.066,-0.329 0.079,-0.36C0.092,-0.391 0.109,-0.418 0.132,-0.44C0.155,-0.462 0.181,-0.479 0.212,-0.492C0.242,-0.504 0.274,-0.51 0.309,-0.51C0.352,-0.51 0.388,-0.503 0.419,-0.488C0.45,-0.472 0.475,-0.454 0.495,-0.431C0.515,-0.408 0.53,-0.382 0.539,-0.355C0.548,-0.327 0.553,-0.3 0.553,-0.274L0.553,-0.207L0.189,-0.207ZM0.308,-0.396C0.276,-0.396 0.25,-0.388 0.23,-0.372C0.21,-0.355 0.197,-0.336 0.191,-0.315L0.425,-0.315C0.421,-0.338 0.409,-0.358 0.388,-0.373C0.367,-0.388 0.34,-0.396 0.308,-0.396Z" style="fill:white;fill-rule:nonzero;"/>
                </g>
                <g transform="matrix(30,0,0,30,732.572,142.6)">
                    <path d="M0.054,-0.496L0.264,-0.496L0.264,-0.424L0.282,-0.424C0.291,-0.451 0.307,-0.472 0.33,-0.488C0.352,-0.503 0.379,-0.51 0.41,-0.51C0.459,-0.51 0.499,-0.495 0.529,-0.464C0.559,-0.432 0.574,-0.385 0.574,-0.322L0.574,-0.3L0.444,-0.288L0.444,-0.302C0.444,-0.329 0.437,-0.351 0.423,-0.368C0.409,-0.384 0.388,-0.392 0.36,-0.392C0.332,-0.392 0.31,-0.382 0.294,-0.363C0.278,-0.344 0.27,-0.316 0.27,-0.28L0.27,-0.12L0.384,-0.12L0.384,-0L0.042,-0L0.042,-0.12L0.144,-0.12L0.144,-0.376L0.054,-0.376L0.054,-0.496Z" style="fill:white;fill-rule:nonzero;"/>
                </g>
                <g transform="matrix(30,0,0,30,750.932,142.6)">
                    <path d="M0.075,-0.12L0.249,-0.12L0.249,-0.58L0.081,-0.58L0.081,-0.7L0.375,-0.7L0.375,-0.12L0.537,-0.12L0.537,-0L0.075,-0L0.075,-0.12Z" style="fill:white;fill-rule:nonzero;"/>
                </g>
                <g transform="matrix(30,0,0,30,769.292,142.6)">
                    <path d="M0.087,-0.12L0.255,-0.12L0.255,-0.376L0.099,-0.376L0.099,-0.496L0.381,-0.496L0.381,-0.12L0.525,-0.12L0.525,-0L0.087,-0L0.087,-0.12ZM0.412,-0.643C0.412,-0.63 0.41,-0.617 0.405,-0.606C0.4,-0.594 0.393,-0.584 0.384,-0.576C0.375,-0.567 0.365,-0.561 0.354,-0.556C0.342,-0.551 0.33,-0.548 0.317,-0.548C0.304,-0.548 0.291,-0.551 0.28,-0.556C0.269,-0.561 0.259,-0.567 0.25,-0.576C0.241,-0.584 0.235,-0.594 0.23,-0.606C0.225,-0.617 0.222,-0.63 0.222,-0.643C0.222,-0.656 0.225,-0.669 0.23,-0.681C0.235,-0.692 0.241,-0.702 0.25,-0.711C0.259,-0.719 0.269,-0.725 0.28,-0.731C0.291,-0.736 0.304,-0.738 0.317,-0.738C0.33,-0.738 0.342,-0.736 0.354,-0.731C0.365,-0.725 0.375,-0.719 0.384,-0.711C0.393,-0.702 0.4,-0.692 0.405,-0.681C0.41,-0.669 0.412,-0.656 0.412,-0.643Z" style="fill:white;fill-rule:nonzero;"/>
                </g>
                <g transform="matrix(30,0,0,30,787.652,142.6)">
                    <path d="M0.204,-0L0.078,-0L0.078,-0.496L0.204,-0.496L0.204,-0.422L0.222,-0.422C0.233,-0.45 0.252,-0.472 0.277,-0.487C0.302,-0.502 0.332,-0.51 0.366,-0.51C0.39,-0.51 0.413,-0.506 0.434,-0.499C0.455,-0.491 0.473,-0.479 0.489,-0.463C0.505,-0.447 0.518,-0.427 0.527,-0.402C0.536,-0.377 0.54,-0.348 0.54,-0.314L0.54,-0L0.414,-0L0.414,-0.282C0.414,-0.317 0.406,-0.345 0.389,-0.366C0.372,-0.386 0.347,-0.396 0.315,-0.396C0.278,-0.396 0.25,-0.384 0.232,-0.359C0.213,-0.333 0.204,-0.3 0.204,-0.258L0.204,-0Z" style="fill:white;fill-rule:nonzero;"/>
                </g>
            </g>
        </g>
    </g>
</svg>
