<svg xmlns="http://www.w3.org/2000/svg" xmlns:xlink="http://www.w3.org/1999/xlink" viewBox="0 0 214.38 214.32"><defs><style>.cls-1,.cls-6{fill:none;}.cls-2{fill:#fa1100;}.cls-3{fill:lime;}.cls-4{fill:#fff;}.cls-4,.cls-6{stroke:#fff;stroke-miterlimit:10;}.cls-5{fill:blue;}.cls-6{stroke-linecap:round;stroke-width:1.23px;}.cls-7{clip-path:url(#clip-path);}</style><clipPath id="clip-path"><polygon class="cls-1" points="39.78 128.63 108.4 58.39 171.87 58.39 171.87 156.49 36.2 156.49 39.78 128.63"/></clipPath></defs><title>Asset 3</title><g id="Layer_2" data-name="Layer 2"><g id="Layer_1-2" data-name="Layer 1"><polygon class="cls-2" points="124.61 29.23 153.34 0.5 214.38 0.5 214.38 57.96 183.86 87.58 183.86 29.23 124.61 29.23"/><polygon class="cls-3" points="185.66 124.55 214.38 153.27 214.38 214.32 156.93 214.32 127.3 183.8 185.66 183.8 185.66 124.55"/><polygon class="cls-4" points="90.27 29.23 61.54 0.5 0.5 0.5 0.5 57.95 31.03 87.58 31.03 29.23 90.27 29.23"/><polygon class="cls-5" points="29.23 124.55 0.5 153.27 0.5 214.32 57.95 214.32 87.58 183.8 29.23 183.8 29.23 124.55"/><line class="cls-6" x1="52.08" y1="111.07" x2="98.84" y2="63.21"/><g class="cls-7"><path class="cls-4" d="M93.38,88.47H88l-1.5,3.34H81.62L90.56,74h6l1.48,17.83H93.5Zm-3.66-3.81h3.52L93,79.49l0-1c0-.61,0-1.14,0-1.59a14.31,14.31,0,0,1-.73,2Z"/><path class="cls-4" d="M99.85,91.81,103.57,74h4.69l-2.89,13.94h5.73l-.82,3.89Z"/><path class="cls-4" d="M112.57,91.81,116.28,74H121l-2.9,13.94h5.73L123,91.81Z"/><path class="cls-4" d="M74.8,109.23A5.25,5.25,0,0,1,73,113.45,7.39,7.39,0,0,1,68.1,115a10.05,10.05,0,0,1-2.49-.3,6.48,6.48,0,0,1-2-.87v-4.27a10.74,10.74,0,0,0,2.31,1.09,7.58,7.58,0,0,0,2.36.44,2.11,2.11,0,0,0,1.35-.38,1.33,1.33,0,0,0,.45-1.08,1.43,1.43,0,0,0-.14-.61,3,3,0,0,0-.41-.58c-.18-.19-.65-.61-1.42-1.26a7.72,7.72,0,0,1-2-2.34,5.66,5.66,0,0,1,.15-5.5,5.26,5.26,0,0,1,2.22-2,7.21,7.21,0,0,1,3.22-.7,10.25,10.25,0,0,1,5.16,1.3l-1.62,3.62a7.94,7.94,0,0,0-3.5-1.07,1.86,1.86,0,0,0-1.18.34,1.21,1.21,0,0,0-.41,1,1.79,1.79,0,0,0,.4,1.12A9.1,9.1,0,0,0,72,104.31a7.67,7.67,0,0,1,2.1,2.24A5.17,5.17,0,0,1,74.8,109.23Z"/><path class="cls-4" d="M83.82,103.49l3.74-6.62H92.8l-7.35,10.92L84,114.71H79.3l1.44-6.92L77.89,96.87h4.84Z"/><path class="cls-4" d="M101.91,109.23a5.25,5.25,0,0,1-1.77,4.22,7.39,7.39,0,0,1-4.93,1.5,10,10,0,0,1-2.49-.3,6.38,6.38,0,0,1-2-.87v-4.27A10.74,10.74,0,0,0,93,110.6a7.58,7.58,0,0,0,2.36.44,2.06,2.06,0,0,0,1.34-.38,1.3,1.3,0,0,0,.46-1.08A1.43,1.43,0,0,0,97,109a3,3,0,0,0-.41-.58c-.18-.19-.65-.61-1.42-1.26a7.72,7.72,0,0,1-2-2.34,5.43,5.43,0,0,1-.64-2.62,5.33,5.33,0,0,1,.79-2.88,5.2,5.2,0,0,1,2.22-2,7.2,7.2,0,0,1,3.21-.7,10.26,10.26,0,0,1,5.17,1.3l-1.62,3.62a7.94,7.94,0,0,0-3.5-1.07,1.86,1.86,0,0,0-1.18.34,1.22,1.22,0,0,0-.42,1,1.8,1.8,0,0,0,.41,1.12,8.7,8.7,0,0,0,1.53,1.38,7.67,7.67,0,0,1,2.1,2.24A5.17,5.17,0,0,1,101.91,109.23Z"/><path class="cls-4" d="M110.56,114.71h-4.69l2.85-13.9h-3.81l.83-3.94h12.35l-.86,3.94h-3.82Z"/><path class="cls-4" d="M126.82,114.71H116.39l3.71-17.84h10.43l-.78,3.87H124l-.57,2.81h5.34l-.87,3.86h-5.33l-.69,3.37h5.73Z"/><path class="cls-4" d="M136.27,114.71v-12.8h-.1c-.53,3.39-.88,5.47-1,6.25l-1.36,6.55H129.6l3.71-17.84h6.23v12.67h.09l5.74-12.67h6.32l-3.75,17.84h-4.22l1.4-6.7c.4-1.85.84-3.63,1.3-5.32l.18-.78h-.09l-5.8,12.8Z"/><path class="cls-4" d="M162.7,109.23a5.25,5.25,0,0,1-1.77,4.22A7.38,7.38,0,0,1,156,115a10,10,0,0,1-2.5-.3,6.38,6.38,0,0,1-2-.87v-4.27a10.74,10.74,0,0,0,2.31,1.09,7.53,7.53,0,0,0,2.36.44,2.06,2.06,0,0,0,1.34-.38,1.3,1.3,0,0,0,.46-1.08,1.43,1.43,0,0,0-.14-.61,3,3,0,0,0-.41-.58c-.18-.19-.65-.61-1.42-1.26a7.86,7.86,0,0,1-2-2.34,5.43,5.43,0,0,1-.64-2.62,5.33,5.33,0,0,1,.79-2.88,5.2,5.2,0,0,1,2.22-2,7.2,7.2,0,0,1,3.21-.7,10.26,10.26,0,0,1,5.17,1.3l-1.62,3.62a8,8,0,0,0-3.5-1.07,1.86,1.86,0,0,0-1.18.34,1.21,1.21,0,0,0-.41,1,1.79,1.79,0,0,0,.4,1.12,9.1,9.1,0,0,0,1.53,1.38,7.8,7.8,0,0,1,2.1,2.24A5.17,5.17,0,0,1,162.7,109.23Z"/><path class="cls-4" d="M112.81,127h7.33l-2,9.7a19.86,19.86,0,0,1-6.26,1,6.3,6.3,0,0,1-4.86-1.86,7.36,7.36,0,0,1-1.73-5.25,12.9,12.9,0,0,1,1.32-5.88,9.53,9.53,0,0,1,3.62-4,11.43,11.43,0,0,1,10.74-.06l-1.77,3.76a7.11,7.11,0,0,0-3.68-1.09,4.62,4.62,0,0,0-2.8.88,6,6,0,0,0-1.95,2.62,9.53,9.53,0,0,0-.73,3.69c0,2.15.84,3.23,2.52,3.23a8.29,8.29,0,0,0,1.59-.17l.62-2.84H112Z"/><path class="cls-4" d="M131.37,119.35a6.45,6.45,0,0,1,4.86,1.81,7.06,7.06,0,0,1,1.73,5.06,14.54,14.54,0,0,1-1.19,5.93,9.55,9.55,0,0,1-3.3,4.13,8.49,8.49,0,0,1-4.88,1.43,6.63,6.63,0,0,1-5-1.82,7,7,0,0,1-1.76-5,14.08,14.08,0,0,1,1.24-5.94,9.57,9.57,0,0,1,3.37-4.13A8.64,8.64,0,0,1,131.37,119.35Zm1.85,6.92a3.58,3.58,0,0,0-.58-2.18,1.93,1.93,0,0,0-1.67-.79,3,3,0,0,0-2.18,1,7.18,7.18,0,0,0-1.6,2.82,11.7,11.7,0,0,0-.59,3.67c0,2,.8,3,2.4,3a2.93,2.93,0,0,0,2.12-1,7,7,0,0,0,1.54-2.74A12.09,12.09,0,0,0,133.22,126.27Z"/><path class="cls-4" d="M138.25,135.92a2.79,2.79,0,0,1,.78-2.08,3,3,0,0,1,2.15-.77,2.32,2.32,0,0,1,1.6.5,1.73,1.73,0,0,1,.56,1.39,2.74,2.74,0,0,1-.76,2.08,2.87,2.87,0,0,1-2.08.73,2.64,2.64,0,0,1-1.66-.47A1.66,1.66,0,0,1,138.25,135.92Zm5.3-4.75h-3.94l1.87-11.54h5.12Z"/></g></g></g></svg>