<svg xmlns="http://www.w3.org/2000/svg" xmlns:xlink="http://www.w3.org/1999/xlink" viewBox="0 0 213.88 213.82"><defs><style>.cls-1,.cls-5{fill:none;}.cls-2{fill:#fa1100;}.cls-3{fill:lime;}.cls-4{fill:blue;}.cls-5{stroke:#000;stroke-linecap:round;stroke-miterlimit:10;stroke-width:1.23px;}.cls-6{clip-path:url(#clip-path);}</style><clipPath id="clip-path"><polygon class="cls-1" points="39.28 128.13 107.9 57.89 171.37 57.89 171.37 155.99 35.7 155.99 39.28 128.13"/></clipPath></defs><title>Asset 1</title><g id="Layer_2" data-name="Layer 2"><g id="Layer_1-2" data-name="Layer 1"><polygon class="cls-2" points="124.11 28.73 152.84 0 213.88 0 213.88 57.46 183.36 87.08 183.36 28.73 124.11 28.73"/><polygon class="cls-3" points="185.16 124.05 213.88 152.77 213.88 213.82 156.43 213.82 126.8 183.3 185.16 183.3 185.16 124.05"/><polygon points="89.77 28.73 61.04 0 0 0 0 57.45 30.53 87.08 30.53 28.73 89.77 28.73"/><polygon class="cls-4" points="28.73 124.05 0 152.77 0 213.82 57.45 213.82 87.08 183.3 28.73 183.3 28.73 124.05"/><line class="cls-5" x1="51.58" y1="110.57" x2="98.34" y2="62.71"/><g class="cls-6"><path d="M92.88,88H87.5L86,91.31H81.12l8.94-17.83h6l1.48,17.83H93Zm-3.66-3.81h3.52L92.54,79l0-1c0-.61,0-1.14,0-1.59a14.31,14.31,0,0,1-.73,2Z"/><path d="M99.35,91.31l3.72-17.83h4.69l-2.89,13.94h5.73l-.82,3.89Z"/><path d="M112.07,91.31l3.71-17.83h4.7l-2.9,13.94h5.73l-.81,3.89Z"/><path d="M74.3,108.73A5.25,5.25,0,0,1,72.53,113a7.39,7.39,0,0,1-4.93,1.5,10.05,10.05,0,0,1-2.49-.3,6.48,6.48,0,0,1-2-.87V109a10.74,10.74,0,0,0,2.31,1.09,7.58,7.58,0,0,0,2.36.44,2.11,2.11,0,0,0,1.35-.38,1.33,1.33,0,0,0,.45-1.08,1.43,1.43,0,0,0-.14-.61,3,3,0,0,0-.41-.58c-.18-.19-.65-.61-1.42-1.26a7.72,7.72,0,0,1-2-2.34,5.66,5.66,0,0,1,.15-5.5,5.26,5.26,0,0,1,2.22-2,7.21,7.21,0,0,1,3.22-.7,10.25,10.25,0,0,1,5.16,1.3L74.67,101a7.94,7.94,0,0,0-3.5-1.07,1.86,1.86,0,0,0-1.18.34,1.21,1.21,0,0,0-.41,1,1.79,1.79,0,0,0,.4,1.12,9.1,9.1,0,0,0,1.53,1.38,7.67,7.67,0,0,1,2.1,2.24A5.17,5.17,0,0,1,74.3,108.73Z"/><path d="M83.32,103l3.74-6.62H92.3L85,107.29l-1.45,6.92H78.8l1.44-6.92L77.39,96.37h4.84Z"/><path d="M101.41,108.73A5.25,5.25,0,0,1,99.64,113a7.39,7.39,0,0,1-4.93,1.5,10,10,0,0,1-2.49-.3,6.38,6.38,0,0,1-2-.87V109a10.74,10.74,0,0,0,2.31,1.09,7.58,7.58,0,0,0,2.36.44,2.06,2.06,0,0,0,1.34-.38,1.3,1.3,0,0,0,.46-1.08,1.43,1.43,0,0,0-.14-.61,3,3,0,0,0-.41-.58c-.18-.19-.65-.61-1.42-1.26a7.72,7.72,0,0,1-2-2.34,5.43,5.43,0,0,1-.64-2.62,5.33,5.33,0,0,1,.79-2.88,5.2,5.2,0,0,1,2.22-2,7.2,7.2,0,0,1,3.21-.7,10.26,10.26,0,0,1,5.17,1.3L101.78,101a7.94,7.94,0,0,0-3.5-1.07,1.86,1.86,0,0,0-1.18.34,1.22,1.22,0,0,0-.42,1,1.8,1.8,0,0,0,.41,1.12,8.7,8.7,0,0,0,1.53,1.38,7.67,7.67,0,0,1,2.1,2.24A5.17,5.17,0,0,1,101.41,108.73Z"/><path d="M110.06,114.21h-4.69l2.85-13.9h-3.81l.83-3.94h12.35l-.86,3.94h-3.82Z"/><path d="M126.32,114.21H115.89l3.71-17.84H130l-.78,3.87h-5.73l-.57,2.81h5.34l-.87,3.86h-5.33l-.69,3.37h5.73Z"/><path d="M135.77,114.21v-12.8h-.1c-.53,3.39-.88,5.47-1,6.25l-1.36,6.55H129.1l3.71-17.84H139V109h.09l5.74-12.67h6.32l-3.75,17.84h-4.22l1.4-6.7c.4-1.85.84-3.63,1.3-5.32l.18-.78H146l-5.8,12.8Z"/><path d="M162.2,108.73a5.25,5.25,0,0,1-1.77,4.22,7.38,7.38,0,0,1-4.92,1.5,10,10,0,0,1-2.5-.3,6.38,6.38,0,0,1-2-.87V109a10.74,10.74,0,0,0,2.31,1.09,7.53,7.53,0,0,0,2.36.44,2.06,2.06,0,0,0,1.34-.38,1.3,1.3,0,0,0,.46-1.08,1.43,1.43,0,0,0-.14-.61,3,3,0,0,0-.41-.58c-.18-.19-.65-.61-1.42-1.26a7.86,7.86,0,0,1-2-2.34,5.43,5.43,0,0,1-.64-2.62,5.33,5.33,0,0,1,.79-2.88,5.2,5.2,0,0,1,2.22-2,7.2,7.2,0,0,1,3.21-.7,10.26,10.26,0,0,1,5.17,1.3L162.57,101a8,8,0,0,0-3.5-1.07,1.86,1.86,0,0,0-1.18.34,1.21,1.21,0,0,0-.41,1,1.79,1.79,0,0,0,.4,1.12,9.1,9.1,0,0,0,1.53,1.38,7.8,7.8,0,0,1,2.1,2.24A5.17,5.17,0,0,1,162.2,108.73Z"/><path d="M112.31,126.52h7.33l-2,9.7a19.86,19.86,0,0,1-6.26,1,6.3,6.3,0,0,1-4.86-1.86,7.36,7.36,0,0,1-1.73-5.25,12.9,12.9,0,0,1,1.32-5.88,9.53,9.53,0,0,1,3.62-4,11.43,11.43,0,0,1,10.74-.06l-1.77,3.76a7.11,7.11,0,0,0-3.68-1.09,4.62,4.62,0,0,0-2.8.88,6,6,0,0,0-1.95,2.62,9.53,9.53,0,0,0-.73,3.69c0,2.15.84,3.23,2.52,3.23a8.29,8.29,0,0,0,1.59-.17l.62-2.84h-2.75Z"/><path d="M130.87,118.85a6.45,6.45,0,0,1,4.86,1.81,7.06,7.06,0,0,1,1.73,5.06,14.54,14.54,0,0,1-1.19,5.93,9.55,9.55,0,0,1-3.3,4.13,8.49,8.49,0,0,1-4.88,1.43,6.63,6.63,0,0,1-5-1.82,7,7,0,0,1-1.76-5,14.08,14.08,0,0,1,1.24-5.94,9.57,9.57,0,0,1,3.37-4.13A8.64,8.64,0,0,1,130.87,118.85Zm1.85,6.92a3.58,3.58,0,0,0-.58-2.18,1.93,1.93,0,0,0-1.67-.79,3,3,0,0,0-2.18,1,7.18,7.18,0,0,0-1.6,2.82,11.7,11.7,0,0,0-.59,3.67c0,2,.8,3,2.4,3a2.93,2.93,0,0,0,2.12-1,7,7,0,0,0,1.54-2.74A12.09,12.09,0,0,0,132.72,125.77Z"/><path d="M137.75,135.42a2.79,2.79,0,0,1,.78-2.08,3,3,0,0,1,2.15-.77,2.32,2.32,0,0,1,1.6.5,1.73,1.73,0,0,1,.56,1.39,2.74,2.74,0,0,1-.76,2.08,2.87,2.87,0,0,1-2.08.73,2.64,2.64,0,0,1-1.66-.47A1.66,1.66,0,0,1,137.75,135.42Zm5.3-4.75h-3.94L141,119.13h5.12Z"/></g></g></g></svg>