<svg width="80" height="80" fill="none" xmlns="http://www.w3.org/2000/svg"><g clip-path="url(#clip0)"><path d="M46.378 10.723L57.151 0H80v21.503L68.547 32.567V10.723H46.378z" fill="#FA1100"/><path d="M69.228 46.411L80 57.191V80H58.512L47.399 68.596h21.829V46.41z" fill="#0F0"/><path d="M33.565 10.723L22.849 0H0v21.503l11.396 11.064V10.723h22.169z" fill="#fff"/><path d="M10.716 46.411L0 57.191V80h21.488l11.056-11.404H10.716V46.41z" fill="#00F"/><path d="M19.277 41.362l17.52-17.873" stroke="#fff" stroke-width=".811" stroke-miterlimit="10" stroke-linecap="round"/><path d="M34.755 32.908h-2.04l-.568 1.248h-1.814l3.345-6.695h2.268l.567 6.695h-1.7l-.058-1.248zm-1.417-1.419h1.304l-.057-1.929v-1.021c-.056.284-.17.51-.283.738l-.964 2.212zm3.799 2.667l1.417-6.638h1.758l-1.077 5.22h2.154l-.283 1.475h-3.97v-.057zm4.763 0l1.36-6.695h1.758l-1.078 5.22h2.155l-.283 1.475h-3.913zM27.782 40.68c0 .682-.227 1.192-.68 1.59-.454.397-1.078.567-1.815.567a4.4 4.4 0 0 1-.907-.114c-.284-.056-.567-.17-.737-.34v-1.589c.227.17.567.284.85.398.34.113.624.17.907.17.227 0 .397-.057.51-.114a.515.515 0 0 0 .17-.397c0-.057 0-.17-.056-.227-.057-.057-.113-.17-.17-.227a5.95 5.95 0 0 0-.51-.454c-.34-.283-.624-.567-.737-.85-.17-.285-.227-.625-.227-.965 0-.398.113-.738.283-1.078.17-.34.454-.568.85-.738.341-.17.738-.284 1.191-.284.738 0 1.361.17 1.928.511l-.623 1.362c-.51-.284-.964-.397-1.305-.397-.17 0-.34.056-.453.113-.114.057-.17.227-.17.397s.056.284.17.397c.113.114.283.284.567.511.34.284.623.567.794.851.056.227.17.51.17.908zm3.345-2.155l1.417-2.497h1.985L31.75 40.17l-.567 2.61h-1.7l.567-2.61-1.134-4.085h1.814l.397 2.44zm6.803 2.155c0 .682-.226 1.192-.68 1.59-.453.397-1.077.567-1.814.567a4.4 4.4 0 0 1-.907-.114c-.284-.056-.567-.17-.737-.34v-1.589c.226.17.567.284.85.398.34.113.624.17.907.17.227 0 .397-.057.51-.114a.515.515 0 0 0 .17-.397c0-.057 0-.17-.056-.227-.057-.057-.114-.17-.17-.227a5.95 5.95 0 0 0-.51-.454c-.34-.283-.624-.567-.738-.85-.17-.285-.226-.625-.226-.965 0-.398.113-.738.283-1.078.17-.34.454-.568.85-.738a2.64 2.64 0 0 1 1.191-.284c.737 0 1.361.17 1.928.511l-.624 1.362c-.51-.284-.963-.397-1.304-.397-.17 0-.34.056-.453.113-.114.057-.17.227-.17.397s.056.284.17.397c.113.114.283.284.567.511.34.284.623.567.793.851.057.227.17.51.17.908zm3.232 2.043h-1.757l1.077-5.22h-1.417l.283-1.475h4.593l-.284 1.532H42.24l-1.078 5.163zm6.067 0h-3.912l1.36-6.695h3.913l-.284 1.476h-2.154l-.17 1.078h1.984L47.626 40h-1.984l-.284 1.248h2.155l-.284 1.475zm3.515 0v-4.765h-.057c-.226 1.248-.34 2.042-.396 2.326l-.51 2.44h-1.588l1.36-6.696h2.325v4.766h.057l2.154-4.766h2.382l-1.418 6.695h-1.587l.51-2.496c.17-.68.283-1.362.51-1.986l.057-.283h-.057l-2.154 4.765h-1.588zm9.922-2.043c0 .682-.226 1.192-.68 1.59-.454.397-1.077.567-1.814.567a4.4 4.4 0 0 1-.908-.114c-.283-.056-.567-.17-.737-.34v-1.589c.227.17.567.284.85.398.341.113.624.17.908.17.227 0 .397-.057.51-.114a.515.515 0 0 0 .17-.397c0-.057 0-.17-.056-.227-.057-.057-.114-.17-.17-.227a5.942 5.942 0 0 0-.51-.454c-.34-.283-.624-.567-.738-.85-.17-.285-.227-.625-.227-.965 0-.398.114-.738.284-1.078.17-.34.453-.568.85-.738.34-.17.737-.284 1.191-.284.737 0 1.36.17 1.928.511l-.624 1.362c-.51-.284-.964-.397-1.304-.397-.17 0-.34.056-.454.113-.113.057-.17.227-.17.397s.057.284.17.397c.114.114.284.284.567.511.34.284.624.567.794.851.057.227.17.51.17.908zm-18.653 6.64h2.721l-.737 3.63c-.737.227-1.53.397-2.324.397-.794 0-1.361-.226-1.815-.68-.453-.454-.623-1.135-.623-1.986 0-.794.17-1.532.51-2.213.34-.68.794-1.135 1.36-1.475.568-.34 1.248-.51 1.985-.51.794 0 1.474.17 1.984.51l-.68 1.418a2.507 2.507 0 0 0-1.36-.397c-.398 0-.738.114-1.021.34a2.572 2.572 0 0 0-.737.965c-.17.454-.284.908-.284 1.362 0 .794.34 1.191.964 1.191.17 0 .397 0 .624-.056l.227-1.078h-1.021l.227-1.419zm6.917-2.838c.794 0 1.36.227 1.814.681.454.454.624 1.078.624 1.873 0 .794-.17 1.531-.454 2.212a3.395 3.395 0 0 1-1.247 1.532c-.51.34-1.134.51-1.814.51-.794 0-1.418-.226-1.871-.68-.397-.397-.624-1.021-.624-1.816a5.7 5.7 0 0 1 .454-2.212 3.396 3.396 0 0 1 1.247-1.532c.567-.397 1.19-.568 1.87-.568zm.68 2.553c0-.34-.056-.624-.227-.794-.113-.17-.34-.284-.623-.284a.99.99 0 0 0-.794.398c-.227.283-.454.624-.567 1.078-.17.453-.227.907-.227 1.361 0 .738.284 1.078.907 1.078a.99.99 0 0 0 .794-.397c.227-.227.454-.567.567-1.021.114-.397.17-.908.17-1.419zm1.871 3.632c0-.34.114-.568.284-.795.17-.17.453-.283.794-.283.283 0 .453.056.623.17a.719.719 0 0 1 .227.51c0 .34-.113.568-.283.795-.17.17-.454.283-.794.283-.284 0-.454-.056-.624-.17a.72.72 0 0 1-.227-.51zm1.985-1.76h-1.474l.68-4.311H54.6l-1.134 4.312z" fill="#fff"/></g><defs><clipPath id="clip0"><path fill="#fff" d="M0 0h80v80H0z"/></clipPath></defs></svg>